%TF.GenerationSoftware,KiCad,Pcbnew,8.0.2*%
%TF.CreationDate,2024-05-28T09:54:11+02:00*%
%TF.ProjectId,esp_mini_open_brd,6573705f-6d69-46e6-995f-6f70656e5f62,rev?*%
%TF.SameCoordinates,Original*%
%TF.FileFunction,Soldermask,Bot*%
%TF.FilePolarity,Negative*%
%FSLAX46Y46*%
G04 Gerber Fmt 4.6, Leading zero omitted, Abs format (unit mm)*
G04 Created by KiCad (PCBNEW 8.0.2) date 2024-05-28 09:54:11*
%MOMM*%
%LPD*%
G01*
G04 APERTURE LIST*
G04 Aperture macros list*
%AMRoundRect*
0 Rectangle with rounded corners*
0 $1 Rounding radius*
0 $2 $3 $4 $5 $6 $7 $8 $9 X,Y pos of 4 corners*
0 Add a 4 corners polygon primitive as box body*
4,1,4,$2,$3,$4,$5,$6,$7,$8,$9,$2,$3,0*
0 Add four circle primitives for the rounded corners*
1,1,$1+$1,$2,$3*
1,1,$1+$1,$4,$5*
1,1,$1+$1,$6,$7*
1,1,$1+$1,$8,$9*
0 Add four rect primitives between the rounded corners*
20,1,$1+$1,$2,$3,$4,$5,0*
20,1,$1+$1,$4,$5,$6,$7,0*
20,1,$1+$1,$6,$7,$8,$9,0*
20,1,$1+$1,$8,$9,$2,$3,0*%
%AMHorizOval*
0 Thick line with rounded ends*
0 $1 width*
0 $2 $3 position (X,Y) of the first rounded end (center of the circle)*
0 $4 $5 position (X,Y) of the second rounded end (center of the circle)*
0 Add line between two ends*
20,1,$1,$2,$3,$4,$5,0*
0 Add two circle primitives to create the rounded ends*
1,1,$1,$2,$3*
1,1,$1,$4,$5*%
%AMRotRect*
0 Rectangle, with rotation*
0 The origin of the aperture is its center*
0 $1 length*
0 $2 width*
0 $3 Rotation angle, in degrees counterclockwise*
0 Add horizontal line*
21,1,$1,$2,0,0,$3*%
G04 Aperture macros list end*
%ADD10R,1.530000X1.530000*%
%ADD11C,1.530000*%
%ADD12C,2.500000*%
%ADD13O,1.308000X2.616000*%
%ADD14C,1.950000*%
%ADD15R,1.700000X1.700000*%
%ADD16O,1.700000X1.700000*%
%ADD17C,2.100000*%
%ADD18C,0.001000*%
%ADD19RoundRect,0.135000X-0.135000X-0.185000X0.135000X-0.185000X0.135000X0.185000X-0.135000X0.185000X0*%
%ADD20RoundRect,0.140000X0.140000X0.170000X-0.140000X0.170000X-0.140000X-0.170000X0.140000X-0.170000X0*%
%ADD21R,1.400000X0.950000*%
%ADD22RoundRect,0.135000X0.185000X-0.135000X0.185000X0.135000X-0.185000X0.135000X-0.185000X-0.135000X0*%
%ADD23R,0.450000X1.475000*%
%ADD24RotRect,1.700000X1.700000X135.000000*%
%ADD25HorizOval,1.700000X0.000000X0.000000X0.000000X0.000000X0*%
%ADD26HorizOval,1.700000X0.000000X0.000000X0.000000X0.000000X0*%
%ADD27RotRect,1.700000X1.700000X225.000000*%
G04 APERTURE END LIST*
D10*
X131678138Y-106313910D03*
D11*
X131678138Y-108853910D03*
X131678138Y-111393910D03*
X131678138Y-113933910D03*
X131678138Y-116473910D03*
X131678138Y-119013910D03*
X131678138Y-121553910D03*
X131678138Y-124093910D03*
X131678138Y-126633910D03*
X131678138Y-129173910D03*
X131678138Y-131713910D03*
X131678138Y-134253910D03*
X131678138Y-136793910D03*
X131678138Y-139333910D03*
X131678138Y-141873910D03*
X131678138Y-144413910D03*
X131678138Y-146953910D03*
X131678138Y-149493910D03*
X131678138Y-152033910D03*
X157078138Y-152033910D03*
X157078138Y-149493910D03*
X157078138Y-146953910D03*
X157078138Y-144413910D03*
X157078138Y-141873910D03*
X157078138Y-139333910D03*
X157078138Y-136793910D03*
X157078138Y-134253910D03*
X157078138Y-131713910D03*
X157078138Y-129173910D03*
X157078138Y-126633910D03*
X157078138Y-124093910D03*
X157078138Y-121553910D03*
X157078138Y-119013910D03*
X157078138Y-116473910D03*
X157078138Y-113933910D03*
X157078138Y-111393910D03*
X157078138Y-108853910D03*
X157078138Y-106313910D03*
D12*
X114250919Y-57826410D03*
D13*
X110950919Y-64126410D03*
X119550919Y-64126410D03*
X114350919Y-64126410D03*
X120450919Y-56826410D03*
X110550919Y-56826410D03*
D14*
X167997319Y-57513910D03*
X165457319Y-57513910D03*
D15*
X114005638Y-150513910D03*
D16*
X116545638Y-150513910D03*
X119085638Y-150513910D03*
D15*
X164205638Y-96113910D03*
D16*
X161665638Y-96113910D03*
X159125638Y-96113910D03*
D15*
X163705638Y-148713910D03*
D16*
X163705638Y-146173910D03*
X163705638Y-143633910D03*
X163705638Y-141093910D03*
X163705638Y-138553910D03*
X163705638Y-136013910D03*
X163705638Y-133473910D03*
X163705638Y-130933910D03*
X163705638Y-128393910D03*
X163705638Y-125853910D03*
X163705638Y-123313910D03*
X163705638Y-120773910D03*
X163705638Y-118233910D03*
X163705638Y-115693910D03*
X163705638Y-113153910D03*
X163705638Y-110613910D03*
X163705638Y-108073910D03*
X163705638Y-105533910D03*
D15*
X169605638Y-101313910D03*
D16*
X169605638Y-98773910D03*
X169605638Y-96233910D03*
D17*
X97005638Y-64513910D03*
D15*
X154605638Y-67893910D03*
D16*
X154605638Y-70433910D03*
X154605638Y-72973910D03*
X154605638Y-75513910D03*
X154605638Y-78053910D03*
X154605638Y-80593910D03*
D15*
X103705638Y-69193910D03*
D16*
X103705638Y-71733910D03*
X103705638Y-74273910D03*
X103705638Y-76813910D03*
D15*
X146255638Y-67538910D03*
D16*
X146255638Y-64998910D03*
X143715638Y-67538910D03*
X143715638Y-64998910D03*
X141175638Y-67538910D03*
X141175638Y-64998910D03*
X138635638Y-67538910D03*
X138635638Y-64998910D03*
X136095638Y-67538910D03*
X136095638Y-64998910D03*
X133555638Y-67538910D03*
X133555638Y-64998910D03*
X131015638Y-67538910D03*
X131015638Y-64998910D03*
D15*
X114005638Y-143113910D03*
D16*
X116545638Y-143113910D03*
X119085638Y-143113910D03*
D17*
X178405638Y-150313910D03*
D18*
X115785638Y-109238910D03*
X111975638Y-109238910D03*
D15*
X103605638Y-90573910D03*
D16*
X103605638Y-93113910D03*
X103605638Y-95653910D03*
X103605638Y-98193910D03*
D15*
X164205638Y-101313910D03*
D16*
X161665638Y-101313910D03*
X159125638Y-101313910D03*
D15*
X115155638Y-101063910D03*
D16*
X112615638Y-101063910D03*
D17*
X178505638Y-64613910D03*
D19*
X153795638Y-117413910D03*
X154815638Y-117413910D03*
D15*
X170605638Y-105473910D03*
D16*
X170605638Y-108013910D03*
X170605638Y-110553910D03*
X170605638Y-113093910D03*
X170605638Y-115633910D03*
X170605638Y-118173910D03*
X170605638Y-120713910D03*
X170605638Y-123253910D03*
X170605638Y-125793910D03*
X170605638Y-128333910D03*
X170605638Y-130873910D03*
X170605638Y-133413910D03*
X170605638Y-135953910D03*
X170605638Y-138493910D03*
X170605638Y-141033910D03*
X170605638Y-143573910D03*
X170605638Y-146113910D03*
X170605638Y-148653910D03*
D20*
X124585638Y-125088910D03*
X123625638Y-125088910D03*
D19*
X153795638Y-116013910D03*
X154815638Y-116013910D03*
D21*
X168251319Y-79763910D03*
X168251319Y-77863910D03*
X166320919Y-79763910D03*
X166320919Y-77863910D03*
X164415919Y-79763910D03*
X164415919Y-77863910D03*
D15*
X103605638Y-148533910D03*
D16*
X103605638Y-145993910D03*
X103605638Y-143453910D03*
X103605638Y-140913910D03*
X103605638Y-138373910D03*
X103605638Y-135833910D03*
X103605638Y-133293910D03*
X103605638Y-130753910D03*
X103605638Y-128213910D03*
X103605638Y-125673910D03*
X103605638Y-123133910D03*
X103605638Y-120593910D03*
X103605638Y-118053910D03*
X103605638Y-115513910D03*
X103605638Y-112973910D03*
X103605638Y-110433910D03*
X103605638Y-107893910D03*
X103605638Y-105353910D03*
D22*
X164005638Y-93223910D03*
X164005638Y-92203910D03*
D23*
X123305638Y-132451910D03*
X122655638Y-132451910D03*
X122005638Y-132451910D03*
X121355638Y-132451910D03*
X120705638Y-132451910D03*
X120055638Y-132451910D03*
X119405638Y-132451910D03*
X118755638Y-132451910D03*
X118105638Y-132451910D03*
X117455638Y-132451910D03*
X116805638Y-132451910D03*
X116155638Y-132451910D03*
X116155638Y-126575910D03*
X116805638Y-126575910D03*
X117455638Y-126575910D03*
X118105638Y-126575910D03*
X118755638Y-126575910D03*
X119405638Y-126575910D03*
X120055638Y-126575910D03*
X120705638Y-126575910D03*
X121355638Y-126575910D03*
X122005638Y-126575910D03*
X122655638Y-126575910D03*
X123305638Y-126575910D03*
D24*
X101157200Y-57162347D03*
D25*
X99361149Y-58958398D03*
D22*
X163005638Y-93223910D03*
X163005638Y-92203910D03*
D26*
X176726689Y-58884961D03*
D27*
X174930638Y-57088910D03*
D17*
X97005638Y-150313910D03*
M02*
