M48
INCH,TZ
T1C0.0118
T2C0.0138
T3C0.0177
T4C0.0315
T5C0.0394
T6C0.0402
T7C0.0512
%
G90
G05
T1
X43939Y-30675
X43939Y-30911
X43979Y-29651
X43979Y-29887
X44254Y-30675
X44343Y-45543
X44569Y-30675
X44648Y-30202
X44835Y-45557
X45305Y-45561
X45839Y-45567
X47778Y-50252
X47797Y-53942
X48044Y-52535
X48290Y-51748
X48640Y-38994
X48851Y-37658
X49166Y-38226
X49490Y-38002
X49490Y-38248
X49490Y-38514
X50612Y-37223
X50612Y-37459
X50672Y-38746
X50849Y-37223
X50849Y-37459
X50849Y-38876
X50927Y-37695
X50927Y-37931
X50927Y-38167
X50927Y-38404
X50927Y-38640
X51085Y-37223
X51085Y-37459
X51085Y-38876
X51164Y-37695
X51164Y-37931
X51164Y-38167
X51164Y-38404
X51164Y-38640
X51321Y-37223
X51462Y-38410
X51466Y-37941
X51466Y-38185
X53979Y-47171
X60435Y-41659
X60650Y-41875
X60951Y-45950
X61223Y-47525
X63585Y-52840
X66428Y-33897
X67431Y-35068
T2
X47187Y-39311
X47345Y-39016
X47581Y-39311
X47699Y-39016
X47935Y-39311
X49175Y-37876
T3
X36851Y-31598
X36853Y-24261
X36853Y-24761
X36853Y-25261
X36853Y-25761
X36853Y-26261
X36853Y-26761
X36853Y-27261
X36853Y-27761
X36853Y-32033
X36853Y-32533
X36853Y-33033
X36853Y-33533
X36853Y-34033
X36853Y-34533
X36853Y-35033
X36853Y-39017
X36853Y-39517
X36853Y-40017
X36853Y-40517
X36853Y-44214
X36853Y-44714
X36853Y-45214
X36853Y-45714
X36853Y-51667
X36853Y-52167
X36853Y-52667
X36853Y-53167
X36853Y-53667
X41167Y-55986
X41174Y-54966
X41183Y-52958
X41219Y-57900
X41262Y-43982
X41262Y-44986
X41262Y-45950
X41262Y-46895
X41262Y-49021
X42068Y-28410
X42955Y-38352
X42964Y-36059
X43231Y-36853
X43388Y-29484
X43703Y-27131
X43703Y-27525
X43703Y-27874
X44057Y-47860
X44136Y-50084
X44156Y-37525
X44330Y-28034
X44412Y-53982
X44500Y-52122
X44823Y-41539
X44845Y-37131
X45101Y-28283
X45324Y-41533
X45903Y-38356
X46774Y-30990
X46774Y-31383
X46774Y-31777
X46774Y-32171
X46774Y-32565
X47168Y-37053
X47246Y-31383
X47246Y-31777
X47246Y-32171
X47246Y-32565
X47263Y-29994
X47838Y-29981
X47876Y-31383
X47876Y-31777
X47876Y-32171
X47876Y-32565
X47876Y-40911
X47876Y-45832
X48030Y-44179
X48299Y-38578
X48530Y-44179
X48664Y-48942
X48733Y-53490
X48762Y-50626
X48782Y-52171
X48939Y-38746
X48967Y-21777
X48996Y-30035
X48996Y-30535
X49030Y-44179
X49057Y-40911
X49136Y-45832
X49136Y-58824
X49175Y-56895
X49451Y-46935
X49451Y-47328
X49467Y-21777
X49496Y-30035
X49496Y-30535
X49530Y-44179
X49727Y-54809
X49799Y-56468
X49805Y-56895
X49845Y-58824
X49967Y-21777
X50467Y-21777
X50908Y-59218
X50967Y-21777
X51026Y-31856
X51026Y-32250
X51026Y-32643
X51081Y-53423
X51262Y-50013
X51467Y-21777
X51471Y-48356
X51809Y-40360
X51967Y-21777
X52079Y-37210
X52309Y-40360
X52443Y-38785
X52809Y-40360
X53191Y-43588
X53191Y-45084
X53309Y-40360
X53337Y-47364
X53337Y-49250
X53546Y-31344
X53821Y-51423
X53821Y-53352
X54254Y-29966
X55160Y-31108
X55593Y-54572
X56061Y-28761
X56089Y-27045
X56089Y-30490
X56325Y-60045
X56534Y-37053
X56542Y-42194
X56542Y-43817
X56825Y-60045
X57246Y-46226
X57325Y-60045
X57561Y-28352
X57825Y-60045
X58034Y-31187
X59042Y-42076
X59294Y-56265
X59687Y-24612
X59695Y-44742
X59766Y-33352
X60144Y-47588
X60553Y-45242
X60593Y-40990
X60711Y-33352
X60841Y-21773
X60892Y-51214
X60892Y-54324
X60896Y-52856
X61031Y-38765
X61031Y-40281
X61065Y-48313
X61223Y-49336
X61341Y-21773
X61341Y-22273
X61341Y-22773
X61341Y-23273
X61853Y-40061
X61971Y-32840
X61971Y-33340
X62455Y-26115
X62455Y-26515
X62455Y-26915
X62467Y-24072
X62467Y-24472
X62467Y-24872
X62486Y-21737
X62486Y-22137
X62486Y-22537
X62561Y-46836
X62601Y-51450
X62727Y-49478
X62731Y-50588
X62742Y-42364
X62774Y-45309
X62790Y-43927
X62805Y-52608
X62837Y-54572
X62916Y-30832
X62951Y-46108
X62955Y-31580
X62959Y-48679
X63144Y-37411
X63178Y-33640
X63187Y-38750
X63191Y-25675
X63636Y-55541
X63664Y-23356
X63664Y-23756
X63664Y-24156
X63681Y-21738
X63681Y-22138
X63681Y-22538
X63691Y-33116
X63703Y-32328
X63709Y-34415
X63971Y-25283
X64175Y-31541
X64175Y-33891
X64609Y-24289
X64609Y-24689
X64741Y-30324
X65431Y-34143
X65481Y-26273
X65496Y-30325
X65534Y-37155
X65695Y-40911
X65878Y-45635
X65878Y-47063
X65888Y-50045
X65888Y-50990
X65889Y-52053
X65889Y-53037
X65889Y-54100
X65889Y-55005
X65908Y-47998
X66241Y-26363
X66241Y-30312
X66499Y-32096
X66735Y-32840
X66771Y-25283
X66796Y-30277
X67281Y-23673
X67483Y-31541
X67546Y-21721
X67546Y-22121
X67546Y-22521
X67837Y-33431
X67876Y-32092
X67880Y-22872
X68091Y-26363
X68219Y-24041
X68274Y-23289
X68455Y-27265
X68601Y-23659
X69034Y-24088
X69057Y-24878
X69057Y-25478
X69057Y-26078
X69057Y-26678
X71656Y-30517
X71656Y-31017
X71656Y-31517
X71656Y-32017
X71656Y-32517
X71656Y-33017
X71656Y-57391
X71656Y-57891
X71656Y-58391
T5
X39119Y-23212
X39826Y-22505
X40790Y-35659
X40790Y-36659
X40790Y-37659
X40790Y-38659
X40790Y-41478
X40790Y-42478
X40790Y-43478
X40790Y-44478
X40790Y-45478
X40790Y-46478
X40790Y-47478
X40790Y-48478
X40790Y-49478
X40790Y-50478
X40790Y-51478
X40790Y-52478
X40790Y-53478
X40790Y-54478
X40790Y-55478
X40790Y-56478
X40790Y-57478
X40790Y-58478
X40829Y-27242
X40829Y-28242
X40829Y-29242
X40829Y-30242
X44337Y-39789
X44884Y-56344
X44884Y-59257
X45337Y-39789
X45884Y-56344
X45884Y-59257
X46884Y-56344
X46884Y-59257
X51581Y-25590
X51581Y-26590
X52581Y-25590
X52581Y-26590
X53581Y-25590
X53581Y-26590
X54581Y-25590
X54581Y-26590
X55581Y-25590
X55581Y-26590
X56581Y-25590
X56581Y-26590
X57581Y-25590
X57581Y-26590
X60868Y-26730
X60868Y-27730
X60868Y-28730
X60868Y-29730
X60868Y-30730
X60868Y-31730
X62648Y-37840
X62648Y-39887
X63648Y-37840
X63648Y-39887
X64451Y-41549
X64451Y-42549
X64451Y-43549
X64451Y-44549
X64451Y-45549
X64451Y-46549
X64451Y-47549
X64451Y-48549
X64451Y-49549
X64451Y-50549
X64451Y-51549
X64451Y-52549
X64451Y-53549
X64451Y-54549
X64451Y-55549
X64451Y-56549
X64451Y-57549
X64451Y-58549
X64648Y-37840
X64648Y-39887
X66774Y-37887
X66774Y-38887
X66774Y-39887
X67168Y-41525
X67168Y-42525
X67168Y-43525
X67168Y-44525
X67168Y-45525
X67168Y-46525
X67168Y-47525
X67168Y-48525
X67168Y-49525
X67168Y-50525
X67168Y-51525
X67168Y-52525
X67168Y-53525
X67168Y-54525
X67168Y-55525
X67168Y-56525
X67168Y-57525
X67168Y-58525
X68870Y-22476
X69577Y-23183
T6
X51842Y-41856
X51842Y-42856
X51842Y-43856
X51842Y-44856
X51842Y-45856
X51842Y-46856
X51842Y-47856
X51842Y-48856
X51842Y-49856
X51842Y-50856
X51842Y-51856
X51842Y-52856
X51842Y-53856
X51842Y-54856
X51842Y-55856
X51842Y-56856
X51842Y-57856
X51842Y-58856
X51842Y-59856
X61842Y-41856
X61842Y-42856
X61842Y-43856
X61842Y-44856
X61842Y-45856
X61842Y-46856
X61842Y-47856
X61842Y-48856
X61842Y-49856
X61842Y-50856
X61842Y-51856
X61842Y-52856
X61842Y-53856
X61842Y-54856
X61842Y-55856
X61842Y-56856
X61842Y-57856
X61842Y-58856
X61842Y-59856
T7
X65141Y-22643
X66141Y-22643
T4
G00X43524Y-22077
M15
G01X43524Y-22668
M16
G05
G00X43681Y-25010
M15
G01X43681Y-25483
M16
G05
G00X45020Y-25010
M15
G01X45020Y-25483
M16
G05
G00X47067Y-25010
M15
G01X47067Y-25483
M16
G05
G00X47422Y-22077
M15
G01X47422Y-22668
M16
G05
M30
