M48
INCH,TZ
T1C0.0118
%
G90
G05
T1
X103900Y-43865
X103900Y-44101
X103900Y-44338
X103900Y-44574
X103900Y-44810
X103900Y-45046
X104136Y-43865
X104136Y-44101
X104136Y-44338
X104136Y-44574
X104136Y-44810
X104136Y-45046
X106636Y-44810
X106636Y-45046
X106872Y-44810
X106872Y-45046
X107109Y-44810
X107109Y-45046
X107345Y-44810
X107345Y-45046
X107581Y-44810
X107581Y-45046
X107817Y-44810
X107817Y-45046
X108054Y-44810
X108054Y-45046
X110987Y-43865
X110987Y-44101
X110987Y-44338
X110987Y-44574
X110987Y-44810
X110987Y-45046
X111223Y-43865
X111223Y-44101
X111223Y-44338
X111223Y-44574
X111223Y-44810
X111223Y-45046
T0
M30
