M48
INCH,TZ
T1C0.0098
T2C0.0118
T3C0.0177
%
G90
G05
T1
X92394Y-43540
X93211Y-43540
T2
X92955Y-41267
X94290Y-40239
X95798Y-39798
X96036Y-40873
X96038Y-38464
X99573Y-40294
X101400Y-40046
X101428Y-43038
X103128Y-44420
X103132Y-40105
X103132Y-40440
X103132Y-43137
X103144Y-43534
T3
X92805Y-42629
X94699Y-43775
X95349Y-43775
X95979Y-43775
X96587Y-43777
X96947Y-38082
X97569Y-39798
X97963Y-42385
X99333Y-39170
X106494Y-40101
X106766Y-39593
X107841Y-40341
X108046Y-38554
T0
M30
