G04 #@! TF.GenerationSoftware,KiCad,Pcbnew,(6.0.10)*
G04 #@! TF.CreationDate,2022-12-27T09:49:49+02:00*
G04 #@! TF.ProjectId,dock_rs232,646f636b-5f72-4733-9233-322e6b696361,rev?*
G04 #@! TF.SameCoordinates,Original*
G04 #@! TF.FileFunction,Paste,Bot*
G04 #@! TF.FilePolarity,Positive*
%FSLAX46Y46*%
G04 Gerber Fmt 4.6, Leading zero omitted, Abs format (unit mm)*
G04 Created by KiCad (PCBNEW (6.0.10)) date 2022-12-27 09:49:49*
%MOMM*%
%LPD*%
G01*
G04 APERTURE LIST*
G04 Aperture macros list*
%AMRoundRect*
0 Rectangle with rounded corners*
0 $1 Rounding radius*
0 $2 $3 $4 $5 $6 $7 $8 $9 X,Y pos of 4 corners*
0 Add a 4 corners polygon primitive as box body*
4,1,4,$2,$3,$4,$5,$6,$7,$8,$9,$2,$3,0*
0 Add four circle primitives for the rounded corners*
1,1,$1+$1,$2,$3*
1,1,$1+$1,$4,$5*
1,1,$1+$1,$6,$7*
1,1,$1+$1,$8,$9*
0 Add four rect primitives between the rounded corners*
20,1,$1+$1,$2,$3,$4,$5,0*
20,1,$1+$1,$4,$5,$6,$7,0*
20,1,$1+$1,$6,$7,$8,$9,0*
20,1,$1+$1,$8,$9,$2,$3,0*%
G04 Aperture macros list end*
%ADD10RoundRect,0.140000X0.140000X0.170000X-0.140000X0.170000X-0.140000X-0.170000X0.140000X-0.170000X0*%
%ADD11C,0.635000*%
%ADD12R,0.675000X0.250000*%
%ADD13R,0.775000X0.400000*%
%ADD14RoundRect,0.250000X1.100000X-0.325000X1.100000X0.325000X-1.100000X0.325000X-1.100000X-0.325000X0*%
%ADD15RoundRect,0.200000X-0.275000X0.200000X-0.275000X-0.200000X0.275000X-0.200000X0.275000X0.200000X0*%
%ADD16RoundRect,0.140000X-0.170000X0.140000X-0.170000X-0.140000X0.170000X-0.140000X0.170000X0.140000X0*%
%ADD17RoundRect,0.140000X-0.140000X-0.170000X0.140000X-0.170000X0.140000X0.170000X-0.140000X0.170000X0*%
%ADD18RoundRect,0.250000X-0.475000X0.250000X-0.475000X-0.250000X0.475000X-0.250000X0.475000X0.250000X0*%
%ADD19R,1.715000X0.760000*%
%ADD20R,1.200000X1.400000*%
%ADD21RoundRect,0.218750X0.218750X0.256250X-0.218750X0.256250X-0.218750X-0.256250X0.218750X-0.256250X0*%
%ADD22R,1.075000X0.500000*%
%ADD23RoundRect,0.135000X0.185000X-0.135000X0.185000X0.135000X-0.185000X0.135000X-0.185000X-0.135000X0*%
%ADD24R,2.100000X4.150000*%
%ADD25RoundRect,0.135000X0.135000X0.185000X-0.135000X0.185000X-0.135000X-0.185000X0.135000X-0.185000X0*%
%ADD26RoundRect,0.225000X-0.250000X0.225000X-0.250000X-0.225000X0.250000X-0.225000X0.250000X0.225000X0*%
%ADD27R,1.400000X1.200000*%
%ADD28RoundRect,0.140000X0.170000X-0.140000X0.170000X0.140000X-0.170000X0.140000X-0.170000X-0.140000X0*%
%ADD29R,0.900000X0.300000*%
%ADD30R,0.300000X0.900000*%
%ADD31R,6.000000X6.000000*%
%ADD32RoundRect,0.135000X-0.135000X-0.185000X0.135000X-0.185000X0.135000X0.185000X-0.135000X0.185000X0*%
%ADD33R,1.639799X0.431000*%
%ADD34R,1.300000X1.200000*%
G04 APERTURE END LIST*
D10*
X261405919Y-105207354D03*
X260445919Y-105207354D03*
D11*
X347455919Y-98867354D03*
X346185919Y-98867354D03*
X344915919Y-98867354D03*
X343645919Y-98867354D03*
X342375919Y-98867354D03*
X341105919Y-98867354D03*
X339835919Y-98867354D03*
X338565919Y-98867354D03*
X337295919Y-98867354D03*
X336025919Y-98867354D03*
X334755919Y-98867354D03*
X347455919Y-100137354D03*
X346185919Y-100137354D03*
X344915919Y-100137354D03*
X343645919Y-100137354D03*
X342375919Y-100137354D03*
X341105919Y-100137354D03*
X339835919Y-100137354D03*
X338565919Y-100137354D03*
X337295919Y-100137354D03*
X336025919Y-100137354D03*
X334755919Y-100137354D03*
X347455919Y-101407354D03*
X346185919Y-101407354D03*
X344915919Y-101407354D03*
X343645919Y-101407354D03*
X342375919Y-101407354D03*
X341105919Y-101407354D03*
X339835919Y-101407354D03*
X338565919Y-101407354D03*
X337295919Y-101407354D03*
X336025919Y-101407354D03*
X334755919Y-101407354D03*
X347455919Y-102677354D03*
X346185919Y-102677354D03*
X344915919Y-102677354D03*
X343645919Y-102677354D03*
X342375919Y-102677354D03*
X341105919Y-102677354D03*
X339835919Y-102677354D03*
X338565919Y-102677354D03*
X337295919Y-102677354D03*
X336025919Y-102677354D03*
X334755919Y-102677354D03*
X347455919Y-103947354D03*
X346185919Y-103947354D03*
X344915919Y-103947354D03*
X343645919Y-103947354D03*
X342375919Y-103947354D03*
X341105919Y-103947354D03*
X339835919Y-103947354D03*
X338565919Y-103947354D03*
X337295919Y-103947354D03*
X336025919Y-103947354D03*
X334755919Y-103947354D03*
X347455919Y-105217354D03*
X346185919Y-105217354D03*
X344915919Y-105217354D03*
X343645919Y-105217354D03*
X342375919Y-105217354D03*
X341105919Y-105217354D03*
X339835919Y-105217354D03*
X338565919Y-105217354D03*
X337295919Y-105217354D03*
X336025919Y-105217354D03*
X334755919Y-105217354D03*
X347455919Y-106487354D03*
X346185919Y-106487354D03*
X344915919Y-106487354D03*
X343645919Y-106487354D03*
X342375919Y-106487354D03*
X341105919Y-106487354D03*
X339835919Y-106487354D03*
X338565919Y-106487354D03*
X337295919Y-106487354D03*
X336025919Y-106487354D03*
X334755919Y-106487354D03*
X347455919Y-107757354D03*
X346185919Y-107757354D03*
X344915919Y-107757354D03*
X343645919Y-107757354D03*
X342375919Y-107757354D03*
X341105919Y-107757354D03*
X339835919Y-107757354D03*
X338565919Y-107757354D03*
X337295919Y-107757354D03*
X336025919Y-107757354D03*
X334755919Y-107757354D03*
X347455919Y-109027354D03*
X346185919Y-109027354D03*
X344915919Y-109027354D03*
X343645919Y-109027354D03*
X342375919Y-109027354D03*
X341105919Y-109027354D03*
X339835919Y-109027354D03*
X338565919Y-109027354D03*
X337295919Y-109027354D03*
X336025919Y-109027354D03*
X334755919Y-109027354D03*
X347455919Y-110297354D03*
X346185919Y-110297354D03*
X344915919Y-110297354D03*
X343645919Y-110297354D03*
X342375919Y-110297354D03*
X341105919Y-110297354D03*
X339835919Y-110297354D03*
X338565919Y-110297354D03*
X337295919Y-110297354D03*
X336025919Y-110297354D03*
X334755919Y-110297354D03*
X347455919Y-111567354D03*
X346185919Y-111567354D03*
X344915919Y-111567354D03*
X343645919Y-111567354D03*
X342375919Y-111567354D03*
X341105919Y-111567354D03*
X339835919Y-111567354D03*
X338565919Y-111567354D03*
X337295919Y-111567354D03*
X336025919Y-111567354D03*
X334755919Y-111567354D03*
D12*
X236176419Y-109592354D03*
X236176419Y-110092354D03*
D13*
X236126419Y-110592354D03*
D12*
X236176419Y-111092354D03*
X236176419Y-111592354D03*
X235301419Y-111592354D03*
X235301419Y-111092354D03*
D13*
X235351419Y-110592354D03*
D12*
X235301419Y-110092354D03*
X235301419Y-109592354D03*
D14*
X321805919Y-114142354D03*
X321805919Y-111192354D03*
D15*
X350980919Y-107767354D03*
X350980919Y-109417354D03*
D16*
X248155919Y-107657354D03*
X248155919Y-108617354D03*
D17*
X271105919Y-101857354D03*
X272065919Y-101857354D03*
D16*
X244915919Y-102222354D03*
X244915919Y-103182354D03*
D10*
X261395919Y-104247354D03*
X260435919Y-104247354D03*
D17*
X235770919Y-107662354D03*
X236730919Y-107662354D03*
D18*
X351605919Y-96067354D03*
X351605919Y-97967354D03*
D19*
X230023919Y-103077354D03*
X230023919Y-104347354D03*
X230023919Y-105617354D03*
X230023919Y-109427354D03*
X230023919Y-110697354D03*
X230023919Y-111967354D03*
X221577919Y-111967354D03*
X221577919Y-110697354D03*
X221577919Y-109427354D03*
X221577919Y-105617354D03*
X221577919Y-104347354D03*
X221577919Y-103077354D03*
D20*
X246095919Y-100027354D03*
X246095919Y-97827354D03*
X247795919Y-97827354D03*
X247795919Y-100027354D03*
D17*
X260465919Y-110537354D03*
X261425919Y-110537354D03*
D21*
X236218419Y-114002354D03*
X234643419Y-114002354D03*
D22*
X315205919Y-97617354D03*
X317505919Y-97617354D03*
D17*
X250575919Y-107967354D03*
X251535919Y-107967354D03*
D16*
X251505919Y-99487354D03*
X251505919Y-100447354D03*
X240070919Y-102212354D03*
X240070919Y-103172354D03*
D10*
X273935919Y-101847354D03*
X272975919Y-101847354D03*
X261410919Y-101867354D03*
X260450919Y-101867354D03*
D23*
X232905919Y-107807354D03*
X232905919Y-106787354D03*
D10*
X261415919Y-109567354D03*
X260455919Y-109567354D03*
D17*
X236825919Y-104802354D03*
X237785919Y-104802354D03*
D10*
X261405919Y-111887354D03*
X260445919Y-111887354D03*
D24*
X359455919Y-101017354D03*
X359455919Y-109517354D03*
D10*
X261405919Y-112837354D03*
X260445919Y-112837354D03*
D25*
X233455919Y-112207354D03*
X232435919Y-112207354D03*
D26*
X304005919Y-97717354D03*
X304005919Y-99267354D03*
D27*
X273385919Y-99657354D03*
X271185919Y-99657354D03*
X271185919Y-97957354D03*
X273385919Y-97957354D03*
D28*
X243945919Y-101067354D03*
X243945919Y-100107354D03*
D16*
X243945919Y-98222354D03*
X243945919Y-99182354D03*
D17*
X260445919Y-102842354D03*
X261405919Y-102842354D03*
D29*
X238925919Y-112097354D03*
X238925919Y-111597354D03*
X238925919Y-111097354D03*
X238925919Y-110597354D03*
X238925919Y-110097354D03*
X238925919Y-109597354D03*
X238925919Y-109097354D03*
X238925919Y-108597354D03*
X238925919Y-108097354D03*
X238925919Y-107597354D03*
X238925919Y-107097354D03*
X238925919Y-106597354D03*
X238925919Y-106097354D03*
X238925919Y-105597354D03*
D30*
X239625919Y-104897354D03*
X240125919Y-104897354D03*
X240625919Y-104897354D03*
X241125919Y-104897354D03*
X241625919Y-104897354D03*
X242125919Y-104897354D03*
X242625919Y-104897354D03*
X243125919Y-104897354D03*
X243625919Y-104897354D03*
X244125919Y-104897354D03*
X244625919Y-104897354D03*
X245125919Y-104897354D03*
X245625919Y-104897354D03*
X246125919Y-104897354D03*
D29*
X246825919Y-105597354D03*
X246825919Y-106097354D03*
X246825919Y-106597354D03*
X246825919Y-107097354D03*
X246825919Y-107597354D03*
X246825919Y-108097354D03*
X246825919Y-108597354D03*
X246825919Y-109097354D03*
X246825919Y-109597354D03*
X246825919Y-110097354D03*
X246825919Y-110597354D03*
X246825919Y-111097354D03*
X246825919Y-111597354D03*
X246825919Y-112097354D03*
D30*
X246125919Y-112797354D03*
X245625919Y-112797354D03*
X245125919Y-112797354D03*
X244625919Y-112797354D03*
X244125919Y-112797354D03*
X243625919Y-112797354D03*
X243125919Y-112797354D03*
X242625919Y-112797354D03*
X242125919Y-112797354D03*
X241625919Y-112797354D03*
X241125919Y-112797354D03*
X240625919Y-112797354D03*
X240125919Y-112797354D03*
X239625919Y-112797354D03*
D31*
X242875919Y-108847354D03*
D14*
X325055919Y-114142354D03*
X325055919Y-111192354D03*
D32*
X236765919Y-103297354D03*
X237785919Y-103297354D03*
D33*
X258748119Y-101712355D03*
X258748119Y-102362353D03*
X258748119Y-103012355D03*
X258748119Y-103662353D03*
X258748119Y-104312352D03*
X258748119Y-104962353D03*
X258748119Y-105612352D03*
X258748119Y-106262353D03*
X251483719Y-106262353D03*
X251483719Y-105612355D03*
X251483719Y-104962353D03*
X251483719Y-104312355D03*
X251483719Y-103662356D03*
X251483719Y-103012355D03*
X251483719Y-102362356D03*
X251483719Y-101712355D03*
D26*
X305505919Y-97717354D03*
X305505919Y-99267354D03*
D32*
X242725919Y-102827354D03*
X243745919Y-102827354D03*
D25*
X233455919Y-110477354D03*
X232435919Y-110477354D03*
D34*
X352805919Y-101317354D03*
X352805919Y-103017354D03*
D33*
X258769019Y-109294855D03*
X258769019Y-109944853D03*
X258769019Y-110594855D03*
X258769019Y-111244853D03*
X258769019Y-111894852D03*
X258769019Y-112544853D03*
X258769019Y-113194852D03*
X258769019Y-113844853D03*
X251504619Y-113844853D03*
X251504619Y-113194855D03*
X251504619Y-112544853D03*
X251504619Y-111894855D03*
X251504619Y-111244856D03*
X251504619Y-110594855D03*
X251504619Y-109944856D03*
X251504619Y-109294855D03*
D23*
X234665919Y-107812354D03*
X234665919Y-106792354D03*
M02*
