M48
INCH,TZ
T1C0.0098
T2C0.0118
T3C0.0138
T4C0.0177
T5C0.0315
T6C0.0335
T7C0.0394
T8C0.0472
T9C0.0492
T10C0.0709
T11C0.0748
%
G90
G05
T1
X93353Y-42007
X93510Y-41849
X99439Y-44306
X99441Y-44052
X99467Y-41058
X99467Y-41318
T2
X87735Y-41582
X87735Y-43082
X90061Y-41582
X90061Y-43078
X91105Y-43078
X91467Y-42038
X91508Y-44403
X91514Y-43259
X92618Y-42048
X93410Y-42914
X93666Y-43544
X95959Y-40247
X97666Y-41101
X98250Y-40263
X102920Y-41645
X105412Y-44381
X105805Y-44381
X107120Y-39810
X107431Y-39810
X109077Y-43172
X109372Y-43172
X109652Y-43164
X109652Y-43448
X109761Y-39849
X109987Y-42822
X109989Y-42432
X110225Y-43593
X110446Y-43337
X110522Y-40477
X110522Y-40871
X110687Y-43593
X110758Y-40635
X112582Y-42644
X114530Y-43078
X114530Y-44495
X114530Y-44731
X114766Y-43078
X114766Y-44495
X114766Y-44731
X114924Y-43314
X114924Y-43550
X114924Y-43786
X114924Y-44023
X114924Y-44259
X115002Y-43078
X115002Y-44495
X115002Y-44731
X115160Y-43314
X115160Y-43550
X115160Y-43786
X115160Y-44023
X115160Y-44259
X115239Y-43078
X115239Y-44495
X115239Y-44731
X115475Y-43078
X115475Y-44495
X115475Y-44731
X117447Y-42960
X121872Y-38038
X121872Y-38275
X121872Y-38511
X121872Y-38747
X121872Y-38983
X122109Y-38038
X122109Y-38275
X122109Y-38511
X122109Y-38747
X122109Y-38983
X122345Y-38038
X122345Y-38747
X122345Y-38983
X122581Y-38038
X122581Y-38747
X122581Y-38983
X123191Y-39219
X123191Y-39456
X123309Y-38038
X123309Y-38747
X123428Y-39219
X123428Y-39456
X123546Y-38038
X123546Y-38275
X123546Y-38511
X123546Y-38747
X123664Y-39219
X123664Y-39456
X123664Y-41739
X123664Y-41975
X123664Y-42212
X123664Y-42448
X123664Y-43294
X123664Y-43530
X123664Y-43767
X123664Y-44495
X123664Y-44731
X123664Y-44967
X123664Y-45204
X123782Y-38038
X123782Y-38275
X123782Y-38511
X123782Y-38747
X123900Y-39219
X123900Y-39456
X123900Y-41739
X123900Y-41975
X123900Y-42212
X123900Y-42448
X123900Y-43294
X123900Y-43530
X123900Y-43767
X123900Y-44495
X123900Y-44731
X123900Y-44967
X123900Y-45204
X124136Y-39219
X124136Y-39456
X124136Y-41739
X124136Y-41975
X124136Y-42212
X124136Y-42448
X124136Y-43294
X124136Y-43530
X124136Y-43767
X124136Y-44495
X124136Y-44731
X124136Y-44967
X124136Y-45204
X124372Y-41975
X124372Y-42212
X124372Y-42448
X124372Y-43294
X124372Y-43530
X124372Y-43767
X124372Y-44495
X124372Y-44731
X124372Y-44967
X124372Y-45204
X124609Y-41739
X124609Y-41975
X124609Y-42212
X124609Y-42448
X124609Y-43294
X124609Y-43530
X124609Y-43767
X124609Y-44495
X124609Y-44731
X124609Y-44967
X124609Y-45204
X124766Y-39141
X124766Y-39377
X124845Y-41739
X124845Y-41975
X124845Y-42212
X124845Y-42448
X124845Y-43294
X124845Y-43530
X124845Y-43767
X124845Y-44495
X124845Y-44731
X124845Y-44967
X124845Y-45204
X125002Y-39141
X125002Y-39377
X125081Y-41739
X125081Y-41975
X125081Y-42212
X125081Y-42448
X125081Y-43294
X125081Y-43530
X125081Y-43767
X125081Y-44495
X125081Y-44731
X125081Y-44967
X125081Y-45204
X125239Y-39141
X125239Y-39377
X125317Y-41975
X125317Y-42212
X125317Y-42448
X125317Y-43294
X125317Y-43530
X125317Y-43767
X125317Y-44495
X125317Y-44731
X125317Y-44967
X125317Y-45204
X125554Y-37723
X125554Y-37960
X125554Y-38196
X125554Y-38432
X125554Y-38668
X125554Y-38904
X125554Y-39141
X125554Y-39377
X125554Y-44495
X125554Y-44731
X125554Y-44967
X125554Y-45204
X125711Y-41739
X125711Y-41975
X125790Y-37723
X125790Y-37960
X125790Y-38196
X125790Y-38432
X125790Y-38668
X125790Y-38904
X125790Y-39141
X125790Y-39377
X125790Y-44495
X125790Y-44731
X125790Y-44967
X125790Y-45204
X125947Y-41739
X126026Y-37723
X126026Y-37960
X126026Y-38196
X126026Y-38432
X126026Y-38668
X126026Y-38904
X126026Y-39141
X126026Y-39377
X126026Y-44495
X126026Y-44731
X126026Y-44967
X126026Y-45204
X126183Y-41739
X126420Y-37723
X126420Y-37960
X126420Y-38196
X126420Y-38432
X126420Y-38668
X126420Y-38904
X126420Y-39141
X126420Y-39377
X126420Y-39613
X126420Y-41739
X126656Y-37723
X126656Y-37960
X126656Y-38196
X126656Y-38432
X126656Y-38668
X126656Y-38904
X126656Y-39141
X126656Y-39377
X126656Y-39613
X126656Y-41739
X126892Y-37723
X126892Y-37960
X126892Y-38196
X126892Y-38432
X126892Y-38668
X126892Y-38904
X126892Y-39141
X126892Y-39377
X126892Y-39613
X126892Y-39849
X126892Y-40558
X126892Y-40794
X126892Y-41503
X126892Y-41739
X127128Y-37723
X127128Y-37960
X127128Y-38196
X127128Y-38432
X127128Y-38668
X127128Y-38904
X127128Y-39141
X127128Y-39377
X127128Y-39613
X127128Y-39849
X127128Y-40086
X127128Y-40322
X127128Y-40558
X127128Y-40794
X127128Y-41030
X127128Y-41267
X127128Y-41503
X127128Y-41739
X127187Y-42369
X127187Y-42605
X127187Y-42841
X127187Y-43078
X127187Y-43314
X127365Y-39141
X127365Y-39377
X127365Y-39613
X127365Y-39849
X127365Y-40086
X127365Y-40322
X127365Y-40558
X127365Y-40794
X127443Y-42133
X127443Y-42369
X127443Y-42605
X127443Y-42841
X127443Y-43078
X127443Y-43314
X127601Y-39141
X127601Y-39377
X127601Y-39613
X127601Y-39849
X127601Y-40086
X127601Y-40322
X127601Y-40558
X127601Y-40794
X127679Y-41424
X127679Y-41660
X127679Y-41897
X127679Y-42133
X127679Y-42369
X127679Y-42605
X127679Y-42841
X127679Y-43078
X127679Y-43314
X127837Y-39141
X127837Y-39377
X127837Y-39613
X127837Y-39849
X127837Y-40086
X127837Y-40322
X127837Y-40558
X127837Y-40794
X127916Y-41424
X127916Y-41660
X127916Y-41897
X127916Y-42133
X127916Y-42369
X127916Y-42605
X127916Y-42841
X127916Y-43078
X127916Y-43314
X128073Y-39141
X128073Y-39377
X128073Y-39613
X128073Y-39849
X128073Y-40086
X128073Y-40322
X128073Y-40558
X128073Y-40794
X128152Y-41424
X128152Y-41660
X128152Y-41897
X128152Y-42133
X128152Y-42369
X128152Y-42605
X128152Y-42841
X128152Y-43078
X128152Y-43314
X128309Y-39141
X128309Y-39377
X128309Y-39613
X128309Y-39849
X128309Y-40086
X128309Y-40322
X128309Y-40558
X128309Y-40794
X128388Y-41424
X128388Y-41660
X128388Y-41897
X128388Y-42133
X128388Y-42369
X128388Y-42605
X128388Y-42841
X128388Y-43078
X128388Y-43314
X128546Y-39141
X128546Y-39377
X128546Y-39613
X128546Y-39849
X128624Y-41424
X128624Y-41660
X128624Y-41897
X128624Y-42841
X128624Y-43078
X128624Y-43314
X128624Y-43550
X128624Y-43786
X128624Y-44023
X128644Y-44731
X128644Y-44967
X128644Y-45204
X128782Y-37723
X128782Y-37960
X128782Y-38196
X128782Y-38432
X128782Y-38668
X128782Y-38904
X128782Y-39141
X128782Y-39377
X128782Y-39613
X128782Y-39849
X128861Y-41424
X128861Y-41660
X128861Y-41897
X128861Y-42841
X128861Y-43078
X128861Y-43314
X128861Y-43550
X128861Y-43786
X128861Y-44023
X128880Y-44495
X128880Y-44731
X128880Y-44967
X128880Y-45204
X129018Y-38668
X129018Y-38904
X129018Y-39141
X129018Y-39377
X129018Y-39613
X129018Y-39849
X129097Y-41424
X129097Y-41660
X129097Y-41897
X129097Y-42841
X129097Y-43078
X129097Y-43314
X129097Y-43550
X129097Y-43786
X129097Y-44023
X129254Y-38904
X129254Y-39141
X129254Y-39377
X129254Y-39613
X129254Y-39849
X129254Y-40086
X129254Y-40322
X129254Y-40558
X129254Y-40794
X129333Y-41424
X129333Y-41660
X129333Y-41897
X129333Y-42133
X129333Y-42369
X129333Y-42605
X129333Y-42841
X129333Y-43078
X129333Y-43314
X129333Y-43550
X129333Y-43786
X129333Y-44023
X129491Y-38904
X129491Y-39141
X129491Y-39377
X129491Y-39613
X129491Y-39849
X129491Y-40086
X129491Y-40322
X129491Y-40558
X129491Y-40794
X129569Y-41424
X129569Y-41660
X129569Y-41897
X129569Y-42133
X129569Y-42369
X129569Y-42605
X129569Y-42841
X129569Y-43078
X129569Y-43314
X129569Y-43550
X129569Y-43786
X129727Y-38904
X129727Y-39141
X129727Y-39377
X129727Y-39613
X129727Y-39849
X129727Y-40086
X129727Y-40322
X129727Y-40558
X129727Y-40794
X129805Y-41424
X129805Y-41660
X129805Y-41897
X129805Y-42133
X129805Y-42369
X129805Y-42605
X129805Y-42841
X129805Y-43078
X129805Y-43314
X129805Y-43550
X129805Y-43786
X129805Y-44023
X130042Y-38668
X130042Y-38904
X130042Y-39141
X130042Y-39377
X130042Y-39613
X130042Y-39849
X130042Y-40086
X130042Y-40322
X130042Y-40558
X130042Y-40794
X130042Y-41424
X130042Y-41660
X130042Y-41897
X130042Y-42133
X130042Y-42369
X130042Y-42605
X130042Y-42841
X130042Y-43078
X130042Y-43314
X130042Y-43550
X130042Y-43786
X130042Y-44023
X130278Y-41424
X130278Y-41660
X130278Y-41897
X130278Y-42133
X130278Y-42369
X130278Y-42605
X130278Y-42841
X130278Y-43078
X130278Y-43314
X130278Y-43550
X130278Y-43786
X130278Y-44023
X130278Y-44495
X130278Y-44731
X130278Y-44967
X130278Y-45204
X130357Y-37723
X130357Y-37960
X130357Y-38196
X130357Y-38432
X130357Y-38668
X130357Y-38904
X130357Y-39141
X130357Y-39377
X130357Y-39613
X130357Y-39849
X130357Y-40086
X130357Y-40322
X130357Y-40558
X130357Y-40794
X130514Y-41424
X130514Y-41660
X130514Y-41897
X130514Y-42133
X130514Y-42369
X130514Y-42605
X130514Y-42841
X130514Y-43078
X130514Y-43314
X130514Y-43550
X130514Y-43786
X130514Y-44023
X130514Y-44495
X130514Y-44731
X130514Y-44967
X130514Y-45204
X130593Y-37723
X130593Y-37960
X130593Y-38196
X130593Y-38432
X130593Y-38668
X130593Y-38904
X130593Y-39141
X130593Y-39377
X130593Y-39613
X130593Y-39849
X130593Y-40086
X130593Y-40322
X130593Y-40558
X130593Y-40794
X130750Y-41424
X130750Y-41660
X130750Y-41897
X130750Y-42133
X130750Y-42369
X130750Y-42605
X130750Y-42841
X130750Y-43078
X130750Y-43314
X130750Y-43550
X130750Y-43786
X130750Y-44023
X130750Y-44495
X130750Y-44731
X130750Y-44967
X130750Y-45204
X130829Y-37723
X130829Y-37960
X130829Y-38196
X130829Y-38432
X130829Y-38668
X130829Y-38904
X130829Y-39141
X130829Y-39377
X130829Y-39613
X130829Y-39849
X130829Y-40086
X130829Y-40322
X130829Y-40558
X130829Y-40794
X130987Y-41424
X130987Y-41660
X130987Y-41897
X130987Y-42133
X130987Y-42369
X130987Y-42605
X130987Y-42841
X130987Y-43078
X130987Y-43314
X130987Y-43550
X130987Y-43786
X130987Y-44023
X130987Y-44495
X130987Y-44731
X130987Y-44967
X130987Y-45204
X131065Y-37723
X131065Y-37960
X131065Y-38196
X131065Y-38432
X131065Y-38668
X131065Y-38904
X131065Y-39141
X131065Y-39377
X131065Y-39613
X131065Y-39849
X131065Y-40086
X131065Y-40322
X131065Y-40558
X131065Y-40794
X131223Y-41424
X131223Y-41660
X131223Y-41897
X131223Y-42133
X131223Y-42369
X131223Y-42605
X131223Y-42841
X131223Y-43078
X131223Y-43314
X131223Y-43550
X131223Y-43786
X131223Y-44023
X131223Y-44495
X131223Y-44731
X131223Y-44967
X131223Y-45204
X131302Y-37723
X131302Y-37960
X131302Y-38196
X131302Y-38432
X131302Y-38668
X131302Y-38904
X131302Y-39141
X131302Y-39377
X131302Y-39613
X131302Y-39849
X131302Y-40086
X131302Y-40322
X131302Y-40558
X131302Y-40794
X131459Y-44495
X131459Y-44731
X131459Y-44967
X131459Y-45204
X131498Y-41424
X131498Y-41660
X131498Y-41897
X131498Y-42133
X131498Y-42369
X131498Y-42605
X131498Y-42841
X131498Y-43078
X131498Y-43314
X131498Y-43550
X131498Y-43786
X131498Y-44023
X131538Y-37723
X131538Y-37960
X131538Y-38196
X131538Y-38432
X131557Y-38668
X131557Y-39200
X131557Y-39712
X131557Y-40184
X131557Y-40696
X131695Y-44495
X131695Y-44731
X131695Y-44967
X131695Y-45204
X131774Y-37723
X131774Y-37960
X131774Y-38196
X131774Y-38432
X131931Y-44495
X131931Y-44731
X131931Y-44967
X131931Y-45204
X132010Y-37723
X132010Y-37960
X132010Y-38196
X132010Y-38432
X132050Y-38668
X132050Y-39200
X132050Y-39712
X132050Y-40184
X132050Y-40696
X132050Y-41680
X132050Y-42192
X132050Y-42684
X132050Y-43196
X132050Y-43668
X132168Y-44495
X132168Y-44731
X132168Y-44967
X132168Y-45204
X132246Y-37723
X132246Y-37960
X132246Y-38196
X132246Y-38432
X132404Y-44495
X132404Y-44731
X132404Y-44967
X132404Y-45204
X132483Y-37723
X132483Y-37960
X132483Y-38196
X132483Y-38432
X132542Y-38668
X132542Y-39200
X132542Y-39712
X132561Y-40204
X132581Y-40696
X132640Y-44495
X132640Y-44731
X132640Y-44967
X132640Y-45204
X132719Y-37723
X132719Y-37960
X132719Y-38196
X132719Y-38432
X132876Y-44495
X132876Y-44731
X132876Y-44967
X132876Y-45204
X132955Y-37723
X132955Y-37960
X132955Y-38196
X132955Y-38432
X133054Y-38668
X133054Y-39200
X133054Y-39712
X133054Y-40204
X133073Y-40696
X133073Y-41188
X133073Y-41680
X133073Y-42172
X133073Y-42664
X133073Y-43156
X133113Y-44495
X133113Y-44731
X133113Y-44967
X133113Y-45204
X133191Y-37723
X133191Y-37960
X133191Y-38196
X133191Y-38432
X133349Y-44495
X133349Y-44731
X133349Y-44967
X133349Y-45204
X133388Y-43649
X133428Y-37723
X133428Y-37960
X133428Y-38196
X133428Y-38432
X133546Y-38668
X133546Y-39200
X133546Y-39712
X133546Y-40204
X133565Y-40696
X133565Y-41188
X133565Y-41680
X133565Y-42172
X133565Y-42664
X133565Y-43156
X133585Y-44495
X133585Y-44731
X133585Y-44967
X133585Y-45204
X133664Y-37723
X133664Y-37960
X133664Y-38196
X133664Y-38432
X133821Y-44495
X133821Y-44731
X133821Y-44967
X133821Y-45204
X133880Y-43649
X133900Y-37723
X133900Y-37960
X134057Y-40696
X134057Y-41188
X134057Y-41680
X134057Y-42172
X134057Y-42664
X134057Y-43156
X134057Y-44731
X134057Y-44967
X134057Y-45204
X134136Y-37723
X134294Y-38196
X134294Y-38432
X134294Y-44731
X134294Y-44967
X134294Y-45204
X134372Y-37723
X134372Y-43649
X134530Y-38196
X134530Y-38432
X134530Y-38688
X134530Y-39180
X134530Y-39672
X134530Y-44731
X134530Y-44967
X134530Y-45204
X134550Y-40696
X134550Y-41188
X134550Y-41680
X134550Y-42172
X134550Y-42664
X134550Y-43156
X134609Y-37723
X134766Y-38196
X134766Y-38432
X134766Y-44731
X134766Y-44967
X134766Y-45204
X134845Y-37723
X135002Y-38196
X135002Y-38432
X135002Y-44731
X135002Y-44967
X135002Y-45204
X135042Y-38688
X135042Y-39180
X135042Y-39672
X135042Y-40696
X135042Y-41188
X135042Y-41680
X135042Y-42172
X135042Y-42664
X135042Y-43156
X135042Y-43649
X135081Y-37723
X135239Y-38196
X135239Y-38432
X135239Y-44731
X135239Y-44967
X135239Y-45204
X135317Y-37723
X135475Y-38196
X135475Y-38432
X135475Y-44731
X135475Y-44967
X135475Y-45204
X135534Y-38688
X135534Y-39180
X135534Y-39672
X135534Y-40696
X135534Y-41188
X135534Y-41680
X135534Y-42172
X135534Y-42664
X135534Y-43156
X135554Y-37723
X135711Y-38196
X135711Y-38432
X135711Y-44731
X135711Y-44967
X135711Y-45204
X135790Y-37723
X135947Y-38196
X135947Y-38432
X135947Y-44731
X135947Y-44967
X135947Y-45204
X136026Y-37723
X136026Y-40696
X136026Y-41188
X136026Y-41680
X136026Y-42172
X136026Y-42664
X136026Y-43156
X136046Y-38688
X136046Y-39180
X136046Y-39672
X136183Y-38196
X136183Y-38432
X136183Y-44495
X136183Y-44731
X136183Y-44967
X136183Y-45204
X136262Y-37723
X136420Y-38196
X136420Y-38432
X136420Y-44495
X136420Y-44731
X136420Y-44967
X136420Y-45204
X136498Y-37723
X136538Y-38688
X136538Y-39180
X136538Y-39672
X136656Y-38196
X136656Y-38432
X136656Y-44495
X136656Y-44731
X136656Y-44967
X136656Y-45204
X136735Y-37723
X136892Y-38196
X136892Y-38432
X136892Y-44259
X136892Y-44495
X136892Y-44731
X136892Y-44967
X136892Y-45204
X136971Y-37723
X137089Y-38688
X137089Y-38944
X137089Y-39180
X137089Y-39436
X137089Y-39672
X137089Y-39908
X137128Y-38196
X137128Y-38432
X137128Y-43786
X137128Y-44023
X137128Y-44259
X137128Y-44495
X137128Y-44731
X137128Y-44967
X137128Y-45204
X137207Y-37723
X137365Y-38196
X137365Y-38432
X137365Y-38668
X137365Y-38904
X137365Y-39141
X137365Y-39377
X137365Y-39613
X137365Y-39849
X137365Y-44731
X137365Y-44967
X137365Y-45204
X137443Y-37723
X137601Y-38432
X137601Y-38668
X137601Y-38904
X137601Y-39141
X137601Y-39377
X137601Y-39613
X137601Y-39849
X137601Y-44731
X137601Y-44967
X137601Y-45204
X137679Y-37723
X137837Y-38432
X137837Y-38668
X137837Y-38904
X137837Y-39141
X137837Y-39377
X137837Y-39613
X137837Y-39849
X137837Y-44259
X137837Y-44495
X137837Y-44731
X137837Y-44967
X137837Y-45204
X137916Y-37723
X137916Y-37960
X138054Y-38432
X138054Y-38668
X138073Y-38904
X138073Y-39141
X138073Y-39377
X138073Y-39613
X138073Y-39849
X138073Y-43550
X138073Y-43786
X138073Y-44023
X138073Y-44259
X138073Y-44495
X138073Y-44731
X138073Y-44967
X138073Y-45204
X138093Y-40479
X138093Y-40715
X138113Y-40952
X138113Y-41188
X138113Y-41424
X138113Y-41660
X138181Y-43334
X138309Y-38904
X138309Y-39141
X138309Y-39377
X138309Y-39613
X138309Y-39849
X138309Y-43550
X138309Y-43786
X138309Y-44023
X138309Y-44259
X138309Y-44495
X138309Y-44731
X138309Y-44967
X138309Y-45204
X138349Y-40479
X138349Y-40715
X138349Y-40952
X138349Y-41188
X138349Y-41424
X138349Y-41660
X138546Y-38904
X138546Y-39141
X138546Y-39377
X138546Y-39613
X138546Y-39849
X138546Y-44967
X138546Y-45204
X138585Y-40952
X138585Y-41188
X138585Y-41424
X138585Y-41660
X138585Y-41897
X138782Y-38904
X138782Y-39141
X138782Y-39377
X138782Y-44967
X138782Y-45204
X138798Y-38432
X138802Y-38668
X138821Y-40952
X138821Y-41188
X138821Y-41424
X138821Y-41660
X138821Y-41897
X138821Y-42133
X138821Y-42369
X138821Y-42605
X138821Y-42841
X138821Y-43078
X138821Y-43314
X138861Y-37723
X138861Y-37960
X139018Y-38432
X139018Y-38668
X139018Y-38904
X139018Y-39141
X139018Y-39377
X139018Y-44967
X139018Y-45204
X139057Y-40952
X139057Y-41188
X139057Y-41424
X139057Y-41660
X139057Y-41897
X139057Y-42133
X139057Y-42369
X139057Y-42605
X139057Y-42841
X139057Y-43078
X139057Y-43314
X139097Y-37723
X139097Y-37960
X139254Y-38432
X139254Y-38668
X139254Y-38904
X139254Y-39141
X139254Y-39377
X139254Y-39613
X139254Y-39849
X139254Y-44967
X139254Y-45204
X139294Y-40479
X139294Y-40715
X139294Y-40952
X139294Y-41188
X139294Y-41424
X139294Y-41660
X139294Y-41897
X139294Y-42133
X139294Y-42369
X139294Y-42605
X139294Y-42841
X139294Y-43078
X139294Y-43314
X139333Y-37723
X139333Y-37960
X139491Y-38432
X139491Y-38668
X139491Y-38904
X139491Y-39141
X139491Y-39377
X139491Y-39613
X139491Y-39849
X139491Y-44967
X139491Y-45204
X139530Y-40479
X139530Y-40715
X139530Y-40952
X139530Y-41188
X139530Y-41424
X139530Y-41660
X139530Y-41897
X139530Y-42133
X139530Y-42369
X139530Y-42605
X139530Y-42841
X139530Y-43078
X139530Y-43314
X139569Y-37723
X139569Y-37960
X139727Y-38432
X139727Y-38668
X139727Y-38904
X139727Y-39141
X139727Y-39377
X139727Y-39613
X139727Y-39849
X139727Y-44967
X139727Y-45204
X139766Y-40479
X139766Y-40715
X139766Y-40952
X139766Y-41188
X139766Y-41424
X139766Y-41660
X139766Y-41897
X139805Y-37723
X139805Y-37960
X139805Y-42841
X139805Y-43078
X139805Y-43314
X139963Y-38432
X139963Y-38668
X139963Y-38904
X139963Y-39141
X139963Y-39377
X139963Y-39613
X139963Y-39849
X139963Y-44967
X139963Y-45204
X140002Y-40479
X140002Y-40715
X140002Y-40952
X140002Y-41188
X140002Y-41424
X140002Y-41660
X140002Y-41897
X140042Y-37723
X140042Y-37960
X140042Y-42841
X140042Y-43078
X140042Y-43314
X140042Y-43550
X140042Y-43786
X140042Y-44023
X140042Y-44259
X140042Y-44495
X140199Y-38432
X140199Y-38668
X140199Y-38904
X140199Y-39141
X140199Y-39377
X140199Y-39613
X140199Y-39849
X140199Y-44967
X140199Y-45204
X140278Y-37723
X140278Y-37960
X140435Y-38432
X140435Y-38668
X140435Y-38904
X140435Y-39141
X140435Y-39377
X140435Y-39613
X140435Y-39849
X140435Y-40086
X140435Y-44967
X140435Y-45204
X140514Y-37723
X140514Y-37960
X140672Y-38432
X140672Y-38668
X140672Y-38904
X140672Y-39141
X140672Y-39377
X140672Y-39613
X140672Y-39849
X140672Y-40086
X140672Y-40322
X140672Y-40558
X140672Y-40794
X140672Y-41030
X140672Y-41267
X140672Y-41897
X140672Y-42841
X140672Y-43078
X140672Y-43314
X140672Y-43550
X140672Y-43786
X140672Y-44023
X140672Y-44259
X140672Y-44495
X140672Y-44731
X140672Y-44967
X140672Y-45204
X140750Y-37723
X140750Y-37960
X140908Y-38432
X140908Y-38668
X140908Y-38904
X140908Y-39141
X140908Y-39377
X140908Y-39613
X140908Y-39849
X140908Y-40086
X140908Y-40322
X140908Y-40558
X140908Y-40794
X140908Y-41030
X140908Y-41267
X140908Y-41897
X140908Y-42841
X140908Y-43078
X140908Y-43314
X140908Y-43550
X140908Y-43786
X140908Y-44023
X140908Y-44259
X140908Y-44495
X140908Y-44731
X140908Y-44967
X140908Y-45204
X140987Y-37723
X140987Y-37960
X141144Y-38432
X141144Y-38668
X141144Y-40794
X141144Y-41030
X141144Y-41267
X141144Y-41897
X141144Y-42133
X141144Y-44023
X141144Y-44259
X141144Y-44495
X141144Y-44731
X141144Y-44967
X141144Y-45204
X141223Y-37723
X141223Y-37960
X141380Y-38432
X141380Y-38668
X141380Y-40794
X141380Y-41030
X141380Y-41267
X141380Y-41897
X141380Y-42133
X141380Y-44023
X141380Y-44259
X141380Y-44495
X141380Y-44731
X141380Y-44967
X141380Y-45204
X141459Y-37723
X141459Y-37960
X141617Y-38432
X141617Y-38668
X141617Y-40794
X141617Y-41030
X141617Y-41267
X141617Y-41897
X141617Y-42133
X141617Y-44023
X141617Y-44259
X141617Y-44495
X141617Y-44731
X141617Y-44967
X141617Y-45204
X141695Y-37723
X141695Y-37960
X141853Y-38432
X141853Y-38668
X141853Y-40794
X141853Y-41030
X141853Y-41267
X141853Y-41897
X141853Y-42133
X141853Y-44023
X141853Y-44259
X141853Y-44495
X141853Y-44731
X141853Y-44967
X141853Y-45204
X141931Y-37723
X141931Y-37960
X142089Y-38432
X142089Y-38668
X142089Y-38904
X142089Y-39141
X142089Y-39377
X142089Y-39613
X142089Y-39849
X142089Y-40086
X142089Y-40322
X142089Y-40558
X142089Y-40794
X142089Y-41030
X142089Y-41267
X142089Y-41897
X142089Y-42133
X142089Y-42369
X142089Y-42605
X142089Y-42841
X142089Y-43078
X142089Y-43314
X142089Y-43550
X142089Y-43786
X142089Y-44023
X142089Y-44259
X142089Y-44495
X142089Y-44731
X142089Y-44967
X142089Y-45204
X142168Y-37723
X142168Y-37960
X142325Y-38432
X142325Y-38668
X142325Y-38904
X142325Y-39141
X142325Y-39377
X142325Y-39613
X142325Y-39849
X142325Y-40086
X142325Y-40322
X142325Y-40558
X142325Y-40794
X142325Y-41030
X142325Y-41267
X142325Y-41897
X142325Y-42133
X142325Y-42369
X142325Y-42605
X142325Y-42841
X142325Y-43078
X142325Y-43314
X142325Y-43550
X142325Y-43786
X142325Y-44023
X142325Y-44259
X142325Y-44495
X142325Y-44731
X142325Y-44967
X142325Y-45204
X142404Y-37723
X142404Y-37960
X142561Y-41897
X142561Y-42133
X142561Y-42369
X142561Y-42605
X142561Y-42841
X142561Y-43078
X142561Y-43314
X142561Y-43550
X142561Y-43786
X142561Y-44023
X142561Y-44259
X142561Y-44495
X142561Y-44731
X142561Y-44967
X142561Y-45204
X142719Y-37723
X142719Y-37960
X142798Y-38826
X142798Y-39062
X142798Y-39298
X142798Y-39534
X142798Y-39771
X142798Y-40007
X142798Y-40243
X142798Y-40479
X142798Y-40715
X142798Y-40952
X142798Y-41188
X142798Y-41424
X142798Y-41660
X142798Y-41897
X142798Y-42133
X142798Y-42369
X142798Y-42605
X142798Y-42841
X142798Y-43078
X142798Y-43314
X142798Y-43550
X142798Y-43786
X142798Y-44023
X142798Y-44259
X142798Y-44495
X142798Y-44731
X142798Y-44967
X142798Y-45204
X142955Y-37723
X142955Y-37960
X142955Y-38196
X142955Y-38432
X143034Y-38826
X143034Y-39062
X143034Y-39298
X143034Y-39534
X143034Y-39771
X143034Y-40007
X143034Y-40243
X143034Y-40479
X143034Y-40715
X143034Y-40952
X143034Y-41188
X143034Y-41424
X143034Y-41660
X143034Y-41897
X143034Y-42133
X143034Y-42369
X143034Y-42605
X143034Y-42841
X143034Y-43078
X143034Y-43314
X143034Y-43550
X143034Y-43786
X143034Y-44023
X143034Y-44259
X143034Y-44495
X143034Y-44731
X143034Y-44967
X143034Y-45204
X143191Y-37723
X143191Y-37960
X143191Y-38196
X143191Y-38432
X143270Y-38826
X143270Y-39062
X143270Y-39298
X143270Y-39534
X143270Y-39771
X143270Y-40007
X143270Y-40243
X143270Y-40479
X143270Y-40715
X143270Y-40952
X143270Y-41188
X143270Y-41424
X143270Y-41660
X143270Y-41897
X143270Y-42133
X143270Y-42369
X143270Y-42605
X143270Y-42841
X143270Y-43078
X143270Y-43314
X143270Y-43550
X143270Y-43786
X143270Y-44023
X143270Y-44259
X143270Y-44495
X143270Y-44731
X143270Y-44967
X143270Y-45204
X143428Y-37723
X143428Y-37960
X143428Y-38196
X143428Y-38432
X143506Y-38826
X143506Y-39062
X143506Y-39298
X143506Y-39534
X143506Y-42133
X143506Y-42369
X143506Y-42605
X143506Y-42841
X143506Y-43078
X143506Y-43314
X143506Y-43550
X143506Y-43786
X143506Y-44023
X143506Y-44259
X143506Y-44495
X143506Y-44731
X143506Y-44967
X143506Y-45204
X143664Y-37723
X143664Y-37960
X143664Y-38196
X143664Y-38432
X143742Y-38826
X143742Y-39062
X143742Y-39298
X143742Y-39534
X143742Y-42133
X143742Y-42369
X143742Y-42605
X143742Y-42841
X143742Y-43078
X143742Y-43314
X143742Y-43550
X143742Y-43786
X143742Y-44023
X143742Y-44259
X143742Y-44495
X143742Y-44731
X143742Y-44967
X143742Y-45204
X143900Y-37723
X143900Y-37960
X143900Y-38196
X143900Y-38432
X143979Y-38826
X143979Y-39062
X143979Y-39298
X143979Y-39534
X143979Y-42133
X143979Y-42369
X143979Y-42605
X143979Y-42841
X143979Y-43078
X143979Y-43314
X143979Y-43550
X143979Y-43786
X143979Y-44023
X143979Y-44259
X143979Y-44967
X143979Y-45204
X144136Y-37723
X144136Y-37960
X144136Y-38196
X144136Y-38432
X144215Y-38826
X144215Y-39062
X144215Y-39298
X144215Y-39534
X144215Y-42133
X144215Y-42369
X144215Y-42605
X144215Y-42841
X144215Y-43078
X144215Y-43314
X144215Y-43550
X144215Y-43786
X144215Y-44023
X144215Y-45204
X144372Y-37723
X144372Y-37960
X144372Y-38196
X144372Y-38432
X144451Y-38826
X144451Y-39062
X144451Y-39298
X144451Y-39534
X144451Y-42133
X144451Y-42369
X144451Y-42605
X144451Y-42841
X144451Y-43078
X144451Y-43314
X144451Y-43550
X144451Y-43786
X144451Y-44023
X144451Y-45204
X144609Y-37723
X144609Y-37960
X144609Y-38196
X144609Y-38432
X144687Y-38826
X144687Y-39062
X144687Y-39298
X144687Y-39534
X144687Y-42133
X144687Y-43550
X144687Y-43786
X144687Y-44023
X144687Y-44259
X144687Y-44967
X144687Y-45204
X144845Y-37723
X144845Y-37960
X144845Y-38196
X144845Y-38432
X144924Y-38826
X144924Y-39062
X144924Y-39298
X144924Y-39534
X144924Y-42133
X144924Y-43550
X144924Y-43786
X144924Y-44023
X144924Y-44259
X144924Y-44495
X144924Y-44731
X144924Y-44967
X144924Y-45204
X145081Y-37723
X145081Y-37960
X145081Y-38196
X145081Y-38432
X145160Y-38826
X145160Y-39062
X145160Y-39298
X145160Y-39534
X145160Y-42133
X145160Y-43550
X145160Y-43786
X145160Y-44023
X145160Y-44259
X145160Y-44495
X145160Y-44731
X145160Y-44967
X145160Y-45204
X145317Y-37723
X145317Y-37960
X145317Y-38196
X145317Y-38432
X145396Y-38826
X145396Y-39062
X145396Y-39298
X145396Y-39534
X145396Y-42133
X145396Y-43550
X145396Y-43786
X145396Y-44023
X145396Y-44259
X145396Y-44495
X145396Y-44731
X145396Y-44967
X145396Y-45204
X145554Y-37723
X145554Y-37960
X145554Y-38196
X145554Y-38432
X145632Y-38826
X145632Y-39062
X145632Y-39298
X145632Y-39534
X145632Y-42133
X145632Y-43550
X145632Y-43786
X145632Y-44023
X145632Y-44259
X145632Y-44495
X145632Y-44731
X145632Y-44967
X145632Y-45204
X145790Y-37723
X145790Y-37960
X145790Y-38196
X145790Y-38432
X145868Y-38826
X145868Y-39062
X145868Y-39298
X145868Y-39534
X145868Y-42133
X145868Y-42369
X145868Y-42605
X145868Y-42841
X145868Y-43078
X145868Y-43314
X145868Y-43550
X145868Y-43786
X145868Y-44023
X145868Y-44259
X146105Y-38826
X146105Y-39062
X146105Y-39298
X146105Y-39534
X146105Y-42133
X146105Y-42369
X146105Y-42605
X146105Y-42841
X146105Y-43078
X146105Y-43314
X146105Y-43550
X146105Y-43786
X146105Y-44023
X146341Y-38826
X146341Y-39062
X146341Y-39298
X146341Y-39534
X146341Y-42133
X146341Y-42369
X146341Y-42605
X146341Y-42841
X146341Y-43078
X146341Y-43314
X146341Y-43550
X146341Y-43786
X146341Y-44023
X146577Y-38826
X146577Y-39062
X146577Y-39298
X146577Y-39534
X146577Y-42133
X146577Y-42369
X146577Y-42605
X146577Y-42841
X146577Y-43078
X146577Y-43314
X146577Y-43550
X146577Y-43786
X146577Y-44023
X146813Y-38826
X146813Y-39062
X146813Y-39298
X146813Y-39534
X146813Y-42133
X146813Y-42369
X146813Y-42605
X146813Y-42841
X146813Y-43078
X146813Y-43314
X146813Y-43550
X146813Y-43786
X146813Y-44023
T3
X93644Y-41050
X98097Y-37625
X116912Y-44078
X118152Y-42643
X118388Y-42938
X118506Y-42643
X118742Y-42938
X118900Y-42643
X135286Y-44227
X137296Y-41719
X137296Y-42103
T4
X84652Y-41908
X84660Y-43479
X84664Y-40365
X86298Y-40381
X88231Y-45223
X88920Y-37664
X91518Y-45208
X91774Y-39377
X92075Y-44887
X92262Y-37664
X92378Y-44576
X92935Y-44582
X93201Y-42627
X93587Y-42623
X94280Y-40658
X94697Y-41936
X94699Y-43135
X94709Y-42554
X94782Y-44877
X95215Y-44885
X95347Y-41936
X95349Y-43135
X95359Y-42554
X95573Y-44881
X95658Y-40875
X95916Y-44723
X95977Y-41936
X95979Y-43135
X95989Y-42554
X96587Y-41936
X96587Y-43137
X96597Y-42556
X96668Y-40625
X97699Y-43452
X97975Y-42822
X97975Y-44318
X98388Y-42507
X98762Y-39554
X99274Y-42507
X99628Y-43294
X103270Y-45125
X103546Y-39672
X103546Y-42845
X105194Y-37684
X105282Y-42215
X105802Y-40302
X106183Y-43708
X106855Y-41393
X106855Y-41983
X106855Y-42574
X107430Y-41393
X107430Y-41983
X107430Y-42574
X107868Y-43794
X107981Y-41393
X107981Y-41983
X107981Y-42574
X108392Y-39938
X109371Y-41798
X109916Y-37684
X111335Y-41676
X111339Y-42061
X116128Y-37653
X119786Y-45125
X120428Y-37653
X121597Y-42369
X121597Y-43353
X121597Y-44338
X125199Y-38137
X125199Y-38727
X137010Y-41277
X137250Y-43105
T5
X85593Y-40436
X85593Y-41223
X85593Y-42011
X85593Y-42798
X85593Y-43586
T6
X128851Y-40361
X128851Y-42448
T7
X86471Y-38424
X87471Y-38424
X88471Y-38424
X89471Y-38424
X90471Y-38424
X91908Y-38428
X92908Y-38428
X93908Y-38428
X94908Y-38428
T8
X139353Y-44052
X145239Y-42763
T9
X115439Y-40156
X115439Y-41156
X116439Y-40156
X116439Y-41156
X117439Y-40156
X117439Y-41156
X118439Y-40156
X118439Y-41156
X119439Y-40156
X119439Y-41156
X120439Y-40156
X120439Y-41156
X121439Y-40156
X121439Y-41156
X122439Y-40156
X122439Y-41156
X123439Y-40156
X123439Y-41156
X124439Y-40156
X124439Y-41156
X125439Y-40156
X125439Y-41156
X126439Y-40156
X126439Y-41156
T10
X126429Y-42773
X127916Y-38373
T11
X85081Y-38078
X85081Y-44816
X112246Y-38078
X112246Y-44816
X129569Y-38078
X129569Y-44816
X146498Y-38078
X146498Y-44816
T0
M30
