G04 #@! TF.GenerationSoftware,KiCad,Pcbnew,(6.0.4)*
G04 #@! TF.CreationDate,2022-05-22T11:17:41+03:00*
G04 #@! TF.ProjectId,dock_rs232_prt,646f636b-5f72-4733-9233-325f7072742e,rev?*
G04 #@! TF.SameCoordinates,Original*
G04 #@! TF.FileFunction,Copper,L4,Bot*
G04 #@! TF.FilePolarity,Positive*
%FSLAX46Y46*%
G04 Gerber Fmt 4.6, Leading zero omitted, Abs format (unit mm)*
G04 Created by KiCad (PCBNEW (6.0.4)) date 2022-05-22 11:17:41*
%MOMM*%
%LPD*%
G01*
G04 APERTURE LIST*
G04 #@! TA.AperFunction,ComponentPad*
%ADD10C,2.600000*%
G04 #@! TD*
G04 #@! TA.AperFunction,ComponentPad*
%ADD11R,1.350000X1.350000*%
G04 #@! TD*
G04 #@! TA.AperFunction,ComponentPad*
%ADD12O,1.350000X1.350000*%
G04 #@! TD*
G04 #@! TA.AperFunction,ViaPad*
%ADD13C,0.600000*%
G04 #@! TD*
G04 #@! TA.AperFunction,ViaPad*
%ADD14C,0.400000*%
G04 #@! TD*
G04 #@! TA.AperFunction,ViaPad*
%ADD15C,0.500000*%
G04 #@! TD*
G04 APERTURE END LIST*
D10*
X202740569Y-113833157D03*
X333434272Y-113833157D03*
D11*
X205965919Y-95907354D03*
D12*
X207965919Y-95907354D03*
X209965919Y-95907354D03*
X211965919Y-95907354D03*
X213965919Y-95907354D03*
D10*
X383102927Y-113833157D03*
X280893489Y-88317435D03*
D11*
X206065919Y-111207354D03*
D12*
X208065919Y-111207354D03*
X210065919Y-111207354D03*
X212065919Y-111207354D03*
X214065919Y-111207354D03*
D10*
X383102927Y-88317435D03*
X280893489Y-113833157D03*
D11*
X291845919Y-94116641D03*
D12*
X289845919Y-94116641D03*
X287845919Y-94116641D03*
X285845919Y-94116641D03*
D10*
X333434272Y-88317435D03*
X202740569Y-88317435D03*
D13*
X327105919Y-87617354D03*
X267325919Y-105137354D03*
X328505919Y-97317354D03*
X365105919Y-114617354D03*
X263105919Y-95617354D03*
X378105919Y-87617354D03*
X294105919Y-87617354D03*
X269875919Y-112437354D03*
X348105919Y-114617354D03*
X249105919Y-87617354D03*
X201105919Y-107617354D03*
X348105919Y-107617354D03*
X378105919Y-107617354D03*
X223105919Y-87617354D03*
X223105919Y-93617354D03*
X263730116Y-102362004D03*
X211105919Y-87617354D03*
X252455919Y-97937354D03*
X270185919Y-105137354D03*
X283105919Y-95617354D03*
D14*
X275655919Y-102317354D03*
D13*
X238105919Y-114617354D03*
X248635919Y-95267354D03*
X298105919Y-99617354D03*
X348105919Y-95617354D03*
X266480116Y-98250851D03*
X307105919Y-110617354D03*
X230905919Y-106817354D03*
X272375919Y-102077354D03*
X365105919Y-95617354D03*
X206105919Y-114617354D03*
X296505919Y-92817354D03*
X265260116Y-99842004D03*
X277065919Y-110367354D03*
X268305919Y-113007354D03*
X333505919Y-109717354D03*
X250665919Y-105287354D03*
X378105919Y-114617354D03*
X384105919Y-96617354D03*
X384105919Y-105617354D03*
X325105919Y-110617354D03*
X270945919Y-96076201D03*
X270525919Y-98236201D03*
X348105919Y-87617354D03*
X275105919Y-95617354D03*
X248655919Y-105287354D03*
D15*
X245225919Y-99447354D03*
D13*
X229525919Y-107037354D03*
X378105919Y-95617354D03*
X316105919Y-110617354D03*
X263105919Y-87617354D03*
X252435919Y-108777354D03*
D15*
X245285919Y-109367354D03*
D13*
X267325919Y-108137354D03*
X298105919Y-110617354D03*
X365105919Y-87617354D03*
X268785919Y-105137354D03*
X275255919Y-106796201D03*
X365105919Y-107617354D03*
X275355919Y-109327354D03*
X261705919Y-106717354D03*
D15*
X250035919Y-100697354D03*
D13*
X279495919Y-103257354D03*
X316105919Y-99617354D03*
X268785919Y-106637354D03*
X311105919Y-87617354D03*
X267230116Y-99832004D03*
X226105919Y-114617354D03*
X267335919Y-113017354D03*
X216105919Y-114617354D03*
X278715919Y-104906201D03*
X276105919Y-87617354D03*
X335405919Y-96617354D03*
X249625919Y-105287354D03*
X298005919Y-92817354D03*
D14*
X331825919Y-98602354D03*
D13*
X266250116Y-99832004D03*
X226755919Y-98327354D03*
X270185919Y-108137354D03*
X267685919Y-93426201D03*
X249655919Y-95277354D03*
X201105919Y-96617354D03*
X252455919Y-98827354D03*
X267325919Y-106637354D03*
X211105919Y-103617354D03*
X270185919Y-106637354D03*
X236105919Y-87617354D03*
X230905919Y-98417354D03*
X325105919Y-99617354D03*
D14*
X334050919Y-100657354D03*
D13*
X338105919Y-114617354D03*
X256105919Y-95617354D03*
X332005919Y-109717354D03*
X278695919Y-107796201D03*
X307105919Y-99617354D03*
X252435919Y-107887354D03*
D15*
X250055919Y-110717354D03*
X289705919Y-99117354D03*
D13*
X264490116Y-111797004D03*
X236105919Y-93617354D03*
X272395919Y-112397354D03*
X250655919Y-95277354D03*
X268785919Y-108137354D03*
D14*
X275655919Y-101617354D03*
D15*
X262605919Y-112417354D03*
D13*
X278715919Y-106836201D03*
D15*
X334605919Y-107492354D03*
X333775919Y-106182354D03*
D13*
X278705919Y-105856201D03*
X278205919Y-112117354D03*
X229905919Y-105317354D03*
D15*
X263605919Y-112417354D03*
D13*
X261005919Y-113517354D03*
X229905919Y-96817354D03*
D14*
X275275919Y-111196201D03*
D15*
X284365919Y-103796201D03*
D14*
X275890116Y-111847004D03*
D15*
X335405919Y-106292354D03*
X275285919Y-107777354D03*
X336205919Y-107492354D03*
D13*
X278205919Y-113217354D03*
D15*
X334605919Y-106292354D03*
D13*
X258205919Y-113517354D03*
D14*
X274715919Y-111847004D03*
D13*
X273715919Y-106167354D03*
X269895919Y-111467354D03*
D15*
X335405919Y-107492354D03*
X336205919Y-105092354D03*
X335105919Y-105092354D03*
X262705919Y-101317354D03*
X336205919Y-106292354D03*
D13*
X259605919Y-113517354D03*
X278205919Y-110917354D03*
D15*
X261705919Y-101317354D03*
X332775919Y-106182354D03*
X274705919Y-101217354D03*
X279525919Y-104397354D03*
D14*
X272855919Y-104567354D03*
D13*
X298005919Y-96317354D03*
X299405919Y-95217354D03*
D14*
X276640116Y-102812004D03*
X333475919Y-95782354D03*
X331575919Y-95782354D03*
X332475919Y-95782354D03*
D15*
X247645919Y-105277354D03*
D13*
X296505919Y-96317354D03*
X299405919Y-96317354D03*
D14*
X332475919Y-94782354D03*
D15*
X247665919Y-95247354D03*
D13*
X251415919Y-106847354D03*
D14*
X331575919Y-94782354D03*
X276640116Y-103812004D03*
D13*
X251405919Y-96847354D03*
D14*
X333475919Y-94782354D03*
X277240116Y-103212004D03*
D13*
X264650116Y-102352004D03*
X263445919Y-107107354D03*
D14*
X273245919Y-111437004D03*
X272410116Y-111447004D03*
D13*
X264500116Y-110857004D03*
D14*
X273245919Y-110707004D03*
D13*
X270850116Y-101437004D03*
D14*
X331875919Y-102282354D03*
X332550919Y-102282354D03*
X333175919Y-102282354D03*
D15*
X229165919Y-98967354D03*
X226625919Y-99647354D03*
X226355919Y-107307354D03*
X226685919Y-108027354D03*
X221825919Y-109957354D03*
X331105919Y-100242354D03*
X333495919Y-101482354D03*
X216455919Y-106987354D03*
X219435919Y-106057354D03*
X216355919Y-98667354D03*
X219355919Y-97667354D03*
X249945919Y-108237354D03*
X246615919Y-105257354D03*
X249985919Y-98257354D03*
X246605919Y-95287354D03*
X235135919Y-109987354D03*
X229215919Y-109977354D03*
X229205919Y-110727354D03*
X237215919Y-109747354D03*
X229275919Y-101557354D03*
X234415919Y-100787354D03*
X229275919Y-102307354D03*
X236655919Y-99767354D03*
G04 #@! TA.AperFunction,Conductor*
G36*
X384647540Y-87037856D02*
G01*
X384694033Y-87091512D01*
X384705419Y-87143854D01*
X384705419Y-115090854D01*
X384685417Y-115158975D01*
X384631761Y-115205468D01*
X384579419Y-115216854D01*
X279455076Y-115216854D01*
X279386955Y-115196852D01*
X279340462Y-115143196D01*
X279330358Y-115072922D01*
X279338667Y-115042636D01*
X279361994Y-114986320D01*
X279362936Y-114984046D01*
X279375118Y-114946553D01*
X279389972Y-114884682D01*
X279404876Y-114790580D01*
X279408618Y-114758958D01*
X279410169Y-114739248D01*
X279411419Y-114707437D01*
X279411419Y-110727271D01*
X279410169Y-110695460D01*
X279408618Y-110675750D01*
X279406107Y-110654525D01*
X279405019Y-110645335D01*
X279405018Y-110645327D01*
X279404876Y-110644128D01*
X279393440Y-110571922D01*
X279390360Y-110552475D01*
X279390359Y-110552472D01*
X279389972Y-110550026D01*
X279388534Y-110544034D01*
X279375697Y-110490567D01*
X279375118Y-110488155D01*
X279365986Y-110460050D01*
X279363698Y-110453006D01*
X279363695Y-110452997D01*
X279362936Y-110450662D01*
X279338585Y-110391873D01*
X279337465Y-110389675D01*
X279337460Y-110389664D01*
X279317383Y-110350262D01*
X279299888Y-110315926D01*
X279266636Y-110261665D01*
X279252952Y-110242831D01*
X279244929Y-110231789D01*
X279244926Y-110231785D01*
X279243464Y-110229773D01*
X279202145Y-110181395D01*
X279141878Y-110121128D01*
X279093500Y-110079809D01*
X279070417Y-110063037D01*
X279063623Y-110058101D01*
X279063622Y-110058100D01*
X279061608Y-110056637D01*
X279007347Y-110023385D01*
X278959030Y-109998766D01*
X278933609Y-109985813D01*
X278933598Y-109985808D01*
X278931400Y-109984688D01*
X278872611Y-109960337D01*
X278870276Y-109959578D01*
X278870267Y-109959575D01*
X278856832Y-109955210D01*
X278835118Y-109948155D01*
X278773247Y-109933301D01*
X278770801Y-109932914D01*
X278770798Y-109932913D01*
X278741506Y-109928274D01*
X278679145Y-109918397D01*
X278677946Y-109918255D01*
X278677938Y-109918254D01*
X278648760Y-109914801D01*
X278648741Y-109914799D01*
X278647523Y-109914655D01*
X278627813Y-109913104D01*
X278626599Y-109913056D01*
X278626577Y-109913055D01*
X278607592Y-109912309D01*
X278596002Y-109911854D01*
X277788683Y-109911854D01*
X277786367Y-109912027D01*
X277786355Y-109912027D01*
X277730917Y-109916158D01*
X277730911Y-109916159D01*
X277728585Y-109916332D01*
X277726283Y-109916677D01*
X277726274Y-109916678D01*
X277693504Y-109921589D01*
X277693494Y-109921591D01*
X277691651Y-109921867D01*
X277644007Y-109931965D01*
X277637773Y-109934794D01*
X277637770Y-109934795D01*
X277543987Y-109977354D01*
X277528478Y-109984392D01*
X277469213Y-110023483D01*
X277390496Y-110091363D01*
X277356414Y-110144119D01*
X277330177Y-110184731D01*
X277321651Y-110197928D01*
X277319649Y-110202453D01*
X277319647Y-110202457D01*
X277306671Y-110231789D01*
X277292928Y-110262855D01*
X277283465Y-110296562D01*
X277264086Y-110365587D01*
X277261730Y-110373978D01*
X277261143Y-110378438D01*
X277261142Y-110378442D01*
X277258065Y-110401814D01*
X277249553Y-110433579D01*
X277242599Y-110450369D01*
X277226152Y-110478858D01*
X277217167Y-110490567D01*
X277215093Y-110493270D01*
X277191835Y-110516528D01*
X277190785Y-110517334D01*
X277177424Y-110527586D01*
X277148934Y-110544034D01*
X277132144Y-110550988D01*
X277100382Y-110559499D01*
X277082371Y-110561871D01*
X277049467Y-110561871D01*
X277031456Y-110559499D01*
X276999694Y-110550988D01*
X276982904Y-110544034D01*
X276954414Y-110527586D01*
X276941054Y-110517334D01*
X276940003Y-110516528D01*
X276916745Y-110493270D01*
X276914671Y-110490567D01*
X276905686Y-110478858D01*
X276889239Y-110450369D01*
X276882285Y-110433579D01*
X276873773Y-110401814D01*
X276872388Y-110391295D01*
X276870108Y-110373978D01*
X276869206Y-110369642D01*
X276861686Y-110333528D01*
X276857825Y-110314983D01*
X276856165Y-110309203D01*
X276848042Y-110280915D01*
X276848039Y-110280905D01*
X276847517Y-110279088D01*
X276831285Y-110233164D01*
X276817681Y-110211315D01*
X276802849Y-110187495D01*
X276764226Y-110125467D01*
X276758992Y-110119426D01*
X276741237Y-110098936D01*
X276717733Y-110071811D01*
X276640157Y-110002627D01*
X276586845Y-109977354D01*
X276529995Y-109950403D01*
X276529991Y-109950401D01*
X276525518Y-109948281D01*
X276520770Y-109946887D01*
X276520765Y-109946885D01*
X276461720Y-109929548D01*
X276461716Y-109929547D01*
X276457397Y-109928279D01*
X276452949Y-109927639D01*
X276452942Y-109927638D01*
X276347603Y-109912493D01*
X276347596Y-109912493D01*
X276343155Y-109911854D01*
X274915836Y-109911854D01*
X274904246Y-109912309D01*
X274885261Y-109913055D01*
X274885239Y-109913056D01*
X274884025Y-109913104D01*
X274864315Y-109914655D01*
X274863097Y-109914799D01*
X274863078Y-109914801D01*
X274833900Y-109918254D01*
X274833892Y-109918255D01*
X274832693Y-109918397D01*
X274770332Y-109928274D01*
X274741040Y-109932913D01*
X274741037Y-109932914D01*
X274738591Y-109933301D01*
X274676720Y-109948155D01*
X274655006Y-109955210D01*
X274641571Y-109959575D01*
X274641562Y-109959578D01*
X274639227Y-109960337D01*
X274580438Y-109984688D01*
X274578240Y-109985808D01*
X274578229Y-109985813D01*
X274552808Y-109998766D01*
X274504491Y-110023385D01*
X274450230Y-110056637D01*
X274448216Y-110058100D01*
X274448215Y-110058101D01*
X274441422Y-110063037D01*
X274418338Y-110079809D01*
X274369960Y-110121128D01*
X274309693Y-110181395D01*
X274268374Y-110229773D01*
X274266912Y-110231785D01*
X274266909Y-110231789D01*
X274258886Y-110242831D01*
X274245202Y-110261665D01*
X274211950Y-110315926D01*
X274194455Y-110350262D01*
X274174378Y-110389664D01*
X274174373Y-110389675D01*
X274173253Y-110391873D01*
X274148902Y-110450662D01*
X274148143Y-110452997D01*
X274148140Y-110453006D01*
X274145852Y-110460050D01*
X274136720Y-110488155D01*
X274136141Y-110490567D01*
X274123305Y-110544034D01*
X274121866Y-110550026D01*
X274121479Y-110552472D01*
X274121478Y-110552475D01*
X274118398Y-110571922D01*
X274106962Y-110644128D01*
X274106820Y-110645327D01*
X274106819Y-110645335D01*
X274105732Y-110654525D01*
X274103220Y-110675750D01*
X274101669Y-110695460D01*
X274101270Y-110695429D01*
X274095241Y-110712222D01*
X274098914Y-110720017D01*
X274100419Y-110739432D01*
X274100419Y-111247424D01*
X274080417Y-111315545D01*
X274026761Y-111362038D01*
X274018191Y-111365576D01*
X274004233Y-111370745D01*
X273997324Y-111373304D01*
X273926496Y-111378204D01*
X273864264Y-111344033D01*
X273831979Y-111287962D01*
X273830963Y-111280242D01*
X273770455Y-111134163D01*
X273769046Y-111132327D01*
X273752958Y-111066010D01*
X273768825Y-111011969D01*
X273770455Y-111009845D01*
X273822432Y-110884361D01*
X273827803Y-110871395D01*
X273830963Y-110863766D01*
X273833776Y-110842400D01*
X273849497Y-110722986D01*
X273853179Y-110714662D01*
X273851076Y-110703018D01*
X273849920Y-110694232D01*
X273833627Y-110570479D01*
X273832041Y-110558430D01*
X273830963Y-110550242D01*
X273770455Y-110404163D01*
X273683740Y-110291153D01*
X273679224Y-110285268D01*
X273674201Y-110278722D01*
X273643083Y-110254844D01*
X273613916Y-110232464D01*
X273548760Y-110182468D01*
X273402681Y-110121960D01*
X273383525Y-110119438D01*
X273254107Y-110102400D01*
X273245919Y-110101322D01*
X273237731Y-110102400D01*
X273108314Y-110119438D01*
X273089157Y-110121960D01*
X272943078Y-110182468D01*
X272877922Y-110232464D01*
X272848756Y-110254844D01*
X272817637Y-110278722D01*
X272812614Y-110285268D01*
X272808098Y-110291153D01*
X272721383Y-110404163D01*
X272660875Y-110550242D01*
X272659797Y-110558430D01*
X272658211Y-110570479D01*
X272640237Y-110707004D01*
X272641315Y-110715192D01*
X272641315Y-110723450D01*
X272639028Y-110723450D01*
X272629920Y-110781865D01*
X272582793Y-110834965D01*
X272514440Y-110854157D01*
X272499490Y-110853088D01*
X272418304Y-110842400D01*
X272410116Y-110841322D01*
X272253354Y-110861960D01*
X272107275Y-110922468D01*
X271981834Y-111018722D01*
X271976811Y-111025268D01*
X271968584Y-111035990D01*
X271885580Y-111144163D01*
X271825072Y-111290242D01*
X271823994Y-111298430D01*
X271823866Y-111299401D01*
X271804434Y-111447004D01*
X271807384Y-111469408D01*
X271796446Y-111539554D01*
X271749319Y-111592654D01*
X271682462Y-111611854D01*
X270727219Y-111611854D01*
X270659098Y-111591852D01*
X270612605Y-111538196D01*
X270602627Y-111482145D01*
X270601409Y-111482132D01*
X270601521Y-111471489D01*
X270601521Y-111471483D01*
X270601564Y-111467354D01*
X270599759Y-111452434D01*
X270596769Y-111427728D01*
X270581195Y-111299034D01*
X270521264Y-111140431D01*
X270470116Y-111066010D01*
X270429533Y-111006962D01*
X270429532Y-111006961D01*
X270425231Y-111000703D01*
X270343065Y-110927495D01*
X270304311Y-110892966D01*
X270304307Y-110892964D01*
X270298640Y-110887914D01*
X270291473Y-110884119D01*
X270181408Y-110825843D01*
X270148800Y-110808578D01*
X269984360Y-110767273D01*
X269976762Y-110767233D01*
X269976760Y-110767233D01*
X269899587Y-110766829D01*
X269814814Y-110766385D01*
X269807427Y-110768159D01*
X269807423Y-110768159D01*
X269699729Y-110794015D01*
X269649951Y-110805966D01*
X269643207Y-110809447D01*
X269643204Y-110809448D01*
X269522435Y-110871782D01*
X269499288Y-110883729D01*
X269371523Y-110995185D01*
X269274032Y-111133901D01*
X269212443Y-111291867D01*
X269211451Y-111299400D01*
X269211451Y-111299401D01*
X269192316Y-111444751D01*
X269190313Y-111459965D01*
X269191645Y-111472026D01*
X269179241Y-111541929D01*
X269131012Y-111594030D01*
X269066406Y-111611854D01*
X265133012Y-111611854D01*
X265036585Y-111626596D01*
X264966226Y-111617119D01*
X264912158Y-111571106D01*
X264891550Y-111503166D01*
X264910944Y-111434870D01*
X264935714Y-111406232D01*
X265013767Y-111339568D01*
X265013768Y-111339567D01*
X265019539Y-111334638D01*
X265118477Y-111196951D01*
X265126353Y-111177360D01*
X265178882Y-111046691D01*
X265178883Y-111046689D01*
X265181717Y-111039638D01*
X265197677Y-110927495D01*
X265205025Y-110875866D01*
X265205025Y-110875863D01*
X265205606Y-110871782D01*
X265205761Y-110857004D01*
X265203956Y-110842084D01*
X265195126Y-110769124D01*
X265185392Y-110688684D01*
X265125461Y-110530081D01*
X265095425Y-110486379D01*
X265033730Y-110396612D01*
X265033729Y-110396611D01*
X265029428Y-110390353D01*
X265016933Y-110379220D01*
X264908508Y-110282616D01*
X264908504Y-110282614D01*
X264902837Y-110277564D01*
X264895538Y-110273699D01*
X264809011Y-110227886D01*
X264752997Y-110198228D01*
X264588557Y-110156923D01*
X264580959Y-110156883D01*
X264580957Y-110156883D01*
X264503784Y-110156479D01*
X264419011Y-110156035D01*
X264411624Y-110157809D01*
X264411620Y-110157809D01*
X264273808Y-110190896D01*
X264254148Y-110195616D01*
X264247404Y-110199097D01*
X264247401Y-110199098D01*
X264152559Y-110248050D01*
X264103485Y-110273379D01*
X264097763Y-110278371D01*
X264097761Y-110278372D01*
X264057129Y-110313818D01*
X263975720Y-110384835D01*
X263943366Y-110430870D01*
X263883165Y-110516528D01*
X263878229Y-110523551D01*
X263816640Y-110681517D01*
X263815648Y-110689050D01*
X263815648Y-110689051D01*
X263795602Y-110841322D01*
X263794510Y-110849615D01*
X263813115Y-111018139D01*
X263832827Y-111072004D01*
X263859234Y-111144163D01*
X263871382Y-111177360D01*
X263875618Y-111183663D01*
X263875618Y-111183664D01*
X263888690Y-111203117D01*
X263965946Y-111318087D01*
X263971558Y-111323194D01*
X263971561Y-111323197D01*
X264068357Y-111411274D01*
X264105279Y-111471914D01*
X264103556Y-111542890D01*
X264063734Y-111601666D01*
X263998456Y-111629583D01*
X263961529Y-111627814D01*
X263961462Y-111628279D01*
X263851668Y-111612493D01*
X263851661Y-111612493D01*
X263847220Y-111611854D01*
X258215836Y-111611854D01*
X258204246Y-111612309D01*
X258185261Y-111613055D01*
X258185239Y-111613056D01*
X258184025Y-111613104D01*
X258164315Y-111614655D01*
X258163097Y-111614799D01*
X258163078Y-111614801D01*
X258133900Y-111618254D01*
X258133892Y-111618255D01*
X258132693Y-111618397D01*
X258080926Y-111626596D01*
X258041040Y-111632913D01*
X258041037Y-111632914D01*
X258038591Y-111633301D01*
X257976720Y-111648155D01*
X257955006Y-111655210D01*
X257941571Y-111659575D01*
X257941562Y-111659578D01*
X257939227Y-111660337D01*
X257880438Y-111684688D01*
X257878240Y-111685808D01*
X257878229Y-111685813D01*
X257849847Y-111700275D01*
X257804491Y-111723385D01*
X257750230Y-111756637D01*
X257748216Y-111758100D01*
X257748215Y-111758101D01*
X257721998Y-111777150D01*
X257718338Y-111779809D01*
X257689449Y-111804483D01*
X257672295Y-111819134D01*
X257669960Y-111821128D01*
X257609693Y-111881395D01*
X257568374Y-111929773D01*
X257545202Y-111961665D01*
X257511950Y-112015926D01*
X257503096Y-112033303D01*
X257474378Y-112089664D01*
X257474373Y-112089675D01*
X257473253Y-112091873D01*
X257448902Y-112150662D01*
X257448143Y-112152997D01*
X257448140Y-112153006D01*
X257446168Y-112159077D01*
X257436720Y-112188155D01*
X257421866Y-112250026D01*
X257406962Y-112344128D01*
X257406820Y-112345327D01*
X257406819Y-112345335D01*
X257403768Y-112371122D01*
X257403220Y-112375750D01*
X257401669Y-112395460D01*
X257401621Y-112396674D01*
X257401620Y-112396696D01*
X257401377Y-112402891D01*
X257400419Y-112427271D01*
X257400419Y-114707437D01*
X257401669Y-114739248D01*
X257403220Y-114758958D01*
X257406962Y-114790580D01*
X257421866Y-114884682D01*
X257436720Y-114946553D01*
X257448902Y-114984046D01*
X257449844Y-114986320D01*
X257473171Y-115042636D01*
X257480760Y-115113225D01*
X257448981Y-115176712D01*
X257387923Y-115212940D01*
X257356762Y-115216854D01*
X200632419Y-115216854D01*
X200564298Y-115196852D01*
X200517805Y-115143196D01*
X200506419Y-115090854D01*
X200506419Y-110500835D01*
X204990419Y-110500835D01*
X204990420Y-111913872D01*
X204991195Y-111918765D01*
X204991195Y-111918766D01*
X205002342Y-111989149D01*
X205005273Y-112007658D01*
X205062869Y-112120696D01*
X205152577Y-112210404D01*
X205265615Y-112268000D01*
X205275404Y-112269550D01*
X205275406Y-112269551D01*
X205302768Y-112273884D01*
X205359400Y-112282854D01*
X206065776Y-112282854D01*
X206772437Y-112282853D01*
X206777331Y-112282078D01*
X206856425Y-112269552D01*
X206856427Y-112269551D01*
X206866223Y-112268000D01*
X206979261Y-112210404D01*
X207068969Y-112120696D01*
X207121712Y-112017183D01*
X207170459Y-111965569D01*
X207239374Y-111948503D01*
X207306576Y-111971404D01*
X207321899Y-111984132D01*
X207382048Y-112042726D01*
X207386185Y-112046756D01*
X207550536Y-112156571D01*
X207555838Y-112158849D01*
X207555840Y-112158850D01*
X207675834Y-112210404D01*
X207732147Y-112234598D01*
X207789687Y-112247618D01*
X207919300Y-112276947D01*
X207919306Y-112276948D01*
X207924937Y-112278222D01*
X207930708Y-112278449D01*
X207930710Y-112278449D01*
X207991303Y-112280829D01*
X208122447Y-112285982D01*
X208232281Y-112270057D01*
X208312351Y-112258448D01*
X208312356Y-112258447D01*
X208318065Y-112257619D01*
X208323529Y-112255764D01*
X208323534Y-112255763D01*
X208499767Y-112195940D01*
X208499772Y-112195938D01*
X208505239Y-112194082D01*
X208510280Y-112191259D01*
X208672661Y-112100321D01*
X208672665Y-112100318D01*
X208677699Y-112097499D01*
X208682136Y-112093808D01*
X208682140Y-112093806D01*
X208825233Y-111974797D01*
X208829671Y-111971106D01*
X208858802Y-111936080D01*
X208952371Y-111823575D01*
X208952373Y-111823571D01*
X208956064Y-111819134D01*
X208958885Y-111814097D01*
X208962159Y-111809333D01*
X208963512Y-111810263D01*
X209008760Y-111765975D01*
X209078292Y-111751628D01*
X209144542Y-111777150D01*
X209170854Y-111804483D01*
X209205662Y-111853735D01*
X209244598Y-111908828D01*
X209248732Y-111912855D01*
X209356797Y-112018127D01*
X209386185Y-112046756D01*
X209550536Y-112156571D01*
X209555838Y-112158849D01*
X209555840Y-112158850D01*
X209675834Y-112210404D01*
X209732147Y-112234598D01*
X209789687Y-112247618D01*
X209919300Y-112276947D01*
X209919306Y-112276948D01*
X209924937Y-112278222D01*
X209930708Y-112278449D01*
X209930710Y-112278449D01*
X209991303Y-112280829D01*
X210122447Y-112285982D01*
X210232281Y-112270057D01*
X210312351Y-112258448D01*
X210312356Y-112258447D01*
X210318065Y-112257619D01*
X210323529Y-112255764D01*
X210323534Y-112255763D01*
X210499767Y-112195940D01*
X210499772Y-112195938D01*
X210505239Y-112194082D01*
X210510280Y-112191259D01*
X210672661Y-112100321D01*
X210672665Y-112100318D01*
X210677699Y-112097499D01*
X210682136Y-112093808D01*
X210682140Y-112093806D01*
X210825233Y-111974797D01*
X210829671Y-111971106D01*
X210858802Y-111936080D01*
X210952371Y-111823575D01*
X210952373Y-111823571D01*
X210956064Y-111819134D01*
X210958885Y-111814097D01*
X210962159Y-111809333D01*
X210963512Y-111810263D01*
X211008760Y-111765975D01*
X211078292Y-111751628D01*
X211144542Y-111777150D01*
X211170854Y-111804483D01*
X211205662Y-111853735D01*
X211244598Y-111908828D01*
X211248732Y-111912855D01*
X211356797Y-112018127D01*
X211386185Y-112046756D01*
X211550536Y-112156571D01*
X211555838Y-112158849D01*
X211555840Y-112158850D01*
X211675834Y-112210404D01*
X211732147Y-112234598D01*
X211789687Y-112247618D01*
X211919300Y-112276947D01*
X211919306Y-112276948D01*
X211924937Y-112278222D01*
X211930708Y-112278449D01*
X211930710Y-112278449D01*
X211991303Y-112280829D01*
X212122447Y-112285982D01*
X212232281Y-112270057D01*
X212312351Y-112258448D01*
X212312356Y-112258447D01*
X212318065Y-112257619D01*
X212323529Y-112255764D01*
X212323534Y-112255763D01*
X212499767Y-112195940D01*
X212499772Y-112195938D01*
X212505239Y-112194082D01*
X212510280Y-112191259D01*
X212672661Y-112100321D01*
X212672665Y-112100318D01*
X212677699Y-112097499D01*
X212682136Y-112093808D01*
X212682140Y-112093806D01*
X212825233Y-111974797D01*
X212829671Y-111971106D01*
X212858802Y-111936080D01*
X212952371Y-111823575D01*
X212952373Y-111823571D01*
X212956064Y-111819134D01*
X212958883Y-111814100D01*
X212958886Y-111814096D01*
X213049824Y-111651715D01*
X213049824Y-111651714D01*
X213052647Y-111646674D01*
X213054503Y-111641207D01*
X213054505Y-111641202D01*
X213114328Y-111464969D01*
X213114329Y-111464964D01*
X213116184Y-111459500D01*
X213117012Y-111453791D01*
X213117013Y-111453786D01*
X213140725Y-111290242D01*
X213144547Y-111263882D01*
X213146027Y-111207354D01*
X213143851Y-111183664D01*
X213128640Y-111018139D01*
X213127940Y-111010520D01*
X213074287Y-110820278D01*
X213068947Y-110809448D01*
X213025078Y-110720492D01*
X228550677Y-110720492D01*
X228567954Y-110876987D01*
X228622062Y-111024844D01*
X228626299Y-111031150D01*
X228626301Y-111031153D01*
X228653752Y-111072004D01*
X228709877Y-111155526D01*
X228826329Y-111261489D01*
X228869240Y-111284788D01*
X228958018Y-111332991D01*
X228958020Y-111332992D01*
X228964695Y-111336616D01*
X228972044Y-111338544D01*
X229109638Y-111374641D01*
X229109640Y-111374641D01*
X229116988Y-111376569D01*
X229200299Y-111377878D01*
X229266817Y-111378923D01*
X229266820Y-111378923D01*
X229274414Y-111379042D01*
X229427887Y-111343892D01*
X229568544Y-111273149D01*
X229598664Y-111247424D01*
X229682493Y-111175828D01*
X229682495Y-111175825D01*
X229688267Y-111170896D01*
X229780143Y-111043037D01*
X229790901Y-111016277D01*
X229826591Y-110927495D01*
X229838869Y-110896952D01*
X229850941Y-110812130D01*
X229860472Y-110745161D01*
X229860472Y-110745158D01*
X229861053Y-110741077D01*
X229861197Y-110727354D01*
X229860669Y-110722986D01*
X229851616Y-110648178D01*
X229842282Y-110571048D01*
X229786629Y-110423766D01*
X229783417Y-110419092D01*
X229769741Y-110350262D01*
X229784824Y-110300815D01*
X229785704Y-110299214D01*
X229790143Y-110293037D01*
X229793329Y-110285113D01*
X229822995Y-110211315D01*
X229848869Y-110146952D01*
X229866455Y-110023385D01*
X229870472Y-109995161D01*
X229870472Y-109995158D01*
X229871053Y-109991077D01*
X229871164Y-109980492D01*
X234480677Y-109980492D01*
X234497954Y-110136987D01*
X234552062Y-110284844D01*
X234556299Y-110291150D01*
X234556301Y-110291153D01*
X234572948Y-110315926D01*
X234639877Y-110415526D01*
X234659717Y-110433579D01*
X234736174Y-110503149D01*
X234756329Y-110521489D01*
X234797852Y-110544034D01*
X234888018Y-110592991D01*
X234888020Y-110592992D01*
X234894695Y-110596616D01*
X234902044Y-110598544D01*
X235039638Y-110634641D01*
X235039640Y-110634641D01*
X235046988Y-110636569D01*
X235130299Y-110637878D01*
X235196817Y-110638923D01*
X235196820Y-110638923D01*
X235204414Y-110639042D01*
X235357887Y-110603892D01*
X235498544Y-110533149D01*
X235542104Y-110495945D01*
X235612493Y-110435828D01*
X235612495Y-110435825D01*
X235618267Y-110430896D01*
X235710143Y-110303037D01*
X235716590Y-110287001D01*
X235735638Y-110239617D01*
X235768869Y-110156952D01*
X235782235Y-110063037D01*
X235790472Y-110005161D01*
X235790472Y-110005158D01*
X235791053Y-110001077D01*
X235791197Y-109987354D01*
X235790591Y-109982342D01*
X235784494Y-109931965D01*
X235772282Y-109831048D01*
X235755758Y-109787317D01*
X235738064Y-109740492D01*
X236560677Y-109740492D01*
X236577954Y-109896987D01*
X236632062Y-110044844D01*
X236636299Y-110051150D01*
X236636301Y-110051153D01*
X236676628Y-110111165D01*
X236719877Y-110175526D01*
X236836329Y-110281489D01*
X236864090Y-110296562D01*
X236968018Y-110352991D01*
X236968020Y-110352992D01*
X236974695Y-110356616D01*
X236982044Y-110358544D01*
X237119638Y-110394641D01*
X237119640Y-110394641D01*
X237126988Y-110396569D01*
X237210299Y-110397878D01*
X237276817Y-110398923D01*
X237276820Y-110398923D01*
X237284414Y-110399042D01*
X237437887Y-110363892D01*
X237578544Y-110293149D01*
X237618833Y-110258739D01*
X237692493Y-110195828D01*
X237692495Y-110195825D01*
X237698267Y-110190896D01*
X237790143Y-110063037D01*
X237848869Y-109916952D01*
X237865240Y-109801922D01*
X237870472Y-109765161D01*
X237870472Y-109765158D01*
X237871053Y-109761077D01*
X237871197Y-109747354D01*
X237852282Y-109591048D01*
X237830685Y-109533892D01*
X237799313Y-109450868D01*
X237799312Y-109450865D01*
X237796629Y-109443766D01*
X237707450Y-109314011D01*
X237660890Y-109272528D01*
X237595567Y-109214326D01*
X237595564Y-109214324D01*
X237589895Y-109209273D01*
X237450750Y-109135599D01*
X237434041Y-109131402D01*
X237305417Y-109099094D01*
X237305415Y-109099094D01*
X237298047Y-109097243D01*
X237290449Y-109097203D01*
X237290447Y-109097203D01*
X237223238Y-109096851D01*
X237140603Y-109096419D01*
X237133224Y-109098191D01*
X237133220Y-109098191D01*
X236994886Y-109131402D01*
X236994882Y-109131403D01*
X236987507Y-109133174D01*
X236847598Y-109205386D01*
X236841876Y-109210378D01*
X236841874Y-109210379D01*
X236734678Y-109303892D01*
X236734675Y-109303895D01*
X236728953Y-109308887D01*
X236692045Y-109361402D01*
X236647821Y-109424326D01*
X236638420Y-109437702D01*
X236581228Y-109584393D01*
X236580237Y-109591922D01*
X236568527Y-109680868D01*
X236560677Y-109740492D01*
X235738064Y-109740492D01*
X235719313Y-109690868D01*
X235719312Y-109690865D01*
X235716629Y-109683766D01*
X235627450Y-109554011D01*
X235580890Y-109512528D01*
X235515567Y-109454326D01*
X235515564Y-109454324D01*
X235509895Y-109449273D01*
X235491009Y-109439273D01*
X235377462Y-109379153D01*
X235377463Y-109379153D01*
X235370750Y-109375599D01*
X235314229Y-109361402D01*
X235225417Y-109339094D01*
X235225415Y-109339094D01*
X235218047Y-109337243D01*
X235210449Y-109337203D01*
X235210447Y-109337203D01*
X235143238Y-109336851D01*
X235060603Y-109336419D01*
X235053224Y-109338191D01*
X235053220Y-109338191D01*
X234914886Y-109371402D01*
X234914882Y-109371403D01*
X234907507Y-109373174D01*
X234900762Y-109376655D01*
X234900763Y-109376655D01*
X234782486Y-109437702D01*
X234767598Y-109445386D01*
X234761876Y-109450378D01*
X234761874Y-109450379D01*
X234654678Y-109543892D01*
X234654675Y-109543895D01*
X234648953Y-109548887D01*
X234644586Y-109555101D01*
X234569818Y-109661485D01*
X234558420Y-109677702D01*
X234501228Y-109824393D01*
X234500237Y-109831922D01*
X234481917Y-109971077D01*
X234480677Y-109980492D01*
X229871164Y-109980492D01*
X229871197Y-109977354D01*
X229870666Y-109972961D01*
X229864741Y-109924006D01*
X229852282Y-109821048D01*
X229825998Y-109751488D01*
X229799313Y-109680868D01*
X229799312Y-109680865D01*
X229796629Y-109673766D01*
X229707450Y-109544011D01*
X229660890Y-109502528D01*
X229595567Y-109444326D01*
X229595564Y-109444324D01*
X229589895Y-109439273D01*
X229450750Y-109365599D01*
X229434041Y-109361402D01*
X229305417Y-109329094D01*
X229305415Y-109329094D01*
X229298047Y-109327243D01*
X229290449Y-109327203D01*
X229290447Y-109327203D01*
X229223238Y-109326851D01*
X229140603Y-109326419D01*
X229133224Y-109328191D01*
X229133220Y-109328191D01*
X228994886Y-109361402D01*
X228994882Y-109361403D01*
X228987507Y-109363174D01*
X228967018Y-109373749D01*
X228878817Y-109419273D01*
X228847598Y-109435386D01*
X228841876Y-109440378D01*
X228841874Y-109440379D01*
X228734678Y-109533892D01*
X228734675Y-109533895D01*
X228728953Y-109538887D01*
X228720952Y-109550271D01*
X228652611Y-109647511D01*
X228638420Y-109667702D01*
X228581228Y-109814393D01*
X228579359Y-109828588D01*
X228561890Y-109961279D01*
X228560677Y-109970492D01*
X228577954Y-110126987D01*
X228582506Y-110139426D01*
X228629450Y-110267708D01*
X228629452Y-110267712D01*
X228632062Y-110274844D01*
X228636301Y-110281153D01*
X228638883Y-110286219D01*
X228651988Y-110355995D01*
X228634254Y-110403650D01*
X228636379Y-110404790D01*
X228632789Y-110411485D01*
X228628420Y-110417702D01*
X228571228Y-110564393D01*
X228569754Y-110575587D01*
X228551766Y-110712222D01*
X228550677Y-110720492D01*
X213025078Y-110720492D01*
X212989416Y-110648178D01*
X212986862Y-110642999D01*
X212902953Y-110530631D01*
X212872049Y-110489245D01*
X212872048Y-110489244D01*
X212868596Y-110484621D01*
X212846134Y-110463857D01*
X212727688Y-110354367D01*
X212727686Y-110354365D01*
X212723447Y-110350447D01*
X212556278Y-110244971D01*
X212550918Y-110242833D01*
X212550915Y-110242831D01*
X212438364Y-110197928D01*
X212372686Y-110171725D01*
X212367026Y-110170599D01*
X212367022Y-110170598D01*
X212184488Y-110134290D01*
X212184486Y-110134290D01*
X212178821Y-110133163D01*
X212173046Y-110133087D01*
X212173042Y-110133087D01*
X212074606Y-110131799D01*
X211981175Y-110130576D01*
X211975478Y-110131555D01*
X211975477Y-110131555D01*
X211792063Y-110163071D01*
X211786366Y-110164050D01*
X211600921Y-110232464D01*
X211595960Y-110235416D01*
X211595959Y-110235416D01*
X211436015Y-110330572D01*
X211436012Y-110330574D01*
X211431047Y-110333528D01*
X211426707Y-110337334D01*
X211426703Y-110337337D01*
X211314397Y-110435828D01*
X211282436Y-110463857D01*
X211163604Y-110614595D01*
X211105724Y-110655707D01*
X211034804Y-110659001D01*
X210973361Y-110623430D01*
X210963697Y-110611977D01*
X210872049Y-110489245D01*
X210872048Y-110489244D01*
X210868596Y-110484621D01*
X210846134Y-110463857D01*
X210727688Y-110354367D01*
X210727686Y-110354365D01*
X210723447Y-110350447D01*
X210556278Y-110244971D01*
X210550918Y-110242833D01*
X210550915Y-110242831D01*
X210438364Y-110197928D01*
X210372686Y-110171725D01*
X210367026Y-110170599D01*
X210367022Y-110170598D01*
X210184488Y-110134290D01*
X210184486Y-110134290D01*
X210178821Y-110133163D01*
X210173046Y-110133087D01*
X210173042Y-110133087D01*
X210074606Y-110131799D01*
X209981175Y-110130576D01*
X209975478Y-110131555D01*
X209975477Y-110131555D01*
X209792063Y-110163071D01*
X209786366Y-110164050D01*
X209600921Y-110232464D01*
X209595960Y-110235416D01*
X209595959Y-110235416D01*
X209436015Y-110330572D01*
X209436012Y-110330574D01*
X209431047Y-110333528D01*
X209426707Y-110337334D01*
X209426703Y-110337337D01*
X209314397Y-110435828D01*
X209282436Y-110463857D01*
X209163604Y-110614595D01*
X209105724Y-110655707D01*
X209034804Y-110659001D01*
X208973361Y-110623430D01*
X208963697Y-110611977D01*
X208872049Y-110489245D01*
X208872048Y-110489244D01*
X208868596Y-110484621D01*
X208846134Y-110463857D01*
X208727688Y-110354367D01*
X208727686Y-110354365D01*
X208723447Y-110350447D01*
X208556278Y-110244971D01*
X208550918Y-110242833D01*
X208550915Y-110242831D01*
X208438364Y-110197928D01*
X208372686Y-110171725D01*
X208367026Y-110170599D01*
X208367022Y-110170598D01*
X208184488Y-110134290D01*
X208184486Y-110134290D01*
X208178821Y-110133163D01*
X208173046Y-110133087D01*
X208173042Y-110133087D01*
X208074606Y-110131799D01*
X207981175Y-110130576D01*
X207975478Y-110131555D01*
X207975477Y-110131555D01*
X207792063Y-110163071D01*
X207786366Y-110164050D01*
X207600921Y-110232464D01*
X207595960Y-110235416D01*
X207595959Y-110235416D01*
X207436015Y-110330572D01*
X207436012Y-110330574D01*
X207431047Y-110333528D01*
X207426704Y-110337337D01*
X207426697Y-110337342D01*
X207316508Y-110433976D01*
X207252104Y-110463854D01*
X207181771Y-110454168D01*
X207127840Y-110407996D01*
X207121163Y-110396448D01*
X207109714Y-110373978D01*
X207068969Y-110294012D01*
X206979261Y-110204304D01*
X206866223Y-110146708D01*
X206856434Y-110145158D01*
X206856432Y-110145157D01*
X206829070Y-110140824D01*
X206772438Y-110131854D01*
X206066062Y-110131854D01*
X205359401Y-110131855D01*
X205354508Y-110132630D01*
X205354507Y-110132630D01*
X205275413Y-110145156D01*
X205275411Y-110145157D01*
X205265615Y-110146708D01*
X205256778Y-110151211D01*
X205256777Y-110151211D01*
X205245567Y-110156923D01*
X205152577Y-110204304D01*
X205062869Y-110294012D01*
X205005273Y-110407050D01*
X205003723Y-110416839D01*
X205003722Y-110416841D01*
X205002464Y-110424784D01*
X204990419Y-110500835D01*
X200506419Y-110500835D01*
X200506419Y-109950492D01*
X221170677Y-109950492D01*
X221187954Y-110106987D01*
X221242062Y-110254844D01*
X221246299Y-110261150D01*
X221246301Y-110261153D01*
X221281691Y-110313818D01*
X221329877Y-110385526D01*
X221379738Y-110430896D01*
X221434478Y-110480705D01*
X221446329Y-110491489D01*
X221492445Y-110516528D01*
X221578018Y-110562991D01*
X221578020Y-110562992D01*
X221584695Y-110566616D01*
X221592044Y-110568544D01*
X221729638Y-110604641D01*
X221729640Y-110604641D01*
X221736988Y-110606569D01*
X221820299Y-110607878D01*
X221886817Y-110608923D01*
X221886820Y-110608923D01*
X221894414Y-110609042D01*
X222047887Y-110573892D01*
X222188544Y-110503149D01*
X222234553Y-110463854D01*
X222302493Y-110405828D01*
X222302495Y-110405825D01*
X222308267Y-110400896D01*
X222400143Y-110273037D01*
X222403864Y-110263782D01*
X222428788Y-110201780D01*
X222458869Y-110126952D01*
X222476563Y-110002627D01*
X222480472Y-109975161D01*
X222480472Y-109975158D01*
X222481053Y-109971077D01*
X222481197Y-109957354D01*
X222462282Y-109801048D01*
X222457094Y-109787317D01*
X222409313Y-109660868D01*
X222409312Y-109660865D01*
X222406629Y-109653766D01*
X222317450Y-109524011D01*
X222239238Y-109454326D01*
X222205567Y-109424326D01*
X222205564Y-109424324D01*
X222199895Y-109419273D01*
X222060750Y-109345599D01*
X222044041Y-109341402D01*
X221915417Y-109309094D01*
X221915415Y-109309094D01*
X221908047Y-109307243D01*
X221900449Y-109307203D01*
X221900447Y-109307203D01*
X221833238Y-109306851D01*
X221750603Y-109306419D01*
X221743224Y-109308191D01*
X221743220Y-109308191D01*
X221604886Y-109341402D01*
X221604882Y-109341403D01*
X221597507Y-109343174D01*
X221457598Y-109415386D01*
X221451876Y-109420378D01*
X221451874Y-109420379D01*
X221344678Y-109513892D01*
X221344675Y-109513895D01*
X221338953Y-109518887D01*
X221248420Y-109647702D01*
X221191228Y-109794393D01*
X221190237Y-109801922D01*
X221172744Y-109934795D01*
X221170677Y-109950492D01*
X200506419Y-109950492D01*
X200506419Y-106980492D01*
X215800677Y-106980492D01*
X215817954Y-107136987D01*
X215872062Y-107284844D01*
X215876299Y-107291150D01*
X215876301Y-107291153D01*
X215908424Y-107338956D01*
X215959877Y-107415526D01*
X215987053Y-107440254D01*
X216065112Y-107511282D01*
X216076329Y-107521489D01*
X216127243Y-107549133D01*
X216208018Y-107592991D01*
X216208020Y-107592992D01*
X216214695Y-107596616D01*
X216222044Y-107598544D01*
X216359638Y-107634641D01*
X216359640Y-107634641D01*
X216366988Y-107636569D01*
X216450299Y-107637878D01*
X216516817Y-107638923D01*
X216516820Y-107638923D01*
X216524414Y-107639042D01*
X216677887Y-107603892D01*
X216818544Y-107533149D01*
X216855221Y-107501824D01*
X216932493Y-107435828D01*
X216932495Y-107435825D01*
X216938267Y-107430896D01*
X217030143Y-107303037D01*
X217031166Y-107300492D01*
X225700677Y-107300492D01*
X225717954Y-107456987D01*
X225772062Y-107604844D01*
X225776299Y-107611150D01*
X225776301Y-107611153D01*
X225794962Y-107638923D01*
X225859877Y-107735526D01*
X225976329Y-107841489D01*
X225982998Y-107845110D01*
X225985877Y-107847156D01*
X226029818Y-107902921D01*
X226037810Y-107966307D01*
X226031668Y-108012960D01*
X226031668Y-108012965D01*
X226030677Y-108020492D01*
X226047954Y-108176987D01*
X226102062Y-108324844D01*
X226106299Y-108331150D01*
X226106301Y-108331153D01*
X226144867Y-108388544D01*
X226189877Y-108455526D01*
X226306329Y-108561489D01*
X226313004Y-108565113D01*
X226438018Y-108632991D01*
X226438020Y-108632992D01*
X226444695Y-108636616D01*
X226452044Y-108638544D01*
X226589638Y-108674641D01*
X226589640Y-108674641D01*
X226596988Y-108676569D01*
X226680299Y-108677878D01*
X226746817Y-108678923D01*
X226746820Y-108678923D01*
X226754414Y-108679042D01*
X226907887Y-108643892D01*
X227048544Y-108573149D01*
X227086007Y-108541153D01*
X227162493Y-108475828D01*
X227162495Y-108475825D01*
X227168267Y-108470896D01*
X227260143Y-108343037D01*
X227305386Y-108230492D01*
X249290677Y-108230492D01*
X249307954Y-108386987D01*
X249362062Y-108534844D01*
X249366299Y-108541150D01*
X249366301Y-108541153D01*
X249382402Y-108565113D01*
X249449877Y-108665526D01*
X249566329Y-108771489D01*
X249573004Y-108775113D01*
X249698018Y-108842991D01*
X249698020Y-108842992D01*
X249704695Y-108846616D01*
X249712044Y-108848544D01*
X249849638Y-108884641D01*
X249849640Y-108884641D01*
X249856988Y-108886569D01*
X249940299Y-108887878D01*
X250006817Y-108888923D01*
X250006820Y-108888923D01*
X250014414Y-108889042D01*
X250167887Y-108853892D01*
X250308544Y-108783149D01*
X250334788Y-108760735D01*
X250422493Y-108685828D01*
X250422495Y-108685825D01*
X250428267Y-108680896D01*
X250520143Y-108553037D01*
X250578869Y-108406952D01*
X250591570Y-108317708D01*
X250600472Y-108255161D01*
X250600472Y-108255158D01*
X250601053Y-108251077D01*
X250601197Y-108237354D01*
X250582282Y-108081048D01*
X250569436Y-108047052D01*
X250529313Y-107940868D01*
X250529312Y-107940865D01*
X250526629Y-107933766D01*
X250437450Y-107804011D01*
X250366320Y-107740636D01*
X250325567Y-107704326D01*
X250325564Y-107704324D01*
X250319895Y-107699273D01*
X250180750Y-107625599D01*
X250107966Y-107607317D01*
X250035417Y-107589094D01*
X250035415Y-107589094D01*
X250028047Y-107587243D01*
X250020449Y-107587203D01*
X250020447Y-107587203D01*
X249953238Y-107586851D01*
X249870603Y-107586419D01*
X249863224Y-107588191D01*
X249863220Y-107588191D01*
X249724886Y-107621402D01*
X249724882Y-107621403D01*
X249717507Y-107623174D01*
X249577598Y-107695386D01*
X249571876Y-107700378D01*
X249571874Y-107700379D01*
X249464678Y-107793892D01*
X249464675Y-107793895D01*
X249458953Y-107798887D01*
X249368420Y-107927702D01*
X249311228Y-108074393D01*
X249306686Y-108108892D01*
X249293964Y-108205526D01*
X249290677Y-108230492D01*
X227305386Y-108230492D01*
X227318869Y-108196952D01*
X227335240Y-108081922D01*
X227340472Y-108045161D01*
X227340472Y-108045158D01*
X227341053Y-108041077D01*
X227341197Y-108027354D01*
X227338740Y-108007046D01*
X227336919Y-107992006D01*
X227322282Y-107871048D01*
X227300802Y-107814203D01*
X227269313Y-107730868D01*
X227269312Y-107730865D01*
X227266629Y-107723766D01*
X227177450Y-107594011D01*
X227059895Y-107489273D01*
X227056340Y-107487391D01*
X227012776Y-107433274D01*
X227004466Y-107367362D01*
X227010472Y-107325162D01*
X227010472Y-107325156D01*
X227011053Y-107321077D01*
X227011197Y-107307354D01*
X227009237Y-107291153D01*
X227002066Y-107231903D01*
X226992282Y-107151048D01*
X226975832Y-107107515D01*
X226939313Y-107010868D01*
X226939312Y-107010865D01*
X226936629Y-107003766D01*
X226847450Y-106874011D01*
X226809238Y-106839965D01*
X250710313Y-106839965D01*
X250728918Y-107008489D01*
X250759638Y-107092434D01*
X250783104Y-107156557D01*
X250787185Y-107167710D01*
X250791421Y-107174013D01*
X250791421Y-107174014D01*
X250801334Y-107188766D01*
X250881749Y-107308437D01*
X250887361Y-107313544D01*
X250887364Y-107313547D01*
X251001531Y-107417431D01*
X251001535Y-107417434D01*
X251007152Y-107422545D01*
X251013825Y-107426168D01*
X251013829Y-107426171D01*
X251149477Y-107499821D01*
X251149479Y-107499822D01*
X251156154Y-107503446D01*
X251163503Y-107505374D01*
X251312802Y-107544542D01*
X251312804Y-107544542D01*
X251320152Y-107546470D01*
X251406528Y-107547827D01*
X251482080Y-107549014D01*
X251482083Y-107549014D01*
X251489679Y-107549133D01*
X251497084Y-107547437D01*
X251497085Y-107547437D01*
X251559470Y-107533149D01*
X251654948Y-107511282D01*
X251806417Y-107435101D01*
X251918988Y-107338956D01*
X251929570Y-107329918D01*
X251929571Y-107329917D01*
X251935342Y-107324988D01*
X252034280Y-107187301D01*
X252041576Y-107169153D01*
X252069390Y-107099965D01*
X262740313Y-107099965D01*
X262758918Y-107268489D01*
X262786401Y-107343588D01*
X262814004Y-107419017D01*
X262817185Y-107427710D01*
X262821421Y-107434013D01*
X262821421Y-107434014D01*
X262834473Y-107453438D01*
X262911749Y-107568437D01*
X262917361Y-107573544D01*
X262917364Y-107573547D01*
X263031531Y-107677431D01*
X263031535Y-107677434D01*
X263037152Y-107682545D01*
X263043825Y-107686168D01*
X263043829Y-107686171D01*
X263179477Y-107759821D01*
X263179479Y-107759822D01*
X263186154Y-107763446D01*
X263193503Y-107765374D01*
X263342802Y-107804542D01*
X263342804Y-107804542D01*
X263350152Y-107806470D01*
X263436528Y-107807827D01*
X263512080Y-107809014D01*
X263512083Y-107809014D01*
X263519679Y-107809133D01*
X263527084Y-107807437D01*
X263527085Y-107807437D01*
X263598517Y-107791077D01*
X263684948Y-107771282D01*
X263686519Y-107770492D01*
X274630677Y-107770492D01*
X274647954Y-107926987D01*
X274702062Y-108074844D01*
X274706299Y-108081150D01*
X274706301Y-108081153D01*
X274722648Y-108105479D01*
X274789877Y-108205526D01*
X274906329Y-108311489D01*
X274951454Y-108335990D01*
X275038018Y-108382991D01*
X275038020Y-108382992D01*
X275044695Y-108386616D01*
X275052044Y-108388544D01*
X275189638Y-108424641D01*
X275189640Y-108424641D01*
X275196988Y-108426569D01*
X275280299Y-108427878D01*
X275346817Y-108428923D01*
X275346820Y-108428923D01*
X275354414Y-108429042D01*
X275507887Y-108393892D01*
X275648544Y-108323149D01*
X275732930Y-108251077D01*
X275762493Y-108225828D01*
X275762495Y-108225825D01*
X275768267Y-108220896D01*
X275860143Y-108093037D01*
X275918869Y-107946952D01*
X275929672Y-107871048D01*
X275940472Y-107795161D01*
X275940472Y-107795158D01*
X275941053Y-107791077D01*
X275941197Y-107777354D01*
X275922282Y-107621048D01*
X275914431Y-107600271D01*
X275869313Y-107480868D01*
X275869312Y-107480865D01*
X275866629Y-107473766D01*
X275777450Y-107344011D01*
X275730452Y-107302137D01*
X275665567Y-107244326D01*
X275665564Y-107244324D01*
X275659895Y-107239273D01*
X275520750Y-107165599D01*
X275511096Y-107163174D01*
X275375417Y-107129094D01*
X275375415Y-107129094D01*
X275368047Y-107127243D01*
X275360449Y-107127203D01*
X275360447Y-107127203D01*
X275293238Y-107126851D01*
X275210603Y-107126419D01*
X275203224Y-107128191D01*
X275203220Y-107128191D01*
X275064886Y-107161402D01*
X275064882Y-107161403D01*
X275057507Y-107163174D01*
X274917598Y-107235386D01*
X274911876Y-107240378D01*
X274911874Y-107240379D01*
X274804678Y-107333892D01*
X274804675Y-107333895D01*
X274798953Y-107338887D01*
X274760188Y-107394043D01*
X274715951Y-107456987D01*
X274708420Y-107467702D01*
X274651228Y-107614393D01*
X274648293Y-107636688D01*
X274632082Y-107759821D01*
X274630677Y-107770492D01*
X263686519Y-107770492D01*
X263836417Y-107695101D01*
X263915632Y-107627444D01*
X263959570Y-107589918D01*
X263959571Y-107589917D01*
X263965342Y-107584988D01*
X264064280Y-107447301D01*
X264068892Y-107435828D01*
X264124685Y-107297041D01*
X264124686Y-107297039D01*
X264127520Y-107289988D01*
X264144717Y-107169153D01*
X264150828Y-107126216D01*
X264150828Y-107126213D01*
X264151409Y-107122132D01*
X264151564Y-107107354D01*
X264149759Y-107092434D01*
X264142202Y-107029988D01*
X264131195Y-106939034D01*
X264071264Y-106780431D01*
X264045226Y-106742545D01*
X263979533Y-106646962D01*
X263979532Y-106646961D01*
X263975231Y-106640703D01*
X263969038Y-106635185D01*
X263854311Y-106532966D01*
X263854307Y-106532964D01*
X263848640Y-106527914D01*
X263821355Y-106513467D01*
X263756673Y-106479220D01*
X263698800Y-106448578D01*
X263534360Y-106407273D01*
X263526762Y-106407233D01*
X263526760Y-106407233D01*
X263449587Y-106406829D01*
X263364814Y-106406385D01*
X263357427Y-106408159D01*
X263357423Y-106408159D01*
X263216874Y-106441903D01*
X263199951Y-106445966D01*
X263193207Y-106449447D01*
X263193204Y-106449448D01*
X263069170Y-106513467D01*
X263049288Y-106523729D01*
X263043566Y-106528721D01*
X263043564Y-106528722D01*
X263014575Y-106554011D01*
X262921523Y-106635185D01*
X262890448Y-106679401D01*
X262869616Y-106709042D01*
X262824032Y-106773901D01*
X262762443Y-106931867D01*
X262761451Y-106939400D01*
X262761451Y-106939401D01*
X262745705Y-107059011D01*
X262740313Y-107099965D01*
X252069390Y-107099965D01*
X252094685Y-107037041D01*
X252094686Y-107037039D01*
X252097520Y-107029988D01*
X252110412Y-106939401D01*
X252120828Y-106866216D01*
X252120828Y-106866213D01*
X252121409Y-106862132D01*
X252121564Y-106847354D01*
X252119759Y-106832434D01*
X252113465Y-106780431D01*
X252101195Y-106679034D01*
X252041264Y-106520431D01*
X251993118Y-106450379D01*
X251949533Y-106386962D01*
X251949532Y-106386961D01*
X251945231Y-106380703D01*
X251939560Y-106375650D01*
X251824311Y-106272966D01*
X251824307Y-106272964D01*
X251818640Y-106267914D01*
X251668800Y-106188578D01*
X251554888Y-106159965D01*
X273010313Y-106159965D01*
X273028918Y-106328489D01*
X273050316Y-106386962D01*
X273072865Y-106448578D01*
X273087185Y-106487710D01*
X273091421Y-106494013D01*
X273091421Y-106494014D01*
X273104967Y-106514173D01*
X273181749Y-106628437D01*
X273187361Y-106633544D01*
X273187364Y-106633547D01*
X273301531Y-106737431D01*
X273301535Y-106737434D01*
X273307152Y-106742545D01*
X273313825Y-106746168D01*
X273313829Y-106746171D01*
X273449477Y-106819821D01*
X273449479Y-106819822D01*
X273456154Y-106823446D01*
X273463503Y-106825374D01*
X273612802Y-106864542D01*
X273612804Y-106864542D01*
X273620152Y-106866470D01*
X273706528Y-106867827D01*
X273782080Y-106869014D01*
X273782083Y-106869014D01*
X273789679Y-106869133D01*
X273797084Y-106867437D01*
X273797085Y-106867437D01*
X273868945Y-106850979D01*
X273954948Y-106831282D01*
X274106417Y-106755101D01*
X274190022Y-106683695D01*
X274229570Y-106649918D01*
X274229571Y-106649917D01*
X274235342Y-106644988D01*
X274334280Y-106507301D01*
X274343034Y-106485526D01*
X274394685Y-106357041D01*
X274394686Y-106357039D01*
X274397520Y-106349988D01*
X274410292Y-106260246D01*
X274420828Y-106186216D01*
X274420828Y-106186213D01*
X274421409Y-106182132D01*
X274421564Y-106167354D01*
X274419759Y-106152434D01*
X274408336Y-106058042D01*
X274401195Y-105999034D01*
X274344431Y-105848812D01*
X278000313Y-105848812D01*
X278018918Y-106017336D01*
X278037075Y-106066952D01*
X278066469Y-106147273D01*
X278077185Y-106176557D01*
X278081421Y-106182860D01*
X278081423Y-106182865D01*
X278149174Y-106283690D01*
X278170566Y-106351387D01*
X278151962Y-106419903D01*
X278147679Y-106426416D01*
X278106136Y-106485526D01*
X278094032Y-106502748D01*
X278032443Y-106660714D01*
X278031451Y-106668247D01*
X278031451Y-106668248D01*
X278011497Y-106819821D01*
X278010313Y-106828812D01*
X278028918Y-106997336D01*
X278049613Y-107053887D01*
X278082734Y-107144393D01*
X278087185Y-107156557D01*
X278091421Y-107162860D01*
X278091421Y-107162861D01*
X278100576Y-107176485D01*
X278181749Y-107297284D01*
X278187361Y-107302391D01*
X278187364Y-107302394D01*
X278301531Y-107406278D01*
X278301535Y-107406281D01*
X278307152Y-107411392D01*
X278313825Y-107415015D01*
X278313829Y-107415018D01*
X278449477Y-107488668D01*
X278449479Y-107488669D01*
X278456154Y-107492293D01*
X278463503Y-107494221D01*
X278612802Y-107533389D01*
X278612804Y-107533389D01*
X278620152Y-107535317D01*
X278706528Y-107536674D01*
X278782080Y-107537861D01*
X278782083Y-107537861D01*
X278789679Y-107537980D01*
X278797084Y-107536284D01*
X278797085Y-107536284D01*
X278861684Y-107521489D01*
X278954948Y-107500129D01*
X279106417Y-107423948D01*
X279192681Y-107350271D01*
X279229570Y-107318765D01*
X279229571Y-107318764D01*
X279235342Y-107313835D01*
X279334280Y-107176148D01*
X279339161Y-107164006D01*
X279394685Y-107025888D01*
X279394686Y-107025886D01*
X279397520Y-107018835D01*
X279418131Y-106874011D01*
X279420828Y-106855063D01*
X279420828Y-106855060D01*
X279421409Y-106850979D01*
X279421564Y-106836201D01*
X279421004Y-106831569D01*
X279415730Y-106787991D01*
X279401195Y-106667881D01*
X279341264Y-106509278D01*
X279335504Y-106500896D01*
X279284314Y-106426416D01*
X279273120Y-106410128D01*
X279251019Y-106342660D01*
X279268904Y-106273953D01*
X279274636Y-106265235D01*
X279305210Y-106222687D01*
X279324280Y-106196148D01*
X279327323Y-106188578D01*
X279332584Y-106175492D01*
X332120677Y-106175492D01*
X332137954Y-106331987D01*
X332192062Y-106479844D01*
X332196299Y-106486150D01*
X332196301Y-106486153D01*
X332223230Y-106526227D01*
X332279877Y-106610526D01*
X332396329Y-106716489D01*
X332417804Y-106728149D01*
X332528018Y-106787991D01*
X332528020Y-106787992D01*
X332534695Y-106791616D01*
X332542044Y-106793544D01*
X332679638Y-106829641D01*
X332679640Y-106829641D01*
X332686988Y-106831569D01*
X332770299Y-106832878D01*
X332836817Y-106833923D01*
X332836820Y-106833923D01*
X332844414Y-106834042D01*
X332997887Y-106798892D01*
X333138544Y-106728149D01*
X333193660Y-106681076D01*
X333258447Y-106652046D01*
X333328647Y-106662651D01*
X333360288Y-106683695D01*
X333390708Y-106711375D01*
X333390712Y-106711378D01*
X333396329Y-106716489D01*
X333417804Y-106728149D01*
X333528018Y-106787991D01*
X333528020Y-106787992D01*
X333534695Y-106791616D01*
X333542044Y-106793544D01*
X333679638Y-106829641D01*
X333679640Y-106829641D01*
X333686988Y-106831569D01*
X333770299Y-106832878D01*
X333836817Y-106833923D01*
X333836820Y-106833923D01*
X333844414Y-106834042D01*
X333997887Y-106798892D01*
X334004672Y-106795479D01*
X334004676Y-106795478D01*
X334048115Y-106773631D01*
X334117959Y-106760893D01*
X334183603Y-106787938D01*
X334189524Y-106793000D01*
X334196001Y-106798892D01*
X334196760Y-106799583D01*
X334233684Y-106860223D01*
X334231963Y-106931198D01*
X334194794Y-106987726D01*
X334118953Y-107053887D01*
X334114586Y-107060101D01*
X334038957Y-107167710D01*
X334028420Y-107182702D01*
X333971228Y-107329393D01*
X333969160Y-107345101D01*
X333952087Y-107474784D01*
X333950677Y-107485492D01*
X333967954Y-107641987D01*
X334022062Y-107789844D01*
X334026299Y-107796150D01*
X334026301Y-107796153D01*
X334053334Y-107836382D01*
X334109877Y-107920526D01*
X334226329Y-108026489D01*
X334264201Y-108047052D01*
X334358018Y-108097991D01*
X334358020Y-108097992D01*
X334364695Y-108101616D01*
X334372044Y-108103544D01*
X334509638Y-108139641D01*
X334509640Y-108139641D01*
X334516988Y-108141569D01*
X334600299Y-108142878D01*
X334666817Y-108143923D01*
X334666820Y-108143923D01*
X334674414Y-108144042D01*
X334827887Y-108108892D01*
X334947196Y-108048886D01*
X334950843Y-108047052D01*
X335020688Y-108034314D01*
X335067579Y-108048886D01*
X335158018Y-108097991D01*
X335158020Y-108097992D01*
X335164695Y-108101616D01*
X335172044Y-108103544D01*
X335309638Y-108139641D01*
X335309640Y-108139641D01*
X335316988Y-108141569D01*
X335400299Y-108142878D01*
X335466817Y-108143923D01*
X335466820Y-108143923D01*
X335474414Y-108144042D01*
X335627887Y-108108892D01*
X335747196Y-108048886D01*
X335750843Y-108047052D01*
X335820688Y-108034314D01*
X335867579Y-108048886D01*
X335958018Y-108097991D01*
X335958020Y-108097992D01*
X335964695Y-108101616D01*
X335972044Y-108103544D01*
X336109638Y-108139641D01*
X336109640Y-108139641D01*
X336116988Y-108141569D01*
X336200299Y-108142878D01*
X336266817Y-108143923D01*
X336266820Y-108143923D01*
X336274414Y-108144042D01*
X336427887Y-108108892D01*
X336568544Y-108038149D01*
X336604961Y-108007046D01*
X336682493Y-107940828D01*
X336682495Y-107940825D01*
X336688267Y-107935896D01*
X336780143Y-107808037D01*
X336838869Y-107661952D01*
X336848538Y-107594011D01*
X336860472Y-107510161D01*
X336860472Y-107510158D01*
X336861053Y-107506077D01*
X336861121Y-107499608D01*
X336861154Y-107496488D01*
X336861154Y-107496482D01*
X336861197Y-107492354D01*
X336842282Y-107336048D01*
X336831849Y-107308437D01*
X336789313Y-107195868D01*
X336789312Y-107195865D01*
X336786629Y-107188766D01*
X336697450Y-107059011D01*
X336635445Y-107003766D01*
X336615636Y-106986117D01*
X336578080Y-106925867D01*
X336579061Y-106854877D01*
X336617625Y-106796230D01*
X336682493Y-106740828D01*
X336682495Y-106740825D01*
X336688267Y-106735896D01*
X336780143Y-106608037D01*
X336785339Y-106595113D01*
X336810321Y-106532966D01*
X336838869Y-106461952D01*
X336851008Y-106376655D01*
X336860472Y-106310161D01*
X336860472Y-106310158D01*
X336861053Y-106306077D01*
X336861197Y-106292354D01*
X336857810Y-106264361D01*
X336854136Y-106234006D01*
X336842282Y-106136048D01*
X336808214Y-106045888D01*
X336789313Y-105995868D01*
X336789312Y-105995865D01*
X336786629Y-105988766D01*
X336697450Y-105859011D01*
X336615636Y-105786117D01*
X336578080Y-105725867D01*
X336579061Y-105654877D01*
X336617625Y-105596230D01*
X336682493Y-105540828D01*
X336682495Y-105540825D01*
X336688267Y-105535896D01*
X336780143Y-105408037D01*
X336838869Y-105261952D01*
X336848424Y-105194813D01*
X336860472Y-105110161D01*
X336860472Y-105110158D01*
X336861053Y-105106077D01*
X336861197Y-105092354D01*
X336860588Y-105087317D01*
X336855423Y-105044641D01*
X336842282Y-104936048D01*
X336807948Y-104845185D01*
X336789313Y-104795868D01*
X336789312Y-104795865D01*
X336786629Y-104788766D01*
X336697450Y-104659011D01*
X336585679Y-104559426D01*
X336585567Y-104559326D01*
X336585564Y-104559324D01*
X336579895Y-104554273D01*
X336440750Y-104480599D01*
X336417910Y-104474862D01*
X336295417Y-104444094D01*
X336295415Y-104444094D01*
X336288047Y-104442243D01*
X336280449Y-104442203D01*
X336280447Y-104442203D01*
X336213238Y-104441851D01*
X336130603Y-104441419D01*
X336123224Y-104443191D01*
X336123220Y-104443191D01*
X335984886Y-104476402D01*
X335984882Y-104476403D01*
X335977507Y-104478174D01*
X335837598Y-104550386D01*
X335738361Y-104636957D01*
X335673882Y-104666663D01*
X335603574Y-104656794D01*
X335571715Y-104636082D01*
X335485567Y-104559326D01*
X335485564Y-104559324D01*
X335479895Y-104554273D01*
X335340750Y-104480599D01*
X335317910Y-104474862D01*
X335195417Y-104444094D01*
X335195415Y-104444094D01*
X335188047Y-104442243D01*
X335180449Y-104442203D01*
X335180447Y-104442203D01*
X335113238Y-104441851D01*
X335030603Y-104441419D01*
X335023224Y-104443191D01*
X335023220Y-104443191D01*
X334884886Y-104476402D01*
X334884882Y-104476403D01*
X334877507Y-104478174D01*
X334737598Y-104550386D01*
X334731878Y-104555376D01*
X334731874Y-104555379D01*
X334624678Y-104648892D01*
X334624675Y-104648895D01*
X334618953Y-104653887D01*
X334609974Y-104666663D01*
X334555743Y-104743826D01*
X334528420Y-104782702D01*
X334471228Y-104929393D01*
X334470237Y-104936922D01*
X334455476Y-105049042D01*
X334450677Y-105085492D01*
X334467954Y-105241987D01*
X334522062Y-105389844D01*
X334526299Y-105396150D01*
X334526301Y-105396153D01*
X334567702Y-105457763D01*
X334589095Y-105525460D01*
X334570491Y-105593976D01*
X334517798Y-105641557D01*
X334492535Y-105650558D01*
X334384887Y-105676402D01*
X334384885Y-105676403D01*
X334377507Y-105678174D01*
X334370765Y-105681654D01*
X334370759Y-105681656D01*
X334334428Y-105700408D01*
X334264721Y-105713877D01*
X334198798Y-105687521D01*
X334192820Y-105682518D01*
X334155567Y-105649326D01*
X334155564Y-105649324D01*
X334149895Y-105644273D01*
X334119016Y-105627923D01*
X334053128Y-105593037D01*
X334010750Y-105570599D01*
X333973144Y-105561153D01*
X333865417Y-105534094D01*
X333865415Y-105534094D01*
X333858047Y-105532243D01*
X333850449Y-105532203D01*
X333850447Y-105532203D01*
X333783238Y-105531851D01*
X333700603Y-105531419D01*
X333693224Y-105533191D01*
X333693220Y-105533191D01*
X333554886Y-105566402D01*
X333554882Y-105566403D01*
X333547507Y-105568174D01*
X333540762Y-105571655D01*
X333540763Y-105571655D01*
X333426576Y-105630591D01*
X333407598Y-105640386D01*
X333401876Y-105645378D01*
X333401874Y-105645379D01*
X333358891Y-105682876D01*
X333294409Y-105712584D01*
X333224102Y-105702715D01*
X333192244Y-105682004D01*
X333155567Y-105649326D01*
X333155564Y-105649324D01*
X333149895Y-105644273D01*
X333119016Y-105627923D01*
X333053128Y-105593037D01*
X333010750Y-105570599D01*
X332973144Y-105561153D01*
X332865417Y-105534094D01*
X332865415Y-105534094D01*
X332858047Y-105532243D01*
X332850449Y-105532203D01*
X332850447Y-105532203D01*
X332783238Y-105531851D01*
X332700603Y-105531419D01*
X332693224Y-105533191D01*
X332693220Y-105533191D01*
X332554886Y-105566402D01*
X332554882Y-105566403D01*
X332547507Y-105568174D01*
X332540762Y-105571655D01*
X332540763Y-105571655D01*
X332426576Y-105630591D01*
X332407598Y-105640386D01*
X332401876Y-105645378D01*
X332401874Y-105645379D01*
X332294678Y-105738892D01*
X332294675Y-105738895D01*
X332288953Y-105743887D01*
X332252951Y-105795113D01*
X332203643Y-105865271D01*
X332198420Y-105872702D01*
X332141228Y-106019393D01*
X332138312Y-106041540D01*
X332123713Y-106152434D01*
X332120677Y-106175492D01*
X279332584Y-106175492D01*
X279384685Y-106045888D01*
X279384686Y-106045886D01*
X279387520Y-106038835D01*
X279408077Y-105894393D01*
X279410828Y-105875063D01*
X279410828Y-105875060D01*
X279411409Y-105870979D01*
X279411564Y-105856201D01*
X279409759Y-105841281D01*
X279404547Y-105798214D01*
X279391195Y-105687881D01*
X279331264Y-105529278D01*
X279315242Y-105505966D01*
X279239533Y-105395809D01*
X279239532Y-105395808D01*
X279235231Y-105389550D01*
X279209225Y-105366379D01*
X279114311Y-105281813D01*
X279114307Y-105281811D01*
X279108640Y-105276761D01*
X279093994Y-105269006D01*
X279040999Y-105240947D01*
X278958800Y-105197425D01*
X278794360Y-105156120D01*
X278786762Y-105156080D01*
X278786760Y-105156080D01*
X278709587Y-105155676D01*
X278624814Y-105155232D01*
X278617427Y-105157006D01*
X278617423Y-105157006D01*
X278474081Y-105191421D01*
X278459951Y-105194813D01*
X278453207Y-105198294D01*
X278453204Y-105198295D01*
X278316205Y-105269006D01*
X278309288Y-105272576D01*
X278181523Y-105384032D01*
X278177156Y-105390246D01*
X278088973Y-105515718D01*
X278084032Y-105522748D01*
X278022443Y-105680714D01*
X278021451Y-105688247D01*
X278021451Y-105688248D01*
X278001344Y-105840981D01*
X278000313Y-105848812D01*
X274344431Y-105848812D01*
X274341264Y-105840431D01*
X274303935Y-105786117D01*
X274249533Y-105706962D01*
X274249532Y-105706961D01*
X274245231Y-105700703D01*
X274236572Y-105692988D01*
X274124311Y-105592966D01*
X274124307Y-105592964D01*
X274118640Y-105587914D01*
X274056182Y-105554844D01*
X274015286Y-105533191D01*
X273968800Y-105508578D01*
X273804360Y-105467273D01*
X273796762Y-105467233D01*
X273796760Y-105467233D01*
X273719587Y-105466829D01*
X273634814Y-105466385D01*
X273627427Y-105468159D01*
X273627423Y-105468159D01*
X273484081Y-105502574D01*
X273469951Y-105505966D01*
X273463207Y-105509447D01*
X273463204Y-105509448D01*
X273342681Y-105571655D01*
X273319288Y-105583729D01*
X273313566Y-105588721D01*
X273313564Y-105588722D01*
X273253960Y-105640718D01*
X273191523Y-105695185D01*
X273152727Y-105750386D01*
X273101589Y-105823149D01*
X273094032Y-105833901D01*
X273032443Y-105991867D01*
X273031451Y-105999400D01*
X273031451Y-105999401D01*
X273011984Y-106147273D01*
X273010313Y-106159965D01*
X251554888Y-106159965D01*
X251504360Y-106147273D01*
X251496762Y-106147233D01*
X251496760Y-106147233D01*
X251419587Y-106146829D01*
X251334814Y-106146385D01*
X251327427Y-106148159D01*
X251327423Y-106148159D01*
X251213577Y-106175492D01*
X251169951Y-106185966D01*
X251163207Y-106189447D01*
X251163204Y-106189448D01*
X251105123Y-106219426D01*
X251019288Y-106263729D01*
X251013566Y-106268721D01*
X251013564Y-106268722D01*
X250986474Y-106292354D01*
X250891523Y-106375185D01*
X250887156Y-106381399D01*
X250798671Y-106507301D01*
X250794032Y-106513901D01*
X250732443Y-106671867D01*
X250731451Y-106679400D01*
X250731451Y-106679401D01*
X250711372Y-106831922D01*
X250710313Y-106839965D01*
X226809238Y-106839965D01*
X226783818Y-106817317D01*
X226735567Y-106774326D01*
X226735564Y-106774324D01*
X226729895Y-106769273D01*
X226590750Y-106695599D01*
X226554820Y-106686574D01*
X226445417Y-106659094D01*
X226445415Y-106659094D01*
X226438047Y-106657243D01*
X226430449Y-106657203D01*
X226430447Y-106657203D01*
X226363238Y-106656851D01*
X226280603Y-106656419D01*
X226273224Y-106658191D01*
X226273220Y-106658191D01*
X226134886Y-106691402D01*
X226134882Y-106691403D01*
X226127507Y-106693174D01*
X226059744Y-106728149D01*
X226035179Y-106740828D01*
X225987598Y-106765386D01*
X225981876Y-106770378D01*
X225981874Y-106770379D01*
X225874678Y-106863892D01*
X225874675Y-106863895D01*
X225868953Y-106868887D01*
X225830188Y-106924043D01*
X225783983Y-106989787D01*
X225778420Y-106997702D01*
X225721228Y-107144393D01*
X225715579Y-107187301D01*
X225701907Y-107291153D01*
X225700677Y-107300492D01*
X217031166Y-107300492D01*
X217088869Y-107156952D01*
X217103537Y-107053887D01*
X217110472Y-107005161D01*
X217110472Y-107005158D01*
X217111053Y-107001077D01*
X217111197Y-106987354D01*
X217092282Y-106831048D01*
X217080131Y-106798892D01*
X217039313Y-106690868D01*
X217039312Y-106690865D01*
X217036629Y-106683766D01*
X216947450Y-106554011D01*
X216871288Y-106486153D01*
X216835567Y-106454326D01*
X216835564Y-106454324D01*
X216829895Y-106449273D01*
X216690750Y-106375599D01*
X216652495Y-106365990D01*
X216545417Y-106339094D01*
X216545415Y-106339094D01*
X216538047Y-106337243D01*
X216530449Y-106337203D01*
X216530447Y-106337203D01*
X216463238Y-106336851D01*
X216380603Y-106336419D01*
X216373224Y-106338191D01*
X216373220Y-106338191D01*
X216234886Y-106371402D01*
X216234882Y-106371403D01*
X216227507Y-106373174D01*
X216087598Y-106445386D01*
X216081876Y-106450378D01*
X216081874Y-106450379D01*
X215974678Y-106543892D01*
X215974675Y-106543895D01*
X215968953Y-106548887D01*
X215964586Y-106555101D01*
X215884970Y-106668383D01*
X215878420Y-106677702D01*
X215821228Y-106824393D01*
X215815338Y-106869133D01*
X215804129Y-106954273D01*
X215800677Y-106980492D01*
X200506419Y-106980492D01*
X200506419Y-106050492D01*
X218780677Y-106050492D01*
X218797954Y-106206987D01*
X218852062Y-106354844D01*
X218856299Y-106361150D01*
X218856301Y-106361153D01*
X218869906Y-106381399D01*
X218939877Y-106485526D01*
X218964228Y-106507684D01*
X219049263Y-106585059D01*
X219056329Y-106591489D01*
X219091391Y-106610526D01*
X219188018Y-106662991D01*
X219188020Y-106662992D01*
X219194695Y-106666616D01*
X219202044Y-106668544D01*
X219339638Y-106704641D01*
X219339640Y-106704641D01*
X219346988Y-106706569D01*
X219430299Y-106707878D01*
X219496817Y-106708923D01*
X219496820Y-106708923D01*
X219504414Y-106709042D01*
X219657887Y-106673892D01*
X219798544Y-106603149D01*
X219887078Y-106527534D01*
X219912493Y-106505828D01*
X219912495Y-106505825D01*
X219918267Y-106500896D01*
X220010143Y-106373037D01*
X220068869Y-106226952D01*
X220091053Y-106071077D01*
X220091197Y-106057354D01*
X220089810Y-106045888D01*
X220086264Y-106016589D01*
X220072282Y-105901048D01*
X220055336Y-105856201D01*
X220019313Y-105760868D01*
X220019312Y-105760865D01*
X220016629Y-105753766D01*
X219927450Y-105624011D01*
X219867502Y-105570599D01*
X219815567Y-105524326D01*
X219815564Y-105524324D01*
X219809895Y-105519273D01*
X219670750Y-105445599D01*
X219646174Y-105439426D01*
X219525417Y-105409094D01*
X219525415Y-105409094D01*
X219518047Y-105407243D01*
X219510449Y-105407203D01*
X219510447Y-105407203D01*
X219443238Y-105406851D01*
X219360603Y-105406419D01*
X219353224Y-105408191D01*
X219353220Y-105408191D01*
X219214886Y-105441402D01*
X219214882Y-105441403D01*
X219207507Y-105443174D01*
X219067598Y-105515386D01*
X219061876Y-105520378D01*
X219061874Y-105520379D01*
X218954678Y-105613892D01*
X218954675Y-105613895D01*
X218948953Y-105618887D01*
X218930334Y-105645379D01*
X218863745Y-105740126D01*
X218858420Y-105747702D01*
X218801228Y-105894393D01*
X218797246Y-105924641D01*
X218781856Y-106041540D01*
X218780677Y-106050492D01*
X200506419Y-106050492D01*
X200506419Y-105309965D01*
X229200313Y-105309965D01*
X229218918Y-105478489D01*
X229238575Y-105532203D01*
X229274463Y-105630271D01*
X229277185Y-105637710D01*
X229281421Y-105644013D01*
X229281421Y-105644014D01*
X229294493Y-105663467D01*
X229371749Y-105778437D01*
X229377361Y-105783544D01*
X229377364Y-105783547D01*
X229491531Y-105887431D01*
X229491535Y-105887434D01*
X229497152Y-105892545D01*
X229503825Y-105896168D01*
X229503829Y-105896171D01*
X229639477Y-105969821D01*
X229639479Y-105969822D01*
X229646154Y-105973446D01*
X229653503Y-105975374D01*
X229802802Y-106014542D01*
X229802804Y-106014542D01*
X229810152Y-106016470D01*
X229896528Y-106017827D01*
X229972080Y-106019014D01*
X229972083Y-106019014D01*
X229979679Y-106019133D01*
X229987084Y-106017437D01*
X229987085Y-106017437D01*
X230081261Y-105995868D01*
X230144948Y-105981282D01*
X230296417Y-105905101D01*
X230425342Y-105794988D01*
X230524280Y-105657301D01*
X230532480Y-105636903D01*
X230584685Y-105507041D01*
X230584686Y-105507039D01*
X230587520Y-105499988D01*
X230603237Y-105389550D01*
X230610828Y-105336216D01*
X230610828Y-105336213D01*
X230611409Y-105332132D01*
X230611564Y-105317354D01*
X230609759Y-105302434D01*
X230603472Y-105250492D01*
X245960677Y-105250492D01*
X245977954Y-105406987D01*
X246032062Y-105554844D01*
X246036299Y-105561150D01*
X246036301Y-105561153D01*
X246059872Y-105596230D01*
X246119877Y-105685526D01*
X246236329Y-105791489D01*
X246264090Y-105806562D01*
X246368018Y-105862991D01*
X246368020Y-105862992D01*
X246374695Y-105866616D01*
X246382044Y-105868544D01*
X246519638Y-105904641D01*
X246519640Y-105904641D01*
X246526988Y-105906569D01*
X246610299Y-105907878D01*
X246676817Y-105908923D01*
X246676820Y-105908923D01*
X246684414Y-105909042D01*
X246837887Y-105873892D01*
X246978544Y-105803149D01*
X247037795Y-105752544D01*
X247102584Y-105723513D01*
X247172784Y-105734118D01*
X247204424Y-105755161D01*
X247260708Y-105806375D01*
X247260712Y-105806378D01*
X247266329Y-105811489D01*
X247307607Y-105833901D01*
X247398018Y-105882991D01*
X247398020Y-105882992D01*
X247404695Y-105886616D01*
X247412044Y-105888544D01*
X247549638Y-105924641D01*
X247549640Y-105924641D01*
X247556988Y-105926569D01*
X247640299Y-105927878D01*
X247706817Y-105928923D01*
X247706820Y-105928923D01*
X247714414Y-105929042D01*
X247867887Y-105893892D01*
X248008544Y-105823149D01*
X248045613Y-105791489D01*
X248122493Y-105725828D01*
X248122495Y-105725825D01*
X248128267Y-105720896D01*
X248220143Y-105593037D01*
X248278869Y-105446952D01*
X248288012Y-105382708D01*
X248300472Y-105295161D01*
X248300472Y-105295158D01*
X248301053Y-105291077D01*
X248301121Y-105284608D01*
X248301154Y-105281488D01*
X248301154Y-105281482D01*
X248301197Y-105277354D01*
X248282282Y-105121048D01*
X248272210Y-105094393D01*
X248229313Y-104980868D01*
X248229312Y-104980865D01*
X248226629Y-104973766D01*
X248137450Y-104844011D01*
X248075445Y-104788766D01*
X248025567Y-104744326D01*
X248025564Y-104744324D01*
X248019895Y-104739273D01*
X247880750Y-104665599D01*
X247864041Y-104661402D01*
X247735417Y-104629094D01*
X247735415Y-104629094D01*
X247728047Y-104627243D01*
X247720449Y-104627203D01*
X247720447Y-104627203D01*
X247653238Y-104626851D01*
X247570603Y-104626419D01*
X247563224Y-104628191D01*
X247563220Y-104628191D01*
X247424886Y-104661402D01*
X247424882Y-104661403D01*
X247417507Y-104663174D01*
X247405923Y-104669153D01*
X247287557Y-104730246D01*
X247277598Y-104735386D01*
X247230486Y-104776485D01*
X247225074Y-104781206D01*
X247160591Y-104810913D01*
X247090284Y-104801043D01*
X247058426Y-104780332D01*
X246995567Y-104724326D01*
X246995564Y-104724324D01*
X246989895Y-104719273D01*
X246850750Y-104645599D01*
X246834041Y-104641402D01*
X246705417Y-104609094D01*
X246705415Y-104609094D01*
X246698047Y-104607243D01*
X246690449Y-104607203D01*
X246690447Y-104607203D01*
X246623238Y-104606851D01*
X246540603Y-104606419D01*
X246533224Y-104608191D01*
X246533220Y-104608191D01*
X246394886Y-104641402D01*
X246394882Y-104641403D01*
X246387507Y-104643174D01*
X246344695Y-104665271D01*
X246265803Y-104705990D01*
X246247598Y-104715386D01*
X246241876Y-104720378D01*
X246241874Y-104720379D01*
X246134678Y-104813892D01*
X246134675Y-104813895D01*
X246128953Y-104818887D01*
X246094027Y-104868582D01*
X246046611Y-104936048D01*
X246038420Y-104947702D01*
X245981228Y-105094393D01*
X245974978Y-105141867D01*
X245961797Y-105241987D01*
X245960677Y-105250492D01*
X230603472Y-105250492D01*
X230602561Y-105242961D01*
X230591195Y-105149034D01*
X230540129Y-105013892D01*
X230533948Y-104997534D01*
X230531264Y-104990431D01*
X230526776Y-104983901D01*
X230439533Y-104856962D01*
X230439532Y-104856961D01*
X230435231Y-104850703D01*
X230417305Y-104834731D01*
X230314311Y-104742966D01*
X230314307Y-104742964D01*
X230308640Y-104737914D01*
X230297288Y-104731903D01*
X230213817Y-104687708D01*
X230158800Y-104658578D01*
X229994360Y-104617273D01*
X229986762Y-104617233D01*
X229986760Y-104617233D01*
X229909587Y-104616829D01*
X229824814Y-104616385D01*
X229817427Y-104618159D01*
X229817423Y-104618159D01*
X229674081Y-104652574D01*
X229659951Y-104655966D01*
X229653207Y-104659447D01*
X229653204Y-104659448D01*
X229537296Y-104719273D01*
X229509288Y-104733729D01*
X229503566Y-104738721D01*
X229503564Y-104738722D01*
X229455866Y-104780332D01*
X229381523Y-104845185D01*
X229363946Y-104870195D01*
X229304496Y-104954784D01*
X229284032Y-104983901D01*
X229222443Y-105141867D01*
X229221451Y-105149400D01*
X229221451Y-105149401D01*
X229202800Y-105291077D01*
X229200313Y-105309965D01*
X200506419Y-105309965D01*
X200506419Y-104567354D01*
X272250237Y-104567354D01*
X272270875Y-104724116D01*
X272331383Y-104870195D01*
X272427637Y-104995636D01*
X272553078Y-105091890D01*
X272699157Y-105152398D01*
X272707345Y-105153476D01*
X272730877Y-105156574D01*
X272855919Y-105173036D01*
X272864107Y-105171958D01*
X273004493Y-105153476D01*
X273012681Y-105152398D01*
X273158760Y-105091890D01*
X273284201Y-104995636D01*
X273380455Y-104870195D01*
X273440963Y-104724116D01*
X273461601Y-104567354D01*
X273440963Y-104410592D01*
X273380455Y-104264513D01*
X273284201Y-104139072D01*
X273158760Y-104042818D01*
X273012681Y-103982310D01*
X272855919Y-103961672D01*
X272699157Y-103982310D01*
X272553078Y-104042818D01*
X272427637Y-104139072D01*
X272331383Y-104264513D01*
X272270875Y-104410592D01*
X272250237Y-104567354D01*
X200506419Y-104567354D01*
X200506419Y-103812004D01*
X276034434Y-103812004D01*
X276055072Y-103968766D01*
X276115580Y-104114845D01*
X276127205Y-104129995D01*
X276201883Y-104227317D01*
X276211834Y-104240286D01*
X276337275Y-104336540D01*
X276483354Y-104397048D01*
X276640116Y-104417686D01*
X276648304Y-104416608D01*
X276664818Y-104414434D01*
X276796878Y-104397048D01*
X276812706Y-104390492D01*
X278870677Y-104390492D01*
X278887954Y-104546987D01*
X278942062Y-104694844D01*
X278946299Y-104701150D01*
X278946301Y-104701153D01*
X278968192Y-104733729D01*
X279029877Y-104825526D01*
X279146329Y-104931489D01*
X279189233Y-104954784D01*
X279278018Y-105002991D01*
X279278020Y-105002992D01*
X279284695Y-105006616D01*
X279292044Y-105008544D01*
X279429638Y-105044641D01*
X279429640Y-105044641D01*
X279436988Y-105046569D01*
X279520299Y-105047878D01*
X279586817Y-105048923D01*
X279586820Y-105048923D01*
X279594414Y-105049042D01*
X279747887Y-105013892D01*
X279888544Y-104943149D01*
X279968800Y-104874604D01*
X280002493Y-104845828D01*
X280002495Y-104845825D01*
X280008267Y-104840896D01*
X280100143Y-104713037D01*
X280108891Y-104691277D01*
X280156033Y-104574006D01*
X280158869Y-104566952D01*
X280176483Y-104443191D01*
X280180472Y-104415161D01*
X280180472Y-104415158D01*
X280181053Y-104411077D01*
X280181197Y-104397354D01*
X280162282Y-104241048D01*
X280118990Y-104126478D01*
X280109313Y-104100868D01*
X280109312Y-104100865D01*
X280106629Y-104093766D01*
X280017450Y-103964011D01*
X279960064Y-103912882D01*
X279905567Y-103864326D01*
X279905564Y-103864324D01*
X279899895Y-103859273D01*
X279767814Y-103789339D01*
X283710677Y-103789339D01*
X283727954Y-103945834D01*
X283782062Y-104093691D01*
X283786299Y-104099997D01*
X283786301Y-104100000D01*
X283812557Y-104139072D01*
X283869877Y-104224373D01*
X283986329Y-104330336D01*
X284007804Y-104341996D01*
X284118018Y-104401838D01*
X284118020Y-104401839D01*
X284124695Y-104405463D01*
X284132044Y-104407391D01*
X284269638Y-104443488D01*
X284269640Y-104443488D01*
X284276988Y-104445416D01*
X284360299Y-104446725D01*
X284426817Y-104447770D01*
X284426820Y-104447770D01*
X284434414Y-104447889D01*
X284587887Y-104412739D01*
X284728544Y-104341996D01*
X284775467Y-104301920D01*
X284842493Y-104244675D01*
X284842495Y-104244672D01*
X284848267Y-104239743D01*
X284940143Y-104111884D01*
X284944572Y-104100868D01*
X284969178Y-104039658D01*
X284998869Y-103965799D01*
X285019592Y-103820192D01*
X285020472Y-103814008D01*
X285020472Y-103814005D01*
X285021053Y-103809924D01*
X285021197Y-103796201D01*
X285002651Y-103642947D01*
X363745725Y-103642947D01*
X363745872Y-103646457D01*
X363745872Y-103646463D01*
X363747586Y-103687354D01*
X363760081Y-103985470D01*
X363760594Y-103997717D01*
X363814917Y-104348618D01*
X363815839Y-104352010D01*
X363815839Y-104352012D01*
X363840857Y-104444094D01*
X363908015Y-104691277D01*
X363951474Y-104801043D01*
X364033630Y-105008544D01*
X364038729Y-105021423D01*
X364040375Y-105024519D01*
X364040377Y-105024523D01*
X364196079Y-105317354D01*
X364205430Y-105334941D01*
X364207415Y-105337840D01*
X364404048Y-105625016D01*
X364404053Y-105625022D01*
X364406039Y-105627923D01*
X364638056Y-105896718D01*
X364640626Y-105899098D01*
X364640630Y-105899102D01*
X364717000Y-105969821D01*
X364898589Y-106137974D01*
X364901411Y-106140055D01*
X364901414Y-106140057D01*
X364949477Y-106175492D01*
X365184392Y-106348686D01*
X365187429Y-106350440D01*
X365187433Y-106350442D01*
X365285798Y-106407233D01*
X365491901Y-106526227D01*
X365497612Y-106528722D01*
X365814062Y-106666976D01*
X365814072Y-106666980D01*
X365817284Y-106668383D01*
X365820641Y-106669422D01*
X365820646Y-106669424D01*
X366153125Y-106772343D01*
X366156485Y-106773383D01*
X366505277Y-106839919D01*
X366702095Y-106855063D01*
X366855815Y-106866891D01*
X366855816Y-106866891D01*
X366859312Y-106867160D01*
X367074167Y-106859657D01*
X367210661Y-106854891D01*
X367210666Y-106854891D01*
X367214176Y-106854768D01*
X367217657Y-106854254D01*
X367561956Y-106803413D01*
X367561962Y-106803412D01*
X367565448Y-106802897D01*
X367568852Y-106801998D01*
X367568855Y-106801997D01*
X367905358Y-106713089D01*
X367905359Y-106713089D01*
X367908749Y-106712193D01*
X368239799Y-106583787D01*
X368554473Y-106419279D01*
X368848849Y-106220721D01*
X368856607Y-106214119D01*
X369116584Y-105992861D01*
X369116585Y-105992860D01*
X369119257Y-105990586D01*
X369121652Y-105988036D01*
X369121660Y-105988028D01*
X369359915Y-105734311D01*
X369359919Y-105734306D01*
X369362326Y-105731743D01*
X369364431Y-105728929D01*
X369364437Y-105728922D01*
X369560175Y-105467273D01*
X369575028Y-105447418D01*
X369578558Y-105441402D01*
X369752929Y-105144194D01*
X369752932Y-105144189D01*
X369754711Y-105141156D01*
X369796824Y-105046569D01*
X369897704Y-104819990D01*
X369897706Y-104819985D01*
X369899136Y-104816773D01*
X370006502Y-104478313D01*
X370075471Y-104129995D01*
X370098204Y-103859273D01*
X370105000Y-103778343D01*
X370105001Y-103778332D01*
X370105183Y-103776159D01*
X370105588Y-103747203D01*
X370106393Y-103689532D01*
X370106393Y-103689520D01*
X370106423Y-103687354D01*
X370105086Y-103663430D01*
X370088281Y-103362858D01*
X370086602Y-103332827D01*
X370079144Y-103288731D01*
X370027974Y-102986199D01*
X370027973Y-102986195D01*
X370027385Y-102982718D01*
X370021037Y-102960578D01*
X369987928Y-102845113D01*
X369929512Y-102641392D01*
X369864642Y-102484006D01*
X369795539Y-102316349D01*
X369795535Y-102316342D01*
X369794201Y-102313104D01*
X369623139Y-102001944D01*
X369418459Y-101711791D01*
X369182712Y-101446262D01*
X369135655Y-101403892D01*
X368921453Y-101211023D01*
X368921450Y-101211021D01*
X368918835Y-101208666D01*
X368915982Y-101206624D01*
X368915974Y-101206617D01*
X368632985Y-101004018D01*
X368632978Y-101004014D01*
X368630118Y-101001966D01*
X368320160Y-100828736D01*
X367992824Y-100691137D01*
X367969683Y-100684326D01*
X367851691Y-100649599D01*
X367652190Y-100590882D01*
X367648734Y-100590273D01*
X367648727Y-100590271D01*
X367398518Y-100546153D01*
X367302503Y-100529223D01*
X367298994Y-100529002D01*
X367298992Y-100529002D01*
X366951641Y-100507149D01*
X366951635Y-100507149D01*
X366948123Y-100506928D01*
X366865529Y-100510967D01*
X366596973Y-100524101D01*
X366596964Y-100524102D01*
X366593466Y-100524273D01*
X366589998Y-100524835D01*
X366589995Y-100524835D01*
X366246427Y-100580481D01*
X366246424Y-100580482D01*
X366242952Y-100581044D01*
X366239565Y-100581990D01*
X366239559Y-100581991D01*
X366060727Y-100631922D01*
X365900952Y-100676532D01*
X365753677Y-100736035D01*
X365574990Y-100808229D01*
X365574986Y-100808231D01*
X365571726Y-100809548D01*
X365568639Y-100811217D01*
X365568635Y-100811219D01*
X365527999Y-100833191D01*
X365259380Y-100978433D01*
X364967805Y-101181083D01*
X364965163Y-101183396D01*
X364965159Y-101183399D01*
X364801180Y-101326952D01*
X364700637Y-101414971D01*
X364698262Y-101417572D01*
X364540275Y-101590590D01*
X364461205Y-101677182D01*
X364252494Y-101964449D01*
X364250752Y-101967515D01*
X364250751Y-101967517D01*
X364221760Y-102018551D01*
X364077104Y-102273190D01*
X364009498Y-102430928D01*
X363977498Y-102505590D01*
X363937223Y-102599558D01*
X363902170Y-102715659D01*
X363837209Y-102930821D01*
X363834593Y-102939484D01*
X363811845Y-103063430D01*
X363776765Y-103254565D01*
X363770494Y-103288731D01*
X363745725Y-103642947D01*
X285002651Y-103642947D01*
X285002282Y-103639895D01*
X284952147Y-103507215D01*
X284949313Y-103499715D01*
X284949312Y-103499712D01*
X284946629Y-103492613D01*
X284857450Y-103362858D01*
X284770355Y-103285259D01*
X284745567Y-103263173D01*
X284745564Y-103263171D01*
X284739895Y-103258120D01*
X284600750Y-103184446D01*
X284584041Y-103180249D01*
X284455417Y-103147941D01*
X284455415Y-103147941D01*
X284448047Y-103146090D01*
X284440449Y-103146050D01*
X284440447Y-103146050D01*
X284373238Y-103145698D01*
X284290603Y-103145266D01*
X284283224Y-103147038D01*
X284283220Y-103147038D01*
X284144886Y-103180249D01*
X284144882Y-103180250D01*
X284137507Y-103182021D01*
X283997598Y-103254233D01*
X283991876Y-103259225D01*
X283991874Y-103259226D01*
X283884678Y-103352739D01*
X283884675Y-103352742D01*
X283878953Y-103357734D01*
X283788420Y-103486549D01*
X283731228Y-103633240D01*
X283727253Y-103663430D01*
X283711722Y-103781402D01*
X283710677Y-103789339D01*
X279767814Y-103789339D01*
X279760750Y-103785599D01*
X279751096Y-103783174D01*
X279615417Y-103749094D01*
X279615415Y-103749094D01*
X279608047Y-103747243D01*
X279600449Y-103747203D01*
X279600447Y-103747203D01*
X279533238Y-103746851D01*
X279450603Y-103746419D01*
X279443224Y-103748191D01*
X279443220Y-103748191D01*
X279304886Y-103781402D01*
X279304882Y-103781403D01*
X279297507Y-103783174D01*
X279157598Y-103855386D01*
X279151876Y-103860378D01*
X279151874Y-103860379D01*
X279044678Y-103953892D01*
X279044675Y-103953895D01*
X279038953Y-103958887D01*
X278948420Y-104087702D01*
X278891228Y-104234393D01*
X278889791Y-104245309D01*
X278877062Y-104341996D01*
X278870677Y-104390492D01*
X276812706Y-104390492D01*
X276942957Y-104336540D01*
X277068398Y-104240286D01*
X277078350Y-104227317D01*
X277153027Y-104129995D01*
X277164652Y-104114845D01*
X277225160Y-103968766D01*
X277232517Y-103912881D01*
X277261239Y-103847954D01*
X277320504Y-103808862D01*
X277340991Y-103804406D01*
X277396878Y-103797048D01*
X277542957Y-103736540D01*
X277668398Y-103640286D01*
X277764652Y-103514845D01*
X277825160Y-103368766D01*
X277845798Y-103212004D01*
X277825160Y-103055242D01*
X277764652Y-102909163D01*
X277692608Y-102815273D01*
X277673421Y-102790268D01*
X277668398Y-102783722D01*
X277542957Y-102687468D01*
X277396878Y-102626960D01*
X277367080Y-102623037D01*
X277274989Y-102610913D01*
X277210062Y-102582191D01*
X277175026Y-102534208D01*
X277172087Y-102527112D01*
X277164652Y-102509163D01*
X277068398Y-102383722D01*
X277040946Y-102362657D01*
X277027062Y-102352004D01*
X276942957Y-102287468D01*
X276930611Y-102282354D01*
X331270237Y-102282354D01*
X331290875Y-102439116D01*
X331294035Y-102446745D01*
X331298277Y-102456987D01*
X331351383Y-102585195D01*
X331385855Y-102630120D01*
X331433300Y-102691951D01*
X331447637Y-102710636D01*
X331573078Y-102806890D01*
X331719157Y-102867398D01*
X331875919Y-102888036D01*
X331884107Y-102886958D01*
X332024493Y-102868476D01*
X332032681Y-102867398D01*
X332165202Y-102812506D01*
X332235790Y-102804917D01*
X332261634Y-102812505D01*
X332394157Y-102867398D01*
X332550919Y-102888036D01*
X332559107Y-102886958D01*
X332699493Y-102868476D01*
X332707681Y-102867398D01*
X332715308Y-102864239D01*
X332715311Y-102864238D01*
X332815201Y-102822862D01*
X332885791Y-102815273D01*
X332911637Y-102822862D01*
X333011527Y-102864238D01*
X333011530Y-102864239D01*
X333019157Y-102867398D01*
X333175919Y-102888036D01*
X333184107Y-102886958D01*
X333324493Y-102868476D01*
X333332681Y-102867398D01*
X333478760Y-102806890D01*
X333604201Y-102710636D01*
X333618539Y-102691951D01*
X333665983Y-102630120D01*
X333700455Y-102585195D01*
X333753561Y-102456987D01*
X333757803Y-102446745D01*
X333760963Y-102439116D01*
X333781601Y-102282354D01*
X333766679Y-102169009D01*
X333777618Y-102098860D01*
X333824747Y-102045762D01*
X333834985Y-102039999D01*
X333851754Y-102031565D01*
X333851760Y-102031561D01*
X333858544Y-102028149D01*
X333906556Y-101987143D01*
X333972493Y-101930828D01*
X333972495Y-101930825D01*
X333978267Y-101925896D01*
X334070143Y-101798037D01*
X334082066Y-101768379D01*
X334098719Y-101726952D01*
X334128869Y-101651952D01*
X334141744Y-101561488D01*
X334150472Y-101500161D01*
X334150472Y-101500158D01*
X334151053Y-101496077D01*
X334151197Y-101482354D01*
X334150201Y-101474119D01*
X334144815Y-101429615D01*
X334132282Y-101326048D01*
X334102678Y-101247702D01*
X334079313Y-101185868D01*
X334079312Y-101185865D01*
X334076629Y-101178766D01*
X333987450Y-101049011D01*
X333932716Y-101000245D01*
X333875567Y-100949326D01*
X333875564Y-100949324D01*
X333869895Y-100944273D01*
X333730750Y-100870599D01*
X333698968Y-100862616D01*
X333585417Y-100834094D01*
X333585415Y-100834094D01*
X333578047Y-100832243D01*
X333570449Y-100832203D01*
X333570447Y-100832203D01*
X333503238Y-100831851D01*
X333420603Y-100831419D01*
X333413224Y-100833191D01*
X333413220Y-100833191D01*
X333274886Y-100866402D01*
X333274882Y-100866403D01*
X333267507Y-100868174D01*
X333127598Y-100940386D01*
X333121876Y-100945378D01*
X333121874Y-100945379D01*
X333014678Y-101038892D01*
X333014675Y-101038895D01*
X333008953Y-101043887D01*
X333004586Y-101050101D01*
X332926611Y-101161048D01*
X332918420Y-101172702D01*
X332861228Y-101319393D01*
X332859359Y-101333588D01*
X332841797Y-101466987D01*
X332840677Y-101475492D01*
X332849863Y-101558696D01*
X332837457Y-101628598D01*
X332789228Y-101680698D01*
X332720487Y-101698453D01*
X332707779Y-101696569D01*
X332707681Y-101697310D01*
X332643367Y-101688843D01*
X332550919Y-101676672D01*
X332472538Y-101686991D01*
X332418555Y-101694098D01*
X332394157Y-101697310D01*
X332261636Y-101752202D01*
X332191048Y-101759791D01*
X332165204Y-101752203D01*
X332032681Y-101697310D01*
X332008284Y-101694098D01*
X331954300Y-101686991D01*
X331875919Y-101676672D01*
X331797538Y-101686991D01*
X331743555Y-101694098D01*
X331719157Y-101697310D01*
X331573078Y-101757818D01*
X331447637Y-101854072D01*
X331442614Y-101860618D01*
X331437015Y-101867915D01*
X331351383Y-101979513D01*
X331290875Y-102125592D01*
X331289797Y-102133780D01*
X331289154Y-102138664D01*
X331270237Y-102282354D01*
X276930611Y-102282354D01*
X276796878Y-102226960D01*
X276640116Y-102206322D01*
X276483354Y-102226960D01*
X276337275Y-102287468D01*
X276253170Y-102352004D01*
X276239287Y-102362657D01*
X276211834Y-102383722D01*
X276115580Y-102509163D01*
X276055072Y-102655242D01*
X276034434Y-102812004D01*
X276035944Y-102823474D01*
X276050773Y-102936108D01*
X276055072Y-102968766D01*
X276115580Y-103114845D01*
X276165766Y-103180249D01*
X276208008Y-103235300D01*
X276233608Y-103301521D01*
X276219343Y-103371069D01*
X276208008Y-103388708D01*
X276115580Y-103509163D01*
X276055072Y-103655242D01*
X276034434Y-103812004D01*
X200506419Y-103812004D01*
X200506419Y-102300492D01*
X228620677Y-102300492D01*
X228637954Y-102456987D01*
X228692062Y-102604844D01*
X228696299Y-102611150D01*
X228696301Y-102611153D01*
X228725928Y-102655242D01*
X228779877Y-102735526D01*
X228802189Y-102755828D01*
X228865116Y-102813087D01*
X228896329Y-102841489D01*
X228903004Y-102845113D01*
X229028018Y-102912991D01*
X229028020Y-102912992D01*
X229034695Y-102916616D01*
X229042044Y-102918544D01*
X229179638Y-102954641D01*
X229179640Y-102954641D01*
X229186988Y-102956569D01*
X229270299Y-102957878D01*
X229336817Y-102958923D01*
X229336820Y-102958923D01*
X229344414Y-102959042D01*
X229497887Y-102923892D01*
X229638544Y-102853149D01*
X229686719Y-102812004D01*
X229752493Y-102755828D01*
X229752495Y-102755825D01*
X229758267Y-102750896D01*
X229850143Y-102623037D01*
X229908869Y-102476952D01*
X229921206Y-102390268D01*
X229927703Y-102344615D01*
X263944510Y-102344615D01*
X263963115Y-102513139D01*
X263970983Y-102534638D01*
X264015118Y-102655242D01*
X264021382Y-102672360D01*
X264025618Y-102678663D01*
X264025618Y-102678664D01*
X264034912Y-102692495D01*
X264115946Y-102813087D01*
X264121558Y-102818194D01*
X264121561Y-102818197D01*
X264235728Y-102922081D01*
X264235732Y-102922084D01*
X264241349Y-102927195D01*
X264248022Y-102930818D01*
X264248026Y-102930821D01*
X264383674Y-103004471D01*
X264383676Y-103004472D01*
X264390351Y-103008096D01*
X264397700Y-103010024D01*
X264546999Y-103049192D01*
X264547001Y-103049192D01*
X264554349Y-103051120D01*
X264640725Y-103052477D01*
X264716277Y-103053664D01*
X264716280Y-103053664D01*
X264723876Y-103053783D01*
X264731281Y-103052087D01*
X264731282Y-103052087D01*
X264791702Y-103038249D01*
X264889145Y-103015932D01*
X265040614Y-102939751D01*
X265142011Y-102853149D01*
X265163767Y-102834568D01*
X265163768Y-102834567D01*
X265169539Y-102829638D01*
X265268477Y-102691951D01*
X265271310Y-102684904D01*
X265328882Y-102541691D01*
X265328883Y-102541689D01*
X265331717Y-102534638D01*
X265355606Y-102366782D01*
X265355761Y-102352004D01*
X265353956Y-102337084D01*
X265346615Y-102276429D01*
X265335392Y-102183684D01*
X265275461Y-102025081D01*
X265236946Y-101969042D01*
X265183730Y-101891612D01*
X265183729Y-101891611D01*
X265179428Y-101885353D01*
X265165605Y-101873037D01*
X265058508Y-101777616D01*
X265058504Y-101777614D01*
X265052837Y-101772564D01*
X265041502Y-101766562D01*
X264966691Y-101726952D01*
X264902997Y-101693228D01*
X264738557Y-101651923D01*
X264730959Y-101651883D01*
X264730957Y-101651883D01*
X264653784Y-101651479D01*
X264569011Y-101651035D01*
X264561624Y-101652809D01*
X264561620Y-101652809D01*
X264418278Y-101687224D01*
X264404148Y-101690616D01*
X264397404Y-101694097D01*
X264397401Y-101694098D01*
X264273179Y-101758214D01*
X264253485Y-101768379D01*
X264247763Y-101773371D01*
X264247761Y-101773372D01*
X264195806Y-101818695D01*
X264125720Y-101879835D01*
X264109301Y-101903197D01*
X264033629Y-102010868D01*
X264028229Y-102018551D01*
X263966640Y-102176517D01*
X263965648Y-102184050D01*
X263965648Y-102184051D01*
X263947609Y-102321077D01*
X263944510Y-102344615D01*
X229927703Y-102344615D01*
X229930472Y-102325161D01*
X229930472Y-102325158D01*
X229931053Y-102321077D01*
X229931197Y-102307354D01*
X229912282Y-102151048D01*
X229907647Y-102138783D01*
X229859313Y-102010868D01*
X229859312Y-102010865D01*
X229856629Y-102003766D01*
X229852330Y-101997511D01*
X229848807Y-101990772D01*
X229851778Y-101989219D01*
X229834405Y-101935987D01*
X229849281Y-101874237D01*
X229850143Y-101873037D01*
X229854821Y-101861402D01*
X229893481Y-101765230D01*
X229908869Y-101726952D01*
X229919668Y-101651075D01*
X229930472Y-101575161D01*
X229930472Y-101575158D01*
X229931053Y-101571077D01*
X229931197Y-101557354D01*
X229929001Y-101539203D01*
X229923482Y-101493602D01*
X229912282Y-101401048D01*
X229902106Y-101374119D01*
X229859313Y-101260868D01*
X229859312Y-101260865D01*
X229856629Y-101253766D01*
X229767450Y-101124011D01*
X229688810Y-101053945D01*
X229655567Y-101024326D01*
X229655564Y-101024324D01*
X229649895Y-101019273D01*
X229510750Y-100945599D01*
X229476464Y-100936987D01*
X229365417Y-100909094D01*
X229365415Y-100909094D01*
X229358047Y-100907243D01*
X229350449Y-100907203D01*
X229350447Y-100907203D01*
X229283238Y-100906851D01*
X229200603Y-100906419D01*
X229193224Y-100908191D01*
X229193220Y-100908191D01*
X229054886Y-100941402D01*
X229054882Y-100941403D01*
X229047507Y-100943174D01*
X228994848Y-100970353D01*
X228922486Y-101007702D01*
X228907598Y-101015386D01*
X228901876Y-101020378D01*
X228901874Y-101020379D01*
X228794678Y-101113892D01*
X228794675Y-101113895D01*
X228788953Y-101118887D01*
X228784586Y-101125101D01*
X228716844Y-101221488D01*
X228698420Y-101247702D01*
X228641228Y-101394393D01*
X228637582Y-101422084D01*
X228623903Y-101525990D01*
X228620677Y-101550492D01*
X228637954Y-101706987D01*
X228692062Y-101854844D01*
X228696301Y-101861152D01*
X228696469Y-101861402D01*
X228696535Y-101861612D01*
X228699747Y-101867915D01*
X228698696Y-101868450D01*
X228717861Y-101929100D01*
X228702934Y-101991213D01*
X228702784Y-101991492D01*
X228698420Y-101997702D01*
X228684976Y-102032184D01*
X228651533Y-102117963D01*
X228641228Y-102144393D01*
X228640237Y-102151922D01*
X228621730Y-102292495D01*
X228620677Y-102300492D01*
X200506419Y-102300492D01*
X200506419Y-100780492D01*
X233760677Y-100780492D01*
X233777954Y-100936987D01*
X233832062Y-101084844D01*
X233836299Y-101091150D01*
X233836301Y-101091153D01*
X233862588Y-101130271D01*
X233919877Y-101215526D01*
X234036329Y-101321489D01*
X234061510Y-101335161D01*
X234168018Y-101392991D01*
X234168020Y-101392992D01*
X234174695Y-101396616D01*
X234182044Y-101398544D01*
X234319638Y-101434641D01*
X234319640Y-101434641D01*
X234326988Y-101436569D01*
X234410299Y-101437878D01*
X234476817Y-101438923D01*
X234476820Y-101438923D01*
X234484414Y-101439042D01*
X234637887Y-101403892D01*
X234778544Y-101333149D01*
X234805072Y-101310492D01*
X261050677Y-101310492D01*
X261067954Y-101466987D01*
X261122062Y-101614844D01*
X261126299Y-101621150D01*
X261126301Y-101621153D01*
X261148222Y-101653774D01*
X261209877Y-101745526D01*
X261326329Y-101851489D01*
X261363225Y-101871522D01*
X261458018Y-101922991D01*
X261458020Y-101922992D01*
X261464695Y-101926616D01*
X261472044Y-101928544D01*
X261609638Y-101964641D01*
X261609640Y-101964641D01*
X261616988Y-101966569D01*
X261700299Y-101967878D01*
X261766817Y-101968923D01*
X261766820Y-101968923D01*
X261774414Y-101969042D01*
X261927887Y-101933892D01*
X262068544Y-101863149D01*
X262123660Y-101816076D01*
X262188447Y-101787046D01*
X262258647Y-101797651D01*
X262290288Y-101818695D01*
X262320708Y-101846375D01*
X262320712Y-101846378D01*
X262326329Y-101851489D01*
X262363225Y-101871522D01*
X262458018Y-101922991D01*
X262458020Y-101922992D01*
X262464695Y-101926616D01*
X262472044Y-101928544D01*
X262609638Y-101964641D01*
X262609640Y-101964641D01*
X262616988Y-101966569D01*
X262700299Y-101967878D01*
X262766817Y-101968923D01*
X262766820Y-101968923D01*
X262774414Y-101969042D01*
X262927887Y-101933892D01*
X263068544Y-101863149D01*
X263138342Y-101803536D01*
X263182493Y-101765828D01*
X263182495Y-101765825D01*
X263188267Y-101760896D01*
X263280143Y-101633037D01*
X263338869Y-101486952D01*
X263347029Y-101429615D01*
X270144510Y-101429615D01*
X270163115Y-101598139D01*
X270182326Y-101650636D01*
X270214744Y-101739220D01*
X270221382Y-101757360D01*
X270225618Y-101763663D01*
X270225618Y-101763664D01*
X270234993Y-101777616D01*
X270315946Y-101898087D01*
X270321558Y-101903194D01*
X270321561Y-101903197D01*
X270435728Y-102007081D01*
X270435732Y-102007084D01*
X270441349Y-102012195D01*
X270448022Y-102015818D01*
X270448026Y-102015821D01*
X270583674Y-102089471D01*
X270583676Y-102089472D01*
X270590351Y-102093096D01*
X270597700Y-102095024D01*
X270746999Y-102134192D01*
X270747001Y-102134192D01*
X270754349Y-102136120D01*
X270840725Y-102137477D01*
X270916277Y-102138664D01*
X270916280Y-102138664D01*
X270923876Y-102138783D01*
X270931281Y-102137087D01*
X270931282Y-102137087D01*
X271014782Y-102117963D01*
X271089145Y-102100932D01*
X271240614Y-102024751D01*
X271346996Y-101933892D01*
X271363767Y-101919568D01*
X271363768Y-101919567D01*
X271369539Y-101914638D01*
X271468477Y-101776951D01*
X271472653Y-101766562D01*
X271528882Y-101626691D01*
X271528883Y-101626689D01*
X271531717Y-101619638D01*
X271552427Y-101474119D01*
X271555025Y-101455866D01*
X271555025Y-101455863D01*
X271555606Y-101451782D01*
X271555761Y-101437004D01*
X271553956Y-101422084D01*
X271551107Y-101398544D01*
X271535392Y-101268684D01*
X271513403Y-101210492D01*
X274050677Y-101210492D01*
X274067954Y-101366987D01*
X274122062Y-101514844D01*
X274126299Y-101521150D01*
X274126301Y-101521153D01*
X274157077Y-101566952D01*
X274209877Y-101645526D01*
X274266787Y-101697310D01*
X274312846Y-101739220D01*
X274326329Y-101751489D01*
X274360245Y-101769904D01*
X274458018Y-101822991D01*
X274458020Y-101822992D01*
X274464695Y-101826616D01*
X274472044Y-101828544D01*
X274609638Y-101864641D01*
X274609640Y-101864641D01*
X274616988Y-101866569D01*
X274700299Y-101867878D01*
X274766817Y-101868923D01*
X274766820Y-101868923D01*
X274774414Y-101869042D01*
X274927887Y-101833892D01*
X275068544Y-101763149D01*
X275119737Y-101719426D01*
X275182493Y-101665828D01*
X275182495Y-101665825D01*
X275188267Y-101660896D01*
X275280143Y-101533037D01*
X275338869Y-101386952D01*
X275346464Y-101333588D01*
X275360472Y-101235161D01*
X275360472Y-101235158D01*
X275361053Y-101231077D01*
X275361197Y-101217354D01*
X275342282Y-101061048D01*
X275337094Y-101047317D01*
X275289313Y-100920868D01*
X275289312Y-100920865D01*
X275286629Y-100913766D01*
X275197450Y-100784011D01*
X275143603Y-100736035D01*
X275085567Y-100684326D01*
X275085564Y-100684324D01*
X275079895Y-100679273D01*
X275057175Y-100667243D01*
X274947462Y-100609153D01*
X274947463Y-100609153D01*
X274940750Y-100605599D01*
X274882159Y-100590882D01*
X274795417Y-100569094D01*
X274795415Y-100569094D01*
X274788047Y-100567243D01*
X274780449Y-100567203D01*
X274780447Y-100567203D01*
X274713238Y-100566851D01*
X274630603Y-100566419D01*
X274623224Y-100568191D01*
X274623220Y-100568191D01*
X274484886Y-100601402D01*
X274484882Y-100601403D01*
X274477507Y-100603174D01*
X274408893Y-100638588D01*
X274349789Y-100669094D01*
X274337598Y-100675386D01*
X274331876Y-100680378D01*
X274331874Y-100680379D01*
X274224678Y-100773892D01*
X274224675Y-100773895D01*
X274218953Y-100778887D01*
X274212519Y-100788042D01*
X274136020Y-100896889D01*
X274128420Y-100907702D01*
X274071228Y-101054393D01*
X274067219Y-101084844D01*
X274053919Y-101185868D01*
X274050677Y-101210492D01*
X271513403Y-101210492D01*
X271475461Y-101110081D01*
X271466700Y-101097334D01*
X271383730Y-100976612D01*
X271383729Y-100976611D01*
X271379428Y-100970353D01*
X271373235Y-100964835D01*
X271258508Y-100862616D01*
X271258504Y-100862614D01*
X271252837Y-100857564D01*
X271241604Y-100851616D01*
X271159659Y-100808229D01*
X271102997Y-100778228D01*
X270938557Y-100736923D01*
X270930959Y-100736883D01*
X270930957Y-100736883D01*
X270853784Y-100736479D01*
X270769011Y-100736035D01*
X270761624Y-100737809D01*
X270761620Y-100737809D01*
X270621796Y-100771379D01*
X270604148Y-100775616D01*
X270597404Y-100779097D01*
X270597401Y-100779098D01*
X270463924Y-100847991D01*
X270453485Y-100853379D01*
X270447763Y-100858371D01*
X270447761Y-100858372D01*
X270389617Y-100909094D01*
X270325720Y-100964835D01*
X270299962Y-101001485D01*
X270246392Y-101077708D01*
X270228229Y-101103551D01*
X270166640Y-101261517D01*
X270165648Y-101269050D01*
X270165648Y-101269051D01*
X270146438Y-101414971D01*
X270144510Y-101429615D01*
X263347029Y-101429615D01*
X263352132Y-101393763D01*
X263360472Y-101335161D01*
X263360472Y-101335158D01*
X263361053Y-101331077D01*
X263361197Y-101317354D01*
X263360653Y-101312854D01*
X263351331Y-101235828D01*
X263342282Y-101161048D01*
X263323023Y-101110081D01*
X263289313Y-101020868D01*
X263289312Y-101020865D01*
X263286629Y-101013766D01*
X263197450Y-100884011D01*
X263123222Y-100817876D01*
X263085567Y-100784326D01*
X263085564Y-100784324D01*
X263079895Y-100779273D01*
X262940750Y-100705599D01*
X262924041Y-100701402D01*
X262795417Y-100669094D01*
X262795415Y-100669094D01*
X262788047Y-100667243D01*
X262780449Y-100667203D01*
X262780447Y-100667203D01*
X262713238Y-100666851D01*
X262630603Y-100666419D01*
X262623224Y-100668191D01*
X262623220Y-100668191D01*
X262484886Y-100701402D01*
X262484882Y-100701403D01*
X262477507Y-100703174D01*
X262337598Y-100775386D01*
X262331876Y-100780378D01*
X262331874Y-100780379D01*
X262288891Y-100817876D01*
X262224409Y-100847584D01*
X262154102Y-100837715D01*
X262122244Y-100817004D01*
X262085567Y-100784326D01*
X262085564Y-100784324D01*
X262079895Y-100779273D01*
X261940750Y-100705599D01*
X261924041Y-100701402D01*
X261795417Y-100669094D01*
X261795415Y-100669094D01*
X261788047Y-100667243D01*
X261780449Y-100667203D01*
X261780447Y-100667203D01*
X261713238Y-100666851D01*
X261630603Y-100666419D01*
X261623224Y-100668191D01*
X261623220Y-100668191D01*
X261484886Y-100701402D01*
X261484882Y-100701403D01*
X261477507Y-100703174D01*
X261337598Y-100775386D01*
X261331876Y-100780378D01*
X261331874Y-100780379D01*
X261224678Y-100873892D01*
X261224675Y-100873895D01*
X261218953Y-100878887D01*
X261198358Y-100908191D01*
X261133661Y-101000245D01*
X261128420Y-101007702D01*
X261071228Y-101154393D01*
X261070237Y-101161922D01*
X261055189Y-101276224D01*
X261050677Y-101310492D01*
X234805072Y-101310492D01*
X234845195Y-101276224D01*
X234892493Y-101235828D01*
X234892495Y-101235825D01*
X234898267Y-101230896D01*
X234990143Y-101103037D01*
X235048869Y-100956952D01*
X235063311Y-100855479D01*
X235070472Y-100805161D01*
X235070472Y-100805158D01*
X235071053Y-100801077D01*
X235071197Y-100787354D01*
X235070523Y-100781780D01*
X235061431Y-100706655D01*
X235052282Y-100631048D01*
X235033387Y-100581044D01*
X234999313Y-100490868D01*
X234999312Y-100490865D01*
X234996629Y-100483766D01*
X234907450Y-100354011D01*
X234842979Y-100296569D01*
X234795567Y-100254326D01*
X234795564Y-100254324D01*
X234789895Y-100249273D01*
X234776828Y-100242354D01*
X234674575Y-100188214D01*
X234650750Y-100175599D01*
X234634041Y-100171402D01*
X234505417Y-100139094D01*
X234505415Y-100139094D01*
X234498047Y-100137243D01*
X234490449Y-100137203D01*
X234490447Y-100137203D01*
X234423238Y-100136851D01*
X234340603Y-100136419D01*
X234333224Y-100138191D01*
X234333220Y-100138191D01*
X234194886Y-100171402D01*
X234194882Y-100171403D01*
X234187507Y-100173174D01*
X234148806Y-100193149D01*
X234061432Y-100238246D01*
X234047598Y-100245386D01*
X234041876Y-100250378D01*
X234041874Y-100250379D01*
X233934678Y-100343892D01*
X233934675Y-100343895D01*
X233928953Y-100348887D01*
X233909465Y-100376616D01*
X233881302Y-100416688D01*
X233838420Y-100477702D01*
X233781228Y-100624393D01*
X233780237Y-100631922D01*
X233761808Y-100771903D01*
X233760677Y-100780492D01*
X200506419Y-100780492D01*
X200506419Y-99640492D01*
X225970677Y-99640492D01*
X225987954Y-99796987D01*
X226042062Y-99944844D01*
X226046299Y-99951150D01*
X226046301Y-99951153D01*
X226086628Y-100011165D01*
X226129877Y-100075526D01*
X226149727Y-100093588D01*
X226235244Y-100171402D01*
X226246329Y-100181489D01*
X226253004Y-100185113D01*
X226378018Y-100252991D01*
X226378020Y-100252992D01*
X226384695Y-100256616D01*
X226392044Y-100258544D01*
X226529638Y-100294641D01*
X226529640Y-100294641D01*
X226536988Y-100296569D01*
X226620299Y-100297878D01*
X226686817Y-100298923D01*
X226686820Y-100298923D01*
X226694414Y-100299042D01*
X226847887Y-100263892D01*
X226988544Y-100193149D01*
X227014788Y-100170735D01*
X227102493Y-100095828D01*
X227102495Y-100095825D01*
X227108267Y-100090896D01*
X227200143Y-99963037D01*
X227207794Y-99944006D01*
X227256033Y-99824006D01*
X227258869Y-99816952D01*
X227266904Y-99760492D01*
X236000677Y-99760492D01*
X236017954Y-99916987D01*
X236072062Y-100064844D01*
X236076299Y-100071150D01*
X236076301Y-100071153D01*
X236089568Y-100090896D01*
X236159877Y-100195526D01*
X236214673Y-100245386D01*
X236231260Y-100260479D01*
X236276329Y-100301489D01*
X236283004Y-100305113D01*
X236408018Y-100372991D01*
X236408020Y-100372992D01*
X236414695Y-100376616D01*
X236422044Y-100378544D01*
X236559638Y-100414641D01*
X236559640Y-100414641D01*
X236566988Y-100416569D01*
X236650299Y-100417878D01*
X236716817Y-100418923D01*
X236716820Y-100418923D01*
X236724414Y-100419042D01*
X236877887Y-100383892D01*
X237018544Y-100313149D01*
X237080585Y-100260161D01*
X237109469Y-100235492D01*
X330450677Y-100235492D01*
X330467954Y-100391987D01*
X330522062Y-100539844D01*
X330526299Y-100546150D01*
X330526301Y-100546153D01*
X330540473Y-100567243D01*
X330609877Y-100670526D01*
X330643809Y-100701402D01*
X330682803Y-100736883D01*
X330726329Y-100776489D01*
X330746340Y-100787354D01*
X330858018Y-100847991D01*
X330858020Y-100847992D01*
X330864695Y-100851616D01*
X330872044Y-100853544D01*
X331009638Y-100889641D01*
X331009640Y-100889641D01*
X331016988Y-100891569D01*
X331100299Y-100892878D01*
X331166817Y-100893923D01*
X331166820Y-100893923D01*
X331174414Y-100894042D01*
X331327887Y-100858892D01*
X331468544Y-100788149D01*
X331561037Y-100709153D01*
X331582493Y-100690828D01*
X331582495Y-100690825D01*
X331588267Y-100685896D01*
X331680143Y-100558037D01*
X331738869Y-100411952D01*
X331761053Y-100256077D01*
X331761197Y-100242354D01*
X331742282Y-100086048D01*
X331698130Y-99969203D01*
X331689313Y-99945868D01*
X331689312Y-99945865D01*
X331686629Y-99938766D01*
X331597450Y-99809011D01*
X331534541Y-99752961D01*
X331485567Y-99709326D01*
X331485564Y-99709324D01*
X331479895Y-99704273D01*
X331340750Y-99630599D01*
X331324041Y-99626402D01*
X331195417Y-99594094D01*
X331195415Y-99594094D01*
X331188047Y-99592243D01*
X331180449Y-99592203D01*
X331180447Y-99592203D01*
X331113238Y-99591851D01*
X331030603Y-99591419D01*
X331023224Y-99593191D01*
X331023220Y-99593191D01*
X330884886Y-99626402D01*
X330884882Y-99626403D01*
X330877507Y-99628174D01*
X330737598Y-99700386D01*
X330731876Y-99705378D01*
X330731874Y-99705379D01*
X330624678Y-99798892D01*
X330624675Y-99798895D01*
X330618953Y-99803887D01*
X330614586Y-99810101D01*
X330539465Y-99916987D01*
X330528420Y-99932702D01*
X330471228Y-100079393D01*
X330469714Y-100090896D01*
X330453266Y-100215828D01*
X330450677Y-100235492D01*
X237109469Y-100235492D01*
X237132493Y-100215828D01*
X237132495Y-100215825D01*
X237138267Y-100210896D01*
X237230143Y-100083037D01*
X237233163Y-100075526D01*
X237278383Y-99963037D01*
X237288869Y-99936952D01*
X237295872Y-99887747D01*
X237310472Y-99785161D01*
X237310472Y-99785158D01*
X237311053Y-99781077D01*
X237311197Y-99767354D01*
X237292282Y-99611048D01*
X237255289Y-99513149D01*
X237239313Y-99470868D01*
X237239312Y-99470865D01*
X237236629Y-99463766D01*
X237147450Y-99334011D01*
X237087367Y-99280479D01*
X237035567Y-99234326D01*
X237035564Y-99234324D01*
X237029895Y-99229273D01*
X236890750Y-99155599D01*
X236816513Y-99136952D01*
X236745417Y-99119094D01*
X236745415Y-99119094D01*
X236738047Y-99117243D01*
X236730449Y-99117203D01*
X236730447Y-99117203D01*
X236663238Y-99116851D01*
X236580603Y-99116419D01*
X236573224Y-99118191D01*
X236573220Y-99118191D01*
X236434886Y-99151402D01*
X236434882Y-99151403D01*
X236427507Y-99153174D01*
X236287598Y-99225386D01*
X236281876Y-99230378D01*
X236281874Y-99230379D01*
X236174678Y-99323892D01*
X236174675Y-99323895D01*
X236168953Y-99328887D01*
X236130188Y-99384043D01*
X236107850Y-99415828D01*
X236078420Y-99457702D01*
X236021228Y-99604393D01*
X236000677Y-99760492D01*
X227266904Y-99760492D01*
X227274748Y-99705379D01*
X227280472Y-99665161D01*
X227280472Y-99665158D01*
X227281053Y-99661077D01*
X227281197Y-99647354D01*
X227279170Y-99630599D01*
X227272198Y-99572991D01*
X227262282Y-99491048D01*
X227249682Y-99457702D01*
X227209313Y-99350868D01*
X227209312Y-99350865D01*
X227206629Y-99343766D01*
X227117450Y-99214011D01*
X227049168Y-99153174D01*
X227005567Y-99114326D01*
X227005564Y-99114324D01*
X226999895Y-99109273D01*
X226860750Y-99035599D01*
X226844041Y-99031402D01*
X226715417Y-98999094D01*
X226715415Y-98999094D01*
X226708047Y-98997243D01*
X226700449Y-98997203D01*
X226700447Y-98997203D01*
X226633238Y-98996851D01*
X226550603Y-98996419D01*
X226543224Y-98998191D01*
X226543220Y-98998191D01*
X226404886Y-99031402D01*
X226404882Y-99031403D01*
X226397507Y-99033174D01*
X226390762Y-99036655D01*
X226390763Y-99036655D01*
X226276702Y-99095526D01*
X226257598Y-99105386D01*
X226251876Y-99110378D01*
X226251874Y-99110379D01*
X226144678Y-99203892D01*
X226144675Y-99203895D01*
X226138953Y-99208887D01*
X226123848Y-99230379D01*
X226054567Y-99328956D01*
X226048420Y-99337702D01*
X225991228Y-99484393D01*
X225990237Y-99491922D01*
X225972299Y-99628174D01*
X225970677Y-99640492D01*
X200506419Y-99640492D01*
X200506419Y-98660492D01*
X215700677Y-98660492D01*
X215717954Y-98816987D01*
X215772062Y-98964844D01*
X215776299Y-98971150D01*
X215776301Y-98971153D01*
X215793306Y-98996459D01*
X215859877Y-99095526D01*
X215976329Y-99201489D01*
X216036288Y-99234044D01*
X216108018Y-99272991D01*
X216108020Y-99272992D01*
X216114695Y-99276616D01*
X216122044Y-99278544D01*
X216259638Y-99314641D01*
X216259640Y-99314641D01*
X216266988Y-99316569D01*
X216350299Y-99317878D01*
X216416817Y-99318923D01*
X216416820Y-99318923D01*
X216424414Y-99319042D01*
X216577887Y-99283892D01*
X216718544Y-99213149D01*
X216744788Y-99190735D01*
X216832493Y-99115828D01*
X216832495Y-99115825D01*
X216838267Y-99110896D01*
X216930143Y-98983037D01*
X216939206Y-98960492D01*
X228510677Y-98960492D01*
X228527954Y-99116987D01*
X228582062Y-99264844D01*
X228586299Y-99271150D01*
X228586301Y-99271153D01*
X228615524Y-99314641D01*
X228669877Y-99395526D01*
X228786329Y-99501489D01*
X228793004Y-99505113D01*
X228918018Y-99572991D01*
X228918020Y-99572992D01*
X228924695Y-99576616D01*
X228932044Y-99578544D01*
X229069638Y-99614641D01*
X229069640Y-99614641D01*
X229076988Y-99616569D01*
X229160299Y-99617878D01*
X229226817Y-99618923D01*
X229226820Y-99618923D01*
X229234414Y-99619042D01*
X229387887Y-99583892D01*
X229528544Y-99513149D01*
X229593688Y-99457511D01*
X229642493Y-99415828D01*
X229642495Y-99415825D01*
X229648267Y-99410896D01*
X229740143Y-99283037D01*
X229744182Y-99272991D01*
X229791373Y-99155599D01*
X229798869Y-99136952D01*
X229813143Y-99036655D01*
X229820472Y-98985161D01*
X229820472Y-98985158D01*
X229821053Y-98981077D01*
X229821197Y-98967354D01*
X229802282Y-98811048D01*
X229758330Y-98694731D01*
X229749313Y-98670868D01*
X229749312Y-98670865D01*
X229746629Y-98663766D01*
X229657450Y-98534011D01*
X229610890Y-98492528D01*
X229545567Y-98434326D01*
X229545564Y-98434324D01*
X229539895Y-98429273D01*
X229521298Y-98419426D01*
X229418097Y-98364784D01*
X229400750Y-98355599D01*
X229391096Y-98353174D01*
X229255417Y-98319094D01*
X229255415Y-98319094D01*
X229248047Y-98317243D01*
X229240449Y-98317203D01*
X229240447Y-98317203D01*
X229173238Y-98316851D01*
X229090603Y-98316419D01*
X229083224Y-98318191D01*
X229083220Y-98318191D01*
X228944886Y-98351402D01*
X228944882Y-98351403D01*
X228937507Y-98353174D01*
X228853956Y-98396298D01*
X228819428Y-98414119D01*
X228797598Y-98425386D01*
X228791876Y-98430378D01*
X228791874Y-98430379D01*
X228684678Y-98523892D01*
X228684675Y-98523895D01*
X228678953Y-98528887D01*
X228588420Y-98657702D01*
X228531228Y-98804393D01*
X228526013Y-98844006D01*
X228517451Y-98909042D01*
X228510677Y-98960492D01*
X216939206Y-98960492D01*
X216988869Y-98836952D01*
X216996067Y-98786379D01*
X217010472Y-98685161D01*
X217010472Y-98685158D01*
X217011053Y-98681077D01*
X217011197Y-98667354D01*
X216992282Y-98511048D01*
X216963291Y-98434326D01*
X216939313Y-98370868D01*
X216939312Y-98370865D01*
X216936629Y-98363766D01*
X216847450Y-98234011D01*
X216800890Y-98192528D01*
X216735567Y-98134326D01*
X216735564Y-98134324D01*
X216729895Y-98129273D01*
X216590750Y-98055599D01*
X216574041Y-98051402D01*
X216445417Y-98019094D01*
X216445415Y-98019094D01*
X216438047Y-98017243D01*
X216430449Y-98017203D01*
X216430447Y-98017203D01*
X216363238Y-98016851D01*
X216280603Y-98016419D01*
X216273224Y-98018191D01*
X216273220Y-98018191D01*
X216134886Y-98051402D01*
X216134882Y-98051403D01*
X216127507Y-98053174D01*
X216120762Y-98056655D01*
X216120763Y-98056655D01*
X216027617Y-98104731D01*
X215987598Y-98125386D01*
X215981876Y-98130378D01*
X215981874Y-98130379D01*
X215874678Y-98223892D01*
X215874675Y-98223895D01*
X215868953Y-98228887D01*
X215846041Y-98261488D01*
X215782848Y-98351402D01*
X215778420Y-98357702D01*
X215721228Y-98504393D01*
X215720237Y-98511922D01*
X215701863Y-98651485D01*
X215700677Y-98660492D01*
X200506419Y-98660492D01*
X200506419Y-97660492D01*
X218700677Y-97660492D01*
X218717954Y-97816987D01*
X218772062Y-97964844D01*
X218776299Y-97971150D01*
X218776301Y-97971153D01*
X218806719Y-98016419D01*
X218859877Y-98095526D01*
X218976329Y-98201489D01*
X218983004Y-98205113D01*
X219108018Y-98272991D01*
X219108020Y-98272992D01*
X219114695Y-98276616D01*
X219122044Y-98278544D01*
X219259638Y-98314641D01*
X219259640Y-98314641D01*
X219266988Y-98316569D01*
X219350299Y-98317878D01*
X219416817Y-98318923D01*
X219416820Y-98318923D01*
X219424414Y-98319042D01*
X219577887Y-98283892D01*
X219644296Y-98250492D01*
X249330677Y-98250492D01*
X249347954Y-98406987D01*
X249402062Y-98554844D01*
X249406299Y-98561150D01*
X249406301Y-98561153D01*
X249446628Y-98621165D01*
X249489877Y-98685526D01*
X249606329Y-98791489D01*
X249613004Y-98795113D01*
X249738018Y-98862991D01*
X249738020Y-98862992D01*
X249744695Y-98866616D01*
X249752044Y-98868544D01*
X249889638Y-98904641D01*
X249889640Y-98904641D01*
X249896988Y-98906569D01*
X249980299Y-98907878D01*
X250046817Y-98908923D01*
X250046820Y-98908923D01*
X250054414Y-98909042D01*
X250207887Y-98873892D01*
X250348544Y-98803149D01*
X250374788Y-98780735D01*
X250462493Y-98705828D01*
X250462495Y-98705825D01*
X250468267Y-98700896D01*
X250560143Y-98573037D01*
X250618869Y-98426952D01*
X250634483Y-98317243D01*
X250640472Y-98275161D01*
X250640472Y-98275158D01*
X250641053Y-98271077D01*
X250641197Y-98257354D01*
X250637761Y-98228956D01*
X250625831Y-98130379D01*
X250622282Y-98101048D01*
X250604192Y-98053174D01*
X250569313Y-97960868D01*
X250569312Y-97960865D01*
X250566629Y-97953766D01*
X250477450Y-97824011D01*
X250430890Y-97782528D01*
X250365567Y-97724326D01*
X250365564Y-97724324D01*
X250359895Y-97719273D01*
X250220750Y-97645599D01*
X250204041Y-97641402D01*
X250075417Y-97609094D01*
X250075415Y-97609094D01*
X250068047Y-97607243D01*
X250060449Y-97607203D01*
X250060447Y-97607203D01*
X249993238Y-97606851D01*
X249910603Y-97606419D01*
X249903224Y-97608191D01*
X249903220Y-97608191D01*
X249764886Y-97641402D01*
X249764882Y-97641403D01*
X249757507Y-97643174D01*
X249617598Y-97715386D01*
X249611876Y-97720378D01*
X249611874Y-97720379D01*
X249504678Y-97813892D01*
X249504675Y-97813895D01*
X249498953Y-97818887D01*
X249408420Y-97947702D01*
X249351228Y-98094393D01*
X249350237Y-98101922D01*
X249332023Y-98240271D01*
X249330677Y-98250492D01*
X219644296Y-98250492D01*
X219718544Y-98213149D01*
X219810834Y-98134326D01*
X219832493Y-98115828D01*
X219832495Y-98115825D01*
X219838267Y-98110896D01*
X219930143Y-97983037D01*
X219988869Y-97836952D01*
X220011053Y-97681077D01*
X220011197Y-97667354D01*
X220008995Y-97649153D01*
X220004147Y-97609094D01*
X219992282Y-97511048D01*
X219978802Y-97475374D01*
X219939313Y-97370868D01*
X219939312Y-97370865D01*
X219936629Y-97363766D01*
X219847450Y-97234011D01*
X219773036Y-97167710D01*
X219735567Y-97134326D01*
X219735564Y-97134324D01*
X219729895Y-97129273D01*
X219590750Y-97055599D01*
X219516867Y-97037041D01*
X219445417Y-97019094D01*
X219445415Y-97019094D01*
X219438047Y-97017243D01*
X219430449Y-97017203D01*
X219430447Y-97017203D01*
X219363238Y-97016851D01*
X219280603Y-97016419D01*
X219273224Y-97018191D01*
X219273220Y-97018191D01*
X219134886Y-97051402D01*
X219134882Y-97051403D01*
X219127507Y-97053174D01*
X218987598Y-97125386D01*
X218981876Y-97130378D01*
X218981874Y-97130379D01*
X218874678Y-97223892D01*
X218874675Y-97223895D01*
X218868953Y-97228887D01*
X218778420Y-97357702D01*
X218721228Y-97504393D01*
X218715338Y-97549133D01*
X218702170Y-97649153D01*
X218700677Y-97660492D01*
X200506419Y-97660492D01*
X200506419Y-95200835D01*
X204890419Y-95200835D01*
X204890420Y-96613872D01*
X204891195Y-96618765D01*
X204891195Y-96618766D01*
X204898962Y-96667806D01*
X204905273Y-96707658D01*
X204962869Y-96820696D01*
X205052577Y-96910404D01*
X205165615Y-96968000D01*
X205175404Y-96969550D01*
X205175406Y-96969551D01*
X205200000Y-96973446D01*
X205259400Y-96982854D01*
X205965776Y-96982854D01*
X206672437Y-96982853D01*
X206699993Y-96978489D01*
X206756425Y-96969552D01*
X206756427Y-96969551D01*
X206766223Y-96968000D01*
X206879261Y-96910404D01*
X206968969Y-96820696D01*
X207021712Y-96717183D01*
X207070459Y-96665569D01*
X207139374Y-96648503D01*
X207206576Y-96671404D01*
X207221899Y-96684132D01*
X207282048Y-96742726D01*
X207286185Y-96746756D01*
X207450536Y-96856571D01*
X207455838Y-96858849D01*
X207455840Y-96858850D01*
X207571433Y-96908513D01*
X207632147Y-96934598D01*
X207703617Y-96950770D01*
X207819300Y-96976947D01*
X207819306Y-96976948D01*
X207824937Y-96978222D01*
X207830708Y-96978449D01*
X207830710Y-96978449D01*
X207891303Y-96980829D01*
X208022447Y-96985982D01*
X208126191Y-96970940D01*
X208212351Y-96958448D01*
X208212356Y-96958447D01*
X208218065Y-96957619D01*
X208223529Y-96955764D01*
X208223534Y-96955763D01*
X208399767Y-96895940D01*
X208399772Y-96895938D01*
X208405239Y-96894082D01*
X208454997Y-96866216D01*
X208572661Y-96800321D01*
X208572665Y-96800318D01*
X208577699Y-96797499D01*
X208582136Y-96793808D01*
X208582140Y-96793806D01*
X208725233Y-96674797D01*
X208729671Y-96671106D01*
X208752203Y-96644014D01*
X208852371Y-96523575D01*
X208852373Y-96523571D01*
X208856064Y-96519134D01*
X208858885Y-96514097D01*
X208862159Y-96509333D01*
X208863512Y-96510263D01*
X208908760Y-96465975D01*
X208978292Y-96451628D01*
X209044542Y-96477150D01*
X209070854Y-96504483D01*
X209110910Y-96561160D01*
X209144598Y-96608828D01*
X209202043Y-96664788D01*
X209255829Y-96717184D01*
X209286185Y-96746756D01*
X209450536Y-96856571D01*
X209455838Y-96858849D01*
X209455840Y-96858850D01*
X209571433Y-96908513D01*
X209632147Y-96934598D01*
X209703617Y-96950770D01*
X209819300Y-96976947D01*
X209819306Y-96976948D01*
X209824937Y-96978222D01*
X209830708Y-96978449D01*
X209830710Y-96978449D01*
X209891303Y-96980829D01*
X210022447Y-96985982D01*
X210126191Y-96970940D01*
X210212351Y-96958448D01*
X210212356Y-96958447D01*
X210218065Y-96957619D01*
X210223529Y-96955764D01*
X210223534Y-96955763D01*
X210399767Y-96895940D01*
X210399772Y-96895938D01*
X210405239Y-96894082D01*
X210454997Y-96866216D01*
X210572661Y-96800321D01*
X210572665Y-96800318D01*
X210577699Y-96797499D01*
X210582136Y-96793808D01*
X210582140Y-96793806D01*
X210725233Y-96674797D01*
X210729671Y-96671106D01*
X210752203Y-96644014D01*
X210852371Y-96523575D01*
X210852373Y-96523571D01*
X210856064Y-96519134D01*
X210858885Y-96514097D01*
X210862159Y-96509333D01*
X210863512Y-96510263D01*
X210908760Y-96465975D01*
X210978292Y-96451628D01*
X211044542Y-96477150D01*
X211070854Y-96504483D01*
X211110910Y-96561160D01*
X211144598Y-96608828D01*
X211202043Y-96664788D01*
X211255829Y-96717184D01*
X211286185Y-96746756D01*
X211450536Y-96856571D01*
X211455838Y-96858849D01*
X211455840Y-96858850D01*
X211571433Y-96908513D01*
X211632147Y-96934598D01*
X211703617Y-96950770D01*
X211819300Y-96976947D01*
X211819306Y-96976948D01*
X211824937Y-96978222D01*
X211830708Y-96978449D01*
X211830710Y-96978449D01*
X211891303Y-96980829D01*
X212022447Y-96985982D01*
X212126191Y-96970940D01*
X212212351Y-96958448D01*
X212212356Y-96958447D01*
X212218065Y-96957619D01*
X212223529Y-96955764D01*
X212223534Y-96955763D01*
X212399767Y-96895940D01*
X212399772Y-96895938D01*
X212405239Y-96894082D01*
X212454997Y-96866216D01*
X212555440Y-96809965D01*
X229200313Y-96809965D01*
X229218918Y-96978489D01*
X229247523Y-97056655D01*
X229272797Y-97125718D01*
X229277185Y-97137710D01*
X229281421Y-97144013D01*
X229281421Y-97144014D01*
X229292550Y-97160576D01*
X229371749Y-97278437D01*
X229377361Y-97283544D01*
X229377364Y-97283547D01*
X229491531Y-97387431D01*
X229491535Y-97387434D01*
X229497152Y-97392545D01*
X229503825Y-97396168D01*
X229503829Y-97396171D01*
X229639477Y-97469821D01*
X229639479Y-97469822D01*
X229646154Y-97473446D01*
X229653503Y-97475374D01*
X229802802Y-97514542D01*
X229802804Y-97514542D01*
X229810152Y-97516470D01*
X229896528Y-97517827D01*
X229972080Y-97519014D01*
X229972083Y-97519014D01*
X229979679Y-97519133D01*
X229987084Y-97517437D01*
X229987085Y-97517437D01*
X230074934Y-97497317D01*
X230144948Y-97481282D01*
X230296417Y-97405101D01*
X230375632Y-97337444D01*
X230419570Y-97299918D01*
X230419571Y-97299917D01*
X230425342Y-97294988D01*
X230524280Y-97157301D01*
X230533516Y-97134326D01*
X230584685Y-97007041D01*
X230584686Y-97007039D01*
X230587520Y-96999988D01*
X230599629Y-96914904D01*
X230610294Y-96839965D01*
X250700313Y-96839965D01*
X250718918Y-97008489D01*
X250737459Y-97059153D01*
X250761697Y-97125386D01*
X250777185Y-97167710D01*
X250781421Y-97174013D01*
X250781421Y-97174014D01*
X250794493Y-97193467D01*
X250871749Y-97308437D01*
X250877361Y-97313544D01*
X250877364Y-97313547D01*
X250991531Y-97417431D01*
X250991535Y-97417434D01*
X250997152Y-97422545D01*
X251003825Y-97426168D01*
X251003829Y-97426171D01*
X251139477Y-97499821D01*
X251139479Y-97499822D01*
X251146154Y-97503446D01*
X251153503Y-97505374D01*
X251302802Y-97544542D01*
X251302804Y-97544542D01*
X251310152Y-97546470D01*
X251396528Y-97547827D01*
X251472080Y-97549014D01*
X251472083Y-97549014D01*
X251479679Y-97549133D01*
X251487084Y-97547437D01*
X251487085Y-97547437D01*
X251547505Y-97533599D01*
X251644948Y-97511282D01*
X251796417Y-97435101D01*
X251925342Y-97324988D01*
X252024280Y-97187301D01*
X252033861Y-97163467D01*
X252084685Y-97037041D01*
X252084686Y-97037039D01*
X252087520Y-97029988D01*
X252096983Y-96963497D01*
X252110828Y-96866216D01*
X252110828Y-96866213D01*
X252111409Y-96862132D01*
X252111564Y-96847354D01*
X252109759Y-96832434D01*
X252099390Y-96746756D01*
X252091195Y-96679034D01*
X252031264Y-96520431D01*
X252012041Y-96492462D01*
X251939533Y-96386962D01*
X251939532Y-96386961D01*
X251935231Y-96380703D01*
X251920298Y-96367398D01*
X251855837Y-96309965D01*
X295800313Y-96309965D01*
X295818918Y-96478489D01*
X295851473Y-96567448D01*
X295873226Y-96626891D01*
X295877185Y-96637710D01*
X295881421Y-96644013D01*
X295881421Y-96644014D01*
X295894493Y-96663467D01*
X295971749Y-96778437D01*
X295977361Y-96783544D01*
X295977364Y-96783547D01*
X296091531Y-96887431D01*
X296091535Y-96887434D01*
X296097152Y-96892545D01*
X296103825Y-96896168D01*
X296103829Y-96896171D01*
X296239477Y-96969821D01*
X296239479Y-96969822D01*
X296246154Y-96973446D01*
X296253503Y-96975374D01*
X296402802Y-97014542D01*
X296402804Y-97014542D01*
X296410152Y-97016470D01*
X296496528Y-97017827D01*
X296572080Y-97019014D01*
X296572083Y-97019014D01*
X296579679Y-97019133D01*
X296587084Y-97017437D01*
X296587085Y-97017437D01*
X296663272Y-96999988D01*
X296744948Y-96981282D01*
X296896417Y-96905101D01*
X296975632Y-96837444D01*
X297019570Y-96799918D01*
X297019571Y-96799917D01*
X297025342Y-96794988D01*
X297124280Y-96657301D01*
X297130459Y-96641931D01*
X297137992Y-96623192D01*
X297181959Y-96567448D01*
X297249084Y-96544323D01*
X297318056Y-96561160D01*
X297366975Y-96612613D01*
X297373225Y-96626888D01*
X297377185Y-96637710D01*
X297381421Y-96644013D01*
X297381421Y-96644014D01*
X297394493Y-96663467D01*
X297471749Y-96778437D01*
X297477361Y-96783544D01*
X297477364Y-96783547D01*
X297591531Y-96887431D01*
X297591535Y-96887434D01*
X297597152Y-96892545D01*
X297603825Y-96896168D01*
X297603829Y-96896171D01*
X297739477Y-96969821D01*
X297739479Y-96969822D01*
X297746154Y-96973446D01*
X297753503Y-96975374D01*
X297902802Y-97014542D01*
X297902804Y-97014542D01*
X297910152Y-97016470D01*
X297996528Y-97017827D01*
X298072080Y-97019014D01*
X298072083Y-97019014D01*
X298079679Y-97019133D01*
X298087084Y-97017437D01*
X298087085Y-97017437D01*
X298163272Y-96999988D01*
X298244948Y-96981282D01*
X298396417Y-96905101D01*
X298475632Y-96837444D01*
X298519570Y-96799918D01*
X298519571Y-96799917D01*
X298525342Y-96794988D01*
X298529771Y-96788824D01*
X298529776Y-96788819D01*
X298604308Y-96685097D01*
X298660302Y-96641449D01*
X298731006Y-96635003D01*
X298793970Y-96667806D01*
X298811212Y-96688348D01*
X298867513Y-96772134D01*
X298867516Y-96772137D01*
X298871749Y-96778437D01*
X298877361Y-96783544D01*
X298877364Y-96783547D01*
X298991531Y-96887431D01*
X298991535Y-96887434D01*
X298997152Y-96892545D01*
X299003825Y-96896168D01*
X299003829Y-96896171D01*
X299139477Y-96969821D01*
X299139479Y-96969822D01*
X299146154Y-96973446D01*
X299153503Y-96975374D01*
X299302802Y-97014542D01*
X299302804Y-97014542D01*
X299310152Y-97016470D01*
X299396528Y-97017827D01*
X299472080Y-97019014D01*
X299472083Y-97019014D01*
X299479679Y-97019133D01*
X299487084Y-97017437D01*
X299487085Y-97017437D01*
X299563272Y-96999988D01*
X299644948Y-96981282D01*
X299796417Y-96905101D01*
X299875632Y-96837444D01*
X299919570Y-96799918D01*
X299919571Y-96799917D01*
X299925342Y-96794988D01*
X300024280Y-96657301D01*
X300030459Y-96641931D01*
X300084685Y-96507041D01*
X300084686Y-96507039D01*
X300087520Y-96499988D01*
X300103606Y-96386958D01*
X300110828Y-96336216D01*
X300110828Y-96336213D01*
X300111409Y-96332132D01*
X300111564Y-96317354D01*
X300109759Y-96302434D01*
X300101023Y-96230246D01*
X300091195Y-96149034D01*
X300031264Y-95990431D01*
X299935231Y-95850703D01*
X299933128Y-95848829D01*
X299903944Y-95786355D01*
X299904484Y-95782354D01*
X330970237Y-95782354D01*
X330990875Y-95939116D01*
X331051383Y-96085195D01*
X331147637Y-96210636D01*
X331273078Y-96306890D01*
X331419157Y-96367398D01*
X331575919Y-96388036D01*
X331584107Y-96386958D01*
X331724493Y-96368476D01*
X331732681Y-96367398D01*
X331878760Y-96306890D01*
X331949215Y-96252828D01*
X332015435Y-96227228D01*
X332084984Y-96241493D01*
X332102622Y-96252827D01*
X332173078Y-96306890D01*
X332319157Y-96367398D01*
X332475919Y-96388036D01*
X332484107Y-96386958D01*
X332624493Y-96368476D01*
X332632681Y-96367398D01*
X332778760Y-96306890D01*
X332899215Y-96214462D01*
X332965436Y-96188862D01*
X333034984Y-96203127D01*
X333052623Y-96214462D01*
X333173078Y-96306890D01*
X333319157Y-96367398D01*
X333475919Y-96388036D01*
X333484107Y-96386958D01*
X333624493Y-96368476D01*
X333632681Y-96367398D01*
X333778760Y-96306890D01*
X333904201Y-96210636D01*
X334000455Y-96085195D01*
X334060963Y-95939116D01*
X334081601Y-95782354D01*
X334060963Y-95625592D01*
X334000455Y-95479513D01*
X333908027Y-95359058D01*
X333882427Y-95292837D01*
X333896692Y-95223289D01*
X333908027Y-95205650D01*
X333985084Y-95105227D01*
X334000455Y-95085195D01*
X334060963Y-94939116D01*
X334066139Y-94899804D01*
X334080523Y-94790542D01*
X334081601Y-94782354D01*
X334060963Y-94625592D01*
X334000455Y-94479513D01*
X333904201Y-94354072D01*
X333778760Y-94257818D01*
X333632681Y-94197310D01*
X333475919Y-94176672D01*
X333319157Y-94197310D01*
X333173078Y-94257818D01*
X333166527Y-94262845D01*
X333052623Y-94350246D01*
X332986402Y-94375846D01*
X332916854Y-94361581D01*
X332899215Y-94350246D01*
X332785311Y-94262845D01*
X332778760Y-94257818D01*
X332632681Y-94197310D01*
X332475919Y-94176672D01*
X332319157Y-94197310D01*
X332173078Y-94257818D01*
X332166527Y-94262845D01*
X332102623Y-94311880D01*
X332036403Y-94337480D01*
X331966854Y-94323215D01*
X331949215Y-94311880D01*
X331885311Y-94262845D01*
X331878760Y-94257818D01*
X331732681Y-94197310D01*
X331575919Y-94176672D01*
X331419157Y-94197310D01*
X331273078Y-94257818D01*
X331147637Y-94354072D01*
X331051383Y-94479513D01*
X330990875Y-94625592D01*
X330970237Y-94782354D01*
X330971315Y-94790542D01*
X330985700Y-94899804D01*
X330990875Y-94939116D01*
X331051383Y-95085195D01*
X331066754Y-95105227D01*
X331143811Y-95205650D01*
X331169411Y-95271871D01*
X331155146Y-95341419D01*
X331143811Y-95359058D01*
X331051383Y-95479513D01*
X330990875Y-95625592D01*
X330970237Y-95782354D01*
X299904484Y-95782354D01*
X299913442Y-95715996D01*
X299926179Y-95693823D01*
X299954656Y-95654193D01*
X300024280Y-95557301D01*
X300032156Y-95537710D01*
X300084685Y-95407041D01*
X300084686Y-95407039D01*
X300087520Y-95399988D01*
X300103452Y-95288042D01*
X300110828Y-95236216D01*
X300110828Y-95236213D01*
X300111409Y-95232132D01*
X300111564Y-95217354D01*
X300109759Y-95202434D01*
X300105459Y-95166906D01*
X300091195Y-95049034D01*
X300031264Y-94890431D01*
X300004307Y-94851209D01*
X299939533Y-94756962D01*
X299939532Y-94756961D01*
X299935231Y-94750703D01*
X299929560Y-94745650D01*
X299814311Y-94642966D01*
X299814307Y-94642964D01*
X299808640Y-94637914D01*
X299800833Y-94633780D01*
X299730269Y-94596419D01*
X299658800Y-94558578D01*
X299494360Y-94517273D01*
X299486762Y-94517233D01*
X299486760Y-94517233D01*
X299409587Y-94516829D01*
X299324814Y-94516385D01*
X299317427Y-94518159D01*
X299317423Y-94518159D01*
X299174081Y-94552574D01*
X299159951Y-94555966D01*
X299153207Y-94559447D01*
X299153204Y-94559448D01*
X299076392Y-94599094D01*
X299009288Y-94633729D01*
X299003566Y-94638721D01*
X299003564Y-94638722D01*
X298961291Y-94675599D01*
X298881523Y-94745185D01*
X298847137Y-94794112D01*
X298789617Y-94875955D01*
X298784032Y-94883901D01*
X298722443Y-95041867D01*
X298721451Y-95049400D01*
X298721451Y-95049401D01*
X298701515Y-95200836D01*
X298700313Y-95209965D01*
X298718918Y-95378489D01*
X298742935Y-95444119D01*
X298770806Y-95520278D01*
X298777185Y-95537710D01*
X298781421Y-95544013D01*
X298781421Y-95544014D01*
X298831893Y-95619124D01*
X298871749Y-95678437D01*
X298877368Y-95683550D01*
X298878650Y-95685035D01*
X298908020Y-95749672D01*
X298897783Y-95819926D01*
X298881284Y-95845017D01*
X298881523Y-95845185D01*
X298808768Y-95948705D01*
X298753233Y-95992936D01*
X298682601Y-96000122D01*
X298619297Y-95967981D01*
X298601841Y-95947621D01*
X298539533Y-95856962D01*
X298539532Y-95856961D01*
X298535231Y-95850703D01*
X298529038Y-95845185D01*
X298414311Y-95742966D01*
X298414307Y-95742964D01*
X298408640Y-95737914D01*
X298395386Y-95730896D01*
X298319838Y-95690896D01*
X298258800Y-95658578D01*
X298094360Y-95617273D01*
X298086762Y-95617233D01*
X298086760Y-95617233D01*
X298009587Y-95616829D01*
X297924814Y-95616385D01*
X297917427Y-95618159D01*
X297917423Y-95618159D01*
X297803752Y-95645450D01*
X297759951Y-95655966D01*
X297753207Y-95659447D01*
X297753204Y-95659448D01*
X297634655Y-95720636D01*
X297609288Y-95733729D01*
X297603566Y-95738721D01*
X297603564Y-95738722D01*
X297562934Y-95774166D01*
X297481523Y-95845185D01*
X297446765Y-95894641D01*
X297395221Y-95967981D01*
X297384032Y-95983901D01*
X297381272Y-95990981D01*
X297381270Y-95990984D01*
X297373651Y-96010526D01*
X297330271Y-96066728D01*
X297263391Y-96090555D01*
X297194248Y-96074442D01*
X297144792Y-96023504D01*
X297138392Y-96009294D01*
X297133949Y-95997536D01*
X297133948Y-95997534D01*
X297131264Y-95990431D01*
X297122503Y-95977684D01*
X297039533Y-95856962D01*
X297039532Y-95856961D01*
X297035231Y-95850703D01*
X297029038Y-95845185D01*
X296914311Y-95742966D01*
X296914307Y-95742964D01*
X296908640Y-95737914D01*
X296895386Y-95730896D01*
X296819838Y-95690896D01*
X296758800Y-95658578D01*
X296594360Y-95617273D01*
X296586762Y-95617233D01*
X296586760Y-95617233D01*
X296509587Y-95616829D01*
X296424814Y-95616385D01*
X296417427Y-95618159D01*
X296417423Y-95618159D01*
X296303752Y-95645450D01*
X296259951Y-95655966D01*
X296253207Y-95659447D01*
X296253204Y-95659448D01*
X296134655Y-95720636D01*
X296109288Y-95733729D01*
X296103566Y-95738721D01*
X296103564Y-95738722D01*
X296062934Y-95774166D01*
X295981523Y-95845185D01*
X295946765Y-95894641D01*
X295895221Y-95967981D01*
X295884032Y-95983901D01*
X295822443Y-96141867D01*
X295821451Y-96149400D01*
X295821451Y-96149401D01*
X295801380Y-96301863D01*
X295800313Y-96309965D01*
X251855837Y-96309965D01*
X251814311Y-96272966D01*
X251814307Y-96272964D01*
X251808640Y-96267914D01*
X251780148Y-96252828D01*
X251686278Y-96203127D01*
X251658800Y-96188578D01*
X251494360Y-96147273D01*
X251486762Y-96147233D01*
X251486760Y-96147233D01*
X251409587Y-96146829D01*
X251324814Y-96146385D01*
X251317427Y-96148159D01*
X251317423Y-96148159D01*
X251175087Y-96182332D01*
X251159951Y-96185966D01*
X251153207Y-96189447D01*
X251153204Y-96189448D01*
X251030408Y-96252828D01*
X251009288Y-96263729D01*
X251003566Y-96268721D01*
X251003564Y-96268722D01*
X250998699Y-96272966D01*
X250881523Y-96375185D01*
X250877156Y-96381399D01*
X250799100Y-96492462D01*
X250784032Y-96513901D01*
X250722443Y-96671867D01*
X250721451Y-96679400D01*
X250721451Y-96679401D01*
X250701927Y-96827707D01*
X250700313Y-96839965D01*
X230610294Y-96839965D01*
X230610828Y-96836216D01*
X230610828Y-96836213D01*
X230611409Y-96832132D01*
X230611564Y-96817354D01*
X230609759Y-96802434D01*
X230598289Y-96707658D01*
X230591195Y-96649034D01*
X230531264Y-96490431D01*
X230501695Y-96447408D01*
X230439533Y-96356962D01*
X230439532Y-96356961D01*
X230435231Y-96350703D01*
X230429038Y-96345185D01*
X230314311Y-96242966D01*
X230314307Y-96242964D01*
X230308640Y-96237914D01*
X230158800Y-96158578D01*
X229994360Y-96117273D01*
X229986762Y-96117233D01*
X229986760Y-96117233D01*
X229909587Y-96116829D01*
X229824814Y-96116385D01*
X229817427Y-96118159D01*
X229817423Y-96118159D01*
X229674081Y-96152574D01*
X229659951Y-96155966D01*
X229653207Y-96159447D01*
X229653204Y-96159448D01*
X229568578Y-96203127D01*
X229509288Y-96233729D01*
X229503566Y-96238721D01*
X229503564Y-96238722D01*
X229431988Y-96301162D01*
X229381523Y-96345185D01*
X229352165Y-96386958D01*
X229288777Y-96477150D01*
X229284032Y-96483901D01*
X229222443Y-96641867D01*
X229221451Y-96649400D01*
X229221451Y-96649401D01*
X229201583Y-96800321D01*
X229200313Y-96809965D01*
X212555440Y-96809965D01*
X212572661Y-96800321D01*
X212572665Y-96800318D01*
X212577699Y-96797499D01*
X212582136Y-96793808D01*
X212582140Y-96793806D01*
X212725233Y-96674797D01*
X212729671Y-96671106D01*
X212752203Y-96644014D01*
X212852371Y-96523575D01*
X212852373Y-96523571D01*
X212856064Y-96519134D01*
X212858883Y-96514100D01*
X212858886Y-96514096D01*
X212949824Y-96351715D01*
X212949824Y-96351714D01*
X212952647Y-96346674D01*
X212954503Y-96341207D01*
X212954505Y-96341202D01*
X213014328Y-96164969D01*
X213014329Y-96164964D01*
X213016184Y-96159500D01*
X213017012Y-96153791D01*
X213017013Y-96153786D01*
X213040618Y-95990981D01*
X213044547Y-95963882D01*
X213046027Y-95907354D01*
X213045396Y-95900479D01*
X213028469Y-95716277D01*
X213027940Y-95710520D01*
X212974287Y-95520278D01*
X212961336Y-95494015D01*
X212889416Y-95348178D01*
X212886862Y-95342999D01*
X212840186Y-95280492D01*
X245950677Y-95280492D01*
X245967954Y-95436987D01*
X246022062Y-95584844D01*
X246026299Y-95591150D01*
X246026301Y-95591153D01*
X246054946Y-95633780D01*
X246109877Y-95715526D01*
X246134481Y-95737914D01*
X246198935Y-95796562D01*
X246226329Y-95821489D01*
X246270828Y-95845650D01*
X246358018Y-95892991D01*
X246358020Y-95892992D01*
X246364695Y-95896616D01*
X246372044Y-95898544D01*
X246509638Y-95934641D01*
X246509640Y-95934641D01*
X246516988Y-95936569D01*
X246600299Y-95937878D01*
X246666817Y-95938923D01*
X246666820Y-95938923D01*
X246674414Y-95939042D01*
X246827887Y-95903892D01*
X246968544Y-95833149D01*
X247077285Y-95740276D01*
X247142072Y-95711246D01*
X247212272Y-95721851D01*
X247243912Y-95742894D01*
X247280708Y-95776375D01*
X247280712Y-95776378D01*
X247286329Y-95781489D01*
X247307804Y-95793149D01*
X247418018Y-95852991D01*
X247418020Y-95852992D01*
X247424695Y-95856616D01*
X247432044Y-95858544D01*
X247569638Y-95894641D01*
X247569640Y-95894641D01*
X247576988Y-95896569D01*
X247660299Y-95897878D01*
X247726817Y-95898923D01*
X247726820Y-95898923D01*
X247734414Y-95899042D01*
X247887887Y-95863892D01*
X248028544Y-95793149D01*
X248102194Y-95730246D01*
X248142493Y-95695828D01*
X248142495Y-95695825D01*
X248148267Y-95690896D01*
X248240143Y-95563037D01*
X248298869Y-95416952D01*
X248316533Y-95292837D01*
X248320472Y-95265161D01*
X248320472Y-95265158D01*
X248321053Y-95261077D01*
X248321197Y-95247354D01*
X248302282Y-95091048D01*
X248289255Y-95056574D01*
X248249313Y-94950868D01*
X248249312Y-94950865D01*
X248246629Y-94943766D01*
X248157450Y-94814011D01*
X248080724Y-94745650D01*
X248045567Y-94714326D01*
X248045564Y-94714324D01*
X248039895Y-94709273D01*
X247900750Y-94635599D01*
X247830538Y-94617963D01*
X247755417Y-94599094D01*
X247755415Y-94599094D01*
X247748047Y-94597243D01*
X247740449Y-94597203D01*
X247740447Y-94597203D01*
X247673238Y-94596851D01*
X247590603Y-94596419D01*
X247583224Y-94598191D01*
X247583220Y-94598191D01*
X247444886Y-94631402D01*
X247444882Y-94631403D01*
X247437507Y-94633174D01*
X247297598Y-94705386D01*
X247195889Y-94794113D01*
X247131408Y-94823820D01*
X247061101Y-94813951D01*
X247029243Y-94793240D01*
X246985567Y-94754326D01*
X246985564Y-94754324D01*
X246979895Y-94749273D01*
X246973053Y-94745650D01*
X246847462Y-94679153D01*
X246847463Y-94679153D01*
X246840750Y-94675599D01*
X246824041Y-94671402D01*
X246695417Y-94639094D01*
X246695415Y-94639094D01*
X246688047Y-94637243D01*
X246680449Y-94637203D01*
X246680447Y-94637203D01*
X246613238Y-94636851D01*
X246530603Y-94636419D01*
X246523224Y-94638191D01*
X246523220Y-94638191D01*
X246384886Y-94671402D01*
X246384882Y-94671403D01*
X246377507Y-94673174D01*
X246237598Y-94745386D01*
X246231876Y-94750378D01*
X246231874Y-94750379D01*
X246124678Y-94843892D01*
X246124675Y-94843895D01*
X246118953Y-94848887D01*
X246108296Y-94864050D01*
X246041386Y-94959254D01*
X246028420Y-94977702D01*
X245971228Y-95124393D01*
X245968962Y-95141605D01*
X245955040Y-95247354D01*
X245950677Y-95280492D01*
X212840186Y-95280492D01*
X212775928Y-95194440D01*
X212772049Y-95189245D01*
X212772048Y-95189244D01*
X212768596Y-95184621D01*
X212746134Y-95163857D01*
X212627688Y-95054367D01*
X212627686Y-95054365D01*
X212623447Y-95050447D01*
X212456278Y-94944971D01*
X212450918Y-94942833D01*
X212450915Y-94942831D01*
X212343066Y-94899804D01*
X212272686Y-94871725D01*
X212267026Y-94870599D01*
X212267022Y-94870598D01*
X212084488Y-94834290D01*
X212084486Y-94834290D01*
X212078821Y-94833163D01*
X212073046Y-94833087D01*
X212073042Y-94833087D01*
X211974606Y-94831799D01*
X211881175Y-94830576D01*
X211875478Y-94831555D01*
X211875477Y-94831555D01*
X211702073Y-94861351D01*
X211686366Y-94864050D01*
X211500921Y-94932464D01*
X211495960Y-94935416D01*
X211495959Y-94935416D01*
X211336015Y-95030572D01*
X211336012Y-95030574D01*
X211331047Y-95033528D01*
X211326707Y-95037334D01*
X211326703Y-95037337D01*
X211203756Y-95145160D01*
X211182436Y-95163857D01*
X211178861Y-95168392D01*
X211178860Y-95168393D01*
X211175397Y-95172786D01*
X211063604Y-95314595D01*
X211005724Y-95355707D01*
X210934804Y-95359001D01*
X210873361Y-95323430D01*
X210863697Y-95311977D01*
X210772049Y-95189245D01*
X210772048Y-95189244D01*
X210768596Y-95184621D01*
X210746134Y-95163857D01*
X210627688Y-95054367D01*
X210627686Y-95054365D01*
X210623447Y-95050447D01*
X210456278Y-94944971D01*
X210450918Y-94942833D01*
X210450915Y-94942831D01*
X210343066Y-94899804D01*
X210272686Y-94871725D01*
X210267026Y-94870599D01*
X210267022Y-94870598D01*
X210084488Y-94834290D01*
X210084486Y-94834290D01*
X210078821Y-94833163D01*
X210073046Y-94833087D01*
X210073042Y-94833087D01*
X209974606Y-94831799D01*
X209881175Y-94830576D01*
X209875478Y-94831555D01*
X209875477Y-94831555D01*
X209702073Y-94861351D01*
X209686366Y-94864050D01*
X209500921Y-94932464D01*
X209495960Y-94935416D01*
X209495959Y-94935416D01*
X209336015Y-95030572D01*
X209336012Y-95030574D01*
X209331047Y-95033528D01*
X209326707Y-95037334D01*
X209326703Y-95037337D01*
X209203756Y-95145160D01*
X209182436Y-95163857D01*
X209178861Y-95168392D01*
X209178860Y-95168393D01*
X209175397Y-95172786D01*
X209063604Y-95314595D01*
X209005724Y-95355707D01*
X208934804Y-95359001D01*
X208873361Y-95323430D01*
X208863697Y-95311977D01*
X208772049Y-95189245D01*
X208772048Y-95189244D01*
X208768596Y-95184621D01*
X208746134Y-95163857D01*
X208627688Y-95054367D01*
X208627686Y-95054365D01*
X208623447Y-95050447D01*
X208456278Y-94944971D01*
X208450918Y-94942833D01*
X208450915Y-94942831D01*
X208343066Y-94899804D01*
X208272686Y-94871725D01*
X208267026Y-94870599D01*
X208267022Y-94870598D01*
X208084488Y-94834290D01*
X208084486Y-94834290D01*
X208078821Y-94833163D01*
X208073046Y-94833087D01*
X208073042Y-94833087D01*
X207974606Y-94831799D01*
X207881175Y-94830576D01*
X207875478Y-94831555D01*
X207875477Y-94831555D01*
X207702073Y-94861351D01*
X207686366Y-94864050D01*
X207500921Y-94932464D01*
X207495960Y-94935416D01*
X207495959Y-94935416D01*
X207336015Y-95030572D01*
X207336012Y-95030574D01*
X207331047Y-95033528D01*
X207326704Y-95037337D01*
X207326697Y-95037342D01*
X207216508Y-95133976D01*
X207152104Y-95163854D01*
X207081771Y-95154168D01*
X207027840Y-95107996D01*
X207021163Y-95096448D01*
X207014792Y-95083945D01*
X206968969Y-94994012D01*
X206879261Y-94904304D01*
X206766223Y-94846708D01*
X206756434Y-94845158D01*
X206756432Y-94845157D01*
X206729070Y-94840824D01*
X206672438Y-94831854D01*
X205966062Y-94831854D01*
X205259401Y-94831855D01*
X205254508Y-94832630D01*
X205254507Y-94832630D01*
X205175413Y-94845156D01*
X205175411Y-94845157D01*
X205165615Y-94846708D01*
X205052577Y-94904304D01*
X204962869Y-94994012D01*
X204905273Y-95107050D01*
X204890419Y-95200835D01*
X200506419Y-95200835D01*
X200506419Y-94088367D01*
X286766181Y-94088367D01*
X286779109Y-94285607D01*
X286827764Y-94477188D01*
X286910518Y-94656695D01*
X287024598Y-94818115D01*
X287053950Y-94846708D01*
X287152623Y-94942831D01*
X287166185Y-94956043D01*
X287330536Y-95065858D01*
X287335838Y-95068136D01*
X287335840Y-95068137D01*
X287489083Y-95133976D01*
X287512147Y-95143885D01*
X287583586Y-95160050D01*
X287699300Y-95186234D01*
X287699306Y-95186235D01*
X287704937Y-95187509D01*
X287710708Y-95187736D01*
X287710710Y-95187736D01*
X287771303Y-95190116D01*
X287902447Y-95195269D01*
X288015771Y-95178838D01*
X288092351Y-95167735D01*
X288092356Y-95167734D01*
X288098065Y-95166906D01*
X288103529Y-95165051D01*
X288103534Y-95165050D01*
X288279767Y-95105227D01*
X288279772Y-95105225D01*
X288285239Y-95103369D01*
X288293776Y-95098588D01*
X288452661Y-95009608D01*
X288452665Y-95009605D01*
X288457699Y-95006786D01*
X288462136Y-95003095D01*
X288462140Y-95003093D01*
X288605233Y-94884084D01*
X288609671Y-94880393D01*
X288649396Y-94832629D01*
X288732371Y-94732862D01*
X288732373Y-94732858D01*
X288736064Y-94728421D01*
X288738885Y-94723384D01*
X288742159Y-94718620D01*
X288743512Y-94719550D01*
X288788760Y-94675262D01*
X288858292Y-94660915D01*
X288924542Y-94686437D01*
X288950854Y-94713770D01*
X288981379Y-94756962D01*
X289024598Y-94818115D01*
X289053950Y-94846708D01*
X289152623Y-94942831D01*
X289166185Y-94956043D01*
X289330536Y-95065858D01*
X289335838Y-95068136D01*
X289335840Y-95068137D01*
X289489083Y-95133976D01*
X289512147Y-95143885D01*
X289583586Y-95160050D01*
X289699300Y-95186234D01*
X289699306Y-95186235D01*
X289704937Y-95187509D01*
X289710708Y-95187736D01*
X289710710Y-95187736D01*
X289771303Y-95190116D01*
X289902447Y-95195269D01*
X290015771Y-95178838D01*
X290092351Y-95167735D01*
X290092356Y-95167734D01*
X290098065Y-95166906D01*
X290103529Y-95165051D01*
X290103534Y-95165050D01*
X290279767Y-95105227D01*
X290279772Y-95105225D01*
X290285239Y-95103369D01*
X290293776Y-95098588D01*
X290452661Y-95009608D01*
X290452665Y-95009605D01*
X290457699Y-95006786D01*
X290462136Y-95003095D01*
X290462140Y-95003093D01*
X290598683Y-94889532D01*
X290663847Y-94861351D01*
X290733903Y-94872875D01*
X290786607Y-94920444D01*
X290791517Y-94929199D01*
X290842869Y-95029983D01*
X290932577Y-95119691D01*
X291045615Y-95177287D01*
X291055404Y-95178837D01*
X291055406Y-95178838D01*
X291077468Y-95182332D01*
X291139400Y-95192141D01*
X291845776Y-95192141D01*
X292552437Y-95192140D01*
X292570717Y-95189245D01*
X292636425Y-95178839D01*
X292636427Y-95178838D01*
X292646223Y-95177287D01*
X292663679Y-95168393D01*
X292691596Y-95154168D01*
X292759261Y-95119691D01*
X292848969Y-95029983D01*
X292906565Y-94916945D01*
X292909640Y-94897534D01*
X292916360Y-94855101D01*
X292921419Y-94823160D01*
X292921418Y-93410123D01*
X292914959Y-93369337D01*
X292908117Y-93326135D01*
X292908116Y-93326133D01*
X292906565Y-93316337D01*
X292848969Y-93203299D01*
X292759261Y-93113591D01*
X292646223Y-93055995D01*
X292636434Y-93054445D01*
X292636432Y-93054444D01*
X292609070Y-93050111D01*
X292552438Y-93041141D01*
X291846062Y-93041141D01*
X291139401Y-93041142D01*
X291134508Y-93041917D01*
X291134507Y-93041917D01*
X291055413Y-93054443D01*
X291055411Y-93054444D01*
X291045615Y-93055995D01*
X290932577Y-93113591D01*
X290842869Y-93203299D01*
X290812114Y-93263659D01*
X290790208Y-93306651D01*
X290741459Y-93358266D01*
X290672544Y-93375332D01*
X290605343Y-93352431D01*
X290592412Y-93341972D01*
X290507694Y-93263659D01*
X290507688Y-93263655D01*
X290503447Y-93259734D01*
X290336278Y-93154258D01*
X290330918Y-93152120D01*
X290330915Y-93152118D01*
X290223066Y-93109091D01*
X290152686Y-93081012D01*
X290147026Y-93079886D01*
X290147022Y-93079885D01*
X289964488Y-93043577D01*
X289964486Y-93043577D01*
X289958821Y-93042450D01*
X289953046Y-93042374D01*
X289953042Y-93042374D01*
X289854606Y-93041086D01*
X289761175Y-93039863D01*
X289755478Y-93040842D01*
X289755477Y-93040842D01*
X289641085Y-93060498D01*
X289566366Y-93073337D01*
X289380921Y-93141751D01*
X289375960Y-93144703D01*
X289375959Y-93144703D01*
X289216015Y-93239859D01*
X289216012Y-93239861D01*
X289211047Y-93242815D01*
X289206707Y-93246621D01*
X289206703Y-93246624D01*
X289079401Y-93358266D01*
X289062436Y-93373144D01*
X288943604Y-93523882D01*
X288885724Y-93564994D01*
X288814804Y-93568288D01*
X288753361Y-93532717D01*
X288743697Y-93521264D01*
X288652049Y-93398532D01*
X288652048Y-93398531D01*
X288648596Y-93393908D01*
X288610039Y-93358266D01*
X288507688Y-93263654D01*
X288507686Y-93263652D01*
X288503447Y-93259734D01*
X288336278Y-93154258D01*
X288330918Y-93152120D01*
X288330915Y-93152118D01*
X288223066Y-93109091D01*
X288152686Y-93081012D01*
X288147026Y-93079886D01*
X288147022Y-93079885D01*
X287964488Y-93043577D01*
X287964486Y-93043577D01*
X287958821Y-93042450D01*
X287953046Y-93042374D01*
X287953042Y-93042374D01*
X287854606Y-93041086D01*
X287761175Y-93039863D01*
X287755478Y-93040842D01*
X287755477Y-93040842D01*
X287641085Y-93060498D01*
X287566366Y-93073337D01*
X287380921Y-93141751D01*
X287375960Y-93144703D01*
X287375959Y-93144703D01*
X287216015Y-93239859D01*
X287216012Y-93239861D01*
X287211047Y-93242815D01*
X287206707Y-93246621D01*
X287206703Y-93246624D01*
X287079401Y-93358266D01*
X287062436Y-93373144D01*
X287058861Y-93377679D01*
X287058860Y-93377680D01*
X286945668Y-93521264D01*
X286940064Y-93528372D01*
X286848029Y-93703302D01*
X286789414Y-93892074D01*
X286766181Y-94088367D01*
X200506419Y-94088367D01*
X200506419Y-87143854D01*
X200526421Y-87075733D01*
X200580077Y-87029240D01*
X200632419Y-87017854D01*
X384579419Y-87017854D01*
X384647540Y-87037856D01*
G37*
G04 #@! TD.AperFunction*
G04 #@! TA.AperFunction,Conductor*
G36*
X269907972Y-112168164D02*
G01*
X269975770Y-112189233D01*
X270021414Y-112243613D01*
X270028076Y-112262983D01*
X270049456Y-112346749D01*
X270059553Y-112371126D01*
X270068064Y-112402889D01*
X270070437Y-112420910D01*
X270070436Y-112453806D01*
X270068064Y-112471817D01*
X270059553Y-112503579D01*
X270052599Y-112520369D01*
X270036152Y-112548858D01*
X270025093Y-112563270D01*
X270001835Y-112586528D01*
X269987424Y-112597586D01*
X269958934Y-112614034D01*
X269942144Y-112620988D01*
X269910382Y-112629499D01*
X269892371Y-112631871D01*
X269859467Y-112631871D01*
X269841456Y-112629499D01*
X269809694Y-112620988D01*
X269792904Y-112614034D01*
X269764414Y-112597586D01*
X269750003Y-112586528D01*
X269726745Y-112563270D01*
X269715686Y-112548858D01*
X269699239Y-112520369D01*
X269692285Y-112503579D01*
X269683774Y-112471817D01*
X269681402Y-112453806D01*
X269681401Y-112420910D01*
X269683774Y-112402889D01*
X269692285Y-112371126D01*
X269702382Y-112346749D01*
X269718798Y-112298857D01*
X269727107Y-112268571D01*
X269727433Y-112267110D01*
X269727439Y-112267086D01*
X269727714Y-112265851D01*
X269727771Y-112265747D01*
X269727804Y-112265616D01*
X269727839Y-112265625D01*
X269762065Y-112203718D01*
X269824555Y-112170020D01*
X269852672Y-112167295D01*
X269907972Y-112168164D01*
G37*
G04 #@! TD.AperFunction*
G04 #@! TA.AperFunction,Conductor*
G36*
X272410116Y-112052686D02*
G01*
X272418304Y-112051608D01*
X272424609Y-112051608D01*
X272492730Y-112071610D01*
X272539223Y-112125266D01*
X272548300Y-112164500D01*
X272549892Y-112164329D01*
X272557481Y-112234917D01*
X272558594Y-112239277D01*
X272558594Y-112239278D01*
X272560723Y-112247618D01*
X272569519Y-112282079D01*
X272583994Y-112338792D01*
X272586830Y-112353508D01*
X272590437Y-112380908D01*
X272590436Y-112413804D01*
X272588064Y-112431816D01*
X272579553Y-112463579D01*
X272572599Y-112480369D01*
X272556151Y-112508859D01*
X272545093Y-112523270D01*
X272521835Y-112546528D01*
X272507424Y-112557586D01*
X272478934Y-112574034D01*
X272462144Y-112580988D01*
X272430382Y-112589499D01*
X272412371Y-112591871D01*
X272379467Y-112591871D01*
X272361456Y-112589499D01*
X272329694Y-112580988D01*
X272312904Y-112574034D01*
X272284414Y-112557586D01*
X272270003Y-112546528D01*
X272246745Y-112523270D01*
X272235687Y-112508859D01*
X272219239Y-112480369D01*
X272212285Y-112463579D01*
X272203774Y-112431818D01*
X272201402Y-112413808D01*
X272201401Y-112380908D01*
X272202243Y-112374513D01*
X272204308Y-112358832D01*
X272210038Y-112334424D01*
X272221595Y-112300711D01*
X272221600Y-112300695D01*
X272222231Y-112298854D01*
X272222750Y-112296964D01*
X272230132Y-112270057D01*
X272230138Y-112270032D01*
X272230539Y-112268572D01*
X272231147Y-112265851D01*
X272237639Y-112236754D01*
X272239050Y-112230432D01*
X272239882Y-112172150D01*
X272260854Y-112104321D01*
X272315168Y-112058599D01*
X272382315Y-112049026D01*
X272410116Y-112052686D01*
G37*
G04 #@! TD.AperFunction*
G04 #@! TA.AperFunction,Conductor*
G36*
X264308942Y-111531091D02*
G01*
X264396999Y-111554192D01*
X264397001Y-111554192D01*
X264404349Y-111556120D01*
X264490725Y-111557477D01*
X264566277Y-111558664D01*
X264566280Y-111558664D01*
X264573876Y-111558783D01*
X264668065Y-111537211D01*
X264738930Y-111541500D01*
X264796228Y-111583422D01*
X264821766Y-111649667D01*
X264807435Y-111719202D01*
X264780719Y-111753473D01*
X264749116Y-111782060D01*
X264749113Y-111782063D01*
X264745444Y-111785382D01*
X264708119Y-111831691D01*
X264709213Y-111832572D01*
X264704130Y-111841115D01*
X264695699Y-111851528D01*
X264693700Y-111853571D01*
X264692947Y-111852993D01*
X264639287Y-111922924D01*
X264616037Y-111946174D01*
X264601617Y-111957239D01*
X264573131Y-111973684D01*
X264556341Y-111980638D01*
X264524579Y-111989149D01*
X264506568Y-111991521D01*
X264473664Y-111991521D01*
X264455653Y-111989149D01*
X264423891Y-111980638D01*
X264407101Y-111973684D01*
X264378615Y-111957239D01*
X264364195Y-111946174D01*
X264340945Y-111922924D01*
X264287285Y-111852993D01*
X264286433Y-111853647D01*
X264285629Y-111852882D01*
X264272131Y-111836213D01*
X264266198Y-111827183D01*
X264267354Y-111826217D01*
X264226479Y-111777311D01*
X264192271Y-111746252D01*
X264155283Y-111685654D01*
X264156928Y-111614677D01*
X264196685Y-111555856D01*
X264261932Y-111527867D01*
X264308942Y-111531091D01*
G37*
G04 #@! TD.AperFunction*
G04 #@! TA.AperFunction,Conductor*
G36*
X276411276Y-110337356D02*
G01*
X276457769Y-110391012D01*
X276468077Y-110426907D01*
X276480875Y-110524116D01*
X276541383Y-110670195D01*
X276637637Y-110795636D01*
X276763078Y-110891890D01*
X276909157Y-110952398D01*
X277065919Y-110973036D01*
X277074107Y-110971958D01*
X277214493Y-110953476D01*
X277222681Y-110952398D01*
X277368760Y-110891890D01*
X277494201Y-110795636D01*
X277590455Y-110670195D01*
X277650963Y-110524116D01*
X277663761Y-110426907D01*
X277692484Y-110361980D01*
X277751749Y-110322889D01*
X277788683Y-110317354D01*
X278596002Y-110317354D01*
X278615712Y-110318905D01*
X278709814Y-110333809D01*
X278747307Y-110345991D01*
X278823254Y-110384688D01*
X278855146Y-110407860D01*
X278915413Y-110468127D01*
X278938585Y-110500019D01*
X278977282Y-110575966D01*
X278989464Y-110613459D01*
X279004368Y-110707561D01*
X279005919Y-110727271D01*
X279005919Y-114707437D01*
X279004368Y-114727147D01*
X278989464Y-114821249D01*
X278977282Y-114858742D01*
X278938585Y-114934689D01*
X278915413Y-114966581D01*
X278855146Y-115026848D01*
X278823254Y-115050020D01*
X278747307Y-115088717D01*
X278709814Y-115100899D01*
X278615712Y-115115803D01*
X278596002Y-115117354D01*
X258215836Y-115117354D01*
X258196126Y-115115803D01*
X258102024Y-115100899D01*
X258064531Y-115088717D01*
X257988584Y-115050020D01*
X257956692Y-115026848D01*
X257896425Y-114966581D01*
X257873253Y-114934689D01*
X257834556Y-114858742D01*
X257822374Y-114821249D01*
X257807470Y-114727147D01*
X257805919Y-114707437D01*
X257805919Y-113017354D01*
X266730237Y-113017354D01*
X266731315Y-113025542D01*
X266748481Y-113155928D01*
X266750875Y-113174116D01*
X266811383Y-113320195D01*
X266816410Y-113326746D01*
X266895925Y-113430372D01*
X266907637Y-113445636D01*
X267033078Y-113541890D01*
X267179157Y-113602398D01*
X267335919Y-113623036D01*
X267344107Y-113621958D01*
X267484493Y-113603476D01*
X267492681Y-113602398D01*
X267638760Y-113541890D01*
X267750731Y-113455972D01*
X267816952Y-113430372D01*
X267886500Y-113444637D01*
X267904139Y-113455972D01*
X268003078Y-113531890D01*
X268149157Y-113592398D01*
X268305919Y-113613036D01*
X268314107Y-113611958D01*
X268454493Y-113593476D01*
X268462681Y-113592398D01*
X268608760Y-113531890D01*
X268734201Y-113435636D01*
X268830455Y-113310195D01*
X268890963Y-113164116D01*
X268911601Y-113007354D01*
X268893605Y-112870659D01*
X268892041Y-112858780D01*
X268890963Y-112850592D01*
X268830455Y-112704513D01*
X268746897Y-112595618D01*
X268739224Y-112585618D01*
X268734201Y-112579072D01*
X268608760Y-112482818D01*
X268462681Y-112422310D01*
X268305919Y-112401672D01*
X268149157Y-112422310D01*
X268003078Y-112482818D01*
X267935958Y-112534321D01*
X267891107Y-112568736D01*
X267824886Y-112594336D01*
X267755338Y-112580071D01*
X267737699Y-112568736D01*
X267645311Y-112497845D01*
X267638760Y-112492818D01*
X267492681Y-112432310D01*
X267335919Y-112411672D01*
X267179157Y-112432310D01*
X267033078Y-112492818D01*
X266907637Y-112589072D01*
X266811383Y-112714513D01*
X266750875Y-112860592D01*
X266730237Y-113017354D01*
X257805919Y-113017354D01*
X257805919Y-112427271D01*
X257807470Y-112407561D01*
X257822374Y-112313459D01*
X257834556Y-112275966D01*
X257873253Y-112200019D01*
X257896425Y-112168127D01*
X257956692Y-112107860D01*
X257988584Y-112084688D01*
X258064531Y-112045991D01*
X258102024Y-112033809D01*
X258196126Y-112018905D01*
X258215836Y-112017354D01*
X263847220Y-112017354D01*
X263915341Y-112037356D01*
X263956216Y-112086262D01*
X263958291Y-112085064D01*
X263962419Y-112092215D01*
X263965580Y-112099845D01*
X264061834Y-112225286D01*
X264187275Y-112321540D01*
X264333354Y-112382048D01*
X264490116Y-112402686D01*
X264498304Y-112401608D01*
X264638690Y-112383126D01*
X264646878Y-112382048D01*
X264792957Y-112321540D01*
X264918398Y-112225286D01*
X265014652Y-112099845D01*
X265017813Y-112092215D01*
X265021941Y-112085064D01*
X265023835Y-112086158D01*
X265061160Y-112039849D01*
X265133012Y-112017354D01*
X269211339Y-112017354D01*
X269279460Y-112037356D01*
X269325953Y-112091012D01*
X269336057Y-112161286D01*
X269327748Y-112191572D01*
X269307444Y-112240592D01*
X269290875Y-112280592D01*
X269270237Y-112437354D01*
X269290875Y-112594116D01*
X269351383Y-112740195D01*
X269447637Y-112865636D01*
X269573078Y-112961890D01*
X269719157Y-113022398D01*
X269875919Y-113043036D01*
X269884107Y-113041958D01*
X270024493Y-113023476D01*
X270032681Y-113022398D01*
X270178760Y-112961890D01*
X270304201Y-112865636D01*
X270400455Y-112740195D01*
X270460963Y-112594116D01*
X270481601Y-112437354D01*
X270460963Y-112280592D01*
X270444395Y-112240592D01*
X270424090Y-112191572D01*
X270416501Y-112120982D01*
X270448281Y-112057495D01*
X270509339Y-112021268D01*
X270540499Y-112017354D01*
X271714771Y-112017354D01*
X271782892Y-112037356D01*
X271829385Y-112091012D01*
X271839489Y-112161286D01*
X271831181Y-112191568D01*
X271810875Y-112240592D01*
X271790237Y-112397354D01*
X271810875Y-112554116D01*
X271871383Y-112700195D01*
X271967637Y-112825636D01*
X272093078Y-112921890D01*
X272239157Y-112982398D01*
X272395919Y-113003036D01*
X272404107Y-113001958D01*
X272544493Y-112983476D01*
X272552681Y-112982398D01*
X272698760Y-112921890D01*
X272824201Y-112825636D01*
X272920455Y-112700195D01*
X272980963Y-112554116D01*
X273001601Y-112397354D01*
X272980963Y-112240592D01*
X272960658Y-112191571D01*
X272953069Y-112120983D01*
X272984848Y-112057496D01*
X273045906Y-112021268D01*
X273077067Y-112017354D01*
X273425919Y-112017354D01*
X273493146Y-111992455D01*
X273493150Y-111992454D01*
X274244845Y-111714048D01*
X274505919Y-111617354D01*
X274505919Y-110727271D01*
X274507470Y-110707561D01*
X274522374Y-110613459D01*
X274534556Y-110575966D01*
X274573253Y-110500019D01*
X274596425Y-110468127D01*
X274656692Y-110407860D01*
X274688584Y-110384688D01*
X274764531Y-110345991D01*
X274802024Y-110333809D01*
X274896126Y-110318905D01*
X274915836Y-110317354D01*
X276343155Y-110317354D01*
X276411276Y-110337356D01*
G37*
G04 #@! TD.AperFunction*
M02*
