G04 #@! TF.GenerationSoftware,KiCad,Pcbnew,(6.0.4)*
G04 #@! TF.CreationDate,2022-05-22T11:17:41+03:00*
G04 #@! TF.ProjectId,dock_rs232_prt,646f636b-5f72-4733-9233-325f7072742e,rev?*
G04 #@! TF.SameCoordinates,Original*
G04 #@! TF.FileFunction,Soldermask,Top*
G04 #@! TF.FilePolarity,Negative*
%FSLAX46Y46*%
G04 Gerber Fmt 4.6, Leading zero omitted, Abs format (unit mm)*
G04 Created by KiCad (PCBNEW (6.0.4)) date 2022-05-22 11:17:41*
%MOMM*%
%LPD*%
G01*
G04 APERTURE LIST*
G04 Aperture macros list*
%AMRoundRect*
0 Rectangle with rounded corners*
0 $1 Rounding radius*
0 $2 $3 $4 $5 $6 $7 $8 $9 X,Y pos of 4 corners*
0 Add a 4 corners polygon primitive as box body*
4,1,4,$2,$3,$4,$5,$6,$7,$8,$9,$2,$3,0*
0 Add four circle primitives for the rounded corners*
1,1,$1+$1,$2,$3*
1,1,$1+$1,$4,$5*
1,1,$1+$1,$6,$7*
1,1,$1+$1,$8,$9*
0 Add four rect primitives between the rounded corners*
20,1,$1+$1,$2,$3,$4,$5,0*
20,1,$1+$1,$4,$5,$6,$7,0*
20,1,$1+$1,$6,$7,$8,$9,0*
20,1,$1+$1,$8,$9,$2,$3,0*%
G04 Aperture macros list end*
%ADD10C,2.600000*%
%ADD11R,1.150000X0.500000*%
%ADD12RoundRect,0.140000X-0.140000X-0.170000X0.140000X-0.170000X0.140000X0.170000X-0.140000X0.170000X0*%
%ADD13RoundRect,0.135000X0.185000X-0.135000X0.185000X0.135000X-0.185000X0.135000X-0.185000X-0.135000X0*%
%ADD14R,0.400000X0.500000*%
%ADD15RoundRect,0.135000X0.135000X0.185000X-0.135000X0.185000X-0.135000X-0.185000X0.135000X-0.185000X0*%
%ADD16RoundRect,0.225000X-0.250000X0.225000X-0.250000X-0.225000X0.250000X-0.225000X0.250000X0.225000X0*%
%ADD17RoundRect,0.140000X0.140000X0.170000X-0.140000X0.170000X-0.140000X-0.170000X0.140000X-0.170000X0*%
%ADD18RoundRect,0.140000X-0.170000X0.140000X-0.170000X-0.140000X0.170000X-0.140000X0.170000X0.140000X0*%
%ADD19RoundRect,0.225000X0.250000X-0.225000X0.250000X0.225000X-0.250000X0.225000X-0.250000X-0.225000X0*%
%ADD20R,1.350000X1.350000*%
%ADD21O,1.350000X1.350000*%
%ADD22R,1.500000X1.500000*%
%ADD23RoundRect,0.135000X-0.135000X-0.185000X0.135000X-0.185000X0.135000X0.185000X-0.135000X0.185000X0*%
%ADD24R,0.300000X0.700000*%
%ADD25R,1.800000X1.000000*%
%ADD26R,1.100000X0.300000*%
%ADD27R,0.300000X1.100000*%
%ADD28R,3.800000X3.800000*%
%ADD29RoundRect,0.140000X0.170000X-0.140000X0.170000X0.140000X-0.170000X0.140000X-0.170000X-0.140000X0*%
%ADD30RoundRect,0.135000X-0.185000X0.135000X-0.185000X-0.135000X0.185000X-0.135000X0.185000X0.135000X0*%
%ADD31R,0.300000X0.300000*%
%ADD32R,0.900000X0.300000*%
%ADD33R,0.300000X0.900000*%
%ADD34R,1.800000X1.800000*%
%ADD35R,0.300000X0.850000*%
%ADD36R,2.200000X0.850000*%
%ADD37R,1.400000X1.200000*%
%ADD38RoundRect,0.250000X-0.250000X-0.475000X0.250000X-0.475000X0.250000X0.475000X-0.250000X0.475000X0*%
%ADD39R,1.639799X0.431000*%
G04 APERTURE END LIST*
D10*
X202740569Y-113833157D03*
D11*
X281445919Y-103156201D03*
X281445919Y-104456201D03*
X283345919Y-103806201D03*
D12*
X217025919Y-101507354D03*
X217985919Y-101507354D03*
D13*
X270835919Y-112456201D03*
X270835919Y-111436201D03*
D14*
X273845919Y-111155048D03*
X274645919Y-111155048D03*
D13*
X247651269Y-96871551D03*
X247651269Y-95851551D03*
D15*
X274695919Y-103817354D03*
X273675919Y-103817354D03*
D16*
X298005919Y-93642354D03*
X298005919Y-95192354D03*
D17*
X251795919Y-97947354D03*
X250835919Y-97947354D03*
D18*
X249661269Y-95881551D03*
X249661269Y-96841551D03*
D13*
X247655919Y-106867354D03*
X247655919Y-105847354D03*
D10*
X333434272Y-113833157D03*
D19*
X333485919Y-108877354D03*
X333485919Y-107327354D03*
D20*
X205965919Y-95907354D03*
D21*
X207965919Y-95907354D03*
X209965919Y-95907354D03*
X211965919Y-95907354D03*
X213965919Y-95907354D03*
D18*
X267240116Y-100472004D03*
X267240116Y-101432004D03*
D22*
X296102314Y-102210511D03*
X313869822Y-102210511D03*
D12*
X267095919Y-98236201D03*
X268055919Y-98236201D03*
D22*
X303726488Y-102210511D03*
X306272031Y-102210511D03*
X293557740Y-102210511D03*
D18*
X280105116Y-103437354D03*
X280105116Y-104397354D03*
D22*
X313869822Y-104460511D03*
D18*
X217975919Y-99607354D03*
X217975919Y-100567354D03*
D13*
X262715919Y-103066201D03*
X262715919Y-102046201D03*
D22*
X318956856Y-104460511D03*
D13*
X261685919Y-103056201D03*
X261685919Y-102036201D03*
D10*
X383102927Y-113833157D03*
D22*
X318956856Y-102210511D03*
D23*
X277015919Y-107846201D03*
X278035919Y-107846201D03*
D22*
X298645299Y-102210511D03*
D15*
X238885919Y-99787354D03*
X237865919Y-99787354D03*
D24*
X333687419Y-98542354D03*
X333187419Y-98542354D03*
X332687419Y-98542354D03*
X332187419Y-98542354D03*
X332187419Y-100642354D03*
X332687419Y-100642354D03*
X333187419Y-100642354D03*
X333687419Y-100642354D03*
D25*
X332937419Y-99592354D03*
D26*
X265985919Y-104637354D03*
X265985919Y-105137354D03*
X265985919Y-105637354D03*
X265985919Y-106137354D03*
X265985919Y-106637354D03*
X265985919Y-107137354D03*
X265985919Y-107637354D03*
X265985919Y-108137354D03*
X265985919Y-108637354D03*
D27*
X266785919Y-109437354D03*
X267285919Y-109437354D03*
X267785919Y-109437354D03*
X268285919Y-109437354D03*
X268785919Y-109437354D03*
X269285919Y-109437354D03*
X269785919Y-109437354D03*
X270285919Y-109437354D03*
X270785919Y-109437354D03*
D26*
X271585919Y-108637354D03*
X271585919Y-108137354D03*
X271585919Y-107637354D03*
X271585919Y-107137354D03*
X271585919Y-106637354D03*
X271585919Y-106137354D03*
X271585919Y-105637354D03*
X271585919Y-105137354D03*
X271585919Y-104637354D03*
D27*
X270785919Y-103837354D03*
X270285919Y-103837354D03*
X269785919Y-103837354D03*
X269285919Y-103837354D03*
X268785919Y-103837354D03*
X268285919Y-103837354D03*
X267785919Y-103837354D03*
X267285919Y-103837354D03*
X266785919Y-103837354D03*
D28*
X268785919Y-106637354D03*
D17*
X274655919Y-106797354D03*
X273695919Y-106797354D03*
D22*
X301186952Y-102210511D03*
D18*
X275655919Y-102837354D03*
X275655919Y-103797354D03*
D17*
X276960116Y-110937004D03*
X276000116Y-110937004D03*
D22*
X301186952Y-104460511D03*
D23*
X277035919Y-105866201D03*
X278055919Y-105866201D03*
D22*
X316417530Y-102210511D03*
D29*
X267350116Y-112427004D03*
X267350116Y-111467004D03*
D30*
X334755919Y-98722354D03*
X334755919Y-99742354D03*
D22*
X321495567Y-104460511D03*
D10*
X280893489Y-88317435D03*
D18*
X250661269Y-95881551D03*
X250661269Y-96841551D03*
D30*
X333395919Y-96472354D03*
X333395919Y-97492354D03*
D17*
X217985919Y-107167354D03*
X217025919Y-107167354D03*
D22*
X308812574Y-104460511D03*
X311350317Y-104460511D03*
X306272031Y-104460511D03*
D30*
X331000919Y-98572354D03*
X331000919Y-99592354D03*
D22*
X303726488Y-104460511D03*
D17*
X230875919Y-106087354D03*
X229915919Y-106087354D03*
D18*
X335745919Y-98752354D03*
X335745919Y-99712354D03*
D23*
X273670116Y-101832004D03*
X274690116Y-101832004D03*
D18*
X250665919Y-105877354D03*
X250665919Y-106837354D03*
D17*
X230865919Y-97667354D03*
X229905919Y-97667354D03*
D31*
X248855919Y-101567354D03*
D32*
X249155919Y-101067354D03*
X249155919Y-100567354D03*
X249155919Y-100067354D03*
X249155919Y-99567354D03*
D31*
X248855919Y-99067354D03*
D33*
X248355919Y-98767354D03*
X247855919Y-98767354D03*
X247355919Y-98767354D03*
X246855919Y-98767354D03*
D31*
X246355919Y-99067354D03*
D32*
X246055919Y-99567354D03*
X246055919Y-100067354D03*
X246055919Y-100567354D03*
X246055919Y-101067354D03*
D31*
X246355919Y-101567354D03*
D33*
X246855919Y-101867354D03*
X247355919Y-101867354D03*
X247855919Y-101867354D03*
X248355919Y-101867354D03*
D34*
X247605919Y-100317354D03*
D15*
X238875919Y-102177354D03*
X237855919Y-102177354D03*
X238935919Y-112827354D03*
X237915919Y-112827354D03*
D12*
X262485919Y-106487354D03*
X263445919Y-106487354D03*
D30*
X248645919Y-105847354D03*
X248645919Y-106867354D03*
D15*
X238895919Y-103187354D03*
X237875919Y-103187354D03*
D22*
X308812574Y-102210511D03*
D35*
X288595919Y-98217354D03*
X289095919Y-98217354D03*
X289595919Y-98217354D03*
X289595919Y-96817354D03*
X289095919Y-96817354D03*
X288595919Y-96817354D03*
D22*
X311350317Y-102210511D03*
D17*
X269925919Y-98236201D03*
X268965919Y-98236201D03*
D19*
X331975919Y-108867354D03*
X331975919Y-107317354D03*
D12*
X217055919Y-97717354D03*
X218015919Y-97717354D03*
X263730116Y-102992004D03*
X264690116Y-102992004D03*
D20*
X206065919Y-111207354D03*
D21*
X208065919Y-111207354D03*
X210065919Y-111207354D03*
X212065919Y-111207354D03*
X214065919Y-111207354D03*
D22*
X321495567Y-102210511D03*
D12*
X217025919Y-106207354D03*
X217985919Y-106207354D03*
D15*
X238915919Y-109767354D03*
X237895919Y-109767354D03*
D18*
X217945919Y-108107354D03*
X217945919Y-109067354D03*
D29*
X268310116Y-112417004D03*
X268310116Y-111457004D03*
D36*
X332705919Y-103067354D03*
X332705919Y-105117354D03*
D15*
X274700116Y-108842004D03*
X273680116Y-108842004D03*
D31*
X248860569Y-111563157D03*
D32*
X249160569Y-111063157D03*
X249160569Y-110563157D03*
X249160569Y-110063157D03*
X249160569Y-109563157D03*
D31*
X248860569Y-109063157D03*
D33*
X248360569Y-108763157D03*
X247860569Y-108763157D03*
X247360569Y-108763157D03*
X246860569Y-108763157D03*
D31*
X246360569Y-109063157D03*
D32*
X246060569Y-109563157D03*
X246060569Y-110063157D03*
X246060569Y-110563157D03*
X246060569Y-111063157D03*
D31*
X246360569Y-111563157D03*
D33*
X246860569Y-111863157D03*
X247360569Y-111863157D03*
X247860569Y-111863157D03*
X248360569Y-111863157D03*
D34*
X247610569Y-110313157D03*
D22*
X298645299Y-104460511D03*
D29*
X271805919Y-112407354D03*
X271805919Y-111447354D03*
D13*
X246615919Y-106867354D03*
X246615919Y-105847354D03*
D12*
X217005919Y-110007354D03*
X217965919Y-110007354D03*
D22*
X293557740Y-104460511D03*
D15*
X238925919Y-111797354D03*
X237905919Y-111797354D03*
X278045919Y-106856201D03*
X277025919Y-106856201D03*
D18*
X266250116Y-100472004D03*
X266250116Y-101432004D03*
D23*
X281795919Y-105706201D03*
X282815919Y-105706201D03*
D16*
X296505919Y-93637354D03*
X296505919Y-95187354D03*
D37*
X269885919Y-94366201D03*
X267685919Y-94366201D03*
X267685919Y-96066201D03*
X269885919Y-96066201D03*
D10*
X383102927Y-88317435D03*
D22*
X296102314Y-104460511D03*
D18*
X249665919Y-105877354D03*
X249665919Y-106837354D03*
D17*
X271795919Y-102067354D03*
X270835919Y-102067354D03*
D38*
X329650919Y-96857354D03*
X331550919Y-96857354D03*
D10*
X280893489Y-113833157D03*
D13*
X246611269Y-96871551D03*
X246611269Y-95851551D03*
D23*
X273680116Y-107802004D03*
X274700116Y-107802004D03*
D15*
X274695919Y-109856201D03*
X273675919Y-109856201D03*
D17*
X218025919Y-98677354D03*
X217065919Y-98677354D03*
D22*
X316417530Y-104460511D03*
D30*
X334745919Y-96632354D03*
X334745919Y-97652354D03*
D17*
X251855919Y-108877354D03*
X250895919Y-108877354D03*
D30*
X248641269Y-95851551D03*
X248641269Y-96871551D03*
D29*
X269285919Y-112417354D03*
X269285919Y-111457354D03*
D13*
X266300116Y-112467004D03*
X266300116Y-111447004D03*
D20*
X291845919Y-94116641D03*
D21*
X289845919Y-94116641D03*
X287845919Y-94116641D03*
X285845919Y-94116641D03*
D10*
X333434272Y-88317435D03*
D17*
X251805919Y-98927354D03*
X250845919Y-98927354D03*
D10*
X202740569Y-88317435D03*
D39*
X220653719Y-97672355D03*
X220653719Y-98322353D03*
X220653719Y-98972355D03*
X220653719Y-99622353D03*
X220653719Y-100272352D03*
X220653719Y-100922353D03*
X220653719Y-101572352D03*
X220653719Y-102222353D03*
X227918119Y-102222353D03*
X227918119Y-101572355D03*
X227918119Y-100922353D03*
X227918119Y-100272355D03*
X227918119Y-99622356D03*
X227918119Y-98972355D03*
X227918119Y-98322356D03*
X227918119Y-97672355D03*
D30*
X263630116Y-110797004D03*
X263630116Y-111817004D03*
D29*
X265140116Y-111817004D03*
X265140116Y-110857004D03*
D17*
X251845919Y-107897354D03*
X250885919Y-107897354D03*
D30*
X262630116Y-110797004D03*
X262630116Y-111817004D03*
D39*
X220658369Y-106058158D03*
X220658369Y-106708156D03*
X220658369Y-107358158D03*
X220658369Y-108008156D03*
X220658369Y-108658155D03*
X220658369Y-109308156D03*
X220658369Y-109958155D03*
X220658369Y-110608156D03*
X227922769Y-110608156D03*
X227922769Y-109958158D03*
X227922769Y-109308156D03*
X227922769Y-108658158D03*
X227922769Y-108008159D03*
X227922769Y-107358158D03*
X227922769Y-106708159D03*
X227922769Y-106058158D03*
D23*
X277025919Y-104886201D03*
X278045919Y-104886201D03*
D30*
X265260116Y-100472004D03*
X265260116Y-101492004D03*
D23*
X273665919Y-102817354D03*
X274685919Y-102817354D03*
D15*
X238915919Y-110767354D03*
X237895919Y-110767354D03*
X238885919Y-100787354D03*
X237865919Y-100787354D03*
M02*
