G04 #@! TF.GenerationSoftware,KiCad,Pcbnew,(6.0.4)*
G04 #@! TF.CreationDate,2022-05-22T11:17:41+03:00*
G04 #@! TF.ProjectId,dock_rs232_prt,646f636b-5f72-4733-9233-325f7072742e,rev?*
G04 #@! TF.SameCoordinates,Original*
G04 #@! TF.FileFunction,Copper,L3,Inr*
G04 #@! TF.FilePolarity,Positive*
%FSLAX46Y46*%
G04 Gerber Fmt 4.6, Leading zero omitted, Abs format (unit mm)*
G04 Created by KiCad (PCBNEW (6.0.4)) date 2022-05-22 11:17:41*
%MOMM*%
%LPD*%
G01*
G04 APERTURE LIST*
G04 #@! TA.AperFunction,ComponentPad*
%ADD10C,2.600000*%
G04 #@! TD*
G04 #@! TA.AperFunction,ComponentPad*
%ADD11R,1.350000X1.350000*%
G04 #@! TD*
G04 #@! TA.AperFunction,ComponentPad*
%ADD12O,1.350000X1.350000*%
G04 #@! TD*
G04 #@! TA.AperFunction,ViaPad*
%ADD13C,0.600000*%
G04 #@! TD*
G04 #@! TA.AperFunction,ViaPad*
%ADD14C,0.500000*%
G04 #@! TD*
G04 #@! TA.AperFunction,ViaPad*
%ADD15C,0.400000*%
G04 #@! TD*
G04 #@! TA.AperFunction,Conductor*
%ADD16C,0.300000*%
G04 #@! TD*
G04 #@! TA.AperFunction,Conductor*
%ADD17C,0.250000*%
G04 #@! TD*
G04 #@! TA.AperFunction,Conductor*
%ADD18C,0.200000*%
G04 #@! TD*
G04 APERTURE END LIST*
D10*
X202740569Y-113833157D03*
X333434272Y-113833157D03*
D11*
X205965919Y-95907354D03*
D12*
X207965919Y-95907354D03*
X209965919Y-95907354D03*
X211965919Y-95907354D03*
X213965919Y-95907354D03*
D10*
X383102927Y-113833157D03*
X280893489Y-88317435D03*
D11*
X206065919Y-111207354D03*
D12*
X208065919Y-111207354D03*
X210065919Y-111207354D03*
X212065919Y-111207354D03*
X214065919Y-111207354D03*
D10*
X383102927Y-88317435D03*
X280893489Y-113833157D03*
D11*
X291845919Y-94116641D03*
D12*
X289845919Y-94116641D03*
X287845919Y-94116641D03*
X285845919Y-94116641D03*
D10*
X333434272Y-88317435D03*
X202740569Y-88317435D03*
D13*
X327105919Y-87617354D03*
X328505919Y-97317354D03*
X365105919Y-114617354D03*
X263105919Y-95617354D03*
X378105919Y-87617354D03*
X294105919Y-87617354D03*
X348105919Y-114617354D03*
X249105919Y-87617354D03*
X201105919Y-107617354D03*
X348105919Y-107617354D03*
X378105919Y-107617354D03*
X223105919Y-87617354D03*
X223105919Y-93617354D03*
X211105919Y-87617354D03*
X252455919Y-97937354D03*
X283105919Y-95617354D03*
X238105919Y-114617354D03*
X248635919Y-95267354D03*
X298105919Y-99617354D03*
X348105919Y-95617354D03*
X266480116Y-98250851D03*
X307105919Y-110617354D03*
X230905919Y-106817354D03*
X365105919Y-95617354D03*
X206105919Y-114617354D03*
X296505919Y-92817354D03*
X265260116Y-99842004D03*
X277065919Y-110367354D03*
X333505919Y-109717354D03*
X250665919Y-105287354D03*
X378105919Y-114617354D03*
X384105919Y-96617354D03*
X384105919Y-105617354D03*
X325105919Y-110617354D03*
X270945919Y-96076201D03*
X270525919Y-98236201D03*
X348105919Y-87617354D03*
X275105919Y-95617354D03*
X248655919Y-105287354D03*
D14*
X245225919Y-99447354D03*
D13*
X229525919Y-107037354D03*
X378105919Y-95617354D03*
X316105919Y-110617354D03*
X263105919Y-87617354D03*
X252435919Y-108777354D03*
D14*
X245285919Y-109367354D03*
D13*
X298105919Y-110617354D03*
X365105919Y-87617354D03*
X365105919Y-107617354D03*
X275355919Y-109327354D03*
X261705919Y-106717354D03*
D14*
X250035919Y-100697354D03*
D13*
X279495919Y-103257354D03*
X316105919Y-99617354D03*
X311105919Y-87617354D03*
X267230116Y-99832004D03*
X226105919Y-114617354D03*
X216105919Y-114617354D03*
X278715919Y-104906201D03*
X276105919Y-87617354D03*
X335405919Y-96617354D03*
X249625919Y-105287354D03*
X298005919Y-92817354D03*
D15*
X331825919Y-98602354D03*
D13*
X266250116Y-99832004D03*
X226755919Y-98327354D03*
X267685919Y-93426201D03*
X249655919Y-95277354D03*
X201105919Y-96617354D03*
X252455919Y-98827354D03*
X211105919Y-103617354D03*
X236105919Y-87617354D03*
X230905919Y-98417354D03*
X325105919Y-99617354D03*
D15*
X334050919Y-100657354D03*
D13*
X338105919Y-114617354D03*
X256105919Y-95617354D03*
X332005919Y-109717354D03*
X307105919Y-99617354D03*
X252435919Y-107887354D03*
D14*
X250055919Y-110717354D03*
X289705919Y-99117354D03*
D13*
X236105919Y-93617354D03*
X272395919Y-112397354D03*
X250655919Y-95277354D03*
D14*
X262605919Y-112417354D03*
D13*
X278715919Y-106836201D03*
D14*
X334605919Y-107492354D03*
X333775919Y-106182354D03*
D13*
X278705919Y-105856201D03*
X278205919Y-112117354D03*
X229905919Y-105317354D03*
D14*
X263605919Y-112417354D03*
D13*
X261005919Y-113517354D03*
X229905919Y-96817354D03*
D15*
X275275919Y-111196201D03*
D14*
X284365919Y-103796201D03*
D15*
X275890116Y-111847004D03*
D14*
X335405919Y-106292354D03*
X275285919Y-107777354D03*
X336205919Y-107492354D03*
D13*
X278205919Y-113217354D03*
D14*
X334605919Y-106292354D03*
D13*
X258205919Y-113517354D03*
D15*
X274715919Y-111847004D03*
D13*
X273715919Y-106167354D03*
X269895919Y-111467354D03*
D14*
X335405919Y-107492354D03*
X336205919Y-105092354D03*
X335105919Y-105092354D03*
X262705919Y-101317354D03*
X336205919Y-106292354D03*
D13*
X259605919Y-113517354D03*
X278205919Y-110917354D03*
D14*
X261705919Y-101317354D03*
X332775919Y-106182354D03*
X274705919Y-101217354D03*
X279525919Y-104397354D03*
D13*
X298005919Y-96317354D03*
X299405919Y-95217354D03*
D15*
X276640116Y-102812004D03*
X333475919Y-95782354D03*
X331575919Y-95782354D03*
X332475919Y-95782354D03*
D14*
X247645919Y-105277354D03*
D13*
X296505919Y-96317354D03*
X299405919Y-96317354D03*
D15*
X332475919Y-94782354D03*
D14*
X247665919Y-95247354D03*
D13*
X251415919Y-106847354D03*
D15*
X331575919Y-94782354D03*
X276640116Y-103812004D03*
D13*
X251405919Y-96847354D03*
D15*
X333475919Y-94782354D03*
X277240116Y-103212004D03*
D13*
X264650116Y-102352004D03*
X263445919Y-107107354D03*
D15*
X273245919Y-111437004D03*
X272410116Y-111447004D03*
D13*
X264500116Y-110857004D03*
D15*
X273245919Y-110707004D03*
D13*
X270850116Y-101437004D03*
D14*
X229165919Y-98967354D03*
X226625919Y-99647354D03*
X226355919Y-107307354D03*
X226685919Y-108027354D03*
X221825919Y-109957354D03*
X331105919Y-100242354D03*
X333495919Y-101482354D03*
X216455919Y-106987354D03*
X219435919Y-106057354D03*
X216355919Y-98667354D03*
X219355919Y-97667354D03*
X249945919Y-108237354D03*
X246615919Y-105257354D03*
X249985919Y-98257354D03*
X246605919Y-95287354D03*
X235135919Y-109987354D03*
X229215919Y-109977354D03*
X229205919Y-110727354D03*
X237215919Y-109747354D03*
X229275919Y-101557354D03*
X234415919Y-100787354D03*
X229275919Y-102307354D03*
X236655919Y-99767354D03*
D16*
X227575919Y-100557354D02*
X209365919Y-100557354D01*
X205965919Y-97157354D02*
X205965919Y-95907354D01*
X229165919Y-98967354D02*
X227575919Y-100557354D01*
X209365919Y-100557354D02*
X205965919Y-97157354D01*
X207965919Y-97667354D02*
X207965919Y-95907354D01*
X210015919Y-99717354D02*
X207965919Y-97667354D01*
X226625919Y-99647354D02*
X226555919Y-99717354D01*
X226555919Y-99717354D02*
X210015919Y-99717354D01*
X206065919Y-110917354D02*
X206065919Y-111207354D01*
X208855919Y-108127354D02*
X206065919Y-110917354D01*
X226355919Y-107307354D02*
X225535919Y-108127354D01*
X225535919Y-108127354D02*
X208855919Y-108127354D01*
X209485919Y-109107354D02*
X208065919Y-110527354D01*
X225605919Y-109107354D02*
X209485919Y-109107354D01*
X208065919Y-110527354D02*
X208065919Y-111207354D01*
X226685919Y-108027354D02*
X225605919Y-109107354D01*
X221785919Y-109917354D02*
X212545919Y-109917354D01*
X212065919Y-110397354D02*
X212065919Y-111207354D01*
X221825919Y-109957354D02*
X221785919Y-109917354D01*
X212545919Y-109917354D02*
X212065919Y-110397354D01*
D17*
X333495919Y-101482354D02*
X331675919Y-101482354D01*
X331675919Y-101482354D02*
X331105919Y-100912354D01*
X331105919Y-100912354D02*
X331105919Y-100242354D01*
D18*
X216995919Y-106057354D02*
X219435919Y-106057354D01*
X216455919Y-106987354D02*
X216455919Y-106597354D01*
X216455919Y-106597354D02*
X216995919Y-106057354D01*
X216985919Y-97667354D02*
X219355919Y-97667354D01*
X216355919Y-98297354D02*
X216985919Y-97667354D01*
X216355919Y-98667354D02*
X216355919Y-98297354D01*
X235125919Y-109977354D02*
X229215919Y-109977354D01*
X235135919Y-109987354D02*
X235125919Y-109977354D01*
X229215919Y-110717354D02*
X229205919Y-110727354D01*
X236038812Y-110717354D02*
X229215919Y-110717354D01*
X237215919Y-109747354D02*
X236392365Y-110570908D01*
X236392349Y-110570892D02*
G75*
G02*
X236038812Y-110717354I-353549J353492D01*
G01*
X234415919Y-100787354D02*
X233792365Y-101410908D01*
X233438812Y-101557354D02*
X229275919Y-101557354D01*
X233792349Y-101410892D02*
G75*
G02*
X233438812Y-101557354I-353549J353492D01*
G01*
X236655919Y-99767354D02*
X236655919Y-99807354D01*
X236655919Y-99807354D02*
X234302365Y-102160908D01*
X233948812Y-102307354D02*
X229275919Y-102307354D01*
X233948812Y-102307376D02*
G75*
G03*
X234302365Y-102160908I-12J499976D01*
G01*
G04 #@! TA.AperFunction,Conductor*
G36*
X281071125Y-112648442D02*
G01*
X281090651Y-112651535D01*
X281254265Y-112690815D01*
X281273061Y-112696922D01*
X281357900Y-112732064D01*
X281428528Y-112761319D01*
X281446138Y-112770291D01*
X281589617Y-112858216D01*
X281605599Y-112869827D01*
X281733555Y-112979111D01*
X281747532Y-112993088D01*
X281856817Y-113121045D01*
X281868431Y-113137031D01*
X281956359Y-113280514D01*
X281965326Y-113298112D01*
X282029721Y-113453576D01*
X282035831Y-113472380D01*
X282075111Y-113635992D01*
X282078204Y-113655520D01*
X282091406Y-113823271D01*
X282091406Y-113843043D01*
X282078204Y-114010792D01*
X282075111Y-114030320D01*
X282035831Y-114193933D01*
X282029721Y-114212737D01*
X281965330Y-114368190D01*
X281956354Y-114385807D01*
X281868434Y-114529280D01*
X281856813Y-114545274D01*
X281770637Y-114646173D01*
X281709529Y-114742386D01*
X281680622Y-114806284D01*
X281679448Y-114810103D01*
X281679446Y-114810110D01*
X281657287Y-114882233D01*
X281650514Y-114904276D01*
X281648703Y-115031131D01*
X281649408Y-115036033D01*
X281649408Y-115036036D01*
X281654712Y-115072921D01*
X281644609Y-115143195D01*
X281598117Y-115196851D01*
X281529995Y-115216854D01*
X280256952Y-115216854D01*
X280188831Y-115196852D01*
X280142338Y-115143196D01*
X280132366Y-115072033D01*
X280137372Y-115038898D01*
X280137373Y-115038892D01*
X280137978Y-115034884D01*
X280140204Y-114930966D01*
X280135407Y-114913230D01*
X280108368Y-114813276D01*
X280108368Y-114813275D01*
X280107076Y-114808500D01*
X280099046Y-114790580D01*
X280079883Y-114747812D01*
X280079881Y-114747807D01*
X280078045Y-114743711D01*
X280016341Y-114646173D01*
X279930165Y-114545274D01*
X279918544Y-114529280D01*
X279830624Y-114385807D01*
X279821648Y-114368190D01*
X279757257Y-114212737D01*
X279751147Y-114193933D01*
X279727254Y-114094411D01*
X279711867Y-114030320D01*
X279708774Y-114010792D01*
X279695572Y-113843043D01*
X279695572Y-113823271D01*
X279708774Y-113655522D01*
X279711867Y-113635994D01*
X279751148Y-113472379D01*
X279757256Y-113453580D01*
X279821649Y-113298123D01*
X279830625Y-113280507D01*
X279918542Y-113137038D01*
X279930164Y-113121041D01*
X279931440Y-113119548D01*
X280025932Y-113008912D01*
X280039447Y-112993088D01*
X280053428Y-112979108D01*
X280181373Y-112869833D01*
X280197364Y-112858214D01*
X280340846Y-112770287D01*
X280358444Y-112761320D01*
X280513913Y-112696923D01*
X280532707Y-112690817D01*
X280615445Y-112670953D01*
X280696327Y-112651535D01*
X280715853Y-112648442D01*
X280883603Y-112635240D01*
X280903375Y-112635240D01*
X281071125Y-112648442D01*
G37*
G04 #@! TD.AperFunction*
G04 #@! TA.AperFunction,Conductor*
G36*
X333611908Y-112648442D02*
G01*
X333631434Y-112651535D01*
X333795048Y-112690815D01*
X333813844Y-112696922D01*
X333898683Y-112732064D01*
X333969311Y-112761319D01*
X333986921Y-112770291D01*
X334130400Y-112858216D01*
X334146382Y-112869827D01*
X334274338Y-112979111D01*
X334288315Y-112993088D01*
X334397600Y-113121045D01*
X334409214Y-113137031D01*
X334497142Y-113280514D01*
X334506109Y-113298112D01*
X334570504Y-113453576D01*
X334576614Y-113472380D01*
X334615894Y-113635992D01*
X334618987Y-113655520D01*
X334632189Y-113823271D01*
X334632189Y-113843043D01*
X334618987Y-114010792D01*
X334615894Y-114030320D01*
X334576614Y-114193933D01*
X334570504Y-114212737D01*
X334506113Y-114368190D01*
X334497137Y-114385807D01*
X334409217Y-114529280D01*
X334397596Y-114545274D01*
X334311420Y-114646173D01*
X334250312Y-114742386D01*
X334221405Y-114806284D01*
X334220231Y-114810103D01*
X334220229Y-114810110D01*
X334198070Y-114882233D01*
X334191297Y-114904276D01*
X334189486Y-115031131D01*
X334190191Y-115036033D01*
X334190191Y-115036036D01*
X334195495Y-115072921D01*
X334185392Y-115143195D01*
X334138900Y-115196851D01*
X334070778Y-115216854D01*
X332797735Y-115216854D01*
X332729614Y-115196852D01*
X332683121Y-115143196D01*
X332673149Y-115072033D01*
X332678155Y-115038898D01*
X332678156Y-115038892D01*
X332678761Y-115034884D01*
X332680987Y-114930966D01*
X332676190Y-114913230D01*
X332649151Y-114813276D01*
X332649151Y-114813275D01*
X332647859Y-114808500D01*
X332639829Y-114790580D01*
X332620666Y-114747812D01*
X332620664Y-114747807D01*
X332618828Y-114743711D01*
X332557124Y-114646173D01*
X332470948Y-114545274D01*
X332459327Y-114529280D01*
X332371407Y-114385807D01*
X332362431Y-114368190D01*
X332298040Y-114212737D01*
X332291930Y-114193933D01*
X332268037Y-114094411D01*
X332252650Y-114030320D01*
X332249557Y-114010792D01*
X332236355Y-113843043D01*
X332236355Y-113823271D01*
X332249557Y-113655522D01*
X332252650Y-113635994D01*
X332291931Y-113472379D01*
X332298039Y-113453580D01*
X332362432Y-113298123D01*
X332371408Y-113280507D01*
X332459325Y-113137038D01*
X332470947Y-113121041D01*
X332472223Y-113119548D01*
X332566715Y-113008912D01*
X332580230Y-112993088D01*
X332594211Y-112979108D01*
X332722156Y-112869833D01*
X332738147Y-112858214D01*
X332881629Y-112770287D01*
X332899227Y-112761320D01*
X333054696Y-112696923D01*
X333073490Y-112690817D01*
X333156228Y-112670953D01*
X333237110Y-112651535D01*
X333256636Y-112648442D01*
X333424386Y-112635240D01*
X333444158Y-112635240D01*
X333611908Y-112648442D01*
G37*
G04 #@! TD.AperFunction*
G04 #@! TA.AperFunction,Conductor*
G36*
X384647540Y-87037856D02*
G01*
X384694033Y-87091512D01*
X384705419Y-87143854D01*
X384705419Y-115090854D01*
X384685417Y-115158975D01*
X384631761Y-115205468D01*
X384579419Y-115216854D01*
X337055076Y-115216854D01*
X336986955Y-115196852D01*
X336940462Y-115143196D01*
X336930358Y-115072922D01*
X336938667Y-115042636D01*
X336940216Y-115038898D01*
X336962936Y-114984046D01*
X336975118Y-114946553D01*
X336989972Y-114884682D01*
X337004876Y-114790580D01*
X337008618Y-114758958D01*
X337010169Y-114739248D01*
X337011419Y-114707437D01*
X337011419Y-103827271D01*
X337010169Y-103795460D01*
X337008618Y-103775750D01*
X337006778Y-103760195D01*
X337005019Y-103745335D01*
X337005018Y-103745327D01*
X337004876Y-103744128D01*
X336989972Y-103650026D01*
X336988273Y-103642947D01*
X363745725Y-103642947D01*
X363745872Y-103646457D01*
X363745872Y-103646463D01*
X363747586Y-103687354D01*
X363759444Y-103970271D01*
X363760594Y-103997717D01*
X363787736Y-104173043D01*
X363812000Y-104329773D01*
X363814917Y-104348618D01*
X363815839Y-104352010D01*
X363815839Y-104352012D01*
X363832258Y-104412444D01*
X363908015Y-104691277D01*
X364038729Y-105021423D01*
X364040375Y-105024519D01*
X364040377Y-105024523D01*
X364188874Y-105303804D01*
X364205430Y-105334941D01*
X364207415Y-105337840D01*
X364404048Y-105625016D01*
X364404053Y-105625022D01*
X364406039Y-105627923D01*
X364638056Y-105896718D01*
X364640626Y-105899098D01*
X364640630Y-105899102D01*
X364729013Y-105980945D01*
X364898589Y-106137974D01*
X365184392Y-106348686D01*
X365187429Y-106350440D01*
X365187433Y-106350442D01*
X365286099Y-106407407D01*
X365491901Y-106526227D01*
X365523921Y-106540216D01*
X365814062Y-106666976D01*
X365814072Y-106666980D01*
X365817284Y-106668383D01*
X365820641Y-106669422D01*
X365820646Y-106669424D01*
X366151368Y-106771799D01*
X366156485Y-106773383D01*
X366505277Y-106839919D01*
X366719861Y-106856430D01*
X366855815Y-106866891D01*
X366855816Y-106866891D01*
X366859312Y-106867160D01*
X367074167Y-106859657D01*
X367210661Y-106854891D01*
X367210666Y-106854891D01*
X367214176Y-106854768D01*
X367217657Y-106854254D01*
X367561956Y-106803413D01*
X367561962Y-106803412D01*
X367565448Y-106802897D01*
X367568852Y-106801998D01*
X367568855Y-106801997D01*
X367905358Y-106713089D01*
X367905359Y-106713089D01*
X367908749Y-106712193D01*
X368239799Y-106583787D01*
X368554473Y-106419279D01*
X368848849Y-106220721D01*
X368858763Y-106212284D01*
X369116584Y-105992861D01*
X369116585Y-105992860D01*
X369119257Y-105990586D01*
X369121652Y-105988036D01*
X369121660Y-105988028D01*
X369359915Y-105734311D01*
X369359919Y-105734306D01*
X369362326Y-105731743D01*
X369364431Y-105728929D01*
X369364437Y-105728922D01*
X369548500Y-105482879D01*
X369575028Y-105447418D01*
X369581787Y-105435898D01*
X369752929Y-105144194D01*
X369752932Y-105144189D01*
X369754711Y-105141156D01*
X369791828Y-105057791D01*
X369897704Y-104819990D01*
X369897706Y-104819985D01*
X369899136Y-104816773D01*
X370006502Y-104478313D01*
X370075471Y-104129995D01*
X370098204Y-103859273D01*
X370105000Y-103778343D01*
X370105001Y-103778332D01*
X370105183Y-103776159D01*
X370105424Y-103758958D01*
X370106393Y-103689532D01*
X370106393Y-103689520D01*
X370106423Y-103687354D01*
X370105373Y-103668564D01*
X370095268Y-103487823D01*
X370086602Y-103332827D01*
X370079098Y-103288463D01*
X370027974Y-102986199D01*
X370027973Y-102986195D01*
X370027385Y-102982718D01*
X369929512Y-102641392D01*
X369864133Y-102482771D01*
X369795539Y-102316349D01*
X369795535Y-102316342D01*
X369794201Y-102313104D01*
X369623139Y-102001944D01*
X369418459Y-101711791D01*
X369182712Y-101446262D01*
X369170887Y-101435615D01*
X368921453Y-101211023D01*
X368921450Y-101211021D01*
X368918835Y-101208666D01*
X368915982Y-101206624D01*
X368915974Y-101206617D01*
X368632985Y-101004018D01*
X368632978Y-101004014D01*
X368630118Y-101001966D01*
X368320160Y-100828736D01*
X367992824Y-100691137D01*
X367973492Y-100685447D01*
X367773847Y-100626688D01*
X367652190Y-100590882D01*
X367648734Y-100590273D01*
X367648727Y-100590271D01*
X367398518Y-100546153D01*
X367302503Y-100529223D01*
X367298994Y-100529002D01*
X367298992Y-100529002D01*
X366951641Y-100507149D01*
X366951635Y-100507149D01*
X366948123Y-100506928D01*
X366865529Y-100510967D01*
X366596973Y-100524101D01*
X366596964Y-100524102D01*
X366593466Y-100524273D01*
X366589998Y-100524835D01*
X366589995Y-100524835D01*
X366246427Y-100580481D01*
X366246424Y-100580482D01*
X366242952Y-100581044D01*
X366239565Y-100581990D01*
X366239559Y-100581991D01*
X365956044Y-100661150D01*
X365900952Y-100676532D01*
X365824992Y-100707222D01*
X365574990Y-100808229D01*
X365574986Y-100808231D01*
X365571726Y-100809548D01*
X365568639Y-100811217D01*
X365568635Y-100811219D01*
X365527999Y-100833191D01*
X365259380Y-100978433D01*
X364967805Y-101181083D01*
X364965163Y-101183396D01*
X364965159Y-101183399D01*
X364805961Y-101322767D01*
X364700637Y-101414971D01*
X364698262Y-101417572D01*
X364499702Y-101635023D01*
X364461205Y-101677182D01*
X364252494Y-101964449D01*
X364077104Y-102273190D01*
X364031994Y-102378440D01*
X363945009Y-102581393D01*
X363937223Y-102599558D01*
X363930492Y-102621851D01*
X363839301Y-102923892D01*
X363834593Y-102939484D01*
X363800841Y-103123385D01*
X363771496Y-103283274D01*
X363770494Y-103288731D01*
X363745725Y-103642947D01*
X336988273Y-103642947D01*
X336975697Y-103590567D01*
X336975118Y-103588155D01*
X336962936Y-103550662D01*
X336938585Y-103491873D01*
X336937465Y-103489675D01*
X336937460Y-103489664D01*
X336917861Y-103451200D01*
X336899888Y-103415926D01*
X336866636Y-103361665D01*
X336851692Y-103341097D01*
X336844929Y-103331789D01*
X336844926Y-103331785D01*
X336843464Y-103329773D01*
X336802145Y-103281395D01*
X336741878Y-103221128D01*
X336693500Y-103179809D01*
X336661608Y-103156637D01*
X336607347Y-103123385D01*
X336570631Y-103104677D01*
X336533609Y-103085813D01*
X336533598Y-103085808D01*
X336531400Y-103084688D01*
X336472611Y-103060337D01*
X336470276Y-103059578D01*
X336470267Y-103059575D01*
X336450691Y-103053215D01*
X336435118Y-103048155D01*
X336373247Y-103033301D01*
X336370801Y-103032914D01*
X336370798Y-103032913D01*
X336333002Y-103026927D01*
X336279145Y-103018397D01*
X336277946Y-103018255D01*
X336277938Y-103018254D01*
X336248760Y-103014801D01*
X336248741Y-103014799D01*
X336247523Y-103014655D01*
X336227813Y-103013104D01*
X336226599Y-103013056D01*
X336226577Y-103013055D01*
X336207592Y-103012309D01*
X336196002Y-103011854D01*
X333531318Y-103011854D01*
X333463197Y-102991852D01*
X333416704Y-102938196D01*
X333406600Y-102867922D01*
X333436094Y-102803342D01*
X333463437Y-102780766D01*
X333463631Y-102780685D01*
X333560714Y-102706191D01*
X333576254Y-102694267D01*
X333576255Y-102694266D01*
X333582805Y-102689240D01*
X333674250Y-102570065D01*
X333725743Y-102445751D01*
X333728575Y-102438913D01*
X333731735Y-102431284D01*
X333733724Y-102416180D01*
X333747686Y-102310124D01*
X333751342Y-102282354D01*
X333738299Y-102183282D01*
X333749238Y-102113133D01*
X333796367Y-102060035D01*
X333806606Y-102054272D01*
X333851754Y-102031565D01*
X333851760Y-102031561D01*
X333858544Y-102028149D01*
X333929535Y-101967517D01*
X333972493Y-101930828D01*
X333972495Y-101930825D01*
X333978267Y-101925896D01*
X334070143Y-101798037D01*
X334128869Y-101651952D01*
X334144585Y-101541526D01*
X334150472Y-101500161D01*
X334150472Y-101500158D01*
X334151053Y-101496077D01*
X334151197Y-101482354D01*
X334132282Y-101326048D01*
X334105354Y-101254784D01*
X334079313Y-101185868D01*
X334079312Y-101185865D01*
X334076629Y-101178766D01*
X333987450Y-101049011D01*
X333920841Y-100989664D01*
X333875567Y-100949326D01*
X333875564Y-100949324D01*
X333869895Y-100944273D01*
X333861457Y-100939805D01*
X333792313Y-100903195D01*
X333730750Y-100870599D01*
X333695182Y-100861665D01*
X333585417Y-100834094D01*
X333585415Y-100834094D01*
X333578047Y-100832243D01*
X333570449Y-100832203D01*
X333570447Y-100832203D01*
X333503238Y-100831851D01*
X333420603Y-100831419D01*
X333413224Y-100833191D01*
X333413220Y-100833191D01*
X333274886Y-100866402D01*
X333274882Y-100866403D01*
X333267507Y-100868174D01*
X333127598Y-100940386D01*
X333126523Y-100938302D01*
X333066227Y-100956854D01*
X331945780Y-100956854D01*
X331877659Y-100936852D01*
X331856685Y-100919950D01*
X331768154Y-100831419D01*
X331678328Y-100741594D01*
X331644303Y-100679282D01*
X331649367Y-100608466D01*
X331665100Y-100578973D01*
X331675710Y-100564208D01*
X331675714Y-100564200D01*
X331680143Y-100558037D01*
X331683807Y-100548924D01*
X331705299Y-100495460D01*
X331738869Y-100411952D01*
X331755704Y-100293665D01*
X331760472Y-100260161D01*
X331760472Y-100260158D01*
X331761053Y-100256077D01*
X331761197Y-100242354D01*
X331759529Y-100228566D01*
X331756644Y-100204731D01*
X331742282Y-100086048D01*
X331733868Y-100063782D01*
X331689313Y-99945868D01*
X331689312Y-99945865D01*
X331686629Y-99938766D01*
X331597450Y-99809011D01*
X331542820Y-99760337D01*
X331485567Y-99709326D01*
X331485564Y-99709324D01*
X331479895Y-99704273D01*
X331340750Y-99630599D01*
X331333385Y-99628749D01*
X331195417Y-99594094D01*
X331195415Y-99594094D01*
X331188047Y-99592243D01*
X331180449Y-99592203D01*
X331180447Y-99592203D01*
X331113238Y-99591851D01*
X331030603Y-99591419D01*
X331023224Y-99593191D01*
X331023220Y-99593191D01*
X330884886Y-99626402D01*
X330884882Y-99626403D01*
X330877507Y-99628174D01*
X330737598Y-99700386D01*
X330731876Y-99705378D01*
X330731874Y-99705379D01*
X330624678Y-99798892D01*
X330624675Y-99798895D01*
X330618953Y-99803887D01*
X330604226Y-99824841D01*
X330537173Y-99920248D01*
X330528420Y-99932702D01*
X330471228Y-100079393D01*
X330469359Y-100093588D01*
X330453266Y-100215828D01*
X330450677Y-100235492D01*
X330467954Y-100391987D01*
X330522062Y-100539844D01*
X330526299Y-100546150D01*
X330526301Y-100546153D01*
X330559000Y-100594813D01*
X330580419Y-100665089D01*
X330580419Y-100897919D01*
X330580308Y-100903195D01*
X330577832Y-100962273D01*
X330587142Y-101001966D01*
X330587256Y-101002451D01*
X330589419Y-101014124D01*
X330595018Y-101055000D01*
X330598429Y-101062881D01*
X330598429Y-101062883D01*
X330600514Y-101067701D01*
X330607546Y-101088964D01*
X330608687Y-101093827D01*
X330610709Y-101102447D01*
X330630600Y-101138629D01*
X330635807Y-101149259D01*
X330652199Y-101187137D01*
X330657605Y-101193813D01*
X330657606Y-101193815D01*
X330660911Y-101197896D01*
X330673399Y-101216480D01*
X330680072Y-101228617D01*
X330686755Y-101236359D01*
X330709959Y-101259563D01*
X330718784Y-101269363D01*
X330742807Y-101299029D01*
X330757063Y-101309160D01*
X330773163Y-101322767D01*
X331294114Y-101843718D01*
X331297767Y-101847527D01*
X331337803Y-101891066D01*
X331335807Y-101892902D01*
X331367889Y-101940411D01*
X331369503Y-102011389D01*
X331364240Y-102026867D01*
X331327033Y-102116694D01*
X331320103Y-102133424D01*
X331300496Y-102282354D01*
X331304152Y-102310124D01*
X331318115Y-102416180D01*
X331320103Y-102431284D01*
X331323263Y-102438913D01*
X331326095Y-102445751D01*
X331377588Y-102570065D01*
X331469033Y-102689240D01*
X331475583Y-102694266D01*
X331475584Y-102694267D01*
X331491124Y-102706191D01*
X331584776Y-102778052D01*
X331588207Y-102780685D01*
X331587796Y-102781220D01*
X331632513Y-102828118D01*
X331645949Y-102897831D01*
X331619562Y-102963742D01*
X331561730Y-103004924D01*
X331520520Y-103011854D01*
X294117357Y-103011854D01*
X294049236Y-102991852D01*
X294002743Y-102938196D01*
X293992908Y-102866144D01*
X293996813Y-102841489D01*
X294004876Y-102790580D01*
X294006359Y-102778052D01*
X294008472Y-102760195D01*
X294008474Y-102760176D01*
X294008618Y-102758958D01*
X294010169Y-102739248D01*
X294010316Y-102735526D01*
X294011370Y-102708678D01*
X294011419Y-102707437D01*
X294011419Y-97709096D01*
X295600419Y-97709096D01*
X295600451Y-97710062D01*
X295600451Y-97710086D01*
X295600625Y-97715386D01*
X295601287Y-97735619D01*
X295602365Y-97752065D01*
X295604966Y-97778471D01*
X295605102Y-97779502D01*
X295605103Y-97779513D01*
X295613594Y-97844006D01*
X295618760Y-97883246D01*
X295629107Y-97935265D01*
X295629637Y-97937245D01*
X295629641Y-97937260D01*
X295635403Y-97958763D01*
X295637620Y-97967037D01*
X295654671Y-98017267D01*
X295691925Y-98107206D01*
X295692832Y-98109046D01*
X295692836Y-98109054D01*
X295714477Y-98152937D01*
X295715388Y-98154784D01*
X295716416Y-98156564D01*
X295716420Y-98156572D01*
X295722934Y-98167854D01*
X295731835Y-98183270D01*
X295732987Y-98184994D01*
X295756826Y-98220671D01*
X295761300Y-98227367D01*
X295820563Y-98304600D01*
X295855536Y-98344479D01*
X295878794Y-98367737D01*
X295918673Y-98402710D01*
X295995906Y-98461973D01*
X295997617Y-98463116D01*
X295997625Y-98463122D01*
X296000536Y-98465067D01*
X296040003Y-98491438D01*
X296041798Y-98492474D01*
X296041799Y-98492475D01*
X296066701Y-98506853D01*
X296066709Y-98506857D01*
X296068489Y-98507885D01*
X296070332Y-98508794D01*
X296070336Y-98508796D01*
X296114219Y-98530437D01*
X296114227Y-98530441D01*
X296116067Y-98531348D01*
X296206006Y-98568602D01*
X296256236Y-98585653D01*
X296258236Y-98586189D01*
X296258243Y-98586191D01*
X296286013Y-98593632D01*
X296286028Y-98593636D01*
X296288008Y-98594166D01*
X296290034Y-98594569D01*
X296338014Y-98604113D01*
X296338026Y-98604115D01*
X296340027Y-98604513D01*
X296361614Y-98607355D01*
X296443760Y-98618170D01*
X296443771Y-98618171D01*
X296444802Y-98618307D01*
X296471208Y-98620908D01*
X296474433Y-98621119D01*
X296486641Y-98621920D01*
X296486666Y-98621921D01*
X296487654Y-98621986D01*
X296488626Y-98622018D01*
X296488650Y-98622019D01*
X296513187Y-98622822D01*
X296513211Y-98622822D01*
X296514177Y-98622854D01*
X331625041Y-98622854D01*
X331628722Y-98622418D01*
X331628727Y-98622418D01*
X331677959Y-98616590D01*
X331719707Y-98611649D01*
X331776911Y-98597915D01*
X331780394Y-98596630D01*
X331783945Y-98595553D01*
X331784016Y-98595786D01*
X331803336Y-98590744D01*
X331806194Y-98590291D01*
X331845644Y-98590291D01*
X331848502Y-98590744D01*
X331867822Y-98595786D01*
X331867893Y-98595553D01*
X331871444Y-98596630D01*
X331874927Y-98597915D01*
X331932131Y-98611649D01*
X331973879Y-98616590D01*
X332023111Y-98622418D01*
X332023116Y-98622418D01*
X332026797Y-98622854D01*
X333997661Y-98622854D01*
X333998627Y-98622822D01*
X333998651Y-98622822D01*
X334023188Y-98622019D01*
X334023212Y-98622018D01*
X334024184Y-98621986D01*
X334025172Y-98621921D01*
X334025197Y-98621920D01*
X334037405Y-98621119D01*
X334040630Y-98620908D01*
X334067036Y-98618307D01*
X334068067Y-98618171D01*
X334068078Y-98618170D01*
X334150224Y-98607355D01*
X334171811Y-98604513D01*
X334173812Y-98604115D01*
X334173824Y-98604113D01*
X334221804Y-98594569D01*
X334223830Y-98594166D01*
X334225810Y-98593636D01*
X334225825Y-98593632D01*
X334253595Y-98586191D01*
X334253602Y-98586189D01*
X334255602Y-98585653D01*
X334305832Y-98568602D01*
X334395771Y-98531348D01*
X334397611Y-98530441D01*
X334397619Y-98530437D01*
X334441502Y-98508796D01*
X334441506Y-98508794D01*
X334443349Y-98507885D01*
X334445129Y-98506857D01*
X334445137Y-98506853D01*
X334470039Y-98492475D01*
X334470040Y-98492474D01*
X334471835Y-98491438D01*
X334511302Y-98465067D01*
X334514213Y-98463122D01*
X334514221Y-98463116D01*
X334515932Y-98461973D01*
X334593165Y-98402710D01*
X334633044Y-98367737D01*
X334656302Y-98344479D01*
X334691275Y-98304600D01*
X334750538Y-98227367D01*
X334755013Y-98220671D01*
X334778851Y-98184994D01*
X334780003Y-98183270D01*
X334788904Y-98167854D01*
X334795418Y-98156572D01*
X334795422Y-98156564D01*
X334796450Y-98154784D01*
X334797361Y-98152937D01*
X334819002Y-98109054D01*
X334819006Y-98109046D01*
X334819913Y-98107206D01*
X334857167Y-98017267D01*
X334874218Y-97967037D01*
X334876435Y-97958763D01*
X334882197Y-97937260D01*
X334882201Y-97937245D01*
X334882731Y-97935265D01*
X334893078Y-97883246D01*
X334898244Y-97844006D01*
X334906735Y-97779513D01*
X334906736Y-97779502D01*
X334906872Y-97778471D01*
X334909473Y-97752065D01*
X334910551Y-97735619D01*
X334911214Y-97715386D01*
X334911387Y-97710086D01*
X334911387Y-97710062D01*
X334911419Y-97709096D01*
X334911419Y-94625612D01*
X334910551Y-94599089D01*
X334910428Y-94597203D01*
X334909543Y-94583712D01*
X334909473Y-94582643D01*
X334906872Y-94556237D01*
X334893078Y-94451462D01*
X334882731Y-94399443D01*
X334882201Y-94397463D01*
X334882197Y-94397448D01*
X334874756Y-94369678D01*
X334874754Y-94369671D01*
X334874218Y-94367671D01*
X334857167Y-94317441D01*
X334819913Y-94227502D01*
X334796450Y-94179924D01*
X334780003Y-94151438D01*
X334750538Y-94107341D01*
X334691275Y-94030108D01*
X334656302Y-93990229D01*
X334633044Y-93966971D01*
X334593165Y-93931998D01*
X334515932Y-93872735D01*
X334514221Y-93871592D01*
X334514213Y-93871586D01*
X334473559Y-93844422D01*
X334471835Y-93843270D01*
X334470039Y-93842233D01*
X334445137Y-93827855D01*
X334445129Y-93827851D01*
X334443349Y-93826823D01*
X334441502Y-93825912D01*
X334397619Y-93804271D01*
X334397611Y-93804267D01*
X334395771Y-93803360D01*
X334305832Y-93766106D01*
X334255602Y-93749055D01*
X334253602Y-93748519D01*
X334253595Y-93748517D01*
X334225825Y-93741076D01*
X334225810Y-93741072D01*
X334223830Y-93740542D01*
X334221804Y-93740139D01*
X334173824Y-93730595D01*
X334173812Y-93730593D01*
X334171811Y-93730195D01*
X334149129Y-93727209D01*
X334068078Y-93716538D01*
X334068067Y-93716537D01*
X334067036Y-93716401D01*
X334040630Y-93713800D01*
X334037405Y-93713589D01*
X334025197Y-93712788D01*
X334025172Y-93712787D01*
X334024184Y-93712722D01*
X334023212Y-93712690D01*
X334023188Y-93712689D01*
X333998651Y-93711886D01*
X333998627Y-93711886D01*
X333997661Y-93711854D01*
X296514177Y-93711854D01*
X296513211Y-93711886D01*
X296513187Y-93711886D01*
X296488650Y-93712689D01*
X296488626Y-93712690D01*
X296487654Y-93712722D01*
X296486666Y-93712787D01*
X296486641Y-93712788D01*
X296474433Y-93713589D01*
X296471208Y-93713800D01*
X296444802Y-93716401D01*
X296443771Y-93716537D01*
X296443760Y-93716538D01*
X296362709Y-93727209D01*
X296340027Y-93730195D01*
X296338026Y-93730593D01*
X296338014Y-93730595D01*
X296290034Y-93740139D01*
X296288008Y-93740542D01*
X296286028Y-93741072D01*
X296286013Y-93741076D01*
X296258243Y-93748517D01*
X296258236Y-93748519D01*
X296256236Y-93749055D01*
X296206006Y-93766106D01*
X296116067Y-93803360D01*
X296114227Y-93804267D01*
X296114219Y-93804271D01*
X296070336Y-93825912D01*
X296068489Y-93826823D01*
X296066709Y-93827851D01*
X296066701Y-93827855D01*
X296041799Y-93842233D01*
X296040003Y-93843270D01*
X296038279Y-93844422D01*
X295997625Y-93871586D01*
X295997617Y-93871592D01*
X295995906Y-93872735D01*
X295918673Y-93931998D01*
X295878794Y-93966971D01*
X295855536Y-93990229D01*
X295820563Y-94030108D01*
X295761300Y-94107341D01*
X295731835Y-94151438D01*
X295715388Y-94179924D01*
X295691925Y-94227502D01*
X295654671Y-94317441D01*
X295637620Y-94367671D01*
X295637084Y-94369671D01*
X295637082Y-94369678D01*
X295629641Y-94397448D01*
X295629637Y-94397463D01*
X295629107Y-94399443D01*
X295618760Y-94451462D01*
X295604966Y-94556237D01*
X295602365Y-94582643D01*
X295602295Y-94583712D01*
X295601411Y-94597203D01*
X295601287Y-94599089D01*
X295600419Y-94625612D01*
X295600419Y-97709096D01*
X294011419Y-97709096D01*
X294011419Y-90027271D01*
X294010169Y-89995460D01*
X294008618Y-89975750D01*
X294004876Y-89944128D01*
X293989972Y-89850026D01*
X293975118Y-89788155D01*
X293962936Y-89750662D01*
X293938585Y-89691873D01*
X293937465Y-89689675D01*
X293937460Y-89689664D01*
X293901009Y-89618127D01*
X293899888Y-89615926D01*
X293866636Y-89561665D01*
X293843464Y-89529773D01*
X293802145Y-89481395D01*
X293741878Y-89421128D01*
X293693500Y-89379809D01*
X293661608Y-89356637D01*
X293607347Y-89323385D01*
X293572073Y-89305412D01*
X293533609Y-89285813D01*
X293533598Y-89285808D01*
X293531400Y-89284688D01*
X293472611Y-89260337D01*
X293470276Y-89259578D01*
X293470267Y-89259575D01*
X293456832Y-89255210D01*
X293435118Y-89248155D01*
X293373247Y-89233301D01*
X293370801Y-89232914D01*
X293370798Y-89232913D01*
X293330205Y-89226484D01*
X293279145Y-89218397D01*
X293277946Y-89218255D01*
X293277938Y-89218254D01*
X293248760Y-89214801D01*
X293248741Y-89214799D01*
X293247523Y-89214655D01*
X293227813Y-89213104D01*
X293226599Y-89213056D01*
X293226577Y-89213055D01*
X293207592Y-89212309D01*
X293196002Y-89211854D01*
X281775222Y-89211854D01*
X281665157Y-89227077D01*
X281599321Y-89245644D01*
X281595349Y-89247381D01*
X281595350Y-89247381D01*
X281501478Y-89288441D01*
X281501475Y-89288442D01*
X281497512Y-89290176D01*
X281493827Y-89292434D01*
X281493812Y-89292442D01*
X281423368Y-89335611D01*
X281405757Y-89344585D01*
X281257567Y-89405967D01*
X281238784Y-89412071D01*
X281082789Y-89449523D01*
X281063279Y-89452612D01*
X280924879Y-89463505D01*
X280903374Y-89465197D01*
X280883603Y-89465197D01*
X280723703Y-89452613D01*
X280704176Y-89449520D01*
X280548211Y-89412076D01*
X280529416Y-89405968D01*
X280455318Y-89375277D01*
X280381225Y-89344586D01*
X280363608Y-89335610D01*
X280328470Y-89314078D01*
X280289466Y-89290176D01*
X280285503Y-89288442D01*
X280285500Y-89288441D01*
X280191628Y-89247381D01*
X280191629Y-89247381D01*
X280187657Y-89245644D01*
X280121821Y-89227077D01*
X280011756Y-89211854D01*
X251315836Y-89211854D01*
X251304246Y-89212309D01*
X251285261Y-89213055D01*
X251285239Y-89213056D01*
X251284025Y-89213104D01*
X251264315Y-89214655D01*
X251263097Y-89214799D01*
X251263078Y-89214801D01*
X251233900Y-89218254D01*
X251233892Y-89218255D01*
X251232693Y-89218397D01*
X251181633Y-89226484D01*
X251141040Y-89232913D01*
X251141037Y-89232914D01*
X251138591Y-89233301D01*
X251076720Y-89248155D01*
X251055006Y-89255210D01*
X251041571Y-89259575D01*
X251041562Y-89259578D01*
X251039227Y-89260337D01*
X250980438Y-89284688D01*
X250978240Y-89285808D01*
X250978229Y-89285813D01*
X250939765Y-89305412D01*
X250904491Y-89323385D01*
X250850230Y-89356637D01*
X250818338Y-89379809D01*
X250769960Y-89421128D01*
X250709693Y-89481395D01*
X250668374Y-89529773D01*
X250645202Y-89561665D01*
X250611950Y-89615926D01*
X250610829Y-89618127D01*
X250574378Y-89689664D01*
X250574373Y-89689675D01*
X250573253Y-89691873D01*
X250548902Y-89750662D01*
X250536720Y-89788155D01*
X250521866Y-89850026D01*
X250506962Y-89944128D01*
X250503220Y-89975750D01*
X250501669Y-89995460D01*
X250500419Y-90027271D01*
X250500419Y-94713160D01*
X250506441Y-94782786D01*
X250513870Y-94825410D01*
X250514420Y-94827613D01*
X250514421Y-94827619D01*
X250524012Y-94866051D01*
X250527993Y-94882006D01*
X250585859Y-94994910D01*
X250627726Y-95052248D01*
X250630867Y-95055465D01*
X250630869Y-95055467D01*
X250637881Y-95062648D01*
X250708362Y-95134826D01*
X250746173Y-95163839D01*
X250769434Y-95187101D01*
X250772480Y-95191071D01*
X250788929Y-95219568D01*
X250790844Y-95224193D01*
X250799351Y-95255945D01*
X250800004Y-95260904D01*
X250800004Y-95293804D01*
X250799351Y-95298763D01*
X250790844Y-95330515D01*
X250788929Y-95335140D01*
X250772480Y-95363637D01*
X250769434Y-95367607D01*
X250746173Y-95390869D01*
X250708362Y-95419882D01*
X250656796Y-95467038D01*
X250654959Y-95469035D01*
X250633948Y-95491873D01*
X250627502Y-95498879D01*
X250624747Y-95502344D01*
X250595686Y-95538893D01*
X250595683Y-95538897D01*
X250591192Y-95544546D01*
X250588098Y-95551072D01*
X250588097Y-95551074D01*
X250570519Y-95588155D01*
X250536846Y-95659185D01*
X250535452Y-95663933D01*
X250535450Y-95663938D01*
X250518113Y-95722983D01*
X250516844Y-95727306D01*
X250516204Y-95731754D01*
X250516203Y-95731761D01*
X250501058Y-95837100D01*
X250501058Y-95837107D01*
X250500419Y-95841548D01*
X250500419Y-97584392D01*
X250480417Y-97652513D01*
X250426761Y-97699006D01*
X250356487Y-97709110D01*
X250315463Y-97695747D01*
X250220750Y-97645599D01*
X250193499Y-97638754D01*
X250075417Y-97609094D01*
X250075415Y-97609094D01*
X250068047Y-97607243D01*
X250060449Y-97607203D01*
X250060447Y-97607203D01*
X249993238Y-97606851D01*
X249910603Y-97606419D01*
X249903224Y-97608191D01*
X249903220Y-97608191D01*
X249764886Y-97641402D01*
X249764882Y-97641403D01*
X249757507Y-97643174D01*
X249745925Y-97649152D01*
X249627867Y-97710086D01*
X249617598Y-97715386D01*
X249611876Y-97720378D01*
X249611874Y-97720379D01*
X249504678Y-97813892D01*
X249504675Y-97813895D01*
X249498953Y-97818887D01*
X249494586Y-97825101D01*
X249415693Y-97937354D01*
X249408420Y-97947702D01*
X249351228Y-98094393D01*
X249345485Y-98138012D01*
X249331819Y-98241820D01*
X249330677Y-98250492D01*
X249347954Y-98406987D01*
X249402062Y-98554844D01*
X249406299Y-98561150D01*
X249406301Y-98561153D01*
X249440526Y-98612084D01*
X249489877Y-98685526D01*
X249606329Y-98791489D01*
X249613004Y-98795113D01*
X249738018Y-98862991D01*
X249738020Y-98862992D01*
X249744695Y-98866616D01*
X249752044Y-98868544D01*
X249889638Y-98904641D01*
X249889640Y-98904641D01*
X249896988Y-98906569D01*
X249980299Y-98907878D01*
X250046817Y-98908923D01*
X250046820Y-98908923D01*
X250054414Y-98909042D01*
X250207887Y-98873892D01*
X250317805Y-98818609D01*
X250387649Y-98805871D01*
X250453293Y-98832915D01*
X250493895Y-98891156D01*
X250500419Y-98931174D01*
X250500419Y-104715487D01*
X250500654Y-104718199D01*
X250500654Y-104718209D01*
X250506103Y-104781206D01*
X250506441Y-104785111D01*
X250513870Y-104827736D01*
X250514414Y-104829917D01*
X250514417Y-104829930D01*
X250526245Y-104877328D01*
X250527994Y-104884335D01*
X250531286Y-104890758D01*
X250531287Y-104890761D01*
X250563340Y-104953301D01*
X250585859Y-104997238D01*
X250588777Y-105001234D01*
X250588778Y-105001236D01*
X250598019Y-105013892D01*
X250627724Y-105054573D01*
X250630864Y-105057789D01*
X250630866Y-105057791D01*
X250705218Y-105133935D01*
X250705223Y-105133939D01*
X250708359Y-105137151D01*
X250713579Y-105141156D01*
X250756173Y-105173840D01*
X250779425Y-105197090D01*
X250782478Y-105201069D01*
X250798929Y-105229568D01*
X250800844Y-105234193D01*
X250809351Y-105265945D01*
X250810004Y-105270904D01*
X250810004Y-105303804D01*
X250809351Y-105308763D01*
X250800844Y-105340515D01*
X250798929Y-105345140D01*
X250782476Y-105373642D01*
X250779429Y-105377613D01*
X250756176Y-105400864D01*
X250710519Y-105435898D01*
X250710504Y-105435910D01*
X250708357Y-105437558D01*
X250656785Y-105484722D01*
X250654945Y-105486722D01*
X250654937Y-105486730D01*
X250631781Y-105511901D01*
X250627496Y-105516559D01*
X250591192Y-105562219D01*
X250587647Y-105569697D01*
X250542448Y-105665042D01*
X250536846Y-105676858D01*
X250535452Y-105681606D01*
X250535450Y-105681611D01*
X250520730Y-105731743D01*
X250516844Y-105744979D01*
X250516204Y-105749427D01*
X250516203Y-105749434D01*
X250501058Y-105854773D01*
X250501058Y-105854780D01*
X250500419Y-105859221D01*
X250500419Y-107007437D01*
X250500468Y-107008678D01*
X250501236Y-107028217D01*
X250501669Y-107039248D01*
X250503220Y-107058958D01*
X250503364Y-107060176D01*
X250503366Y-107060195D01*
X250505876Y-107081405D01*
X250506962Y-107090580D01*
X250521866Y-107184682D01*
X250536720Y-107246553D01*
X250543775Y-107268267D01*
X250546843Y-107277708D01*
X250548902Y-107284046D01*
X250573253Y-107342835D01*
X250574373Y-107345033D01*
X250574378Y-107345044D01*
X250585750Y-107367362D01*
X250611950Y-107418782D01*
X250613237Y-107420881D01*
X250613238Y-107420884D01*
X250620790Y-107433207D01*
X250639328Y-107501741D01*
X250617871Y-107569418D01*
X250563232Y-107614751D01*
X250530919Y-107623812D01*
X250508325Y-107626992D01*
X250508324Y-107626992D01*
X250503956Y-107627607D01*
X250499719Y-107628824D01*
X250499713Y-107628825D01*
X250440909Y-107645712D01*
X250440903Y-107645714D01*
X250437101Y-107646806D01*
X250372978Y-107674309D01*
X250302491Y-107682779D01*
X250264356Y-107669866D01*
X250180750Y-107625599D01*
X250129492Y-107612724D01*
X250035417Y-107589094D01*
X250035415Y-107589094D01*
X250028047Y-107587243D01*
X250020449Y-107587203D01*
X250020447Y-107587203D01*
X249953238Y-107586851D01*
X249870603Y-107586419D01*
X249863224Y-107588191D01*
X249863220Y-107588191D01*
X249724886Y-107621402D01*
X249724882Y-107621403D01*
X249717507Y-107623174D01*
X249623479Y-107671705D01*
X249553773Y-107685174D01*
X249511716Y-107673593D01*
X249462796Y-107650402D01*
X249462787Y-107650398D01*
X249458320Y-107648281D01*
X249453575Y-107646888D01*
X249453573Y-107646887D01*
X249394522Y-107629548D01*
X249394518Y-107629547D01*
X249390199Y-107628279D01*
X249385751Y-107627639D01*
X249385744Y-107627638D01*
X249280405Y-107612493D01*
X249280398Y-107612493D01*
X249275957Y-107611854D01*
X245337419Y-107611854D01*
X245269298Y-107591852D01*
X245222805Y-107538196D01*
X245211419Y-107485854D01*
X245211419Y-105250492D01*
X245960677Y-105250492D01*
X245977954Y-105406987D01*
X246032062Y-105554844D01*
X246036299Y-105561150D01*
X246036301Y-105561153D01*
X246052991Y-105585990D01*
X246119877Y-105685526D01*
X246236329Y-105791489D01*
X246264090Y-105806562D01*
X246368018Y-105862991D01*
X246368020Y-105862992D01*
X246374695Y-105866616D01*
X246382044Y-105868544D01*
X246519638Y-105904641D01*
X246519640Y-105904641D01*
X246526988Y-105906569D01*
X246610299Y-105907878D01*
X246676817Y-105908923D01*
X246676820Y-105908923D01*
X246684414Y-105909042D01*
X246837887Y-105873892D01*
X246978544Y-105803149D01*
X247037795Y-105752544D01*
X247102584Y-105723513D01*
X247172784Y-105734118D01*
X247204424Y-105755161D01*
X247260708Y-105806375D01*
X247260712Y-105806378D01*
X247266329Y-105811489D01*
X247273004Y-105815113D01*
X247398018Y-105882991D01*
X247398020Y-105882992D01*
X247404695Y-105886616D01*
X247412044Y-105888544D01*
X247549638Y-105924641D01*
X247549640Y-105924641D01*
X247556988Y-105926569D01*
X247640299Y-105927878D01*
X247706817Y-105928923D01*
X247706820Y-105928923D01*
X247714414Y-105929042D01*
X247867887Y-105893892D01*
X248008544Y-105823149D01*
X248088148Y-105755161D01*
X248122493Y-105725828D01*
X248122495Y-105725825D01*
X248128267Y-105720896D01*
X248220143Y-105593037D01*
X248278869Y-105446952D01*
X248301053Y-105291077D01*
X248301197Y-105277354D01*
X248300417Y-105270904D01*
X248291965Y-105201062D01*
X248282282Y-105121048D01*
X248275055Y-105101922D01*
X248229313Y-104980868D01*
X248229312Y-104980865D01*
X248226629Y-104973766D01*
X248137450Y-104844011D01*
X248082958Y-104795460D01*
X248025567Y-104744326D01*
X248025564Y-104744324D01*
X248019895Y-104739273D01*
X247880750Y-104665599D01*
X247818751Y-104650026D01*
X247735417Y-104629094D01*
X247735415Y-104629094D01*
X247728047Y-104627243D01*
X247720449Y-104627203D01*
X247720447Y-104627203D01*
X247653238Y-104626851D01*
X247570603Y-104626419D01*
X247563224Y-104628191D01*
X247563220Y-104628191D01*
X247424886Y-104661402D01*
X247424882Y-104661403D01*
X247417507Y-104663174D01*
X247410762Y-104666655D01*
X247410763Y-104666655D01*
X247308817Y-104719273D01*
X247277598Y-104735386D01*
X247226076Y-104780332D01*
X247225074Y-104781206D01*
X247160591Y-104810913D01*
X247090284Y-104801043D01*
X247058426Y-104780332D01*
X246995567Y-104724326D01*
X246995564Y-104724324D01*
X246989895Y-104719273D01*
X246850750Y-104645599D01*
X246834041Y-104641402D01*
X246705417Y-104609094D01*
X246705415Y-104609094D01*
X246698047Y-104607243D01*
X246690449Y-104607203D01*
X246690447Y-104607203D01*
X246623238Y-104606851D01*
X246540603Y-104606419D01*
X246533224Y-104608191D01*
X246533220Y-104608191D01*
X246394886Y-104641402D01*
X246394882Y-104641403D01*
X246387507Y-104643174D01*
X246344059Y-104665599D01*
X246265803Y-104705990D01*
X246247598Y-104715386D01*
X246241876Y-104720378D01*
X246241874Y-104720379D01*
X246134678Y-104813892D01*
X246134675Y-104813895D01*
X246128953Y-104818887D01*
X246108524Y-104847955D01*
X246049815Y-104931489D01*
X246038420Y-104947702D01*
X245981228Y-105094393D01*
X245974672Y-105144194D01*
X245962823Y-105234193D01*
X245960677Y-105250492D01*
X245211419Y-105250492D01*
X245211419Y-99847065D01*
X245211067Y-99830177D01*
X245211044Y-99829635D01*
X245211043Y-99829589D01*
X245210845Y-99824841D01*
X245210844Y-99824836D01*
X245210630Y-99819693D01*
X245207354Y-99803956D01*
X245184754Y-99695416D01*
X245184753Y-99695413D01*
X245183701Y-99690360D01*
X245158100Y-99624140D01*
X245101585Y-99523507D01*
X245102017Y-99523265D01*
X245094754Y-99509595D01*
X245090996Y-99500520D01*
X245082487Y-99468763D01*
X245081834Y-99463804D01*
X245081834Y-99430904D01*
X245082487Y-99425945D01*
X245090997Y-99394185D01*
X245093295Y-99388636D01*
X245108170Y-99362239D01*
X245111159Y-99358171D01*
X245111572Y-99357609D01*
X245117608Y-99349026D01*
X245149424Y-99283037D01*
X245172752Y-99234653D01*
X245172754Y-99234648D01*
X245174992Y-99230006D01*
X245194994Y-99161885D01*
X245195898Y-99155599D01*
X245210780Y-99052091D01*
X245210780Y-99052084D01*
X245211419Y-99047643D01*
X245211419Y-95827271D01*
X245210169Y-95795460D01*
X245208618Y-95775750D01*
X245204876Y-95744128D01*
X245204267Y-95740277D01*
X245190360Y-95652475D01*
X245190359Y-95652472D01*
X245189972Y-95650026D01*
X245175118Y-95588155D01*
X245162936Y-95550662D01*
X245138585Y-95491873D01*
X245137465Y-95489675D01*
X245137460Y-95489664D01*
X245110619Y-95436987D01*
X245099888Y-95415926D01*
X245066636Y-95361665D01*
X245043464Y-95329773D01*
X245002145Y-95281395D01*
X245001242Y-95280492D01*
X245950677Y-95280492D01*
X245967954Y-95436987D01*
X246022062Y-95584844D01*
X246109877Y-95715526D01*
X246127719Y-95731761D01*
X246198935Y-95796562D01*
X246226329Y-95821489D01*
X246284348Y-95852991D01*
X246358018Y-95892991D01*
X246358020Y-95892992D01*
X246364695Y-95896616D01*
X246372044Y-95898544D01*
X246509638Y-95934641D01*
X246509640Y-95934641D01*
X246516988Y-95936569D01*
X246600299Y-95937878D01*
X246666817Y-95938923D01*
X246666820Y-95938923D01*
X246674414Y-95939042D01*
X246827887Y-95903892D01*
X246968544Y-95833149D01*
X247077285Y-95740276D01*
X247142072Y-95711246D01*
X247212272Y-95721851D01*
X247243912Y-95742894D01*
X247280708Y-95776375D01*
X247280712Y-95776378D01*
X247286329Y-95781489D01*
X247314090Y-95796562D01*
X247418018Y-95852991D01*
X247418020Y-95852992D01*
X247424695Y-95856616D01*
X247432044Y-95858544D01*
X247569638Y-95894641D01*
X247569640Y-95894641D01*
X247576988Y-95896569D01*
X247660299Y-95897878D01*
X247726817Y-95898923D01*
X247726820Y-95898923D01*
X247734414Y-95899042D01*
X247887887Y-95863892D01*
X248028544Y-95793149D01*
X248090449Y-95740277D01*
X248142493Y-95695828D01*
X248142495Y-95695825D01*
X248148267Y-95690896D01*
X248240143Y-95563037D01*
X248244176Y-95553006D01*
X248259415Y-95515096D01*
X248298869Y-95416952D01*
X248316395Y-95293804D01*
X248320472Y-95265161D01*
X248320472Y-95265158D01*
X248321053Y-95261077D01*
X248321197Y-95247354D01*
X248302282Y-95091048D01*
X248288837Y-95055467D01*
X248249313Y-94950868D01*
X248249312Y-94950865D01*
X248246629Y-94943766D01*
X248157450Y-94814011D01*
X248080800Y-94745718D01*
X248045567Y-94714326D01*
X248045564Y-94714324D01*
X248039895Y-94709273D01*
X247900750Y-94635599D01*
X247860990Y-94625612D01*
X247755417Y-94599094D01*
X247755415Y-94599094D01*
X247748047Y-94597243D01*
X247740449Y-94597203D01*
X247740447Y-94597203D01*
X247673238Y-94596851D01*
X247590603Y-94596419D01*
X247583224Y-94598191D01*
X247583220Y-94598191D01*
X247444886Y-94631402D01*
X247444882Y-94631403D01*
X247437507Y-94633174D01*
X247297598Y-94705386D01*
X247195889Y-94794113D01*
X247131408Y-94823820D01*
X247061101Y-94813951D01*
X247029243Y-94793240D01*
X246985567Y-94754326D01*
X246985564Y-94754324D01*
X246979895Y-94749273D01*
X246840750Y-94675599D01*
X246782290Y-94660915D01*
X246695417Y-94639094D01*
X246695415Y-94639094D01*
X246688047Y-94637243D01*
X246680449Y-94637203D01*
X246680447Y-94637203D01*
X246613238Y-94636851D01*
X246530603Y-94636419D01*
X246523224Y-94638191D01*
X246523220Y-94638191D01*
X246384886Y-94671402D01*
X246384882Y-94671403D01*
X246377507Y-94673174D01*
X246237598Y-94745386D01*
X246231876Y-94750378D01*
X246231874Y-94750379D01*
X246124678Y-94843892D01*
X246124675Y-94843895D01*
X246118953Y-94848887D01*
X246094216Y-94884084D01*
X246041386Y-94959254D01*
X246028420Y-94977702D01*
X245971228Y-95124393D01*
X245969494Y-95137562D01*
X245953256Y-95260904D01*
X245950677Y-95280492D01*
X245001242Y-95280492D01*
X244941878Y-95221128D01*
X244893500Y-95179809D01*
X244885419Y-95173937D01*
X244863623Y-95158101D01*
X244863622Y-95158100D01*
X244861608Y-95156637D01*
X244807347Y-95123385D01*
X244771710Y-95105227D01*
X244733609Y-95085813D01*
X244733598Y-95085808D01*
X244731400Y-95084688D01*
X244672611Y-95060337D01*
X244670276Y-95059578D01*
X244670267Y-95059575D01*
X244654237Y-95054367D01*
X244635118Y-95048155D01*
X244573247Y-95033301D01*
X244570801Y-95032914D01*
X244570798Y-95032913D01*
X244541506Y-95028274D01*
X244479145Y-95018397D01*
X244477946Y-95018255D01*
X244477938Y-95018254D01*
X244448760Y-95014801D01*
X244448741Y-95014799D01*
X244447523Y-95014655D01*
X244427813Y-95013104D01*
X244426599Y-95013056D01*
X244426577Y-95013055D01*
X244407592Y-95012309D01*
X244396002Y-95011854D01*
X229215836Y-95011854D01*
X229204246Y-95012309D01*
X229185261Y-95013055D01*
X229185239Y-95013056D01*
X229184025Y-95013104D01*
X229164315Y-95014655D01*
X229163097Y-95014799D01*
X229163078Y-95014801D01*
X229133900Y-95018254D01*
X229133892Y-95018255D01*
X229132693Y-95018397D01*
X229070332Y-95028274D01*
X229041040Y-95032913D01*
X229041037Y-95032914D01*
X229038591Y-95033301D01*
X228976720Y-95048155D01*
X228957601Y-95054367D01*
X228941571Y-95059575D01*
X228941562Y-95059578D01*
X228939227Y-95060337D01*
X228880438Y-95084688D01*
X228878240Y-95085808D01*
X228878229Y-95085813D01*
X228840128Y-95105227D01*
X228804491Y-95123385D01*
X228750230Y-95156637D01*
X228748216Y-95158100D01*
X228748215Y-95158101D01*
X228726420Y-95173937D01*
X228718338Y-95179809D01*
X228669960Y-95221128D01*
X228609693Y-95281395D01*
X228568374Y-95329773D01*
X228545202Y-95361665D01*
X228511950Y-95415926D01*
X228501219Y-95436987D01*
X228474378Y-95489664D01*
X228474373Y-95489675D01*
X228473253Y-95491873D01*
X228448902Y-95550662D01*
X228436720Y-95588155D01*
X228421866Y-95650026D01*
X228421479Y-95652472D01*
X228421478Y-95652475D01*
X228407572Y-95740277D01*
X228406962Y-95744128D01*
X228403220Y-95775750D01*
X228401669Y-95795460D01*
X228400419Y-95827271D01*
X228400419Y-98107437D01*
X228401669Y-98139248D01*
X228403220Y-98158958D01*
X228403364Y-98160176D01*
X228403366Y-98160195D01*
X228406748Y-98188774D01*
X228406962Y-98190580D01*
X228421866Y-98284682D01*
X228436720Y-98346553D01*
X228448902Y-98384046D01*
X228473253Y-98442835D01*
X228474373Y-98445033D01*
X228474378Y-98445044D01*
X228484581Y-98465067D01*
X228511950Y-98518782D01*
X228545202Y-98573043D01*
X228554345Y-98585627D01*
X228578203Y-98652491D01*
X228569803Y-98705454D01*
X228531228Y-98804393D01*
X228531228Y-98804394D01*
X228529710Y-98803802D01*
X228501514Y-98853234D01*
X227938921Y-99415828D01*
X227479636Y-99875113D01*
X227417324Y-99909138D01*
X227346509Y-99904074D01*
X227289673Y-99861527D01*
X227264862Y-99795007D01*
X227265798Y-99768265D01*
X227280472Y-99665161D01*
X227280472Y-99665158D01*
X227281053Y-99661077D01*
X227281197Y-99647354D01*
X227279170Y-99630599D01*
X227266210Y-99523507D01*
X227262282Y-99491048D01*
X227249682Y-99457702D01*
X227209313Y-99350868D01*
X227209312Y-99350865D01*
X227206629Y-99343766D01*
X227117450Y-99214011D01*
X227042073Y-99146852D01*
X227005567Y-99114326D01*
X227005564Y-99114324D01*
X226999895Y-99109273D01*
X226860750Y-99035599D01*
X226842839Y-99031100D01*
X226715417Y-98999094D01*
X226715415Y-98999094D01*
X226708047Y-98997243D01*
X226700449Y-98997203D01*
X226700447Y-98997203D01*
X226633238Y-98996851D01*
X226550603Y-98996419D01*
X226543224Y-98998191D01*
X226543220Y-98998191D01*
X226404886Y-99031402D01*
X226404882Y-99031403D01*
X226397507Y-99033174D01*
X226360856Y-99052091D01*
X226276702Y-99095526D01*
X226257598Y-99105386D01*
X226251876Y-99110378D01*
X226251874Y-99110379D01*
X226222730Y-99135803D01*
X226158248Y-99165511D01*
X226139901Y-99166854D01*
X217041102Y-99166854D01*
X216972981Y-99146852D01*
X216926488Y-99093196D01*
X216916384Y-99022922D01*
X216929356Y-98984132D01*
X216930143Y-98983037D01*
X216988869Y-98836952D01*
X216999024Y-98765598D01*
X217010472Y-98685161D01*
X217010472Y-98685158D01*
X217011053Y-98681077D01*
X217011197Y-98667354D01*
X217010388Y-98660664D01*
X217003685Y-98605279D01*
X216992282Y-98511048D01*
X216982030Y-98483916D01*
X216976663Y-98413122D01*
X217010802Y-98350285D01*
X217156328Y-98204759D01*
X217218640Y-98170733D01*
X217245423Y-98167854D01*
X218890619Y-98167854D01*
X218958740Y-98187856D01*
X218964373Y-98192181D01*
X218964519Y-98191976D01*
X218970709Y-98196375D01*
X218976329Y-98201489D01*
X218983006Y-98205114D01*
X218983007Y-98205115D01*
X219108018Y-98272991D01*
X219108020Y-98272992D01*
X219114695Y-98276616D01*
X219122044Y-98278544D01*
X219259638Y-98314641D01*
X219259640Y-98314641D01*
X219266988Y-98316569D01*
X219350299Y-98317878D01*
X219416817Y-98318923D01*
X219416820Y-98318923D01*
X219424414Y-98319042D01*
X219577887Y-98283892D01*
X219718544Y-98213149D01*
X219746382Y-98189373D01*
X219832493Y-98115828D01*
X219832495Y-98115825D01*
X219838267Y-98110896D01*
X219930143Y-97983037D01*
X219988869Y-97836952D01*
X219998711Y-97767795D01*
X220010472Y-97685161D01*
X220010472Y-97685158D01*
X220011053Y-97681077D01*
X220011197Y-97667354D01*
X220008341Y-97643749D01*
X220004147Y-97609094D01*
X219992282Y-97511048D01*
X219974355Y-97463605D01*
X219939313Y-97370868D01*
X219939312Y-97370865D01*
X219936629Y-97363766D01*
X219847450Y-97234011D01*
X219789109Y-97182031D01*
X219735567Y-97134326D01*
X219735564Y-97134324D01*
X219729895Y-97129273D01*
X219691331Y-97108854D01*
X219597462Y-97059153D01*
X219597463Y-97059153D01*
X219590750Y-97055599D01*
X219574041Y-97051402D01*
X219445417Y-97019094D01*
X219445415Y-97019094D01*
X219438047Y-97017243D01*
X219430449Y-97017203D01*
X219430447Y-97017203D01*
X219363238Y-97016851D01*
X219280603Y-97016419D01*
X219273224Y-97018191D01*
X219273220Y-97018191D01*
X219134886Y-97051402D01*
X219134882Y-97051403D01*
X219127507Y-97053174D01*
X218987598Y-97125386D01*
X218975656Y-97135804D01*
X218911176Y-97165511D01*
X218892828Y-97166854D01*
X217056100Y-97166854D01*
X217044215Y-97165526D01*
X217044174Y-97166036D01*
X217035228Y-97165316D01*
X217026472Y-97163335D01*
X216991401Y-97165511D01*
X216973655Y-97166612D01*
X216965852Y-97166854D01*
X216949979Y-97166854D01*
X216939867Y-97168302D01*
X216929813Y-97169332D01*
X216901822Y-97171069D01*
X216883381Y-97172213D01*
X216874937Y-97175261D01*
X216871225Y-97176030D01*
X216856520Y-97179697D01*
X216852892Y-97180758D01*
X216844001Y-97182031D01*
X216801637Y-97201293D01*
X216792282Y-97205100D01*
X216756976Y-97217845D01*
X216756972Y-97217847D01*
X216748532Y-97220894D01*
X216741284Y-97226189D01*
X216737944Y-97227965D01*
X216724830Y-97235628D01*
X216721658Y-97237657D01*
X216713491Y-97241370D01*
X216706696Y-97247225D01*
X216706693Y-97247227D01*
X216678244Y-97271741D01*
X216670324Y-97278029D01*
X216659583Y-97285876D01*
X216648840Y-97296619D01*
X216641994Y-97302977D01*
X216604882Y-97334954D01*
X216599999Y-97342488D01*
X216594100Y-97349250D01*
X216594095Y-97349246D01*
X216585119Y-97360340D01*
X216051639Y-97893820D01*
X216042295Y-97901286D01*
X216042627Y-97901676D01*
X216035791Y-97907494D01*
X216028199Y-97912284D01*
X216022257Y-97919012D01*
X216022256Y-97919013D01*
X215993164Y-97951954D01*
X215987817Y-97957642D01*
X215976599Y-97968860D01*
X215973910Y-97972448D01*
X215973909Y-97972449D01*
X215970469Y-97977038D01*
X215964087Y-97984877D01*
X215955013Y-97995152D01*
X215933296Y-98019742D01*
X215929482Y-98027865D01*
X215927411Y-98031018D01*
X215919592Y-98044030D01*
X215917775Y-98047349D01*
X215912393Y-98054530D01*
X215909244Y-98062931D01*
X215909243Y-98062932D01*
X215896063Y-98098090D01*
X215892136Y-98107407D01*
X215876182Y-98141388D01*
X215876181Y-98141391D01*
X215872366Y-98149517D01*
X215870984Y-98158391D01*
X215869880Y-98162004D01*
X215866034Y-98176661D01*
X215865220Y-98180364D01*
X215862067Y-98188774D01*
X215860496Y-98209919D01*
X215837929Y-98273029D01*
X215782792Y-98351479D01*
X215782787Y-98351489D01*
X215778420Y-98357702D01*
X215721228Y-98504393D01*
X215716664Y-98539059D01*
X215704395Y-98632253D01*
X215700677Y-98660492D01*
X215717954Y-98816987D01*
X215772062Y-98964844D01*
X215776302Y-98971154D01*
X215779747Y-98977915D01*
X215778444Y-98978579D01*
X215797308Y-99038277D01*
X215778703Y-99106792D01*
X215726010Y-99154373D01*
X215671334Y-99166854D01*
X210296134Y-99166854D01*
X210228013Y-99146852D01*
X210207039Y-99129949D01*
X208553324Y-97476235D01*
X208519299Y-97413923D01*
X208516419Y-97387140D01*
X208516419Y-96905266D01*
X208536421Y-96837145D01*
X208571051Y-96801427D01*
X208572661Y-96800320D01*
X208577699Y-96797499D01*
X208582136Y-96793808D01*
X208582140Y-96793806D01*
X208725233Y-96674797D01*
X208729671Y-96671106D01*
X208748470Y-96648503D01*
X208852371Y-96523575D01*
X208852373Y-96523571D01*
X208856064Y-96519134D01*
X208858885Y-96514097D01*
X208862159Y-96509333D01*
X208863512Y-96510263D01*
X208908760Y-96465975D01*
X208978292Y-96451628D01*
X209044542Y-96477150D01*
X209070854Y-96504483D01*
X209084347Y-96523575D01*
X209144598Y-96608828D01*
X209148732Y-96612855D01*
X209255829Y-96717184D01*
X209286185Y-96746756D01*
X209450536Y-96856571D01*
X209455838Y-96858849D01*
X209455840Y-96858850D01*
X209575834Y-96910404D01*
X209632147Y-96934598D01*
X209703617Y-96950770D01*
X209819300Y-96976947D01*
X209819306Y-96976948D01*
X209824937Y-96978222D01*
X209830708Y-96978449D01*
X209830710Y-96978449D01*
X209891303Y-96980829D01*
X210022447Y-96985982D01*
X210135771Y-96969551D01*
X210212351Y-96958448D01*
X210212356Y-96958447D01*
X210218065Y-96957619D01*
X210223529Y-96955764D01*
X210223534Y-96955763D01*
X210399767Y-96895940D01*
X210399772Y-96895938D01*
X210405239Y-96894082D01*
X210468150Y-96858850D01*
X210572661Y-96800321D01*
X210572665Y-96800318D01*
X210577699Y-96797499D01*
X210582136Y-96793808D01*
X210582140Y-96793806D01*
X210725233Y-96674797D01*
X210729671Y-96671106D01*
X210748470Y-96648503D01*
X210852371Y-96523575D01*
X210852373Y-96523571D01*
X210856064Y-96519134D01*
X210858885Y-96514097D01*
X210862159Y-96509333D01*
X210863512Y-96510263D01*
X210908760Y-96465975D01*
X210978292Y-96451628D01*
X211044542Y-96477150D01*
X211070854Y-96504483D01*
X211084347Y-96523575D01*
X211144598Y-96608828D01*
X211148732Y-96612855D01*
X211255829Y-96717184D01*
X211286185Y-96746756D01*
X211450536Y-96856571D01*
X211455838Y-96858849D01*
X211455840Y-96858850D01*
X211575834Y-96910404D01*
X211632147Y-96934598D01*
X211703617Y-96950770D01*
X211819300Y-96976947D01*
X211819306Y-96976948D01*
X211824937Y-96978222D01*
X211830708Y-96978449D01*
X211830710Y-96978449D01*
X211891303Y-96980829D01*
X212022447Y-96985982D01*
X212135771Y-96969551D01*
X212212351Y-96958448D01*
X212212356Y-96958447D01*
X212218065Y-96957619D01*
X212223529Y-96955764D01*
X212223534Y-96955763D01*
X212399767Y-96895940D01*
X212399772Y-96895938D01*
X212405239Y-96894082D01*
X212468150Y-96858850D01*
X212572661Y-96800321D01*
X212572665Y-96800318D01*
X212577699Y-96797499D01*
X212582136Y-96793808D01*
X212582140Y-96793806D01*
X212725233Y-96674797D01*
X212729671Y-96671106D01*
X212748470Y-96648503D01*
X212852371Y-96523575D01*
X212852373Y-96523571D01*
X212856064Y-96519134D01*
X212858883Y-96514100D01*
X212858886Y-96514096D01*
X212949824Y-96351715D01*
X212949824Y-96351714D01*
X212952647Y-96346674D01*
X212954503Y-96341207D01*
X212954505Y-96341202D01*
X213014328Y-96164969D01*
X213014329Y-96164964D01*
X213016184Y-96159500D01*
X213017012Y-96153791D01*
X213017013Y-96153786D01*
X213044014Y-95967556D01*
X213044547Y-95963882D01*
X213046027Y-95907354D01*
X213045396Y-95900479D01*
X213028469Y-95716277D01*
X213027940Y-95710520D01*
X212974287Y-95520278D01*
X212963735Y-95498879D01*
X212889416Y-95348178D01*
X212886862Y-95342999D01*
X212798146Y-95224193D01*
X212772049Y-95189245D01*
X212772048Y-95189244D01*
X212768596Y-95184621D01*
X212764360Y-95180705D01*
X212627688Y-95054367D01*
X212627686Y-95054365D01*
X212623447Y-95050447D01*
X212566720Y-95014655D01*
X212461158Y-94948050D01*
X212456278Y-94944971D01*
X212450918Y-94942833D01*
X212450915Y-94942831D01*
X212314567Y-94888434D01*
X212272686Y-94871725D01*
X212267026Y-94870599D01*
X212267022Y-94870598D01*
X212084488Y-94834290D01*
X212084486Y-94834290D01*
X212078821Y-94833163D01*
X212073046Y-94833087D01*
X212073042Y-94833087D01*
X211974606Y-94831799D01*
X211881175Y-94830576D01*
X211875478Y-94831555D01*
X211875477Y-94831555D01*
X211692063Y-94863071D01*
X211686366Y-94864050D01*
X211500921Y-94932464D01*
X211495960Y-94935416D01*
X211495959Y-94935416D01*
X211336015Y-95030572D01*
X211336012Y-95030574D01*
X211331047Y-95033528D01*
X211326707Y-95037334D01*
X211326703Y-95037337D01*
X211203756Y-95145160D01*
X211182436Y-95163857D01*
X211178861Y-95168392D01*
X211178860Y-95168393D01*
X211171015Y-95178344D01*
X211063604Y-95314595D01*
X211005724Y-95355707D01*
X210934804Y-95359001D01*
X210873361Y-95323430D01*
X210863697Y-95311977D01*
X210772049Y-95189245D01*
X210772048Y-95189244D01*
X210768596Y-95184621D01*
X210764360Y-95180705D01*
X210627688Y-95054367D01*
X210627686Y-95054365D01*
X210623447Y-95050447D01*
X210566720Y-95014655D01*
X210461158Y-94948050D01*
X210456278Y-94944971D01*
X210450918Y-94942833D01*
X210450915Y-94942831D01*
X210314567Y-94888434D01*
X210272686Y-94871725D01*
X210267026Y-94870599D01*
X210267022Y-94870598D01*
X210084488Y-94834290D01*
X210084486Y-94834290D01*
X210078821Y-94833163D01*
X210073046Y-94833087D01*
X210073042Y-94833087D01*
X209974606Y-94831799D01*
X209881175Y-94830576D01*
X209875478Y-94831555D01*
X209875477Y-94831555D01*
X209692063Y-94863071D01*
X209686366Y-94864050D01*
X209500921Y-94932464D01*
X209495960Y-94935416D01*
X209495959Y-94935416D01*
X209336015Y-95030572D01*
X209336012Y-95030574D01*
X209331047Y-95033528D01*
X209326707Y-95037334D01*
X209326703Y-95037337D01*
X209203756Y-95145160D01*
X209182436Y-95163857D01*
X209178861Y-95168392D01*
X209178860Y-95168393D01*
X209171015Y-95178344D01*
X209063604Y-95314595D01*
X209005724Y-95355707D01*
X208934804Y-95359001D01*
X208873361Y-95323430D01*
X208863697Y-95311977D01*
X208772049Y-95189245D01*
X208772048Y-95189244D01*
X208768596Y-95184621D01*
X208764360Y-95180705D01*
X208627688Y-95054367D01*
X208627686Y-95054365D01*
X208623447Y-95050447D01*
X208566720Y-95014655D01*
X208461158Y-94948050D01*
X208456278Y-94944971D01*
X208450918Y-94942833D01*
X208450915Y-94942831D01*
X208314567Y-94888434D01*
X208272686Y-94871725D01*
X208267026Y-94870599D01*
X208267022Y-94870598D01*
X208084488Y-94834290D01*
X208084486Y-94834290D01*
X208078821Y-94833163D01*
X208073046Y-94833087D01*
X208073042Y-94833087D01*
X207974606Y-94831799D01*
X207881175Y-94830576D01*
X207875478Y-94831555D01*
X207875477Y-94831555D01*
X207692063Y-94863071D01*
X207686366Y-94864050D01*
X207500921Y-94932464D01*
X207495960Y-94935416D01*
X207495959Y-94935416D01*
X207336015Y-95030572D01*
X207336012Y-95030574D01*
X207331047Y-95033528D01*
X207326704Y-95037337D01*
X207326697Y-95037342D01*
X207216508Y-95133976D01*
X207152104Y-95163854D01*
X207081771Y-95154168D01*
X207027840Y-95107996D01*
X207021163Y-95096448D01*
X207006738Y-95068137D01*
X206968969Y-94994012D01*
X206879261Y-94904304D01*
X206766223Y-94846708D01*
X206756434Y-94845158D01*
X206756432Y-94845157D01*
X206729070Y-94840824D01*
X206672438Y-94831854D01*
X205966062Y-94831854D01*
X205259401Y-94831855D01*
X205254508Y-94832630D01*
X205254507Y-94832630D01*
X205175413Y-94845156D01*
X205175411Y-94845157D01*
X205165615Y-94846708D01*
X205052577Y-94904304D01*
X204962869Y-94994012D01*
X204905273Y-95107050D01*
X204890419Y-95200835D01*
X204890420Y-96613872D01*
X204891195Y-96618765D01*
X204891195Y-96618766D01*
X204895905Y-96648503D01*
X204905273Y-96707658D01*
X204962869Y-96820696D01*
X205052577Y-96910404D01*
X205165615Y-96968000D01*
X205175404Y-96969550D01*
X205175406Y-96969551D01*
X205202768Y-96973884D01*
X205259400Y-96982854D01*
X205289419Y-96982854D01*
X205357540Y-97002856D01*
X205404033Y-97056512D01*
X205415419Y-97108854D01*
X205415419Y-97142361D01*
X205415308Y-97147637D01*
X205412709Y-97209648D01*
X205414671Y-97218013D01*
X205422646Y-97252016D01*
X205424809Y-97263687D01*
X205430713Y-97306786D01*
X205434125Y-97314670D01*
X205434125Y-97314671D01*
X205436684Y-97320584D01*
X205443718Y-97341853D01*
X205447151Y-97356490D01*
X205451288Y-97364015D01*
X205451289Y-97364018D01*
X205468114Y-97394622D01*
X205473330Y-97405267D01*
X205490614Y-97445209D01*
X205500077Y-97456895D01*
X205512564Y-97475479D01*
X205519812Y-97488662D01*
X205526816Y-97496776D01*
X205551352Y-97521312D01*
X205560177Y-97531113D01*
X205580125Y-97555746D01*
X205585533Y-97562424D01*
X205592531Y-97567397D01*
X205592536Y-97567402D01*
X205600867Y-97573322D01*
X205616973Y-97586933D01*
X208966037Y-100935996D01*
X208969690Y-100939805D01*
X209011718Y-100985510D01*
X209048721Y-101008453D01*
X209058471Y-101015154D01*
X209093136Y-101041466D01*
X209105826Y-101046490D01*
X209107114Y-101047000D01*
X209127118Y-101057061D01*
X209139905Y-101064989D01*
X209148156Y-101067386D01*
X209148158Y-101067387D01*
X209181691Y-101077129D01*
X209192921Y-101080974D01*
X209233372Y-101096990D01*
X209241913Y-101097888D01*
X209241914Y-101097888D01*
X209248327Y-101098562D01*
X209270302Y-101102874D01*
X209284744Y-101107069D01*
X209292227Y-101107619D01*
X209293127Y-101107685D01*
X209293138Y-101107685D01*
X209295434Y-101107854D01*
X209330136Y-101107854D01*
X209343306Y-101108544D01*
X209383373Y-101112755D01*
X209391838Y-101111323D01*
X209391847Y-101111323D01*
X209401919Y-101109619D01*
X209422932Y-101107854D01*
X227560926Y-101107854D01*
X227566203Y-101107965D01*
X227628213Y-101110564D01*
X227639767Y-101107854D01*
X227670581Y-101100627D01*
X227682252Y-101098464D01*
X227697148Y-101096423D01*
X227725351Y-101092560D01*
X227739149Y-101086589D01*
X227760418Y-101079555D01*
X227766694Y-101078083D01*
X227775055Y-101076122D01*
X227782580Y-101071985D01*
X227782583Y-101071984D01*
X227813187Y-101055159D01*
X227823832Y-101049943D01*
X227863774Y-101032659D01*
X227875460Y-101023196D01*
X227894045Y-101010708D01*
X227907227Y-101003461D01*
X227915341Y-100996457D01*
X227939877Y-100971921D01*
X227949678Y-100963096D01*
X227974311Y-100943148D01*
X227974312Y-100943147D01*
X227980989Y-100937740D01*
X227985962Y-100930742D01*
X227985967Y-100930737D01*
X227991887Y-100922406D01*
X228005498Y-100906300D01*
X229284455Y-99627343D01*
X229345421Y-99593618D01*
X229359991Y-99590281D01*
X229387887Y-99583892D01*
X229528544Y-99513149D01*
X229578049Y-99470868D01*
X229642493Y-99415828D01*
X229642495Y-99415825D01*
X229648267Y-99410896D01*
X229740143Y-99283037D01*
X229798869Y-99136952D01*
X229803314Y-99105718D01*
X229813934Y-99031100D01*
X229843335Y-98966477D01*
X229903006Y-98928009D01*
X229938677Y-98922854D01*
X230176573Y-98922854D01*
X230178888Y-98922681D01*
X230178901Y-98922681D01*
X230234337Y-98918550D01*
X230234343Y-98918549D01*
X230236669Y-98918376D01*
X230238972Y-98918031D01*
X230238980Y-98918030D01*
X230271732Y-98913122D01*
X230271747Y-98913119D01*
X230273604Y-98912841D01*
X230275452Y-98912449D01*
X230275465Y-98912447D01*
X230314555Y-98904162D01*
X230321255Y-98902742D01*
X230361881Y-98884305D01*
X230432269Y-98852362D01*
X230432274Y-98852359D01*
X230436783Y-98850313D01*
X230496048Y-98811221D01*
X230574765Y-98743340D01*
X230633455Y-98652491D01*
X230640924Y-98640930D01*
X230640925Y-98640928D01*
X230643608Y-98636775D01*
X230672330Y-98571848D01*
X230703526Y-98460728D01*
X230704114Y-98456265D01*
X230704115Y-98456258D01*
X230713772Y-98382898D01*
X230722286Y-98351123D01*
X230729241Y-98334333D01*
X230745687Y-98305849D01*
X230746646Y-98304600D01*
X230756745Y-98291438D01*
X230780003Y-98268180D01*
X230793215Y-98258042D01*
X230794415Y-98257121D01*
X230822904Y-98240674D01*
X230839694Y-98233720D01*
X230871456Y-98225209D01*
X230889467Y-98222837D01*
X230922371Y-98222837D01*
X230940382Y-98225209D01*
X230972144Y-98233720D01*
X230988934Y-98240674D01*
X231017423Y-98257121D01*
X231018623Y-98258042D01*
X231031835Y-98268180D01*
X231055093Y-98291438D01*
X231065193Y-98304600D01*
X231066151Y-98305849D01*
X231082597Y-98334333D01*
X231089552Y-98351123D01*
X231098065Y-98382893D01*
X231104468Y-98431525D01*
X231108311Y-98460720D01*
X231120595Y-98519721D01*
X231130903Y-98555617D01*
X231147135Y-98601544D01*
X231214194Y-98709241D01*
X231260687Y-98762897D01*
X231273353Y-98774193D01*
X231317378Y-98813455D01*
X231338263Y-98832081D01*
X231376722Y-98850313D01*
X231448425Y-98884305D01*
X231448429Y-98884307D01*
X231452902Y-98886427D01*
X231457650Y-98887821D01*
X231457655Y-98887823D01*
X231516700Y-98905160D01*
X231516704Y-98905161D01*
X231521023Y-98906429D01*
X231525471Y-98907069D01*
X231525478Y-98907070D01*
X231630817Y-98922215D01*
X231630824Y-98922215D01*
X231635265Y-98922854D01*
X236354903Y-98922854D01*
X236423024Y-98942856D01*
X236469517Y-98996512D01*
X236479621Y-99066786D01*
X236450127Y-99131366D01*
X236412693Y-99160820D01*
X236287598Y-99225386D01*
X236281876Y-99230378D01*
X236281874Y-99230379D01*
X236174678Y-99323892D01*
X236174675Y-99323895D01*
X236168953Y-99328887D01*
X236151832Y-99353248D01*
X236085693Y-99447354D01*
X236078420Y-99457702D01*
X236021228Y-99604393D01*
X236007414Y-99709326D01*
X236007126Y-99711511D01*
X235978404Y-99776438D01*
X235971299Y-99784160D01*
X235210047Y-100545412D01*
X235147735Y-100579438D01*
X235076920Y-100574373D01*
X235020084Y-100531826D01*
X235003085Y-100500852D01*
X234996629Y-100483766D01*
X234907450Y-100354011D01*
X234853224Y-100305697D01*
X234795567Y-100254326D01*
X234795564Y-100254324D01*
X234789895Y-100249273D01*
X234776828Y-100242354D01*
X234677314Y-100189664D01*
X234650750Y-100175599D01*
X234634041Y-100171402D01*
X234505417Y-100139094D01*
X234505415Y-100139094D01*
X234498047Y-100137243D01*
X234490449Y-100137203D01*
X234490447Y-100137203D01*
X234423238Y-100136851D01*
X234340603Y-100136419D01*
X234333224Y-100138191D01*
X234333220Y-100138191D01*
X234194886Y-100171402D01*
X234194882Y-100171403D01*
X234187507Y-100173174D01*
X234126366Y-100204731D01*
X234061432Y-100238246D01*
X234047598Y-100245386D01*
X234041876Y-100250378D01*
X234041874Y-100250379D01*
X233934678Y-100343892D01*
X233934675Y-100343895D01*
X233928953Y-100348887D01*
X233907140Y-100379924D01*
X233867401Y-100436467D01*
X233838420Y-100477702D01*
X233824580Y-100513201D01*
X233787438Y-100608466D01*
X233781228Y-100624393D01*
X233780237Y-100631918D01*
X233780236Y-100631923D01*
X233773190Y-100685447D01*
X233744468Y-100750374D01*
X233737363Y-100758096D01*
X233475510Y-101019949D01*
X233413198Y-101053975D01*
X233386415Y-101056854D01*
X229740063Y-101056854D01*
X229671942Y-101036852D01*
X229656250Y-101024935D01*
X229649895Y-101019273D01*
X229635351Y-101011572D01*
X229572762Y-100978433D01*
X229510750Y-100945599D01*
X229481699Y-100938302D01*
X229365417Y-100909094D01*
X229365415Y-100909094D01*
X229358047Y-100907243D01*
X229350449Y-100907203D01*
X229350447Y-100907203D01*
X229283238Y-100906851D01*
X229200603Y-100906419D01*
X229193224Y-100908191D01*
X229193220Y-100908191D01*
X229054886Y-100941402D01*
X229054882Y-100941403D01*
X229047507Y-100943174D01*
X228982437Y-100976759D01*
X228914988Y-101011572D01*
X228907598Y-101015386D01*
X228901876Y-101020378D01*
X228901874Y-101020379D01*
X228794678Y-101113892D01*
X228794675Y-101113895D01*
X228788953Y-101118887D01*
X228767596Y-101149275D01*
X228705239Y-101238000D01*
X228698420Y-101247702D01*
X228641228Y-101394393D01*
X228636317Y-101431693D01*
X228622342Y-101537846D01*
X228620677Y-101550492D01*
X228637954Y-101706987D01*
X228692062Y-101854844D01*
X228696301Y-101861152D01*
X228696469Y-101861402D01*
X228696535Y-101861612D01*
X228699747Y-101867915D01*
X228698696Y-101868450D01*
X228717861Y-101929100D01*
X228702934Y-101991213D01*
X228702784Y-101991492D01*
X228698420Y-101997702D01*
X228641228Y-102144393D01*
X228636732Y-102178542D01*
X228621987Y-102290542D01*
X228620677Y-102300492D01*
X228637954Y-102456987D01*
X228692062Y-102604844D01*
X228696299Y-102611150D01*
X228696301Y-102611153D01*
X228722539Y-102650199D01*
X228779877Y-102735526D01*
X228810063Y-102762993D01*
X228859365Y-102807854D01*
X228896329Y-102841489D01*
X228903004Y-102845113D01*
X229028018Y-102912991D01*
X229028020Y-102912992D01*
X229034695Y-102916616D01*
X229042044Y-102918544D01*
X229179638Y-102954641D01*
X229179640Y-102954641D01*
X229186988Y-102956569D01*
X229270299Y-102957878D01*
X229336817Y-102958923D01*
X229336820Y-102958923D01*
X229344414Y-102959042D01*
X229497887Y-102923892D01*
X229638544Y-102853149D01*
X229656231Y-102838043D01*
X229721021Y-102809012D01*
X229738061Y-102807854D01*
X233896249Y-102807854D01*
X233917148Y-102809600D01*
X233936470Y-102812850D01*
X233948824Y-102813001D01*
X233953646Y-102812310D01*
X233953651Y-102812310D01*
X233976342Y-102809060D01*
X233984316Y-102808176D01*
X234100888Y-102798998D01*
X234100889Y-102798998D01*
X234105828Y-102798609D01*
X234110643Y-102797453D01*
X234110648Y-102797452D01*
X234254152Y-102762993D01*
X234254155Y-102762992D01*
X234258965Y-102761837D01*
X234268893Y-102757724D01*
X234399882Y-102703459D01*
X234399884Y-102703458D01*
X234404463Y-102701561D01*
X234538740Y-102619264D01*
X234620368Y-102549537D01*
X234629088Y-102542729D01*
X234651099Y-102527055D01*
X234655460Y-102522799D01*
X234656453Y-102521830D01*
X234656457Y-102521826D01*
X234659940Y-102518426D01*
X234676316Y-102496572D01*
X234688053Y-102483034D01*
X236734620Y-100436467D01*
X236795585Y-100402742D01*
X236870484Y-100385588D01*
X236870488Y-100385587D01*
X236877887Y-100383892D01*
X237018544Y-100313149D01*
X237087417Y-100254326D01*
X237132493Y-100215828D01*
X237132495Y-100215825D01*
X237138267Y-100210896D01*
X237230143Y-100083037D01*
X237234453Y-100072317D01*
X237262490Y-100002571D01*
X237288869Y-99936952D01*
X237306276Y-99814644D01*
X237310472Y-99785161D01*
X237310472Y-99785158D01*
X237311053Y-99781077D01*
X237311197Y-99767354D01*
X237292282Y-99611048D01*
X237255289Y-99513149D01*
X237239313Y-99470868D01*
X237239312Y-99470865D01*
X237236629Y-99463766D01*
X237147450Y-99334011D01*
X237082329Y-99275990D01*
X237035567Y-99234326D01*
X237035564Y-99234324D01*
X237029895Y-99229273D01*
X236899453Y-99160207D01*
X236848611Y-99110655D01*
X236832630Y-99041481D01*
X236856584Y-98974647D01*
X236912868Y-98931374D01*
X236958414Y-98922854D01*
X239374419Y-98922854D01*
X239442540Y-98942856D01*
X239489033Y-98996512D01*
X239500419Y-99048854D01*
X239500419Y-103885854D01*
X239480417Y-103953975D01*
X239426761Y-104000468D01*
X239374419Y-104011854D01*
X229415836Y-104011854D01*
X229404246Y-104012309D01*
X229385261Y-104013055D01*
X229385239Y-104013056D01*
X229384025Y-104013104D01*
X229364315Y-104014655D01*
X229363097Y-104014799D01*
X229363078Y-104014801D01*
X229333900Y-104018254D01*
X229333892Y-104018255D01*
X229332693Y-104018397D01*
X229270332Y-104028274D01*
X229241040Y-104032913D01*
X229241037Y-104032914D01*
X229238591Y-104033301D01*
X229176720Y-104048155D01*
X229155006Y-104055210D01*
X229141571Y-104059575D01*
X229141562Y-104059578D01*
X229139227Y-104060337D01*
X229080438Y-104084688D01*
X229078240Y-104085808D01*
X229078229Y-104085813D01*
X229048683Y-104100868D01*
X229004491Y-104123385D01*
X228950230Y-104156637D01*
X228948216Y-104158100D01*
X228948215Y-104158101D01*
X228931584Y-104170185D01*
X228918338Y-104179809D01*
X228869960Y-104221128D01*
X228809693Y-104281395D01*
X228768374Y-104329773D01*
X228745202Y-104361665D01*
X228711950Y-104415926D01*
X228695151Y-104448895D01*
X228674378Y-104489664D01*
X228674373Y-104489675D01*
X228673253Y-104491873D01*
X228648902Y-104550662D01*
X228648143Y-104552997D01*
X228648140Y-104553006D01*
X228646054Y-104559426D01*
X228636720Y-104588155D01*
X228621866Y-104650026D01*
X228621479Y-104652472D01*
X228621478Y-104652475D01*
X228619232Y-104666655D01*
X228606962Y-104744128D01*
X228603220Y-104775750D01*
X228601669Y-104795460D01*
X228601621Y-104796674D01*
X228601620Y-104796696D01*
X228601062Y-104810913D01*
X228600419Y-104827271D01*
X228600419Y-106423947D01*
X228600933Y-106427941D01*
X228600933Y-106427945D01*
X228603708Y-106449517D01*
X228613620Y-106526571D01*
X228614638Y-106530461D01*
X228614639Y-106530468D01*
X228628853Y-106584802D01*
X228629760Y-106588269D01*
X228633612Y-106598214D01*
X228659888Y-106666061D01*
X228659890Y-106666064D01*
X228662973Y-106674025D01*
X228668076Y-106680875D01*
X228668076Y-106680876D01*
X228677237Y-106693174D01*
X228738760Y-106775769D01*
X228742297Y-106779223D01*
X228742299Y-106779225D01*
X228746061Y-106782898D01*
X228789556Y-106825370D01*
X228792789Y-106827802D01*
X228792790Y-106827803D01*
X228854213Y-106874011D01*
X228872622Y-106887860D01*
X228881057Y-106891029D01*
X228986756Y-106930739D01*
X228986761Y-106930740D01*
X228991386Y-106932478D01*
X228996227Y-106933471D01*
X228996231Y-106933472D01*
X229022663Y-106938893D01*
X229060935Y-106946742D01*
X229125674Y-106951526D01*
X229155605Y-106953738D01*
X229155606Y-106953738D01*
X229164593Y-106954402D01*
X229173399Y-106952508D01*
X229173402Y-106952508D01*
X229245838Y-106936930D01*
X229288625Y-106927729D01*
X229299581Y-106923493D01*
X229350653Y-106903749D01*
X229350657Y-106903747D01*
X229354845Y-106902128D01*
X229358761Y-106899929D01*
X229358769Y-106899925D01*
X229382092Y-106886827D01*
X229395571Y-106880279D01*
X229459688Y-106853721D01*
X229491454Y-106845208D01*
X229509474Y-106842836D01*
X229542371Y-106842837D01*
X229560382Y-106845209D01*
X229592144Y-106853720D01*
X229608934Y-106860674D01*
X229637421Y-106877120D01*
X229651418Y-106887860D01*
X229651838Y-106888182D01*
X229675091Y-106911437D01*
X229691299Y-106932559D01*
X229703330Y-106951526D01*
X229723397Y-106990449D01*
X229723408Y-106990468D01*
X229724608Y-106992796D01*
X229746781Y-107028217D01*
X229779654Y-107073462D01*
X229785030Y-107078143D01*
X229785032Y-107078145D01*
X229852614Y-107136987D01*
X229875336Y-107156771D01*
X229935514Y-107194441D01*
X229939180Y-107196126D01*
X229939186Y-107196129D01*
X230021775Y-107234084D01*
X230021778Y-107234085D01*
X230029962Y-107237846D01*
X230038879Y-107239150D01*
X230038880Y-107239150D01*
X230071929Y-107243982D01*
X230155496Y-107256200D01*
X230226488Y-107255355D01*
X230292244Y-107246060D01*
X230320489Y-107242068D01*
X230320490Y-107242068D01*
X230329409Y-107240807D01*
X230427858Y-107196129D01*
X230440423Y-107190427D01*
X230440428Y-107190424D01*
X230444937Y-107188378D01*
X230504202Y-107149286D01*
X230510562Y-107143802D01*
X230576092Y-107087292D01*
X230582919Y-107081405D01*
X230651762Y-106974840D01*
X230672603Y-106927729D01*
X230678664Y-106914028D01*
X230678666Y-106914024D01*
X230680484Y-106909913D01*
X230711680Y-106798792D01*
X230713773Y-106782894D01*
X230722285Y-106751129D01*
X230729239Y-106734339D01*
X230745687Y-106705849D01*
X230756745Y-106691438D01*
X230780003Y-106668180D01*
X230782765Y-106666061D01*
X230794415Y-106657121D01*
X230822904Y-106640674D01*
X230839694Y-106633720D01*
X230871456Y-106625209D01*
X230889467Y-106622837D01*
X230922371Y-106622837D01*
X230940382Y-106625209D01*
X230972144Y-106633720D01*
X230988934Y-106640674D01*
X231017423Y-106657121D01*
X231029073Y-106666061D01*
X231031835Y-106668180D01*
X231055093Y-106691438D01*
X231066151Y-106705849D01*
X231082597Y-106734333D01*
X231089552Y-106751123D01*
X231098065Y-106782894D01*
X231103657Y-106825370D01*
X231107544Y-106854891D01*
X231108312Y-106860728D01*
X231111078Y-106874011D01*
X231119412Y-106914037D01*
X231120595Y-106919721D01*
X231121233Y-106921942D01*
X231121235Y-106921951D01*
X231128121Y-106945929D01*
X231130903Y-106955617D01*
X231147135Y-107001544D01*
X231150752Y-107007353D01*
X231150753Y-107007355D01*
X231162591Y-107026366D01*
X231214194Y-107109241D01*
X231260687Y-107162897D01*
X231338263Y-107232081D01*
X231385702Y-107254570D01*
X231448425Y-107284305D01*
X231448429Y-107284307D01*
X231452902Y-107286427D01*
X231457650Y-107287821D01*
X231457655Y-107287823D01*
X231516700Y-107305160D01*
X231516704Y-107305161D01*
X231521023Y-107306429D01*
X231525471Y-107307069D01*
X231525478Y-107307070D01*
X231630817Y-107322215D01*
X231630824Y-107322215D01*
X231635265Y-107322854D01*
X239374419Y-107322854D01*
X239442540Y-107342856D01*
X239489033Y-107396512D01*
X239500419Y-107448854D01*
X239500419Y-114707437D01*
X239501669Y-114739248D01*
X239503220Y-114758958D01*
X239506962Y-114790580D01*
X239521866Y-114884682D01*
X239536720Y-114946553D01*
X239548902Y-114984046D01*
X239571623Y-115038898D01*
X239573171Y-115042636D01*
X239580760Y-115113225D01*
X239548981Y-115176712D01*
X239487923Y-115212940D01*
X239456762Y-115216854D01*
X200632419Y-115216854D01*
X200564298Y-115196852D01*
X200517805Y-115143196D01*
X200506419Y-115090854D01*
X200506419Y-110500835D01*
X204990419Y-110500835D01*
X204990420Y-111913872D01*
X204991195Y-111918765D01*
X204991195Y-111918766D01*
X204995905Y-111948503D01*
X205005273Y-112007658D01*
X205062869Y-112120696D01*
X205152577Y-112210404D01*
X205265615Y-112268000D01*
X205275404Y-112269550D01*
X205275406Y-112269551D01*
X205302768Y-112273884D01*
X205359400Y-112282854D01*
X206065776Y-112282854D01*
X206772437Y-112282853D01*
X206777331Y-112282078D01*
X206856425Y-112269552D01*
X206856427Y-112269551D01*
X206866223Y-112268000D01*
X206885304Y-112258278D01*
X206926824Y-112237122D01*
X206979261Y-112210404D01*
X207068969Y-112120696D01*
X207121712Y-112017183D01*
X207170459Y-111965569D01*
X207239374Y-111948503D01*
X207306576Y-111971404D01*
X207321899Y-111984132D01*
X207382048Y-112042726D01*
X207386185Y-112046756D01*
X207550536Y-112156571D01*
X207555838Y-112158849D01*
X207555840Y-112158850D01*
X207726840Y-112232318D01*
X207732147Y-112234598D01*
X207792171Y-112248180D01*
X207919300Y-112276947D01*
X207919306Y-112276948D01*
X207924937Y-112278222D01*
X207930708Y-112278449D01*
X207930710Y-112278449D01*
X207991303Y-112280829D01*
X208122447Y-112285982D01*
X208235771Y-112269551D01*
X208312351Y-112258448D01*
X208312356Y-112258447D01*
X208318065Y-112257619D01*
X208323529Y-112255764D01*
X208323534Y-112255763D01*
X208499767Y-112195940D01*
X208499772Y-112195938D01*
X208505239Y-112194082D01*
X208568150Y-112158850D01*
X208672661Y-112100321D01*
X208672665Y-112100318D01*
X208677699Y-112097499D01*
X208682136Y-112093808D01*
X208682140Y-112093806D01*
X208825233Y-111974797D01*
X208829671Y-111971106D01*
X208848470Y-111948503D01*
X208952371Y-111823575D01*
X208952373Y-111823571D01*
X208956064Y-111819134D01*
X208958885Y-111814097D01*
X208962159Y-111809333D01*
X208963512Y-111810263D01*
X209008760Y-111765975D01*
X209078292Y-111751628D01*
X209144542Y-111777150D01*
X209170854Y-111804483D01*
X209202220Y-111848865D01*
X209244598Y-111908828D01*
X209269822Y-111933400D01*
X209355829Y-112017184D01*
X209386185Y-112046756D01*
X209550536Y-112156571D01*
X209555838Y-112158849D01*
X209555840Y-112158850D01*
X209726840Y-112232318D01*
X209732147Y-112234598D01*
X209792171Y-112248180D01*
X209919300Y-112276947D01*
X209919306Y-112276948D01*
X209924937Y-112278222D01*
X209930708Y-112278449D01*
X209930710Y-112278449D01*
X209991303Y-112280829D01*
X210122447Y-112285982D01*
X210235771Y-112269551D01*
X210312351Y-112258448D01*
X210312356Y-112258447D01*
X210318065Y-112257619D01*
X210323529Y-112255764D01*
X210323534Y-112255763D01*
X210499767Y-112195940D01*
X210499772Y-112195938D01*
X210505239Y-112194082D01*
X210568150Y-112158850D01*
X210672661Y-112100321D01*
X210672665Y-112100318D01*
X210677699Y-112097499D01*
X210682136Y-112093808D01*
X210682140Y-112093806D01*
X210825233Y-111974797D01*
X210829671Y-111971106D01*
X210848470Y-111948503D01*
X210952371Y-111823575D01*
X210952373Y-111823571D01*
X210956064Y-111819134D01*
X210958885Y-111814097D01*
X210962159Y-111809333D01*
X210963512Y-111810263D01*
X211008760Y-111765975D01*
X211078292Y-111751628D01*
X211144542Y-111777150D01*
X211170854Y-111804483D01*
X211202220Y-111848865D01*
X211244598Y-111908828D01*
X211269822Y-111933400D01*
X211355829Y-112017184D01*
X211386185Y-112046756D01*
X211550536Y-112156571D01*
X211555838Y-112158849D01*
X211555840Y-112158850D01*
X211726840Y-112232318D01*
X211732147Y-112234598D01*
X211792171Y-112248180D01*
X211919300Y-112276947D01*
X211919306Y-112276948D01*
X211924937Y-112278222D01*
X211930708Y-112278449D01*
X211930710Y-112278449D01*
X211991303Y-112280829D01*
X212122447Y-112285982D01*
X212235771Y-112269551D01*
X212312351Y-112258448D01*
X212312356Y-112258447D01*
X212318065Y-112257619D01*
X212323529Y-112255764D01*
X212323534Y-112255763D01*
X212499767Y-112195940D01*
X212499772Y-112195938D01*
X212505239Y-112194082D01*
X212568150Y-112158850D01*
X212672661Y-112100321D01*
X212672665Y-112100318D01*
X212677699Y-112097499D01*
X212682136Y-112093808D01*
X212682140Y-112093806D01*
X212825233Y-111974797D01*
X212829671Y-111971106D01*
X212848470Y-111948503D01*
X212952371Y-111823575D01*
X212952373Y-111823571D01*
X212956064Y-111819134D01*
X212958883Y-111814100D01*
X212958886Y-111814096D01*
X213049824Y-111651715D01*
X213049824Y-111651714D01*
X213052647Y-111646674D01*
X213054503Y-111641207D01*
X213054505Y-111641202D01*
X213114328Y-111464969D01*
X213114329Y-111464964D01*
X213116184Y-111459500D01*
X213117012Y-111453791D01*
X213117013Y-111453786D01*
X213134527Y-111332991D01*
X213144547Y-111263882D01*
X213146027Y-111207354D01*
X213142762Y-111171816D01*
X213128795Y-111019826D01*
X213127940Y-111010520D01*
X213074287Y-110820278D01*
X213061336Y-110794015D01*
X213025078Y-110720492D01*
X228550677Y-110720492D01*
X228567954Y-110876987D01*
X228622062Y-111024844D01*
X228626299Y-111031150D01*
X228626301Y-111031153D01*
X228666628Y-111091165D01*
X228709877Y-111155526D01*
X228715493Y-111160636D01*
X228780294Y-111219600D01*
X228826329Y-111261489D01*
X228847804Y-111273149D01*
X228958018Y-111332991D01*
X228958020Y-111332992D01*
X228964695Y-111336616D01*
X228972044Y-111338544D01*
X229109638Y-111374641D01*
X229109640Y-111374641D01*
X229116988Y-111376569D01*
X229200299Y-111377878D01*
X229266817Y-111378923D01*
X229266820Y-111378923D01*
X229274414Y-111379042D01*
X229427887Y-111343892D01*
X229568544Y-111273149D01*
X229597940Y-111248043D01*
X229662729Y-111219012D01*
X229679770Y-111217854D01*
X235986249Y-111217854D01*
X236007148Y-111219600D01*
X236026470Y-111222850D01*
X236038824Y-111223001D01*
X236043646Y-111222310D01*
X236043651Y-111222310D01*
X236066684Y-111219011D01*
X236074658Y-111218127D01*
X236190884Y-111208976D01*
X236195825Y-111208587D01*
X236200640Y-111207431D01*
X236200645Y-111207430D01*
X236344145Y-111172972D01*
X236344148Y-111172971D01*
X236348958Y-111171816D01*
X236494453Y-111111541D01*
X236546446Y-111079675D01*
X236624505Y-111031835D01*
X236624509Y-111031832D01*
X236628727Y-111029247D01*
X236632492Y-111026031D01*
X236710156Y-110959689D01*
X236718899Y-110952863D01*
X236741099Y-110937055D01*
X236744587Y-110933651D01*
X236746453Y-110931830D01*
X236746457Y-110931826D01*
X236749940Y-110928426D01*
X236766316Y-110906572D01*
X236778053Y-110893034D01*
X237242738Y-110428349D01*
X237303704Y-110394624D01*
X237430482Y-110365588D01*
X237437887Y-110363892D01*
X237578544Y-110293149D01*
X237646141Y-110235416D01*
X237692493Y-110195828D01*
X237692495Y-110195825D01*
X237698267Y-110190896D01*
X237790143Y-110063037D01*
X237848869Y-109916952D01*
X237865259Y-109801786D01*
X237870472Y-109765161D01*
X237870472Y-109765158D01*
X237871053Y-109761077D01*
X237871197Y-109747354D01*
X237870667Y-109742970D01*
X237864361Y-109690868D01*
X237852282Y-109591048D01*
X237836377Y-109548956D01*
X237799313Y-109450868D01*
X237799312Y-109450865D01*
X237796629Y-109443766D01*
X237707450Y-109314011D01*
X237660890Y-109272528D01*
X237595567Y-109214326D01*
X237595564Y-109214324D01*
X237589895Y-109209273D01*
X237450750Y-109135599D01*
X237434041Y-109131402D01*
X237305417Y-109099094D01*
X237305415Y-109099094D01*
X237298047Y-109097243D01*
X237290449Y-109097203D01*
X237290447Y-109097203D01*
X237223238Y-109096851D01*
X237140603Y-109096419D01*
X237133224Y-109098191D01*
X237133220Y-109098191D01*
X236994886Y-109131402D01*
X236994882Y-109131403D01*
X236987507Y-109133174D01*
X236847598Y-109205386D01*
X236841876Y-109210378D01*
X236841874Y-109210379D01*
X236734678Y-109303892D01*
X236734675Y-109303895D01*
X236728953Y-109308887D01*
X236638420Y-109437702D01*
X236618911Y-109487740D01*
X236585592Y-109573201D01*
X236581228Y-109584393D01*
X236580237Y-109591918D01*
X236580236Y-109591923D01*
X236578494Y-109605159D01*
X236573417Y-109643726D01*
X236573190Y-109645447D01*
X236544468Y-109710374D01*
X236537363Y-109718096D01*
X236075510Y-110179949D01*
X236013198Y-110213975D01*
X235986415Y-110216854D01*
X235905546Y-110216854D01*
X235837425Y-110196852D01*
X235790932Y-110143196D01*
X235780803Y-110073101D01*
X235790472Y-110005162D01*
X235790472Y-110005156D01*
X235791053Y-110001077D01*
X235791197Y-109987354D01*
X235789722Y-109975161D01*
X235781767Y-109909426D01*
X235772282Y-109831048D01*
X235760818Y-109800708D01*
X235719313Y-109690868D01*
X235719312Y-109690865D01*
X235716629Y-109683766D01*
X235627450Y-109554011D01*
X235559139Y-109493148D01*
X235515567Y-109454326D01*
X235515564Y-109454324D01*
X235509895Y-109449273D01*
X235491009Y-109439273D01*
X235377462Y-109379153D01*
X235377463Y-109379153D01*
X235370750Y-109375599D01*
X235314229Y-109361402D01*
X235225417Y-109339094D01*
X235225415Y-109339094D01*
X235218047Y-109337243D01*
X235210449Y-109337203D01*
X235210447Y-109337203D01*
X235143238Y-109336851D01*
X235060603Y-109336419D01*
X235053224Y-109338191D01*
X235053220Y-109338191D01*
X234914886Y-109371402D01*
X234914882Y-109371403D01*
X234907507Y-109373174D01*
X234900762Y-109376655D01*
X234900763Y-109376655D01*
X234782486Y-109437702D01*
X234767598Y-109445386D01*
X234761870Y-109450383D01*
X234755593Y-109454649D01*
X234753765Y-109451959D01*
X234702621Y-109475514D01*
X234684291Y-109476854D01*
X229680063Y-109476854D01*
X229611942Y-109456852D01*
X229596250Y-109444935D01*
X229589895Y-109439273D01*
X229450750Y-109365599D01*
X229434041Y-109361402D01*
X229305417Y-109329094D01*
X229305415Y-109329094D01*
X229298047Y-109327243D01*
X229290449Y-109327203D01*
X229290447Y-109327203D01*
X229223238Y-109326851D01*
X229140603Y-109326419D01*
X229133224Y-109328191D01*
X229133220Y-109328191D01*
X228994886Y-109361402D01*
X228994882Y-109361403D01*
X228987507Y-109363174D01*
X228847598Y-109435386D01*
X228841876Y-109440378D01*
X228841874Y-109440379D01*
X228734678Y-109533892D01*
X228734675Y-109533895D01*
X228728953Y-109538887D01*
X228704837Y-109573201D01*
X228643437Y-109660564D01*
X228638420Y-109667702D01*
X228581228Y-109814393D01*
X228579035Y-109831048D01*
X228562407Y-109957354D01*
X228560677Y-109970492D01*
X228577954Y-110126987D01*
X228580564Y-110134119D01*
X228629450Y-110267708D01*
X228629452Y-110267712D01*
X228632062Y-110274844D01*
X228636301Y-110281153D01*
X228638883Y-110286219D01*
X228651988Y-110355995D01*
X228634254Y-110403650D01*
X228636379Y-110404790D01*
X228632789Y-110411485D01*
X228628420Y-110417702D01*
X228571228Y-110564393D01*
X228569754Y-110575587D01*
X228558773Y-110659001D01*
X228550677Y-110720492D01*
X213025078Y-110720492D01*
X212990109Y-110649583D01*
X212977919Y-110579640D01*
X213005478Y-110514211D01*
X213064036Y-110474067D01*
X213103115Y-110467854D01*
X221374435Y-110467854D01*
X221445160Y-110490425D01*
X221446329Y-110491489D01*
X221453006Y-110495114D01*
X221453007Y-110495115D01*
X221578018Y-110562991D01*
X221578020Y-110562992D01*
X221584695Y-110566616D01*
X221592044Y-110568544D01*
X221729638Y-110604641D01*
X221729640Y-110604641D01*
X221736988Y-110606569D01*
X221820299Y-110607878D01*
X221886817Y-110608923D01*
X221886820Y-110608923D01*
X221894414Y-110609042D01*
X222047887Y-110573892D01*
X222188544Y-110503149D01*
X222234549Y-110463857D01*
X222302493Y-110405828D01*
X222302495Y-110405825D01*
X222308267Y-110400896D01*
X222400143Y-110273037D01*
X222403452Y-110264807D01*
X222421934Y-110218830D01*
X222458869Y-110126952D01*
X222476775Y-110001138D01*
X222480472Y-109975161D01*
X222480472Y-109975158D01*
X222481053Y-109971077D01*
X222481197Y-109957354D01*
X222477162Y-109924006D01*
X222462282Y-109801048D01*
X222465090Y-109800708D01*
X222467681Y-109742970D01*
X222508705Y-109685025D01*
X222574543Y-109658458D01*
X222586864Y-109657854D01*
X225590926Y-109657854D01*
X225596203Y-109657965D01*
X225658213Y-109660564D01*
X225669767Y-109657854D01*
X225700581Y-109650627D01*
X225712252Y-109648464D01*
X225727148Y-109646423D01*
X225755351Y-109642560D01*
X225769149Y-109636589D01*
X225790418Y-109629555D01*
X225796694Y-109628083D01*
X225805055Y-109626122D01*
X225812580Y-109621985D01*
X225812583Y-109621984D01*
X225843187Y-109605159D01*
X225853832Y-109599943D01*
X225893774Y-109582659D01*
X225905460Y-109573196D01*
X225924045Y-109560708D01*
X225931437Y-109556644D01*
X225937227Y-109553461D01*
X225945341Y-109546457D01*
X225969877Y-109521921D01*
X225979678Y-109513096D01*
X226004311Y-109493148D01*
X226004312Y-109493147D01*
X226010989Y-109487740D01*
X226015962Y-109480742D01*
X226015967Y-109480737D01*
X226021887Y-109472406D01*
X226035498Y-109456300D01*
X226804455Y-108687343D01*
X226865421Y-108653618D01*
X226879991Y-108650281D01*
X226907887Y-108643892D01*
X227048544Y-108573149D01*
X227085261Y-108541790D01*
X227162493Y-108475828D01*
X227162495Y-108475825D01*
X227168267Y-108470896D01*
X227260143Y-108343037D01*
X227318869Y-108196952D01*
X227334734Y-108085479D01*
X227340472Y-108045161D01*
X227340472Y-108045158D01*
X227341053Y-108041077D01*
X227341197Y-108027354D01*
X227338952Y-108008798D01*
X227323194Y-107878588D01*
X227322282Y-107871048D01*
X227308700Y-107835103D01*
X227269313Y-107730868D01*
X227269312Y-107730865D01*
X227266629Y-107723766D01*
X227177450Y-107594011D01*
X227059895Y-107489273D01*
X227056340Y-107487391D01*
X227012776Y-107433274D01*
X227004466Y-107367362D01*
X227010472Y-107325162D01*
X227010472Y-107325156D01*
X227011053Y-107321077D01*
X227011197Y-107307354D01*
X227009237Y-107291153D01*
X227004836Y-107254788D01*
X226992282Y-107151048D01*
X226965966Y-107081405D01*
X226939313Y-107010868D01*
X226939312Y-107010865D01*
X226936629Y-107003766D01*
X226847450Y-106874011D01*
X226768213Y-106803413D01*
X226735567Y-106774326D01*
X226735564Y-106774324D01*
X226729895Y-106769273D01*
X226696912Y-106751809D01*
X226624179Y-106713299D01*
X226590750Y-106695599D01*
X226569574Y-106690280D01*
X226445417Y-106659094D01*
X226445415Y-106659094D01*
X226438047Y-106657243D01*
X226430449Y-106657203D01*
X226430447Y-106657203D01*
X226363238Y-106656851D01*
X226280603Y-106656419D01*
X226273224Y-106658191D01*
X226273220Y-106658191D01*
X226134886Y-106691402D01*
X226134882Y-106691403D01*
X226127507Y-106693174D01*
X226080661Y-106717353D01*
X226015221Y-106751129D01*
X225987598Y-106765386D01*
X225981876Y-106770378D01*
X225981874Y-106770379D01*
X225874678Y-106863892D01*
X225874675Y-106863895D01*
X225868953Y-106868887D01*
X225839270Y-106911121D01*
X225783518Y-106990449D01*
X225778420Y-106997702D01*
X225721228Y-107144393D01*
X225719711Y-107143802D01*
X225691515Y-107193233D01*
X225517387Y-107367362D01*
X225344800Y-107539949D01*
X225282487Y-107573974D01*
X225255704Y-107576854D01*
X217079083Y-107576854D01*
X217010962Y-107556852D01*
X216964469Y-107503196D01*
X216954365Y-107432922D01*
X216976760Y-107377328D01*
X217007956Y-107333914D01*
X217030143Y-107303037D01*
X217088869Y-107156952D01*
X217100085Y-107078145D01*
X217110472Y-107005161D01*
X217110472Y-107005158D01*
X217111053Y-107001077D01*
X217111197Y-106987354D01*
X217110186Y-106978995D01*
X217103282Y-106921951D01*
X217092282Y-106831048D01*
X217088099Y-106819978D01*
X217076546Y-106789402D01*
X217071178Y-106718609D01*
X217105317Y-106655770D01*
X217166328Y-106594759D01*
X217228640Y-106560733D01*
X217255423Y-106557854D01*
X218970619Y-106557854D01*
X219038740Y-106577856D01*
X219044373Y-106582181D01*
X219044519Y-106581976D01*
X219050709Y-106586375D01*
X219056329Y-106591489D01*
X219063006Y-106595114D01*
X219063007Y-106595115D01*
X219188018Y-106662991D01*
X219188020Y-106662992D01*
X219194695Y-106666616D01*
X219202044Y-106668544D01*
X219339638Y-106704641D01*
X219339640Y-106704641D01*
X219346988Y-106706569D01*
X219430299Y-106707878D01*
X219496817Y-106708923D01*
X219496820Y-106708923D01*
X219504414Y-106709042D01*
X219657887Y-106673892D01*
X219798544Y-106603149D01*
X219828158Y-106577856D01*
X219912493Y-106505828D01*
X219912495Y-106505825D01*
X219918267Y-106500896D01*
X220010143Y-106373037D01*
X220068869Y-106226952D01*
X220091053Y-106071077D01*
X220091197Y-106057354D01*
X220072282Y-105901048D01*
X220035289Y-105803149D01*
X220019313Y-105760868D01*
X220019312Y-105760865D01*
X220016629Y-105753766D01*
X219927450Y-105624011D01*
X219868145Y-105571172D01*
X219815567Y-105524326D01*
X219815564Y-105524324D01*
X219809895Y-105519273D01*
X219670750Y-105445599D01*
X219638737Y-105437558D01*
X219525417Y-105409094D01*
X219525415Y-105409094D01*
X219518047Y-105407243D01*
X219510449Y-105407203D01*
X219510447Y-105407203D01*
X219443238Y-105406851D01*
X219360603Y-105406419D01*
X219353224Y-105408191D01*
X219353220Y-105408191D01*
X219214886Y-105441402D01*
X219214882Y-105441403D01*
X219207507Y-105443174D01*
X219067598Y-105515386D01*
X219055656Y-105525804D01*
X218991176Y-105555511D01*
X218972828Y-105556854D01*
X217066094Y-105556854D01*
X217054214Y-105555526D01*
X217054173Y-105556037D01*
X217045228Y-105555317D01*
X217036471Y-105553336D01*
X216984471Y-105556562D01*
X216983665Y-105556612D01*
X216975863Y-105556854D01*
X216959979Y-105556854D01*
X216955531Y-105557491D01*
X216955529Y-105557491D01*
X216949861Y-105558302D01*
X216939810Y-105559332D01*
X216902338Y-105561657D01*
X216902336Y-105561657D01*
X216893381Y-105562213D01*
X216884944Y-105565259D01*
X216881244Y-105566025D01*
X216866520Y-105569697D01*
X216862892Y-105570758D01*
X216854001Y-105572031D01*
X216811637Y-105591293D01*
X216802282Y-105595100D01*
X216766976Y-105607845D01*
X216766972Y-105607847D01*
X216758532Y-105610894D01*
X216751284Y-105616189D01*
X216747944Y-105617965D01*
X216734830Y-105625628D01*
X216731658Y-105627657D01*
X216723491Y-105631370D01*
X216716696Y-105637225D01*
X216716693Y-105637227D01*
X216688244Y-105661741D01*
X216680324Y-105668029D01*
X216669583Y-105675876D01*
X216658840Y-105686619D01*
X216651994Y-105692977D01*
X216614882Y-105724954D01*
X216609999Y-105732488D01*
X216604100Y-105739250D01*
X216604095Y-105739246D01*
X216595119Y-105750340D01*
X216151639Y-106193820D01*
X216142295Y-106201286D01*
X216142627Y-106201676D01*
X216135791Y-106207494D01*
X216128199Y-106212284D01*
X216122257Y-106219012D01*
X216122256Y-106219013D01*
X216093164Y-106251954D01*
X216087817Y-106257642D01*
X216076599Y-106268860D01*
X216073910Y-106272448D01*
X216073909Y-106272449D01*
X216070469Y-106277038D01*
X216064087Y-106284877D01*
X216033296Y-106319742D01*
X216029482Y-106327865D01*
X216027411Y-106331018D01*
X216019592Y-106344030D01*
X216017775Y-106347349D01*
X216012393Y-106354530D01*
X216009244Y-106362931D01*
X216009243Y-106362932D01*
X215996063Y-106398090D01*
X215992136Y-106407407D01*
X215976182Y-106441388D01*
X215976181Y-106441391D01*
X215972366Y-106449517D01*
X215970984Y-106458391D01*
X215969880Y-106462004D01*
X215966034Y-106476661D01*
X215965220Y-106480364D01*
X215962067Y-106488774D01*
X215958833Y-106532284D01*
X215936268Y-106595393D01*
X215884970Y-106668383D01*
X215878420Y-106677702D01*
X215821228Y-106824393D01*
X215816444Y-106860728D01*
X215803952Y-106955617D01*
X215800677Y-106980492D01*
X215817954Y-107136987D01*
X215872062Y-107284844D01*
X215876299Y-107291150D01*
X215876301Y-107291153D01*
X215936393Y-107380578D01*
X215957786Y-107448275D01*
X215939182Y-107516791D01*
X215886489Y-107564372D01*
X215831812Y-107576854D01*
X208870912Y-107576854D01*
X208865636Y-107576743D01*
X208861229Y-107576558D01*
X208803625Y-107574144D01*
X208795260Y-107576106D01*
X208761257Y-107584081D01*
X208749586Y-107586244D01*
X208734690Y-107588285D01*
X208706487Y-107592148D01*
X208698603Y-107595560D01*
X208698602Y-107595560D01*
X208692689Y-107598119D01*
X208671420Y-107605153D01*
X208656783Y-107608586D01*
X208649258Y-107612723D01*
X208649255Y-107612724D01*
X208618651Y-107629549D01*
X208608006Y-107634765D01*
X208568064Y-107652049D01*
X208556378Y-107661512D01*
X208537794Y-107673999D01*
X208524611Y-107681247D01*
X208516497Y-107688251D01*
X208491961Y-107712787D01*
X208482160Y-107721612D01*
X208457527Y-107741560D01*
X208450849Y-107746968D01*
X208445876Y-107753966D01*
X208445871Y-107753971D01*
X208439951Y-107762302D01*
X208426340Y-107778408D01*
X206109799Y-110094949D01*
X206047487Y-110128975D01*
X206020704Y-110131854D01*
X205421267Y-110131855D01*
X205359401Y-110131855D01*
X205354508Y-110132630D01*
X205354507Y-110132630D01*
X205275413Y-110145156D01*
X205275411Y-110145157D01*
X205265615Y-110146708D01*
X205152577Y-110204304D01*
X205062869Y-110294012D01*
X205005273Y-110407050D01*
X205003723Y-110416839D01*
X205003722Y-110416841D01*
X204999389Y-110444203D01*
X204990419Y-110500835D01*
X200506419Y-110500835D01*
X200506419Y-87143854D01*
X200526421Y-87075733D01*
X200580077Y-87029240D01*
X200632419Y-87017854D01*
X384579419Y-87017854D01*
X384647540Y-87037856D01*
G37*
G04 #@! TD.AperFunction*
G04 #@! TA.AperFunction,Conductor*
G36*
X252509107Y-108541790D02*
G01*
X252548414Y-108584487D01*
X252563105Y-108610646D01*
X252588524Y-108655910D01*
X252595070Y-108664441D01*
X252596151Y-108665850D01*
X252612601Y-108694342D01*
X252619554Y-108711130D01*
X252628064Y-108742891D01*
X252630436Y-108760902D01*
X252630436Y-108793806D01*
X252628064Y-108811817D01*
X252619553Y-108843579D01*
X252612599Y-108860369D01*
X252596151Y-108888859D01*
X252585093Y-108903270D01*
X252561835Y-108926528D01*
X252547424Y-108937586D01*
X252518934Y-108954034D01*
X252502144Y-108960988D01*
X252470382Y-108969499D01*
X252452371Y-108971871D01*
X252419467Y-108971871D01*
X252401456Y-108969499D01*
X252369694Y-108960988D01*
X252352904Y-108954034D01*
X252324417Y-108937588D01*
X252309998Y-108926524D01*
X252286749Y-108903274D01*
X252275687Y-108888859D01*
X252259239Y-108860371D01*
X252252283Y-108843579D01*
X252243773Y-108811817D01*
X252241401Y-108793802D01*
X252241402Y-108760902D01*
X252243774Y-108742891D01*
X252252284Y-108711130D01*
X252259237Y-108694342D01*
X252275687Y-108665850D01*
X252282515Y-108656952D01*
X252282527Y-108656936D01*
X252283314Y-108655910D01*
X252302739Y-108628284D01*
X252314074Y-108610646D01*
X252325555Y-108591658D01*
X252326111Y-108590177D01*
X252372902Y-108538637D01*
X252441468Y-108520217D01*
X252509107Y-108541790D01*
G37*
G04 #@! TD.AperFunction*
G04 #@! TA.AperFunction,Conductor*
G36*
X287358754Y-92942856D02*
G01*
X287405247Y-92996512D01*
X287415351Y-93066786D01*
X287385857Y-93131366D01*
X287355056Y-93157139D01*
X287216015Y-93239859D01*
X287216012Y-93239861D01*
X287211047Y-93242815D01*
X287206707Y-93246621D01*
X287206703Y-93246624D01*
X287066777Y-93369337D01*
X287062436Y-93373144D01*
X287058861Y-93377679D01*
X287058860Y-93377680D01*
X286945668Y-93521264D01*
X286940064Y-93528372D01*
X286848029Y-93703302D01*
X286789414Y-93892074D01*
X286766181Y-94088367D01*
X286779109Y-94285607D01*
X286827764Y-94477188D01*
X286910518Y-94656695D01*
X287024598Y-94818115D01*
X287053950Y-94846708D01*
X287152623Y-94942831D01*
X287166185Y-94956043D01*
X287330536Y-95065858D01*
X287335838Y-95068136D01*
X287335840Y-95068137D01*
X287489083Y-95133976D01*
X287512147Y-95143885D01*
X287562771Y-95155340D01*
X287699300Y-95186234D01*
X287699306Y-95186235D01*
X287704937Y-95187509D01*
X287710708Y-95187736D01*
X287710710Y-95187736D01*
X287771303Y-95190116D01*
X287902447Y-95195269D01*
X288019178Y-95178344D01*
X288092351Y-95167735D01*
X288092356Y-95167734D01*
X288098065Y-95166906D01*
X288103529Y-95165051D01*
X288103534Y-95165050D01*
X288279767Y-95105227D01*
X288279772Y-95105225D01*
X288285239Y-95103369D01*
X288293776Y-95098588D01*
X288452661Y-95009608D01*
X288452665Y-95009605D01*
X288457699Y-95006786D01*
X288462136Y-95003095D01*
X288462140Y-95003093D01*
X288605233Y-94884084D01*
X288609671Y-94880393D01*
X288649396Y-94832629D01*
X288732371Y-94732862D01*
X288732373Y-94732858D01*
X288736064Y-94728421D01*
X288738885Y-94723384D01*
X288742159Y-94718620D01*
X288743512Y-94719550D01*
X288788760Y-94675262D01*
X288858292Y-94660915D01*
X288924542Y-94686437D01*
X288950854Y-94713770D01*
X288997718Y-94780081D01*
X289024598Y-94818115D01*
X289053950Y-94846708D01*
X289152623Y-94942831D01*
X289166185Y-94956043D01*
X289330536Y-95065858D01*
X289335838Y-95068136D01*
X289335840Y-95068137D01*
X289489083Y-95133976D01*
X289512147Y-95143885D01*
X289562771Y-95155340D01*
X289699300Y-95186234D01*
X289699306Y-95186235D01*
X289704937Y-95187509D01*
X289710708Y-95187736D01*
X289710710Y-95187736D01*
X289771303Y-95190116D01*
X289902447Y-95195269D01*
X290019178Y-95178344D01*
X290092351Y-95167735D01*
X290092356Y-95167734D01*
X290098065Y-95166906D01*
X290103529Y-95165051D01*
X290103534Y-95165050D01*
X290279767Y-95105227D01*
X290279772Y-95105225D01*
X290285239Y-95103369D01*
X290312854Y-95087904D01*
X290382061Y-95072071D01*
X290448843Y-95096168D01*
X290491996Y-95152545D01*
X290500419Y-95197839D01*
X290500419Y-100340187D01*
X290480417Y-100408308D01*
X290475219Y-100415787D01*
X290440969Y-100461454D01*
X290384095Y-100503949D01*
X290340169Y-100511854D01*
X276715836Y-100511854D01*
X276704246Y-100512309D01*
X276685261Y-100513055D01*
X276685239Y-100513056D01*
X276684025Y-100513104D01*
X276664315Y-100514655D01*
X276663097Y-100514799D01*
X276663078Y-100514801D01*
X276633900Y-100518254D01*
X276633892Y-100518255D01*
X276632693Y-100518397D01*
X276576664Y-100527271D01*
X276541040Y-100532913D01*
X276541037Y-100532914D01*
X276538591Y-100533301D01*
X276536186Y-100533878D01*
X276536183Y-100533879D01*
X276501585Y-100542185D01*
X276476720Y-100548155D01*
X276455006Y-100555210D01*
X276441571Y-100559575D01*
X276441562Y-100559578D01*
X276439227Y-100560337D01*
X276380438Y-100584688D01*
X276378240Y-100585808D01*
X276378229Y-100585813D01*
X276339765Y-100605412D01*
X276304491Y-100623385D01*
X276250230Y-100656637D01*
X276248216Y-100658100D01*
X276248215Y-100658101D01*
X276224152Y-100675585D01*
X276218338Y-100679809D01*
X276169960Y-100721128D01*
X276109693Y-100781395D01*
X276108090Y-100783272D01*
X276108088Y-100783274D01*
X276095287Y-100798262D01*
X276068374Y-100829773D01*
X276066912Y-100831785D01*
X276066909Y-100831789D01*
X276065234Y-100834094D01*
X276045202Y-100861665D01*
X276011950Y-100915926D01*
X275997278Y-100944721D01*
X275974378Y-100989664D01*
X275974373Y-100989675D01*
X275973253Y-100991873D01*
X275968223Y-101004018D01*
X275968024Y-101004498D01*
X275923477Y-101059780D01*
X275856114Y-101082202D01*
X275787322Y-101064645D01*
X275738943Y-101012684D01*
X275732349Y-100996925D01*
X275716010Y-100948979D01*
X275714559Y-100944721D01*
X275711289Y-100938302D01*
X275703189Y-100922406D01*
X275699889Y-100915929D01*
X275698597Y-100913820D01*
X275667936Y-100863785D01*
X275667929Y-100863775D01*
X275666640Y-100861671D01*
X275645230Y-100832203D01*
X275644910Y-100831762D01*
X275644903Y-100831754D01*
X275643468Y-100829778D01*
X275641875Y-100827912D01*
X275641868Y-100827904D01*
X275603764Y-100783290D01*
X275603757Y-100783283D01*
X275602145Y-100781395D01*
X275541878Y-100721128D01*
X275493500Y-100679809D01*
X275487687Y-100675585D01*
X275463623Y-100658101D01*
X275463622Y-100658100D01*
X275461608Y-100656637D01*
X275407347Y-100623385D01*
X275372073Y-100605412D01*
X275333609Y-100585813D01*
X275333598Y-100585808D01*
X275331400Y-100584688D01*
X275272611Y-100560337D01*
X275270276Y-100559578D01*
X275270267Y-100559575D01*
X275256832Y-100555210D01*
X275235118Y-100548155D01*
X275210253Y-100542185D01*
X275175655Y-100533879D01*
X275175652Y-100533878D01*
X275173247Y-100533301D01*
X275170801Y-100532914D01*
X275170798Y-100532913D01*
X275135174Y-100527271D01*
X275079145Y-100518397D01*
X275077946Y-100518255D01*
X275077938Y-100518254D01*
X275048760Y-100514801D01*
X275048741Y-100514799D01*
X275047523Y-100514655D01*
X275027813Y-100513104D01*
X275026599Y-100513056D01*
X275026577Y-100513055D01*
X275007592Y-100512309D01*
X274996002Y-100511854D01*
X273015836Y-100511854D01*
X273004246Y-100512309D01*
X272985261Y-100513055D01*
X272985239Y-100513056D01*
X272984025Y-100513104D01*
X272964315Y-100514655D01*
X272963097Y-100514799D01*
X272963078Y-100514801D01*
X272933900Y-100518254D01*
X272933892Y-100518255D01*
X272932693Y-100518397D01*
X272876664Y-100527271D01*
X272841040Y-100532913D01*
X272841037Y-100532914D01*
X272838591Y-100533301D01*
X272836186Y-100533878D01*
X272836183Y-100533879D01*
X272801585Y-100542185D01*
X272776720Y-100548155D01*
X272755006Y-100555210D01*
X272741571Y-100559575D01*
X272741562Y-100559578D01*
X272739227Y-100560337D01*
X272680438Y-100584688D01*
X272678240Y-100585808D01*
X272678229Y-100585813D01*
X272639765Y-100605412D01*
X272604491Y-100623385D01*
X272602383Y-100624677D01*
X272602371Y-100624684D01*
X272563389Y-100648572D01*
X272494856Y-100667111D01*
X272427179Y-100645655D01*
X272381846Y-100591016D01*
X272375848Y-100573754D01*
X272374756Y-100569678D01*
X272374754Y-100569671D01*
X272374218Y-100567671D01*
X272373043Y-100564208D01*
X272357832Y-100519400D01*
X272357167Y-100517441D01*
X272319913Y-100427502D01*
X272315724Y-100419006D01*
X272297361Y-100381771D01*
X272297359Y-100381767D01*
X272296450Y-100379924D01*
X272280003Y-100351438D01*
X272261808Y-100324207D01*
X272251687Y-100309060D01*
X272251681Y-100309052D01*
X272250538Y-100307341D01*
X272191275Y-100230108D01*
X272156302Y-100190229D01*
X272133044Y-100166971D01*
X272093165Y-100131998D01*
X272015932Y-100072735D01*
X272014221Y-100071592D01*
X272014213Y-100071586D01*
X271973559Y-100044422D01*
X271971835Y-100043270D01*
X271951950Y-100031789D01*
X271945137Y-100027855D01*
X271945129Y-100027851D01*
X271943349Y-100026823D01*
X271941502Y-100025912D01*
X271897619Y-100004271D01*
X271897611Y-100004267D01*
X271895771Y-100003360D01*
X271805832Y-99966106D01*
X271755602Y-99949055D01*
X271753602Y-99948519D01*
X271753595Y-99948517D01*
X271725825Y-99941076D01*
X271725810Y-99941072D01*
X271723830Y-99940542D01*
X271720019Y-99939784D01*
X271673824Y-99930595D01*
X271673812Y-99930593D01*
X271671811Y-99930195D01*
X271643631Y-99926485D01*
X271568078Y-99916538D01*
X271568067Y-99916537D01*
X271567036Y-99916401D01*
X271540630Y-99913800D01*
X271537405Y-99913589D01*
X271525197Y-99912788D01*
X271525172Y-99912787D01*
X271524184Y-99912722D01*
X271523212Y-99912690D01*
X271523188Y-99912689D01*
X271498651Y-99911886D01*
X271498627Y-99911886D01*
X271497661Y-99911854D01*
X267508900Y-99911854D01*
X267505827Y-99912157D01*
X267505821Y-99912157D01*
X267432864Y-99919343D01*
X267432858Y-99919344D01*
X267429791Y-99919646D01*
X267426766Y-99920248D01*
X267426764Y-99920248D01*
X267415530Y-99922483D01*
X267381574Y-99929237D01*
X267305506Y-99952311D01*
X267281986Y-99962053D01*
X267250208Y-99970566D01*
X267246552Y-99971047D01*
X267213680Y-99971047D01*
X267210024Y-99970566D01*
X267178246Y-99962053D01*
X267154726Y-99952311D01*
X267078658Y-99929237D01*
X267044702Y-99922483D01*
X267033468Y-99920248D01*
X267033466Y-99920248D01*
X267030441Y-99919646D01*
X267027374Y-99919344D01*
X267027368Y-99919343D01*
X266954411Y-99912157D01*
X266954405Y-99912157D01*
X266951332Y-99911854D01*
X266528900Y-99911854D01*
X266525827Y-99912157D01*
X266525821Y-99912157D01*
X266452864Y-99919343D01*
X266452858Y-99919344D01*
X266449791Y-99919646D01*
X266446766Y-99920248D01*
X266446764Y-99920248D01*
X266435530Y-99922483D01*
X266401574Y-99929237D01*
X266325506Y-99952311D01*
X266301986Y-99962053D01*
X266270208Y-99970566D01*
X266266552Y-99971047D01*
X266233680Y-99971047D01*
X266230024Y-99970566D01*
X266198246Y-99962053D01*
X266174726Y-99952311D01*
X266098658Y-99929237D01*
X266064702Y-99922483D01*
X266053468Y-99920248D01*
X266053466Y-99920248D01*
X266050441Y-99919646D01*
X266047374Y-99919344D01*
X266047368Y-99919343D01*
X265974411Y-99912157D01*
X265974405Y-99912157D01*
X265971332Y-99911854D01*
X265563043Y-99911854D01*
X265483935Y-99919645D01*
X265454610Y-99925478D01*
X265438752Y-99928632D01*
X265438746Y-99928634D01*
X265435717Y-99929236D01*
X265359646Y-99952312D01*
X265356794Y-99953493D01*
X265356795Y-99953493D01*
X265311989Y-99972052D01*
X265280240Y-99980562D01*
X265277823Y-99980881D01*
X265276582Y-99981044D01*
X265243649Y-99981044D01*
X265241664Y-99980783D01*
X265239990Y-99980562D01*
X265208241Y-99972052D01*
X265163435Y-99953493D01*
X265163436Y-99953493D01*
X265160584Y-99952312D01*
X265115106Y-99938516D01*
X265087486Y-99930137D01*
X265087481Y-99930136D01*
X265084515Y-99929236D01*
X265036297Y-99919645D01*
X264957189Y-99911854D01*
X264514177Y-99911854D01*
X264513211Y-99911886D01*
X264513187Y-99911886D01*
X264488650Y-99912689D01*
X264488626Y-99912690D01*
X264487654Y-99912722D01*
X264486666Y-99912787D01*
X264486641Y-99912788D01*
X264474433Y-99913589D01*
X264471208Y-99913800D01*
X264444802Y-99916401D01*
X264443771Y-99916537D01*
X264443760Y-99916538D01*
X264368207Y-99926485D01*
X264340027Y-99930195D01*
X264338026Y-99930593D01*
X264338014Y-99930595D01*
X264291819Y-99939784D01*
X264288008Y-99940542D01*
X264286028Y-99941072D01*
X264286013Y-99941076D01*
X264258243Y-99948517D01*
X264258236Y-99948519D01*
X264256236Y-99949055D01*
X264206006Y-99966106D01*
X264116067Y-100003360D01*
X264114227Y-100004267D01*
X264114219Y-100004271D01*
X264070336Y-100025912D01*
X264068489Y-100026823D01*
X264066709Y-100027851D01*
X264066701Y-100027855D01*
X264059888Y-100031789D01*
X264040003Y-100043270D01*
X264038279Y-100044422D01*
X263997625Y-100071586D01*
X263997617Y-100071592D01*
X263995906Y-100072735D01*
X263918673Y-100131998D01*
X263878794Y-100166971D01*
X263855536Y-100190229D01*
X263820563Y-100230108D01*
X263780483Y-100282342D01*
X263723147Y-100324207D01*
X263652276Y-100328429D01*
X263590373Y-100293665D01*
X263563153Y-100250572D01*
X263562936Y-100250662D01*
X263562415Y-100249405D01*
X263538585Y-100191873D01*
X263537465Y-100189675D01*
X263537460Y-100189664D01*
X263511693Y-100139094D01*
X263499888Y-100115926D01*
X263466636Y-100061665D01*
X263443464Y-100029773D01*
X263402145Y-99981395D01*
X263341878Y-99921128D01*
X263336344Y-99916401D01*
X263295387Y-99881421D01*
X263293500Y-99879809D01*
X263261608Y-99856637D01*
X263207347Y-99823385D01*
X263159277Y-99798892D01*
X263133609Y-99785813D01*
X263133598Y-99785808D01*
X263131400Y-99784688D01*
X263072611Y-99760337D01*
X263070276Y-99759578D01*
X263070267Y-99759575D01*
X263056832Y-99755210D01*
X263035118Y-99748155D01*
X262973247Y-99733301D01*
X262970801Y-99732914D01*
X262970798Y-99732913D01*
X262941506Y-99728274D01*
X262879145Y-99718397D01*
X262877946Y-99718255D01*
X262877938Y-99718254D01*
X262848760Y-99714801D01*
X262848741Y-99714799D01*
X262847523Y-99714655D01*
X262827813Y-99713104D01*
X262826599Y-99713056D01*
X262826577Y-99713055D01*
X262807592Y-99712309D01*
X262796002Y-99711854D01*
X258215836Y-99711854D01*
X258204246Y-99712309D01*
X258185261Y-99713055D01*
X258185239Y-99713056D01*
X258184025Y-99713104D01*
X258164315Y-99714655D01*
X258163097Y-99714799D01*
X258163078Y-99714801D01*
X258133900Y-99718254D01*
X258133892Y-99718255D01*
X258132693Y-99718397D01*
X258070332Y-99728274D01*
X258041040Y-99732913D01*
X258041037Y-99732914D01*
X258038591Y-99733301D01*
X257976720Y-99748155D01*
X257955006Y-99755210D01*
X257941571Y-99759575D01*
X257941562Y-99759578D01*
X257939227Y-99760337D01*
X257880438Y-99784688D01*
X257878240Y-99785808D01*
X257878229Y-99785813D01*
X257852561Y-99798892D01*
X257804491Y-99823385D01*
X257750230Y-99856637D01*
X257718338Y-99879809D01*
X257716451Y-99881421D01*
X257675495Y-99916401D01*
X257669960Y-99921128D01*
X257609693Y-99981395D01*
X257568374Y-100029773D01*
X257545202Y-100061665D01*
X257511950Y-100115926D01*
X257500145Y-100139094D01*
X257474378Y-100189664D01*
X257474373Y-100189675D01*
X257473253Y-100191873D01*
X257448902Y-100250662D01*
X257448143Y-100252997D01*
X257448140Y-100253006D01*
X257443775Y-100266441D01*
X257436720Y-100288155D01*
X257421866Y-100350026D01*
X257406962Y-100444128D01*
X257406820Y-100445327D01*
X257406819Y-100445335D01*
X257403725Y-100471485D01*
X257403220Y-100475750D01*
X257401669Y-100495460D01*
X257401621Y-100496674D01*
X257401620Y-100496696D01*
X257401025Y-100511854D01*
X257400419Y-100527271D01*
X257400419Y-107485854D01*
X257380417Y-107553975D01*
X257326761Y-107600468D01*
X257274419Y-107611854D01*
X253906563Y-107611854D01*
X253838442Y-107591852D01*
X253791949Y-107538196D01*
X253781845Y-107467922D01*
X253797923Y-107423349D01*
X253797387Y-107423049D01*
X253798594Y-107420893D01*
X253799888Y-107418782D01*
X253826088Y-107367362D01*
X253837460Y-107345044D01*
X253837465Y-107345033D01*
X253838585Y-107342835D01*
X253862936Y-107284046D01*
X253864996Y-107277708D01*
X253868063Y-107268267D01*
X253875118Y-107246553D01*
X253889972Y-107184682D01*
X253904876Y-107090580D01*
X253905962Y-107081405D01*
X253908472Y-107060195D01*
X253908474Y-107060176D01*
X253908618Y-107058958D01*
X253910169Y-107039248D01*
X253910603Y-107028217D01*
X253911370Y-107008678D01*
X253911419Y-107007437D01*
X253911419Y-93851161D01*
X253931421Y-93783040D01*
X253952278Y-93758280D01*
X254510448Y-93246624D01*
X254827522Y-92955973D01*
X254891253Y-92924686D01*
X254912663Y-92922854D01*
X287290633Y-92922854D01*
X287358754Y-92942856D01*
G37*
G04 #@! TD.AperFunction*
G04 #@! TA.AperFunction,Conductor*
G36*
X261483769Y-106532990D02*
G01*
X261488705Y-106533109D01*
X261488707Y-106533109D01*
X261503679Y-106533469D01*
X261538959Y-106534318D01*
X261538978Y-106533525D01*
X261544772Y-106532840D01*
X261602085Y-106534341D01*
X261689474Y-106522836D01*
X261722369Y-106522837D01*
X261740381Y-106525209D01*
X261772144Y-106533720D01*
X261788934Y-106540674D01*
X261817424Y-106557122D01*
X261831835Y-106568180D01*
X261855093Y-106591438D01*
X261866151Y-106605849D01*
X261882597Y-106634333D01*
X261889552Y-106651123D01*
X261898066Y-106682899D01*
X261899038Y-106690280D01*
X261900437Y-106700906D01*
X261900437Y-106733797D01*
X261900366Y-106734339D01*
X261898156Y-106751129D01*
X261898066Y-106751809D01*
X261889552Y-106783585D01*
X261882597Y-106800375D01*
X261866151Y-106828859D01*
X261855093Y-106843270D01*
X261831835Y-106866528D01*
X261817424Y-106877586D01*
X261788940Y-106894032D01*
X261772150Y-106900987D01*
X261740375Y-106909501D01*
X261732435Y-106910546D01*
X261722362Y-106911872D01*
X261689473Y-106911872D01*
X261604181Y-106900643D01*
X261602132Y-106900373D01*
X261548415Y-106901882D01*
X261492445Y-106903454D01*
X261491771Y-106903439D01*
X261491438Y-106901119D01*
X261478027Y-106903047D01*
X261478026Y-106903047D01*
X261425866Y-106910546D01*
X261425859Y-106910548D01*
X261421870Y-106911121D01*
X261371187Y-106925220D01*
X261300198Y-106924206D01*
X261241026Y-106884973D01*
X261212458Y-106819978D01*
X261211419Y-106803829D01*
X261211419Y-106634283D01*
X261231421Y-106566162D01*
X261285077Y-106519669D01*
X261360118Y-106510344D01*
X261483769Y-106532990D01*
G37*
G04 #@! TD.AperFunction*
G04 #@! TA.AperFunction,Conductor*
G36*
X279497843Y-103012328D02*
G01*
X279511605Y-103012400D01*
X279541637Y-103016193D01*
X279569585Y-103023213D01*
X279597847Y-103034062D01*
X279623306Y-103047542D01*
X279648166Y-103064821D01*
X279669678Y-103083988D01*
X279689697Y-103106695D01*
X279706016Y-103130439D01*
X279720041Y-103157265D01*
X279728340Y-103179227D01*
X279728484Y-103179590D01*
X279728505Y-103179644D01*
X279729211Y-103181421D01*
X279733360Y-103191867D01*
X279736612Y-103199671D01*
X279804457Y-103309241D01*
X279850950Y-103362897D01*
X279928526Y-103432081D01*
X279936671Y-103435942D01*
X280038688Y-103484305D01*
X280038692Y-103484307D01*
X280043165Y-103486427D01*
X280047913Y-103487821D01*
X280047918Y-103487823D01*
X280106963Y-103505160D01*
X280106967Y-103505161D01*
X280111286Y-103506429D01*
X280115734Y-103507069D01*
X280115741Y-103507070D01*
X280221080Y-103522215D01*
X280221087Y-103522215D01*
X280225528Y-103522854D01*
X283294481Y-103522854D01*
X283362602Y-103542856D01*
X283409095Y-103596512D01*
X283418930Y-103668564D01*
X283406962Y-103744128D01*
X283406820Y-103745327D01*
X283406819Y-103745335D01*
X283405061Y-103760195D01*
X283403220Y-103775750D01*
X283401669Y-103795460D01*
X283400419Y-103827271D01*
X283400419Y-104985854D01*
X283380417Y-105053975D01*
X283326761Y-105100468D01*
X283274419Y-105111854D01*
X280032553Y-105111854D01*
X279964432Y-105091852D01*
X279917939Y-105038196D01*
X279907835Y-104967922D01*
X279937329Y-104903342D01*
X279950723Y-104890043D01*
X280002493Y-104845828D01*
X280002495Y-104845825D01*
X280008267Y-104840896D01*
X280100143Y-104713037D01*
X280108891Y-104691277D01*
X280156033Y-104574006D01*
X280158869Y-104566952D01*
X280181053Y-104411077D01*
X280181197Y-104397354D01*
X280179021Y-104379368D01*
X280172790Y-104327886D01*
X280162282Y-104241048D01*
X280118990Y-104126478D01*
X280109313Y-104100868D01*
X280109312Y-104100865D01*
X280106629Y-104093766D01*
X280017450Y-103964011D01*
X279929729Y-103885854D01*
X279905567Y-103864326D01*
X279905564Y-103864324D01*
X279899895Y-103859273D01*
X279760750Y-103785599D01*
X279744041Y-103781402D01*
X279615417Y-103749094D01*
X279615415Y-103749094D01*
X279608047Y-103747243D01*
X279600449Y-103747203D01*
X279600447Y-103747203D01*
X279533238Y-103746851D01*
X279450603Y-103746419D01*
X279443224Y-103748191D01*
X279443220Y-103748191D01*
X279304886Y-103781402D01*
X279304882Y-103781403D01*
X279297507Y-103783174D01*
X279157598Y-103855386D01*
X279151876Y-103860378D01*
X279151874Y-103860379D01*
X279044678Y-103953892D01*
X279044675Y-103953895D01*
X279038953Y-103958887D01*
X279034586Y-103965101D01*
X278967653Y-104060337D01*
X278948420Y-104087702D01*
X278891228Y-104234393D01*
X278888737Y-104253313D01*
X278872142Y-104379368D01*
X278870677Y-104390492D01*
X278887954Y-104546987D01*
X278942062Y-104694844D01*
X278946299Y-104701150D01*
X278946301Y-104701153D01*
X278975313Y-104744326D01*
X279029877Y-104825526D01*
X279035492Y-104830635D01*
X279035497Y-104830641D01*
X279103656Y-104892661D01*
X279140578Y-104953301D01*
X279138855Y-105024277D01*
X279099033Y-105083053D01*
X279033755Y-105110970D01*
X279018856Y-105111854D01*
X276444598Y-105111854D01*
X276376477Y-105091852D01*
X276350424Y-105069564D01*
X276153438Y-104847955D01*
X275843245Y-104498987D01*
X275812938Y-104434784D01*
X275811419Y-104415277D01*
X275811419Y-104238306D01*
X275831421Y-104170185D01*
X275885077Y-104123692D01*
X275955351Y-104113588D01*
X276019931Y-104143082D01*
X276042060Y-104169183D01*
X276042530Y-104168869D01*
X276043905Y-104170926D01*
X276045202Y-104173043D01*
X276068374Y-104204935D01*
X276109693Y-104253313D01*
X276169960Y-104313580D01*
X276218338Y-104354899D01*
X276250230Y-104378071D01*
X276304491Y-104411323D01*
X276317845Y-104418127D01*
X276378229Y-104448895D01*
X276378240Y-104448900D01*
X276380438Y-104450020D01*
X276439227Y-104474371D01*
X276441562Y-104475130D01*
X276441571Y-104475133D01*
X276451359Y-104478313D01*
X276476720Y-104486553D01*
X276538591Y-104501407D01*
X276541037Y-104501794D01*
X276541040Y-104501795D01*
X276570332Y-104506434D01*
X276632693Y-104516311D01*
X276633892Y-104516453D01*
X276633900Y-104516454D01*
X276663078Y-104519907D01*
X276663097Y-104519909D01*
X276664315Y-104520053D01*
X276684025Y-104521604D01*
X276685239Y-104521652D01*
X276685261Y-104521653D01*
X276704246Y-104522399D01*
X276715836Y-104522854D01*
X277096002Y-104522854D01*
X277107592Y-104522399D01*
X277126577Y-104521653D01*
X277126599Y-104521652D01*
X277127813Y-104521604D01*
X277147523Y-104520053D01*
X277148741Y-104519909D01*
X277148760Y-104519907D01*
X277177938Y-104516454D01*
X277177946Y-104516453D01*
X277179145Y-104516311D01*
X277241506Y-104506434D01*
X277270798Y-104501795D01*
X277270801Y-104501794D01*
X277273247Y-104501407D01*
X277335118Y-104486553D01*
X277360479Y-104478313D01*
X277370267Y-104475133D01*
X277370276Y-104475130D01*
X277372611Y-104474371D01*
X277431400Y-104450020D01*
X277433598Y-104448900D01*
X277433609Y-104448895D01*
X277493993Y-104418127D01*
X277507347Y-104411323D01*
X277561608Y-104378071D01*
X277593500Y-104354899D01*
X277641878Y-104313580D01*
X277702145Y-104253313D01*
X277743464Y-104204935D01*
X277766636Y-104173043D01*
X277799888Y-104118782D01*
X277818892Y-104081485D01*
X277837460Y-104045044D01*
X277837465Y-104045033D01*
X277838585Y-104042835D01*
X277862936Y-103984046D01*
X277875118Y-103946553D01*
X277889972Y-103884682D01*
X277904876Y-103790580D01*
X277905045Y-103789153D01*
X277908472Y-103760195D01*
X277908474Y-103760176D01*
X277908618Y-103758958D01*
X277910169Y-103739248D01*
X277911419Y-103707437D01*
X277911419Y-103648854D01*
X277931421Y-103580733D01*
X277985077Y-103534240D01*
X278037419Y-103522854D01*
X278766163Y-103522854D01*
X278771047Y-103522081D01*
X278771048Y-103522081D01*
X278886486Y-103503812D01*
X278886489Y-103503811D01*
X278891375Y-103503038D01*
X278965387Y-103479010D01*
X278969423Y-103477027D01*
X278969429Y-103477025D01*
X279018775Y-103452785D01*
X279068897Y-103428164D01*
X279161173Y-103341097D01*
X279167557Y-103332827D01*
X279201800Y-103288463D01*
X279201800Y-103288462D01*
X279204554Y-103284895D01*
X279206769Y-103280977D01*
X279206773Y-103280971D01*
X279259138Y-103188348D01*
X279259141Y-103188342D01*
X279261357Y-103184422D01*
X279263727Y-103178344D01*
X279272859Y-103154922D01*
X279287164Y-103128243D01*
X279303726Y-103104677D01*
X279323984Y-103082177D01*
X279334747Y-103072788D01*
X279345696Y-103063236D01*
X279370735Y-103046221D01*
X279396337Y-103033007D01*
X279424715Y-103022454D01*
X279452730Y-103015729D01*
X279482797Y-103012250D01*
X279497843Y-103012328D01*
G37*
G04 #@! TD.AperFunction*
G04 #@! TA.AperFunction,Conductor*
G36*
X293605919Y-102707437D02*
G01*
X293604368Y-102727147D01*
X293589464Y-102821249D01*
X293577282Y-102858742D01*
X293538585Y-102934689D01*
X293515413Y-102966581D01*
X293455146Y-103026848D01*
X293423254Y-103050020D01*
X293347307Y-103088717D01*
X293309814Y-103100899D01*
X293215712Y-103115803D01*
X293196002Y-103117354D01*
X280225528Y-103117354D01*
X280157407Y-103097352D01*
X280110914Y-103043696D01*
X280107662Y-103035892D01*
X280079313Y-102960868D01*
X280079312Y-102960865D01*
X280076629Y-102953766D01*
X279987450Y-102824011D01*
X279878733Y-102727147D01*
X279875567Y-102724326D01*
X279875564Y-102724324D01*
X279869895Y-102719273D01*
X279730750Y-102645599D01*
X279714041Y-102641402D01*
X279585417Y-102609094D01*
X279585415Y-102609094D01*
X279578047Y-102607243D01*
X279570449Y-102607203D01*
X279570447Y-102607203D01*
X279503238Y-102606851D01*
X279420603Y-102606419D01*
X279413224Y-102608191D01*
X279413220Y-102608191D01*
X279274886Y-102641402D01*
X279274882Y-102641403D01*
X279267507Y-102643174D01*
X279127598Y-102715386D01*
X279121876Y-102720378D01*
X279121874Y-102720379D01*
X279014678Y-102813892D01*
X279014675Y-102813895D01*
X279008953Y-102818887D01*
X278980942Y-102858742D01*
X278927566Y-102934689D01*
X278918420Y-102947702D01*
X278889557Y-103021733D01*
X278883556Y-103037124D01*
X278840175Y-103093326D01*
X278766163Y-103117354D01*
X277505919Y-103117354D01*
X277505919Y-103707437D01*
X277504368Y-103727147D01*
X277489464Y-103821249D01*
X277477282Y-103858742D01*
X277438585Y-103934689D01*
X277415413Y-103966581D01*
X277355146Y-104026848D01*
X277323254Y-104050020D01*
X277247307Y-104088717D01*
X277209814Y-104100899D01*
X277115712Y-104115803D01*
X277096002Y-104117354D01*
X276715836Y-104117354D01*
X276696126Y-104115803D01*
X276602024Y-104100899D01*
X276564531Y-104088717D01*
X276488584Y-104050020D01*
X276456692Y-104026848D01*
X276396425Y-103966581D01*
X276373253Y-103934689D01*
X276334556Y-103858742D01*
X276322374Y-103821249D01*
X276307470Y-103727147D01*
X276305919Y-103707437D01*
X276305919Y-101327271D01*
X276307470Y-101307561D01*
X276322374Y-101213459D01*
X276334556Y-101175966D01*
X276373253Y-101100019D01*
X276396425Y-101068127D01*
X276456692Y-101007860D01*
X276488584Y-100984688D01*
X276564531Y-100945991D01*
X276602024Y-100933809D01*
X276696126Y-100918905D01*
X276715836Y-100917354D01*
X290605919Y-100917354D01*
X290905919Y-100517354D01*
X290905919Y-93217354D01*
X293605919Y-93217354D01*
X293605919Y-102707437D01*
G37*
G04 #@! TD.AperFunction*
G04 #@! TA.AperFunction,Conductor*
G36*
X244415712Y-95418905D02*
G01*
X244509814Y-95433809D01*
X244547307Y-95445991D01*
X244623254Y-95484688D01*
X244655146Y-95507860D01*
X244715413Y-95568127D01*
X244738585Y-95600019D01*
X244777282Y-95675966D01*
X244789464Y-95713459D01*
X244804368Y-95807561D01*
X244805919Y-95827271D01*
X244805919Y-99047643D01*
X244785917Y-99115764D01*
X244779881Y-99124347D01*
X244745058Y-99169729D01*
X244689589Y-99303645D01*
X244670669Y-99447354D01*
X244689589Y-99591063D01*
X244745058Y-99724979D01*
X244773076Y-99761493D01*
X244779881Y-99770361D01*
X244805482Y-99836581D01*
X244805919Y-99847065D01*
X244805919Y-108017354D01*
X249275957Y-108017354D01*
X249344078Y-108037356D01*
X249390571Y-108091012D01*
X249400879Y-108159800D01*
X249396866Y-108190285D01*
X249390669Y-108237354D01*
X249409589Y-108381063D01*
X249465058Y-108514979D01*
X249553298Y-108629975D01*
X249668294Y-108718215D01*
X249802210Y-108773684D01*
X249945919Y-108792604D01*
X250089628Y-108773684D01*
X250223544Y-108718215D01*
X250338540Y-108629975D01*
X250426780Y-108514979D01*
X250482249Y-108381063D01*
X250501169Y-108237354D01*
X250494972Y-108190285D01*
X250490959Y-108159800D01*
X250501898Y-108089651D01*
X250549026Y-108036553D01*
X250615881Y-108017354D01*
X251755599Y-108017354D01*
X251823720Y-108037356D01*
X251872008Y-108095136D01*
X251911383Y-108190195D01*
X251916410Y-108196746D01*
X251961608Y-108255650D01*
X251987208Y-108321871D01*
X251972943Y-108391420D01*
X251961608Y-108409058D01*
X251911383Y-108474513D01*
X251850875Y-108620592D01*
X251830237Y-108777354D01*
X251850875Y-108934116D01*
X251911383Y-109080195D01*
X251916410Y-109086746D01*
X251997254Y-109192104D01*
X252007637Y-109205636D01*
X252133078Y-109301890D01*
X252279157Y-109362398D01*
X252435919Y-109383036D01*
X252444107Y-109381958D01*
X252584493Y-109363476D01*
X252592681Y-109362398D01*
X252738760Y-109301890D01*
X252864201Y-109205636D01*
X252874585Y-109192104D01*
X252955428Y-109086746D01*
X252960455Y-109080195D01*
X253020963Y-108934116D01*
X253041601Y-108777354D01*
X253020963Y-108620592D01*
X252960455Y-108474513D01*
X252910230Y-108409058D01*
X252884630Y-108342837D01*
X252898895Y-108273288D01*
X252910230Y-108255650D01*
X252955428Y-108196746D01*
X252960455Y-108190195D01*
X252999830Y-108095136D01*
X253044379Y-108039855D01*
X253116239Y-108017354D01*
X257805919Y-108017354D01*
X257805919Y-100527271D01*
X257807470Y-100507561D01*
X257822374Y-100413459D01*
X257834556Y-100375966D01*
X257873253Y-100300019D01*
X257896425Y-100268127D01*
X257956692Y-100207860D01*
X257988584Y-100184688D01*
X258064531Y-100145991D01*
X258102024Y-100133809D01*
X258196126Y-100118905D01*
X258215836Y-100117354D01*
X262796002Y-100117354D01*
X262815712Y-100118905D01*
X262909814Y-100133809D01*
X262947307Y-100145991D01*
X263023254Y-100184688D01*
X263055146Y-100207860D01*
X263115413Y-100268127D01*
X263138585Y-100300019D01*
X263177282Y-100375966D01*
X263189464Y-100413459D01*
X263204368Y-100507561D01*
X263205919Y-100527271D01*
X263205919Y-102007437D01*
X263204368Y-102027147D01*
X263189464Y-102121249D01*
X263177282Y-102158742D01*
X263142306Y-102227387D01*
X263138585Y-102234689D01*
X263115413Y-102266581D01*
X263055146Y-102326848D01*
X263023254Y-102350020D01*
X262947307Y-102388717D01*
X262909814Y-102400899D01*
X262815712Y-102415803D01*
X262796002Y-102417354D01*
X260805919Y-102417354D01*
X260805919Y-111717354D01*
X263818924Y-111717354D01*
X263887045Y-111737356D01*
X263933538Y-111791012D01*
X263943846Y-111826908D01*
X263958657Y-111939408D01*
X264013623Y-112072107D01*
X264018650Y-112078658D01*
X264095644Y-112178999D01*
X264101061Y-112186059D01*
X264107611Y-112191085D01*
X264107614Y-112191088D01*
X264155339Y-112227708D01*
X264215012Y-112273497D01*
X264281362Y-112300980D01*
X264340082Y-112325303D01*
X264340085Y-112325304D01*
X264347712Y-112328463D01*
X264490116Y-112347211D01*
X264632520Y-112328463D01*
X264640147Y-112325304D01*
X264640150Y-112325303D01*
X264698870Y-112300980D01*
X264765220Y-112273497D01*
X264824893Y-112227708D01*
X264872618Y-112191088D01*
X264872621Y-112191085D01*
X264879171Y-112186059D01*
X264884589Y-112178999D01*
X264961582Y-112078658D01*
X264966609Y-112072107D01*
X265021575Y-111939408D01*
X265036386Y-111826908D01*
X265065108Y-111761980D01*
X265124374Y-111722889D01*
X265161308Y-111717354D01*
X268105919Y-111717354D01*
X268199324Y-111662867D01*
X268199328Y-111662866D01*
X268791633Y-111317354D01*
X269205337Y-111076027D01*
X269220174Y-111068638D01*
X269294236Y-111037669D01*
X269326248Y-111029014D01*
X269405805Y-111018450D01*
X269422391Y-111017354D01*
X270652088Y-111017354D01*
X270676669Y-111019775D01*
X270763550Y-111037057D01*
X270828063Y-111071540D01*
X270951732Y-111195209D01*
X270986216Y-111259722D01*
X270996695Y-111312400D01*
X270997998Y-111318953D01*
X271000419Y-111343535D01*
X271000419Y-111701989D01*
X271001073Y-111721971D01*
X271002151Y-111738417D01*
X271004111Y-111758311D01*
X271004250Y-111759364D01*
X271004841Y-111763856D01*
X271005919Y-111780302D01*
X271005919Y-112117354D01*
X271108615Y-112234721D01*
X271108618Y-112234725D01*
X271471805Y-112649795D01*
X271705919Y-112917354D01*
X272057064Y-112917354D01*
X272105282Y-112926945D01*
X272239157Y-112982398D01*
X272395919Y-113003036D01*
X272404107Y-113001958D01*
X272544493Y-112983476D01*
X272552681Y-112982398D01*
X272686556Y-112926945D01*
X272734774Y-112917354D01*
X274305919Y-112917354D01*
X274305919Y-110367354D01*
X276460237Y-110367354D01*
X276480875Y-110524116D01*
X276541383Y-110670195D01*
X276637637Y-110795636D01*
X276763078Y-110891890D01*
X276909157Y-110952398D01*
X277065919Y-110973036D01*
X277074107Y-110971958D01*
X277214493Y-110953476D01*
X277222681Y-110952398D01*
X277368760Y-110891890D01*
X277494201Y-110795636D01*
X277590455Y-110670195D01*
X277612342Y-110617354D01*
X297500237Y-110617354D01*
X297520875Y-110774116D01*
X297581383Y-110920195D01*
X297619748Y-110970193D01*
X297664883Y-111029014D01*
X297677637Y-111045636D01*
X297803078Y-111141890D01*
X297949157Y-111202398D01*
X298105919Y-111223036D01*
X298114107Y-111221958D01*
X298254493Y-111203476D01*
X298262681Y-111202398D01*
X298408760Y-111141890D01*
X298534201Y-111045636D01*
X298546956Y-111029014D01*
X298592090Y-110970193D01*
X298630455Y-110920195D01*
X298690963Y-110774116D01*
X298711601Y-110617354D01*
X306500237Y-110617354D01*
X306520875Y-110774116D01*
X306581383Y-110920195D01*
X306619748Y-110970193D01*
X306664883Y-111029014D01*
X306677637Y-111045636D01*
X306803078Y-111141890D01*
X306949157Y-111202398D01*
X307105919Y-111223036D01*
X307114107Y-111221958D01*
X307254493Y-111203476D01*
X307262681Y-111202398D01*
X307408760Y-111141890D01*
X307534201Y-111045636D01*
X307546956Y-111029014D01*
X307592090Y-110970193D01*
X307630455Y-110920195D01*
X307690963Y-110774116D01*
X307711601Y-110617354D01*
X315500237Y-110617354D01*
X315520875Y-110774116D01*
X315581383Y-110920195D01*
X315619748Y-110970193D01*
X315664883Y-111029014D01*
X315677637Y-111045636D01*
X315803078Y-111141890D01*
X315949157Y-111202398D01*
X316105919Y-111223036D01*
X316114107Y-111221958D01*
X316254493Y-111203476D01*
X316262681Y-111202398D01*
X316408760Y-111141890D01*
X316534201Y-111045636D01*
X316546956Y-111029014D01*
X316592090Y-110970193D01*
X316630455Y-110920195D01*
X316690963Y-110774116D01*
X316711601Y-110617354D01*
X324500237Y-110617354D01*
X324520875Y-110774116D01*
X324581383Y-110920195D01*
X324619748Y-110970193D01*
X324664883Y-111029014D01*
X324677637Y-111045636D01*
X324803078Y-111141890D01*
X324949157Y-111202398D01*
X325105919Y-111223036D01*
X325114107Y-111221958D01*
X325254493Y-111203476D01*
X325262681Y-111202398D01*
X325408760Y-111141890D01*
X325534201Y-111045636D01*
X325546956Y-111029014D01*
X325592090Y-110970193D01*
X325630455Y-110920195D01*
X325690963Y-110774116D01*
X325711601Y-110617354D01*
X325690963Y-110460592D01*
X325630455Y-110314513D01*
X325534201Y-110189072D01*
X325408760Y-110092818D01*
X325262681Y-110032310D01*
X325105919Y-110011672D01*
X324949157Y-110032310D01*
X324803078Y-110092818D01*
X324677637Y-110189072D01*
X324581383Y-110314513D01*
X324520875Y-110460592D01*
X324500237Y-110617354D01*
X316711601Y-110617354D01*
X316690963Y-110460592D01*
X316630455Y-110314513D01*
X316534201Y-110189072D01*
X316408760Y-110092818D01*
X316262681Y-110032310D01*
X316105919Y-110011672D01*
X315949157Y-110032310D01*
X315803078Y-110092818D01*
X315677637Y-110189072D01*
X315581383Y-110314513D01*
X315520875Y-110460592D01*
X315500237Y-110617354D01*
X307711601Y-110617354D01*
X307690963Y-110460592D01*
X307630455Y-110314513D01*
X307534201Y-110189072D01*
X307408760Y-110092818D01*
X307262681Y-110032310D01*
X307105919Y-110011672D01*
X306949157Y-110032310D01*
X306803078Y-110092818D01*
X306677637Y-110189072D01*
X306581383Y-110314513D01*
X306520875Y-110460592D01*
X306500237Y-110617354D01*
X298711601Y-110617354D01*
X298690963Y-110460592D01*
X298630455Y-110314513D01*
X298534201Y-110189072D01*
X298408760Y-110092818D01*
X298262681Y-110032310D01*
X298105919Y-110011672D01*
X297949157Y-110032310D01*
X297803078Y-110092818D01*
X297677637Y-110189072D01*
X297581383Y-110314513D01*
X297520875Y-110460592D01*
X297500237Y-110617354D01*
X277612342Y-110617354D01*
X277650963Y-110524116D01*
X277671601Y-110367354D01*
X277650963Y-110210592D01*
X277590455Y-110064513D01*
X277494201Y-109939072D01*
X277368760Y-109842818D01*
X277222681Y-109782310D01*
X277065919Y-109761672D01*
X276909157Y-109782310D01*
X276763078Y-109842818D01*
X276637637Y-109939072D01*
X276541383Y-110064513D01*
X276480875Y-110210592D01*
X276460237Y-110367354D01*
X274305919Y-110367354D01*
X274305919Y-109327354D01*
X274750237Y-109327354D01*
X274770875Y-109484116D01*
X274831383Y-109630195D01*
X274927637Y-109755636D01*
X275053078Y-109851890D01*
X275199157Y-109912398D01*
X275355919Y-109933036D01*
X275364107Y-109931958D01*
X275504493Y-109913476D01*
X275512681Y-109912398D01*
X275658760Y-109851890D01*
X275784201Y-109755636D01*
X275813576Y-109717354D01*
X331400237Y-109717354D01*
X331420875Y-109874116D01*
X331481383Y-110020195D01*
X331486410Y-110026746D01*
X331558782Y-110121063D01*
X331577637Y-110145636D01*
X331703078Y-110241890D01*
X331849157Y-110302398D01*
X331857345Y-110303476D01*
X331891420Y-110307962D01*
X332005919Y-110323036D01*
X332014107Y-110321958D01*
X332154493Y-110303476D01*
X332162681Y-110302398D01*
X332308760Y-110241890D01*
X332434201Y-110145636D01*
X332453057Y-110121063D01*
X332525428Y-110026746D01*
X332530455Y-110020195D01*
X332590963Y-109874116D01*
X332611601Y-109717354D01*
X332900237Y-109717354D01*
X332920875Y-109874116D01*
X332981383Y-110020195D01*
X332986410Y-110026746D01*
X333058782Y-110121063D01*
X333077637Y-110145636D01*
X333203078Y-110241890D01*
X333349157Y-110302398D01*
X333357345Y-110303476D01*
X333391420Y-110307962D01*
X333505919Y-110323036D01*
X333514107Y-110321958D01*
X333654493Y-110303476D01*
X333662681Y-110302398D01*
X333808760Y-110241890D01*
X333934201Y-110145636D01*
X333953057Y-110121063D01*
X334025428Y-110026746D01*
X334030455Y-110020195D01*
X334090963Y-109874116D01*
X334111601Y-109717354D01*
X334090963Y-109560592D01*
X334030455Y-109414513D01*
X333934201Y-109289072D01*
X333808760Y-109192818D01*
X333662681Y-109132310D01*
X333505919Y-109111672D01*
X333349157Y-109132310D01*
X333203078Y-109192818D01*
X333077637Y-109289072D01*
X332981383Y-109414513D01*
X332920875Y-109560592D01*
X332900237Y-109717354D01*
X332611601Y-109717354D01*
X332590963Y-109560592D01*
X332530455Y-109414513D01*
X332434201Y-109289072D01*
X332308760Y-109192818D01*
X332162681Y-109132310D01*
X332005919Y-109111672D01*
X331849157Y-109132310D01*
X331703078Y-109192818D01*
X331577637Y-109289072D01*
X331481383Y-109414513D01*
X331420875Y-109560592D01*
X331400237Y-109717354D01*
X275813576Y-109717354D01*
X275880455Y-109630195D01*
X275940963Y-109484116D01*
X275961601Y-109327354D01*
X275940963Y-109170592D01*
X275880455Y-109024513D01*
X275784201Y-108899072D01*
X275763690Y-108883333D01*
X275694114Y-108829946D01*
X275658760Y-108802818D01*
X275512681Y-108742310D01*
X275355919Y-108721672D01*
X275199157Y-108742310D01*
X275053078Y-108802818D01*
X275017724Y-108829946D01*
X274948149Y-108883333D01*
X274927637Y-108899072D01*
X274831383Y-109024513D01*
X274770875Y-109170592D01*
X274750237Y-109327354D01*
X274305919Y-109327354D01*
X274305919Y-108717354D01*
X274176952Y-108595974D01*
X274176947Y-108595968D01*
X273455918Y-107917354D01*
X273327193Y-107796201D01*
X278145712Y-107796201D01*
X278164460Y-107938605D01*
X278219426Y-108071304D01*
X278306864Y-108185256D01*
X278313414Y-108190282D01*
X278313417Y-108190285D01*
X278363839Y-108228975D01*
X278420815Y-108272694D01*
X278487165Y-108300177D01*
X278545885Y-108324500D01*
X278545888Y-108324501D01*
X278553515Y-108327660D01*
X278695919Y-108346408D01*
X278838323Y-108327660D01*
X278845950Y-108324501D01*
X278845953Y-108324500D01*
X278904673Y-108300177D01*
X278971023Y-108272694D01*
X279027999Y-108228975D01*
X279078421Y-108190285D01*
X279078424Y-108190282D01*
X279084974Y-108185256D01*
X279172412Y-108071304D01*
X279227378Y-107938605D01*
X279246126Y-107796201D01*
X279227378Y-107653797D01*
X279172412Y-107521098D01*
X279124818Y-107459072D01*
X279090001Y-107413697D01*
X279090000Y-107413696D01*
X279084974Y-107407146D01*
X279078424Y-107402120D01*
X279078421Y-107402117D01*
X278999931Y-107341890D01*
X278971023Y-107319708D01*
X278879196Y-107281672D01*
X278845953Y-107267902D01*
X278845950Y-107267901D01*
X278838323Y-107264742D01*
X278695919Y-107245994D01*
X278553515Y-107264742D01*
X278420816Y-107319708D01*
X278306864Y-107407146D01*
X278219426Y-107521098D01*
X278164460Y-107653797D01*
X278145712Y-107796201D01*
X273327193Y-107796201D01*
X272738019Y-107241683D01*
X272726382Y-107229134D01*
X272674453Y-107164886D01*
X272656785Y-107135665D01*
X272627447Y-107067763D01*
X272618278Y-107034873D01*
X272607082Y-106953027D01*
X272605919Y-106935950D01*
X272605919Y-106796201D01*
X274705712Y-106796201D01*
X274724460Y-106938605D01*
X274779426Y-107071304D01*
X274816941Y-107120195D01*
X274857338Y-107172841D01*
X274866864Y-107185256D01*
X274873414Y-107190282D01*
X274873417Y-107190285D01*
X274923840Y-107228975D01*
X274980815Y-107272694D01*
X275047165Y-107300177D01*
X275105885Y-107324500D01*
X275105888Y-107324501D01*
X275113515Y-107327660D01*
X275255919Y-107346408D01*
X275398323Y-107327660D01*
X275405950Y-107324501D01*
X275405953Y-107324500D01*
X275464673Y-107300177D01*
X275531023Y-107272694D01*
X275587998Y-107228975D01*
X275638421Y-107190285D01*
X275638424Y-107190282D01*
X275644974Y-107185256D01*
X275654501Y-107172841D01*
X275694897Y-107120195D01*
X275732412Y-107071304D01*
X275787378Y-106938605D01*
X275806126Y-106796201D01*
X275787378Y-106653797D01*
X275732412Y-106521098D01*
X275664621Y-106432750D01*
X275650001Y-106413697D01*
X275650000Y-106413696D01*
X275644974Y-106407146D01*
X275638424Y-106402120D01*
X275638421Y-106402117D01*
X275587998Y-106363427D01*
X275531023Y-106319708D01*
X275458476Y-106289658D01*
X275405953Y-106267902D01*
X275405950Y-106267901D01*
X275398323Y-106264742D01*
X275255919Y-106245994D01*
X275113515Y-106264742D01*
X274980816Y-106319708D01*
X274866864Y-106407146D01*
X274779426Y-106521098D01*
X274724460Y-106653797D01*
X274705712Y-106796201D01*
X272605919Y-106796201D01*
X272605919Y-105153586D01*
X272625921Y-105085465D01*
X272679577Y-105038972D01*
X272749851Y-105028868D01*
X272769490Y-105033318D01*
X272779921Y-105036577D01*
X272788891Y-105036741D01*
X272788895Y-105036742D01*
X272850661Y-105037874D01*
X272914671Y-105039047D01*
X272923731Y-105036577D01*
X273036036Y-105005960D01*
X273036039Y-105005959D01*
X273044698Y-105003598D01*
X273052348Y-104998901D01*
X273052350Y-104998900D01*
X273151898Y-104937778D01*
X273151901Y-104937775D01*
X273159550Y-104933079D01*
X273169844Y-104921707D01*
X273243964Y-104839820D01*
X273243965Y-104839819D01*
X273249992Y-104833160D01*
X273262395Y-104807561D01*
X273304840Y-104719953D01*
X273304840Y-104719952D01*
X273308755Y-104711872D01*
X273331115Y-104578968D01*
X273331257Y-104567354D01*
X273322737Y-104507860D01*
X273313424Y-104442828D01*
X273313423Y-104442825D01*
X273312151Y-104433942D01*
X273256369Y-104311256D01*
X273168394Y-104209157D01*
X273055301Y-104135853D01*
X273046704Y-104133282D01*
X273046702Y-104133281D01*
X272947190Y-104103521D01*
X272926178Y-104097237D01*
X272917202Y-104097182D01*
X272917201Y-104097182D01*
X272859766Y-104096831D01*
X272791408Y-104096414D01*
X272766541Y-104103521D01*
X272695547Y-104103007D01*
X272636100Y-104064192D01*
X272607075Y-103999400D01*
X272605919Y-103982371D01*
X272605919Y-102650592D01*
X272625921Y-102582471D01*
X272655211Y-102550634D01*
X272764974Y-102466409D01*
X272774959Y-102453397D01*
X272847385Y-102359008D01*
X272852412Y-102352457D01*
X272907378Y-102219758D01*
X272926126Y-102077354D01*
X272907378Y-101934950D01*
X272852412Y-101802251D01*
X272774768Y-101701063D01*
X272770001Y-101694850D01*
X272770000Y-101694849D01*
X272764974Y-101688299D01*
X272655213Y-101604076D01*
X272613348Y-101546741D01*
X272605919Y-101504116D01*
X272605919Y-101327271D01*
X272607470Y-101307561D01*
X272622374Y-101213459D01*
X272634556Y-101175966D01*
X272658582Y-101128812D01*
X272673253Y-101100019D01*
X272696425Y-101068127D01*
X272756692Y-101007860D01*
X272788584Y-100984688D01*
X272864531Y-100945991D01*
X272902024Y-100933809D01*
X272996126Y-100918905D01*
X273015836Y-100917354D01*
X274996002Y-100917354D01*
X275015712Y-100918905D01*
X275109814Y-100933809D01*
X275147307Y-100945991D01*
X275223254Y-100984688D01*
X275255146Y-101007860D01*
X275315413Y-101068127D01*
X275338585Y-101100020D01*
X275353255Y-101128812D01*
X275366359Y-101198589D01*
X275335429Y-101269421D01*
X275264573Y-101349651D01*
X275258628Y-101356383D01*
X275254814Y-101364506D01*
X275254813Y-101364508D01*
X275227379Y-101422941D01*
X275201351Y-101478379D01*
X275199971Y-101487244D01*
X275199970Y-101487246D01*
X275182280Y-101600861D01*
X275180616Y-101611547D01*
X275181780Y-101620449D01*
X275181780Y-101620452D01*
X275196927Y-101736283D01*
X275198091Y-101745182D01*
X275252370Y-101868541D01*
X275266461Y-101885304D01*
X275294983Y-101950320D01*
X275283828Y-102020434D01*
X275269493Y-102042153D01*
X275269497Y-102042155D01*
X275264571Y-102049654D01*
X275258628Y-102056383D01*
X275201351Y-102178379D01*
X275199971Y-102187244D01*
X275199970Y-102187246D01*
X275185162Y-102282354D01*
X275180616Y-102311547D01*
X275181780Y-102320449D01*
X275181780Y-102320452D01*
X275196927Y-102436283D01*
X275198091Y-102445182D01*
X275252370Y-102568541D01*
X275258147Y-102575414D01*
X275258148Y-102575415D01*
X275290235Y-102613586D01*
X275339091Y-102671707D01*
X275346568Y-102676684D01*
X275346570Y-102676686D01*
X275349741Y-102678797D01*
X275352169Y-102681692D01*
X275353257Y-102682665D01*
X275353117Y-102682822D01*
X275395362Y-102733195D01*
X275405919Y-102783682D01*
X275405919Y-104617354D01*
X275506954Y-104731018D01*
X275506955Y-104731020D01*
X275510757Y-104735297D01*
X275510759Y-104735300D01*
X275751346Y-105005960D01*
X275850363Y-105117354D01*
X276205919Y-105517354D01*
X283805919Y-105517354D01*
X283805919Y-103827271D01*
X283807470Y-103807561D01*
X283822374Y-103713459D01*
X283834556Y-103675966D01*
X283873253Y-103600019D01*
X283896425Y-103568127D01*
X283954793Y-103509759D01*
X284017105Y-103475733D01*
X284043888Y-103472854D01*
X293196002Y-103472854D01*
X293209946Y-103472306D01*
X293222650Y-103471807D01*
X293222664Y-103471806D01*
X293223890Y-103471758D01*
X293225123Y-103471661D01*
X293242394Y-103470302D01*
X293242399Y-103470302D01*
X293243600Y-103470207D01*
X293244779Y-103470067D01*
X293244804Y-103470065D01*
X293256817Y-103468643D01*
X293271323Y-103466926D01*
X293365425Y-103452022D01*
X293419668Y-103439000D01*
X293457161Y-103426818D01*
X293459442Y-103425873D01*
X293461424Y-103425142D01*
X293505034Y-103417354D01*
X336196002Y-103417354D01*
X336215712Y-103418905D01*
X336309814Y-103433809D01*
X336347307Y-103445991D01*
X336400029Y-103472854D01*
X336423254Y-103484688D01*
X336455146Y-103507860D01*
X336515413Y-103568127D01*
X336538585Y-103600019D01*
X336577282Y-103675966D01*
X336589464Y-103713459D01*
X336604368Y-103807561D01*
X336605919Y-103827271D01*
X336605919Y-114707437D01*
X336604368Y-114727147D01*
X336589464Y-114821249D01*
X336577282Y-114858742D01*
X336538585Y-114934689D01*
X336515413Y-114966581D01*
X336455146Y-115026848D01*
X336423254Y-115050020D01*
X336347307Y-115088717D01*
X336309814Y-115100899D01*
X336215712Y-115115803D01*
X336196002Y-115117354D01*
X334715576Y-115117354D01*
X334647455Y-115097352D01*
X334600962Y-115043696D01*
X334590858Y-114973422D01*
X334619765Y-114909524D01*
X334673154Y-114847013D01*
X334733108Y-114776816D01*
X334864738Y-114562016D01*
X334961145Y-114329268D01*
X334994803Y-114189072D01*
X335018800Y-114089118D01*
X335018801Y-114089112D01*
X335019955Y-114084305D01*
X335039721Y-113833157D01*
X335019955Y-113582009D01*
X335016487Y-113567561D01*
X334973824Y-113389858D01*
X334961145Y-113337046D01*
X334941247Y-113289008D01*
X334866633Y-113108872D01*
X334866631Y-113108868D01*
X334864738Y-113104298D01*
X334733108Y-112889498D01*
X334729896Y-112885738D01*
X334729893Y-112885733D01*
X334572709Y-112701695D01*
X334569496Y-112697933D01*
X334531527Y-112665504D01*
X334381696Y-112537536D01*
X334381691Y-112537533D01*
X334377931Y-112534321D01*
X334163131Y-112402691D01*
X334158561Y-112400798D01*
X334158557Y-112400796D01*
X333934956Y-112308178D01*
X333934954Y-112308177D01*
X333930383Y-112306284D01*
X333806977Y-112276657D01*
X333690233Y-112248629D01*
X333690227Y-112248628D01*
X333685420Y-112247474D01*
X333434272Y-112227708D01*
X333183124Y-112247474D01*
X333178317Y-112248628D01*
X333178311Y-112248629D01*
X333061567Y-112276657D01*
X332938161Y-112306284D01*
X332933590Y-112308177D01*
X332933588Y-112308178D01*
X332709987Y-112400796D01*
X332709983Y-112400798D01*
X332705413Y-112402691D01*
X332490613Y-112534321D01*
X332486853Y-112537533D01*
X332486848Y-112537536D01*
X332337017Y-112665504D01*
X332299048Y-112697933D01*
X332295835Y-112701695D01*
X332138651Y-112885733D01*
X332138648Y-112885738D01*
X332135436Y-112889498D01*
X332003806Y-113104298D01*
X332001913Y-113108868D01*
X332001911Y-113108872D01*
X331927297Y-113289008D01*
X331907399Y-113337046D01*
X331894720Y-113389858D01*
X331852058Y-113567561D01*
X331848589Y-113582009D01*
X331828823Y-113833157D01*
X331848589Y-114084305D01*
X331849743Y-114089112D01*
X331849744Y-114089118D01*
X331873741Y-114189072D01*
X331907399Y-114329268D01*
X332003806Y-114562016D01*
X332135436Y-114776816D01*
X332195390Y-114847013D01*
X332248779Y-114909524D01*
X332277810Y-114974313D01*
X332267205Y-115044513D01*
X332220330Y-115097836D01*
X332152968Y-115117354D01*
X282174793Y-115117354D01*
X282106672Y-115097352D01*
X282060179Y-115043696D01*
X282050075Y-114973422D01*
X282078982Y-114909524D01*
X282132371Y-114847013D01*
X282192325Y-114776816D01*
X282323955Y-114562016D01*
X282420362Y-114329268D01*
X282454020Y-114189072D01*
X282478017Y-114089118D01*
X282478018Y-114089112D01*
X282479172Y-114084305D01*
X282498938Y-113833157D01*
X282479172Y-113582009D01*
X282475704Y-113567561D01*
X282433041Y-113389858D01*
X282420362Y-113337046D01*
X282400464Y-113289008D01*
X282325850Y-113108872D01*
X282325848Y-113108868D01*
X282323955Y-113104298D01*
X282192325Y-112889498D01*
X282189113Y-112885738D01*
X282189110Y-112885733D01*
X282031926Y-112701695D01*
X282028713Y-112697933D01*
X281990744Y-112665504D01*
X281840913Y-112537536D01*
X281840908Y-112537533D01*
X281837148Y-112534321D01*
X281622348Y-112402691D01*
X281617778Y-112400798D01*
X281617774Y-112400796D01*
X281394173Y-112308178D01*
X281394171Y-112308177D01*
X281389600Y-112306284D01*
X281266194Y-112276657D01*
X281149450Y-112248629D01*
X281149444Y-112248628D01*
X281144637Y-112247474D01*
X280893489Y-112227708D01*
X280642341Y-112247474D01*
X280637534Y-112248628D01*
X280637528Y-112248629D01*
X280520784Y-112276657D01*
X280397378Y-112306284D01*
X280392807Y-112308177D01*
X280392805Y-112308178D01*
X280169204Y-112400796D01*
X280169200Y-112400798D01*
X280164630Y-112402691D01*
X279949830Y-112534321D01*
X279946070Y-112537533D01*
X279946065Y-112537536D01*
X279796234Y-112665504D01*
X279758265Y-112697933D01*
X279755052Y-112701695D01*
X279597868Y-112885733D01*
X279597865Y-112885738D01*
X279594653Y-112889498D01*
X279463023Y-113104298D01*
X279461130Y-113108868D01*
X279461128Y-113108872D01*
X279386514Y-113289008D01*
X279366616Y-113337046D01*
X279353937Y-113389858D01*
X279311275Y-113567561D01*
X279307806Y-113582009D01*
X279288040Y-113833157D01*
X279307806Y-114084305D01*
X279308960Y-114089112D01*
X279308961Y-114089118D01*
X279332958Y-114189072D01*
X279366616Y-114329268D01*
X279463023Y-114562016D01*
X279594653Y-114776816D01*
X279654607Y-114847013D01*
X279707996Y-114909524D01*
X279737027Y-114974313D01*
X279726422Y-115044513D01*
X279679547Y-115097836D01*
X279612185Y-115117354D01*
X240315836Y-115117354D01*
X240296126Y-115115803D01*
X240202024Y-115100899D01*
X240164531Y-115088717D01*
X240088584Y-115050020D01*
X240056692Y-115026848D01*
X239996425Y-114966581D01*
X239973253Y-114934689D01*
X239934556Y-114858742D01*
X239922374Y-114821249D01*
X239907470Y-114727147D01*
X239905919Y-114707437D01*
X239905919Y-113017354D01*
X266785712Y-113017354D01*
X266804460Y-113159758D01*
X266859426Y-113292457D01*
X266864453Y-113299008D01*
X266939116Y-113396311D01*
X266946864Y-113406409D01*
X266953414Y-113411435D01*
X266953417Y-113411438D01*
X267003840Y-113450128D01*
X267060815Y-113493847D01*
X267127165Y-113521330D01*
X267185885Y-113545653D01*
X267185888Y-113545654D01*
X267193515Y-113548813D01*
X267335919Y-113567561D01*
X267478323Y-113548813D01*
X267485950Y-113545654D01*
X267485953Y-113545653D01*
X267544673Y-113521330D01*
X267611023Y-113493847D01*
X267667998Y-113450128D01*
X267718421Y-113411438D01*
X267718424Y-113411435D01*
X267724974Y-113406409D01*
X267730001Y-113399858D01*
X267735843Y-113394016D01*
X267738138Y-113396311D01*
X267783147Y-113363436D01*
X267854018Y-113359204D01*
X267913652Y-113392223D01*
X267916864Y-113396409D01*
X268030815Y-113483847D01*
X268097165Y-113511330D01*
X268155885Y-113535653D01*
X268155888Y-113535654D01*
X268163515Y-113538813D01*
X268305919Y-113557561D01*
X268448323Y-113538813D01*
X268455950Y-113535654D01*
X268455953Y-113535653D01*
X268514673Y-113511330D01*
X268581023Y-113483847D01*
X268637999Y-113440128D01*
X268688421Y-113401438D01*
X268688424Y-113401435D01*
X268694974Y-113396409D01*
X268782412Y-113282457D01*
X268837378Y-113149758D01*
X268856126Y-113007354D01*
X268837378Y-112864950D01*
X268782412Y-112732251D01*
X268738693Y-112675275D01*
X268700001Y-112624850D01*
X268700000Y-112624849D01*
X268694974Y-112618299D01*
X268688424Y-112613273D01*
X268688421Y-112613270D01*
X268637999Y-112574580D01*
X268581023Y-112530861D01*
X268497503Y-112496266D01*
X268455953Y-112479055D01*
X268455950Y-112479054D01*
X268448323Y-112475895D01*
X268305919Y-112457147D01*
X268163515Y-112475895D01*
X268030816Y-112530861D01*
X267916864Y-112618299D01*
X267911841Y-112624845D01*
X267905996Y-112630690D01*
X267903701Y-112628395D01*
X267858691Y-112661272D01*
X267787820Y-112665504D01*
X267728186Y-112632485D01*
X267724974Y-112628299D01*
X267611023Y-112540861D01*
X267505196Y-112497026D01*
X267485953Y-112489055D01*
X267485950Y-112489054D01*
X267478323Y-112485895D01*
X267335919Y-112467147D01*
X267193515Y-112485895D01*
X267060816Y-112540861D01*
X266946864Y-112628299D01*
X266941841Y-112634845D01*
X266930370Y-112649795D01*
X266859426Y-112742251D01*
X266804460Y-112874950D01*
X266785712Y-113017354D01*
X239905919Y-113017354D01*
X239905919Y-112437354D01*
X269325712Y-112437354D01*
X269344460Y-112579758D01*
X269399426Y-112712457D01*
X269486864Y-112826409D01*
X269493414Y-112831435D01*
X269493417Y-112831438D01*
X269527149Y-112857321D01*
X269600815Y-112913847D01*
X269667165Y-112941330D01*
X269725885Y-112965653D01*
X269725888Y-112965654D01*
X269733515Y-112968813D01*
X269875919Y-112987561D01*
X270018323Y-112968813D01*
X270025950Y-112965654D01*
X270025953Y-112965653D01*
X270084673Y-112941330D01*
X270151023Y-112913847D01*
X270224689Y-112857321D01*
X270258421Y-112831438D01*
X270258424Y-112831435D01*
X270264974Y-112826409D01*
X270352412Y-112712457D01*
X270407378Y-112579758D01*
X270426126Y-112437354D01*
X270407378Y-112294950D01*
X270352412Y-112162251D01*
X270288269Y-112078658D01*
X270270001Y-112054850D01*
X270270000Y-112054849D01*
X270264974Y-112048299D01*
X270258424Y-112043273D01*
X270258421Y-112043270D01*
X270207998Y-112004580D01*
X270151023Y-111960861D01*
X270074292Y-111929078D01*
X270025953Y-111909055D01*
X270025950Y-111909054D01*
X270018323Y-111905895D01*
X269875919Y-111887147D01*
X269733515Y-111905895D01*
X269600816Y-111960861D01*
X269486864Y-112048299D01*
X269399426Y-112162251D01*
X269344460Y-112294950D01*
X269325712Y-112437354D01*
X239905919Y-112437354D01*
X239905919Y-110717354D01*
X249500669Y-110717354D01*
X249519589Y-110861063D01*
X249575058Y-110994979D01*
X249663298Y-111109975D01*
X249778294Y-111198215D01*
X249912210Y-111253684D01*
X250055919Y-111272604D01*
X250199628Y-111253684D01*
X250333544Y-111198215D01*
X250448540Y-111109975D01*
X250536780Y-110994979D01*
X250592249Y-110861063D01*
X250611169Y-110717354D01*
X250592249Y-110573645D01*
X250536780Y-110439729D01*
X250448540Y-110324733D01*
X250333544Y-110236493D01*
X250199628Y-110181024D01*
X250055919Y-110162104D01*
X249912210Y-110181024D01*
X249778294Y-110236493D01*
X249663298Y-110324733D01*
X249575058Y-110439729D01*
X249519589Y-110573645D01*
X249500669Y-110717354D01*
X239905919Y-110717354D01*
X239905919Y-109367354D01*
X244730669Y-109367354D01*
X244749589Y-109511063D01*
X244805058Y-109644979D01*
X244893298Y-109759975D01*
X245008294Y-109848215D01*
X245142210Y-109903684D01*
X245285919Y-109922604D01*
X245429628Y-109903684D01*
X245563544Y-109848215D01*
X245678540Y-109759975D01*
X245766780Y-109644979D01*
X245822249Y-109511063D01*
X245841169Y-109367354D01*
X245822249Y-109223645D01*
X245766780Y-109089729D01*
X245678540Y-108974733D01*
X245563544Y-108886493D01*
X245429628Y-108831024D01*
X245285919Y-108812104D01*
X245142210Y-108831024D01*
X245008294Y-108886493D01*
X244893298Y-108974733D01*
X244805058Y-109089729D01*
X244749589Y-109223645D01*
X244730669Y-109367354D01*
X239905919Y-109367354D01*
X239905919Y-106917354D01*
X231635265Y-106917354D01*
X231567144Y-106897352D01*
X231520651Y-106843696D01*
X231510343Y-106807800D01*
X231492041Y-106668780D01*
X231490963Y-106660592D01*
X231430455Y-106514513D01*
X231334201Y-106389072D01*
X231208760Y-106292818D01*
X231062681Y-106232310D01*
X230905919Y-106211672D01*
X230749157Y-106232310D01*
X230603078Y-106292818D01*
X230477637Y-106389072D01*
X230381383Y-106514513D01*
X230320875Y-106660592D01*
X230316926Y-106690592D01*
X230309649Y-106745865D01*
X230280927Y-106810792D01*
X230221662Y-106849884D01*
X230150670Y-106850729D01*
X230090492Y-106813059D01*
X230068319Y-106777638D01*
X230053618Y-106742147D01*
X230053615Y-106742142D01*
X230050455Y-106734513D01*
X229954201Y-106609072D01*
X229828760Y-106512818D01*
X229682681Y-106452310D01*
X229525919Y-106431672D01*
X229369157Y-106452310D01*
X229223078Y-106512818D01*
X229208624Y-106523909D01*
X229142404Y-106549510D01*
X229072855Y-106535246D01*
X229022059Y-106485645D01*
X229005919Y-106423947D01*
X229005919Y-104827271D01*
X229007470Y-104807561D01*
X229022374Y-104713459D01*
X229034556Y-104675966D01*
X229073253Y-104600019D01*
X229096425Y-104568127D01*
X229156692Y-104507860D01*
X229188584Y-104484688D01*
X229264531Y-104445991D01*
X229302024Y-104433809D01*
X229396126Y-104418905D01*
X229415836Y-104417354D01*
X239905919Y-104417354D01*
X239905919Y-98517354D01*
X231635265Y-98517354D01*
X231567144Y-98497352D01*
X231520651Y-98443696D01*
X231510343Y-98407800D01*
X231506500Y-98378605D01*
X231490963Y-98260592D01*
X231430455Y-98114513D01*
X231334201Y-97989072D01*
X231208760Y-97892818D01*
X231062681Y-97832310D01*
X230905919Y-97811672D01*
X230749157Y-97832310D01*
X230603078Y-97892818D01*
X230477637Y-97989072D01*
X230381383Y-98114513D01*
X230320875Y-98260592D01*
X230305339Y-98378605D01*
X230301495Y-98407800D01*
X230272773Y-98472727D01*
X230213508Y-98511819D01*
X230176573Y-98517354D01*
X229526535Y-98517354D01*
X229458414Y-98497352D01*
X229450234Y-98491600D01*
X229450095Y-98491520D01*
X229443544Y-98486493D01*
X229309628Y-98431024D01*
X229165919Y-98412104D01*
X229029609Y-98430050D01*
X228959460Y-98419111D01*
X228924067Y-98394223D01*
X228896425Y-98366581D01*
X228873253Y-98334689D01*
X228834556Y-98258742D01*
X228822374Y-98221249D01*
X228807470Y-98127147D01*
X228805919Y-98107437D01*
X228805919Y-95827271D01*
X228807470Y-95807561D01*
X228822374Y-95713459D01*
X228834556Y-95675966D01*
X228873253Y-95600019D01*
X228896425Y-95568127D01*
X228956692Y-95507860D01*
X228988584Y-95484688D01*
X229064531Y-95445991D01*
X229102024Y-95433809D01*
X229196126Y-95418905D01*
X229215836Y-95417354D01*
X244396002Y-95417354D01*
X244415712Y-95418905D01*
G37*
G04 #@! TD.AperFunction*
G04 #@! TA.AperFunction,Conductor*
G36*
X265005407Y-100326945D02*
G01*
X265110082Y-100370303D01*
X265110085Y-100370304D01*
X265117712Y-100373463D01*
X265260116Y-100392211D01*
X265402520Y-100373463D01*
X265410147Y-100370304D01*
X265410150Y-100370303D01*
X265514825Y-100326945D01*
X265563043Y-100317354D01*
X265971332Y-100317354D01*
X266019549Y-100326945D01*
X266107712Y-100363463D01*
X266250116Y-100382211D01*
X266392520Y-100363463D01*
X266480683Y-100326945D01*
X266528900Y-100317354D01*
X266951332Y-100317354D01*
X266999549Y-100326945D01*
X267087712Y-100363463D01*
X267230116Y-100382211D01*
X267372520Y-100363463D01*
X267460683Y-100326945D01*
X267508900Y-100317354D01*
X271497661Y-100317354D01*
X271514107Y-100318432D01*
X271618882Y-100332226D01*
X271650654Y-100340739D01*
X271740593Y-100377993D01*
X271769079Y-100394440D01*
X271846312Y-100453703D01*
X271869570Y-100476961D01*
X271928833Y-100554194D01*
X271945280Y-100582680D01*
X271982534Y-100672619D01*
X271991047Y-100704391D01*
X272004841Y-100809166D01*
X272005919Y-100825612D01*
X272005919Y-101620694D01*
X271985917Y-101688815D01*
X271979882Y-101697398D01*
X271955502Y-101729171D01*
X271899426Y-101802251D01*
X271844460Y-101934950D01*
X271825712Y-102077354D01*
X271844460Y-102219758D01*
X271899426Y-102352457D01*
X271955502Y-102425537D01*
X271979882Y-102457310D01*
X272005482Y-102523531D01*
X272005919Y-102534014D01*
X272005919Y-107217354D01*
X273753631Y-108965066D01*
X273764491Y-108977448D01*
X273828835Y-109061302D01*
X273845279Y-109089785D01*
X273882534Y-109179726D01*
X273891047Y-109211498D01*
X273904841Y-109316273D01*
X273905919Y-109332719D01*
X273905919Y-111909096D01*
X273904841Y-111925542D01*
X273891047Y-112030317D01*
X273882534Y-112062089D01*
X273845280Y-112152028D01*
X273828833Y-112180514D01*
X273769570Y-112257747D01*
X273746312Y-112281005D01*
X273669079Y-112340268D01*
X273640593Y-112356715D01*
X273550654Y-112393969D01*
X273518882Y-112402482D01*
X273414107Y-112416276D01*
X273397661Y-112417354D01*
X273114733Y-112417354D01*
X273046612Y-112397352D01*
X273000119Y-112343696D01*
X272989811Y-112307800D01*
X272982041Y-112248780D01*
X272980963Y-112240592D01*
X272920455Y-112094513D01*
X272824201Y-111969072D01*
X272698760Y-111872818D01*
X272552681Y-111812310D01*
X272395919Y-111791672D01*
X272239157Y-111812310D01*
X272093078Y-111872818D01*
X271967637Y-111969072D01*
X271871383Y-112094513D01*
X271843325Y-112162251D01*
X271829814Y-112194869D01*
X271785265Y-112250149D01*
X271717902Y-112272570D01*
X271649110Y-112255011D01*
X271624310Y-112235745D01*
X271458207Y-112069642D01*
X271447347Y-112057260D01*
X271383003Y-111973406D01*
X271366559Y-111944923D01*
X271329304Y-111854982D01*
X271320791Y-111823210D01*
X271306997Y-111718435D01*
X271305919Y-111701989D01*
X271305919Y-111117354D01*
X270805919Y-110617354D01*
X268905919Y-110617354D01*
X268222860Y-111052028D01*
X267936305Y-111234381D01*
X267920616Y-111242869D01*
X267816481Y-111290004D01*
X267782317Y-111299952D01*
X267727558Y-111307763D01*
X267669173Y-111316091D01*
X267651381Y-111317354D01*
X264782661Y-111317354D01*
X264734444Y-111307763D01*
X264632520Y-111265545D01*
X264490116Y-111246797D01*
X264347712Y-111265545D01*
X264245788Y-111307764D01*
X264197572Y-111317354D01*
X261914177Y-111317354D01*
X261897731Y-111316276D01*
X261792956Y-111302482D01*
X261761184Y-111293969D01*
X261671245Y-111256715D01*
X261642759Y-111240268D01*
X261565526Y-111181005D01*
X261542268Y-111157747D01*
X261483005Y-111080514D01*
X261466558Y-111052028D01*
X261429304Y-110962089D01*
X261420791Y-110930317D01*
X261406997Y-110825542D01*
X261405919Y-110809096D01*
X261405919Y-108137354D01*
X266775712Y-108137354D01*
X266794460Y-108279758D01*
X266849426Y-108412457D01*
X266936864Y-108526409D01*
X266943414Y-108531435D01*
X266943417Y-108531438D01*
X266993839Y-108570128D01*
X267050815Y-108613847D01*
X267117165Y-108641330D01*
X267175885Y-108665653D01*
X267175888Y-108665654D01*
X267183515Y-108668813D01*
X267325919Y-108687561D01*
X267468323Y-108668813D01*
X267475950Y-108665654D01*
X267475953Y-108665653D01*
X267534673Y-108641330D01*
X267601023Y-108613847D01*
X267657999Y-108570128D01*
X267708421Y-108531438D01*
X267708424Y-108531435D01*
X267714974Y-108526409D01*
X267802412Y-108412457D01*
X267857378Y-108279758D01*
X267876126Y-108137354D01*
X268235712Y-108137354D01*
X268254460Y-108279758D01*
X268309426Y-108412457D01*
X268396864Y-108526409D01*
X268403414Y-108531435D01*
X268403417Y-108531438D01*
X268453839Y-108570128D01*
X268510815Y-108613847D01*
X268577165Y-108641330D01*
X268635885Y-108665653D01*
X268635888Y-108665654D01*
X268643515Y-108668813D01*
X268785919Y-108687561D01*
X268928323Y-108668813D01*
X268935950Y-108665654D01*
X268935953Y-108665653D01*
X268994673Y-108641330D01*
X269061023Y-108613847D01*
X269117999Y-108570128D01*
X269168421Y-108531438D01*
X269168424Y-108531435D01*
X269174974Y-108526409D01*
X269262412Y-108412457D01*
X269317378Y-108279758D01*
X269336126Y-108137354D01*
X269635712Y-108137354D01*
X269654460Y-108279758D01*
X269709426Y-108412457D01*
X269796864Y-108526409D01*
X269803414Y-108531435D01*
X269803417Y-108531438D01*
X269853839Y-108570128D01*
X269910815Y-108613847D01*
X269977165Y-108641330D01*
X270035885Y-108665653D01*
X270035888Y-108665654D01*
X270043515Y-108668813D01*
X270185919Y-108687561D01*
X270328323Y-108668813D01*
X270335950Y-108665654D01*
X270335953Y-108665653D01*
X270394673Y-108641330D01*
X270461023Y-108613847D01*
X270517999Y-108570128D01*
X270568421Y-108531438D01*
X270568424Y-108531435D01*
X270574974Y-108526409D01*
X270662412Y-108412457D01*
X270717378Y-108279758D01*
X270736126Y-108137354D01*
X270717378Y-107994950D01*
X270662412Y-107862251D01*
X270574974Y-107748299D01*
X270568424Y-107743273D01*
X270568421Y-107743270D01*
X270517999Y-107704580D01*
X270461023Y-107660861D01*
X270394673Y-107633378D01*
X270335953Y-107609055D01*
X270335950Y-107609054D01*
X270328323Y-107605895D01*
X270185919Y-107587147D01*
X270043515Y-107605895D01*
X269910816Y-107660861D01*
X269796864Y-107748299D01*
X269709426Y-107862251D01*
X269654460Y-107994950D01*
X269635712Y-108137354D01*
X269336126Y-108137354D01*
X269317378Y-107994950D01*
X269262412Y-107862251D01*
X269174974Y-107748299D01*
X269168424Y-107743273D01*
X269168421Y-107743270D01*
X269117999Y-107704580D01*
X269061023Y-107660861D01*
X268994673Y-107633378D01*
X268935953Y-107609055D01*
X268935950Y-107609054D01*
X268928323Y-107605895D01*
X268785919Y-107587147D01*
X268643515Y-107605895D01*
X268510816Y-107660861D01*
X268396864Y-107748299D01*
X268309426Y-107862251D01*
X268254460Y-107994950D01*
X268235712Y-108137354D01*
X267876126Y-108137354D01*
X267857378Y-107994950D01*
X267802412Y-107862251D01*
X267714974Y-107748299D01*
X267708424Y-107743273D01*
X267708421Y-107743270D01*
X267657999Y-107704580D01*
X267601023Y-107660861D01*
X267534673Y-107633378D01*
X267475953Y-107609055D01*
X267475950Y-107609054D01*
X267468323Y-107605895D01*
X267325919Y-107587147D01*
X267183515Y-107605895D01*
X267050816Y-107660861D01*
X266936864Y-107748299D01*
X266849426Y-107862251D01*
X266794460Y-107994950D01*
X266775712Y-108137354D01*
X261405919Y-108137354D01*
X261405919Y-107427108D01*
X261425921Y-107358987D01*
X261479577Y-107312494D01*
X261549145Y-107302492D01*
X261549157Y-107302398D01*
X261549490Y-107302442D01*
X261549491Y-107302442D01*
X261551203Y-107302667D01*
X261551206Y-107302668D01*
X261697731Y-107321958D01*
X261705919Y-107323036D01*
X261714107Y-107321958D01*
X261854493Y-107303476D01*
X261862681Y-107302398D01*
X262008760Y-107241890D01*
X262134201Y-107145636D01*
X262158594Y-107113847D01*
X262225428Y-107026746D01*
X262230455Y-107020195D01*
X262290963Y-106874116D01*
X262311601Y-106717354D01*
X262301069Y-106637354D01*
X266775712Y-106637354D01*
X266794460Y-106779758D01*
X266849426Y-106912457D01*
X266936864Y-107026409D01*
X266943414Y-107031435D01*
X266943417Y-107031438D01*
X266993840Y-107070128D01*
X267050815Y-107113847D01*
X267111757Y-107139090D01*
X267175885Y-107165653D01*
X267175888Y-107165654D01*
X267183515Y-107168813D01*
X267325919Y-107187561D01*
X267468323Y-107168813D01*
X267475950Y-107165654D01*
X267475953Y-107165653D01*
X267540081Y-107139090D01*
X267601023Y-107113847D01*
X267657998Y-107070128D01*
X267708421Y-107031438D01*
X267708424Y-107031435D01*
X267714974Y-107026409D01*
X267802412Y-106912457D01*
X267857378Y-106779758D01*
X267876126Y-106637354D01*
X268235712Y-106637354D01*
X268254460Y-106779758D01*
X268309426Y-106912457D01*
X268396864Y-107026409D01*
X268403414Y-107031435D01*
X268403417Y-107031438D01*
X268453840Y-107070128D01*
X268510815Y-107113847D01*
X268571757Y-107139090D01*
X268635885Y-107165653D01*
X268635888Y-107165654D01*
X268643515Y-107168813D01*
X268785919Y-107187561D01*
X268928323Y-107168813D01*
X268935950Y-107165654D01*
X268935953Y-107165653D01*
X269000081Y-107139090D01*
X269061023Y-107113847D01*
X269117998Y-107070128D01*
X269168421Y-107031438D01*
X269168424Y-107031435D01*
X269174974Y-107026409D01*
X269262412Y-106912457D01*
X269317378Y-106779758D01*
X269336126Y-106637354D01*
X269635712Y-106637354D01*
X269654460Y-106779758D01*
X269709426Y-106912457D01*
X269796864Y-107026409D01*
X269803414Y-107031435D01*
X269803417Y-107031438D01*
X269853840Y-107070128D01*
X269910815Y-107113847D01*
X269971757Y-107139090D01*
X270035885Y-107165653D01*
X270035888Y-107165654D01*
X270043515Y-107168813D01*
X270185919Y-107187561D01*
X270328323Y-107168813D01*
X270335950Y-107165654D01*
X270335953Y-107165653D01*
X270400081Y-107139090D01*
X270461023Y-107113847D01*
X270517998Y-107070128D01*
X270568421Y-107031438D01*
X270568424Y-107031435D01*
X270574974Y-107026409D01*
X270662412Y-106912457D01*
X270717378Y-106779758D01*
X270736126Y-106637354D01*
X270717378Y-106494950D01*
X270662412Y-106362251D01*
X270574974Y-106248299D01*
X270568424Y-106243273D01*
X270568421Y-106243270D01*
X270502670Y-106192818D01*
X270461023Y-106160861D01*
X270380741Y-106127607D01*
X270335953Y-106109055D01*
X270335950Y-106109054D01*
X270328323Y-106105895D01*
X270185919Y-106087147D01*
X270043515Y-106105895D01*
X269910816Y-106160861D01*
X269796864Y-106248299D01*
X269709426Y-106362251D01*
X269654460Y-106494950D01*
X269635712Y-106637354D01*
X269336126Y-106637354D01*
X269317378Y-106494950D01*
X269262412Y-106362251D01*
X269174974Y-106248299D01*
X269168424Y-106243273D01*
X269168421Y-106243270D01*
X269102670Y-106192818D01*
X269061023Y-106160861D01*
X268980741Y-106127607D01*
X268935953Y-106109055D01*
X268935950Y-106109054D01*
X268928323Y-106105895D01*
X268785919Y-106087147D01*
X268643515Y-106105895D01*
X268510816Y-106160861D01*
X268396864Y-106248299D01*
X268309426Y-106362251D01*
X268254460Y-106494950D01*
X268235712Y-106637354D01*
X267876126Y-106637354D01*
X267857378Y-106494950D01*
X267802412Y-106362251D01*
X267714974Y-106248299D01*
X267708424Y-106243273D01*
X267708421Y-106243270D01*
X267642670Y-106192818D01*
X267601023Y-106160861D01*
X267520741Y-106127607D01*
X267475953Y-106109055D01*
X267475950Y-106109054D01*
X267468323Y-106105895D01*
X267325919Y-106087147D01*
X267183515Y-106105895D01*
X267050816Y-106160861D01*
X266936864Y-106248299D01*
X266849426Y-106362251D01*
X266794460Y-106494950D01*
X266775712Y-106637354D01*
X262301069Y-106637354D01*
X262290963Y-106560592D01*
X262230455Y-106414513D01*
X262134201Y-106289072D01*
X262008760Y-106192818D01*
X261862681Y-106132310D01*
X261705919Y-106111672D01*
X261549157Y-106132310D01*
X261548713Y-106128935D01*
X261493523Y-106127607D01*
X261434738Y-106087798D01*
X261406806Y-106022527D01*
X261405919Y-106007600D01*
X261405919Y-105137354D01*
X266775712Y-105137354D01*
X266794460Y-105279758D01*
X266849426Y-105412457D01*
X266936864Y-105526409D01*
X266943414Y-105531435D01*
X266943417Y-105531438D01*
X266993840Y-105570128D01*
X267050815Y-105613847D01*
X267104044Y-105635895D01*
X267175885Y-105665653D01*
X267175888Y-105665654D01*
X267183515Y-105668813D01*
X267325919Y-105687561D01*
X267468323Y-105668813D01*
X267475950Y-105665654D01*
X267475953Y-105665653D01*
X267547794Y-105635895D01*
X267601023Y-105613847D01*
X267657998Y-105570128D01*
X267708421Y-105531438D01*
X267708424Y-105531435D01*
X267714974Y-105526409D01*
X267802412Y-105412457D01*
X267857378Y-105279758D01*
X267876126Y-105137354D01*
X268235712Y-105137354D01*
X268254460Y-105279758D01*
X268309426Y-105412457D01*
X268396864Y-105526409D01*
X268403414Y-105531435D01*
X268403417Y-105531438D01*
X268453840Y-105570128D01*
X268510815Y-105613847D01*
X268564044Y-105635895D01*
X268635885Y-105665653D01*
X268635888Y-105665654D01*
X268643515Y-105668813D01*
X268785919Y-105687561D01*
X268928323Y-105668813D01*
X268935950Y-105665654D01*
X268935953Y-105665653D01*
X269007794Y-105635895D01*
X269061023Y-105613847D01*
X269117998Y-105570128D01*
X269168421Y-105531438D01*
X269168424Y-105531435D01*
X269174974Y-105526409D01*
X269262412Y-105412457D01*
X269317378Y-105279758D01*
X269336126Y-105137354D01*
X269635712Y-105137354D01*
X269654460Y-105279758D01*
X269709426Y-105412457D01*
X269796864Y-105526409D01*
X269803414Y-105531435D01*
X269803417Y-105531438D01*
X269853840Y-105570128D01*
X269910815Y-105613847D01*
X269964044Y-105635895D01*
X270035885Y-105665653D01*
X270035888Y-105665654D01*
X270043515Y-105668813D01*
X270185919Y-105687561D01*
X270328323Y-105668813D01*
X270335950Y-105665654D01*
X270335953Y-105665653D01*
X270407794Y-105635895D01*
X270461023Y-105613847D01*
X270517998Y-105570128D01*
X270568421Y-105531438D01*
X270568424Y-105531435D01*
X270574974Y-105526409D01*
X270662412Y-105412457D01*
X270717378Y-105279758D01*
X270736126Y-105137354D01*
X270717378Y-104994950D01*
X270662412Y-104862251D01*
X270574974Y-104748299D01*
X270568424Y-104743273D01*
X270568421Y-104743270D01*
X270505751Y-104695182D01*
X270461023Y-104660861D01*
X270394673Y-104633378D01*
X270335953Y-104609055D01*
X270335950Y-104609054D01*
X270328323Y-104605895D01*
X270185919Y-104587147D01*
X270043515Y-104605895D01*
X269910816Y-104660861D01*
X269796864Y-104748299D01*
X269709426Y-104862251D01*
X269654460Y-104994950D01*
X269635712Y-105137354D01*
X269336126Y-105137354D01*
X269317378Y-104994950D01*
X269262412Y-104862251D01*
X269174974Y-104748299D01*
X269168424Y-104743273D01*
X269168421Y-104743270D01*
X269105751Y-104695182D01*
X269061023Y-104660861D01*
X268994673Y-104633378D01*
X268935953Y-104609055D01*
X268935950Y-104609054D01*
X268928323Y-104605895D01*
X268785919Y-104587147D01*
X268643515Y-104605895D01*
X268510816Y-104660861D01*
X268396864Y-104748299D01*
X268309426Y-104862251D01*
X268254460Y-104994950D01*
X268235712Y-105137354D01*
X267876126Y-105137354D01*
X267857378Y-104994950D01*
X267802412Y-104862251D01*
X267714974Y-104748299D01*
X267708424Y-104743273D01*
X267708421Y-104743270D01*
X267645751Y-104695182D01*
X267601023Y-104660861D01*
X267534673Y-104633378D01*
X267475953Y-104609055D01*
X267475950Y-104609054D01*
X267468323Y-104605895D01*
X267325919Y-104587147D01*
X267183515Y-104605895D01*
X267050816Y-104660861D01*
X266936864Y-104748299D01*
X266849426Y-104862251D01*
X266794460Y-104994950D01*
X266775712Y-105137354D01*
X261405919Y-105137354D01*
X261405919Y-103425612D01*
X261406997Y-103409166D01*
X261420791Y-103304391D01*
X261429304Y-103272619D01*
X261466558Y-103182680D01*
X261483005Y-103154194D01*
X261542268Y-103076961D01*
X261565526Y-103053703D01*
X261642759Y-102994440D01*
X261671245Y-102977993D01*
X261761184Y-102940739D01*
X261792956Y-102932226D01*
X261897731Y-102918432D01*
X261914177Y-102917354D01*
X263605919Y-102917354D01*
X263619092Y-102897594D01*
X263730116Y-102912211D01*
X263872520Y-102893463D01*
X263880147Y-102890304D01*
X263880150Y-102890303D01*
X263938870Y-102865980D01*
X264005220Y-102838497D01*
X264062195Y-102794778D01*
X264112618Y-102756088D01*
X264112621Y-102756085D01*
X264119171Y-102751059D01*
X264206609Y-102637107D01*
X264261575Y-102504408D01*
X264280323Y-102362004D01*
X264261575Y-102219600D01*
X264206609Y-102086901D01*
X264119171Y-101972949D01*
X264055214Y-101923873D01*
X264013347Y-101866535D01*
X264005919Y-101823911D01*
X264005919Y-100825612D01*
X264006997Y-100809166D01*
X264020791Y-100704391D01*
X264029304Y-100672619D01*
X264066558Y-100582680D01*
X264083005Y-100554194D01*
X264142268Y-100476961D01*
X264165526Y-100453703D01*
X264242759Y-100394440D01*
X264271245Y-100377993D01*
X264361184Y-100340739D01*
X264392956Y-100332226D01*
X264497731Y-100318432D01*
X264514177Y-100317354D01*
X264957189Y-100317354D01*
X265005407Y-100326945D01*
G37*
G04 #@! TD.AperFunction*
G04 #@! TA.AperFunction,Conductor*
G36*
X334014107Y-94118432D02*
G01*
X334118882Y-94132226D01*
X334150654Y-94140739D01*
X334240593Y-94177993D01*
X334269079Y-94194440D01*
X334346312Y-94253703D01*
X334369570Y-94276961D01*
X334428833Y-94354194D01*
X334445280Y-94382680D01*
X334482534Y-94472619D01*
X334491047Y-94504391D01*
X334504841Y-94609166D01*
X334505919Y-94625612D01*
X334505919Y-97709096D01*
X334504841Y-97725542D01*
X334491047Y-97830317D01*
X334482534Y-97862089D01*
X334445280Y-97952028D01*
X334428833Y-97980514D01*
X334369570Y-98057747D01*
X334346312Y-98081005D01*
X334269079Y-98140268D01*
X334240593Y-98156715D01*
X334150654Y-98193969D01*
X334118882Y-98202482D01*
X334014107Y-98216276D01*
X333997661Y-98217354D01*
X332026797Y-98217354D01*
X331969593Y-98203620D01*
X331966317Y-98201951D01*
X331966316Y-98201951D01*
X331957481Y-98197449D01*
X331825919Y-98176612D01*
X331694357Y-98197449D01*
X331685522Y-98201951D01*
X331685521Y-98201951D01*
X331682245Y-98203620D01*
X331625041Y-98217354D01*
X296514177Y-98217354D01*
X296497731Y-98216276D01*
X296392956Y-98202482D01*
X296361184Y-98193969D01*
X296271245Y-98156715D01*
X296242759Y-98140268D01*
X296165526Y-98081005D01*
X296142268Y-98057747D01*
X296083005Y-97980514D01*
X296066558Y-97952028D01*
X296029304Y-97862089D01*
X296020791Y-97830317D01*
X296006997Y-97725542D01*
X296005919Y-97709096D01*
X296005919Y-97317354D01*
X327950669Y-97317354D01*
X327969589Y-97461063D01*
X328025058Y-97594979D01*
X328113298Y-97709975D01*
X328228294Y-97798215D01*
X328362210Y-97853684D01*
X328505919Y-97872604D01*
X328649628Y-97853684D01*
X328783544Y-97798215D01*
X328898540Y-97709975D01*
X328986780Y-97594979D01*
X329042249Y-97461063D01*
X329061169Y-97317354D01*
X329042249Y-97173645D01*
X328986780Y-97039729D01*
X328898540Y-96924733D01*
X328783544Y-96836493D01*
X328649628Y-96781024D01*
X328505919Y-96762104D01*
X328362210Y-96781024D01*
X328228294Y-96836493D01*
X328113298Y-96924733D01*
X328025058Y-97039729D01*
X327969589Y-97173645D01*
X327950669Y-97317354D01*
X296005919Y-97317354D01*
X296005919Y-94625612D01*
X296006997Y-94609166D01*
X296020791Y-94504391D01*
X296029304Y-94472619D01*
X296066558Y-94382680D01*
X296083005Y-94354194D01*
X296142268Y-94276961D01*
X296165526Y-94253703D01*
X296242759Y-94194440D01*
X296271245Y-94177993D01*
X296361184Y-94140739D01*
X296392956Y-94132226D01*
X296497731Y-94118432D01*
X296514177Y-94117354D01*
X333997661Y-94117354D01*
X334014107Y-94118432D01*
G37*
G04 #@! TD.AperFunction*
G04 #@! TA.AperFunction,Conductor*
G36*
X280077592Y-89635921D02*
G01*
X280187400Y-89703212D01*
X280191970Y-89705105D01*
X280191974Y-89705107D01*
X280408308Y-89794715D01*
X280408314Y-89794717D01*
X280412877Y-89796607D01*
X280417677Y-89797759D01*
X280417682Y-89797761D01*
X280526191Y-89823812D01*
X280650187Y-89853581D01*
X280893489Y-89872729D01*
X281136791Y-89853581D01*
X281260787Y-89823812D01*
X281369296Y-89797761D01*
X281369301Y-89797759D01*
X281374101Y-89796607D01*
X281378664Y-89794717D01*
X281378670Y-89794715D01*
X281595004Y-89705107D01*
X281595008Y-89705105D01*
X281599578Y-89703212D01*
X281709386Y-89635921D01*
X281775222Y-89617354D01*
X293196002Y-89617354D01*
X293215712Y-89618905D01*
X293309814Y-89633809D01*
X293347307Y-89645991D01*
X293423254Y-89684688D01*
X293455146Y-89707860D01*
X293515413Y-89768127D01*
X293538585Y-89800019D01*
X293577282Y-89875966D01*
X293589464Y-89913459D01*
X293604368Y-90007561D01*
X293605919Y-90027271D01*
X293605919Y-93217354D01*
X290905919Y-93217354D01*
X290905919Y-92517354D01*
X254705919Y-92517354D01*
X253505919Y-93617354D01*
X253505919Y-107007437D01*
X253504368Y-107027147D01*
X253489464Y-107121249D01*
X253477282Y-107158742D01*
X253438585Y-107234689D01*
X253415413Y-107266581D01*
X253355146Y-107326848D01*
X253323254Y-107350020D01*
X253247307Y-107388717D01*
X253209814Y-107400899D01*
X253115712Y-107415803D01*
X253096002Y-107417354D01*
X252763962Y-107417354D01*
X252714531Y-107404111D01*
X252713544Y-107406493D01*
X252587259Y-107354185D01*
X252587260Y-107354185D01*
X252579628Y-107351024D01*
X252435919Y-107332104D01*
X252292210Y-107351024D01*
X252158294Y-107406493D01*
X252157307Y-107404111D01*
X252107876Y-107417354D01*
X251315836Y-107417354D01*
X251296126Y-107415803D01*
X251202024Y-107400899D01*
X251164531Y-107388717D01*
X251088584Y-107350020D01*
X251056692Y-107326848D01*
X250996425Y-107266581D01*
X250973253Y-107234689D01*
X250934556Y-107158742D01*
X250922374Y-107121249D01*
X250907470Y-107027147D01*
X250905919Y-107007437D01*
X250905919Y-105859221D01*
X250925921Y-105791100D01*
X250955210Y-105759263D01*
X251058540Y-105679975D01*
X251146780Y-105564979D01*
X251202249Y-105431063D01*
X251221169Y-105287354D01*
X251202249Y-105143645D01*
X251146780Y-105009729D01*
X251058540Y-104894733D01*
X250955213Y-104815447D01*
X250913348Y-104758112D01*
X250905919Y-104715487D01*
X250905919Y-98827354D01*
X251900669Y-98827354D01*
X251919589Y-98971063D01*
X251975058Y-99104979D01*
X252063298Y-99219975D01*
X252178294Y-99308215D01*
X252312210Y-99363684D01*
X252455919Y-99382604D01*
X252599628Y-99363684D01*
X252733544Y-99308215D01*
X252848540Y-99219975D01*
X252936780Y-99104979D01*
X252992249Y-98971063D01*
X253011169Y-98827354D01*
X252992249Y-98683645D01*
X252936780Y-98549729D01*
X252910999Y-98516130D01*
X252867205Y-98459058D01*
X252841604Y-98392838D01*
X252855868Y-98323289D01*
X252867205Y-98305650D01*
X252931752Y-98221532D01*
X252931753Y-98221530D01*
X252936780Y-98214979D01*
X252992249Y-98081063D01*
X253011169Y-97937354D01*
X252992249Y-97793645D01*
X252936780Y-97659729D01*
X252848540Y-97544733D01*
X252733544Y-97456493D01*
X252599628Y-97401024D01*
X252455919Y-97382104D01*
X252312210Y-97401024D01*
X252178294Y-97456493D01*
X252063298Y-97544733D01*
X251975058Y-97659729D01*
X251919589Y-97793645D01*
X251900669Y-97937354D01*
X251919589Y-98081063D01*
X251975058Y-98214979D01*
X251980085Y-98221530D01*
X251980086Y-98221532D01*
X252044633Y-98305650D01*
X252070234Y-98371870D01*
X252055970Y-98441419D01*
X252044633Y-98459058D01*
X252000840Y-98516130D01*
X251975058Y-98549729D01*
X251919589Y-98683645D01*
X251900669Y-98827354D01*
X250905919Y-98827354D01*
X250905919Y-95841548D01*
X250925921Y-95773427D01*
X250955215Y-95741586D01*
X251041990Y-95675001D01*
X251048540Y-95669975D01*
X251136780Y-95554979D01*
X251192249Y-95421063D01*
X251211169Y-95277354D01*
X251192249Y-95133645D01*
X251136780Y-94999729D01*
X251048540Y-94884733D01*
X250955215Y-94813122D01*
X250913348Y-94755784D01*
X250905919Y-94713160D01*
X250905919Y-90027271D01*
X250907470Y-90007561D01*
X250922374Y-89913459D01*
X250934556Y-89875966D01*
X250973253Y-89800019D01*
X250996425Y-89768127D01*
X251056692Y-89707860D01*
X251088584Y-89684688D01*
X251164531Y-89645991D01*
X251202024Y-89633809D01*
X251296126Y-89618905D01*
X251315836Y-89617354D01*
X280011756Y-89617354D01*
X280077592Y-89635921D01*
G37*
G04 #@! TD.AperFunction*
M02*
