M48
INCH,TZ
T1C0.0118
T2C0.0138
T3C0.0177
T4C0.0315
T5C0.0748
%
G90
G05
T1
X85179Y-38845
X85219Y-42121
X86361Y-38452
X86392Y-41755
X87333Y-43290
X89117Y-42247
X89223Y-39231
X89246Y-42530
X90223Y-38964
X90239Y-43593
X90242Y-43298
X90266Y-39983
X90266Y-40278
X92290Y-39680
X92573Y-43302
X93172Y-39278
X93392Y-43208
X96546Y-39153
X96569Y-43058
X97089Y-37515
X97093Y-41440
X97498Y-41448
X97506Y-37499
X98404Y-42613
X98420Y-38684
X98439Y-39645
X98447Y-43590
X103034Y-39889
X103388Y-44259
X103428Y-39889
X103782Y-44259
X107248Y-43877
X107424Y-41168
X107577Y-43585
X107577Y-43873
X108152Y-39849
X108156Y-44034
X108376Y-43778
X108380Y-42432
X108526Y-40007
X108526Y-40282
X108618Y-44034
X108913Y-40477
X108913Y-40871
X109150Y-40635
X110050Y-41101
X111955Y-40865
X114057Y-39023
X130357Y-39465
X130542Y-37316
X130542Y-37710
X130640Y-38820
X130660Y-40269
X130896Y-37316
X130896Y-37710
X130926Y-40269
X131172Y-40269
X131290Y-37316
X131290Y-37710
X131516Y-39629
T2
X131014Y-41804
X131298Y-39954
X131408Y-41804
X131735Y-41847
X131735Y-42320
X131931Y-41375
X132050Y-41847
X132050Y-42320
X132365Y-41375
X132365Y-41847
X132365Y-42320
T3
X79176Y-38038
X79176Y-42369
X81144Y-45125
X83113Y-34495
X83113Y-40794
X85081Y-45125
X87837Y-34495
X87837Y-36857
X89018Y-45125
X89274Y-38712
X90365Y-42141
X90514Y-38117
X90514Y-41464
X90908Y-38747
X90908Y-42054
X92955Y-34495
X92955Y-36857
X93742Y-45125
X97888Y-37507
X97896Y-41452
X98073Y-34495
X98278Y-41452
X98290Y-37511
X98683Y-37511
X98687Y-41452
X98979Y-38129
X98983Y-42066
X99384Y-42475
X99384Y-42826
X99392Y-38558
X99392Y-38908
X100829Y-37645
X101656Y-44692
X102207Y-44692
X102758Y-44692
X103034Y-42015
X103585Y-34495
X103585Y-37645
X103719Y-42168
X103831Y-40300
X104130Y-44015
X104134Y-43644
X104193Y-40296
X104433Y-39308
X104823Y-39304
X104913Y-38681
X105209Y-39304
X105246Y-41393
X105246Y-41983
X105246Y-42574
X105250Y-44495
X105388Y-36782
X105632Y-44491
X105821Y-41393
X105821Y-41983
X105821Y-42574
X106250Y-44267
X106258Y-43885
X106372Y-41393
X106372Y-41983
X106372Y-42574
X106506Y-38676
X106634Y-39936
X106672Y-37825
X107235Y-40188
X107242Y-44251
X107762Y-41798
X108309Y-37645
X108368Y-42046
X108408Y-43042
X108703Y-34495
X109081Y-43452
X109530Y-43668
X109530Y-44141
X109530Y-44574
X109723Y-42439
X109727Y-41676
X109731Y-41302
X109731Y-42061
X110038Y-40653
X111459Y-37645
X115790Y-34495
X116735Y-36542
X116735Y-37920
X117325Y-36542
X117325Y-37920
X117365Y-39219
X117365Y-43550
X117876Y-37487
X117876Y-37920
X120908Y-39219
X120908Y-43550
X122483Y-34495
X124451Y-39219
X124451Y-43550
X127994Y-39219
X127994Y-43550
X128782Y-34495
X129333Y-38314
X130711Y-43196
X131302Y-43196
X132050Y-38038
X133113Y-45125
X137050Y-34495
X137050Y-37645
X137050Y-42369
X137050Y-45125
X143742Y-34495
X143742Y-37645
X143742Y-42369
X143742Y-45125
X148861Y-34495
X148861Y-37645
X148861Y-42369
X148861Y-45125
X151223Y-38038
X151223Y-41582
T4
X81089Y-37759
X81128Y-43782
X81876Y-37759
X81916Y-43782
X82664Y-37759
X82703Y-43782
X83451Y-37759
X83491Y-43782
X84239Y-37759
X84278Y-43782
X112538Y-37054
X113325Y-37054
X114113Y-37054
X114900Y-37054
T5
X79819Y-34771
X79819Y-44816
X110588Y-34771
X110588Y-44816
X131273Y-34771
X131273Y-44816
X150828Y-34771
X150828Y-44816
T0
M30
