G04 #@! TF.GenerationSoftware,KiCad,Pcbnew,(6.0.4)*
G04 #@! TF.CreationDate,2022-05-22T11:17:41+03:00*
G04 #@! TF.ProjectId,dock_rs232_prt,646f636b-5f72-4733-9233-325f7072742e,rev?*
G04 #@! TF.SameCoordinates,Original*
G04 #@! TF.FileFunction,Legend,Bot*
G04 #@! TF.FilePolarity,Positive*
%FSLAX46Y46*%
G04 Gerber Fmt 4.6, Leading zero omitted, Abs format (unit mm)*
G04 Created by KiCad (PCBNEW (6.0.4)) date 2022-05-22 11:17:41*
%MOMM*%
%LPD*%
G01*
G04 APERTURE LIST*
%ADD10C,0.026458*%
G04 APERTURE END LIST*
D10*
G36*
X309282911Y-108396314D02*
G01*
X309305932Y-108397663D01*
X309328332Y-108399884D01*
X309350102Y-108402969D01*
X309371233Y-108406908D01*
X309391715Y-108411692D01*
X309411540Y-108417314D01*
X309430698Y-108423763D01*
X309449181Y-108431031D01*
X309466979Y-108439109D01*
X309484083Y-108447988D01*
X309500485Y-108457660D01*
X309516175Y-108468115D01*
X309531144Y-108479345D01*
X309545383Y-108491340D01*
X309558884Y-108504092D01*
X309571636Y-108517593D01*
X309583631Y-108531832D01*
X309594860Y-108546802D01*
X309605314Y-108562494D01*
X309614984Y-108578897D01*
X309623860Y-108596005D01*
X309631934Y-108613807D01*
X309639197Y-108632296D01*
X309645639Y-108651461D01*
X309651251Y-108671295D01*
X309656025Y-108691788D01*
X309659951Y-108712931D01*
X309663021Y-108734717D01*
X309665224Y-108757135D01*
X309666553Y-108780177D01*
X309666998Y-108803833D01*
X309666998Y-109290403D01*
X309666554Y-109314065D01*
X309665227Y-109337122D01*
X309663027Y-109359564D01*
X309659962Y-109381383D01*
X309656041Y-109402568D01*
X309651274Y-109423109D01*
X309645668Y-109442998D01*
X309639234Y-109462224D01*
X309631979Y-109480778D01*
X309623913Y-109498651D01*
X309615045Y-109515832D01*
X309605384Y-109532312D01*
X309594938Y-109548082D01*
X309583716Y-109563133D01*
X309571728Y-109577453D01*
X309558982Y-109591034D01*
X309545488Y-109603867D01*
X309531253Y-109615941D01*
X309516288Y-109627247D01*
X309500601Y-109637775D01*
X309484200Y-109647517D01*
X309467095Y-109656461D01*
X309449295Y-109664600D01*
X309430809Y-109671922D01*
X309411645Y-109678419D01*
X309391812Y-109684081D01*
X309371320Y-109688898D01*
X309350177Y-109692860D01*
X309328392Y-109695959D01*
X309305974Y-109698184D01*
X309282933Y-109699527D01*
X309259276Y-109699976D01*
X308684337Y-109699976D01*
X308684337Y-109425603D01*
X309233083Y-109425603D01*
X309242631Y-109425449D01*
X309251881Y-109424987D01*
X309260831Y-109424217D01*
X309269481Y-109423139D01*
X309277830Y-109421755D01*
X309285880Y-109420064D01*
X309293628Y-109418067D01*
X309301076Y-109415764D01*
X309308223Y-109413156D01*
X309315068Y-109410242D01*
X309321612Y-109407024D01*
X309327853Y-109403502D01*
X309333793Y-109399676D01*
X309339430Y-109395547D01*
X309344765Y-109391114D01*
X309349797Y-109386379D01*
X309354525Y-109381341D01*
X309358951Y-109376002D01*
X309363073Y-109370361D01*
X309366891Y-109364418D01*
X309370405Y-109358175D01*
X309373614Y-109351632D01*
X309376520Y-109344789D01*
X309379120Y-109337646D01*
X309381415Y-109330204D01*
X309383406Y-109322463D01*
X309385090Y-109314423D01*
X309386469Y-109306086D01*
X309387542Y-109297451D01*
X309388308Y-109288519D01*
X309388769Y-109279289D01*
X309388922Y-109269764D01*
X309388922Y-108826322D01*
X309388768Y-108816767D01*
X309388306Y-108807500D01*
X309387536Y-108798521D01*
X309386458Y-108789833D01*
X309385074Y-108781435D01*
X309383383Y-108773329D01*
X309381386Y-108765517D01*
X309379083Y-108757998D01*
X309376475Y-108750774D01*
X309373561Y-108743846D01*
X309370343Y-108737215D01*
X309366821Y-108730882D01*
X309362995Y-108724847D01*
X309358866Y-108719113D01*
X309354433Y-108713680D01*
X309349698Y-108708550D01*
X309344660Y-108703722D01*
X309339321Y-108699198D01*
X309333679Y-108694979D01*
X309327737Y-108691067D01*
X309321494Y-108687462D01*
X309314951Y-108684164D01*
X309308108Y-108681176D01*
X309300965Y-108678499D01*
X309293523Y-108676132D01*
X309285782Y-108674078D01*
X309277742Y-108672337D01*
X309269405Y-108670910D01*
X309260770Y-108669798D01*
X309251837Y-108669003D01*
X309242608Y-108668525D01*
X309233083Y-108668366D01*
X308684337Y-108668366D01*
X308684337Y-108395845D01*
X309259277Y-108395845D01*
X309282911Y-108396314D01*
G37*
X309282911Y-108396314D02*
X309305932Y-108397663D01*
X309328332Y-108399884D01*
X309350102Y-108402969D01*
X309371233Y-108406908D01*
X309391715Y-108411692D01*
X309411540Y-108417314D01*
X309430698Y-108423763D01*
X309449181Y-108431031D01*
X309466979Y-108439109D01*
X309484083Y-108447988D01*
X309500485Y-108457660D01*
X309516175Y-108468115D01*
X309531144Y-108479345D01*
X309545383Y-108491340D01*
X309558884Y-108504092D01*
X309571636Y-108517593D01*
X309583631Y-108531832D01*
X309594860Y-108546802D01*
X309605314Y-108562494D01*
X309614984Y-108578897D01*
X309623860Y-108596005D01*
X309631934Y-108613807D01*
X309639197Y-108632296D01*
X309645639Y-108651461D01*
X309651251Y-108671295D01*
X309656025Y-108691788D01*
X309659951Y-108712931D01*
X309663021Y-108734717D01*
X309665224Y-108757135D01*
X309666553Y-108780177D01*
X309666998Y-108803833D01*
X309666998Y-109290403D01*
X309666554Y-109314065D01*
X309665227Y-109337122D01*
X309663027Y-109359564D01*
X309659962Y-109381383D01*
X309656041Y-109402568D01*
X309651274Y-109423109D01*
X309645668Y-109442998D01*
X309639234Y-109462224D01*
X309631979Y-109480778D01*
X309623913Y-109498651D01*
X309615045Y-109515832D01*
X309605384Y-109532312D01*
X309594938Y-109548082D01*
X309583716Y-109563133D01*
X309571728Y-109577453D01*
X309558982Y-109591034D01*
X309545488Y-109603867D01*
X309531253Y-109615941D01*
X309516288Y-109627247D01*
X309500601Y-109637775D01*
X309484200Y-109647517D01*
X309467095Y-109656461D01*
X309449295Y-109664600D01*
X309430809Y-109671922D01*
X309411645Y-109678419D01*
X309391812Y-109684081D01*
X309371320Y-109688898D01*
X309350177Y-109692860D01*
X309328392Y-109695959D01*
X309305974Y-109698184D01*
X309282933Y-109699527D01*
X309259276Y-109699976D01*
X308684337Y-109699976D01*
X308684337Y-109425603D01*
X309233083Y-109425603D01*
X309242631Y-109425449D01*
X309251881Y-109424987D01*
X309260831Y-109424217D01*
X309269481Y-109423139D01*
X309277830Y-109421755D01*
X309285880Y-109420064D01*
X309293628Y-109418067D01*
X309301076Y-109415764D01*
X309308223Y-109413156D01*
X309315068Y-109410242D01*
X309321612Y-109407024D01*
X309327853Y-109403502D01*
X309333793Y-109399676D01*
X309339430Y-109395547D01*
X309344765Y-109391114D01*
X309349797Y-109386379D01*
X309354525Y-109381341D01*
X309358951Y-109376002D01*
X309363073Y-109370361D01*
X309366891Y-109364418D01*
X309370405Y-109358175D01*
X309373614Y-109351632D01*
X309376520Y-109344789D01*
X309379120Y-109337646D01*
X309381415Y-109330204D01*
X309383406Y-109322463D01*
X309385090Y-109314423D01*
X309386469Y-109306086D01*
X309387542Y-109297451D01*
X309388308Y-109288519D01*
X309388769Y-109279289D01*
X309388922Y-109269764D01*
X309388922Y-108826322D01*
X309388768Y-108816767D01*
X309388306Y-108807500D01*
X309387536Y-108798521D01*
X309386458Y-108789833D01*
X309385074Y-108781435D01*
X309383383Y-108773329D01*
X309381386Y-108765517D01*
X309379083Y-108757998D01*
X309376475Y-108750774D01*
X309373561Y-108743846D01*
X309370343Y-108737215D01*
X309366821Y-108730882D01*
X309362995Y-108724847D01*
X309358866Y-108719113D01*
X309354433Y-108713680D01*
X309349698Y-108708550D01*
X309344660Y-108703722D01*
X309339321Y-108699198D01*
X309333679Y-108694979D01*
X309327737Y-108691067D01*
X309321494Y-108687462D01*
X309314951Y-108684164D01*
X309308108Y-108681176D01*
X309300965Y-108678499D01*
X309293523Y-108676132D01*
X309285782Y-108674078D01*
X309277742Y-108672337D01*
X309269405Y-108670910D01*
X309260770Y-108669798D01*
X309251837Y-108669003D01*
X309242608Y-108668525D01*
X309233083Y-108668366D01*
X308684337Y-108668366D01*
X308684337Y-108395845D01*
X309259277Y-108395845D01*
X309282911Y-108396314D01*
G36*
X306667947Y-109699712D02*
G01*
X306389870Y-109699712D01*
X306389870Y-108668102D01*
X305959657Y-108668102D01*
X305943922Y-108668517D01*
X305929166Y-108669750D01*
X305915394Y-108671782D01*
X305902610Y-108674592D01*
X305890820Y-108678163D01*
X305880029Y-108682473D01*
X305875010Y-108684900D01*
X305870242Y-108687504D01*
X305865726Y-108690284D01*
X305861464Y-108693237D01*
X305857454Y-108696360D01*
X305853699Y-108699652D01*
X305850199Y-108703109D01*
X305846954Y-108706730D01*
X305843965Y-108710511D01*
X305841232Y-108714451D01*
X305838757Y-108718546D01*
X305836540Y-108722796D01*
X305834581Y-108727196D01*
X305832881Y-108731746D01*
X305831441Y-108736441D01*
X305830262Y-108741281D01*
X305829343Y-108746262D01*
X305828686Y-108751382D01*
X305828292Y-108756638D01*
X305828160Y-108762029D01*
X305828160Y-108831614D01*
X305828292Y-108837004D01*
X305828686Y-108842261D01*
X305829343Y-108847381D01*
X305830262Y-108852362D01*
X305831441Y-108857201D01*
X305832881Y-108861897D01*
X305834581Y-108866446D01*
X305836540Y-108870847D01*
X305838757Y-108875096D01*
X305841233Y-108879192D01*
X305843965Y-108883132D01*
X305846954Y-108886913D01*
X305850200Y-108890533D01*
X305853700Y-108893991D01*
X305857455Y-108897282D01*
X305861465Y-108900406D01*
X305865727Y-108903358D01*
X305870243Y-108906138D01*
X305875011Y-108908743D01*
X305880030Y-108911170D01*
X305885301Y-108913416D01*
X305890821Y-108915480D01*
X305896592Y-108917359D01*
X305902611Y-108919050D01*
X305908879Y-108920552D01*
X305915395Y-108921861D01*
X305922158Y-108922975D01*
X305929167Y-108923892D01*
X305936422Y-108924610D01*
X305943923Y-108925125D01*
X305951668Y-108925436D01*
X305959657Y-108925541D01*
X306258371Y-108925541D01*
X306258371Y-109186684D01*
X305978441Y-109186684D01*
X305972491Y-109186865D01*
X305966601Y-109187403D01*
X305960775Y-109188295D01*
X305955019Y-109189536D01*
X305949338Y-109191120D01*
X305943737Y-109193043D01*
X305938222Y-109195301D01*
X305932797Y-109197888D01*
X305927468Y-109200800D01*
X305922239Y-109204032D01*
X305917117Y-109207579D01*
X305912106Y-109211436D01*
X305907212Y-109215600D01*
X305902439Y-109220065D01*
X305897793Y-109224825D01*
X305893279Y-109229878D01*
X305888902Y-109235217D01*
X305884668Y-109240838D01*
X305880581Y-109246737D01*
X305876647Y-109252908D01*
X305872871Y-109259347D01*
X305869258Y-109266049D01*
X305865813Y-109273009D01*
X305862542Y-109280223D01*
X305859450Y-109287686D01*
X305856541Y-109295393D01*
X305853821Y-109303339D01*
X305851296Y-109311519D01*
X305848970Y-109319930D01*
X305846849Y-109328565D01*
X305844937Y-109337421D01*
X305843240Y-109346492D01*
X305779475Y-109699711D01*
X305486317Y-109699711D01*
X305580244Y-109259972D01*
X305584395Y-109241396D01*
X305589201Y-109223578D01*
X305594654Y-109206531D01*
X305600746Y-109190268D01*
X305607470Y-109174804D01*
X305614816Y-109160152D01*
X305622776Y-109146326D01*
X305631343Y-109133338D01*
X305640509Y-109121203D01*
X305650265Y-109109935D01*
X305660602Y-109099546D01*
X305671514Y-109090050D01*
X305682992Y-109081461D01*
X305695028Y-109073793D01*
X305707613Y-109067059D01*
X305720740Y-109061272D01*
X305710007Y-109057769D01*
X305699635Y-109053956D01*
X305689623Y-109049831D01*
X305679971Y-109045392D01*
X305670675Y-109040638D01*
X305661735Y-109035567D01*
X305653151Y-109030177D01*
X305644919Y-109024467D01*
X305637039Y-109018434D01*
X305629510Y-109012078D01*
X305622330Y-109005397D01*
X305615498Y-108998388D01*
X305609013Y-108991051D01*
X305602872Y-108983383D01*
X305597076Y-108975382D01*
X305591621Y-108967048D01*
X305586508Y-108958378D01*
X305581735Y-108949371D01*
X305577300Y-108940024D01*
X305573202Y-108930337D01*
X305569439Y-108920308D01*
X305566011Y-108909934D01*
X305562916Y-108899215D01*
X305560152Y-108888148D01*
X305557719Y-108876732D01*
X305555614Y-108864965D01*
X305553837Y-108852846D01*
X305552386Y-108840372D01*
X305551260Y-108827542D01*
X305550457Y-108814354D01*
X305549817Y-108786899D01*
X305549817Y-108683448D01*
X305550197Y-108665094D01*
X305551338Y-108647385D01*
X305553243Y-108630318D01*
X305555913Y-108613888D01*
X305559349Y-108598092D01*
X305563553Y-108582924D01*
X305568528Y-108568381D01*
X305574275Y-108554459D01*
X305580795Y-108541153D01*
X305588090Y-108528460D01*
X305596163Y-108516376D01*
X305605014Y-108504895D01*
X305614646Y-108494015D01*
X305625060Y-108483731D01*
X305636259Y-108474039D01*
X305648243Y-108464934D01*
X305661014Y-108456414D01*
X305674575Y-108448473D01*
X305688927Y-108441107D01*
X305704072Y-108434313D01*
X305720011Y-108428086D01*
X305736747Y-108422421D01*
X305754281Y-108417316D01*
X305772614Y-108412766D01*
X305791749Y-108408767D01*
X305811687Y-108405314D01*
X305832430Y-108402404D01*
X305853979Y-108400032D01*
X305876338Y-108398194D01*
X305899506Y-108396887D01*
X305948280Y-108395845D01*
X306667947Y-108395845D01*
X306667947Y-109699712D01*
G37*
X306667947Y-109699712D02*
X306389870Y-109699712D01*
X306389870Y-108668102D01*
X305959657Y-108668102D01*
X305943922Y-108668517D01*
X305929166Y-108669750D01*
X305915394Y-108671782D01*
X305902610Y-108674592D01*
X305890820Y-108678163D01*
X305880029Y-108682473D01*
X305875010Y-108684900D01*
X305870242Y-108687504D01*
X305865726Y-108690284D01*
X305861464Y-108693237D01*
X305857454Y-108696360D01*
X305853699Y-108699652D01*
X305850199Y-108703109D01*
X305846954Y-108706730D01*
X305843965Y-108710511D01*
X305841232Y-108714451D01*
X305838757Y-108718546D01*
X305836540Y-108722796D01*
X305834581Y-108727196D01*
X305832881Y-108731746D01*
X305831441Y-108736441D01*
X305830262Y-108741281D01*
X305829343Y-108746262D01*
X305828686Y-108751382D01*
X305828292Y-108756638D01*
X305828160Y-108762029D01*
X305828160Y-108831614D01*
X305828292Y-108837004D01*
X305828686Y-108842261D01*
X305829343Y-108847381D01*
X305830262Y-108852362D01*
X305831441Y-108857201D01*
X305832881Y-108861897D01*
X305834581Y-108866446D01*
X305836540Y-108870847D01*
X305838757Y-108875096D01*
X305841233Y-108879192D01*
X305843965Y-108883132D01*
X305846954Y-108886913D01*
X305850200Y-108890533D01*
X305853700Y-108893991D01*
X305857455Y-108897282D01*
X305861465Y-108900406D01*
X305865727Y-108903358D01*
X305870243Y-108906138D01*
X305875011Y-108908743D01*
X305880030Y-108911170D01*
X305885301Y-108913416D01*
X305890821Y-108915480D01*
X305896592Y-108917359D01*
X305902611Y-108919050D01*
X305908879Y-108920552D01*
X305915395Y-108921861D01*
X305922158Y-108922975D01*
X305929167Y-108923892D01*
X305936422Y-108924610D01*
X305943923Y-108925125D01*
X305951668Y-108925436D01*
X305959657Y-108925541D01*
X306258371Y-108925541D01*
X306258371Y-109186684D01*
X305978441Y-109186684D01*
X305972491Y-109186865D01*
X305966601Y-109187403D01*
X305960775Y-109188295D01*
X305955019Y-109189536D01*
X305949338Y-109191120D01*
X305943737Y-109193043D01*
X305938222Y-109195301D01*
X305932797Y-109197888D01*
X305927468Y-109200800D01*
X305922239Y-109204032D01*
X305917117Y-109207579D01*
X305912106Y-109211436D01*
X305907212Y-109215600D01*
X305902439Y-109220065D01*
X305897793Y-109224825D01*
X305893279Y-109229878D01*
X305888902Y-109235217D01*
X305884668Y-109240838D01*
X305880581Y-109246737D01*
X305876647Y-109252908D01*
X305872871Y-109259347D01*
X305869258Y-109266049D01*
X305865813Y-109273009D01*
X305862542Y-109280223D01*
X305859450Y-109287686D01*
X305856541Y-109295393D01*
X305853821Y-109303339D01*
X305851296Y-109311519D01*
X305848970Y-109319930D01*
X305846849Y-109328565D01*
X305844937Y-109337421D01*
X305843240Y-109346492D01*
X305779475Y-109699711D01*
X305486317Y-109699711D01*
X305580244Y-109259972D01*
X305584395Y-109241396D01*
X305589201Y-109223578D01*
X305594654Y-109206531D01*
X305600746Y-109190268D01*
X305607470Y-109174804D01*
X305614816Y-109160152D01*
X305622776Y-109146326D01*
X305631343Y-109133338D01*
X305640509Y-109121203D01*
X305650265Y-109109935D01*
X305660602Y-109099546D01*
X305671514Y-109090050D01*
X305682992Y-109081461D01*
X305695028Y-109073793D01*
X305707613Y-109067059D01*
X305720740Y-109061272D01*
X305710007Y-109057769D01*
X305699635Y-109053956D01*
X305689623Y-109049831D01*
X305679971Y-109045392D01*
X305670675Y-109040638D01*
X305661735Y-109035567D01*
X305653151Y-109030177D01*
X305644919Y-109024467D01*
X305637039Y-109018434D01*
X305629510Y-109012078D01*
X305622330Y-109005397D01*
X305615498Y-108998388D01*
X305609013Y-108991051D01*
X305602872Y-108983383D01*
X305597076Y-108975382D01*
X305591621Y-108967048D01*
X305586508Y-108958378D01*
X305581735Y-108949371D01*
X305577300Y-108940024D01*
X305573202Y-108930337D01*
X305569439Y-108920308D01*
X305566011Y-108909934D01*
X305562916Y-108899215D01*
X305560152Y-108888148D01*
X305557719Y-108876732D01*
X305555614Y-108864965D01*
X305553837Y-108852846D01*
X305552386Y-108840372D01*
X305551260Y-108827542D01*
X305550457Y-108814354D01*
X305549817Y-108786899D01*
X305549817Y-108683448D01*
X305550197Y-108665094D01*
X305551338Y-108647385D01*
X305553243Y-108630318D01*
X305555913Y-108613888D01*
X305559349Y-108598092D01*
X305563553Y-108582924D01*
X305568528Y-108568381D01*
X305574275Y-108554459D01*
X305580795Y-108541153D01*
X305588090Y-108528460D01*
X305596163Y-108516376D01*
X305605014Y-108504895D01*
X305614646Y-108494015D01*
X305625060Y-108483731D01*
X305636259Y-108474039D01*
X305648243Y-108464934D01*
X305661014Y-108456414D01*
X305674575Y-108448473D01*
X305688927Y-108441107D01*
X305704072Y-108434313D01*
X305720011Y-108428086D01*
X305736747Y-108422421D01*
X305754281Y-108417316D01*
X305772614Y-108412766D01*
X305791749Y-108408767D01*
X305811687Y-108405314D01*
X305832430Y-108402404D01*
X305853979Y-108400032D01*
X305876338Y-108398194D01*
X305899506Y-108396887D01*
X305948280Y-108395845D01*
X306667947Y-108395845D01*
X306667947Y-109699712D01*
G36*
X310898384Y-108397666D02*
G01*
X310947408Y-108401707D01*
X310970388Y-108404790D01*
X310992364Y-108408598D01*
X311013348Y-108413145D01*
X311033353Y-108418442D01*
X311052391Y-108424503D01*
X311070477Y-108431341D01*
X311087621Y-108438967D01*
X311103838Y-108447394D01*
X311119139Y-108456636D01*
X311133538Y-108466705D01*
X311147047Y-108477614D01*
X311159679Y-108489375D01*
X311171446Y-108502001D01*
X311182363Y-108515505D01*
X311192440Y-108529900D01*
X311201691Y-108545197D01*
X311210129Y-108561411D01*
X311217766Y-108578552D01*
X311224616Y-108596636D01*
X311230690Y-108615673D01*
X311236003Y-108635676D01*
X311240565Y-108656659D01*
X311244391Y-108678634D01*
X311247492Y-108701614D01*
X311251573Y-108750638D01*
X311252911Y-108803833D01*
X311252911Y-109290403D01*
X311251573Y-109343619D01*
X311247492Y-109392702D01*
X311244391Y-109415724D01*
X311240565Y-109437749D01*
X311236003Y-109458789D01*
X311230690Y-109478856D01*
X311224616Y-109497962D01*
X311217766Y-109516120D01*
X311210129Y-109533341D01*
X311201691Y-109549637D01*
X311192440Y-109565021D01*
X311182363Y-109579505D01*
X311171446Y-109593100D01*
X311159679Y-109605818D01*
X311147047Y-109617673D01*
X311133538Y-109628675D01*
X311119139Y-109638837D01*
X311103838Y-109648170D01*
X311087621Y-109656688D01*
X311070477Y-109664402D01*
X311052391Y-109671324D01*
X311033353Y-109677466D01*
X311013348Y-109682840D01*
X310992364Y-109687459D01*
X310970388Y-109691334D01*
X310947408Y-109694477D01*
X310898384Y-109698617D01*
X310845189Y-109699976D01*
X310200664Y-109699976D01*
X310200664Y-109425603D01*
X310824551Y-109425603D01*
X310845119Y-109425174D01*
X310863901Y-109423845D01*
X310872643Y-109422823D01*
X310880962Y-109421552D01*
X310888867Y-109420024D01*
X310896365Y-109418232D01*
X310903464Y-109416168D01*
X310910172Y-109413823D01*
X310916497Y-109411190D01*
X310922447Y-109408260D01*
X310928030Y-109405027D01*
X310933254Y-109401482D01*
X310938126Y-109397617D01*
X310942654Y-109393424D01*
X310946847Y-109388895D01*
X310950712Y-109384023D01*
X310954258Y-109378800D01*
X310957491Y-109373217D01*
X310960420Y-109367267D01*
X310963054Y-109360942D01*
X310965399Y-109354233D01*
X310967463Y-109347134D01*
X310969255Y-109339636D01*
X310970783Y-109331732D01*
X310972054Y-109323413D01*
X310973076Y-109314671D01*
X310974405Y-109295888D01*
X310974834Y-109275321D01*
X310974834Y-109177689D01*
X310200663Y-109177689D01*
X310200663Y-108903582D01*
X310974834Y-108903582D01*
X310974834Y-108821032D01*
X310974405Y-108800443D01*
X310973076Y-108781602D01*
X310970783Y-108764450D01*
X310969255Y-108756489D01*
X310967463Y-108748928D01*
X310965399Y-108741762D01*
X310963054Y-108734981D01*
X310960420Y-108728579D01*
X310957491Y-108722549D01*
X310954258Y-108716884D01*
X310950712Y-108711575D01*
X310946847Y-108706617D01*
X310942654Y-108702002D01*
X310938126Y-108697722D01*
X310933254Y-108693771D01*
X310928030Y-108690141D01*
X310922447Y-108686825D01*
X310916497Y-108683816D01*
X310910172Y-108681106D01*
X310903464Y-108678688D01*
X310896365Y-108676556D01*
X310888867Y-108674702D01*
X310880962Y-108673118D01*
X310872643Y-108671798D01*
X310863901Y-108670734D01*
X310845119Y-108669345D01*
X310824551Y-108668895D01*
X310200664Y-108668895D01*
X310200664Y-108396375D01*
X310845189Y-108396375D01*
X310898384Y-108397666D01*
G37*
X310898384Y-108397666D02*
X310947408Y-108401707D01*
X310970388Y-108404790D01*
X310992364Y-108408598D01*
X311013348Y-108413145D01*
X311033353Y-108418442D01*
X311052391Y-108424503D01*
X311070477Y-108431341D01*
X311087621Y-108438967D01*
X311103838Y-108447394D01*
X311119139Y-108456636D01*
X311133538Y-108466705D01*
X311147047Y-108477614D01*
X311159679Y-108489375D01*
X311171446Y-108502001D01*
X311182363Y-108515505D01*
X311192440Y-108529900D01*
X311201691Y-108545197D01*
X311210129Y-108561411D01*
X311217766Y-108578552D01*
X311224616Y-108596636D01*
X311230690Y-108615673D01*
X311236003Y-108635676D01*
X311240565Y-108656659D01*
X311244391Y-108678634D01*
X311247492Y-108701614D01*
X311251573Y-108750638D01*
X311252911Y-108803833D01*
X311252911Y-109290403D01*
X311251573Y-109343619D01*
X311247492Y-109392702D01*
X311244391Y-109415724D01*
X311240565Y-109437749D01*
X311236003Y-109458789D01*
X311230690Y-109478856D01*
X311224616Y-109497962D01*
X311217766Y-109516120D01*
X311210129Y-109533341D01*
X311201691Y-109549637D01*
X311192440Y-109565021D01*
X311182363Y-109579505D01*
X311171446Y-109593100D01*
X311159679Y-109605818D01*
X311147047Y-109617673D01*
X311133538Y-109628675D01*
X311119139Y-109638837D01*
X311103838Y-109648170D01*
X311087621Y-109656688D01*
X311070477Y-109664402D01*
X311052391Y-109671324D01*
X311033353Y-109677466D01*
X311013348Y-109682840D01*
X310992364Y-109687459D01*
X310970388Y-109691334D01*
X310947408Y-109694477D01*
X310898384Y-109698617D01*
X310845189Y-109699976D01*
X310200664Y-109699976D01*
X310200664Y-109425603D01*
X310824551Y-109425603D01*
X310845119Y-109425174D01*
X310863901Y-109423845D01*
X310872643Y-109422823D01*
X310880962Y-109421552D01*
X310888867Y-109420024D01*
X310896365Y-109418232D01*
X310903464Y-109416168D01*
X310910172Y-109413823D01*
X310916497Y-109411190D01*
X310922447Y-109408260D01*
X310928030Y-109405027D01*
X310933254Y-109401482D01*
X310938126Y-109397617D01*
X310942654Y-109393424D01*
X310946847Y-109388895D01*
X310950712Y-109384023D01*
X310954258Y-109378800D01*
X310957491Y-109373217D01*
X310960420Y-109367267D01*
X310963054Y-109360942D01*
X310965399Y-109354233D01*
X310967463Y-109347134D01*
X310969255Y-109339636D01*
X310970783Y-109331732D01*
X310972054Y-109323413D01*
X310973076Y-109314671D01*
X310974405Y-109295888D01*
X310974834Y-109275321D01*
X310974834Y-109177689D01*
X310200663Y-109177689D01*
X310200663Y-108903582D01*
X310974834Y-108903582D01*
X310974834Y-108821032D01*
X310974405Y-108800443D01*
X310973076Y-108781602D01*
X310970783Y-108764450D01*
X310969255Y-108756489D01*
X310967463Y-108748928D01*
X310965399Y-108741762D01*
X310963054Y-108734981D01*
X310960420Y-108728579D01*
X310957491Y-108722549D01*
X310954258Y-108716884D01*
X310950712Y-108711575D01*
X310946847Y-108706617D01*
X310942654Y-108702002D01*
X310938126Y-108697722D01*
X310933254Y-108693771D01*
X310928030Y-108690141D01*
X310922447Y-108686825D01*
X310916497Y-108683816D01*
X310910172Y-108681106D01*
X310903464Y-108678688D01*
X310896365Y-108676556D01*
X310888867Y-108674702D01*
X310880962Y-108673118D01*
X310872643Y-108671798D01*
X310863901Y-108670734D01*
X310845119Y-108669345D01*
X310824551Y-108668895D01*
X310200664Y-108668895D01*
X310200664Y-108396375D01*
X310845189Y-108396375D01*
X310898384Y-108397666D01*
G36*
X298668707Y-108396819D02*
G01*
X298692586Y-108398142D01*
X298715821Y-108400332D01*
X298738400Y-108403378D01*
X298760316Y-108407267D01*
X298781559Y-108411988D01*
X298802120Y-108417528D01*
X298821989Y-108423875D01*
X298841156Y-108431018D01*
X298859613Y-108438944D01*
X298877351Y-108447641D01*
X298894359Y-108457097D01*
X298910628Y-108467301D01*
X298926150Y-108478240D01*
X298940915Y-108489902D01*
X298954913Y-108502275D01*
X298968135Y-108515347D01*
X298980572Y-108529107D01*
X298992214Y-108543542D01*
X299003052Y-108558640D01*
X299013077Y-108574389D01*
X299022279Y-108590777D01*
X299030649Y-108607792D01*
X299038178Y-108625423D01*
X299044856Y-108643656D01*
X299050674Y-108662480D01*
X299055622Y-108681884D01*
X299059692Y-108701854D01*
X299062874Y-108722380D01*
X299065158Y-108743448D01*
X299066536Y-108765048D01*
X299066997Y-108787166D01*
X299066536Y-108809285D01*
X299065158Y-108830884D01*
X299062874Y-108851952D01*
X299059692Y-108872478D01*
X299055622Y-108892448D01*
X299050674Y-108911851D01*
X299044856Y-108930676D01*
X299038178Y-108948909D01*
X299030649Y-108966539D01*
X299022279Y-108983555D01*
X299013077Y-108999943D01*
X299003052Y-109015692D01*
X298992214Y-109030790D01*
X298980572Y-109045224D01*
X298968135Y-109058984D01*
X298954913Y-109072056D01*
X298940915Y-109084430D01*
X298926150Y-109096092D01*
X298910628Y-109107030D01*
X298894359Y-109117234D01*
X298877351Y-109126690D01*
X298859613Y-109135387D01*
X298841156Y-109143313D01*
X298821989Y-109150456D01*
X298802120Y-109156803D01*
X298781559Y-109162343D01*
X298760316Y-109167064D01*
X298738400Y-109170953D01*
X298715821Y-109173999D01*
X298692586Y-109176189D01*
X298668707Y-109177512D01*
X298644192Y-109177956D01*
X298351035Y-109177956D01*
X298331560Y-109178440D01*
X298313323Y-109179891D01*
X298296324Y-109182311D01*
X298280568Y-109185699D01*
X298266057Y-109190056D01*
X298259269Y-109192598D01*
X298252794Y-109195383D01*
X298246631Y-109198410D01*
X298240781Y-109201679D01*
X298235244Y-109205191D01*
X298230020Y-109208945D01*
X298225111Y-109212942D01*
X298220516Y-109217182D01*
X298216236Y-109221665D01*
X298212270Y-109226390D01*
X298208620Y-109231358D01*
X298205285Y-109236569D01*
X298202267Y-109242022D01*
X298199564Y-109247719D01*
X298197179Y-109253659D01*
X298195110Y-109259842D01*
X298193359Y-109266267D01*
X298191925Y-109272936D01*
X298190809Y-109279849D01*
X298190012Y-109287004D01*
X298189533Y-109294403D01*
X298189374Y-109302045D01*
X298189533Y-109309664D01*
X298190012Y-109317043D01*
X298190809Y-109324181D01*
X298191925Y-109331078D01*
X298193359Y-109337735D01*
X298195110Y-109344151D01*
X298197179Y-109350326D01*
X298199564Y-109356260D01*
X298202267Y-109361953D01*
X298205285Y-109367405D01*
X298208620Y-109372616D01*
X298212270Y-109377585D01*
X298216236Y-109382313D01*
X298220516Y-109386799D01*
X298225111Y-109391044D01*
X298230020Y-109395047D01*
X298235244Y-109398808D01*
X298240781Y-109402327D01*
X298246631Y-109405604D01*
X298252794Y-109408639D01*
X298259269Y-109411431D01*
X298266057Y-109413982D01*
X298273157Y-109416290D01*
X298280568Y-109418355D01*
X298288291Y-109420178D01*
X298296324Y-109421758D01*
X298304668Y-109423095D01*
X298313323Y-109424190D01*
X298322287Y-109425041D01*
X298331560Y-109425649D01*
X298341143Y-109426014D01*
X298351035Y-109426136D01*
X299040538Y-109426136D01*
X299040538Y-109700509D01*
X298356590Y-109700509D01*
X298330353Y-109700065D01*
X298304827Y-109698740D01*
X298280022Y-109696545D01*
X298255944Y-109693491D01*
X298232601Y-109689588D01*
X298210002Y-109684847D01*
X298188155Y-109679278D01*
X298167067Y-109672893D01*
X298146746Y-109665701D01*
X298127201Y-109657714D01*
X298108439Y-109648942D01*
X298090468Y-109639396D01*
X298073296Y-109629086D01*
X298056932Y-109618024D01*
X298041382Y-109606219D01*
X298026656Y-109593683D01*
X298012760Y-109580426D01*
X297999704Y-109566458D01*
X297987494Y-109551791D01*
X297976139Y-109536436D01*
X297965647Y-109520401D01*
X297956025Y-109503700D01*
X297947282Y-109486341D01*
X297939426Y-109468336D01*
X297932464Y-109449696D01*
X297926405Y-109430430D01*
X297921256Y-109410551D01*
X297917025Y-109390067D01*
X297913721Y-109368991D01*
X297911351Y-109347332D01*
X297909923Y-109325102D01*
X297909445Y-109302311D01*
X297909923Y-109279471D01*
X297911351Y-109257195D01*
X297913721Y-109235494D01*
X297917026Y-109214378D01*
X297921256Y-109193858D01*
X297926405Y-109173944D01*
X297932465Y-109154647D01*
X297939426Y-109135977D01*
X297947283Y-109117946D01*
X297956026Y-109100562D01*
X297965647Y-109083838D01*
X297976140Y-109067784D01*
X297987495Y-109052409D01*
X297999704Y-109037726D01*
X298012761Y-109023744D01*
X298026656Y-109010473D01*
X298041383Y-108997925D01*
X298056932Y-108986111D01*
X298073297Y-108975039D01*
X298090468Y-108964722D01*
X298108439Y-108955170D01*
X298127201Y-108946392D01*
X298146746Y-108938401D01*
X298167067Y-108931206D01*
X298188155Y-108924818D01*
X298210002Y-108919247D01*
X298232601Y-108914504D01*
X298255944Y-108910600D01*
X298280022Y-108907546D01*
X298304828Y-108905350D01*
X298330353Y-108904026D01*
X298356590Y-108903582D01*
X298649750Y-108903582D01*
X298666483Y-108903120D01*
X298682154Y-108901737D01*
X298696760Y-108899436D01*
X298703662Y-108897942D01*
X298710298Y-108896219D01*
X298716666Y-108894268D01*
X298722767Y-108892089D01*
X298728599Y-108889682D01*
X298734163Y-108887048D01*
X298739459Y-108884187D01*
X298744485Y-108881099D01*
X298749243Y-108877786D01*
X298753731Y-108874246D01*
X298757949Y-108870481D01*
X298761898Y-108866490D01*
X298765576Y-108862275D01*
X298768983Y-108857835D01*
X298772119Y-108853171D01*
X298774985Y-108848283D01*
X298777578Y-108843172D01*
X298779900Y-108837837D01*
X298781950Y-108832279D01*
X298783728Y-108826499D01*
X298785233Y-108820497D01*
X298786464Y-108814273D01*
X298787423Y-108807827D01*
X298788108Y-108801160D01*
X298788519Y-108794273D01*
X298788657Y-108787165D01*
X298788519Y-108780051D01*
X298788108Y-108773148D01*
X298787423Y-108766457D01*
X298786464Y-108759977D01*
X298785233Y-108753711D01*
X298783728Y-108747659D01*
X298781950Y-108741823D01*
X298779900Y-108736203D01*
X298777578Y-108730801D01*
X298774985Y-108725617D01*
X298772119Y-108720652D01*
X298768983Y-108715908D01*
X298765576Y-108711386D01*
X298761898Y-108707086D01*
X298757949Y-108703009D01*
X298753731Y-108699157D01*
X298749243Y-108695531D01*
X298744485Y-108692131D01*
X298739459Y-108688959D01*
X298734163Y-108686015D01*
X298728599Y-108683301D01*
X298722767Y-108680818D01*
X298716666Y-108678567D01*
X298710298Y-108676548D01*
X298703662Y-108674762D01*
X298696760Y-108673212D01*
X298689590Y-108671897D01*
X298682154Y-108670819D01*
X298674451Y-108669979D01*
X298666483Y-108669378D01*
X298658249Y-108669016D01*
X298649750Y-108668895D01*
X297967653Y-108668895D01*
X297967653Y-108396375D01*
X298644192Y-108396375D01*
X298668707Y-108396819D01*
G37*
X298668707Y-108396819D02*
X298692586Y-108398142D01*
X298715821Y-108400332D01*
X298738400Y-108403378D01*
X298760316Y-108407267D01*
X298781559Y-108411988D01*
X298802120Y-108417528D01*
X298821989Y-108423875D01*
X298841156Y-108431018D01*
X298859613Y-108438944D01*
X298877351Y-108447641D01*
X298894359Y-108457097D01*
X298910628Y-108467301D01*
X298926150Y-108478240D01*
X298940915Y-108489902D01*
X298954913Y-108502275D01*
X298968135Y-108515347D01*
X298980572Y-108529107D01*
X298992214Y-108543542D01*
X299003052Y-108558640D01*
X299013077Y-108574389D01*
X299022279Y-108590777D01*
X299030649Y-108607792D01*
X299038178Y-108625423D01*
X299044856Y-108643656D01*
X299050674Y-108662480D01*
X299055622Y-108681884D01*
X299059692Y-108701854D01*
X299062874Y-108722380D01*
X299065158Y-108743448D01*
X299066536Y-108765048D01*
X299066997Y-108787166D01*
X299066536Y-108809285D01*
X299065158Y-108830884D01*
X299062874Y-108851952D01*
X299059692Y-108872478D01*
X299055622Y-108892448D01*
X299050674Y-108911851D01*
X299044856Y-108930676D01*
X299038178Y-108948909D01*
X299030649Y-108966539D01*
X299022279Y-108983555D01*
X299013077Y-108999943D01*
X299003052Y-109015692D01*
X298992214Y-109030790D01*
X298980572Y-109045224D01*
X298968135Y-109058984D01*
X298954913Y-109072056D01*
X298940915Y-109084430D01*
X298926150Y-109096092D01*
X298910628Y-109107030D01*
X298894359Y-109117234D01*
X298877351Y-109126690D01*
X298859613Y-109135387D01*
X298841156Y-109143313D01*
X298821989Y-109150456D01*
X298802120Y-109156803D01*
X298781559Y-109162343D01*
X298760316Y-109167064D01*
X298738400Y-109170953D01*
X298715821Y-109173999D01*
X298692586Y-109176189D01*
X298668707Y-109177512D01*
X298644192Y-109177956D01*
X298351035Y-109177956D01*
X298331560Y-109178440D01*
X298313323Y-109179891D01*
X298296324Y-109182311D01*
X298280568Y-109185699D01*
X298266057Y-109190056D01*
X298259269Y-109192598D01*
X298252794Y-109195383D01*
X298246631Y-109198410D01*
X298240781Y-109201679D01*
X298235244Y-109205191D01*
X298230020Y-109208945D01*
X298225111Y-109212942D01*
X298220516Y-109217182D01*
X298216236Y-109221665D01*
X298212270Y-109226390D01*
X298208620Y-109231358D01*
X298205285Y-109236569D01*
X298202267Y-109242022D01*
X298199564Y-109247719D01*
X298197179Y-109253659D01*
X298195110Y-109259842D01*
X298193359Y-109266267D01*
X298191925Y-109272936D01*
X298190809Y-109279849D01*
X298190012Y-109287004D01*
X298189533Y-109294403D01*
X298189374Y-109302045D01*
X298189533Y-109309664D01*
X298190012Y-109317043D01*
X298190809Y-109324181D01*
X298191925Y-109331078D01*
X298193359Y-109337735D01*
X298195110Y-109344151D01*
X298197179Y-109350326D01*
X298199564Y-109356260D01*
X298202267Y-109361953D01*
X298205285Y-109367405D01*
X298208620Y-109372616D01*
X298212270Y-109377585D01*
X298216236Y-109382313D01*
X298220516Y-109386799D01*
X298225111Y-109391044D01*
X298230020Y-109395047D01*
X298235244Y-109398808D01*
X298240781Y-109402327D01*
X298246631Y-109405604D01*
X298252794Y-109408639D01*
X298259269Y-109411431D01*
X298266057Y-109413982D01*
X298273157Y-109416290D01*
X298280568Y-109418355D01*
X298288291Y-109420178D01*
X298296324Y-109421758D01*
X298304668Y-109423095D01*
X298313323Y-109424190D01*
X298322287Y-109425041D01*
X298331560Y-109425649D01*
X298341143Y-109426014D01*
X298351035Y-109426136D01*
X299040538Y-109426136D01*
X299040538Y-109700509D01*
X298356590Y-109700509D01*
X298330353Y-109700065D01*
X298304827Y-109698740D01*
X298280022Y-109696545D01*
X298255944Y-109693491D01*
X298232601Y-109689588D01*
X298210002Y-109684847D01*
X298188155Y-109679278D01*
X298167067Y-109672893D01*
X298146746Y-109665701D01*
X298127201Y-109657714D01*
X298108439Y-109648942D01*
X298090468Y-109639396D01*
X298073296Y-109629086D01*
X298056932Y-109618024D01*
X298041382Y-109606219D01*
X298026656Y-109593683D01*
X298012760Y-109580426D01*
X297999704Y-109566458D01*
X297987494Y-109551791D01*
X297976139Y-109536436D01*
X297965647Y-109520401D01*
X297956025Y-109503700D01*
X297947282Y-109486341D01*
X297939426Y-109468336D01*
X297932464Y-109449696D01*
X297926405Y-109430430D01*
X297921256Y-109410551D01*
X297917025Y-109390067D01*
X297913721Y-109368991D01*
X297911351Y-109347332D01*
X297909923Y-109325102D01*
X297909445Y-109302311D01*
X297909923Y-109279471D01*
X297911351Y-109257195D01*
X297913721Y-109235494D01*
X297917026Y-109214378D01*
X297921256Y-109193858D01*
X297926405Y-109173944D01*
X297932465Y-109154647D01*
X297939426Y-109135977D01*
X297947283Y-109117946D01*
X297956026Y-109100562D01*
X297965647Y-109083838D01*
X297976140Y-109067784D01*
X297987495Y-109052409D01*
X297999704Y-109037726D01*
X298012761Y-109023744D01*
X298026656Y-109010473D01*
X298041383Y-108997925D01*
X298056932Y-108986111D01*
X298073297Y-108975039D01*
X298090468Y-108964722D01*
X298108439Y-108955170D01*
X298127201Y-108946392D01*
X298146746Y-108938401D01*
X298167067Y-108931206D01*
X298188155Y-108924818D01*
X298210002Y-108919247D01*
X298232601Y-108914504D01*
X298255944Y-108910600D01*
X298280022Y-108907546D01*
X298304828Y-108905350D01*
X298330353Y-108904026D01*
X298356590Y-108903582D01*
X298649750Y-108903582D01*
X298666483Y-108903120D01*
X298682154Y-108901737D01*
X298696760Y-108899436D01*
X298703662Y-108897942D01*
X298710298Y-108896219D01*
X298716666Y-108894268D01*
X298722767Y-108892089D01*
X298728599Y-108889682D01*
X298734163Y-108887048D01*
X298739459Y-108884187D01*
X298744485Y-108881099D01*
X298749243Y-108877786D01*
X298753731Y-108874246D01*
X298757949Y-108870481D01*
X298761898Y-108866490D01*
X298765576Y-108862275D01*
X298768983Y-108857835D01*
X298772119Y-108853171D01*
X298774985Y-108848283D01*
X298777578Y-108843172D01*
X298779900Y-108837837D01*
X298781950Y-108832279D01*
X298783728Y-108826499D01*
X298785233Y-108820497D01*
X298786464Y-108814273D01*
X298787423Y-108807827D01*
X298788108Y-108801160D01*
X298788519Y-108794273D01*
X298788657Y-108787165D01*
X298788519Y-108780051D01*
X298788108Y-108773148D01*
X298787423Y-108766457D01*
X298786464Y-108759977D01*
X298785233Y-108753711D01*
X298783728Y-108747659D01*
X298781950Y-108741823D01*
X298779900Y-108736203D01*
X298777578Y-108730801D01*
X298774985Y-108725617D01*
X298772119Y-108720652D01*
X298768983Y-108715908D01*
X298765576Y-108711386D01*
X298761898Y-108707086D01*
X298757949Y-108703009D01*
X298753731Y-108699157D01*
X298749243Y-108695531D01*
X298744485Y-108692131D01*
X298739459Y-108688959D01*
X298734163Y-108686015D01*
X298728599Y-108683301D01*
X298722767Y-108680818D01*
X298716666Y-108678567D01*
X298710298Y-108676548D01*
X298703662Y-108674762D01*
X298696760Y-108673212D01*
X298689590Y-108671897D01*
X298682154Y-108670819D01*
X298674451Y-108669979D01*
X298666483Y-108669378D01*
X298658249Y-108669016D01*
X298649750Y-108668895D01*
X297967653Y-108668895D01*
X297967653Y-108396375D01*
X298644192Y-108396375D01*
X298668707Y-108396819D01*
G36*
X312720291Y-98319058D02*
G01*
X312947347Y-98324963D01*
X313174267Y-98335644D01*
X313401012Y-98352154D01*
X313627547Y-98375547D01*
X313999850Y-98416821D01*
X314185690Y-98439096D01*
X314278349Y-98451815D01*
X314370762Y-98466034D01*
X314450590Y-98479892D01*
X314530161Y-98495291D01*
X314609515Y-98511962D01*
X314688692Y-98529633D01*
X315004440Y-98604940D01*
X315194288Y-98653449D01*
X315288097Y-98680216D01*
X315381070Y-98708847D01*
X315473135Y-98739485D01*
X315564224Y-98772270D01*
X315654265Y-98807345D01*
X315743189Y-98844852D01*
X315830925Y-98884932D01*
X315917404Y-98927727D01*
X316002555Y-98973380D01*
X316086308Y-99022031D01*
X316168593Y-99073824D01*
X316249339Y-99128899D01*
X316328478Y-99187399D01*
X316405937Y-99249465D01*
X316449521Y-99287080D01*
X316491123Y-99325546D01*
X316530741Y-99364838D01*
X316568373Y-99404931D01*
X316604017Y-99445803D01*
X316637671Y-99487428D01*
X316669333Y-99529783D01*
X316699000Y-99572844D01*
X316726671Y-99616585D01*
X316752344Y-99660984D01*
X316776016Y-99706016D01*
X316797685Y-99751658D01*
X316817350Y-99797883D01*
X316835008Y-99844670D01*
X316850657Y-99891993D01*
X316864295Y-99939829D01*
X316875920Y-99988153D01*
X316885529Y-100036941D01*
X316893122Y-100086170D01*
X316898695Y-100135814D01*
X316902247Y-100185850D01*
X316903776Y-100236254D01*
X316903278Y-100287002D01*
X316900754Y-100338068D01*
X316896199Y-100389431D01*
X316889613Y-100441064D01*
X316880992Y-100492945D01*
X316870336Y-100545048D01*
X316857642Y-100597350D01*
X316842908Y-100649827D01*
X316826131Y-100702455D01*
X316807310Y-100755209D01*
X316782196Y-100819355D01*
X316755383Y-100882603D01*
X316726892Y-100944942D01*
X316696743Y-101006360D01*
X316664955Y-101066847D01*
X316631549Y-101126391D01*
X316596543Y-101184980D01*
X316559958Y-101242604D01*
X316521813Y-101299252D01*
X316482128Y-101354911D01*
X316440924Y-101409572D01*
X316398219Y-101463222D01*
X316354033Y-101515850D01*
X316308387Y-101567446D01*
X316261300Y-101617997D01*
X316212791Y-101667493D01*
X316134563Y-101744640D01*
X316055720Y-101821170D01*
X315896614Y-101972789D01*
X315575674Y-102273124D01*
X315568752Y-102279345D01*
X315561593Y-102285323D01*
X315554221Y-102291084D01*
X315546661Y-102296652D01*
X315538937Y-102302050D01*
X315531073Y-102307304D01*
X315515019Y-102317475D01*
X315482285Y-102337158D01*
X315465989Y-102347060D01*
X315449998Y-102357262D01*
X315451974Y-102349099D01*
X315454224Y-102341269D01*
X315456737Y-102333759D01*
X315459502Y-102326554D01*
X315462507Y-102319640D01*
X315465741Y-102313004D01*
X315469193Y-102306631D01*
X315472851Y-102300508D01*
X315476705Y-102294621D01*
X315480743Y-102288956D01*
X315484953Y-102283498D01*
X315489326Y-102278234D01*
X315493848Y-102273150D01*
X315498510Y-102268231D01*
X315503300Y-102263465D01*
X315508206Y-102258837D01*
X315605915Y-102167938D01*
X315701910Y-102075510D01*
X315796063Y-101981389D01*
X315888247Y-101885411D01*
X315978335Y-101787411D01*
X316066200Y-101687225D01*
X316151715Y-101584690D01*
X316234752Y-101479639D01*
X316299809Y-101392021D01*
X316331015Y-101347588D01*
X316361309Y-101302719D01*
X316390669Y-101257400D01*
X316419071Y-101211613D01*
X316446492Y-101165346D01*
X316472910Y-101118582D01*
X316498301Y-101071306D01*
X316522644Y-101023504D01*
X316545914Y-100975160D01*
X316568090Y-100926259D01*
X316589147Y-100876786D01*
X316609064Y-100826726D01*
X316627818Y-100776063D01*
X316645385Y-100724783D01*
X316663948Y-100664755D01*
X316672357Y-100634515D01*
X316680132Y-100604125D01*
X316687233Y-100573582D01*
X316693620Y-100542887D01*
X316699252Y-100512039D01*
X316704090Y-100481036D01*
X316708094Y-100449878D01*
X316711224Y-100418564D01*
X316713440Y-100387094D01*
X316714702Y-100355466D01*
X316714970Y-100323680D01*
X316714205Y-100291736D01*
X316712367Y-100259631D01*
X316709414Y-100227366D01*
X316699047Y-100153932D01*
X316684322Y-100083574D01*
X316665394Y-100016179D01*
X316642421Y-99951638D01*
X316615558Y-99889837D01*
X316584962Y-99830665D01*
X316550788Y-99774011D01*
X316513193Y-99719763D01*
X316472333Y-99667810D01*
X316428364Y-99618039D01*
X316381443Y-99570340D01*
X316331726Y-99524600D01*
X316279368Y-99480708D01*
X316224527Y-99438552D01*
X316167358Y-99398022D01*
X316108017Y-99359004D01*
X316054467Y-99326106D01*
X316000202Y-99294842D01*
X315945260Y-99265152D01*
X315889678Y-99236977D01*
X315833490Y-99210258D01*
X315776735Y-99184936D01*
X315719447Y-99160950D01*
X315661665Y-99138242D01*
X315603423Y-99116753D01*
X315544759Y-99096423D01*
X315426309Y-99059004D01*
X315306607Y-99025509D01*
X315185944Y-98995466D01*
X314993936Y-98952935D01*
X314801112Y-98915715D01*
X314607500Y-98883934D01*
X314413129Y-98857718D01*
X314218027Y-98837194D01*
X314022220Y-98822491D01*
X313825738Y-98813734D01*
X313628607Y-98811052D01*
X313079431Y-98808010D01*
X312804955Y-98809490D01*
X312667842Y-98812781D01*
X312530851Y-98818461D01*
X312381840Y-98827073D01*
X312232872Y-98837506D01*
X311935142Y-98863076D01*
X311637808Y-98893656D01*
X311341020Y-98927733D01*
X311048015Y-98964862D01*
X310755530Y-99006083D01*
X310463492Y-99050330D01*
X310171826Y-99096537D01*
X309987527Y-99128259D01*
X309803725Y-99163378D01*
X309620418Y-99201127D01*
X309437607Y-99240736D01*
X308740926Y-99395815D01*
X308393243Y-99476070D01*
X308046428Y-99559823D01*
X307795190Y-99624733D01*
X307545043Y-99693934D01*
X307295889Y-99766657D01*
X307047627Y-99842134D01*
X306717394Y-99945086D01*
X306387756Y-100050196D01*
X306059111Y-100158431D01*
X305731854Y-100270759D01*
X305416248Y-100383976D01*
X305102080Y-100501211D01*
X304789400Y-100622217D01*
X304478258Y-100746744D01*
X304158079Y-100878123D01*
X303839091Y-101012552D01*
X303522186Y-101151594D01*
X303364794Y-101223334D01*
X303208258Y-101296813D01*
X302667215Y-101559826D01*
X302398862Y-101695562D01*
X302132496Y-101835043D01*
X301868524Y-101978964D01*
X301607352Y-102128019D01*
X301349386Y-102282904D01*
X301095032Y-102444312D01*
X300720547Y-102688522D01*
X300534879Y-102812811D01*
X300442949Y-102876195D01*
X300351816Y-102940671D01*
X300207879Y-103046659D01*
X300066748Y-103156008D01*
X299928376Y-103268632D01*
X299792718Y-103384442D01*
X299659726Y-103503354D01*
X299529354Y-103625279D01*
X299401556Y-103750132D01*
X299276285Y-103877825D01*
X299177225Y-103983246D01*
X299128927Y-104036806D01*
X299081647Y-104091058D01*
X299035530Y-104146096D01*
X298990726Y-104202014D01*
X298947379Y-104258906D01*
X298905637Y-104316867D01*
X298865646Y-104375991D01*
X298827555Y-104436371D01*
X298791509Y-104498103D01*
X298757655Y-104561280D01*
X298726141Y-104625996D01*
X298697113Y-104692346D01*
X298670719Y-104760424D01*
X298647104Y-104830324D01*
X298637961Y-104861824D01*
X298630351Y-104893087D01*
X298624389Y-104924062D01*
X298620187Y-104954699D01*
X298617860Y-104984947D01*
X298617520Y-105014755D01*
X298619282Y-105044072D01*
X298623259Y-105072848D01*
X298629564Y-105101031D01*
X298638312Y-105128572D01*
X298643637Y-105142086D01*
X298649615Y-105155419D01*
X298656260Y-105168567D01*
X298663587Y-105181522D01*
X298671610Y-105194278D01*
X298680343Y-105206829D01*
X298689799Y-105219168D01*
X298699994Y-105231290D01*
X298710941Y-105243187D01*
X298722656Y-105254854D01*
X298735151Y-105266284D01*
X298748441Y-105277471D01*
X298787762Y-105308588D01*
X298827918Y-105338936D01*
X298868874Y-105368367D01*
X298910596Y-105396731D01*
X298953050Y-105423880D01*
X298996202Y-105449665D01*
X299040017Y-105473936D01*
X299062163Y-105485458D01*
X299084462Y-105496546D01*
X299131921Y-105518733D01*
X299179825Y-105539518D01*
X299228148Y-105558989D01*
X299276863Y-105577240D01*
X299325944Y-105594360D01*
X299375365Y-105610442D01*
X299475119Y-105639851D01*
X299575914Y-105666198D01*
X299677541Y-105690209D01*
X299882445Y-105734142D01*
X300044287Y-105764736D01*
X300206529Y-105789832D01*
X300369126Y-105810011D01*
X300532029Y-105825853D01*
X300695193Y-105837936D01*
X300858570Y-105846841D01*
X301022116Y-105853148D01*
X301185782Y-105857436D01*
X301319078Y-105859168D01*
X301452453Y-105858842D01*
X301719347Y-105853402D01*
X302253111Y-105833095D01*
X302328603Y-105829626D01*
X302404064Y-105825236D01*
X302554869Y-105814078D01*
X302705475Y-105800391D01*
X302855833Y-105784942D01*
X302882351Y-105782389D01*
X302906349Y-105780772D01*
X302927984Y-105780218D01*
X302947416Y-105780857D01*
X302956356Y-105781663D01*
X302964804Y-105782816D01*
X302972780Y-105784331D01*
X302980305Y-105786225D01*
X302987398Y-105788513D01*
X302994078Y-105791212D01*
X303000366Y-105794337D01*
X303006282Y-105797905D01*
X303011845Y-105801933D01*
X303017075Y-105806435D01*
X303021993Y-105811428D01*
X303026616Y-105816928D01*
X303030967Y-105822952D01*
X303035064Y-105829515D01*
X303038927Y-105836633D01*
X303042576Y-105844323D01*
X303046031Y-105852600D01*
X303049311Y-105861481D01*
X303055429Y-105881119D01*
X303061086Y-105903364D01*
X303066443Y-105928345D01*
X303327850Y-107229566D01*
X303347417Y-107331045D01*
X303366116Y-107433592D01*
X303403786Y-107644962D01*
X303210322Y-107656401D01*
X303022092Y-107668609D01*
X302929405Y-107673753D01*
X302837384Y-107677592D01*
X302745816Y-107679626D01*
X302654486Y-107679357D01*
X302297861Y-107671333D01*
X301941235Y-107659612D01*
X301584709Y-107644271D01*
X301228381Y-107625382D01*
X300991253Y-107609371D01*
X300754347Y-107588572D01*
X300636079Y-107576308D01*
X300517987Y-107562763D01*
X300400112Y-107547910D01*
X300282495Y-107531720D01*
X300106079Y-107504399D01*
X299930525Y-107472892D01*
X299755951Y-107436982D01*
X299582474Y-107396452D01*
X299410213Y-107351086D01*
X299239285Y-107300665D01*
X299069808Y-107244973D01*
X298901900Y-107183793D01*
X298728825Y-107114620D01*
X298559099Y-107039889D01*
X298475701Y-107000080D01*
X298393392Y-106958453D01*
X298312254Y-106914864D01*
X298232372Y-106869171D01*
X298153830Y-106821229D01*
X298076710Y-106770896D01*
X298001098Y-106718030D01*
X297927076Y-106662486D01*
X297854729Y-106604122D01*
X297784139Y-106542796D01*
X297715391Y-106478363D01*
X297648569Y-106410682D01*
X297546206Y-106295349D01*
X297454396Y-106175994D01*
X297373102Y-106052953D01*
X297302286Y-105926566D01*
X297241910Y-105797167D01*
X297191935Y-105665095D01*
X297152324Y-105530688D01*
X297123039Y-105394281D01*
X297104042Y-105256212D01*
X297095294Y-105116818D01*
X297096758Y-104976437D01*
X297108396Y-104835406D01*
X297130169Y-104694061D01*
X297162041Y-104552741D01*
X297203972Y-104411782D01*
X297255925Y-104271521D01*
X297289349Y-104192736D01*
X297324893Y-104115309D01*
X297362499Y-104039206D01*
X297402111Y-103964398D01*
X297443672Y-103890851D01*
X297487125Y-103818535D01*
X297532412Y-103747417D01*
X297579477Y-103677466D01*
X297628263Y-103608649D01*
X297678713Y-103540935D01*
X297730769Y-103474293D01*
X297784376Y-103408690D01*
X297839475Y-103344095D01*
X297896011Y-103280476D01*
X297953926Y-103217801D01*
X298013162Y-103156038D01*
X298123942Y-103044681D01*
X298236615Y-102935599D01*
X298351193Y-102828737D01*
X298467684Y-102724040D01*
X298586097Y-102621450D01*
X298706441Y-102520914D01*
X298828727Y-102422374D01*
X298952963Y-102325776D01*
X299091700Y-102221852D01*
X299232198Y-102120707D01*
X299374332Y-102022166D01*
X299517980Y-101926057D01*
X299663017Y-101832204D01*
X299809319Y-101740435D01*
X299956763Y-101650576D01*
X300105223Y-101562453D01*
X300247113Y-101480314D01*
X300389993Y-101399652D01*
X300533834Y-101320552D01*
X300678608Y-101243101D01*
X300824287Y-101167387D01*
X300970844Y-101093496D01*
X301118251Y-101021515D01*
X301266479Y-100951530D01*
X301708962Y-100749422D01*
X302154024Y-100552671D01*
X302601467Y-100361278D01*
X303051094Y-100175243D01*
X303203465Y-100114855D01*
X303356853Y-100056867D01*
X303511085Y-100000900D01*
X303665986Y-99946577D01*
X303977102Y-99841347D01*
X304288814Y-99738151D01*
X304587086Y-99640359D01*
X304886276Y-99545171D01*
X305186508Y-99453406D01*
X305487906Y-99365883D01*
X305807672Y-99278905D01*
X306128727Y-99196318D01*
X306771928Y-99035682D01*
X306911302Y-99000654D01*
X307050898Y-98966395D01*
X307190842Y-98933772D01*
X307260983Y-98918347D01*
X307331258Y-98903656D01*
X307553698Y-98859363D01*
X307776485Y-98816608D01*
X307999571Y-98775440D01*
X308222903Y-98735910D01*
X308940453Y-98614168D01*
X309658797Y-98496991D01*
X309722776Y-98487160D01*
X309786905Y-98478073D01*
X309915509Y-98461934D01*
X310044411Y-98448175D01*
X310173412Y-98436401D01*
X310392379Y-98419001D01*
X310611496Y-98403163D01*
X311049976Y-98372902D01*
X311430612Y-98341846D01*
X311525795Y-98334710D01*
X311620993Y-98328736D01*
X311716209Y-98324381D01*
X311811447Y-98322101D01*
X312265919Y-98317354D01*
X312493136Y-98316873D01*
X312720291Y-98319058D01*
G37*
X312720291Y-98319058D02*
X312947347Y-98324963D01*
X313174267Y-98335644D01*
X313401012Y-98352154D01*
X313627547Y-98375547D01*
X313999850Y-98416821D01*
X314185690Y-98439096D01*
X314278349Y-98451815D01*
X314370762Y-98466034D01*
X314450590Y-98479892D01*
X314530161Y-98495291D01*
X314609515Y-98511962D01*
X314688692Y-98529633D01*
X315004440Y-98604940D01*
X315194288Y-98653449D01*
X315288097Y-98680216D01*
X315381070Y-98708847D01*
X315473135Y-98739485D01*
X315564224Y-98772270D01*
X315654265Y-98807345D01*
X315743189Y-98844852D01*
X315830925Y-98884932D01*
X315917404Y-98927727D01*
X316002555Y-98973380D01*
X316086308Y-99022031D01*
X316168593Y-99073824D01*
X316249339Y-99128899D01*
X316328478Y-99187399D01*
X316405937Y-99249465D01*
X316449521Y-99287080D01*
X316491123Y-99325546D01*
X316530741Y-99364838D01*
X316568373Y-99404931D01*
X316604017Y-99445803D01*
X316637671Y-99487428D01*
X316669333Y-99529783D01*
X316699000Y-99572844D01*
X316726671Y-99616585D01*
X316752344Y-99660984D01*
X316776016Y-99706016D01*
X316797685Y-99751658D01*
X316817350Y-99797883D01*
X316835008Y-99844670D01*
X316850657Y-99891993D01*
X316864295Y-99939829D01*
X316875920Y-99988153D01*
X316885529Y-100036941D01*
X316893122Y-100086170D01*
X316898695Y-100135814D01*
X316902247Y-100185850D01*
X316903776Y-100236254D01*
X316903278Y-100287002D01*
X316900754Y-100338068D01*
X316896199Y-100389431D01*
X316889613Y-100441064D01*
X316880992Y-100492945D01*
X316870336Y-100545048D01*
X316857642Y-100597350D01*
X316842908Y-100649827D01*
X316826131Y-100702455D01*
X316807310Y-100755209D01*
X316782196Y-100819355D01*
X316755383Y-100882603D01*
X316726892Y-100944942D01*
X316696743Y-101006360D01*
X316664955Y-101066847D01*
X316631549Y-101126391D01*
X316596543Y-101184980D01*
X316559958Y-101242604D01*
X316521813Y-101299252D01*
X316482128Y-101354911D01*
X316440924Y-101409572D01*
X316398219Y-101463222D01*
X316354033Y-101515850D01*
X316308387Y-101567446D01*
X316261300Y-101617997D01*
X316212791Y-101667493D01*
X316134563Y-101744640D01*
X316055720Y-101821170D01*
X315896614Y-101972789D01*
X315575674Y-102273124D01*
X315568752Y-102279345D01*
X315561593Y-102285323D01*
X315554221Y-102291084D01*
X315546661Y-102296652D01*
X315538937Y-102302050D01*
X315531073Y-102307304D01*
X315515019Y-102317475D01*
X315482285Y-102337158D01*
X315465989Y-102347060D01*
X315449998Y-102357262D01*
X315451974Y-102349099D01*
X315454224Y-102341269D01*
X315456737Y-102333759D01*
X315459502Y-102326554D01*
X315462507Y-102319640D01*
X315465741Y-102313004D01*
X315469193Y-102306631D01*
X315472851Y-102300508D01*
X315476705Y-102294621D01*
X315480743Y-102288956D01*
X315484953Y-102283498D01*
X315489326Y-102278234D01*
X315493848Y-102273150D01*
X315498510Y-102268231D01*
X315503300Y-102263465D01*
X315508206Y-102258837D01*
X315605915Y-102167938D01*
X315701910Y-102075510D01*
X315796063Y-101981389D01*
X315888247Y-101885411D01*
X315978335Y-101787411D01*
X316066200Y-101687225D01*
X316151715Y-101584690D01*
X316234752Y-101479639D01*
X316299809Y-101392021D01*
X316331015Y-101347588D01*
X316361309Y-101302719D01*
X316390669Y-101257400D01*
X316419071Y-101211613D01*
X316446492Y-101165346D01*
X316472910Y-101118582D01*
X316498301Y-101071306D01*
X316522644Y-101023504D01*
X316545914Y-100975160D01*
X316568090Y-100926259D01*
X316589147Y-100876786D01*
X316609064Y-100826726D01*
X316627818Y-100776063D01*
X316645385Y-100724783D01*
X316663948Y-100664755D01*
X316672357Y-100634515D01*
X316680132Y-100604125D01*
X316687233Y-100573582D01*
X316693620Y-100542887D01*
X316699252Y-100512039D01*
X316704090Y-100481036D01*
X316708094Y-100449878D01*
X316711224Y-100418564D01*
X316713440Y-100387094D01*
X316714702Y-100355466D01*
X316714970Y-100323680D01*
X316714205Y-100291736D01*
X316712367Y-100259631D01*
X316709414Y-100227366D01*
X316699047Y-100153932D01*
X316684322Y-100083574D01*
X316665394Y-100016179D01*
X316642421Y-99951638D01*
X316615558Y-99889837D01*
X316584962Y-99830665D01*
X316550788Y-99774011D01*
X316513193Y-99719763D01*
X316472333Y-99667810D01*
X316428364Y-99618039D01*
X316381443Y-99570340D01*
X316331726Y-99524600D01*
X316279368Y-99480708D01*
X316224527Y-99438552D01*
X316167358Y-99398022D01*
X316108017Y-99359004D01*
X316054467Y-99326106D01*
X316000202Y-99294842D01*
X315945260Y-99265152D01*
X315889678Y-99236977D01*
X315833490Y-99210258D01*
X315776735Y-99184936D01*
X315719447Y-99160950D01*
X315661665Y-99138242D01*
X315603423Y-99116753D01*
X315544759Y-99096423D01*
X315426309Y-99059004D01*
X315306607Y-99025509D01*
X315185944Y-98995466D01*
X314993936Y-98952935D01*
X314801112Y-98915715D01*
X314607500Y-98883934D01*
X314413129Y-98857718D01*
X314218027Y-98837194D01*
X314022220Y-98822491D01*
X313825738Y-98813734D01*
X313628607Y-98811052D01*
X313079431Y-98808010D01*
X312804955Y-98809490D01*
X312667842Y-98812781D01*
X312530851Y-98818461D01*
X312381840Y-98827073D01*
X312232872Y-98837506D01*
X311935142Y-98863076D01*
X311637808Y-98893656D01*
X311341020Y-98927733D01*
X311048015Y-98964862D01*
X310755530Y-99006083D01*
X310463492Y-99050330D01*
X310171826Y-99096537D01*
X309987527Y-99128259D01*
X309803725Y-99163378D01*
X309620418Y-99201127D01*
X309437607Y-99240736D01*
X308740926Y-99395815D01*
X308393243Y-99476070D01*
X308046428Y-99559823D01*
X307795190Y-99624733D01*
X307545043Y-99693934D01*
X307295889Y-99766657D01*
X307047627Y-99842134D01*
X306717394Y-99945086D01*
X306387756Y-100050196D01*
X306059111Y-100158431D01*
X305731854Y-100270759D01*
X305416248Y-100383976D01*
X305102080Y-100501211D01*
X304789400Y-100622217D01*
X304478258Y-100746744D01*
X304158079Y-100878123D01*
X303839091Y-101012552D01*
X303522186Y-101151594D01*
X303364794Y-101223334D01*
X303208258Y-101296813D01*
X302667215Y-101559826D01*
X302398862Y-101695562D01*
X302132496Y-101835043D01*
X301868524Y-101978964D01*
X301607352Y-102128019D01*
X301349386Y-102282904D01*
X301095032Y-102444312D01*
X300720547Y-102688522D01*
X300534879Y-102812811D01*
X300442949Y-102876195D01*
X300351816Y-102940671D01*
X300207879Y-103046659D01*
X300066748Y-103156008D01*
X299928376Y-103268632D01*
X299792718Y-103384442D01*
X299659726Y-103503354D01*
X299529354Y-103625279D01*
X299401556Y-103750132D01*
X299276285Y-103877825D01*
X299177225Y-103983246D01*
X299128927Y-104036806D01*
X299081647Y-104091058D01*
X299035530Y-104146096D01*
X298990726Y-104202014D01*
X298947379Y-104258906D01*
X298905637Y-104316867D01*
X298865646Y-104375991D01*
X298827555Y-104436371D01*
X298791509Y-104498103D01*
X298757655Y-104561280D01*
X298726141Y-104625996D01*
X298697113Y-104692346D01*
X298670719Y-104760424D01*
X298647104Y-104830324D01*
X298637961Y-104861824D01*
X298630351Y-104893087D01*
X298624389Y-104924062D01*
X298620187Y-104954699D01*
X298617860Y-104984947D01*
X298617520Y-105014755D01*
X298619282Y-105044072D01*
X298623259Y-105072848D01*
X298629564Y-105101031D01*
X298638312Y-105128572D01*
X298643637Y-105142086D01*
X298649615Y-105155419D01*
X298656260Y-105168567D01*
X298663587Y-105181522D01*
X298671610Y-105194278D01*
X298680343Y-105206829D01*
X298689799Y-105219168D01*
X298699994Y-105231290D01*
X298710941Y-105243187D01*
X298722656Y-105254854D01*
X298735151Y-105266284D01*
X298748441Y-105277471D01*
X298787762Y-105308588D01*
X298827918Y-105338936D01*
X298868874Y-105368367D01*
X298910596Y-105396731D01*
X298953050Y-105423880D01*
X298996202Y-105449665D01*
X299040017Y-105473936D01*
X299062163Y-105485458D01*
X299084462Y-105496546D01*
X299131921Y-105518733D01*
X299179825Y-105539518D01*
X299228148Y-105558989D01*
X299276863Y-105577240D01*
X299325944Y-105594360D01*
X299375365Y-105610442D01*
X299475119Y-105639851D01*
X299575914Y-105666198D01*
X299677541Y-105690209D01*
X299882445Y-105734142D01*
X300044287Y-105764736D01*
X300206529Y-105789832D01*
X300369126Y-105810011D01*
X300532029Y-105825853D01*
X300695193Y-105837936D01*
X300858570Y-105846841D01*
X301022116Y-105853148D01*
X301185782Y-105857436D01*
X301319078Y-105859168D01*
X301452453Y-105858842D01*
X301719347Y-105853402D01*
X302253111Y-105833095D01*
X302328603Y-105829626D01*
X302404064Y-105825236D01*
X302554869Y-105814078D01*
X302705475Y-105800391D01*
X302855833Y-105784942D01*
X302882351Y-105782389D01*
X302906349Y-105780772D01*
X302927984Y-105780218D01*
X302947416Y-105780857D01*
X302956356Y-105781663D01*
X302964804Y-105782816D01*
X302972780Y-105784331D01*
X302980305Y-105786225D01*
X302987398Y-105788513D01*
X302994078Y-105791212D01*
X303000366Y-105794337D01*
X303006282Y-105797905D01*
X303011845Y-105801933D01*
X303017075Y-105806435D01*
X303021993Y-105811428D01*
X303026616Y-105816928D01*
X303030967Y-105822952D01*
X303035064Y-105829515D01*
X303038927Y-105836633D01*
X303042576Y-105844323D01*
X303046031Y-105852600D01*
X303049311Y-105861481D01*
X303055429Y-105881119D01*
X303061086Y-105903364D01*
X303066443Y-105928345D01*
X303327850Y-107229566D01*
X303347417Y-107331045D01*
X303366116Y-107433592D01*
X303403786Y-107644962D01*
X303210322Y-107656401D01*
X303022092Y-107668609D01*
X302929405Y-107673753D01*
X302837384Y-107677592D01*
X302745816Y-107679626D01*
X302654486Y-107679357D01*
X302297861Y-107671333D01*
X301941235Y-107659612D01*
X301584709Y-107644271D01*
X301228381Y-107625382D01*
X300991253Y-107609371D01*
X300754347Y-107588572D01*
X300636079Y-107576308D01*
X300517987Y-107562763D01*
X300400112Y-107547910D01*
X300282495Y-107531720D01*
X300106079Y-107504399D01*
X299930525Y-107472892D01*
X299755951Y-107436982D01*
X299582474Y-107396452D01*
X299410213Y-107351086D01*
X299239285Y-107300665D01*
X299069808Y-107244973D01*
X298901900Y-107183793D01*
X298728825Y-107114620D01*
X298559099Y-107039889D01*
X298475701Y-107000080D01*
X298393392Y-106958453D01*
X298312254Y-106914864D01*
X298232372Y-106869171D01*
X298153830Y-106821229D01*
X298076710Y-106770896D01*
X298001098Y-106718030D01*
X297927076Y-106662486D01*
X297854729Y-106604122D01*
X297784139Y-106542796D01*
X297715391Y-106478363D01*
X297648569Y-106410682D01*
X297546206Y-106295349D01*
X297454396Y-106175994D01*
X297373102Y-106052953D01*
X297302286Y-105926566D01*
X297241910Y-105797167D01*
X297191935Y-105665095D01*
X297152324Y-105530688D01*
X297123039Y-105394281D01*
X297104042Y-105256212D01*
X297095294Y-105116818D01*
X297096758Y-104976437D01*
X297108396Y-104835406D01*
X297130169Y-104694061D01*
X297162041Y-104552741D01*
X297203972Y-104411782D01*
X297255925Y-104271521D01*
X297289349Y-104192736D01*
X297324893Y-104115309D01*
X297362499Y-104039206D01*
X297402111Y-103964398D01*
X297443672Y-103890851D01*
X297487125Y-103818535D01*
X297532412Y-103747417D01*
X297579477Y-103677466D01*
X297628263Y-103608649D01*
X297678713Y-103540935D01*
X297730769Y-103474293D01*
X297784376Y-103408690D01*
X297839475Y-103344095D01*
X297896011Y-103280476D01*
X297953926Y-103217801D01*
X298013162Y-103156038D01*
X298123942Y-103044681D01*
X298236615Y-102935599D01*
X298351193Y-102828737D01*
X298467684Y-102724040D01*
X298586097Y-102621450D01*
X298706441Y-102520914D01*
X298828727Y-102422374D01*
X298952963Y-102325776D01*
X299091700Y-102221852D01*
X299232198Y-102120707D01*
X299374332Y-102022166D01*
X299517980Y-101926057D01*
X299663017Y-101832204D01*
X299809319Y-101740435D01*
X299956763Y-101650576D01*
X300105223Y-101562453D01*
X300247113Y-101480314D01*
X300389993Y-101399652D01*
X300533834Y-101320552D01*
X300678608Y-101243101D01*
X300824287Y-101167387D01*
X300970844Y-101093496D01*
X301118251Y-101021515D01*
X301266479Y-100951530D01*
X301708962Y-100749422D01*
X302154024Y-100552671D01*
X302601467Y-100361278D01*
X303051094Y-100175243D01*
X303203465Y-100114855D01*
X303356853Y-100056867D01*
X303511085Y-100000900D01*
X303665986Y-99946577D01*
X303977102Y-99841347D01*
X304288814Y-99738151D01*
X304587086Y-99640359D01*
X304886276Y-99545171D01*
X305186508Y-99453406D01*
X305487906Y-99365883D01*
X305807672Y-99278905D01*
X306128727Y-99196318D01*
X306771928Y-99035682D01*
X306911302Y-99000654D01*
X307050898Y-98966395D01*
X307190842Y-98933772D01*
X307260983Y-98918347D01*
X307331258Y-98903656D01*
X307553698Y-98859363D01*
X307776485Y-98816608D01*
X307999571Y-98775440D01*
X308222903Y-98735910D01*
X308940453Y-98614168D01*
X309658797Y-98496991D01*
X309722776Y-98487160D01*
X309786905Y-98478073D01*
X309915509Y-98461934D01*
X310044411Y-98448175D01*
X310173412Y-98436401D01*
X310392379Y-98419001D01*
X310611496Y-98403163D01*
X311049976Y-98372902D01*
X311430612Y-98341846D01*
X311525795Y-98334710D01*
X311620993Y-98328736D01*
X311716209Y-98324381D01*
X311811447Y-98322101D01*
X312265919Y-98317354D01*
X312493136Y-98316873D01*
X312720291Y-98319058D01*
G36*
X312059426Y-102760107D02*
G01*
X312130166Y-102763745D01*
X312199350Y-102769807D01*
X312266977Y-102778296D01*
X312333047Y-102789211D01*
X312397561Y-102802553D01*
X312460518Y-102818321D01*
X312521919Y-102836517D01*
X312581764Y-102857140D01*
X312640052Y-102880192D01*
X312696783Y-102905673D01*
X312751958Y-102933582D01*
X312805577Y-102963921D01*
X312857639Y-102996689D01*
X312908144Y-103031887D01*
X312957093Y-103069516D01*
X313004113Y-103109312D01*
X313048932Y-103151013D01*
X313091550Y-103194617D01*
X313131966Y-103240127D01*
X313170181Y-103287542D01*
X313206194Y-103336863D01*
X313240006Y-103388090D01*
X313271616Y-103441223D01*
X313301025Y-103496263D01*
X313328233Y-103553210D01*
X313353239Y-103612065D01*
X313376044Y-103672829D01*
X313396647Y-103735500D01*
X313415049Y-103800080D01*
X313431250Y-103866570D01*
X313445249Y-103934969D01*
X314126286Y-107603681D01*
X313113727Y-107603681D01*
X312454385Y-104051914D01*
X312450769Y-104033844D01*
X312446769Y-104016345D01*
X312442384Y-103999417D01*
X312437612Y-103983060D01*
X312432455Y-103967276D01*
X312426912Y-103952064D01*
X312420981Y-103937425D01*
X312414664Y-103923360D01*
X312407959Y-103909868D01*
X312400866Y-103896950D01*
X312393384Y-103884606D01*
X312385514Y-103872837D01*
X312377255Y-103861643D01*
X312368606Y-103851025D01*
X312359568Y-103840982D01*
X312350139Y-103831516D01*
X312340319Y-103822624D01*
X312330108Y-103814302D01*
X312319506Y-103806552D01*
X312308512Y-103799373D01*
X312297126Y-103792767D01*
X312285347Y-103786733D01*
X312273175Y-103781271D01*
X312260610Y-103776383D01*
X312247651Y-103772069D01*
X312234298Y-103768328D01*
X312220550Y-103765162D01*
X312206408Y-103762571D01*
X312191870Y-103760555D01*
X312176936Y-103759114D01*
X312161606Y-103758249D01*
X312145880Y-103757961D01*
X312131940Y-103758215D01*
X312118496Y-103758978D01*
X312105549Y-103760249D01*
X312093100Y-103762029D01*
X312081148Y-103764317D01*
X312069694Y-103767114D01*
X312058739Y-103770419D01*
X312048282Y-103774233D01*
X312038324Y-103778555D01*
X312028866Y-103783386D01*
X312019909Y-103788725D01*
X312011451Y-103794573D01*
X312003494Y-103800929D01*
X311996038Y-103807794D01*
X311989084Y-103815167D01*
X311982632Y-103823049D01*
X311976545Y-103831702D01*
X311970688Y-103841391D01*
X311965061Y-103852113D01*
X311959663Y-103863869D01*
X311954494Y-103876657D01*
X311949555Y-103890477D01*
X311944845Y-103905328D01*
X311940365Y-103921209D01*
X311936114Y-103938120D01*
X311932092Y-103956059D01*
X311928300Y-103975026D01*
X311924738Y-103995019D01*
X311921404Y-104016040D01*
X311918301Y-104038085D01*
X311915426Y-104061156D01*
X311912781Y-104085250D01*
X311668835Y-106604613D01*
X311660746Y-106678392D01*
X311651163Y-106749410D01*
X311640085Y-106817666D01*
X311627515Y-106883162D01*
X311613452Y-106945894D01*
X311597896Y-107005863D01*
X311580848Y-107063068D01*
X311562308Y-107117508D01*
X311542276Y-107169182D01*
X311520754Y-107218090D01*
X311497741Y-107264231D01*
X311473238Y-107307603D01*
X311447246Y-107348207D01*
X311419763Y-107386041D01*
X311390792Y-107421104D01*
X311360332Y-107453397D01*
X311328027Y-107483336D01*
X311293520Y-107511341D01*
X311256812Y-107537412D01*
X311217903Y-107561549D01*
X311176792Y-107583754D01*
X311133480Y-107604025D01*
X311087967Y-107622364D01*
X311040252Y-107638771D01*
X310990336Y-107653246D01*
X310938218Y-107665790D01*
X310883899Y-107676404D01*
X310827378Y-107685086D01*
X310768656Y-107691839D01*
X310707733Y-107696662D01*
X310644608Y-107699555D01*
X310579282Y-107700519D01*
X310506982Y-107699291D01*
X310436233Y-107695608D01*
X310367036Y-107689470D01*
X310299390Y-107680878D01*
X310233295Y-107669831D01*
X310168753Y-107656331D01*
X310105764Y-107640377D01*
X310044327Y-107621971D01*
X309984444Y-107601111D01*
X309926115Y-107577800D01*
X309869340Y-107552037D01*
X309814119Y-107523822D01*
X309760454Y-107493157D01*
X309708344Y-107460041D01*
X309657789Y-107424474D01*
X309608791Y-107386458D01*
X309561671Y-107346262D01*
X309516753Y-107304157D01*
X309474038Y-107260142D01*
X309433525Y-107214219D01*
X309395215Y-107166387D01*
X309359108Y-107116647D01*
X309325205Y-107064999D01*
X309293506Y-107011445D01*
X309264012Y-106955983D01*
X309236723Y-106898615D01*
X309211638Y-106839340D01*
X309188760Y-106778160D01*
X309168088Y-106715075D01*
X309149622Y-106650085D01*
X309133363Y-106583190D01*
X309119311Y-106514391D01*
X308439860Y-102855733D01*
X309452420Y-102855733D01*
X310110706Y-106400621D01*
X310114330Y-106418751D01*
X310118358Y-106436328D01*
X310122790Y-106453354D01*
X310127627Y-106469827D01*
X310132867Y-106485749D01*
X310138513Y-106501118D01*
X310144565Y-106515936D01*
X310151022Y-106530202D01*
X310157885Y-106543916D01*
X310165155Y-106557078D01*
X310172832Y-106569688D01*
X310180916Y-106581746D01*
X310189408Y-106593253D01*
X310198307Y-106604207D01*
X310207616Y-106614610D01*
X310217333Y-106624460D01*
X310227429Y-106633784D01*
X310237871Y-106642506D01*
X310248661Y-106650626D01*
X310259798Y-106658145D01*
X310271283Y-106665062D01*
X310283115Y-106671378D01*
X310295294Y-106677092D01*
X310307820Y-106682205D01*
X310320694Y-106686716D01*
X310333915Y-106690626D01*
X310347483Y-106693934D01*
X310361398Y-106696641D01*
X310375661Y-106698746D01*
X310390271Y-106700250D01*
X310405228Y-106701152D01*
X310420533Y-106701453D01*
X310434473Y-106701199D01*
X310447917Y-106700436D01*
X310460863Y-106699165D01*
X310473313Y-106697385D01*
X310485265Y-106695097D01*
X310496719Y-106692300D01*
X310507674Y-106688995D01*
X310518131Y-106685181D01*
X310528088Y-106680859D01*
X310537546Y-106676028D01*
X310546504Y-106670689D01*
X310554962Y-106664841D01*
X310562919Y-106658485D01*
X310570374Y-106651620D01*
X310577328Y-106644247D01*
X310583781Y-106636365D01*
X310589867Y-106627699D01*
X310595723Y-106617973D01*
X310601348Y-106607187D01*
X310606742Y-106595343D01*
X310611903Y-106582439D01*
X310616830Y-106568477D01*
X310621524Y-106553456D01*
X310625982Y-106537378D01*
X310630205Y-106520243D01*
X310634191Y-106502051D01*
X310637941Y-106482802D01*
X310641452Y-106462498D01*
X310644724Y-106441137D01*
X310647757Y-106418721D01*
X310650550Y-106395250D01*
X310653101Y-106370725D01*
X310897576Y-103854801D01*
X310905666Y-103781023D01*
X310915249Y-103710005D01*
X310926326Y-103641748D01*
X310938897Y-103576252D01*
X310952960Y-103513520D01*
X310968516Y-103453551D01*
X310985564Y-103396346D01*
X311004104Y-103341906D01*
X311024135Y-103290232D01*
X311045658Y-103241324D01*
X311068671Y-103195184D01*
X311093174Y-103151811D01*
X311119167Y-103111207D01*
X311146649Y-103073373D01*
X311175620Y-103038310D01*
X311206081Y-103006017D01*
X311238386Y-102976078D01*
X311272892Y-102948073D01*
X311309600Y-102922002D01*
X311348509Y-102897865D01*
X311389620Y-102875660D01*
X311432932Y-102855389D01*
X311478445Y-102837050D01*
X311526160Y-102820643D01*
X311576077Y-102806168D01*
X311628194Y-102793624D01*
X311682513Y-102783010D01*
X311739034Y-102774328D01*
X311797756Y-102767575D01*
X311858679Y-102762753D01*
X311921804Y-102759859D01*
X311987130Y-102758895D01*
X312059426Y-102760107D01*
G37*
X312059426Y-102760107D02*
X312130166Y-102763745D01*
X312199350Y-102769807D01*
X312266977Y-102778296D01*
X312333047Y-102789211D01*
X312397561Y-102802553D01*
X312460518Y-102818321D01*
X312521919Y-102836517D01*
X312581764Y-102857140D01*
X312640052Y-102880192D01*
X312696783Y-102905673D01*
X312751958Y-102933582D01*
X312805577Y-102963921D01*
X312857639Y-102996689D01*
X312908144Y-103031887D01*
X312957093Y-103069516D01*
X313004113Y-103109312D01*
X313048932Y-103151013D01*
X313091550Y-103194617D01*
X313131966Y-103240127D01*
X313170181Y-103287542D01*
X313206194Y-103336863D01*
X313240006Y-103388090D01*
X313271616Y-103441223D01*
X313301025Y-103496263D01*
X313328233Y-103553210D01*
X313353239Y-103612065D01*
X313376044Y-103672829D01*
X313396647Y-103735500D01*
X313415049Y-103800080D01*
X313431250Y-103866570D01*
X313445249Y-103934969D01*
X314126286Y-107603681D01*
X313113727Y-107603681D01*
X312454385Y-104051914D01*
X312450769Y-104033844D01*
X312446769Y-104016345D01*
X312442384Y-103999417D01*
X312437612Y-103983060D01*
X312432455Y-103967276D01*
X312426912Y-103952064D01*
X312420981Y-103937425D01*
X312414664Y-103923360D01*
X312407959Y-103909868D01*
X312400866Y-103896950D01*
X312393384Y-103884606D01*
X312385514Y-103872837D01*
X312377255Y-103861643D01*
X312368606Y-103851025D01*
X312359568Y-103840982D01*
X312350139Y-103831516D01*
X312340319Y-103822624D01*
X312330108Y-103814302D01*
X312319506Y-103806552D01*
X312308512Y-103799373D01*
X312297126Y-103792767D01*
X312285347Y-103786733D01*
X312273175Y-103781271D01*
X312260610Y-103776383D01*
X312247651Y-103772069D01*
X312234298Y-103768328D01*
X312220550Y-103765162D01*
X312206408Y-103762571D01*
X312191870Y-103760555D01*
X312176936Y-103759114D01*
X312161606Y-103758249D01*
X312145880Y-103757961D01*
X312131940Y-103758215D01*
X312118496Y-103758978D01*
X312105549Y-103760249D01*
X312093100Y-103762029D01*
X312081148Y-103764317D01*
X312069694Y-103767114D01*
X312058739Y-103770419D01*
X312048282Y-103774233D01*
X312038324Y-103778555D01*
X312028866Y-103783386D01*
X312019909Y-103788725D01*
X312011451Y-103794573D01*
X312003494Y-103800929D01*
X311996038Y-103807794D01*
X311989084Y-103815167D01*
X311982632Y-103823049D01*
X311976545Y-103831702D01*
X311970688Y-103841391D01*
X311965061Y-103852113D01*
X311959663Y-103863869D01*
X311954494Y-103876657D01*
X311949555Y-103890477D01*
X311944845Y-103905328D01*
X311940365Y-103921209D01*
X311936114Y-103938120D01*
X311932092Y-103956059D01*
X311928300Y-103975026D01*
X311924738Y-103995019D01*
X311921404Y-104016040D01*
X311918301Y-104038085D01*
X311915426Y-104061156D01*
X311912781Y-104085250D01*
X311668835Y-106604613D01*
X311660746Y-106678392D01*
X311651163Y-106749410D01*
X311640085Y-106817666D01*
X311627515Y-106883162D01*
X311613452Y-106945894D01*
X311597896Y-107005863D01*
X311580848Y-107063068D01*
X311562308Y-107117508D01*
X311542276Y-107169182D01*
X311520754Y-107218090D01*
X311497741Y-107264231D01*
X311473238Y-107307603D01*
X311447246Y-107348207D01*
X311419763Y-107386041D01*
X311390792Y-107421104D01*
X311360332Y-107453397D01*
X311328027Y-107483336D01*
X311293520Y-107511341D01*
X311256812Y-107537412D01*
X311217903Y-107561549D01*
X311176792Y-107583754D01*
X311133480Y-107604025D01*
X311087967Y-107622364D01*
X311040252Y-107638771D01*
X310990336Y-107653246D01*
X310938218Y-107665790D01*
X310883899Y-107676404D01*
X310827378Y-107685086D01*
X310768656Y-107691839D01*
X310707733Y-107696662D01*
X310644608Y-107699555D01*
X310579282Y-107700519D01*
X310506982Y-107699291D01*
X310436233Y-107695608D01*
X310367036Y-107689470D01*
X310299390Y-107680878D01*
X310233295Y-107669831D01*
X310168753Y-107656331D01*
X310105764Y-107640377D01*
X310044327Y-107621971D01*
X309984444Y-107601111D01*
X309926115Y-107577800D01*
X309869340Y-107552037D01*
X309814119Y-107523822D01*
X309760454Y-107493157D01*
X309708344Y-107460041D01*
X309657789Y-107424474D01*
X309608791Y-107386458D01*
X309561671Y-107346262D01*
X309516753Y-107304157D01*
X309474038Y-107260142D01*
X309433525Y-107214219D01*
X309395215Y-107166387D01*
X309359108Y-107116647D01*
X309325205Y-107064999D01*
X309293506Y-107011445D01*
X309264012Y-106955983D01*
X309236723Y-106898615D01*
X309211638Y-106839340D01*
X309188760Y-106778160D01*
X309168088Y-106715075D01*
X309149622Y-106650085D01*
X309133363Y-106583190D01*
X309119311Y-106514391D01*
X308439860Y-102855733D01*
X309452420Y-102855733D01*
X310110706Y-106400621D01*
X310114330Y-106418751D01*
X310118358Y-106436328D01*
X310122790Y-106453354D01*
X310127627Y-106469827D01*
X310132867Y-106485749D01*
X310138513Y-106501118D01*
X310144565Y-106515936D01*
X310151022Y-106530202D01*
X310157885Y-106543916D01*
X310165155Y-106557078D01*
X310172832Y-106569688D01*
X310180916Y-106581746D01*
X310189408Y-106593253D01*
X310198307Y-106604207D01*
X310207616Y-106614610D01*
X310217333Y-106624460D01*
X310227429Y-106633784D01*
X310237871Y-106642506D01*
X310248661Y-106650626D01*
X310259798Y-106658145D01*
X310271283Y-106665062D01*
X310283115Y-106671378D01*
X310295294Y-106677092D01*
X310307820Y-106682205D01*
X310320694Y-106686716D01*
X310333915Y-106690626D01*
X310347483Y-106693934D01*
X310361398Y-106696641D01*
X310375661Y-106698746D01*
X310390271Y-106700250D01*
X310405228Y-106701152D01*
X310420533Y-106701453D01*
X310434473Y-106701199D01*
X310447917Y-106700436D01*
X310460863Y-106699165D01*
X310473313Y-106697385D01*
X310485265Y-106695097D01*
X310496719Y-106692300D01*
X310507674Y-106688995D01*
X310518131Y-106685181D01*
X310528088Y-106680859D01*
X310537546Y-106676028D01*
X310546504Y-106670689D01*
X310554962Y-106664841D01*
X310562919Y-106658485D01*
X310570374Y-106651620D01*
X310577328Y-106644247D01*
X310583781Y-106636365D01*
X310589867Y-106627699D01*
X310595723Y-106617973D01*
X310601348Y-106607187D01*
X310606742Y-106595343D01*
X310611903Y-106582439D01*
X310616830Y-106568477D01*
X310621524Y-106553456D01*
X310625982Y-106537378D01*
X310630205Y-106520243D01*
X310634191Y-106502051D01*
X310637941Y-106482802D01*
X310641452Y-106462498D01*
X310644724Y-106441137D01*
X310647757Y-106418721D01*
X310650550Y-106395250D01*
X310653101Y-106370725D01*
X310897576Y-103854801D01*
X310905666Y-103781023D01*
X310915249Y-103710005D01*
X310926326Y-103641748D01*
X310938897Y-103576252D01*
X310952960Y-103513520D01*
X310968516Y-103453551D01*
X310985564Y-103396346D01*
X311004104Y-103341906D01*
X311024135Y-103290232D01*
X311045658Y-103241324D01*
X311068671Y-103195184D01*
X311093174Y-103151811D01*
X311119167Y-103111207D01*
X311146649Y-103073373D01*
X311175620Y-103038310D01*
X311206081Y-103006017D01*
X311238386Y-102976078D01*
X311272892Y-102948073D01*
X311309600Y-102922002D01*
X311348509Y-102897865D01*
X311389620Y-102875660D01*
X311432932Y-102855389D01*
X311478445Y-102837050D01*
X311526160Y-102820643D01*
X311576077Y-102806168D01*
X311628194Y-102793624D01*
X311682513Y-102783010D01*
X311739034Y-102774328D01*
X311797756Y-102767575D01*
X311858679Y-102762753D01*
X311921804Y-102759859D01*
X311987130Y-102758895D01*
X312059426Y-102760107D01*
G36*
X315140765Y-101803405D02*
G01*
X315148570Y-101804744D01*
X315156276Y-101806182D01*
X315163982Y-101807720D01*
X315166582Y-101819020D01*
X315169348Y-101830305D01*
X315174962Y-101852865D01*
X315177599Y-101864159D01*
X315179981Y-101875475D01*
X315182003Y-101886822D01*
X315182847Y-101892510D01*
X315183561Y-101898209D01*
X315213128Y-102148703D01*
X315227093Y-102274074D01*
X315239918Y-102399595D01*
X315241650Y-102413861D01*
X315244081Y-102427302D01*
X315247226Y-102439938D01*
X315251100Y-102451788D01*
X315253316Y-102457424D01*
X315255721Y-102462870D01*
X315258315Y-102468130D01*
X315261102Y-102473204D01*
X315264084Y-102478096D01*
X315267262Y-102482809D01*
X315270638Y-102487343D01*
X315274214Y-102491703D01*
X315277993Y-102495889D01*
X315281976Y-102499905D01*
X315286165Y-102503753D01*
X315290563Y-102507435D01*
X315295171Y-102510954D01*
X315299991Y-102514312D01*
X315305025Y-102517511D01*
X315310276Y-102520554D01*
X315321434Y-102526180D01*
X315333480Y-102531211D01*
X315346431Y-102535663D01*
X315360303Y-102539557D01*
X315461518Y-102565901D01*
X315562411Y-102593732D01*
X315763528Y-102651476D01*
X315767623Y-102652759D01*
X315771694Y-102654226D01*
X315775774Y-102655875D01*
X315779894Y-102657702D01*
X315784088Y-102659707D01*
X315788386Y-102661885D01*
X315797427Y-102666757D01*
X315818185Y-102678489D01*
X315830416Y-102685313D01*
X315844225Y-102692751D01*
X314544063Y-103168471D01*
X314523425Y-103142278D01*
X315132761Y-101802164D01*
X315140765Y-101803405D01*
G37*
X315140765Y-101803405D02*
X315148570Y-101804744D01*
X315156276Y-101806182D01*
X315163982Y-101807720D01*
X315166582Y-101819020D01*
X315169348Y-101830305D01*
X315174962Y-101852865D01*
X315177599Y-101864159D01*
X315179981Y-101875475D01*
X315182003Y-101886822D01*
X315182847Y-101892510D01*
X315183561Y-101898209D01*
X315213128Y-102148703D01*
X315227093Y-102274074D01*
X315239918Y-102399595D01*
X315241650Y-102413861D01*
X315244081Y-102427302D01*
X315247226Y-102439938D01*
X315251100Y-102451788D01*
X315253316Y-102457424D01*
X315255721Y-102462870D01*
X315258315Y-102468130D01*
X315261102Y-102473204D01*
X315264084Y-102478096D01*
X315267262Y-102482809D01*
X315270638Y-102487343D01*
X315274214Y-102491703D01*
X315277993Y-102495889D01*
X315281976Y-102499905D01*
X315286165Y-102503753D01*
X315290563Y-102507435D01*
X315295171Y-102510954D01*
X315299991Y-102514312D01*
X315305025Y-102517511D01*
X315310276Y-102520554D01*
X315321434Y-102526180D01*
X315333480Y-102531211D01*
X315346431Y-102535663D01*
X315360303Y-102539557D01*
X315461518Y-102565901D01*
X315562411Y-102593732D01*
X315763528Y-102651476D01*
X315767623Y-102652759D01*
X315771694Y-102654226D01*
X315775774Y-102655875D01*
X315779894Y-102657702D01*
X315784088Y-102659707D01*
X315788386Y-102661885D01*
X315797427Y-102666757D01*
X315818185Y-102678489D01*
X315830416Y-102685313D01*
X315844225Y-102692751D01*
X314544063Y-103168471D01*
X314523425Y-103142278D01*
X315132761Y-101802164D01*
X315140765Y-101803405D01*
G36*
X308225813Y-108668631D02*
G01*
X307829204Y-108668631D01*
X307829204Y-109700242D01*
X307551126Y-109700242D01*
X307551126Y-108668631D01*
X307156633Y-108668631D01*
X307156633Y-108396111D01*
X308225813Y-108396111D01*
X308225813Y-108668631D01*
G37*
X308225813Y-108668631D02*
X307829204Y-108668631D01*
X307829204Y-109700242D01*
X307551126Y-109700242D01*
X307551126Y-108668631D01*
X307156633Y-108668631D01*
X307156633Y-108396111D01*
X308225813Y-108396111D01*
X308225813Y-108668631D01*
G36*
X308213115Y-103847922D02*
G01*
X306769812Y-103847922D01*
X307467253Y-107603684D01*
X306454694Y-107603684D01*
X305757251Y-103847922D01*
X304320564Y-103847922D01*
X304136414Y-102855471D01*
X308028964Y-102855471D01*
X308213115Y-103847922D01*
G37*
X308213115Y-103847922D02*
X306769812Y-103847922D01*
X307467253Y-107603684D01*
X306454694Y-107603684D01*
X305757251Y-103847922D01*
X304320564Y-103847922D01*
X304136414Y-102855471D01*
X308028964Y-102855471D01*
X308213115Y-103847922D01*
G36*
X302902993Y-108370263D02*
G01*
X302922135Y-108371296D01*
X302940767Y-108373010D01*
X302958880Y-108375400D01*
X302976468Y-108378459D01*
X302993521Y-108382182D01*
X303010031Y-108386563D01*
X303025992Y-108391597D01*
X303041394Y-108397277D01*
X303056230Y-108403598D01*
X303070493Y-108410553D01*
X303084173Y-108418138D01*
X303097263Y-108426346D01*
X303109756Y-108435171D01*
X303121643Y-108444608D01*
X303132916Y-108454650D01*
X303143567Y-108465293D01*
X303153589Y-108476529D01*
X303162974Y-108488354D01*
X303171712Y-108500762D01*
X303179798Y-108513746D01*
X303187222Y-108527301D01*
X303193976Y-108541422D01*
X303200054Y-108556101D01*
X303205446Y-108571334D01*
X303210145Y-108587115D01*
X303214142Y-108603437D01*
X303217431Y-108620296D01*
X303220003Y-108637685D01*
X303221850Y-108655598D01*
X303222964Y-108674029D01*
X303223337Y-108692974D01*
X303223337Y-109699978D01*
X302945259Y-109699978D01*
X302945259Y-108724724D01*
X302944975Y-108714836D01*
X302944125Y-108705608D01*
X302943489Y-108701241D01*
X302942715Y-108697038D01*
X302941801Y-108692998D01*
X302940749Y-108689121D01*
X302939559Y-108685407D01*
X302938233Y-108681856D01*
X302936770Y-108678467D01*
X302935172Y-108675239D01*
X302933438Y-108672172D01*
X302931570Y-108669267D01*
X302929568Y-108666521D01*
X302927433Y-108663936D01*
X302925166Y-108661511D01*
X302922766Y-108659245D01*
X302920235Y-108657137D01*
X302917574Y-108655189D01*
X302914783Y-108653398D01*
X302911862Y-108651765D01*
X302908812Y-108650290D01*
X302905634Y-108648971D01*
X302902329Y-108647809D01*
X302898897Y-108646803D01*
X302895338Y-108645953D01*
X302891654Y-108645259D01*
X302887845Y-108644719D01*
X302883912Y-108644334D01*
X302875674Y-108644027D01*
X302871184Y-108644115D01*
X302866888Y-108644380D01*
X302862778Y-108644822D01*
X302858848Y-108645440D01*
X302855091Y-108646235D01*
X302851502Y-108647206D01*
X302848072Y-108648354D01*
X302844796Y-108649678D01*
X302841667Y-108651179D01*
X302838679Y-108652855D01*
X302835823Y-108654708D01*
X302833095Y-108656738D01*
X302830487Y-108658943D01*
X302827993Y-108661325D01*
X302825606Y-108663882D01*
X302823320Y-108666616D01*
X302821127Y-108669525D01*
X302819021Y-108672611D01*
X302816996Y-108675872D01*
X302815045Y-108679309D01*
X302813161Y-108682922D01*
X302811337Y-108686710D01*
X302807846Y-108694814D01*
X302804517Y-108703621D01*
X302801298Y-108713129D01*
X302798136Y-108723338D01*
X302794977Y-108734249D01*
X302599449Y-109425605D01*
X302588139Y-109463034D01*
X302575955Y-109497848D01*
X302562774Y-109530076D01*
X302548471Y-109559745D01*
X302532923Y-109586882D01*
X302524644Y-109599510D01*
X302516007Y-109611515D01*
X302506997Y-109622901D01*
X302497599Y-109633671D01*
X302487797Y-109643830D01*
X302477575Y-109653379D01*
X302466919Y-109662323D01*
X302455812Y-109670664D01*
X302444239Y-109678408D01*
X302432185Y-109685556D01*
X302419635Y-109692113D01*
X302406572Y-109698081D01*
X302392982Y-109703465D01*
X302378849Y-109708267D01*
X302364157Y-109712492D01*
X302348891Y-109716142D01*
X302333036Y-109719221D01*
X302316576Y-109721733D01*
X302299496Y-109723680D01*
X302281780Y-109725067D01*
X302244379Y-109726172D01*
X302224734Y-109725821D01*
X302205592Y-109724773D01*
X302186960Y-109723034D01*
X302168846Y-109720610D01*
X302151259Y-109717509D01*
X302134206Y-109713735D01*
X302117696Y-109709297D01*
X302101735Y-109704200D01*
X302086333Y-109698450D01*
X302071496Y-109692055D01*
X302057234Y-109685020D01*
X302043554Y-109677352D01*
X302030463Y-109669058D01*
X302017971Y-109660144D01*
X302006084Y-109650616D01*
X301994811Y-109640481D01*
X301984159Y-109629745D01*
X301974137Y-109618415D01*
X301964753Y-109606497D01*
X301956014Y-109593997D01*
X301947929Y-109580923D01*
X301940505Y-109567280D01*
X301933750Y-109553075D01*
X301927673Y-109538314D01*
X301922281Y-109523005D01*
X301917582Y-109507152D01*
X301913584Y-109490763D01*
X301910295Y-109473845D01*
X301907724Y-109456402D01*
X301905877Y-109438443D01*
X301904763Y-109419974D01*
X301904390Y-109401000D01*
X301904390Y-108395847D01*
X302182466Y-108395847D01*
X302182466Y-109369512D01*
X302182751Y-109379421D01*
X302183600Y-109388708D01*
X302185011Y-109397370D01*
X302185925Y-109401465D01*
X302186977Y-109405404D01*
X302188166Y-109409186D01*
X302189493Y-109412810D01*
X302190955Y-109416276D01*
X302192554Y-109419583D01*
X302194288Y-109422733D01*
X302196156Y-109425723D01*
X302198158Y-109428554D01*
X302200293Y-109431226D01*
X302202560Y-109433738D01*
X302204960Y-109436090D01*
X302207491Y-109438282D01*
X302210152Y-109440314D01*
X302212944Y-109442184D01*
X302215865Y-109443894D01*
X302218914Y-109445442D01*
X302222092Y-109446828D01*
X302225398Y-109448052D01*
X302228830Y-109449114D01*
X302232388Y-109450014D01*
X302236072Y-109450750D01*
X302239881Y-109451324D01*
X302243815Y-109451734D01*
X302247872Y-109451980D01*
X302252052Y-109452062D01*
X302256543Y-109451974D01*
X302260842Y-109451709D01*
X302264955Y-109451267D01*
X302268889Y-109450649D01*
X302272651Y-109449854D01*
X302276247Y-109448883D01*
X302279683Y-109447735D01*
X302282967Y-109446411D01*
X302286104Y-109444910D01*
X302289101Y-109443233D01*
X302291964Y-109441380D01*
X302294700Y-109439351D01*
X302297316Y-109437146D01*
X302299818Y-109434764D01*
X302302212Y-109432207D01*
X302304506Y-109429473D01*
X302306704Y-109426564D01*
X302308815Y-109423479D01*
X302310844Y-109420217D01*
X302312798Y-109416780D01*
X302314683Y-109413167D01*
X302316506Y-109409379D01*
X302319992Y-109401275D01*
X302323307Y-109392469D01*
X302326504Y-109382960D01*
X302329634Y-109372751D01*
X302332750Y-109361840D01*
X302528278Y-108670484D01*
X302539587Y-108633055D01*
X302551771Y-108598241D01*
X302564952Y-108566013D01*
X302579255Y-108536345D01*
X302594803Y-108509208D01*
X302603082Y-108496580D01*
X302611719Y-108484575D01*
X302620729Y-108473189D01*
X302630127Y-108462418D01*
X302639929Y-108452260D01*
X302650151Y-108442711D01*
X302660808Y-108433767D01*
X302671915Y-108425425D01*
X302683487Y-108417682D01*
X302695541Y-108410534D01*
X302708092Y-108403977D01*
X302721154Y-108398009D01*
X302734745Y-108392625D01*
X302748878Y-108387823D01*
X302763570Y-108383598D01*
X302778835Y-108379948D01*
X302794691Y-108376869D01*
X302811151Y-108374357D01*
X302828231Y-108372410D01*
X302845947Y-108371023D01*
X302883348Y-108369918D01*
X302902993Y-108370263D01*
G37*
X302902993Y-108370263D02*
X302922135Y-108371296D01*
X302940767Y-108373010D01*
X302958880Y-108375400D01*
X302976468Y-108378459D01*
X302993521Y-108382182D01*
X303010031Y-108386563D01*
X303025992Y-108391597D01*
X303041394Y-108397277D01*
X303056230Y-108403598D01*
X303070493Y-108410553D01*
X303084173Y-108418138D01*
X303097263Y-108426346D01*
X303109756Y-108435171D01*
X303121643Y-108444608D01*
X303132916Y-108454650D01*
X303143567Y-108465293D01*
X303153589Y-108476529D01*
X303162974Y-108488354D01*
X303171712Y-108500762D01*
X303179798Y-108513746D01*
X303187222Y-108527301D01*
X303193976Y-108541422D01*
X303200054Y-108556101D01*
X303205446Y-108571334D01*
X303210145Y-108587115D01*
X303214142Y-108603437D01*
X303217431Y-108620296D01*
X303220003Y-108637685D01*
X303221850Y-108655598D01*
X303222964Y-108674029D01*
X303223337Y-108692974D01*
X303223337Y-109699978D01*
X302945259Y-109699978D01*
X302945259Y-108724724D01*
X302944975Y-108714836D01*
X302944125Y-108705608D01*
X302943489Y-108701241D01*
X302942715Y-108697038D01*
X302941801Y-108692998D01*
X302940749Y-108689121D01*
X302939559Y-108685407D01*
X302938233Y-108681856D01*
X302936770Y-108678467D01*
X302935172Y-108675239D01*
X302933438Y-108672172D01*
X302931570Y-108669267D01*
X302929568Y-108666521D01*
X302927433Y-108663936D01*
X302925166Y-108661511D01*
X302922766Y-108659245D01*
X302920235Y-108657137D01*
X302917574Y-108655189D01*
X302914783Y-108653398D01*
X302911862Y-108651765D01*
X302908812Y-108650290D01*
X302905634Y-108648971D01*
X302902329Y-108647809D01*
X302898897Y-108646803D01*
X302895338Y-108645953D01*
X302891654Y-108645259D01*
X302887845Y-108644719D01*
X302883912Y-108644334D01*
X302875674Y-108644027D01*
X302871184Y-108644115D01*
X302866888Y-108644380D01*
X302862778Y-108644822D01*
X302858848Y-108645440D01*
X302855091Y-108646235D01*
X302851502Y-108647206D01*
X302848072Y-108648354D01*
X302844796Y-108649678D01*
X302841667Y-108651179D01*
X302838679Y-108652855D01*
X302835823Y-108654708D01*
X302833095Y-108656738D01*
X302830487Y-108658943D01*
X302827993Y-108661325D01*
X302825606Y-108663882D01*
X302823320Y-108666616D01*
X302821127Y-108669525D01*
X302819021Y-108672611D01*
X302816996Y-108675872D01*
X302815045Y-108679309D01*
X302813161Y-108682922D01*
X302811337Y-108686710D01*
X302807846Y-108694814D01*
X302804517Y-108703621D01*
X302801298Y-108713129D01*
X302798136Y-108723338D01*
X302794977Y-108734249D01*
X302599449Y-109425605D01*
X302588139Y-109463034D01*
X302575955Y-109497848D01*
X302562774Y-109530076D01*
X302548471Y-109559745D01*
X302532923Y-109586882D01*
X302524644Y-109599510D01*
X302516007Y-109611515D01*
X302506997Y-109622901D01*
X302497599Y-109633671D01*
X302487797Y-109643830D01*
X302477575Y-109653379D01*
X302466919Y-109662323D01*
X302455812Y-109670664D01*
X302444239Y-109678408D01*
X302432185Y-109685556D01*
X302419635Y-109692113D01*
X302406572Y-109698081D01*
X302392982Y-109703465D01*
X302378849Y-109708267D01*
X302364157Y-109712492D01*
X302348891Y-109716142D01*
X302333036Y-109719221D01*
X302316576Y-109721733D01*
X302299496Y-109723680D01*
X302281780Y-109725067D01*
X302244379Y-109726172D01*
X302224734Y-109725821D01*
X302205592Y-109724773D01*
X302186960Y-109723034D01*
X302168846Y-109720610D01*
X302151259Y-109717509D01*
X302134206Y-109713735D01*
X302117696Y-109709297D01*
X302101735Y-109704200D01*
X302086333Y-109698450D01*
X302071496Y-109692055D01*
X302057234Y-109685020D01*
X302043554Y-109677352D01*
X302030463Y-109669058D01*
X302017971Y-109660144D01*
X302006084Y-109650616D01*
X301994811Y-109640481D01*
X301984159Y-109629745D01*
X301974137Y-109618415D01*
X301964753Y-109606497D01*
X301956014Y-109593997D01*
X301947929Y-109580923D01*
X301940505Y-109567280D01*
X301933750Y-109553075D01*
X301927673Y-109538314D01*
X301922281Y-109523005D01*
X301917582Y-109507152D01*
X301913584Y-109490763D01*
X301910295Y-109473845D01*
X301907724Y-109456402D01*
X301905877Y-109438443D01*
X301904763Y-109419974D01*
X301904390Y-109401000D01*
X301904390Y-108395847D01*
X302182466Y-108395847D01*
X302182466Y-109369512D01*
X302182751Y-109379421D01*
X302183600Y-109388708D01*
X302185011Y-109397370D01*
X302185925Y-109401465D01*
X302186977Y-109405404D01*
X302188166Y-109409186D01*
X302189493Y-109412810D01*
X302190955Y-109416276D01*
X302192554Y-109419583D01*
X302194288Y-109422733D01*
X302196156Y-109425723D01*
X302198158Y-109428554D01*
X302200293Y-109431226D01*
X302202560Y-109433738D01*
X302204960Y-109436090D01*
X302207491Y-109438282D01*
X302210152Y-109440314D01*
X302212944Y-109442184D01*
X302215865Y-109443894D01*
X302218914Y-109445442D01*
X302222092Y-109446828D01*
X302225398Y-109448052D01*
X302228830Y-109449114D01*
X302232388Y-109450014D01*
X302236072Y-109450750D01*
X302239881Y-109451324D01*
X302243815Y-109451734D01*
X302247872Y-109451980D01*
X302252052Y-109452062D01*
X302256543Y-109451974D01*
X302260842Y-109451709D01*
X302264955Y-109451267D01*
X302268889Y-109450649D01*
X302272651Y-109449854D01*
X302276247Y-109448883D01*
X302279683Y-109447735D01*
X302282967Y-109446411D01*
X302286104Y-109444910D01*
X302289101Y-109443233D01*
X302291964Y-109441380D01*
X302294700Y-109439351D01*
X302297316Y-109437146D01*
X302299818Y-109434764D01*
X302302212Y-109432207D01*
X302304506Y-109429473D01*
X302306704Y-109426564D01*
X302308815Y-109423479D01*
X302310844Y-109420217D01*
X302312798Y-109416780D01*
X302314683Y-109413167D01*
X302316506Y-109409379D01*
X302319992Y-109401275D01*
X302323307Y-109392469D01*
X302326504Y-109382960D01*
X302329634Y-109372751D01*
X302332750Y-109361840D01*
X302528278Y-108670484D01*
X302539587Y-108633055D01*
X302551771Y-108598241D01*
X302564952Y-108566013D01*
X302579255Y-108536345D01*
X302594803Y-108509208D01*
X302603082Y-108496580D01*
X302611719Y-108484575D01*
X302620729Y-108473189D01*
X302630127Y-108462418D01*
X302639929Y-108452260D01*
X302650151Y-108442711D01*
X302660808Y-108433767D01*
X302671915Y-108425425D01*
X302683487Y-108417682D01*
X302695541Y-108410534D01*
X302708092Y-108403977D01*
X302721154Y-108398009D01*
X302734745Y-108392625D01*
X302748878Y-108387823D01*
X302763570Y-108383598D01*
X302778835Y-108379948D01*
X302794691Y-108376869D01*
X302811151Y-108374357D01*
X302828231Y-108372410D01*
X302845947Y-108371023D01*
X302883348Y-108369918D01*
X302902993Y-108370263D01*
G36*
X312577680Y-109290403D02*
G01*
X312576322Y-109343619D01*
X312572181Y-109392702D01*
X312569038Y-109415724D01*
X312565163Y-109437749D01*
X312560544Y-109458789D01*
X312555170Y-109478856D01*
X312549028Y-109497962D01*
X312542106Y-109516120D01*
X312534392Y-109533341D01*
X312525874Y-109549637D01*
X312516540Y-109565021D01*
X312506378Y-109579505D01*
X312495376Y-109593100D01*
X312483522Y-109605818D01*
X312470803Y-109617673D01*
X312457208Y-109628675D01*
X312442725Y-109638837D01*
X312427341Y-109648170D01*
X312411044Y-109656688D01*
X312393823Y-109664402D01*
X312375666Y-109671324D01*
X312356559Y-109677466D01*
X312336492Y-109682840D01*
X312315452Y-109687459D01*
X312293427Y-109691334D01*
X312270405Y-109694477D01*
X312221321Y-109698617D01*
X312168105Y-109699976D01*
X311724664Y-109699976D01*
X311724664Y-109425603D01*
X312147468Y-109425603D01*
X312168056Y-109425221D01*
X312186898Y-109423932D01*
X312204050Y-109421675D01*
X312212011Y-109420163D01*
X312219571Y-109418385D01*
X312226738Y-109416334D01*
X312233519Y-109414002D01*
X312239920Y-109411380D01*
X312245950Y-109408461D01*
X312251616Y-109405236D01*
X312256924Y-109401699D01*
X312261882Y-109397842D01*
X312266497Y-109393655D01*
X312270777Y-109389133D01*
X312274728Y-109384266D01*
X312278358Y-109379046D01*
X312281674Y-109373467D01*
X312284684Y-109367520D01*
X312287393Y-109361198D01*
X312289811Y-109354492D01*
X312291943Y-109347394D01*
X312293797Y-109339898D01*
X312295381Y-109331994D01*
X312296701Y-109323676D01*
X312297765Y-109314934D01*
X312299153Y-109296152D01*
X312299603Y-109275585D01*
X312299603Y-108396111D01*
X312577680Y-108396111D01*
X312577680Y-109290403D01*
G37*
X312577680Y-109290403D02*
X312576322Y-109343619D01*
X312572181Y-109392702D01*
X312569038Y-109415724D01*
X312565163Y-109437749D01*
X312560544Y-109458789D01*
X312555170Y-109478856D01*
X312549028Y-109497962D01*
X312542106Y-109516120D01*
X312534392Y-109533341D01*
X312525874Y-109549637D01*
X312516540Y-109565021D01*
X312506378Y-109579505D01*
X312495376Y-109593100D01*
X312483522Y-109605818D01*
X312470803Y-109617673D01*
X312457208Y-109628675D01*
X312442725Y-109638837D01*
X312427341Y-109648170D01*
X312411044Y-109656688D01*
X312393823Y-109664402D01*
X312375666Y-109671324D01*
X312356559Y-109677466D01*
X312336492Y-109682840D01*
X312315452Y-109687459D01*
X312293427Y-109691334D01*
X312270405Y-109694477D01*
X312221321Y-109698617D01*
X312168105Y-109699976D01*
X311724664Y-109699976D01*
X311724664Y-109425603D01*
X312147468Y-109425603D01*
X312168056Y-109425221D01*
X312186898Y-109423932D01*
X312204050Y-109421675D01*
X312212011Y-109420163D01*
X312219571Y-109418385D01*
X312226738Y-109416334D01*
X312233519Y-109414002D01*
X312239920Y-109411380D01*
X312245950Y-109408461D01*
X312251616Y-109405236D01*
X312256924Y-109401699D01*
X312261882Y-109397842D01*
X312266497Y-109393655D01*
X312270777Y-109389133D01*
X312274728Y-109384266D01*
X312278358Y-109379046D01*
X312281674Y-109373467D01*
X312284684Y-109367520D01*
X312287393Y-109361198D01*
X312289811Y-109354492D01*
X312291943Y-109347394D01*
X312293797Y-109339898D01*
X312295381Y-109331994D01*
X312296701Y-109323676D01*
X312297765Y-109314934D01*
X312299153Y-109296152D01*
X312299603Y-109275585D01*
X312299603Y-108396111D01*
X312577680Y-108396111D01*
X312577680Y-109290403D01*
G36*
X304578270Y-108644443D02*
G01*
X304587499Y-108644903D01*
X304596431Y-108645669D01*
X304605066Y-108646742D01*
X304613404Y-108648121D01*
X304621443Y-108649806D01*
X304629184Y-108651796D01*
X304636626Y-108654091D01*
X304643769Y-108656692D01*
X304650612Y-108659597D01*
X304657156Y-108662806D01*
X304663399Y-108666320D01*
X304669341Y-108670138D01*
X304674982Y-108674260D01*
X304680321Y-108678686D01*
X304685359Y-108683415D01*
X304690094Y-108688446D01*
X304694527Y-108693781D01*
X304698656Y-108699418D01*
X304702482Y-108705358D01*
X304706005Y-108711600D01*
X304709223Y-108718143D01*
X304712136Y-108724988D01*
X304714744Y-108732135D01*
X304717047Y-108739583D01*
X304719044Y-108747331D01*
X304720735Y-108755381D01*
X304722119Y-108763730D01*
X304723197Y-108772380D01*
X304723967Y-108781330D01*
X304724429Y-108790580D01*
X304724583Y-108800129D01*
X304724583Y-109296222D01*
X304724430Y-109305748D01*
X304723970Y-109314977D01*
X304723203Y-109323910D01*
X304722130Y-109332545D01*
X304720751Y-109340882D01*
X304719067Y-109348922D01*
X304717077Y-109356662D01*
X304714781Y-109364105D01*
X304712181Y-109371247D01*
X304709276Y-109378091D01*
X304706066Y-109384634D01*
X304702552Y-109390877D01*
X304698734Y-109396819D01*
X304694612Y-109402460D01*
X304690187Y-109407800D01*
X304685458Y-109412837D01*
X304680426Y-109417573D01*
X304675091Y-109422005D01*
X304669454Y-109426135D01*
X304663515Y-109429961D01*
X304657273Y-109433483D01*
X304650729Y-109436701D01*
X304643884Y-109439614D01*
X304636737Y-109442223D01*
X304629290Y-109444526D01*
X304621541Y-109446523D01*
X304613492Y-109448214D01*
X304605142Y-109449598D01*
X304596492Y-109450675D01*
X304587542Y-109451445D01*
X304578293Y-109451908D01*
X304568744Y-109452062D01*
X304198592Y-109452062D01*
X304189066Y-109451908D01*
X304179837Y-109451448D01*
X304170904Y-109450682D01*
X304162269Y-109449609D01*
X304153932Y-109448230D01*
X304145892Y-109446545D01*
X304138152Y-109444555D01*
X304130709Y-109442260D01*
X304123566Y-109439659D01*
X304116723Y-109436754D01*
X304110180Y-109433545D01*
X304103937Y-109430031D01*
X304097995Y-109426213D01*
X304092354Y-109422091D01*
X304087014Y-109417665D01*
X304081976Y-109412936D01*
X304077241Y-109407905D01*
X304072809Y-109402570D01*
X304068679Y-109396933D01*
X304064853Y-109390993D01*
X304061331Y-109384751D01*
X304058113Y-109378208D01*
X304055200Y-109371363D01*
X304052591Y-109364216D01*
X304050288Y-109356768D01*
X304048291Y-109349020D01*
X304046600Y-109340970D01*
X304045216Y-109332621D01*
X304044139Y-109323971D01*
X304043369Y-109315021D01*
X304042906Y-109305771D01*
X304042752Y-109296222D01*
X304042752Y-108800129D01*
X304042905Y-108790603D01*
X304043366Y-108781373D01*
X304044132Y-108772441D01*
X304045205Y-108763806D01*
X304046584Y-108755468D01*
X304048269Y-108747429D01*
X304050259Y-108739688D01*
X304052554Y-108732246D01*
X304055154Y-108725103D01*
X304058060Y-108718260D01*
X304061269Y-108711716D01*
X304064783Y-108705473D01*
X304068601Y-108699531D01*
X304072723Y-108693890D01*
X304077149Y-108688551D01*
X304081877Y-108683513D01*
X304086909Y-108678778D01*
X304092244Y-108674345D01*
X304097881Y-108670216D01*
X304103821Y-108666390D01*
X304110063Y-108662867D01*
X304116606Y-108659650D01*
X304123451Y-108656736D01*
X304130598Y-108654128D01*
X304138046Y-108651825D01*
X304145794Y-108649828D01*
X304153844Y-108648137D01*
X304162193Y-108646753D01*
X304170843Y-108645676D01*
X304179793Y-108644906D01*
X304189043Y-108644443D01*
X304198592Y-108644289D01*
X304568744Y-108644289D01*
X304578270Y-108644443D01*
G37*
X304578270Y-108644443D02*
X304587499Y-108644903D01*
X304596431Y-108645669D01*
X304605066Y-108646742D01*
X304613404Y-108648121D01*
X304621443Y-108649806D01*
X304629184Y-108651796D01*
X304636626Y-108654091D01*
X304643769Y-108656692D01*
X304650612Y-108659597D01*
X304657156Y-108662806D01*
X304663399Y-108666320D01*
X304669341Y-108670138D01*
X304674982Y-108674260D01*
X304680321Y-108678686D01*
X304685359Y-108683415D01*
X304690094Y-108688446D01*
X304694527Y-108693781D01*
X304698656Y-108699418D01*
X304702482Y-108705358D01*
X304706005Y-108711600D01*
X304709223Y-108718143D01*
X304712136Y-108724988D01*
X304714744Y-108732135D01*
X304717047Y-108739583D01*
X304719044Y-108747331D01*
X304720735Y-108755381D01*
X304722119Y-108763730D01*
X304723197Y-108772380D01*
X304723967Y-108781330D01*
X304724429Y-108790580D01*
X304724583Y-108800129D01*
X304724583Y-109296222D01*
X304724430Y-109305748D01*
X304723970Y-109314977D01*
X304723203Y-109323910D01*
X304722130Y-109332545D01*
X304720751Y-109340882D01*
X304719067Y-109348922D01*
X304717077Y-109356662D01*
X304714781Y-109364105D01*
X304712181Y-109371247D01*
X304709276Y-109378091D01*
X304706066Y-109384634D01*
X304702552Y-109390877D01*
X304698734Y-109396819D01*
X304694612Y-109402460D01*
X304690187Y-109407800D01*
X304685458Y-109412837D01*
X304680426Y-109417573D01*
X304675091Y-109422005D01*
X304669454Y-109426135D01*
X304663515Y-109429961D01*
X304657273Y-109433483D01*
X304650729Y-109436701D01*
X304643884Y-109439614D01*
X304636737Y-109442223D01*
X304629290Y-109444526D01*
X304621541Y-109446523D01*
X304613492Y-109448214D01*
X304605142Y-109449598D01*
X304596492Y-109450675D01*
X304587542Y-109451445D01*
X304578293Y-109451908D01*
X304568744Y-109452062D01*
X304198592Y-109452062D01*
X304189066Y-109451908D01*
X304179837Y-109451448D01*
X304170904Y-109450682D01*
X304162269Y-109449609D01*
X304153932Y-109448230D01*
X304145892Y-109446545D01*
X304138152Y-109444555D01*
X304130709Y-109442260D01*
X304123566Y-109439659D01*
X304116723Y-109436754D01*
X304110180Y-109433545D01*
X304103937Y-109430031D01*
X304097995Y-109426213D01*
X304092354Y-109422091D01*
X304087014Y-109417665D01*
X304081976Y-109412936D01*
X304077241Y-109407905D01*
X304072809Y-109402570D01*
X304068679Y-109396933D01*
X304064853Y-109390993D01*
X304061331Y-109384751D01*
X304058113Y-109378208D01*
X304055200Y-109371363D01*
X304052591Y-109364216D01*
X304050288Y-109356768D01*
X304048291Y-109349020D01*
X304046600Y-109340970D01*
X304045216Y-109332621D01*
X304044139Y-109323971D01*
X304043369Y-109315021D01*
X304042906Y-109305771D01*
X304042752Y-109296222D01*
X304042752Y-108800129D01*
X304042905Y-108790603D01*
X304043366Y-108781373D01*
X304044132Y-108772441D01*
X304045205Y-108763806D01*
X304046584Y-108755468D01*
X304048269Y-108747429D01*
X304050259Y-108739688D01*
X304052554Y-108732246D01*
X304055154Y-108725103D01*
X304058060Y-108718260D01*
X304061269Y-108711716D01*
X304064783Y-108705473D01*
X304068601Y-108699531D01*
X304072723Y-108693890D01*
X304077149Y-108688551D01*
X304081877Y-108683513D01*
X304086909Y-108678778D01*
X304092244Y-108674345D01*
X304097881Y-108670216D01*
X304103821Y-108666390D01*
X304110063Y-108662867D01*
X304116606Y-108659650D01*
X304123451Y-108656736D01*
X304130598Y-108654128D01*
X304138046Y-108651825D01*
X304145794Y-108649828D01*
X304153844Y-108648137D01*
X304162193Y-108646753D01*
X304170843Y-108645676D01*
X304179793Y-108644906D01*
X304189043Y-108644443D01*
X304198592Y-108644289D01*
X304568744Y-108644289D01*
X304578270Y-108644443D01*
G36*
X303127557Y-102913157D02*
G01*
X303129530Y-102913168D01*
X303131485Y-102913202D01*
X303135363Y-102913322D01*
X303139241Y-102913491D01*
X303143169Y-102913686D01*
X303146302Y-102913847D01*
X303149386Y-102913983D01*
X303150925Y-102914065D01*
X303152470Y-102914169D01*
X303154027Y-102914304D01*
X303155603Y-102914480D01*
X303157588Y-102914591D01*
X303159576Y-102914728D01*
X303161571Y-102914890D01*
X303163574Y-102915076D01*
X303165590Y-102915287D01*
X303167621Y-102915522D01*
X303169671Y-102915783D01*
X303171742Y-102916068D01*
X303184177Y-102917391D01*
X303188303Y-102917990D01*
X303192379Y-102918614D01*
X303196455Y-102919288D01*
X303200581Y-102920035D01*
X303212753Y-102922153D01*
X303216924Y-102922992D01*
X303221120Y-102923906D01*
X303229686Y-102925856D01*
X303231186Y-102926166D01*
X303232705Y-102926498D01*
X303235772Y-102927213D01*
X303238840Y-102927978D01*
X303241858Y-102928768D01*
X303259056Y-102933530D01*
X303262033Y-102934328D01*
X303265010Y-102935150D01*
X303267986Y-102936023D01*
X303269474Y-102936485D01*
X303270962Y-102936969D01*
X303273233Y-102937676D01*
X303275485Y-102938404D01*
X303279958Y-102939913D01*
X303288954Y-102943055D01*
X303300067Y-102947023D01*
X303310121Y-102951025D01*
X303315173Y-102953088D01*
X303317683Y-102954146D01*
X303320175Y-102955225D01*
X303329172Y-102958930D01*
X303336514Y-102962158D01*
X303343856Y-102965511D01*
X303351198Y-102969013D01*
X303354869Y-102970828D01*
X303358540Y-102972689D01*
X303399408Y-102994030D01*
X303438970Y-103016218D01*
X303477233Y-103039234D01*
X303514206Y-103063055D01*
X303549894Y-103087663D01*
X303584306Y-103113035D01*
X303617449Y-103139152D01*
X303649330Y-103165992D01*
X303679956Y-103193535D01*
X303709335Y-103221761D01*
X303737474Y-103250649D01*
X303764381Y-103280177D01*
X303814525Y-103341075D01*
X303859827Y-103404291D01*
X303900344Y-103469658D01*
X303936136Y-103537011D01*
X303967260Y-103606186D01*
X303993776Y-103677018D01*
X304015742Y-103749341D01*
X304033216Y-103822990D01*
X304046257Y-103897801D01*
X304054924Y-103973607D01*
X304053766Y-104042802D01*
X304050338Y-104106587D01*
X304044558Y-104165215D01*
X304036345Y-104218939D01*
X304025617Y-104268010D01*
X304012294Y-104312680D01*
X303996293Y-104353203D01*
X303977533Y-104389831D01*
X303967093Y-104406763D01*
X303955933Y-104422815D01*
X303944043Y-104438020D01*
X303931412Y-104452409D01*
X303918030Y-104466013D01*
X303903888Y-104478863D01*
X303873279Y-104502432D01*
X303839505Y-104523367D01*
X303802484Y-104541920D01*
X303762134Y-104558343D01*
X303718375Y-104572890D01*
X303705772Y-104576057D01*
X303692972Y-104579232D01*
X303688971Y-104580025D01*
X303686907Y-104580422D01*
X303684770Y-104580819D01*
X303676006Y-104582505D01*
X303673792Y-104582919D01*
X303671562Y-104583312D01*
X303669314Y-104583673D01*
X303667044Y-104583994D01*
X303657519Y-104585317D01*
X303655535Y-104585602D01*
X303653550Y-104585862D01*
X303651565Y-104586098D01*
X303649581Y-104586308D01*
X303647596Y-104586494D01*
X303645612Y-104586655D01*
X303643628Y-104586792D01*
X303641644Y-104586904D01*
X303639106Y-104587099D01*
X303636617Y-104587268D01*
X303635376Y-104587336D01*
X303634128Y-104587388D01*
X303632869Y-104587421D01*
X303631590Y-104587433D01*
X303627816Y-104587628D01*
X303624016Y-104587798D01*
X303620168Y-104587917D01*
X303618217Y-104587951D01*
X303616244Y-104587963D01*
X303610687Y-104588228D01*
X303606982Y-104587963D01*
X303603399Y-104587938D01*
X303599797Y-104587868D01*
X303596183Y-104587754D01*
X303592563Y-104587599D01*
X303585328Y-104587182D01*
X303578142Y-104586641D01*
X303577612Y-104586641D01*
X303573953Y-104586320D01*
X303570316Y-104585954D01*
X303563094Y-104585119D01*
X303555920Y-104584184D01*
X303548772Y-104583201D01*
X303540836Y-104581879D01*
X303534882Y-104580841D01*
X303528929Y-104579729D01*
X303517021Y-104577381D01*
X303511729Y-104576323D01*
X303504743Y-104574686D01*
X303497707Y-104572949D01*
X303490671Y-104571114D01*
X303483684Y-104569179D01*
X303476540Y-104567061D01*
X303470983Y-104565424D01*
X303465427Y-104563688D01*
X303459871Y-104561853D01*
X303454314Y-104559917D01*
X303450775Y-104558727D01*
X303449068Y-104558131D01*
X303447435Y-104557535D01*
X303440535Y-104555109D01*
X303433709Y-104552608D01*
X303420181Y-104547481D01*
X303419575Y-104547271D01*
X303418950Y-104547039D01*
X303418312Y-104546788D01*
X303417668Y-104546522D01*
X303417024Y-104546244D01*
X303416387Y-104545956D01*
X303415761Y-104545662D01*
X303415155Y-104545365D01*
X303409396Y-104543021D01*
X303403612Y-104540701D01*
X303397779Y-104538332D01*
X303391872Y-104535839D01*
X303384462Y-104532665D01*
X303377719Y-104529841D01*
X303371001Y-104526943D01*
X303364333Y-104523996D01*
X303357739Y-104521022D01*
X303357474Y-104521022D01*
X303318974Y-104502646D01*
X303281563Y-104482863D01*
X303245242Y-104461714D01*
X303210015Y-104439238D01*
X303175883Y-104415473D01*
X303142850Y-104390459D01*
X303110919Y-104364235D01*
X303080092Y-104336840D01*
X303050372Y-104308314D01*
X303021761Y-104278694D01*
X302994263Y-104248022D01*
X302967880Y-104216335D01*
X302942615Y-104183673D01*
X302918470Y-104150075D01*
X302895448Y-104115581D01*
X302873552Y-104080228D01*
X302848250Y-104036631D01*
X302824130Y-103992633D01*
X302801334Y-103948200D01*
X302780001Y-103903296D01*
X302760273Y-103857887D01*
X302742290Y-103811937D01*
X302726193Y-103765413D01*
X302712123Y-103718278D01*
X302700220Y-103670498D01*
X302690625Y-103622039D01*
X302683479Y-103572865D01*
X302678922Y-103522941D01*
X302677095Y-103472233D01*
X302678139Y-103420706D01*
X302682194Y-103368324D01*
X302689401Y-103315053D01*
X302689667Y-103313996D01*
X302691507Y-103303772D01*
X302693470Y-103293722D01*
X302695582Y-103283821D01*
X302697868Y-103274044D01*
X302698178Y-103272655D01*
X302698506Y-103271269D01*
X302699192Y-103268520D01*
X302699877Y-103265821D01*
X302700513Y-103263196D01*
X302702791Y-103254275D01*
X302705243Y-103245403D01*
X302707843Y-103236630D01*
X302710568Y-103228006D01*
X302710664Y-103227758D01*
X302710755Y-103227511D01*
X302710920Y-103227018D01*
X302711066Y-103226532D01*
X302711196Y-103226055D01*
X302711315Y-103225590D01*
X302711424Y-103225141D01*
X302711626Y-103224302D01*
X302714850Y-103215029D01*
X302718174Y-103205880D01*
X302721597Y-103196880D01*
X302725119Y-103188054D01*
X302729089Y-103178794D01*
X302732471Y-103171262D01*
X302735902Y-103163779D01*
X302737652Y-103160072D01*
X302739433Y-103156396D01*
X302741251Y-103152757D01*
X302743112Y-103149161D01*
X302745494Y-103144133D01*
X302747689Y-103140089D01*
X302749909Y-103136089D01*
X302754423Y-103128192D01*
X302759038Y-103120395D01*
X302763751Y-103112648D01*
X302764358Y-103111657D01*
X302764983Y-103110668D01*
X302766264Y-103108713D01*
X302768777Y-103104976D01*
X302772991Y-103098676D01*
X302777278Y-103092474D01*
X302781615Y-103086372D01*
X302785977Y-103080370D01*
X302789946Y-103074813D01*
X302792637Y-103071365D01*
X302795354Y-103067963D01*
X302798095Y-103064605D01*
X302800860Y-103061286D01*
X302803651Y-103058005D01*
X302806466Y-103054758D01*
X302809307Y-103051542D01*
X302812172Y-103048354D01*
X302817992Y-103042005D01*
X302822957Y-103036894D01*
X302827947Y-103031884D01*
X302830459Y-103029416D01*
X302832986Y-103026972D01*
X302835532Y-103024554D01*
X302838100Y-103022161D01*
X302843657Y-103017135D01*
X302850015Y-103011631D01*
X302853210Y-103008925D01*
X302856424Y-103006253D01*
X302859662Y-103003618D01*
X302862931Y-103001023D01*
X302866237Y-102998472D01*
X302869586Y-102995968D01*
X302871173Y-102994781D01*
X302872761Y-102993620D01*
X302873554Y-102993056D01*
X302874348Y-102992508D01*
X302875142Y-102991978D01*
X302875935Y-102991471D01*
X302881538Y-102987509D01*
X302887214Y-102983598D01*
X302890072Y-102981677D01*
X302892939Y-102979786D01*
X302895813Y-102977933D01*
X302898689Y-102976124D01*
X302905568Y-102971891D01*
X302912716Y-102967773D01*
X302919889Y-102963755D01*
X302927111Y-102959836D01*
X302934409Y-102956017D01*
X302940759Y-102953107D01*
X302946960Y-102950180D01*
X302953261Y-102947352D01*
X302959660Y-102944624D01*
X302966159Y-102941994D01*
X302974097Y-102938820D01*
X302981881Y-102936054D01*
X302989740Y-102933362D01*
X302993690Y-102932068D01*
X302997648Y-102930820D01*
X303001613Y-102929628D01*
X303005582Y-102928501D01*
X303006971Y-102928108D01*
X303007666Y-102927920D01*
X303008360Y-102927740D01*
X303009055Y-102927574D01*
X303009750Y-102927422D01*
X303010444Y-102927289D01*
X303011139Y-102927178D01*
X303018129Y-102925441D01*
X303025194Y-102923805D01*
X303032310Y-102922267D01*
X303039450Y-102920829D01*
X303047916Y-102919240D01*
X303056296Y-102917905D01*
X303064750Y-102916694D01*
X303073255Y-102915632D01*
X303077518Y-102915164D01*
X303081784Y-102914743D01*
X303085753Y-102914478D01*
X303093538Y-102913937D01*
X303101396Y-102913520D01*
X303109305Y-102913251D01*
X303113270Y-102913181D01*
X303117238Y-102913157D01*
X303122000Y-102912891D01*
X303127557Y-102913157D01*
G37*
X303127557Y-102913157D02*
X303129530Y-102913168D01*
X303131485Y-102913202D01*
X303135363Y-102913322D01*
X303139241Y-102913491D01*
X303143169Y-102913686D01*
X303146302Y-102913847D01*
X303149386Y-102913983D01*
X303150925Y-102914065D01*
X303152470Y-102914169D01*
X303154027Y-102914304D01*
X303155603Y-102914480D01*
X303157588Y-102914591D01*
X303159576Y-102914728D01*
X303161571Y-102914890D01*
X303163574Y-102915076D01*
X303165590Y-102915287D01*
X303167621Y-102915522D01*
X303169671Y-102915783D01*
X303171742Y-102916068D01*
X303184177Y-102917391D01*
X303188303Y-102917990D01*
X303192379Y-102918614D01*
X303196455Y-102919288D01*
X303200581Y-102920035D01*
X303212753Y-102922153D01*
X303216924Y-102922992D01*
X303221120Y-102923906D01*
X303229686Y-102925856D01*
X303231186Y-102926166D01*
X303232705Y-102926498D01*
X303235772Y-102927213D01*
X303238840Y-102927978D01*
X303241858Y-102928768D01*
X303259056Y-102933530D01*
X303262033Y-102934328D01*
X303265010Y-102935150D01*
X303267986Y-102936023D01*
X303269474Y-102936485D01*
X303270962Y-102936969D01*
X303273233Y-102937676D01*
X303275485Y-102938404D01*
X303279958Y-102939913D01*
X303288954Y-102943055D01*
X303300067Y-102947023D01*
X303310121Y-102951025D01*
X303315173Y-102953088D01*
X303317683Y-102954146D01*
X303320175Y-102955225D01*
X303329172Y-102958930D01*
X303336514Y-102962158D01*
X303343856Y-102965511D01*
X303351198Y-102969013D01*
X303354869Y-102970828D01*
X303358540Y-102972689D01*
X303399408Y-102994030D01*
X303438970Y-103016218D01*
X303477233Y-103039234D01*
X303514206Y-103063055D01*
X303549894Y-103087663D01*
X303584306Y-103113035D01*
X303617449Y-103139152D01*
X303649330Y-103165992D01*
X303679956Y-103193535D01*
X303709335Y-103221761D01*
X303737474Y-103250649D01*
X303764381Y-103280177D01*
X303814525Y-103341075D01*
X303859827Y-103404291D01*
X303900344Y-103469658D01*
X303936136Y-103537011D01*
X303967260Y-103606186D01*
X303993776Y-103677018D01*
X304015742Y-103749341D01*
X304033216Y-103822990D01*
X304046257Y-103897801D01*
X304054924Y-103973607D01*
X304053766Y-104042802D01*
X304050338Y-104106587D01*
X304044558Y-104165215D01*
X304036345Y-104218939D01*
X304025617Y-104268010D01*
X304012294Y-104312680D01*
X303996293Y-104353203D01*
X303977533Y-104389831D01*
X303967093Y-104406763D01*
X303955933Y-104422815D01*
X303944043Y-104438020D01*
X303931412Y-104452409D01*
X303918030Y-104466013D01*
X303903888Y-104478863D01*
X303873279Y-104502432D01*
X303839505Y-104523367D01*
X303802484Y-104541920D01*
X303762134Y-104558343D01*
X303718375Y-104572890D01*
X303705772Y-104576057D01*
X303692972Y-104579232D01*
X303688971Y-104580025D01*
X303686907Y-104580422D01*
X303684770Y-104580819D01*
X303676006Y-104582505D01*
X303673792Y-104582919D01*
X303671562Y-104583312D01*
X303669314Y-104583673D01*
X303667044Y-104583994D01*
X303657519Y-104585317D01*
X303655535Y-104585602D01*
X303653550Y-104585862D01*
X303651565Y-104586098D01*
X303649581Y-104586308D01*
X303647596Y-104586494D01*
X303645612Y-104586655D01*
X303643628Y-104586792D01*
X303641644Y-104586904D01*
X303639106Y-104587099D01*
X303636617Y-104587268D01*
X303635376Y-104587336D01*
X303634128Y-104587388D01*
X303632869Y-104587421D01*
X303631590Y-104587433D01*
X303627816Y-104587628D01*
X303624016Y-104587798D01*
X303620168Y-104587917D01*
X303618217Y-104587951D01*
X303616244Y-104587963D01*
X303610687Y-104588228D01*
X303606982Y-104587963D01*
X303603399Y-104587938D01*
X303599797Y-104587868D01*
X303596183Y-104587754D01*
X303592563Y-104587599D01*
X303585328Y-104587182D01*
X303578142Y-104586641D01*
X303577612Y-104586641D01*
X303573953Y-104586320D01*
X303570316Y-104585954D01*
X303563094Y-104585119D01*
X303555920Y-104584184D01*
X303548772Y-104583201D01*
X303540836Y-104581879D01*
X303534882Y-104580841D01*
X303528929Y-104579729D01*
X303517021Y-104577381D01*
X303511729Y-104576323D01*
X303504743Y-104574686D01*
X303497707Y-104572949D01*
X303490671Y-104571114D01*
X303483684Y-104569179D01*
X303476540Y-104567061D01*
X303470983Y-104565424D01*
X303465427Y-104563688D01*
X303459871Y-104561853D01*
X303454314Y-104559917D01*
X303450775Y-104558727D01*
X303449068Y-104558131D01*
X303447435Y-104557535D01*
X303440535Y-104555109D01*
X303433709Y-104552608D01*
X303420181Y-104547481D01*
X303419575Y-104547271D01*
X303418950Y-104547039D01*
X303418312Y-104546788D01*
X303417668Y-104546522D01*
X303417024Y-104546244D01*
X303416387Y-104545956D01*
X303415761Y-104545662D01*
X303415155Y-104545365D01*
X303409396Y-104543021D01*
X303403612Y-104540701D01*
X303397779Y-104538332D01*
X303391872Y-104535839D01*
X303384462Y-104532665D01*
X303377719Y-104529841D01*
X303371001Y-104526943D01*
X303364333Y-104523996D01*
X303357739Y-104521022D01*
X303357474Y-104521022D01*
X303318974Y-104502646D01*
X303281563Y-104482863D01*
X303245242Y-104461714D01*
X303210015Y-104439238D01*
X303175883Y-104415473D01*
X303142850Y-104390459D01*
X303110919Y-104364235D01*
X303080092Y-104336840D01*
X303050372Y-104308314D01*
X303021761Y-104278694D01*
X302994263Y-104248022D01*
X302967880Y-104216335D01*
X302942615Y-104183673D01*
X302918470Y-104150075D01*
X302895448Y-104115581D01*
X302873552Y-104080228D01*
X302848250Y-104036631D01*
X302824130Y-103992633D01*
X302801334Y-103948200D01*
X302780001Y-103903296D01*
X302760273Y-103857887D01*
X302742290Y-103811937D01*
X302726193Y-103765413D01*
X302712123Y-103718278D01*
X302700220Y-103670498D01*
X302690625Y-103622039D01*
X302683479Y-103572865D01*
X302678922Y-103522941D01*
X302677095Y-103472233D01*
X302678139Y-103420706D01*
X302682194Y-103368324D01*
X302689401Y-103315053D01*
X302689667Y-103313996D01*
X302691507Y-103303772D01*
X302693470Y-103293722D01*
X302695582Y-103283821D01*
X302697868Y-103274044D01*
X302698178Y-103272655D01*
X302698506Y-103271269D01*
X302699192Y-103268520D01*
X302699877Y-103265821D01*
X302700513Y-103263196D01*
X302702791Y-103254275D01*
X302705243Y-103245403D01*
X302707843Y-103236630D01*
X302710568Y-103228006D01*
X302710664Y-103227758D01*
X302710755Y-103227511D01*
X302710920Y-103227018D01*
X302711066Y-103226532D01*
X302711196Y-103226055D01*
X302711315Y-103225590D01*
X302711424Y-103225141D01*
X302711626Y-103224302D01*
X302714850Y-103215029D01*
X302718174Y-103205880D01*
X302721597Y-103196880D01*
X302725119Y-103188054D01*
X302729089Y-103178794D01*
X302732471Y-103171262D01*
X302735902Y-103163779D01*
X302737652Y-103160072D01*
X302739433Y-103156396D01*
X302741251Y-103152757D01*
X302743112Y-103149161D01*
X302745494Y-103144133D01*
X302747689Y-103140089D01*
X302749909Y-103136089D01*
X302754423Y-103128192D01*
X302759038Y-103120395D01*
X302763751Y-103112648D01*
X302764358Y-103111657D01*
X302764983Y-103110668D01*
X302766264Y-103108713D01*
X302768777Y-103104976D01*
X302772991Y-103098676D01*
X302777278Y-103092474D01*
X302781615Y-103086372D01*
X302785977Y-103080370D01*
X302789946Y-103074813D01*
X302792637Y-103071365D01*
X302795354Y-103067963D01*
X302798095Y-103064605D01*
X302800860Y-103061286D01*
X302803651Y-103058005D01*
X302806466Y-103054758D01*
X302809307Y-103051542D01*
X302812172Y-103048354D01*
X302817992Y-103042005D01*
X302822957Y-103036894D01*
X302827947Y-103031884D01*
X302830459Y-103029416D01*
X302832986Y-103026972D01*
X302835532Y-103024554D01*
X302838100Y-103022161D01*
X302843657Y-103017135D01*
X302850015Y-103011631D01*
X302853210Y-103008925D01*
X302856424Y-103006253D01*
X302859662Y-103003618D01*
X302862931Y-103001023D01*
X302866237Y-102998472D01*
X302869586Y-102995968D01*
X302871173Y-102994781D01*
X302872761Y-102993620D01*
X302873554Y-102993056D01*
X302874348Y-102992508D01*
X302875142Y-102991978D01*
X302875935Y-102991471D01*
X302881538Y-102987509D01*
X302887214Y-102983598D01*
X302890072Y-102981677D01*
X302892939Y-102979786D01*
X302895813Y-102977933D01*
X302898689Y-102976124D01*
X302905568Y-102971891D01*
X302912716Y-102967773D01*
X302919889Y-102963755D01*
X302927111Y-102959836D01*
X302934409Y-102956017D01*
X302940759Y-102953107D01*
X302946960Y-102950180D01*
X302953261Y-102947352D01*
X302959660Y-102944624D01*
X302966159Y-102941994D01*
X302974097Y-102938820D01*
X302981881Y-102936054D01*
X302989740Y-102933362D01*
X302993690Y-102932068D01*
X302997648Y-102930820D01*
X303001613Y-102929628D01*
X303005582Y-102928501D01*
X303006971Y-102928108D01*
X303007666Y-102927920D01*
X303008360Y-102927740D01*
X303009055Y-102927574D01*
X303009750Y-102927422D01*
X303010444Y-102927289D01*
X303011139Y-102927178D01*
X303018129Y-102925441D01*
X303025194Y-102923805D01*
X303032310Y-102922267D01*
X303039450Y-102920829D01*
X303047916Y-102919240D01*
X303056296Y-102917905D01*
X303064750Y-102916694D01*
X303073255Y-102915632D01*
X303077518Y-102915164D01*
X303081784Y-102914743D01*
X303085753Y-102914478D01*
X303093538Y-102913937D01*
X303101396Y-102913520D01*
X303109305Y-102913251D01*
X303113270Y-102913181D01*
X303117238Y-102913157D01*
X303122000Y-102912891D01*
X303127557Y-102913157D01*
G36*
X300150311Y-108396314D02*
G01*
X300173352Y-108397663D01*
X300195770Y-108399884D01*
X300217555Y-108402969D01*
X300238697Y-108406908D01*
X300259190Y-108411692D01*
X300279022Y-108417314D01*
X300298186Y-108423763D01*
X300316673Y-108431031D01*
X300334473Y-108439109D01*
X300351578Y-108447988D01*
X300367978Y-108457660D01*
X300383666Y-108468115D01*
X300398631Y-108479345D01*
X300412865Y-108491340D01*
X300426360Y-108504092D01*
X300439106Y-108517593D01*
X300451094Y-108531832D01*
X300462315Y-108546802D01*
X300472761Y-108562494D01*
X300482423Y-108578897D01*
X300491291Y-108596005D01*
X300499357Y-108613807D01*
X300506612Y-108632296D01*
X300513046Y-108651461D01*
X300518652Y-108671295D01*
X300523419Y-108691788D01*
X300527340Y-108712931D01*
X300530405Y-108734717D01*
X300532606Y-108757135D01*
X300533932Y-108780177D01*
X300534376Y-108803833D01*
X300534376Y-109290403D01*
X300533932Y-109314065D01*
X300532606Y-109337122D01*
X300530405Y-109359564D01*
X300527340Y-109381383D01*
X300523419Y-109402568D01*
X300518652Y-109423109D01*
X300513046Y-109442998D01*
X300506612Y-109462224D01*
X300499357Y-109480778D01*
X300491291Y-109498651D01*
X300482423Y-109515832D01*
X300472761Y-109532312D01*
X300462315Y-109548082D01*
X300451094Y-109563133D01*
X300439106Y-109577453D01*
X300426360Y-109591034D01*
X300412865Y-109603867D01*
X300398631Y-109615941D01*
X300383666Y-109627247D01*
X300367978Y-109637775D01*
X300351578Y-109647517D01*
X300334473Y-109656461D01*
X300316673Y-109664600D01*
X300298186Y-109671922D01*
X300279022Y-109678419D01*
X300259190Y-109684081D01*
X300238697Y-109688898D01*
X300217555Y-109692860D01*
X300195770Y-109695959D01*
X300173352Y-109698184D01*
X300150311Y-109699527D01*
X300126654Y-109699976D01*
X299551715Y-109699976D01*
X299551715Y-109425603D01*
X300100461Y-109425603D01*
X300110010Y-109425449D01*
X300119259Y-109424987D01*
X300128209Y-109424217D01*
X300136859Y-109423139D01*
X300145209Y-109421755D01*
X300153258Y-109420064D01*
X300161007Y-109418067D01*
X300168454Y-109415764D01*
X300175601Y-109413156D01*
X300182446Y-109410242D01*
X300188990Y-109407024D01*
X300195231Y-109403502D01*
X300201171Y-109399676D01*
X300206808Y-109395547D01*
X300212143Y-109391114D01*
X300217175Y-109386379D01*
X300221904Y-109381341D01*
X300226329Y-109376002D01*
X300230451Y-109370361D01*
X300234269Y-109364418D01*
X300237783Y-109358175D01*
X300240993Y-109351632D01*
X300243898Y-109344789D01*
X300246498Y-109337646D01*
X300248794Y-109330204D01*
X300250784Y-109322463D01*
X300252468Y-109314423D01*
X300253847Y-109306086D01*
X300254920Y-109297451D01*
X300255687Y-109288519D01*
X300256147Y-109279289D01*
X300256300Y-109269764D01*
X300256300Y-108826322D01*
X300256146Y-108816767D01*
X300255684Y-108807500D01*
X300254914Y-108798521D01*
X300253836Y-108789833D01*
X300252452Y-108781435D01*
X300250761Y-108773329D01*
X300248764Y-108765517D01*
X300246461Y-108757998D01*
X300243853Y-108750774D01*
X300240940Y-108743846D01*
X300237722Y-108737215D01*
X300234199Y-108730882D01*
X300230373Y-108724847D01*
X300226244Y-108719113D01*
X300221811Y-108713680D01*
X300217076Y-108708550D01*
X300212038Y-108703722D01*
X300206699Y-108699198D01*
X300201058Y-108694979D01*
X300195115Y-108691067D01*
X300188873Y-108687462D01*
X300182329Y-108684164D01*
X300175486Y-108681176D01*
X300168343Y-108678499D01*
X300160901Y-108676132D01*
X300153160Y-108674078D01*
X300145121Y-108672337D01*
X300136783Y-108670910D01*
X300128148Y-108669798D01*
X300119216Y-108669003D01*
X300109986Y-108668525D01*
X300100461Y-108668366D01*
X299551715Y-108668366D01*
X299551715Y-108395845D01*
X300126654Y-108395845D01*
X300150311Y-108396314D01*
G37*
X300150311Y-108396314D02*
X300173352Y-108397663D01*
X300195770Y-108399884D01*
X300217555Y-108402969D01*
X300238697Y-108406908D01*
X300259190Y-108411692D01*
X300279022Y-108417314D01*
X300298186Y-108423763D01*
X300316673Y-108431031D01*
X300334473Y-108439109D01*
X300351578Y-108447988D01*
X300367978Y-108457660D01*
X300383666Y-108468115D01*
X300398631Y-108479345D01*
X300412865Y-108491340D01*
X300426360Y-108504092D01*
X300439106Y-108517593D01*
X300451094Y-108531832D01*
X300462315Y-108546802D01*
X300472761Y-108562494D01*
X300482423Y-108578897D01*
X300491291Y-108596005D01*
X300499357Y-108613807D01*
X300506612Y-108632296D01*
X300513046Y-108651461D01*
X300518652Y-108671295D01*
X300523419Y-108691788D01*
X300527340Y-108712931D01*
X300530405Y-108734717D01*
X300532606Y-108757135D01*
X300533932Y-108780177D01*
X300534376Y-108803833D01*
X300534376Y-109290403D01*
X300533932Y-109314065D01*
X300532606Y-109337122D01*
X300530405Y-109359564D01*
X300527340Y-109381383D01*
X300523419Y-109402568D01*
X300518652Y-109423109D01*
X300513046Y-109442998D01*
X300506612Y-109462224D01*
X300499357Y-109480778D01*
X300491291Y-109498651D01*
X300482423Y-109515832D01*
X300472761Y-109532312D01*
X300462315Y-109548082D01*
X300451094Y-109563133D01*
X300439106Y-109577453D01*
X300426360Y-109591034D01*
X300412865Y-109603867D01*
X300398631Y-109615941D01*
X300383666Y-109627247D01*
X300367978Y-109637775D01*
X300351578Y-109647517D01*
X300334473Y-109656461D01*
X300316673Y-109664600D01*
X300298186Y-109671922D01*
X300279022Y-109678419D01*
X300259190Y-109684081D01*
X300238697Y-109688898D01*
X300217555Y-109692860D01*
X300195770Y-109695959D01*
X300173352Y-109698184D01*
X300150311Y-109699527D01*
X300126654Y-109699976D01*
X299551715Y-109699976D01*
X299551715Y-109425603D01*
X300100461Y-109425603D01*
X300110010Y-109425449D01*
X300119259Y-109424987D01*
X300128209Y-109424217D01*
X300136859Y-109423139D01*
X300145209Y-109421755D01*
X300153258Y-109420064D01*
X300161007Y-109418067D01*
X300168454Y-109415764D01*
X300175601Y-109413156D01*
X300182446Y-109410242D01*
X300188990Y-109407024D01*
X300195231Y-109403502D01*
X300201171Y-109399676D01*
X300206808Y-109395547D01*
X300212143Y-109391114D01*
X300217175Y-109386379D01*
X300221904Y-109381341D01*
X300226329Y-109376002D01*
X300230451Y-109370361D01*
X300234269Y-109364418D01*
X300237783Y-109358175D01*
X300240993Y-109351632D01*
X300243898Y-109344789D01*
X300246498Y-109337646D01*
X300248794Y-109330204D01*
X300250784Y-109322463D01*
X300252468Y-109314423D01*
X300253847Y-109306086D01*
X300254920Y-109297451D01*
X300255687Y-109288519D01*
X300256147Y-109279289D01*
X300256300Y-109269764D01*
X300256300Y-108826322D01*
X300256146Y-108816767D01*
X300255684Y-108807500D01*
X300254914Y-108798521D01*
X300253836Y-108789833D01*
X300252452Y-108781435D01*
X300250761Y-108773329D01*
X300248764Y-108765517D01*
X300246461Y-108757998D01*
X300243853Y-108750774D01*
X300240940Y-108743846D01*
X300237722Y-108737215D01*
X300234199Y-108730882D01*
X300230373Y-108724847D01*
X300226244Y-108719113D01*
X300221811Y-108713680D01*
X300217076Y-108708550D01*
X300212038Y-108703722D01*
X300206699Y-108699198D01*
X300201058Y-108694979D01*
X300195115Y-108691067D01*
X300188873Y-108687462D01*
X300182329Y-108684164D01*
X300175486Y-108681176D01*
X300168343Y-108678499D01*
X300160901Y-108676132D01*
X300153160Y-108674078D01*
X300145121Y-108672337D01*
X300136783Y-108670910D01*
X300128148Y-108669798D01*
X300119216Y-108669003D01*
X300109986Y-108668525D01*
X300100461Y-108668366D01*
X299551715Y-108668366D01*
X299551715Y-108395845D01*
X300126654Y-108395845D01*
X300150311Y-108396314D01*
G36*
X304618858Y-108370360D02*
G01*
X304641899Y-108371687D01*
X304664317Y-108373887D01*
X304686102Y-108376952D01*
X304707244Y-108380873D01*
X304727737Y-108385641D01*
X304747569Y-108391246D01*
X304766733Y-108397681D01*
X304785219Y-108404935D01*
X304803019Y-108413001D01*
X304820124Y-108421869D01*
X304836525Y-108431531D01*
X304852212Y-108441977D01*
X304867177Y-108453198D01*
X304881412Y-108465186D01*
X304894906Y-108477932D01*
X304907652Y-108491426D01*
X304919640Y-108505661D01*
X304930862Y-108520626D01*
X304941307Y-108536314D01*
X304950969Y-108552714D01*
X304959837Y-108569819D01*
X304967903Y-108587619D01*
X304975157Y-108606105D01*
X304981592Y-108625269D01*
X304987197Y-108645102D01*
X304991965Y-108665594D01*
X304995886Y-108686737D01*
X304998951Y-108708521D01*
X305001151Y-108730939D01*
X305002478Y-108753981D01*
X305002922Y-108777637D01*
X305002922Y-109316858D01*
X305002478Y-109340520D01*
X305001151Y-109363578D01*
X304998951Y-109386020D01*
X304995886Y-109407839D01*
X304991965Y-109429024D01*
X304987197Y-109449565D01*
X304981592Y-109469454D01*
X304975157Y-109488681D01*
X304967903Y-109507235D01*
X304959837Y-109525107D01*
X304950969Y-109542289D01*
X304941307Y-109558769D01*
X304930862Y-109574539D01*
X304919640Y-109589589D01*
X304907652Y-109603910D01*
X304894906Y-109617491D01*
X304881412Y-109630324D01*
X304867177Y-109642398D01*
X304852212Y-109653704D01*
X304836525Y-109664233D01*
X304820124Y-109673974D01*
X304803019Y-109682919D01*
X304785219Y-109691057D01*
X304766733Y-109698379D01*
X304747569Y-109704876D01*
X304727737Y-109710538D01*
X304707244Y-109715355D01*
X304686102Y-109719317D01*
X304664317Y-109722416D01*
X304641899Y-109724642D01*
X304618858Y-109725984D01*
X304595201Y-109726433D01*
X304172397Y-109726433D01*
X304148740Y-109725984D01*
X304125699Y-109724642D01*
X304103281Y-109722416D01*
X304081496Y-109719317D01*
X304060353Y-109715355D01*
X304039861Y-109710538D01*
X304020029Y-109704876D01*
X304000865Y-109698379D01*
X303982378Y-109691057D01*
X303964578Y-109682919D01*
X303947473Y-109673974D01*
X303931073Y-109664233D01*
X303915385Y-109653704D01*
X303900420Y-109642398D01*
X303886185Y-109630324D01*
X303872691Y-109617491D01*
X303859945Y-109603910D01*
X303847957Y-109589589D01*
X303836735Y-109574539D01*
X303826289Y-109558769D01*
X303816628Y-109542289D01*
X303807760Y-109525107D01*
X303799694Y-109507235D01*
X303792439Y-109488681D01*
X303786005Y-109469454D01*
X303780399Y-109449565D01*
X303775631Y-109429024D01*
X303771711Y-109407839D01*
X303768646Y-109386020D01*
X303766445Y-109363578D01*
X303765119Y-109340520D01*
X303764674Y-109316858D01*
X303764674Y-108777637D01*
X303765119Y-108753981D01*
X303766445Y-108730939D01*
X303768646Y-108708521D01*
X303771711Y-108686737D01*
X303775631Y-108665594D01*
X303780399Y-108645102D01*
X303786005Y-108625269D01*
X303792439Y-108606105D01*
X303799694Y-108587619D01*
X303807760Y-108569819D01*
X303816628Y-108552714D01*
X303826289Y-108536314D01*
X303836735Y-108520626D01*
X303847957Y-108505661D01*
X303859945Y-108491426D01*
X303872691Y-108477932D01*
X303886185Y-108465186D01*
X303900420Y-108453198D01*
X303915385Y-108441977D01*
X303931073Y-108431531D01*
X303947473Y-108421869D01*
X303964578Y-108413001D01*
X303982378Y-108404935D01*
X304000865Y-108397681D01*
X304020029Y-108391246D01*
X304039861Y-108385641D01*
X304060353Y-108380873D01*
X304081496Y-108376952D01*
X304103281Y-108373887D01*
X304125699Y-108371687D01*
X304148740Y-108370360D01*
X304172397Y-108369916D01*
X304595201Y-108369916D01*
X304618858Y-108370360D01*
G37*
X304618858Y-108370360D02*
X304641899Y-108371687D01*
X304664317Y-108373887D01*
X304686102Y-108376952D01*
X304707244Y-108380873D01*
X304727737Y-108385641D01*
X304747569Y-108391246D01*
X304766733Y-108397681D01*
X304785219Y-108404935D01*
X304803019Y-108413001D01*
X304820124Y-108421869D01*
X304836525Y-108431531D01*
X304852212Y-108441977D01*
X304867177Y-108453198D01*
X304881412Y-108465186D01*
X304894906Y-108477932D01*
X304907652Y-108491426D01*
X304919640Y-108505661D01*
X304930862Y-108520626D01*
X304941307Y-108536314D01*
X304950969Y-108552714D01*
X304959837Y-108569819D01*
X304967903Y-108587619D01*
X304975157Y-108606105D01*
X304981592Y-108625269D01*
X304987197Y-108645102D01*
X304991965Y-108665594D01*
X304995886Y-108686737D01*
X304998951Y-108708521D01*
X305001151Y-108730939D01*
X305002478Y-108753981D01*
X305002922Y-108777637D01*
X305002922Y-109316858D01*
X305002478Y-109340520D01*
X305001151Y-109363578D01*
X304998951Y-109386020D01*
X304995886Y-109407839D01*
X304991965Y-109429024D01*
X304987197Y-109449565D01*
X304981592Y-109469454D01*
X304975157Y-109488681D01*
X304967903Y-109507235D01*
X304959837Y-109525107D01*
X304950969Y-109542289D01*
X304941307Y-109558769D01*
X304930862Y-109574539D01*
X304919640Y-109589589D01*
X304907652Y-109603910D01*
X304894906Y-109617491D01*
X304881412Y-109630324D01*
X304867177Y-109642398D01*
X304852212Y-109653704D01*
X304836525Y-109664233D01*
X304820124Y-109673974D01*
X304803019Y-109682919D01*
X304785219Y-109691057D01*
X304766733Y-109698379D01*
X304747569Y-109704876D01*
X304727737Y-109710538D01*
X304707244Y-109715355D01*
X304686102Y-109719317D01*
X304664317Y-109722416D01*
X304641899Y-109724642D01*
X304618858Y-109725984D01*
X304595201Y-109726433D01*
X304172397Y-109726433D01*
X304148740Y-109725984D01*
X304125699Y-109724642D01*
X304103281Y-109722416D01*
X304081496Y-109719317D01*
X304060353Y-109715355D01*
X304039861Y-109710538D01*
X304020029Y-109704876D01*
X304000865Y-109698379D01*
X303982378Y-109691057D01*
X303964578Y-109682919D01*
X303947473Y-109673974D01*
X303931073Y-109664233D01*
X303915385Y-109653704D01*
X303900420Y-109642398D01*
X303886185Y-109630324D01*
X303872691Y-109617491D01*
X303859945Y-109603910D01*
X303847957Y-109589589D01*
X303836735Y-109574539D01*
X303826289Y-109558769D01*
X303816628Y-109542289D01*
X303807760Y-109525107D01*
X303799694Y-109507235D01*
X303792439Y-109488681D01*
X303786005Y-109469454D01*
X303780399Y-109449565D01*
X303775631Y-109429024D01*
X303771711Y-109407839D01*
X303768646Y-109386020D01*
X303766445Y-109363578D01*
X303765119Y-109340520D01*
X303764674Y-109316858D01*
X303764674Y-108777637D01*
X303765119Y-108753981D01*
X303766445Y-108730939D01*
X303768646Y-108708521D01*
X303771711Y-108686737D01*
X303775631Y-108665594D01*
X303780399Y-108645102D01*
X303786005Y-108625269D01*
X303792439Y-108606105D01*
X303799694Y-108587619D01*
X303807760Y-108569819D01*
X303816628Y-108552714D01*
X303826289Y-108536314D01*
X303836735Y-108520626D01*
X303847957Y-108505661D01*
X303859945Y-108491426D01*
X303872691Y-108477932D01*
X303886185Y-108465186D01*
X303900420Y-108453198D01*
X303915385Y-108441977D01*
X303931073Y-108431531D01*
X303947473Y-108421869D01*
X303964578Y-108413001D01*
X303982378Y-108404935D01*
X304000865Y-108397681D01*
X304020029Y-108391246D01*
X304039861Y-108385641D01*
X304060353Y-108380873D01*
X304081496Y-108376952D01*
X304103281Y-108373887D01*
X304125699Y-108371687D01*
X304148740Y-108370360D01*
X304172397Y-108369916D01*
X304595201Y-108369916D01*
X304618858Y-108370360D01*
G36*
X313816473Y-108397666D02*
G01*
X313865497Y-108401707D01*
X313888477Y-108404790D01*
X313910453Y-108408598D01*
X313931437Y-108413145D01*
X313951442Y-108418442D01*
X313970481Y-108424503D01*
X313988566Y-108431341D01*
X314005711Y-108438967D01*
X314021927Y-108447394D01*
X314037229Y-108456636D01*
X314051628Y-108466705D01*
X314065137Y-108477614D01*
X314077769Y-108489375D01*
X314089536Y-108502001D01*
X314100452Y-108515505D01*
X314110530Y-108529900D01*
X314119781Y-108545197D01*
X314128219Y-108561411D01*
X314135856Y-108578552D01*
X314142706Y-108596636D01*
X314148780Y-108615673D01*
X314154093Y-108635676D01*
X314158655Y-108656659D01*
X314162481Y-108678634D01*
X314165582Y-108701614D01*
X314169664Y-108750638D01*
X314171001Y-108803833D01*
X314171001Y-109290403D01*
X314169664Y-109343619D01*
X314165582Y-109392702D01*
X314162481Y-109415724D01*
X314158655Y-109437749D01*
X314154093Y-109458789D01*
X314148780Y-109478856D01*
X314142706Y-109497962D01*
X314135856Y-109516120D01*
X314128219Y-109533341D01*
X314119781Y-109549637D01*
X314110530Y-109565021D01*
X314100453Y-109579505D01*
X314089536Y-109593100D01*
X314077769Y-109605818D01*
X314065137Y-109617673D01*
X314051628Y-109628675D01*
X314037229Y-109638837D01*
X314021928Y-109648170D01*
X314005711Y-109656688D01*
X313988566Y-109664402D01*
X313970481Y-109671324D01*
X313951442Y-109677466D01*
X313931437Y-109682840D01*
X313910453Y-109687459D01*
X313888478Y-109691334D01*
X313865498Y-109694477D01*
X313816473Y-109698617D01*
X313763278Y-109699976D01*
X313118753Y-109699976D01*
X313118753Y-109425603D01*
X313742640Y-109425603D01*
X313763207Y-109425174D01*
X313781990Y-109423845D01*
X313790732Y-109422823D01*
X313799051Y-109421552D01*
X313806956Y-109420024D01*
X313814454Y-109418232D01*
X313821553Y-109416168D01*
X313828261Y-109413823D01*
X313834586Y-109411190D01*
X313840536Y-109408260D01*
X313846119Y-109405027D01*
X313851342Y-109401482D01*
X313856215Y-109397617D01*
X313860743Y-109393424D01*
X313864936Y-109388895D01*
X313868801Y-109384023D01*
X313872347Y-109378800D01*
X313875580Y-109373217D01*
X313878509Y-109367267D01*
X313881142Y-109360942D01*
X313883487Y-109354233D01*
X313885552Y-109347134D01*
X313887344Y-109339636D01*
X313888871Y-109331732D01*
X313890142Y-109323413D01*
X313891164Y-109314671D01*
X313892494Y-109295888D01*
X313892923Y-109275321D01*
X313892923Y-109177689D01*
X313118752Y-109177689D01*
X313118752Y-108903582D01*
X313892923Y-108903582D01*
X313892923Y-108821032D01*
X313892494Y-108800443D01*
X313891164Y-108781602D01*
X313888871Y-108764450D01*
X313887344Y-108756489D01*
X313885552Y-108748928D01*
X313883487Y-108741762D01*
X313881142Y-108734981D01*
X313878509Y-108728579D01*
X313875580Y-108722549D01*
X313872347Y-108716884D01*
X313868801Y-108711575D01*
X313864936Y-108706617D01*
X313860743Y-108702002D01*
X313856215Y-108697722D01*
X313851342Y-108693771D01*
X313846119Y-108690141D01*
X313840536Y-108686825D01*
X313834586Y-108683816D01*
X313828261Y-108681106D01*
X313821553Y-108678688D01*
X313814454Y-108676556D01*
X313806956Y-108674702D01*
X313799051Y-108673118D01*
X313790732Y-108671798D01*
X313781990Y-108670734D01*
X313763207Y-108669345D01*
X313742640Y-108668895D01*
X313118753Y-108668895D01*
X313118753Y-108396375D01*
X313763277Y-108396375D01*
X313816473Y-108397666D01*
G37*
X313816473Y-108397666D02*
X313865497Y-108401707D01*
X313888477Y-108404790D01*
X313910453Y-108408598D01*
X313931437Y-108413145D01*
X313951442Y-108418442D01*
X313970481Y-108424503D01*
X313988566Y-108431341D01*
X314005711Y-108438967D01*
X314021927Y-108447394D01*
X314037229Y-108456636D01*
X314051628Y-108466705D01*
X314065137Y-108477614D01*
X314077769Y-108489375D01*
X314089536Y-108502001D01*
X314100452Y-108515505D01*
X314110530Y-108529900D01*
X314119781Y-108545197D01*
X314128219Y-108561411D01*
X314135856Y-108578552D01*
X314142706Y-108596636D01*
X314148780Y-108615673D01*
X314154093Y-108635676D01*
X314158655Y-108656659D01*
X314162481Y-108678634D01*
X314165582Y-108701614D01*
X314169664Y-108750638D01*
X314171001Y-108803833D01*
X314171001Y-109290403D01*
X314169664Y-109343619D01*
X314165582Y-109392702D01*
X314162481Y-109415724D01*
X314158655Y-109437749D01*
X314154093Y-109458789D01*
X314148780Y-109478856D01*
X314142706Y-109497962D01*
X314135856Y-109516120D01*
X314128219Y-109533341D01*
X314119781Y-109549637D01*
X314110530Y-109565021D01*
X314100453Y-109579505D01*
X314089536Y-109593100D01*
X314077769Y-109605818D01*
X314065137Y-109617673D01*
X314051628Y-109628675D01*
X314037229Y-109638837D01*
X314021928Y-109648170D01*
X314005711Y-109656688D01*
X313988566Y-109664402D01*
X313970481Y-109671324D01*
X313951442Y-109677466D01*
X313931437Y-109682840D01*
X313910453Y-109687459D01*
X313888478Y-109691334D01*
X313865498Y-109694477D01*
X313816473Y-109698617D01*
X313763278Y-109699976D01*
X313118753Y-109699976D01*
X313118753Y-109425603D01*
X313742640Y-109425603D01*
X313763207Y-109425174D01*
X313781990Y-109423845D01*
X313790732Y-109422823D01*
X313799051Y-109421552D01*
X313806956Y-109420024D01*
X313814454Y-109418232D01*
X313821553Y-109416168D01*
X313828261Y-109413823D01*
X313834586Y-109411190D01*
X313840536Y-109408260D01*
X313846119Y-109405027D01*
X313851342Y-109401482D01*
X313856215Y-109397617D01*
X313860743Y-109393424D01*
X313864936Y-109388895D01*
X313868801Y-109384023D01*
X313872347Y-109378800D01*
X313875580Y-109373217D01*
X313878509Y-109367267D01*
X313881142Y-109360942D01*
X313883487Y-109354233D01*
X313885552Y-109347134D01*
X313887344Y-109339636D01*
X313888871Y-109331732D01*
X313890142Y-109323413D01*
X313891164Y-109314671D01*
X313892494Y-109295888D01*
X313892923Y-109275321D01*
X313892923Y-109177689D01*
X313118752Y-109177689D01*
X313118752Y-108903582D01*
X313892923Y-108903582D01*
X313892923Y-108821032D01*
X313892494Y-108800443D01*
X313891164Y-108781602D01*
X313888871Y-108764450D01*
X313887344Y-108756489D01*
X313885552Y-108748928D01*
X313883487Y-108741762D01*
X313881142Y-108734981D01*
X313878509Y-108728579D01*
X313875580Y-108722549D01*
X313872347Y-108716884D01*
X313868801Y-108711575D01*
X313864936Y-108706617D01*
X313860743Y-108702002D01*
X313856215Y-108697722D01*
X313851342Y-108693771D01*
X313846119Y-108690141D01*
X313840536Y-108686825D01*
X313834586Y-108683816D01*
X313828261Y-108681106D01*
X313821553Y-108678688D01*
X313814454Y-108676556D01*
X313806956Y-108674702D01*
X313799051Y-108673118D01*
X313790732Y-108671798D01*
X313781990Y-108670734D01*
X313763207Y-108669345D01*
X313742640Y-108668895D01*
X313118753Y-108668895D01*
X313118753Y-108396375D01*
X313763277Y-108396375D01*
X313816473Y-108397666D01*
G36*
X303089310Y-104806398D02*
G01*
X303105143Y-104815384D01*
X303121088Y-104824190D01*
X303137150Y-104832801D01*
X303153336Y-104841201D01*
X303169652Y-104849375D01*
X303186104Y-104857307D01*
X303202699Y-104864982D01*
X303243193Y-104882747D01*
X303286990Y-104900448D01*
X303310081Y-104909052D01*
X303333943Y-104917373D01*
X303358557Y-104925324D01*
X303383906Y-104932814D01*
X303409971Y-104939755D01*
X303436735Y-104946059D01*
X303464178Y-104951637D01*
X303492282Y-104956399D01*
X303521030Y-104960258D01*
X303550403Y-104963124D01*
X303580383Y-104964909D01*
X303610951Y-104965523D01*
X303638494Y-104965016D01*
X303665944Y-104963498D01*
X303693282Y-104960975D01*
X303720490Y-104957453D01*
X303747549Y-104952940D01*
X303774440Y-104947440D01*
X303801145Y-104940961D01*
X303827646Y-104933507D01*
X303865627Y-104921321D01*
X303902006Y-104908198D01*
X303936815Y-104894170D01*
X303970090Y-104879268D01*
X304001864Y-104863522D01*
X304032172Y-104846964D01*
X304061047Y-104829624D01*
X304088524Y-104811535D01*
X304606844Y-107603684D01*
X303594282Y-107603684D01*
X303073582Y-104797248D01*
X303089310Y-104806398D01*
G37*
X303089310Y-104806398D02*
X303105143Y-104815384D01*
X303121088Y-104824190D01*
X303137150Y-104832801D01*
X303153336Y-104841201D01*
X303169652Y-104849375D01*
X303186104Y-104857307D01*
X303202699Y-104864982D01*
X303243193Y-104882747D01*
X303286990Y-104900448D01*
X303310081Y-104909052D01*
X303333943Y-104917373D01*
X303358557Y-104925324D01*
X303383906Y-104932814D01*
X303409971Y-104939755D01*
X303436735Y-104946059D01*
X303464178Y-104951637D01*
X303492282Y-104956399D01*
X303521030Y-104960258D01*
X303550403Y-104963124D01*
X303580383Y-104964909D01*
X303610951Y-104965523D01*
X303638494Y-104965016D01*
X303665944Y-104963498D01*
X303693282Y-104960975D01*
X303720490Y-104957453D01*
X303747549Y-104952940D01*
X303774440Y-104947440D01*
X303801145Y-104940961D01*
X303827646Y-104933507D01*
X303865627Y-104921321D01*
X303902006Y-104908198D01*
X303936815Y-104894170D01*
X303970090Y-104879268D01*
X304001864Y-104863522D01*
X304032172Y-104846964D01*
X304061047Y-104829624D01*
X304088524Y-104811535D01*
X304606844Y-107603684D01*
X303594282Y-107603684D01*
X303073582Y-104797248D01*
X303089310Y-104806398D01*
G36*
X301355644Y-109700242D02*
G01*
X301077566Y-109700242D01*
X301077566Y-108396373D01*
X301355644Y-108396373D01*
X301355644Y-109700242D01*
G37*
X301355644Y-109700242D02*
X301077566Y-109700242D01*
X301077566Y-108396373D01*
X301355644Y-108396373D01*
X301355644Y-109700242D01*
M02*
