G04 #@! TF.GenerationSoftware,KiCad,Pcbnew,(6.0.7)*
G04 #@! TF.CreationDate,2022-09-28T14:11:08+03:00*
G04 #@! TF.ProjectId,dock_rs232,646f636b-5f72-4733-9233-322e6b696361,rev?*
G04 #@! TF.SameCoordinates,Original*
G04 #@! TF.FileFunction,Soldermask,Bot*
G04 #@! TF.FilePolarity,Negative*
%FSLAX46Y46*%
G04 Gerber Fmt 4.6, Leading zero omitted, Abs format (unit mm)*
G04 Created by KiCad (PCBNEW (6.0.7)) date 2022-09-28 14:11:08*
%MOMM*%
%LPD*%
G01*
G04 APERTURE LIST*
G04 Aperture macros list*
%AMRoundRect*
0 Rectangle with rounded corners*
0 $1 Rounding radius*
0 $2 $3 $4 $5 $6 $7 $8 $9 X,Y pos of 4 corners*
0 Add a 4 corners polygon primitive as box body*
4,1,4,$2,$3,$4,$5,$6,$7,$8,$9,$2,$3,0*
0 Add four circle primitives for the rounded corners*
1,1,$1+$1,$2,$3*
1,1,$1+$1,$4,$5*
1,1,$1+$1,$6,$7*
1,1,$1+$1,$8,$9*
0 Add four rect primitives between the rounded corners*
20,1,$1+$1,$2,$3,$4,$5,0*
20,1,$1+$1,$4,$5,$6,$7,0*
20,1,$1+$1,$6,$7,$8,$9,0*
20,1,$1+$1,$8,$9,$2,$3,0*%
G04 Aperture macros list end*
%ADD10R,1.400000X1.200000*%
%ADD11R,1.639799X0.431000*%
%ADD12R,1.715000X0.760000*%
%ADD13RoundRect,0.135000X0.185000X-0.135000X0.185000X0.135000X-0.185000X0.135000X-0.185000X-0.135000X0*%
%ADD14RoundRect,0.135000X0.135000X0.185000X-0.135000X0.185000X-0.135000X-0.185000X0.135000X-0.185000X0*%
%ADD15RoundRect,0.135000X-0.135000X-0.185000X0.135000X-0.185000X0.135000X0.185000X-0.135000X0.185000X0*%
%ADD16RoundRect,0.200000X-0.200000X-0.275000X0.200000X-0.275000X0.200000X0.275000X-0.200000X0.275000X0*%
%ADD17RoundRect,0.200000X0.200000X0.275000X-0.200000X0.275000X-0.200000X-0.275000X0.200000X-0.275000X0*%
%ADD18R,1.300000X1.200000*%
%ADD19R,1.800000X1.800000*%
%ADD20C,1.800000*%
%ADD21C,0.635000*%
%ADD22R,0.900000X0.300000*%
%ADD23R,0.300000X0.900000*%
%ADD24R,6.000000X6.000000*%
%ADD25R,0.500000X1.150000*%
%ADD26RoundRect,0.218750X0.218750X0.256250X-0.218750X0.256250X-0.218750X-0.256250X0.218750X-0.256250X0*%
%ADD27R,0.675000X0.250000*%
%ADD28R,0.775000X0.400000*%
%ADD29R,2.350000X2.450000*%
%ADD30RoundRect,0.250000X-0.475000X0.250000X-0.475000X-0.250000X0.475000X-0.250000X0.475000X0.250000X0*%
%ADD31RoundRect,0.250000X-0.250000X-0.475000X0.250000X-0.475000X0.250000X0.475000X-0.250000X0.475000X0*%
%ADD32RoundRect,0.250000X-1.100000X0.325000X-1.100000X-0.325000X1.100000X-0.325000X1.100000X0.325000X0*%
%ADD33RoundRect,0.140000X0.140000X0.170000X-0.140000X0.170000X-0.140000X-0.170000X0.140000X-0.170000X0*%
%ADD34RoundRect,0.140000X-0.170000X0.140000X-0.170000X-0.140000X0.170000X-0.140000X0.170000X0.140000X0*%
%ADD35RoundRect,0.140000X-0.140000X-0.170000X0.140000X-0.170000X0.140000X0.170000X-0.140000X0.170000X0*%
%ADD36RoundRect,0.225000X-0.250000X0.225000X-0.250000X-0.225000X0.250000X-0.225000X0.250000X0.225000X0*%
%ADD37C,2.800000*%
%ADD38C,2.000000*%
%ADD39C,9.000000*%
%ADD40C,11.200000*%
%ADD41R,1.700000X1.700000*%
%ADD42O,1.700000X1.700000*%
%ADD43R,1.350000X1.350000*%
%ADD44O,1.350000X1.350000*%
G04 APERTURE END LIST*
D10*
X242515919Y-99097354D03*
X240315919Y-99097354D03*
X240315919Y-97397354D03*
X242515919Y-97397354D03*
X273385919Y-99657354D03*
X271185919Y-99657354D03*
X271185919Y-97957354D03*
X273385919Y-97957354D03*
D11*
X258748119Y-101712355D03*
X258748119Y-102362353D03*
X258748119Y-103012355D03*
X258748119Y-103662353D03*
X258748119Y-104312352D03*
X258748119Y-104962353D03*
X258748119Y-105612352D03*
X258748119Y-106262353D03*
X251483719Y-106262353D03*
X251483719Y-105612355D03*
X251483719Y-104962353D03*
X251483719Y-104312355D03*
X251483719Y-103662356D03*
X251483719Y-103012355D03*
X251483719Y-102362356D03*
X251483719Y-101712355D03*
X258769019Y-109294855D03*
X258769019Y-109944853D03*
X258769019Y-110594855D03*
X258769019Y-111244853D03*
X258769019Y-111894852D03*
X258769019Y-112544853D03*
X258769019Y-113194852D03*
X258769019Y-113844853D03*
X251504619Y-113844853D03*
X251504619Y-113194855D03*
X251504619Y-112544853D03*
X251504619Y-111894855D03*
X251504619Y-111244856D03*
X251504619Y-110594855D03*
X251504619Y-109944856D03*
X251504619Y-109294855D03*
D12*
X230023919Y-103077354D03*
X230023919Y-104347354D03*
X230023919Y-105617354D03*
X230023919Y-109427354D03*
X230023919Y-110697354D03*
X230023919Y-111967354D03*
X221577919Y-111967354D03*
X221577919Y-110697354D03*
X221577919Y-109427354D03*
X221577919Y-105617354D03*
X221577919Y-104347354D03*
X221577919Y-103077354D03*
D13*
X232905919Y-107807354D03*
X232905919Y-106787354D03*
X234665919Y-107812354D03*
X234665919Y-106792354D03*
D14*
X233455919Y-112207354D03*
X232435919Y-112207354D03*
X233455919Y-110477354D03*
X232435919Y-110477354D03*
D15*
X242725919Y-102827354D03*
X243745919Y-102827354D03*
X236610919Y-103302354D03*
X237630919Y-103302354D03*
D13*
X246130919Y-100802354D03*
X246130919Y-99782354D03*
D16*
X349090919Y-107607354D03*
X350740919Y-107607354D03*
D17*
X350740919Y-109107354D03*
X349090919Y-109107354D03*
D18*
X354105919Y-101317354D03*
X354105919Y-103017354D03*
D19*
X356405919Y-108117354D03*
D20*
X356405919Y-110657354D03*
D19*
X322275919Y-110292354D03*
D20*
X324815919Y-110292354D03*
D21*
X345855919Y-98867354D03*
X344585919Y-98867354D03*
X343315919Y-98867354D03*
X342045919Y-98867354D03*
X340775919Y-98867354D03*
X339505919Y-98867354D03*
X338235919Y-98867354D03*
X336965919Y-98867354D03*
X335695919Y-98867354D03*
X334425919Y-98867354D03*
X333155919Y-98867354D03*
X345855919Y-100137354D03*
X344585919Y-100137354D03*
X343315919Y-100137354D03*
X342045919Y-100137354D03*
X340775919Y-100137354D03*
X339505919Y-100137354D03*
X338235919Y-100137354D03*
X336965919Y-100137354D03*
X335695919Y-100137354D03*
X334425919Y-100137354D03*
X333155919Y-100137354D03*
X345855919Y-101407354D03*
X344585919Y-101407354D03*
X343315919Y-101407354D03*
X342045919Y-101407354D03*
X340775919Y-101407354D03*
X339505919Y-101407354D03*
X338235919Y-101407354D03*
X336965919Y-101407354D03*
X335695919Y-101407354D03*
X334425919Y-101407354D03*
X333155919Y-101407354D03*
X345855919Y-102677354D03*
X344585919Y-102677354D03*
X343315919Y-102677354D03*
X342045919Y-102677354D03*
X340775919Y-102677354D03*
X339505919Y-102677354D03*
X338235919Y-102677354D03*
X336965919Y-102677354D03*
X335695919Y-102677354D03*
X334425919Y-102677354D03*
X333155919Y-102677354D03*
X345855919Y-103947354D03*
X344585919Y-103947354D03*
X343315919Y-103947354D03*
X342045919Y-103947354D03*
X340775919Y-103947354D03*
X339505919Y-103947354D03*
X338235919Y-103947354D03*
X336965919Y-103947354D03*
X335695919Y-103947354D03*
X334425919Y-103947354D03*
X333155919Y-103947354D03*
X345855919Y-105217354D03*
X344585919Y-105217354D03*
X343315919Y-105217354D03*
X342045919Y-105217354D03*
X340775919Y-105217354D03*
X339505919Y-105217354D03*
X338235919Y-105217354D03*
X336965919Y-105217354D03*
X335695919Y-105217354D03*
X334425919Y-105217354D03*
X333155919Y-105217354D03*
X345855919Y-106487354D03*
X344585919Y-106487354D03*
X343315919Y-106487354D03*
X342045919Y-106487354D03*
X340775919Y-106487354D03*
X339505919Y-106487354D03*
X338235919Y-106487354D03*
X336965919Y-106487354D03*
X335695919Y-106487354D03*
X334425919Y-106487354D03*
X333155919Y-106487354D03*
X345855919Y-107757354D03*
X344585919Y-107757354D03*
X343315919Y-107757354D03*
X342045919Y-107757354D03*
X340775919Y-107757354D03*
X339505919Y-107757354D03*
X338235919Y-107757354D03*
X336965919Y-107757354D03*
X335695919Y-107757354D03*
X334425919Y-107757354D03*
X333155919Y-107757354D03*
X345855919Y-109027354D03*
X344585919Y-109027354D03*
X343315919Y-109027354D03*
X342045919Y-109027354D03*
X340775919Y-109027354D03*
X339505919Y-109027354D03*
X338235919Y-109027354D03*
X336965919Y-109027354D03*
X335695919Y-109027354D03*
X334425919Y-109027354D03*
X333155919Y-109027354D03*
X345855919Y-110297354D03*
X344585919Y-110297354D03*
X343315919Y-110297354D03*
X342045919Y-110297354D03*
X340775919Y-110297354D03*
X339505919Y-110297354D03*
X338235919Y-110297354D03*
X336965919Y-110297354D03*
X335695919Y-110297354D03*
X334425919Y-110297354D03*
X333155919Y-110297354D03*
X345855919Y-111567354D03*
X344585919Y-111567354D03*
X343315919Y-111567354D03*
X342045919Y-111567354D03*
X340775919Y-111567354D03*
X339505919Y-111567354D03*
X338235919Y-111567354D03*
X336965919Y-111567354D03*
X335695919Y-111567354D03*
X334425919Y-111567354D03*
X333155919Y-111567354D03*
D22*
X238925919Y-112097354D03*
X238925919Y-111597354D03*
X238925919Y-111097354D03*
X238925919Y-110597354D03*
X238925919Y-110097354D03*
X238925919Y-109597354D03*
X238925919Y-109097354D03*
X238925919Y-108597354D03*
X238925919Y-108097354D03*
X238925919Y-107597354D03*
X238925919Y-107097354D03*
X238925919Y-106597354D03*
X238925919Y-106097354D03*
X238925919Y-105597354D03*
D23*
X239625919Y-104897354D03*
X240125919Y-104897354D03*
X240625919Y-104897354D03*
X241125919Y-104897354D03*
X241625919Y-104897354D03*
X242125919Y-104897354D03*
X242625919Y-104897354D03*
X243125919Y-104897354D03*
X243625919Y-104897354D03*
X244125919Y-104897354D03*
X244625919Y-104897354D03*
X245125919Y-104897354D03*
X245625919Y-104897354D03*
X246125919Y-104897354D03*
D22*
X246825919Y-105597354D03*
X246825919Y-106097354D03*
X246825919Y-106597354D03*
X246825919Y-107097354D03*
X246825919Y-107597354D03*
X246825919Y-108097354D03*
X246825919Y-108597354D03*
X246825919Y-109097354D03*
X246825919Y-109597354D03*
X246825919Y-110097354D03*
X246825919Y-110597354D03*
X246825919Y-111097354D03*
X246825919Y-111597354D03*
X246825919Y-112097354D03*
D23*
X246125919Y-112797354D03*
X245625919Y-112797354D03*
X245125919Y-112797354D03*
X244625919Y-112797354D03*
X244125919Y-112797354D03*
X243625919Y-112797354D03*
X243125919Y-112797354D03*
X242625919Y-112797354D03*
X242125919Y-112797354D03*
X241625919Y-112797354D03*
X241125919Y-112797354D03*
X240625919Y-112797354D03*
X240125919Y-112797354D03*
X239625919Y-112797354D03*
D24*
X242875919Y-108847354D03*
D25*
X248690919Y-101762354D03*
X247390919Y-101762354D03*
X248040919Y-99862354D03*
D26*
X236218419Y-114002354D03*
X234643419Y-114002354D03*
D27*
X236176419Y-109592354D03*
X236176419Y-110092354D03*
D28*
X236126419Y-110592354D03*
D27*
X236176419Y-111092354D03*
X236176419Y-111592354D03*
X235301419Y-111592354D03*
X235301419Y-111092354D03*
D28*
X235351419Y-110592354D03*
D27*
X235301419Y-110092354D03*
X235301419Y-109592354D03*
D29*
X352505919Y-97917354D03*
X358705919Y-97917354D03*
D30*
X349195919Y-96357354D03*
X349195919Y-98257354D03*
D31*
X351905919Y-104867354D03*
X353805919Y-104867354D03*
D32*
X328330919Y-102917354D03*
X328330919Y-105867354D03*
X325055919Y-102917354D03*
X325055919Y-105867354D03*
D33*
X261395919Y-104247354D03*
X260435919Y-104247354D03*
X261410919Y-101867354D03*
X260450919Y-101867354D03*
X261405919Y-105207354D03*
X260445919Y-105207354D03*
D34*
X251505919Y-99487354D03*
X251505919Y-100447354D03*
D35*
X260445919Y-102842354D03*
X261405919Y-102842354D03*
D34*
X240070919Y-102212354D03*
X240070919Y-103172354D03*
D35*
X235770919Y-107662354D03*
X236730919Y-107662354D03*
X236630919Y-104802354D03*
X237590919Y-104802354D03*
D33*
X248510919Y-103102354D03*
X247550919Y-103102354D03*
D35*
X240180919Y-101257354D03*
X241140919Y-101257354D03*
D33*
X243025919Y-101257354D03*
X242065919Y-101257354D03*
D34*
X248155919Y-107657354D03*
X248155919Y-108617354D03*
X244915919Y-102222354D03*
X244915919Y-103182354D03*
D33*
X261405919Y-111887354D03*
X260445919Y-111887354D03*
X261415919Y-109567354D03*
X260455919Y-109567354D03*
X261405919Y-112837354D03*
X260445919Y-112837354D03*
D35*
X250575919Y-107967354D03*
X251535919Y-107967354D03*
X260465919Y-110537354D03*
X261425919Y-110537354D03*
X271105919Y-101857354D03*
X272065919Y-101857354D03*
D33*
X273935919Y-101847354D03*
X272975919Y-101847354D03*
D36*
X304005919Y-97717354D03*
X304005919Y-99267354D03*
X305505919Y-97717354D03*
X305505919Y-99267354D03*
D37*
X216105919Y-113833157D03*
X329105919Y-113833157D03*
D38*
X295755031Y-104537243D03*
X293215031Y-104537243D03*
X303375031Y-101997243D03*
X305915031Y-101997243D03*
X316075031Y-101997243D03*
X303375031Y-104537243D03*
X308455031Y-104537243D03*
D37*
X372105919Y-113833157D03*
D38*
X310995031Y-104537243D03*
X298295031Y-104537243D03*
X310995031Y-101997243D03*
X295755031Y-101997243D03*
X300835031Y-104537243D03*
X298295031Y-101997243D03*
D37*
X285105919Y-96717354D03*
D38*
X318615031Y-101997243D03*
X321154998Y-101997354D03*
X308455031Y-101997243D03*
X300835031Y-101997243D03*
X316075031Y-104537243D03*
X318615031Y-104537243D03*
X313535031Y-104537243D03*
X313535031Y-101997243D03*
X293215031Y-101997243D03*
D37*
X372105919Y-96717354D03*
D38*
X321155031Y-104537243D03*
D37*
X285105919Y-113833157D03*
D38*
X305915031Y-104537243D03*
D39*
X366925919Y-103687354D03*
D40*
X366925919Y-103687354D03*
D37*
X329105919Y-96717354D03*
X216105919Y-96717354D03*
D41*
X236380919Y-97617354D03*
D42*
X233840919Y-97617354D03*
D41*
X230205919Y-97617354D03*
D42*
X227665919Y-97617354D03*
X225125919Y-97617354D03*
X222585919Y-97617354D03*
X220045919Y-97617354D03*
D43*
X217405919Y-102707354D03*
D44*
X217405919Y-104707354D03*
X217405919Y-106707354D03*
X217405919Y-108707354D03*
X217405919Y-110707354D03*
M02*
