M48
INCH,TZ
T1C0.0118
T2C0.0177
%
G90
G05
T1
X91105Y-43078
X109077Y-43172
X109372Y-43172
X109652Y-43164
X109652Y-43448
X109761Y-39849
X109987Y-42822
X109989Y-42432
X110522Y-40477
X110522Y-40871
X110758Y-40635
X112582Y-42644
X114530Y-43078
X114530Y-44495
X114530Y-44731
X114766Y-43078
X114766Y-44495
X114766Y-44731
X114924Y-43314
X114924Y-43550
X114924Y-43786
X114924Y-44023
X114924Y-44259
X115002Y-43078
X115002Y-44495
X115002Y-44731
X115160Y-43314
X115160Y-43550
X115160Y-43786
X115160Y-44023
X115160Y-44259
X115239Y-43078
X115239Y-44495
X115239Y-44731
X115475Y-43078
X115475Y-44495
X115475Y-44731
X121872Y-38038
X121872Y-38275
X121872Y-38511
X121872Y-38747
X121872Y-38983
X122109Y-38038
X122109Y-38275
X122109Y-38511
X122109Y-38747
X122109Y-38983
X122345Y-38038
X122345Y-38275
X122345Y-38511
X122345Y-38747
X122345Y-38983
X122581Y-38038
X122581Y-38747
X122581Y-38983
T2
X105282Y-42215
X105802Y-40296
X106183Y-43708
X108392Y-39938
X109371Y-41798
X111335Y-41676
X111339Y-42061
X125368Y-42782
X125412Y-44373
X138431Y-42649
T0
M30
