G04 #@! TF.GenerationSoftware,KiCad,Pcbnew,(6.0.7)*
G04 #@! TF.CreationDate,2022-09-28T14:11:07+03:00*
G04 #@! TF.ProjectId,dock_rs232,646f636b-5f72-4733-9233-322e6b696361,rev?*
G04 #@! TF.SameCoordinates,Original*
G04 #@! TF.FileFunction,Copper,L5,Inr*
G04 #@! TF.FilePolarity,Positive*
%FSLAX46Y46*%
G04 Gerber Fmt 4.6, Leading zero omitted, Abs format (unit mm)*
G04 Created by KiCad (PCBNEW (6.0.7)) date 2022-09-28 14:11:07*
%MOMM*%
%LPD*%
G01*
G04 APERTURE LIST*
G04 #@! TA.AperFunction,ComponentPad*
%ADD10R,1.800000X1.800000*%
G04 #@! TD*
G04 #@! TA.AperFunction,ComponentPad*
%ADD11C,1.800000*%
G04 #@! TD*
G04 #@! TA.AperFunction,ComponentPad*
%ADD12C,2.800000*%
G04 #@! TD*
G04 #@! TA.AperFunction,ComponentPad*
%ADD13C,2.000000*%
G04 #@! TD*
G04 #@! TA.AperFunction,ComponentPad*
%ADD14C,11.200000*%
G04 #@! TD*
G04 #@! TA.AperFunction,ComponentPad*
%ADD15R,1.700000X1.700000*%
G04 #@! TD*
G04 #@! TA.AperFunction,ComponentPad*
%ADD16O,1.700000X1.700000*%
G04 #@! TD*
G04 #@! TA.AperFunction,ComponentPad*
%ADD17R,1.350000X1.350000*%
G04 #@! TD*
G04 #@! TA.AperFunction,ComponentPad*
%ADD18O,1.350000X1.350000*%
G04 #@! TD*
G04 #@! TA.AperFunction,ViaPad*
%ADD19C,0.400000*%
G04 #@! TD*
G04 #@! TA.AperFunction,ViaPad*
%ADD20C,0.600000*%
G04 #@! TD*
G04 #@! TA.AperFunction,ViaPad*
%ADD21C,0.500000*%
G04 #@! TD*
G04 #@! TA.AperFunction,Conductor*
%ADD22C,0.304800*%
G04 #@! TD*
G04 APERTURE END LIST*
D10*
X356405919Y-108117354D03*
D11*
X356405919Y-110657354D03*
D10*
X322275919Y-110292354D03*
D11*
X324815919Y-110292354D03*
D12*
X216105919Y-113833157D03*
X329105919Y-113833157D03*
D13*
X295755031Y-104537243D03*
X293215031Y-104537243D03*
X303375031Y-101997243D03*
X305915031Y-101997243D03*
X316075031Y-101997243D03*
X303375031Y-104537243D03*
X308455031Y-104537243D03*
D12*
X372105919Y-113833157D03*
D13*
X310995031Y-104537243D03*
X298295031Y-104537243D03*
X310995031Y-101997243D03*
X295755031Y-101997243D03*
X300835031Y-104537243D03*
X298295031Y-101997243D03*
D12*
X285105919Y-96717354D03*
D13*
X318615031Y-101997243D03*
X321154998Y-101997354D03*
X308455031Y-101997243D03*
X300835031Y-101997243D03*
X316075031Y-104537243D03*
X318615031Y-104537243D03*
X313535031Y-104537243D03*
X313535031Y-101997243D03*
X293215031Y-101997243D03*
D12*
X372105919Y-96717354D03*
D13*
X321155031Y-104537243D03*
D12*
X285105919Y-113833157D03*
D13*
X305915031Y-104537243D03*
D14*
X366925919Y-103687354D03*
D12*
X329105919Y-96717354D03*
X216105919Y-96717354D03*
D15*
X236380919Y-97617354D03*
D16*
X233840919Y-97617354D03*
D15*
X230205919Y-97617354D03*
D16*
X227665919Y-97617354D03*
X225125919Y-97617354D03*
X222585919Y-97617354D03*
X220045919Y-97617354D03*
D17*
X217405919Y-102707354D03*
D18*
X217405919Y-104707354D03*
X217405919Y-106707354D03*
X217405919Y-108707354D03*
X217405919Y-110707354D03*
D19*
X363305919Y-97417354D03*
X367505919Y-113617354D03*
X324705919Y-101217354D03*
X324705919Y-114817354D03*
X357905919Y-111217354D03*
X370505919Y-109417354D03*
X322305919Y-107217354D03*
X351505919Y-95617354D03*
X363905919Y-114217354D03*
X365105919Y-112417354D03*
X352505919Y-113017354D03*
X351905919Y-111817354D03*
X361505919Y-113017354D03*
X350105919Y-113017354D03*
X360705919Y-100417354D03*
D20*
X262305919Y-114617354D03*
D19*
X361505919Y-97417354D03*
X353705919Y-113617354D03*
X365705919Y-113017354D03*
X322905919Y-100017354D03*
X322305919Y-113017354D03*
X372905919Y-106417354D03*
X336355919Y-100867354D03*
X321105919Y-98217354D03*
X369905919Y-98017354D03*
X344105919Y-114817354D03*
X334105919Y-96417354D03*
X321105919Y-100617354D03*
X368105919Y-110617354D03*
X328305919Y-99417354D03*
X321105919Y-106017354D03*
X325905919Y-113617354D03*
D20*
X271411722Y-105137354D03*
D19*
X325305919Y-100017354D03*
X340105919Y-104617354D03*
X335105919Y-113617354D03*
X322905919Y-107817354D03*
X324105919Y-114817354D03*
X360905919Y-97417354D03*
X367505919Y-96217354D03*
X350105919Y-112417354D03*
X370505919Y-97417354D03*
X342305919Y-113617354D03*
X328305919Y-100017354D03*
X354305919Y-113617354D03*
X354905919Y-111217354D03*
X365705919Y-95617354D03*
X365105919Y-110617354D03*
X321705919Y-108417354D03*
X334105919Y-95817354D03*
X354905919Y-113017354D03*
X319905919Y-113617354D03*
X332305919Y-98217354D03*
X351905919Y-113617354D03*
X356105919Y-112417354D03*
D20*
X267191722Y-95717354D03*
D19*
X350105919Y-104617354D03*
X341105919Y-114817354D03*
X354305919Y-111817354D03*
X360905919Y-112417354D03*
X361505919Y-95617354D03*
X357105919Y-101617354D03*
X325305919Y-100617354D03*
X358905919Y-101017354D03*
X329505919Y-101217354D03*
X330305919Y-100017354D03*
X325305919Y-113617354D03*
X351305919Y-111217354D03*
X360305919Y-98017354D03*
X355905919Y-101017354D03*
X362105919Y-108817354D03*
X361505919Y-110017354D03*
X367505919Y-110017354D03*
X325905919Y-97617354D03*
X347105919Y-114217354D03*
X319905919Y-114217354D03*
X343505919Y-114817354D03*
X348305919Y-112417354D03*
X360905919Y-95617354D03*
X329505919Y-100017354D03*
X366305919Y-113617354D03*
X370505919Y-95617354D03*
X341355919Y-104617354D03*
X333505919Y-97017354D03*
X356105919Y-111817354D03*
X345905919Y-112417354D03*
X325905919Y-114217354D03*
X337505919Y-114217354D03*
X327105919Y-101817354D03*
X330905919Y-102417354D03*
D20*
X240535919Y-111187354D03*
D19*
X363305919Y-114217354D03*
X326505919Y-113017354D03*
X321105919Y-114217354D03*
X360905919Y-111817354D03*
X326505919Y-95817354D03*
X367505919Y-112417354D03*
X321705919Y-106017354D03*
X335105919Y-100867354D03*
X321105919Y-98817354D03*
X327105919Y-114217354D03*
X346505919Y-111217354D03*
X352505919Y-110017354D03*
X325305919Y-114217354D03*
X348905919Y-113017354D03*
X372305919Y-108817354D03*
X349505919Y-110017354D03*
D20*
X249905919Y-107967354D03*
D19*
X321705919Y-114817354D03*
X363905919Y-96217354D03*
X353705919Y-112417354D03*
X349505919Y-104017354D03*
X365705919Y-113617354D03*
X343105919Y-95817354D03*
X359105919Y-112417354D03*
X336355919Y-107117354D03*
X338705919Y-114217354D03*
X355705919Y-95617354D03*
X360305919Y-96817354D03*
X366905919Y-111817354D03*
X366905919Y-96217354D03*
X337605919Y-105867354D03*
X369305919Y-110617354D03*
X363905919Y-111217354D03*
X363305919Y-96217354D03*
X333305919Y-114817354D03*
X336355919Y-105867354D03*
X334705919Y-96417354D03*
X321705919Y-96417354D03*
X368105919Y-112417354D03*
X325905919Y-99417354D03*
X322305919Y-97017354D03*
X360705919Y-103617354D03*
X348905919Y-110617354D03*
X369305919Y-98017354D03*
X348905919Y-114817354D03*
X361505919Y-96217354D03*
X319905919Y-114817354D03*
X344705919Y-114817354D03*
X351905919Y-110017354D03*
X361305919Y-100417354D03*
X325905919Y-97017354D03*
X359505919Y-101617354D03*
X369305919Y-109417354D03*
X321705919Y-100617354D03*
X340105919Y-103367354D03*
X349505919Y-105217354D03*
X372305919Y-98617354D03*
X362105919Y-113617354D03*
X337605919Y-102117354D03*
X338305919Y-96417354D03*
X352505919Y-112417354D03*
X354305919Y-111217354D03*
X357905919Y-114817354D03*
X325305919Y-97017354D03*
D20*
X308855919Y-107617354D03*
D19*
X364505919Y-96217354D03*
X322305919Y-99417354D03*
X329505919Y-99417354D03*
X344105919Y-114217354D03*
X322305919Y-98217354D03*
X331505919Y-101217354D03*
X321705919Y-107817354D03*
X322305919Y-103017354D03*
X322305919Y-105417354D03*
X362705919Y-98017354D03*
X327105919Y-113617354D03*
X354305919Y-110617354D03*
X359705919Y-110017354D03*
X353105919Y-110017354D03*
X326505919Y-114817354D03*
X338105919Y-114817354D03*
X335705919Y-114817354D03*
X363905919Y-110017354D03*
X321105919Y-97617354D03*
X368705919Y-113017354D03*
X350705919Y-105217354D03*
X353105919Y-113017354D03*
X371705919Y-99817354D03*
X368705919Y-110017354D03*
X372305919Y-108217354D03*
X357305919Y-114817354D03*
X324105919Y-97617354D03*
X331505919Y-102417354D03*
D20*
X225855919Y-95667354D03*
D19*
X341705919Y-114217354D03*
X321705919Y-97617354D03*
X365105919Y-98017354D03*
X354905919Y-110017354D03*
X338705919Y-114817354D03*
X324705919Y-114217354D03*
X341355919Y-105867354D03*
X355505919Y-112417354D03*
X362705919Y-114817354D03*
X347705919Y-114817354D03*
X325305919Y-95817354D03*
X372905919Y-103417354D03*
X348905919Y-111217354D03*
X367505919Y-97417354D03*
X324105919Y-113017354D03*
X323505919Y-114217354D03*
X372905919Y-101617354D03*
X339905919Y-113617354D03*
X371105919Y-99217354D03*
X322905919Y-114217354D03*
X362705919Y-113017354D03*
X321105919Y-113617354D03*
X324705919Y-98217354D03*
X360905919Y-98017354D03*
X338855919Y-107117354D03*
X347105919Y-110017354D03*
X363905919Y-95617354D03*
X336305919Y-114817354D03*
X364505919Y-113617354D03*
X325905919Y-114817354D03*
X349505919Y-113617354D03*
X359505919Y-99817354D03*
X372905919Y-104617354D03*
X350105919Y-110617354D03*
X365705919Y-114217354D03*
X332305919Y-96417354D03*
X371705919Y-111217354D03*
X366905919Y-97417354D03*
X330305919Y-103617354D03*
X368105919Y-96217354D03*
X337605919Y-103367354D03*
X362105919Y-108217354D03*
X333905919Y-114217354D03*
X324105919Y-98817354D03*
X323505919Y-100017354D03*
X343855919Y-104617354D03*
X347705919Y-110017354D03*
X347105919Y-111217354D03*
X369305919Y-114817354D03*
X366905919Y-110617354D03*
X368705919Y-95617354D03*
X335305919Y-97617354D03*
X366305919Y-112417354D03*
X337605919Y-99617354D03*
X327705919Y-100017354D03*
X342605919Y-109617354D03*
D20*
X242180919Y-106517354D03*
D19*
X320505919Y-113017354D03*
X342505919Y-96417354D03*
X350105919Y-113617354D03*
X368105919Y-96817354D03*
X367505919Y-114217354D03*
D20*
X274271722Y-105137354D03*
D19*
X369305919Y-96817354D03*
X358905919Y-101617354D03*
D20*
X304255919Y-114617354D03*
D19*
X360905919Y-107017354D03*
X339305919Y-113617354D03*
X365105919Y-114817354D03*
X369905919Y-97417354D03*
X369905919Y-110017354D03*
X337605919Y-100867354D03*
X337705919Y-97017354D03*
X355105919Y-95617354D03*
X369305919Y-111217354D03*
X372305919Y-110617354D03*
X347305919Y-95817354D03*
X372905919Y-110617354D03*
X340705919Y-96417354D03*
X321105919Y-113017354D03*
X362105919Y-96217354D03*
D20*
X224105919Y-114867354D03*
D19*
X337705919Y-95817354D03*
X331505919Y-100617354D03*
X322305919Y-109017354D03*
D20*
X253055919Y-102367354D03*
D19*
X325305919Y-98217354D03*
X360905919Y-108817354D03*
X322905919Y-97017354D03*
X323505919Y-98817354D03*
X356505919Y-101617354D03*
X368105919Y-95617354D03*
X353705919Y-111217354D03*
X327705919Y-99417354D03*
X353105919Y-112417354D03*
X368705919Y-114817354D03*
X351305919Y-112417354D03*
X372905919Y-108817354D03*
X353705919Y-113017354D03*
X347105919Y-113617354D03*
X372305919Y-111817354D03*
X371105919Y-109417354D03*
X336905919Y-114217354D03*
X336905919Y-113617354D03*
X339305919Y-114817354D03*
X322305919Y-100617354D03*
X342505919Y-95817354D03*
X333855919Y-98217354D03*
X359105919Y-113617354D03*
X337505919Y-114817354D03*
X360905919Y-99217354D03*
X324705919Y-98817354D03*
X368705919Y-97417354D03*
X350905919Y-95617354D03*
X372305919Y-99217354D03*
X327105919Y-98217354D03*
X320505919Y-114217354D03*
X325905919Y-96417354D03*
X357305919Y-113617354D03*
D20*
X245355919Y-108092354D03*
D19*
X352505919Y-110617354D03*
X322905919Y-101817354D03*
X359705919Y-113017354D03*
X334705919Y-97017354D03*
D20*
X245330919Y-109567354D03*
D19*
X323505919Y-113017354D03*
X350705919Y-114817354D03*
X324105919Y-95817354D03*
X341905919Y-95817354D03*
X331505919Y-114217354D03*
X356105919Y-114217354D03*
X337605919Y-109617354D03*
X330305919Y-103017354D03*
X330905919Y-114217354D03*
X361305919Y-101017354D03*
X327105919Y-101217354D03*
X341355919Y-109617354D03*
X360305919Y-95617354D03*
X367505919Y-96817354D03*
X372305919Y-100417354D03*
X343505919Y-113617354D03*
X353905919Y-95617354D03*
X348305919Y-110017354D03*
X364505919Y-111817354D03*
X323505919Y-113617354D03*
X361505919Y-107617354D03*
X371105919Y-108817354D03*
X353105919Y-110617354D03*
X372905919Y-111817354D03*
X332105919Y-114217354D03*
X365705919Y-114817354D03*
X322905919Y-102417354D03*
X324705919Y-100617354D03*
X322905919Y-104217354D03*
X327705919Y-101817354D03*
X363305919Y-110617354D03*
X360905919Y-96817354D03*
X337605919Y-104617354D03*
X368705919Y-96817354D03*
X341355919Y-108367354D03*
X342905919Y-114817354D03*
X359305919Y-95617354D03*
X346505919Y-113617354D03*
X347705919Y-111817354D03*
X345505919Y-96417354D03*
X350105919Y-104017354D03*
X348905919Y-113617354D03*
X351305919Y-111817354D03*
X330905919Y-101817354D03*
X352505919Y-114817354D03*
X352705919Y-95617354D03*
X371705919Y-109417354D03*
X325905919Y-98217354D03*
X331105919Y-97617354D03*
X322305919Y-101217354D03*
X346505919Y-112417354D03*
X359705919Y-114217354D03*
X348905919Y-112417354D03*
D20*
X242185919Y-109562354D03*
D19*
X363905919Y-113017354D03*
D20*
X243780919Y-106517354D03*
D19*
X361505919Y-96817354D03*
X328905919Y-101217354D03*
X364505919Y-110617354D03*
X321105919Y-109017354D03*
X351905919Y-111217354D03*
X329505919Y-98817354D03*
X367505919Y-111817354D03*
X350105919Y-105817354D03*
X372905919Y-99817354D03*
X325305919Y-113017354D03*
X350105919Y-111217354D03*
X323505919Y-99417354D03*
X343705919Y-96417354D03*
X324105919Y-100017354D03*
X321105919Y-106617354D03*
D20*
X242185919Y-111187354D03*
D19*
X362705919Y-108817354D03*
X356105919Y-113017354D03*
X341105919Y-113617354D03*
X366905919Y-95617354D03*
X355505919Y-113617354D03*
X360905919Y-108217354D03*
X347705919Y-114217354D03*
X330905919Y-113017354D03*
X368105919Y-114817354D03*
X355505919Y-113017354D03*
X324705919Y-97017354D03*
X366305919Y-113017354D03*
X360305919Y-113617354D03*
X366305919Y-114217354D03*
X342605919Y-107117354D03*
X325305919Y-97617354D03*
X321105919Y-99417354D03*
X331105919Y-96417354D03*
X363305919Y-111817354D03*
X325305919Y-98817354D03*
X362105919Y-114217354D03*
X322905919Y-103617354D03*
X335905919Y-95817354D03*
X360905919Y-114217354D03*
X336905919Y-114817354D03*
X366305919Y-114817354D03*
X322305919Y-114817354D03*
X324705919Y-100017354D03*
D20*
X232455919Y-114867354D03*
D19*
X328305919Y-101817354D03*
X372905919Y-104017354D03*
X341705919Y-113617354D03*
X335305919Y-97017354D03*
X351905919Y-113017354D03*
X342905919Y-113617354D03*
X369905919Y-96217354D03*
X366905919Y-111217354D03*
X354305919Y-114217354D03*
X322305919Y-106017354D03*
X335105919Y-113017354D03*
X322905919Y-114817354D03*
X332705919Y-114817354D03*
X363905919Y-96817354D03*
X359705919Y-113617354D03*
X369905919Y-95617354D03*
X322905919Y-109017354D03*
X359705919Y-114817354D03*
X332105919Y-113617354D03*
X360705919Y-99817354D03*
X325305919Y-101817354D03*
X338905919Y-95817354D03*
X364505919Y-111217354D03*
X367505919Y-114817354D03*
X337605919Y-108367354D03*
D21*
X261415919Y-105777354D03*
D19*
X372305919Y-99817354D03*
X364505919Y-114817354D03*
X322905919Y-113617354D03*
X321105919Y-107817354D03*
X370505919Y-108817354D03*
X361505919Y-108817354D03*
X338855919Y-109617354D03*
X361505919Y-109417354D03*
X371105919Y-111217354D03*
X323505919Y-95817354D03*
D20*
X242210919Y-108087354D03*
D19*
X363305919Y-112417354D03*
X326505919Y-114217354D03*
X367505919Y-111217354D03*
X359305919Y-96217354D03*
X344105919Y-113617354D03*
X357905919Y-112417354D03*
X350705919Y-110617354D03*
X331505919Y-101817354D03*
X357105919Y-100417354D03*
X322905919Y-100617354D03*
X354305919Y-110017354D03*
D20*
X240530919Y-106517354D03*
D19*
X365705919Y-110017354D03*
X371705919Y-110617354D03*
X372305919Y-110017354D03*
X327105919Y-100017354D03*
X357705919Y-101617354D03*
X331505919Y-113617354D03*
X352505919Y-113617354D03*
X344705919Y-114217354D03*
X372905919Y-99217354D03*
X361505919Y-98617354D03*
X338305919Y-97617354D03*
D20*
X279185919Y-95717354D03*
D19*
X338855919Y-103367354D03*
X336355919Y-108367354D03*
X337105919Y-97017354D03*
X362105919Y-110617354D03*
X325905919Y-101217354D03*
X371705919Y-110017354D03*
X362105919Y-98017354D03*
X351305919Y-114217354D03*
X366305919Y-111817354D03*
X353105919Y-111217354D03*
X322305919Y-97617354D03*
X330905919Y-101217354D03*
X329505919Y-100617354D03*
X349505919Y-111217354D03*
X352505919Y-111217354D03*
X347105919Y-114817354D03*
X333855919Y-100867354D03*
D20*
X317805919Y-106717354D03*
D19*
X358505919Y-110017354D03*
X323505919Y-114817354D03*
X358505919Y-111217354D03*
X361505919Y-108217354D03*
X321705919Y-99417354D03*
X348905919Y-114217354D03*
X360305919Y-97417354D03*
X337105919Y-97617354D03*
X321105919Y-95817354D03*
X336355919Y-99617354D03*
X353105919Y-114817354D03*
X365105919Y-96817354D03*
X362105919Y-98617354D03*
X360905919Y-105817354D03*
X357705919Y-101017354D03*
X340105919Y-95817354D03*
X326505919Y-97017354D03*
D20*
X234345919Y-95667354D03*
D19*
X327105919Y-99417354D03*
X320505919Y-114817354D03*
X349505919Y-110617354D03*
X364505919Y-110017354D03*
X354305919Y-113017354D03*
X340105919Y-110867354D03*
X360705919Y-103017354D03*
X357905919Y-111817354D03*
X352105919Y-95617354D03*
X356505919Y-101017354D03*
X370505919Y-98017354D03*
X335105919Y-99617354D03*
X366905919Y-96817354D03*
X349505919Y-113017354D03*
X336505919Y-97017354D03*
X331505919Y-98217354D03*
X321105919Y-100017354D03*
X350105919Y-114817354D03*
X339505919Y-95817354D03*
X359105919Y-111817354D03*
X332705919Y-113617354D03*
X359705919Y-110617354D03*
X359105919Y-111217354D03*
X362705919Y-109417354D03*
X358505919Y-114217354D03*
X354905919Y-110617354D03*
X365105919Y-97417354D03*
X328305919Y-100617354D03*
X355505919Y-114217354D03*
X347705919Y-111217354D03*
X341705919Y-114817354D03*
X350705919Y-111217354D03*
X362705919Y-108217354D03*
X331705919Y-97017354D03*
X357905919Y-110617354D03*
X332305919Y-100867354D03*
X330905919Y-100017354D03*
X345305919Y-114817354D03*
X367505919Y-95617354D03*
X322905919Y-103017354D03*
X369905919Y-109417354D03*
X323505919Y-97017354D03*
X360305919Y-110617354D03*
X344905919Y-96417354D03*
X332905919Y-96417354D03*
D20*
X240560919Y-108087354D03*
D19*
X369905919Y-96817354D03*
X325905919Y-100617354D03*
X332705919Y-113017354D03*
X354305919Y-114817354D03*
X341105919Y-114217354D03*
X356705919Y-111817354D03*
X337605919Y-110867354D03*
X371105919Y-110017354D03*
X361505919Y-112417354D03*
X357305919Y-111817354D03*
X363305919Y-108817354D03*
X360105919Y-100417354D03*
X337505919Y-113617354D03*
X371105919Y-108217354D03*
X369305919Y-114217354D03*
X357905919Y-113617354D03*
X371705919Y-108817354D03*
X361505919Y-111817354D03*
X360305919Y-96217354D03*
X372905919Y-102217354D03*
X368705919Y-112417354D03*
X359505919Y-100417354D03*
X356505919Y-100417354D03*
X366905919Y-113617354D03*
X365105919Y-96217354D03*
X332705919Y-114217354D03*
D20*
X271411722Y-108137354D03*
D19*
X354305919Y-112417354D03*
X324705919Y-113017354D03*
X340105919Y-96417354D03*
X347705919Y-112417354D03*
X348305919Y-113017354D03*
X348305919Y-111817354D03*
X360305919Y-114817354D03*
X360705919Y-104217354D03*
X324705919Y-95817354D03*
X362705919Y-96217354D03*
X355505919Y-111817354D03*
X367505919Y-110617354D03*
X370505919Y-98617354D03*
X350105919Y-110017354D03*
X325905919Y-101817354D03*
X331705919Y-96417354D03*
X353705919Y-110017354D03*
X342305919Y-114817354D03*
X368105919Y-114217354D03*
X333855919Y-99617354D03*
X360305919Y-114217354D03*
X361505919Y-111217354D03*
X327105919Y-98817354D03*
X341355919Y-107117354D03*
X369305919Y-112417354D03*
X334505919Y-114217354D03*
X337105919Y-95817354D03*
X353105919Y-111817354D03*
X365705919Y-112417354D03*
X371705919Y-108217354D03*
X346705919Y-96417354D03*
X365705919Y-111817354D03*
D20*
X272871722Y-105137354D03*
D19*
X322905919Y-99417354D03*
X323505919Y-96417354D03*
X359705919Y-111817354D03*
X339305919Y-114217354D03*
X349505919Y-114817354D03*
X340105919Y-108367354D03*
X336355919Y-103367354D03*
X342605919Y-108367354D03*
X331505919Y-99417354D03*
X322905919Y-105417354D03*
X322905919Y-97617354D03*
X358705919Y-95617354D03*
X325905919Y-113017354D03*
X322905919Y-98217354D03*
X358305919Y-99817354D03*
X356105919Y-113617354D03*
X338855919Y-108367354D03*
X326505919Y-98817354D03*
X331705919Y-95817354D03*
X335305919Y-95817354D03*
X332305919Y-97017354D03*
X336355919Y-109617354D03*
X369305919Y-111817354D03*
X349505919Y-111817354D03*
X357905919Y-113017354D03*
X364505919Y-112417354D03*
X328905919Y-99417354D03*
X368705919Y-96217354D03*
X336355919Y-98217354D03*
X359505919Y-101017354D03*
D20*
X243785919Y-109562354D03*
D19*
X366305919Y-111217354D03*
X355905919Y-100417354D03*
X335905919Y-97617354D03*
X360905919Y-106417354D03*
X343505919Y-114217354D03*
X345305919Y-113617354D03*
X329505919Y-101817354D03*
X363905919Y-111817354D03*
X358305919Y-101617354D03*
X334105919Y-97017354D03*
X340105919Y-105867354D03*
X362105919Y-99217354D03*
X368705919Y-111217354D03*
X362105919Y-107617354D03*
X324105919Y-101817354D03*
X358505919Y-111817354D03*
X362705919Y-98617354D03*
X362105919Y-112417354D03*
X365105919Y-109417354D03*
X356705919Y-114817354D03*
X360705919Y-102417354D03*
X333305919Y-113617354D03*
X366905919Y-114217354D03*
D20*
X243810919Y-108087354D03*
D19*
X328905919Y-100617354D03*
X365705919Y-97417354D03*
X363305919Y-113017354D03*
X362705919Y-111817354D03*
X340105919Y-109617354D03*
X362105919Y-95617354D03*
X331505919Y-98817354D03*
D20*
X308855919Y-112617354D03*
D19*
X372305919Y-111217354D03*
X357305919Y-112417354D03*
X363905919Y-114817354D03*
D21*
X350745919Y-106857354D03*
D19*
X338105919Y-113617354D03*
X361305919Y-101617354D03*
X360105919Y-99817354D03*
X319905919Y-113017354D03*
X332905919Y-95817354D03*
X322305919Y-100017354D03*
X356305919Y-95617354D03*
X326505919Y-99417354D03*
X362105919Y-96817354D03*
X350705919Y-104617354D03*
X353305919Y-95617354D03*
X327105919Y-97617354D03*
X335105919Y-114817354D03*
X350705919Y-114217354D03*
X364505919Y-97417354D03*
X350105919Y-111817354D03*
D20*
X243785919Y-111187354D03*
D19*
X330305919Y-100617354D03*
X359105919Y-113017354D03*
X348305919Y-110617354D03*
X349505919Y-104617354D03*
X342605919Y-105867354D03*
X327705919Y-98817354D03*
X325305919Y-114817354D03*
X366905919Y-110017354D03*
X322305919Y-107817354D03*
X336305919Y-114217354D03*
X372905919Y-109417354D03*
X346105919Y-95817354D03*
X333305919Y-114217354D03*
X324705919Y-113617354D03*
X372905919Y-111217354D03*
X372905919Y-98617354D03*
X360905919Y-105217354D03*
X322905919Y-104817354D03*
X355905919Y-101617354D03*
X372905919Y-102817354D03*
X330305919Y-101217354D03*
X369305919Y-96217354D03*
X321705919Y-98217354D03*
X348305919Y-111217354D03*
X336305919Y-113017354D03*
X345905919Y-114817354D03*
X341905919Y-96417354D03*
X336505919Y-97617354D03*
X353105919Y-114217354D03*
X371105919Y-98617354D03*
X360105919Y-101617354D03*
X326505919Y-100017354D03*
X362105919Y-113017354D03*
X369305919Y-113617354D03*
X358505919Y-113017354D03*
X331105919Y-97017354D03*
X350305919Y-95617354D03*
X351905919Y-114817354D03*
X358105919Y-96217354D03*
X330905919Y-114817354D03*
X333855919Y-102117354D03*
X333505919Y-96417354D03*
X322905919Y-101217354D03*
X326505919Y-101217354D03*
X328905919Y-100017354D03*
X339505919Y-96417354D03*
X350705919Y-113017354D03*
D20*
X272871722Y-106637354D03*
D19*
X350705919Y-104017354D03*
X336505919Y-96417354D03*
X372305919Y-107017354D03*
X337705919Y-97617354D03*
X352505919Y-114217354D03*
X369305919Y-113017354D03*
X330905919Y-98817354D03*
X347105919Y-112417354D03*
X334505919Y-114817354D03*
X368705919Y-109417354D03*
X344905919Y-95817354D03*
X344305919Y-96417354D03*
X331105919Y-95817354D03*
X351905919Y-110617354D03*
X366305919Y-96217354D03*
X367505919Y-113017354D03*
X328305919Y-98817354D03*
D20*
X308855919Y-110117354D03*
D19*
X334705919Y-97617354D03*
X324105919Y-113617354D03*
X321105919Y-107217354D03*
X363905919Y-108817354D03*
X344305919Y-95817354D03*
X330305919Y-101817354D03*
X360905919Y-110617354D03*
X338855919Y-104617354D03*
X362105919Y-110017354D03*
X331505919Y-103617354D03*
X362705919Y-95617354D03*
X337705919Y-96417354D03*
X361505919Y-107017354D03*
X343105919Y-96417354D03*
X331505919Y-103017354D03*
X340105919Y-107117354D03*
X335105919Y-102117354D03*
X326505919Y-101817354D03*
X368105919Y-113617354D03*
X347105919Y-110617354D03*
X326505919Y-97617354D03*
X338305919Y-97017354D03*
X342605919Y-104617354D03*
X325305919Y-101217354D03*
X338855919Y-110867354D03*
X335105919Y-103367354D03*
X369305919Y-97417354D03*
X328905919Y-98817354D03*
X368705919Y-114217354D03*
X337605919Y-107117354D03*
X360305919Y-98617354D03*
X338305919Y-95817354D03*
X324705919Y-99417354D03*
X324105919Y-96417354D03*
X323505919Y-98217354D03*
X357305919Y-114217354D03*
X362105919Y-111817354D03*
D20*
X240535919Y-109562354D03*
D19*
X342305919Y-114217354D03*
X334705919Y-95817354D03*
X334505919Y-113017354D03*
X322905919Y-106017354D03*
X364505919Y-98017354D03*
X322905919Y-96417354D03*
X336355919Y-102117354D03*
X331505919Y-114817354D03*
X370505919Y-111817354D03*
X347705919Y-113617354D03*
X321705919Y-106617354D03*
X334505919Y-113617354D03*
X368105919Y-111817354D03*
X348305919Y-114217354D03*
X359705919Y-111217354D03*
X350105919Y-114217354D03*
X362705919Y-111217354D03*
X336905919Y-113017354D03*
X347705919Y-110617354D03*
X321705919Y-107217354D03*
X330905919Y-98217354D03*
X325305919Y-99417354D03*
X322305919Y-106617354D03*
X326505919Y-113617354D03*
X346505919Y-114817354D03*
X357905919Y-114217354D03*
X357505919Y-95617354D03*
X364505919Y-96817354D03*
X359105919Y-114817354D03*
X321105919Y-96417354D03*
D20*
X305885919Y-95637354D03*
D19*
X362705919Y-97417354D03*
X348305919Y-114817354D03*
X350705919Y-112417354D03*
D20*
X294965919Y-95637354D03*
D19*
X353105919Y-113617354D03*
X323505919Y-101217354D03*
X331505919Y-100017354D03*
X332905919Y-97617354D03*
X351305919Y-110617354D03*
X324105919Y-98217354D03*
X357705919Y-100417354D03*
X371705919Y-111817354D03*
X339905919Y-114817354D03*
X368105919Y-110017354D03*
X350105919Y-105217354D03*
X331505919Y-113017354D03*
X351905919Y-114217354D03*
X327105919Y-97017354D03*
X357705919Y-99817354D03*
X371705919Y-98617354D03*
X369905919Y-111217354D03*
X360905919Y-113017354D03*
X326505919Y-100617354D03*
X324105919Y-99417354D03*
X372905919Y-108217354D03*
X358505919Y-114817354D03*
X321705919Y-95817354D03*
X363905919Y-113617354D03*
X362705919Y-99217354D03*
X366305919Y-96817354D03*
X341305919Y-96417354D03*
X324105919Y-101217354D03*
X354905919Y-113617354D03*
X333905919Y-114817354D03*
X347105919Y-113017354D03*
X346105919Y-96417354D03*
D20*
X316155919Y-114567354D03*
D19*
X321705919Y-109017354D03*
X358305919Y-100417354D03*
D20*
X318005919Y-96867354D03*
D19*
X351305919Y-113617354D03*
X362705919Y-114217354D03*
X355505919Y-114817354D03*
X368705919Y-110617354D03*
X364505919Y-109417354D03*
D20*
X274271722Y-108137354D03*
D19*
X358105919Y-95617354D03*
X339905919Y-114217354D03*
X322305919Y-98817354D03*
D21*
X320475919Y-110987354D03*
D19*
X366905919Y-114817354D03*
X372305919Y-107617354D03*
X362705919Y-110617354D03*
X345305919Y-114217354D03*
X362105919Y-109417354D03*
X345905919Y-113017354D03*
X327105919Y-113017354D03*
X366905919Y-112417354D03*
X361305919Y-99817354D03*
X340705919Y-95817354D03*
X365705919Y-96817354D03*
X342605919Y-103367354D03*
X323505919Y-100617354D03*
X321705919Y-98817354D03*
X368705919Y-113617354D03*
X356705919Y-112417354D03*
X362705919Y-96817354D03*
X365105919Y-110017354D03*
X327105919Y-100617354D03*
X370505919Y-110017354D03*
X331705919Y-97617354D03*
X322305919Y-113617354D03*
X328305919Y-101217354D03*
X349505919Y-105817354D03*
X321105919Y-97017354D03*
X323505919Y-97617354D03*
D21*
X350765919Y-109897354D03*
D19*
X338905919Y-96417354D03*
X340505919Y-113617354D03*
X334105919Y-97617354D03*
X346505919Y-113017354D03*
X332305919Y-99617354D03*
X330905919Y-113617354D03*
X330905919Y-103017354D03*
X361505919Y-106417354D03*
X363905919Y-97417354D03*
X361505919Y-110617354D03*
X369905919Y-111817354D03*
X321705919Y-113617354D03*
X351305919Y-114817354D03*
X324705919Y-96417354D03*
X360305919Y-113017354D03*
X363305919Y-113617354D03*
X366305919Y-95617354D03*
X340505919Y-114817354D03*
X322905919Y-108417354D03*
X365105919Y-113017354D03*
X364505919Y-95617354D03*
X363305919Y-95617354D03*
X327705919Y-101217354D03*
D20*
X271411722Y-106637354D03*
D19*
X354905919Y-111817354D03*
X330905919Y-103617354D03*
X322305919Y-108417354D03*
X360905919Y-107617354D03*
X360905919Y-96217354D03*
X330305919Y-98817354D03*
X336355919Y-104617354D03*
D20*
X274271722Y-106637354D03*
D19*
X345505919Y-95817354D03*
X370505919Y-96217354D03*
X354905919Y-114217354D03*
X333505919Y-95817354D03*
X365105919Y-111817354D03*
X349505919Y-114217354D03*
X350705919Y-113617354D03*
X343855919Y-103367354D03*
X358505919Y-113617354D03*
X332305919Y-102117354D03*
D20*
X245330919Y-106517354D03*
D19*
X323505919Y-101817354D03*
X335705919Y-114217354D03*
X371705919Y-99217354D03*
X363305919Y-98017354D03*
X346705919Y-95817354D03*
X363305919Y-114817354D03*
X335905919Y-96417354D03*
X320505919Y-113617354D03*
X366305919Y-110017354D03*
X360705919Y-101617354D03*
X342905919Y-114217354D03*
X360305919Y-99217354D03*
X351305919Y-113017354D03*
X347305919Y-96417354D03*
X327105919Y-96417354D03*
X370505919Y-110617354D03*
X338105919Y-114217354D03*
X358905919Y-99817354D03*
X369305919Y-110017354D03*
X365105919Y-95617354D03*
X353705919Y-111817354D03*
X353705919Y-114217354D03*
X333505919Y-97617354D03*
X365705919Y-110617354D03*
X361505919Y-113617354D03*
X353705919Y-114817354D03*
X371105919Y-111817354D03*
X336305919Y-113617354D03*
X337105919Y-96417354D03*
X345905919Y-113617354D03*
X340505919Y-114217354D03*
D20*
X318005919Y-98367354D03*
D19*
X327705919Y-100617354D03*
X362705919Y-110017354D03*
X360905919Y-98617354D03*
X325905919Y-95817354D03*
X363305919Y-96817354D03*
X332905919Y-97017354D03*
X362705919Y-113617354D03*
X324105919Y-97017354D03*
X362105919Y-114817354D03*
X322905919Y-113017354D03*
X321705919Y-97017354D03*
X325305919Y-96417354D03*
X341305919Y-95817354D03*
X362705919Y-112417354D03*
X335705919Y-113617354D03*
X347705919Y-113017354D03*
X344705919Y-113617354D03*
X365105919Y-114217354D03*
X356105919Y-114817354D03*
X356905919Y-95617354D03*
X365105919Y-111217354D03*
X364505919Y-113017354D03*
X321705919Y-113017354D03*
X368705919Y-111817354D03*
X368105919Y-113017354D03*
X336505919Y-95817354D03*
X358905919Y-100417354D03*
X338105919Y-113017354D03*
X351305919Y-110017354D03*
X337505919Y-113017354D03*
X365705919Y-96217354D03*
X361505919Y-99217354D03*
X359105919Y-114217354D03*
X363305919Y-98617354D03*
X346505919Y-111817354D03*
X330905919Y-99417354D03*
X363305919Y-110017354D03*
X348905919Y-111817354D03*
X345905919Y-114217354D03*
X363305919Y-109417354D03*
X372905919Y-110017354D03*
X347905919Y-95817354D03*
X352505919Y-111817354D03*
X322305919Y-103617354D03*
X321705919Y-100017354D03*
X341355919Y-103367354D03*
X372905919Y-107617354D03*
X354505919Y-95617354D03*
X361505919Y-98017354D03*
X371705919Y-107617354D03*
X347905919Y-96417354D03*
X372905919Y-107017354D03*
X366305919Y-110617354D03*
X370505919Y-111217354D03*
X332105919Y-113017354D03*
X326505919Y-96417354D03*
X337605919Y-98217354D03*
X368105919Y-111217354D03*
X372305919Y-101017354D03*
X338855919Y-105867354D03*
X365705919Y-111217354D03*
X372905919Y-105817354D03*
X335305919Y-96417354D03*
X360705919Y-101017354D03*
X356705919Y-114217354D03*
X360905919Y-109417354D03*
X348905919Y-110017354D03*
X333855919Y-103367354D03*
X360305919Y-112417354D03*
X363905919Y-109417354D03*
X330905919Y-100617354D03*
D20*
X253055919Y-109967354D03*
D19*
X332305919Y-97617354D03*
X369305919Y-95617354D03*
X372305919Y-109417354D03*
X350705919Y-111817354D03*
X322305919Y-96417354D03*
X363905919Y-112417354D03*
X335105919Y-114217354D03*
X333905919Y-113017354D03*
X327105919Y-95817354D03*
X372905919Y-101017354D03*
D20*
X245330919Y-111192354D03*
D19*
X351905919Y-112417354D03*
X358305919Y-101017354D03*
X335905919Y-97017354D03*
X357305919Y-113017354D03*
X360105919Y-101017354D03*
X361505919Y-114817354D03*
X358505919Y-112417354D03*
X322905919Y-98817354D03*
X326505919Y-98217354D03*
X324705919Y-97617354D03*
X369905919Y-110617354D03*
X372905919Y-100417354D03*
X372305919Y-106417354D03*
X366305919Y-97417354D03*
X354905919Y-112417354D03*
X360905919Y-113617354D03*
X321105919Y-108417354D03*
X356705919Y-113017354D03*
X362105919Y-111217354D03*
X363905919Y-98017354D03*
X346505919Y-114217354D03*
X328905919Y-101817354D03*
X360905919Y-110017354D03*
X360305919Y-111217354D03*
X321705919Y-114217354D03*
X359105919Y-110617354D03*
X372905919Y-105217354D03*
D21*
X249165919Y-95567354D03*
D19*
X324105919Y-100617354D03*
X332305919Y-95817354D03*
X366905919Y-113017354D03*
X333305919Y-113017354D03*
X332305919Y-103367354D03*
X333905919Y-113617354D03*
X343705919Y-95817354D03*
X322305919Y-95817354D03*
X325905919Y-98817354D03*
X368105919Y-97417354D03*
X363305919Y-111217354D03*
X360905919Y-114817354D03*
X364505919Y-114217354D03*
X332105919Y-114817354D03*
X363905919Y-110617354D03*
X358705919Y-96217354D03*
X325905919Y-100017354D03*
X348305919Y-113617354D03*
X324705919Y-101817354D03*
X322905919Y-107217354D03*
X359105919Y-110017354D03*
X322905919Y-95817354D03*
X371105919Y-110617354D03*
X354905919Y-114817354D03*
X360905919Y-111217354D03*
X330305919Y-99417354D03*
X365105919Y-113617354D03*
X350705919Y-105817354D03*
X347105919Y-111817354D03*
X322905919Y-106617354D03*
X362105919Y-97417354D03*
X359705919Y-112417354D03*
X361505919Y-114217354D03*
X327105919Y-114817354D03*
X360305919Y-110017354D03*
X357105919Y-101017354D03*
X335705919Y-113017354D03*
X321105919Y-114817354D03*
X349505919Y-112417354D03*
X360305919Y-111817354D03*
X322305919Y-114217354D03*
X362105919Y-99817354D03*
X335105919Y-98217354D03*
X357905919Y-110017354D03*
X358505919Y-110617354D03*
X324105919Y-114217354D03*
D20*
X272871722Y-108137354D03*
D19*
X330305919Y-102417354D03*
X338705919Y-113617354D03*
X356705919Y-113617354D03*
X353705919Y-110617354D03*
D20*
X248825919Y-107657354D03*
D21*
X239655919Y-101267354D03*
X243545919Y-101317354D03*
D20*
X273915919Y-102467354D03*
D19*
X236755919Y-110592354D03*
D21*
X239495919Y-102207354D03*
D20*
X252305919Y-99492354D03*
X271185919Y-100567354D03*
X270495919Y-101857354D03*
X239255919Y-98967354D03*
D21*
X261955919Y-109567354D03*
X261955919Y-101867354D03*
X236105919Y-104817354D03*
D20*
X274435919Y-97927354D03*
D21*
X261945919Y-112827354D03*
D20*
X235725919Y-108277354D03*
X242505919Y-96367354D03*
D19*
X234680919Y-110592354D03*
D20*
X252155919Y-107967354D03*
X245535919Y-103187354D03*
X250855919Y-100467354D03*
X248825919Y-108617354D03*
D21*
X248840919Y-99892354D03*
D19*
X237116019Y-106697254D03*
X237515819Y-106297454D03*
D21*
X261985919Y-110577354D03*
X257625919Y-109317354D03*
D19*
X252580919Y-111892354D03*
X252575919Y-112537354D03*
D21*
X246105919Y-102417354D03*
X243930919Y-103817354D03*
X237910919Y-110602354D03*
D20*
X242970919Y-103822354D03*
X219195919Y-102567354D03*
X215035919Y-110437354D03*
X215045919Y-102527354D03*
X215015919Y-106447354D03*
D21*
X261955919Y-102717354D03*
X257555919Y-101717354D03*
D19*
X355905919Y-103817354D03*
X359505919Y-106217354D03*
X353505919Y-106817354D03*
X354705919Y-105617354D03*
X356505919Y-103217354D03*
X355905919Y-105617354D03*
X358905919Y-107417354D03*
X357105919Y-103817354D03*
X355905919Y-106217354D03*
X357705919Y-106817354D03*
X355305919Y-102617354D03*
X354105919Y-108017354D03*
X357105919Y-106817354D03*
X353505919Y-106217354D03*
X354105919Y-106817354D03*
X359505919Y-108017354D03*
X358905919Y-106817354D03*
X357705919Y-105617354D03*
X359505919Y-103817354D03*
X354705919Y-108017354D03*
X359505919Y-105017354D03*
X354105919Y-106217354D03*
X358305919Y-108017354D03*
X355305919Y-106217354D03*
X355305919Y-103217354D03*
X355305919Y-105017354D03*
X359505919Y-108617354D03*
X356505919Y-102617354D03*
X356505919Y-106817354D03*
X358905919Y-106217354D03*
X357705919Y-108617354D03*
X355905919Y-104417354D03*
X357705919Y-102617354D03*
X356505919Y-106217354D03*
X357705919Y-105017354D03*
X358305919Y-103217354D03*
X358305919Y-104417354D03*
X354705919Y-105017354D03*
X356505919Y-105017354D03*
X354705919Y-104417354D03*
X356505919Y-104417354D03*
X357705919Y-108017354D03*
X355305919Y-105617354D03*
X357105919Y-106217354D03*
X354705919Y-106217354D03*
X358905919Y-105017354D03*
X354105919Y-107417354D03*
X357705919Y-103817354D03*
X356505919Y-105617354D03*
X359505919Y-103217354D03*
X358905919Y-105617354D03*
X354705919Y-107417354D03*
X359505919Y-104417354D03*
X358305919Y-106817354D03*
X355905919Y-103217354D03*
X357705919Y-103217354D03*
X357705919Y-107417354D03*
X357105919Y-103217354D03*
X353505919Y-107417354D03*
X355305919Y-104417354D03*
X359505919Y-106817354D03*
X355305919Y-103817354D03*
X358305919Y-102617354D03*
X356505919Y-103817354D03*
X358905919Y-102617354D03*
X358305919Y-105617354D03*
X353505919Y-108617354D03*
X354105919Y-108617354D03*
X354705919Y-106817354D03*
X358905919Y-103817354D03*
X358305919Y-107417354D03*
X359505919Y-105617354D03*
X359505919Y-107417354D03*
X358905919Y-104417354D03*
X359505919Y-102617354D03*
X358305919Y-108617354D03*
X358905919Y-103217354D03*
X357105919Y-102617354D03*
X358305919Y-105017354D03*
X357105919Y-104417354D03*
X355905919Y-106817354D03*
X353505919Y-108017354D03*
X355905919Y-102617354D03*
X357705919Y-106217354D03*
X355305919Y-106817354D03*
X357105919Y-105617354D03*
X358305919Y-103817354D03*
X354705919Y-108617354D03*
X355905919Y-105017354D03*
X358905919Y-108017354D03*
X357705919Y-104417354D03*
X358305919Y-106217354D03*
X358905919Y-108617354D03*
X357105919Y-105017354D03*
D21*
X347655919Y-105817354D03*
D19*
X347855919Y-100217354D03*
X348505919Y-100217354D03*
X343855919Y-100867354D03*
X347305919Y-98417354D03*
X343855919Y-99617354D03*
X348505919Y-101417354D03*
X349705919Y-100817354D03*
X352905919Y-100817354D03*
X352905919Y-99617354D03*
X341355919Y-98217354D03*
X351105919Y-100817354D03*
X351705919Y-100817354D03*
X352305919Y-100817354D03*
X347305919Y-101417354D03*
X348505919Y-99617354D03*
X346605919Y-100867354D03*
X342605919Y-99617354D03*
X349705919Y-101417354D03*
X347855919Y-98417354D03*
X354105919Y-97217354D03*
X347305919Y-99017354D03*
D20*
X350765919Y-101377354D03*
D19*
X348505919Y-100817354D03*
X353505919Y-99617354D03*
X352305919Y-101417354D03*
X350505919Y-99417354D03*
X349705919Y-100217354D03*
X345105919Y-100867354D03*
X347305919Y-100817354D03*
X353505919Y-100217354D03*
X341355919Y-100867354D03*
X343855919Y-98217354D03*
X354705919Y-97217354D03*
X352305919Y-100217354D03*
X350505919Y-98217354D03*
X351705919Y-100217354D03*
X354105919Y-99617354D03*
X354705919Y-98417354D03*
X354705919Y-97817354D03*
X354105919Y-99017354D03*
X345105919Y-98217354D03*
X347855919Y-99017354D03*
X342605919Y-100867354D03*
X351705919Y-99617354D03*
X350505919Y-100617354D03*
X347305919Y-100217354D03*
X354105919Y-100217354D03*
X345105919Y-99617354D03*
X350505919Y-100017354D03*
X349705919Y-99617354D03*
X342605919Y-98217354D03*
X347855919Y-99617354D03*
X347855919Y-100817354D03*
X352905919Y-100217354D03*
X340105919Y-98217354D03*
X340105919Y-100867354D03*
X354705919Y-99617354D03*
X354705919Y-100217354D03*
X340105919Y-99617354D03*
X354105919Y-98417354D03*
X354105919Y-97817354D03*
X347305919Y-97817354D03*
X346605919Y-99617354D03*
X349105919Y-100217354D03*
X349105919Y-100817354D03*
X352905919Y-101417354D03*
X354705919Y-99017354D03*
X349105919Y-99617354D03*
X351705919Y-101417354D03*
X341355919Y-99617354D03*
X347855919Y-97817354D03*
X350505919Y-98817354D03*
X347855919Y-101417354D03*
X347305919Y-99617354D03*
X352305919Y-99617354D03*
X349105919Y-101417354D03*
X351105919Y-99617354D03*
X351105919Y-100217354D03*
D20*
X346605919Y-105217354D03*
X347865919Y-109027354D03*
D21*
X342055919Y-112242354D03*
D19*
X328505919Y-109817354D03*
X331505919Y-108017354D03*
X329105919Y-106817354D03*
X330305919Y-106817354D03*
X333855919Y-110867354D03*
X329705919Y-107417354D03*
X326105919Y-107417354D03*
X325505919Y-107417354D03*
X327905919Y-109217354D03*
X331505919Y-108617354D03*
X331505919Y-107417354D03*
X326105919Y-110417354D03*
X331505919Y-109217354D03*
X330905919Y-107417354D03*
X327905919Y-108017354D03*
X327905919Y-106817354D03*
X328505919Y-110417354D03*
X329705919Y-109817354D03*
X326105919Y-109817354D03*
X330305919Y-107417354D03*
X330305919Y-108617354D03*
X332355919Y-107117354D03*
X329705919Y-110417354D03*
X330905919Y-111017354D03*
X326705919Y-111617354D03*
X329105919Y-111017354D03*
X329705919Y-111017354D03*
X330905919Y-111617354D03*
X330305919Y-105017354D03*
X324305919Y-107417354D03*
X329105919Y-109217354D03*
X329105919Y-108017354D03*
X327305919Y-108017354D03*
X326105919Y-111017354D03*
X326105919Y-108017354D03*
X326705919Y-106817354D03*
X328505919Y-111617354D03*
X330905919Y-108617354D03*
X326105919Y-108617354D03*
X330905919Y-105617354D03*
X324305919Y-108617354D03*
X329705919Y-108017354D03*
X330905919Y-106817354D03*
X328505919Y-107417354D03*
X329105919Y-110417354D03*
X324905919Y-108017354D03*
X329705919Y-111617354D03*
X330305919Y-111017354D03*
X331505919Y-110417354D03*
X329705919Y-106817354D03*
X331505919Y-106817354D03*
X330305919Y-110417354D03*
X330905919Y-110417354D03*
X330305919Y-105617354D03*
X326105919Y-106817354D03*
X332355919Y-109617354D03*
X324305919Y-108017354D03*
X326705919Y-110417354D03*
X330305919Y-106217354D03*
X324305919Y-106817354D03*
X329105919Y-111617354D03*
X327305919Y-111617354D03*
X324905919Y-106817354D03*
X332355919Y-105867354D03*
X327305919Y-111017354D03*
X326705919Y-108017354D03*
X329105919Y-108617354D03*
X329105919Y-107417354D03*
X326705919Y-108617354D03*
X331505919Y-109817354D03*
X327905919Y-109817354D03*
X331505919Y-111017354D03*
X326705919Y-107417354D03*
X327305919Y-106817354D03*
X333855919Y-108417354D03*
X327905919Y-108617354D03*
X330905919Y-108017354D03*
X328505919Y-108617354D03*
X327305919Y-109817354D03*
X326105919Y-109217354D03*
X327905919Y-110417354D03*
X327305919Y-107417354D03*
X330905919Y-109817354D03*
X324905919Y-108617354D03*
X328505919Y-108017354D03*
X331505919Y-105017354D03*
X327905919Y-107417354D03*
X331505919Y-111617354D03*
X327305919Y-109217354D03*
X326105919Y-111617354D03*
X326705919Y-109817354D03*
X326705919Y-111017354D03*
X325505919Y-108017354D03*
X327905919Y-111617354D03*
X329105919Y-109817354D03*
X330905919Y-106217354D03*
X331505919Y-106217354D03*
X328505919Y-111017354D03*
X330305919Y-108017354D03*
X327905919Y-111017354D03*
X327305919Y-108617354D03*
X330905919Y-105017354D03*
X330905919Y-109217354D03*
X328505919Y-106817354D03*
X332355919Y-110867354D03*
X330305919Y-109817354D03*
X333855919Y-107117354D03*
X329705919Y-109217354D03*
X331505919Y-105617354D03*
X326705919Y-109217354D03*
X325505919Y-106817354D03*
X328505919Y-109217354D03*
X330305919Y-111617354D03*
X324905919Y-107417354D03*
X332355919Y-108367354D03*
X330305919Y-109217354D03*
X327305919Y-110417354D03*
X325505919Y-108617354D03*
X329705919Y-108617354D03*
X333855919Y-105867354D03*
X333855919Y-109617354D03*
D22*
X243930919Y-103437354D02*
X243930919Y-103817354D01*
X244950919Y-102417354D02*
X243930919Y-103437354D01*
X246105919Y-102417354D02*
X244950919Y-102417354D01*
X261755919Y-102517354D02*
X261955919Y-102717354D01*
X259565919Y-102517354D02*
X261755919Y-102517354D01*
X258765919Y-101717354D02*
X259565919Y-102517354D01*
X257555919Y-101717354D02*
X258765919Y-101717354D01*
X258685919Y-109317354D02*
X257625919Y-109317354D01*
X261985919Y-110577354D02*
X261785919Y-110777354D01*
X261785919Y-110777354D02*
X260145919Y-110777354D01*
X260145919Y-110777354D02*
X258685919Y-109317354D01*
G04 #@! TA.AperFunction,Conductor*
G36*
X359798040Y-102437356D02*
G01*
X359844533Y-102491012D01*
X359855919Y-102543354D01*
X359855919Y-108991354D01*
X359835917Y-109059475D01*
X359782261Y-109105968D01*
X359729919Y-109117354D01*
X353231919Y-109117354D01*
X353163798Y-109097352D01*
X353117305Y-109043696D01*
X353105919Y-108991354D01*
X353105919Y-102543354D01*
X353125921Y-102475233D01*
X353179577Y-102428740D01*
X353231919Y-102417354D01*
X359729919Y-102417354D01*
X359798040Y-102437356D01*
G37*
G04 #@! TD.AperFunction*
G04 #@! TA.AperFunction,Conductor*
G36*
X355048040Y-96637356D02*
G01*
X355094533Y-96691012D01*
X355105919Y-96743354D01*
X355105919Y-101791354D01*
X355085917Y-101859475D01*
X355032261Y-101905968D01*
X354979919Y-101917354D01*
X339107810Y-101917354D01*
X339039689Y-101897352D01*
X338993196Y-101843696D01*
X338981813Y-101790467D01*
X339005919Y-98367354D01*
X339005919Y-97668354D01*
X339025921Y-97600233D01*
X339079577Y-97553740D01*
X339131919Y-97542354D01*
X350355919Y-97542354D01*
X351319699Y-96650857D01*
X351383289Y-96619284D01*
X351405259Y-96617354D01*
X354979919Y-96617354D01*
X355048040Y-96637356D01*
G37*
G04 #@! TD.AperFunction*
G04 #@! TA.AperFunction,Conductor*
G36*
X373664610Y-95336761D02*
G01*
X373700574Y-95386261D01*
X373705419Y-95416854D01*
X373705419Y-115117854D01*
X373686512Y-115176045D01*
X373637012Y-115212009D01*
X373606419Y-115216854D01*
X228954919Y-115216854D01*
X228896728Y-115197947D01*
X228860764Y-115148447D01*
X228855919Y-115117854D01*
X228855919Y-114005545D01*
X233220714Y-114005545D01*
X233221369Y-114011478D01*
X233221369Y-114011482D01*
X233234443Y-114129904D01*
X233237858Y-114160837D01*
X233239908Y-114166439D01*
X233239909Y-114166443D01*
X233289498Y-114301951D01*
X233291550Y-114307557D01*
X233378690Y-114437235D01*
X233405992Y-114462078D01*
X233479488Y-114528954D01*
X233494247Y-114542384D01*
X233520500Y-114556638D01*
X233626303Y-114614085D01*
X233626305Y-114614086D01*
X233631549Y-114616933D01*
X233696731Y-114634033D01*
X233776902Y-114655066D01*
X233776906Y-114655067D01*
X233782671Y-114656579D01*
X233788632Y-114656673D01*
X233788635Y-114656673D01*
X233860780Y-114657806D01*
X233938888Y-114659033D01*
X233960719Y-114654033D01*
X234085357Y-114625487D01*
X234085360Y-114625486D01*
X234091180Y-114624153D01*
X234096511Y-114621472D01*
X234096516Y-114621470D01*
X234225420Y-114556638D01*
X234230757Y-114553954D01*
X234349560Y-114452487D01*
X234440730Y-114325610D01*
X234474448Y-114241734D01*
X234496780Y-114186182D01*
X234496781Y-114186180D01*
X234499004Y-114180649D01*
X234502668Y-114154904D01*
X234520561Y-114029179D01*
X234520561Y-114029173D01*
X234521017Y-114025972D01*
X234521160Y-114012354D01*
X234519620Y-113999624D01*
X234518029Y-113986482D01*
X234517310Y-113980545D01*
X240095714Y-113980545D01*
X240096369Y-113986478D01*
X240096369Y-113986482D01*
X240099582Y-114015586D01*
X240112858Y-114135837D01*
X240114908Y-114141439D01*
X240114909Y-114141443D01*
X240164498Y-114276951D01*
X240166550Y-114282557D01*
X240253690Y-114412235D01*
X240276113Y-114432638D01*
X240360727Y-114509631D01*
X240369247Y-114517384D01*
X240407891Y-114538366D01*
X240501303Y-114589085D01*
X240501305Y-114589086D01*
X240506549Y-114591933D01*
X240571929Y-114609085D01*
X240651902Y-114630066D01*
X240651906Y-114630067D01*
X240657671Y-114631579D01*
X240663632Y-114631673D01*
X240663635Y-114631673D01*
X240735779Y-114632806D01*
X240813888Y-114634033D01*
X240831209Y-114630066D01*
X240960357Y-114600487D01*
X240960360Y-114600486D01*
X240966180Y-114599153D01*
X240971511Y-114596472D01*
X240971516Y-114596470D01*
X241087043Y-114538366D01*
X241105757Y-114528954D01*
X241222192Y-114429510D01*
X241278719Y-114406095D01*
X241338213Y-114420379D01*
X241353023Y-114432967D01*
X241353690Y-114432235D01*
X241459983Y-114528954D01*
X241469247Y-114537384D01*
X241529006Y-114569830D01*
X241601303Y-114609085D01*
X241601305Y-114609086D01*
X241606549Y-114611933D01*
X241675668Y-114630066D01*
X241751902Y-114650066D01*
X241751906Y-114650067D01*
X241757671Y-114651579D01*
X241763632Y-114651673D01*
X241763635Y-114651673D01*
X241835780Y-114652806D01*
X241913888Y-114654033D01*
X241957550Y-114644033D01*
X242060357Y-114620487D01*
X242060360Y-114620486D01*
X242066180Y-114619153D01*
X242071511Y-114616472D01*
X242071516Y-114616470D01*
X242200420Y-114551638D01*
X242205757Y-114548954D01*
X242241109Y-114518761D01*
X242297637Y-114495347D01*
X242357131Y-114509631D01*
X242372031Y-114520818D01*
X242379247Y-114527384D01*
X242412117Y-114545231D01*
X242511303Y-114599085D01*
X242511305Y-114599086D01*
X242516549Y-114601933D01*
X242573726Y-114616933D01*
X242661902Y-114640066D01*
X242661906Y-114640067D01*
X242667671Y-114641579D01*
X242673632Y-114641673D01*
X242673635Y-114641673D01*
X242745780Y-114642806D01*
X242823888Y-114644033D01*
X242867550Y-114634033D01*
X242970357Y-114610487D01*
X242970360Y-114610486D01*
X242976180Y-114609153D01*
X242981511Y-114606472D01*
X242981516Y-114606470D01*
X243103276Y-114545231D01*
X243115757Y-114538954D01*
X243234560Y-114437487D01*
X243325730Y-114310610D01*
X243327957Y-114305071D01*
X243327960Y-114305065D01*
X243338499Y-114278849D01*
X243377747Y-114231910D01*
X243437089Y-114217005D01*
X243455476Y-114220016D01*
X243531902Y-114240066D01*
X243531906Y-114240067D01*
X243537671Y-114241579D01*
X243543632Y-114241673D01*
X243543635Y-114241673D01*
X243615779Y-114242806D01*
X243693888Y-114244033D01*
X243711209Y-114240066D01*
X243840357Y-114210487D01*
X243840360Y-114210486D01*
X243846180Y-114209153D01*
X243851511Y-114206472D01*
X243851516Y-114206470D01*
X243955364Y-114154240D01*
X243985757Y-114138954D01*
X244104560Y-114037487D01*
X244195730Y-113910610D01*
X244245709Y-113786284D01*
X244251780Y-113771182D01*
X244251781Y-113771180D01*
X244254004Y-113765649D01*
X244255692Y-113753788D01*
X244275561Y-113614179D01*
X244275561Y-113614173D01*
X244276017Y-113610972D01*
X244276160Y-113597354D01*
X244262252Y-113482427D01*
X244258107Y-113448172D01*
X244258106Y-113448169D01*
X244257390Y-113442250D01*
X244202165Y-113296100D01*
X244173354Y-113254179D01*
X244117052Y-113172260D01*
X244113672Y-113167342D01*
X244043118Y-113104481D01*
X244001474Y-113067377D01*
X244001472Y-113067376D01*
X243997020Y-113063409D01*
X243989736Y-113059552D01*
X243936645Y-113031442D01*
X243858945Y-112990302D01*
X243760747Y-112965636D01*
X243713206Y-112953694D01*
X243713203Y-112953694D01*
X243707416Y-112952240D01*
X243628508Y-112951827D01*
X243557148Y-112951453D01*
X243557146Y-112951453D01*
X243551182Y-112951422D01*
X243399263Y-112987895D01*
X243260429Y-113059552D01*
X243142696Y-113162258D01*
X243139267Y-113167137D01*
X243057718Y-113283169D01*
X243052859Y-113290082D01*
X243050690Y-113295645D01*
X243050689Y-113295647D01*
X243043273Y-113314667D01*
X243004520Y-113362015D01*
X242945337Y-113377541D01*
X242926923Y-113374723D01*
X242837416Y-113352240D01*
X242758508Y-113351827D01*
X242687148Y-113351453D01*
X242687146Y-113351453D01*
X242681182Y-113351422D01*
X242529263Y-113387895D01*
X242390429Y-113459552D01*
X242385930Y-113463476D01*
X242385931Y-113463476D01*
X242360722Y-113485467D01*
X242304442Y-113509472D01*
X242244801Y-113495812D01*
X242229785Y-113484782D01*
X242221474Y-113477377D01*
X242221472Y-113477376D01*
X242217020Y-113473409D01*
X242209736Y-113469552D01*
X242171962Y-113449552D01*
X242078945Y-113400302D01*
X242003180Y-113381271D01*
X241933206Y-113363694D01*
X241933203Y-113363694D01*
X241927416Y-113362240D01*
X241848508Y-113361827D01*
X241777148Y-113361453D01*
X241777146Y-113361453D01*
X241771182Y-113361422D01*
X241619263Y-113397895D01*
X241480429Y-113469552D01*
X241370868Y-113565129D01*
X241314591Y-113589133D01*
X241254950Y-113575474D01*
X241234371Y-113558359D01*
X241233672Y-113557342D01*
X241229221Y-113553376D01*
X241229219Y-113553374D01*
X241121474Y-113457377D01*
X241121472Y-113457376D01*
X241117020Y-113453409D01*
X241109736Y-113449552D01*
X241026817Y-113405649D01*
X240978945Y-113380302D01*
X240873016Y-113353694D01*
X240833206Y-113343694D01*
X240833203Y-113343694D01*
X240827416Y-113342240D01*
X240748508Y-113341827D01*
X240677148Y-113341453D01*
X240677146Y-113341453D01*
X240671182Y-113341422D01*
X240519263Y-113377895D01*
X240380429Y-113449552D01*
X240262696Y-113552258D01*
X240259267Y-113557137D01*
X240234465Y-113592427D01*
X240172859Y-113680082D01*
X240170692Y-113685640D01*
X240170691Y-113685642D01*
X240128110Y-113794860D01*
X240116107Y-113825646D01*
X240095714Y-113980545D01*
X234517310Y-113980545D01*
X234517059Y-113978469D01*
X234528838Y-113918430D01*
X234573658Y-113876779D01*
X234616897Y-113867588D01*
X234634287Y-113867861D01*
X234708888Y-113869033D01*
X234760335Y-113857250D01*
X234855357Y-113835487D01*
X234855360Y-113835486D01*
X234861180Y-113834153D01*
X234866511Y-113831472D01*
X234866516Y-113831470D01*
X234982433Y-113773170D01*
X235000757Y-113763954D01*
X235119560Y-113662487D01*
X235210730Y-113535610D01*
X235254269Y-113427303D01*
X235293516Y-113380364D01*
X235352858Y-113365458D01*
X235409628Y-113388280D01*
X235439095Y-113430207D01*
X235474339Y-113526514D01*
X235476550Y-113532557D01*
X235563690Y-113662235D01*
X235618089Y-113711734D01*
X235670849Y-113759742D01*
X235679247Y-113767384D01*
X235739006Y-113799830D01*
X235811303Y-113839085D01*
X235811305Y-113839086D01*
X235816549Y-113841933D01*
X235895635Y-113862681D01*
X235961902Y-113880066D01*
X235961906Y-113880067D01*
X235967671Y-113881579D01*
X235973632Y-113881673D01*
X235973635Y-113881673D01*
X236045779Y-113882806D01*
X236123888Y-113884033D01*
X236141209Y-113880066D01*
X236270357Y-113850487D01*
X236270360Y-113850486D01*
X236276180Y-113849153D01*
X236281511Y-113846472D01*
X236281516Y-113846470D01*
X236396928Y-113788424D01*
X236415757Y-113778954D01*
X236534560Y-113677487D01*
X236625730Y-113550610D01*
X236662335Y-113459552D01*
X236681780Y-113411182D01*
X236681781Y-113411180D01*
X236684004Y-113405649D01*
X236687214Y-113383095D01*
X236705561Y-113254179D01*
X236705561Y-113254173D01*
X236706017Y-113250972D01*
X236706160Y-113237354D01*
X236693960Y-113136539D01*
X236688107Y-113088172D01*
X236688106Y-113088169D01*
X236687390Y-113082250D01*
X236632165Y-112936100D01*
X236627728Y-112929643D01*
X236547052Y-112812260D01*
X236543672Y-112807342D01*
X236427020Y-112703409D01*
X236419736Y-112699552D01*
X236353758Y-112664619D01*
X236288945Y-112630302D01*
X236213180Y-112611271D01*
X236143206Y-112593694D01*
X236143203Y-112593694D01*
X236137416Y-112592240D01*
X236058508Y-112591827D01*
X235987148Y-112591453D01*
X235987146Y-112591453D01*
X235981182Y-112591422D01*
X235829263Y-112627895D01*
X235690429Y-112699552D01*
X235572696Y-112802258D01*
X235569267Y-112807137D01*
X235486538Y-112924848D01*
X235482859Y-112930082D01*
X235480693Y-112935638D01*
X235480691Y-112935642D01*
X235443341Y-113031442D01*
X235404587Y-113078790D01*
X235345405Y-113094317D01*
X235288399Y-113072092D01*
X235258494Y-113030475D01*
X235242765Y-112988848D01*
X235217165Y-112921100D01*
X235196934Y-112891663D01*
X235132052Y-112797260D01*
X235128672Y-112792342D01*
X235070346Y-112740376D01*
X235016474Y-112692377D01*
X235016472Y-112692376D01*
X235012020Y-112688409D01*
X235004736Y-112684552D01*
X234968890Y-112665573D01*
X234873945Y-112615302D01*
X234782133Y-112592240D01*
X234728206Y-112578694D01*
X234728203Y-112578694D01*
X234722416Y-112577240D01*
X234643508Y-112576827D01*
X234572148Y-112576453D01*
X234572146Y-112576453D01*
X234566182Y-112576422D01*
X234414263Y-112612895D01*
X234275429Y-112684552D01*
X234157696Y-112787258D01*
X234067859Y-112915082D01*
X234065692Y-112920640D01*
X234065691Y-112920642D01*
X234037444Y-112993095D01*
X234011107Y-113060646D01*
X233990714Y-113215545D01*
X233991369Y-113221478D01*
X233991369Y-113221481D01*
X233995300Y-113257084D01*
X233982892Y-113316999D01*
X233937638Y-113358177D01*
X233896381Y-113366947D01*
X233837432Y-113366638D01*
X233802148Y-113366453D01*
X233802146Y-113366453D01*
X233796182Y-113366422D01*
X233644263Y-113402895D01*
X233505429Y-113474552D01*
X233387696Y-113577258D01*
X233384267Y-113582137D01*
X233318861Y-113675200D01*
X233297859Y-113705082D01*
X233295692Y-113710640D01*
X233295691Y-113710642D01*
X233243914Y-113843447D01*
X233241107Y-113850646D01*
X233220714Y-114005545D01*
X228855919Y-114005545D01*
X228855919Y-112782354D01*
X231855496Y-112782354D01*
X231875103Y-112931284D01*
X231932588Y-113070065D01*
X232024033Y-113189240D01*
X232143207Y-113280685D01*
X232281989Y-113338170D01*
X232288417Y-113339016D01*
X232288420Y-113339017D01*
X232424485Y-113356930D01*
X232430919Y-113357777D01*
X232437353Y-113356930D01*
X232573418Y-113339017D01*
X232573421Y-113339016D01*
X232579849Y-113338170D01*
X232718631Y-113280685D01*
X232837805Y-113189240D01*
X232929250Y-113070065D01*
X232986735Y-112931284D01*
X233006342Y-112782354D01*
X232986735Y-112633424D01*
X232946941Y-112537354D01*
X251970237Y-112537354D01*
X251971084Y-112543788D01*
X251972231Y-112552498D01*
X251990875Y-112694116D01*
X252051383Y-112840195D01*
X252147637Y-112965636D01*
X252179783Y-112990302D01*
X252262870Y-113054057D01*
X252297526Y-113104481D01*
X252300756Y-113145521D01*
X252291299Y-113217354D01*
X252310906Y-113366284D01*
X252368391Y-113505065D01*
X252407473Y-113555998D01*
X252447175Y-113607739D01*
X252459836Y-113624240D01*
X252579010Y-113715685D01*
X252717792Y-113773170D01*
X252724220Y-113774016D01*
X252724223Y-113774017D01*
X252860288Y-113791930D01*
X252866722Y-113792777D01*
X252873156Y-113791930D01*
X253009221Y-113774017D01*
X253009224Y-113774016D01*
X253015652Y-113773170D01*
X253062445Y-113753788D01*
X253076991Y-113747763D01*
X253137988Y-113742963D01*
X253190157Y-113774932D01*
X253206339Y-113801340D01*
X253257588Y-113925065D01*
X253349033Y-114044240D01*
X253468207Y-114135685D01*
X253606989Y-114193170D01*
X253613417Y-114194016D01*
X253613420Y-114194017D01*
X253749485Y-114211930D01*
X253755919Y-114212777D01*
X253762353Y-114211930D01*
X253898418Y-114194017D01*
X253898421Y-114194016D01*
X253904849Y-114193170D01*
X254043631Y-114135685D01*
X254162805Y-114044240D01*
X254244820Y-113937354D01*
X257030496Y-113937354D01*
X257050103Y-114086284D01*
X257107588Y-114225065D01*
X257199033Y-114344240D01*
X257318207Y-114435685D01*
X257456989Y-114493170D01*
X257463417Y-114494016D01*
X257463420Y-114494017D01*
X257599485Y-114511930D01*
X257605919Y-114512777D01*
X257612353Y-114511930D01*
X257748418Y-114494017D01*
X257748421Y-114494016D01*
X257754849Y-114493170D01*
X257893631Y-114435685D01*
X258012805Y-114344240D01*
X258104250Y-114225065D01*
X258161735Y-114086284D01*
X258181342Y-113937354D01*
X258161735Y-113788424D01*
X258144723Y-113747354D01*
X259710496Y-113747354D01*
X259730103Y-113896284D01*
X259787588Y-114035065D01*
X259879033Y-114154240D01*
X259998207Y-114245685D01*
X260136989Y-114303170D01*
X260143417Y-114304016D01*
X260143420Y-114304017D01*
X260279485Y-114321930D01*
X260285919Y-114322777D01*
X260292353Y-114321930D01*
X260428418Y-114304017D01*
X260428421Y-114304016D01*
X260434849Y-114303170D01*
X260573631Y-114245685D01*
X260692805Y-114154240D01*
X260784250Y-114035065D01*
X260841735Y-113896284D01*
X260861342Y-113747354D01*
X260841735Y-113598424D01*
X260784250Y-113459643D01*
X260692805Y-113340468D01*
X260573631Y-113249023D01*
X260434849Y-113191538D01*
X260428421Y-113190692D01*
X260428418Y-113190691D01*
X260292353Y-113172778D01*
X260285919Y-113171931D01*
X260136989Y-113191538D01*
X259998208Y-113249023D01*
X259879033Y-113340468D01*
X259787588Y-113459643D01*
X259730103Y-113598424D01*
X259710496Y-113747354D01*
X258144723Y-113747354D01*
X258104250Y-113649643D01*
X258012805Y-113530468D01*
X257893631Y-113439023D01*
X257754849Y-113381538D01*
X257748421Y-113380692D01*
X257748418Y-113380691D01*
X257612353Y-113362778D01*
X257605919Y-113361931D01*
X257599485Y-113362778D01*
X257580252Y-113365310D01*
X257456989Y-113381538D01*
X257318208Y-113439023D01*
X257199033Y-113530468D01*
X257107588Y-113649643D01*
X257050103Y-113788424D01*
X257030496Y-113937354D01*
X254244820Y-113937354D01*
X254254250Y-113925065D01*
X254311735Y-113786284D01*
X254331342Y-113637354D01*
X254311735Y-113488424D01*
X254304855Y-113471813D01*
X254290244Y-113436540D01*
X254254250Y-113349643D01*
X254162805Y-113230468D01*
X254043631Y-113139023D01*
X253904849Y-113081538D01*
X253898421Y-113080692D01*
X253898418Y-113080691D01*
X253762353Y-113062778D01*
X253755919Y-113061931D01*
X253749485Y-113062778D01*
X253730252Y-113065310D01*
X253606989Y-113081538D01*
X253600992Y-113084022D01*
X253545651Y-113106945D01*
X253484654Y-113111746D01*
X253432485Y-113079776D01*
X253416301Y-113053367D01*
X253365053Y-112929643D01*
X253273608Y-112810468D01*
X253249986Y-112792342D01*
X253202732Y-112756083D01*
X253168076Y-112705659D01*
X253164846Y-112664619D01*
X253168997Y-112633095D01*
X253179607Y-112552498D01*
X253180754Y-112543788D01*
X253181601Y-112537354D01*
X253160963Y-112380592D01*
X253110505Y-112258776D01*
X253105704Y-112197779D01*
X253110505Y-112183004D01*
X253163479Y-112055113D01*
X253165963Y-112049116D01*
X253166988Y-112041327D01*
X323300044Y-112041327D01*
X323300327Y-112043959D01*
X323300327Y-112043962D01*
X323303538Y-112073838D01*
X323309308Y-112127532D01*
X323320694Y-112179880D01*
X323321390Y-112182076D01*
X323321391Y-112182079D01*
X323341525Y-112245585D01*
X323343414Y-112251544D01*
X323410473Y-112359241D01*
X323413019Y-112362179D01*
X323413021Y-112362182D01*
X323434252Y-112386684D01*
X323456966Y-112412897D01*
X323459342Y-112415016D01*
X323459344Y-112415018D01*
X323526739Y-112475122D01*
X323534542Y-112482081D01*
X323561041Y-112494643D01*
X323645659Y-112534758D01*
X323645666Y-112534761D01*
X323649181Y-112536427D01*
X323717302Y-112556429D01*
X323831544Y-112572854D01*
X328390849Y-112572854D01*
X328393512Y-112572565D01*
X328393517Y-112572565D01*
X328444847Y-112567000D01*
X328477752Y-112563432D01*
X328480366Y-112562859D01*
X328480369Y-112562858D01*
X328500928Y-112558347D01*
X328530503Y-112551858D01*
X328613365Y-112524033D01*
X328613962Y-112523758D01*
X328620613Y-112521474D01*
X328808003Y-112466855D01*
X328822353Y-112463804D01*
X329013231Y-112437827D01*
X329027869Y-112436931D01*
X329128178Y-112438245D01*
X329220490Y-112439454D01*
X329235106Y-112440733D01*
X329425234Y-112471696D01*
X329439503Y-112475122D01*
X329641694Y-112539844D01*
X329658667Y-112545277D01*
X329662495Y-112545868D01*
X329662500Y-112545869D01*
X329680438Y-112548637D01*
X329699198Y-112553449D01*
X329705242Y-112555649D01*
X329705007Y-112556860D01*
X329712652Y-112558346D01*
X329712655Y-112558347D01*
X329732727Y-112562248D01*
X329748964Y-112565404D01*
X329783739Y-112568752D01*
X329823963Y-112572626D01*
X329823969Y-112572626D01*
X329826334Y-112572854D01*
X336079919Y-112572854D01*
X336147108Y-112565631D01*
X336163490Y-112563870D01*
X336163492Y-112563870D01*
X336166112Y-112563588D01*
X336168682Y-112563029D01*
X336168688Y-112563028D01*
X336216208Y-112552691D01*
X336216217Y-112552689D01*
X336218454Y-112552202D01*
X336273474Y-112534758D01*
X336284208Y-112531355D01*
X336284209Y-112531355D01*
X336290109Y-112529484D01*
X336361366Y-112485115D01*
X336394506Y-112464480D01*
X336394508Y-112464479D01*
X336397806Y-112462425D01*
X336451462Y-112415932D01*
X336455012Y-112411952D01*
X336515932Y-112343642D01*
X336515932Y-112343641D01*
X336520646Y-112338356D01*
X336559310Y-112256798D01*
X336569411Y-112235492D01*
X341400677Y-112235492D01*
X341401332Y-112241425D01*
X341401332Y-112241429D01*
X341415694Y-112371514D01*
X341417954Y-112391987D01*
X341424724Y-112410486D01*
X341468271Y-112529484D01*
X341472062Y-112539844D01*
X341475391Y-112544798D01*
X341556548Y-112665573D01*
X341556551Y-112665577D01*
X341559877Y-112670526D01*
X341564288Y-112674540D01*
X341564290Y-112674542D01*
X341653903Y-112756083D01*
X341676329Y-112776489D01*
X341725845Y-112803374D01*
X341809449Y-112848768D01*
X341809451Y-112848769D01*
X341814695Y-112851616D01*
X341894453Y-112872540D01*
X341961219Y-112890056D01*
X341961223Y-112890056D01*
X341966988Y-112891569D01*
X341972949Y-112891663D01*
X341972952Y-112891663D01*
X342045701Y-112892806D01*
X342124414Y-112894042D01*
X342141818Y-112890056D01*
X342272068Y-112860225D01*
X342272070Y-112860224D01*
X342277887Y-112858892D01*
X342283218Y-112856211D01*
X342413218Y-112790828D01*
X342413220Y-112790827D01*
X342418544Y-112788149D01*
X342423080Y-112784275D01*
X342533729Y-112689772D01*
X342533730Y-112689771D01*
X342538267Y-112685896D01*
X342604521Y-112593694D01*
X342626659Y-112562886D01*
X342626660Y-112562884D01*
X342630143Y-112558037D01*
X342638831Y-112536427D01*
X342686645Y-112417485D01*
X342686646Y-112417483D01*
X342688869Y-112411952D01*
X342690913Y-112397594D01*
X342710597Y-112259283D01*
X342710597Y-112259279D01*
X342711053Y-112256077D01*
X342711197Y-112242354D01*
X342700275Y-112152096D01*
X342692999Y-112091970D01*
X342692998Y-112091967D01*
X342692282Y-112086048D01*
X342636629Y-111938766D01*
X342547450Y-111809011D01*
X342542997Y-111805044D01*
X342542994Y-111805040D01*
X342472270Y-111742028D01*
X342429895Y-111704273D01*
X342417381Y-111697647D01*
X342296024Y-111633391D01*
X342296021Y-111633390D01*
X342290750Y-111630599D01*
X342214398Y-111611421D01*
X342143837Y-111593697D01*
X342143834Y-111593697D01*
X342138047Y-111592243D01*
X342058483Y-111591827D01*
X341986569Y-111591450D01*
X341986567Y-111591450D01*
X341980603Y-111591419D01*
X341827507Y-111628174D01*
X341754954Y-111665621D01*
X341692904Y-111697647D01*
X341692902Y-111697649D01*
X341687598Y-111700386D01*
X341568953Y-111803887D01*
X341478420Y-111932702D01*
X341421228Y-112079393D01*
X341420450Y-112085304D01*
X341420449Y-112085307D01*
X341419572Y-112091970D01*
X341400677Y-112235492D01*
X336569411Y-112235492D01*
X336573323Y-112227239D01*
X336573326Y-112227232D01*
X336574992Y-112223717D01*
X336594994Y-112155596D01*
X336611419Y-112041354D01*
X336611419Y-111168354D01*
X336602153Y-111082161D01*
X336601593Y-111079585D01*
X336591256Y-111032065D01*
X336591254Y-111032056D01*
X336590767Y-111029819D01*
X336568049Y-110958164D01*
X336523408Y-110886470D01*
X336503045Y-110853767D01*
X336503044Y-110853765D01*
X336500990Y-110850467D01*
X336454497Y-110796811D01*
X336424264Y-110769848D01*
X336382207Y-110732341D01*
X336382206Y-110732341D01*
X336376921Y-110727627D01*
X336323358Y-110702235D01*
X336265804Y-110674950D01*
X336265797Y-110674947D01*
X336262282Y-110673281D01*
X336194161Y-110653279D01*
X336079919Y-110636854D01*
X335435419Y-110636854D01*
X335377228Y-110617947D01*
X335341264Y-110568447D01*
X335336419Y-110537854D01*
X335336419Y-109019965D01*
X347160313Y-109019965D01*
X347160968Y-109025898D01*
X347160968Y-109025902D01*
X347178263Y-109182558D01*
X347178918Y-109188489D01*
X347237185Y-109347710D01*
X347240510Y-109352659D01*
X347240511Y-109352660D01*
X347278531Y-109409240D01*
X347331749Y-109488437D01*
X347457152Y-109602545D01*
X347606154Y-109683446D01*
X347641108Y-109692616D01*
X347764383Y-109724957D01*
X347764387Y-109724958D01*
X347770152Y-109726470D01*
X347776113Y-109726564D01*
X347776116Y-109726564D01*
X347854915Y-109727801D01*
X347939679Y-109729133D01*
X347945494Y-109727801D01*
X347945496Y-109727801D01*
X348099125Y-109692616D01*
X348099128Y-109692615D01*
X348104948Y-109691282D01*
X348120529Y-109683446D01*
X348219449Y-109633694D01*
X348256417Y-109615101D01*
X348260954Y-109611226D01*
X348260957Y-109611224D01*
X348380807Y-109508862D01*
X348380810Y-109508859D01*
X348385342Y-109504988D01*
X348394349Y-109492454D01*
X348480796Y-109372150D01*
X348480797Y-109372148D01*
X348484280Y-109367301D01*
X348488551Y-109356678D01*
X348545296Y-109215521D01*
X348545297Y-109215519D01*
X348547520Y-109209988D01*
X348548361Y-109204081D01*
X348570953Y-109045339D01*
X348570953Y-109045333D01*
X348571409Y-109042132D01*
X348571564Y-109027354D01*
X348558933Y-108922974D01*
X348551912Y-108864956D01*
X348551911Y-108864953D01*
X348551195Y-108859034D01*
X348491264Y-108700431D01*
X348485664Y-108692282D01*
X348398611Y-108565621D01*
X348395231Y-108560703D01*
X348268640Y-108447914D01*
X348118800Y-108368578D01*
X348036580Y-108347925D01*
X347960150Y-108328727D01*
X347960147Y-108328727D01*
X347954360Y-108327273D01*
X347868760Y-108326825D01*
X347790780Y-108326416D01*
X347790778Y-108326416D01*
X347784814Y-108326385D01*
X347779018Y-108327777D01*
X347779014Y-108327777D01*
X347671622Y-108353561D01*
X347619951Y-108365966D01*
X347544620Y-108404847D01*
X347474594Y-108440990D01*
X347474592Y-108440992D01*
X347469288Y-108443729D01*
X347341523Y-108555185D01*
X347338092Y-108560067D01*
X347338091Y-108560068D01*
X347261505Y-108669039D01*
X347244032Y-108693901D01*
X347240417Y-108703174D01*
X347189017Y-108835007D01*
X347182443Y-108851867D01*
X347181664Y-108857782D01*
X347181664Y-108857783D01*
X347178242Y-108883775D01*
X347160313Y-109019965D01*
X335336419Y-109019965D01*
X335336419Y-105209965D01*
X345900313Y-105209965D01*
X345900968Y-105215898D01*
X345900968Y-105215902D01*
X345908672Y-105285680D01*
X345918918Y-105378489D01*
X345977185Y-105537710D01*
X346071749Y-105678437D01*
X346197152Y-105792545D01*
X346346154Y-105873446D01*
X346381108Y-105882616D01*
X346504383Y-105914957D01*
X346504387Y-105914958D01*
X346510152Y-105916470D01*
X346516113Y-105916564D01*
X346516116Y-105916564D01*
X346594884Y-105917801D01*
X346679679Y-105919133D01*
X346685494Y-105917801D01*
X346685496Y-105917801D01*
X346839125Y-105882616D01*
X346839128Y-105882615D01*
X346844948Y-105881282D01*
X346850285Y-105878598D01*
X346872636Y-105867357D01*
X346933117Y-105858102D01*
X346987487Y-105886165D01*
X347015520Y-105944939D01*
X347017954Y-105966987D01*
X347025260Y-105986952D01*
X347059257Y-106079852D01*
X347072062Y-106114844D01*
X347075391Y-106119798D01*
X347156548Y-106240573D01*
X347156551Y-106240577D01*
X347159877Y-106245526D01*
X347164288Y-106249540D01*
X347164290Y-106249542D01*
X347271914Y-106347472D01*
X347276329Y-106351489D01*
X347345512Y-106389053D01*
X347409449Y-106423768D01*
X347409451Y-106423769D01*
X347414695Y-106426616D01*
X347494453Y-106447540D01*
X347561219Y-106465056D01*
X347561223Y-106465056D01*
X347566988Y-106466569D01*
X347572949Y-106466663D01*
X347572952Y-106466663D01*
X347645701Y-106467806D01*
X347724414Y-106469042D01*
X347741818Y-106465056D01*
X347872068Y-106435225D01*
X347872070Y-106435224D01*
X347877887Y-106433892D01*
X347883218Y-106431211D01*
X348013218Y-106365828D01*
X348013220Y-106365827D01*
X348018544Y-106363149D01*
X348032862Y-106350920D01*
X348133729Y-106264772D01*
X348133730Y-106264771D01*
X348138267Y-106260896D01*
X348190521Y-106188176D01*
X348226659Y-106137886D01*
X348226660Y-106137884D01*
X348230143Y-106133037D01*
X348237119Y-106115685D01*
X348286645Y-105992485D01*
X348286646Y-105992483D01*
X348288869Y-105986952D01*
X348290913Y-105972594D01*
X348310597Y-105834283D01*
X348310597Y-105834279D01*
X348311053Y-105831077D01*
X348311197Y-105817354D01*
X348298798Y-105714894D01*
X348292999Y-105666970D01*
X348292998Y-105666967D01*
X348292282Y-105661048D01*
X348275772Y-105617354D01*
X348238739Y-105519350D01*
X348236629Y-105513766D01*
X348147450Y-105384011D01*
X348142997Y-105380044D01*
X348142994Y-105380040D01*
X348037086Y-105285680D01*
X348029895Y-105279273D01*
X347995433Y-105261026D01*
X347896024Y-105208391D01*
X347896021Y-105208390D01*
X347890750Y-105205599D01*
X347814398Y-105186421D01*
X347743837Y-105168697D01*
X347743834Y-105168697D01*
X347738047Y-105167243D01*
X347658483Y-105166827D01*
X347586569Y-105166450D01*
X347586567Y-105166450D01*
X347580603Y-105166419D01*
X347499161Y-105185971D01*
X347433304Y-105201782D01*
X347433302Y-105201783D01*
X347427507Y-105203174D01*
X347427281Y-105202232D01*
X347371573Y-105204565D01*
X347320612Y-105170704D01*
X347299917Y-105121107D01*
X347291912Y-105054956D01*
X347291911Y-105054953D01*
X347291195Y-105049034D01*
X347231264Y-104890431D01*
X347189859Y-104830186D01*
X347150640Y-104773123D01*
X347135231Y-104750703D01*
X347008640Y-104637914D01*
X346858800Y-104558578D01*
X346763397Y-104534614D01*
X346700150Y-104518727D01*
X346700147Y-104518727D01*
X346694360Y-104517273D01*
X346608760Y-104516825D01*
X346530780Y-104516416D01*
X346530778Y-104516416D01*
X346524814Y-104516385D01*
X346519018Y-104517777D01*
X346519014Y-104517777D01*
X346448886Y-104534614D01*
X346359951Y-104555966D01*
X346289590Y-104592282D01*
X346214594Y-104630990D01*
X346214592Y-104630992D01*
X346209288Y-104633729D01*
X346081523Y-104745185D01*
X346078092Y-104750067D01*
X346078091Y-104750068D01*
X346010060Y-104846867D01*
X345984032Y-104883901D01*
X345922443Y-105041867D01*
X345921664Y-105047782D01*
X345921664Y-105047783D01*
X345920771Y-105054568D01*
X345900313Y-105209965D01*
X335336419Y-105209965D01*
X335336419Y-104843354D01*
X335327153Y-104757161D01*
X335326593Y-104754585D01*
X335316256Y-104707065D01*
X335316254Y-104707056D01*
X335315767Y-104704819D01*
X335293049Y-104633164D01*
X335234966Y-104539883D01*
X335228045Y-104528767D01*
X335228044Y-104528765D01*
X335225990Y-104525467D01*
X335218148Y-104516416D01*
X335185246Y-104478446D01*
X335179497Y-104471811D01*
X335139068Y-104435755D01*
X335107207Y-104407341D01*
X335107206Y-104407341D01*
X335101921Y-104402627D01*
X335051375Y-104378665D01*
X334990804Y-104349950D01*
X334990797Y-104349947D01*
X334987282Y-104348281D01*
X334980134Y-104346182D01*
X334961290Y-104340649D01*
X334919161Y-104328279D01*
X334804919Y-104311854D01*
X323831913Y-104311854D01*
X323745725Y-104321119D01*
X323743149Y-104321679D01*
X323743145Y-104321680D01*
X323695630Y-104332015D01*
X323695619Y-104332018D01*
X323693389Y-104332503D01*
X323667693Y-104340649D01*
X323627646Y-104353344D01*
X323627644Y-104353345D01*
X323621748Y-104355214D01*
X323616495Y-104358485D01*
X323616494Y-104358485D01*
X323538022Y-104407341D01*
X323514047Y-104422268D01*
X323511110Y-104424813D01*
X323462797Y-104466671D01*
X323462791Y-104466677D01*
X323460389Y-104468758D01*
X323458268Y-104471136D01*
X323458266Y-104471138D01*
X323395914Y-104541045D01*
X323391203Y-104546327D01*
X323388173Y-104552719D01*
X323388171Y-104552721D01*
X323347234Y-104639065D01*
X323336851Y-104660964D01*
X323335755Y-104664695D01*
X323335753Y-104664701D01*
X323322428Y-104710073D01*
X323316845Y-104729084D01*
X323300413Y-104843327D01*
X323300208Y-108835005D01*
X323300048Y-111972777D01*
X323300044Y-112041327D01*
X253166988Y-112041327D01*
X253186601Y-111892354D01*
X253165963Y-111735592D01*
X253105455Y-111589513D01*
X253009201Y-111464072D01*
X252883760Y-111367818D01*
X252755988Y-111314893D01*
X252743678Y-111309794D01*
X252737681Y-111307310D01*
X252580919Y-111286672D01*
X252424157Y-111307310D01*
X252418160Y-111309794D01*
X252405850Y-111314893D01*
X252278078Y-111367818D01*
X252152637Y-111464072D01*
X252056383Y-111589513D01*
X251995875Y-111735592D01*
X251975237Y-111892354D01*
X251995875Y-112049116D01*
X251998359Y-112055113D01*
X252046333Y-112170932D01*
X252051134Y-112231929D01*
X252046333Y-112246704D01*
X252021178Y-112307434D01*
X251990875Y-112380592D01*
X251970237Y-112537354D01*
X232946941Y-112537354D01*
X232929250Y-112494643D01*
X232837805Y-112375468D01*
X232718631Y-112284023D01*
X232579849Y-112226538D01*
X232573421Y-112225692D01*
X232573418Y-112225691D01*
X232437353Y-112207778D01*
X232430919Y-112206931D01*
X232281989Y-112226538D01*
X232143208Y-112284023D01*
X232024033Y-112375468D01*
X231932588Y-112494643D01*
X231875103Y-112633424D01*
X231855496Y-112782354D01*
X228855919Y-112782354D01*
X228855919Y-110595492D01*
X237255677Y-110595492D01*
X237256332Y-110601425D01*
X237256332Y-110601429D01*
X237267461Y-110702235D01*
X237272954Y-110751987D01*
X237298443Y-110821638D01*
X237320508Y-110881933D01*
X237327062Y-110899844D01*
X237330391Y-110904798D01*
X237411548Y-111025573D01*
X237411551Y-111025577D01*
X237414877Y-111030526D01*
X237419288Y-111034540D01*
X237419290Y-111034542D01*
X237526914Y-111132472D01*
X237531329Y-111136489D01*
X237585173Y-111165724D01*
X237664449Y-111208768D01*
X237664451Y-111208769D01*
X237669695Y-111211616D01*
X237731778Y-111227903D01*
X237816219Y-111250056D01*
X237816223Y-111250056D01*
X237821988Y-111251569D01*
X237827949Y-111251663D01*
X237827952Y-111251663D01*
X237900701Y-111252805D01*
X237979414Y-111254042D01*
X237990212Y-111251569D01*
X238127068Y-111220225D01*
X238127070Y-111220224D01*
X238132887Y-111218892D01*
X238138218Y-111216211D01*
X238268218Y-111150828D01*
X238268220Y-111150827D01*
X238273544Y-111148149D01*
X238287196Y-111136489D01*
X238388729Y-111049772D01*
X238388730Y-111049771D01*
X238393267Y-111045896D01*
X238465358Y-110945571D01*
X238481659Y-110922886D01*
X238481660Y-110922884D01*
X238485143Y-110918037D01*
X238496755Y-110889153D01*
X238541645Y-110777485D01*
X238541646Y-110777483D01*
X238543869Y-110771952D01*
X238545913Y-110757594D01*
X238565597Y-110619283D01*
X238565597Y-110619279D01*
X238566053Y-110616077D01*
X238566197Y-110602354D01*
X238550474Y-110472427D01*
X238547999Y-110451970D01*
X238547998Y-110451967D01*
X238547282Y-110446048D01*
X238491629Y-110298766D01*
X238472233Y-110270545D01*
X247125714Y-110270545D01*
X247126369Y-110276478D01*
X247126369Y-110276482D01*
X247141713Y-110415469D01*
X247142858Y-110425837D01*
X247144908Y-110431439D01*
X247144909Y-110431443D01*
X247162102Y-110478424D01*
X247196550Y-110572557D01*
X247283690Y-110702235D01*
X247316776Y-110732341D01*
X247385297Y-110794690D01*
X247399247Y-110807384D01*
X247425500Y-110821638D01*
X247531303Y-110879085D01*
X247531305Y-110879086D01*
X247536549Y-110881933D01*
X247604822Y-110899844D01*
X247681902Y-110920066D01*
X247681906Y-110920067D01*
X247687671Y-110921579D01*
X247693632Y-110921673D01*
X247693635Y-110921673D01*
X247765779Y-110922806D01*
X247843888Y-110924033D01*
X247854603Y-110921579D01*
X247990357Y-110890487D01*
X247990360Y-110890486D01*
X247996180Y-110889153D01*
X248001511Y-110886472D01*
X248001516Y-110886470D01*
X248130420Y-110821638D01*
X248135757Y-110818954D01*
X248254560Y-110717487D01*
X248319327Y-110627354D01*
X249540496Y-110627354D01*
X249560103Y-110776284D01*
X249617588Y-110915065D01*
X249650997Y-110958605D01*
X249671420Y-111016278D01*
X249650996Y-111079137D01*
X249627588Y-111109643D01*
X249570103Y-111248424D01*
X249550496Y-111397354D01*
X249570103Y-111546284D01*
X249627588Y-111685065D01*
X249719033Y-111804240D01*
X249838207Y-111895685D01*
X249976989Y-111953170D01*
X249983417Y-111954016D01*
X249983420Y-111954017D01*
X250119485Y-111971930D01*
X250125919Y-111972777D01*
X250132353Y-111971930D01*
X250268418Y-111954017D01*
X250268421Y-111954016D01*
X250274849Y-111953170D01*
X250413631Y-111895685D01*
X250532805Y-111804240D01*
X250624250Y-111685065D01*
X250681735Y-111546284D01*
X250701342Y-111397354D01*
X250681735Y-111248424D01*
X250624250Y-111109643D01*
X250590841Y-111066103D01*
X250570418Y-111008430D01*
X250590842Y-110945571D01*
X250609180Y-110921673D01*
X250614250Y-110915065D01*
X250671735Y-110776284D01*
X250691342Y-110627354D01*
X250671735Y-110478424D01*
X250614250Y-110339643D01*
X250522805Y-110220468D01*
X250403631Y-110129023D01*
X250264849Y-110071538D01*
X250258421Y-110070692D01*
X250258418Y-110070691D01*
X250122353Y-110052778D01*
X250115919Y-110051931D01*
X249966989Y-110071538D01*
X249828208Y-110129023D01*
X249709033Y-110220468D01*
X249617588Y-110339643D01*
X249560103Y-110478424D01*
X249540496Y-110627354D01*
X248319327Y-110627354D01*
X248345730Y-110590610D01*
X248390829Y-110478424D01*
X248401780Y-110451182D01*
X248401781Y-110451180D01*
X248404004Y-110445649D01*
X248404845Y-110439742D01*
X248425561Y-110294179D01*
X248425561Y-110294173D01*
X248426017Y-110290972D01*
X248426160Y-110277354D01*
X248413644Y-110173930D01*
X248408107Y-110128172D01*
X248408106Y-110128169D01*
X248407390Y-110122250D01*
X248352165Y-109976100D01*
X248347315Y-109969042D01*
X248275764Y-109864937D01*
X248263672Y-109847342D01*
X248147020Y-109743409D01*
X248139736Y-109739552D01*
X248103212Y-109720214D01*
X248008945Y-109670302D01*
X247898370Y-109642527D01*
X247863206Y-109633694D01*
X247863203Y-109633694D01*
X247857416Y-109632240D01*
X247778508Y-109631827D01*
X247707148Y-109631453D01*
X247707146Y-109631453D01*
X247701182Y-109631422D01*
X247549263Y-109667895D01*
X247410429Y-109739552D01*
X247292696Y-109842258D01*
X247289267Y-109847137D01*
X247207032Y-109964145D01*
X247202859Y-109970082D01*
X247200692Y-109975640D01*
X247200691Y-109975642D01*
X247162336Y-110074021D01*
X247146107Y-110115646D01*
X247125714Y-110270545D01*
X238472233Y-110270545D01*
X238420627Y-110195458D01*
X238405831Y-110173930D01*
X238405830Y-110173929D01*
X238402450Y-110169011D01*
X238397997Y-110165044D01*
X238397994Y-110165040D01*
X238295837Y-110074022D01*
X238284895Y-110064273D01*
X238263185Y-110052778D01*
X238151024Y-109993391D01*
X238151021Y-109993390D01*
X238145750Y-109990599D01*
X238059553Y-109968948D01*
X237998837Y-109953697D01*
X237998834Y-109953697D01*
X237993047Y-109952243D01*
X237913483Y-109951827D01*
X237841569Y-109951450D01*
X237841567Y-109951450D01*
X237835603Y-109951419D01*
X237682507Y-109988174D01*
X237609954Y-110025621D01*
X237547904Y-110057647D01*
X237547902Y-110057649D01*
X237542598Y-110060386D01*
X237423953Y-110163887D01*
X237333420Y-110292702D01*
X237276228Y-110439393D01*
X237275450Y-110445304D01*
X237275449Y-110445307D01*
X237274676Y-110451182D01*
X237255677Y-110595492D01*
X228855919Y-110595492D01*
X228855919Y-110059587D01*
X228874826Y-110001396D01*
X228917032Y-109968124D01*
X229043631Y-109915685D01*
X229093585Y-109877354D01*
X231870496Y-109877354D01*
X231890103Y-110026284D01*
X231947588Y-110165065D01*
X232039033Y-110284240D01*
X232158207Y-110375685D01*
X232296989Y-110433170D01*
X232303417Y-110434016D01*
X232303420Y-110434017D01*
X232439485Y-110451930D01*
X232445919Y-110452777D01*
X232452353Y-110451930D01*
X232588418Y-110434017D01*
X232588421Y-110434016D01*
X232594849Y-110433170D01*
X232733631Y-110375685D01*
X232852805Y-110284240D01*
X232944250Y-110165065D01*
X233001735Y-110026284D01*
X233021342Y-109877354D01*
X233001735Y-109728424D01*
X232944250Y-109589643D01*
X232852805Y-109470468D01*
X232733631Y-109379023D01*
X232594849Y-109321538D01*
X232588421Y-109320692D01*
X232588418Y-109320691D01*
X232452353Y-109302778D01*
X232445919Y-109301931D01*
X232296989Y-109321538D01*
X232290992Y-109324022D01*
X232270858Y-109332362D01*
X232158208Y-109379023D01*
X232039033Y-109470468D01*
X231947588Y-109589643D01*
X231890103Y-109728424D01*
X231870496Y-109877354D01*
X229093585Y-109877354D01*
X229162805Y-109824240D01*
X229254250Y-109705065D01*
X229311735Y-109566284D01*
X229329890Y-109428383D01*
X229330495Y-109423788D01*
X229331342Y-109417354D01*
X229311735Y-109268424D01*
X229254250Y-109129643D01*
X229162805Y-109010468D01*
X229043631Y-108919023D01*
X228917032Y-108866585D01*
X228870508Y-108826848D01*
X228855919Y-108775121D01*
X228855919Y-108265545D01*
X236080714Y-108265545D01*
X236081369Y-108271478D01*
X236081369Y-108271482D01*
X236091800Y-108365966D01*
X236097858Y-108420837D01*
X236099908Y-108426439D01*
X236099909Y-108426443D01*
X236149498Y-108561951D01*
X236151550Y-108567557D01*
X236238690Y-108697235D01*
X236282468Y-108737070D01*
X236327285Y-108777850D01*
X236354247Y-108802384D01*
X236399304Y-108826848D01*
X236486303Y-108874085D01*
X236486305Y-108874086D01*
X236491549Y-108876933D01*
X236497324Y-108878448D01*
X236497329Y-108878450D01*
X236612465Y-108908656D01*
X236663953Y-108941710D01*
X236685526Y-109002127D01*
X236685496Y-109002354D01*
X236705103Y-109151284D01*
X236762588Y-109290065D01*
X236854033Y-109409240D01*
X236973207Y-109500685D01*
X237111989Y-109558170D01*
X237118417Y-109559016D01*
X237118420Y-109559017D01*
X237254485Y-109576930D01*
X237260919Y-109577777D01*
X237267353Y-109576930D01*
X237403418Y-109559017D01*
X237403421Y-109559016D01*
X237409849Y-109558170D01*
X237548631Y-109500685D01*
X237667805Y-109409240D01*
X237759250Y-109290065D01*
X237816735Y-109151284D01*
X237836342Y-109002354D01*
X237834492Y-108988303D01*
X237845642Y-108928143D01*
X237890023Y-108886026D01*
X237910541Y-108878880D01*
X237912419Y-108878450D01*
X237931180Y-108874153D01*
X237936511Y-108871472D01*
X237936516Y-108871470D01*
X238056620Y-108811064D01*
X238070757Y-108803954D01*
X238189560Y-108702487D01*
X238256044Y-108609965D01*
X248120313Y-108609965D01*
X248120968Y-108615898D01*
X248120968Y-108615902D01*
X248137615Y-108766689D01*
X248138918Y-108778489D01*
X248197185Y-108937710D01*
X248200510Y-108942659D01*
X248200511Y-108942660D01*
X248231454Y-108988708D01*
X248291749Y-109078437D01*
X248364734Y-109144848D01*
X248412695Y-109188489D01*
X248417152Y-109192545D01*
X248566154Y-109273446D01*
X248609662Y-109284860D01*
X248724383Y-109314957D01*
X248724387Y-109314958D01*
X248730152Y-109316470D01*
X248736113Y-109316564D01*
X248736116Y-109316564D01*
X248814915Y-109317801D01*
X248899679Y-109319133D01*
X248905494Y-109317801D01*
X248905496Y-109317801D01*
X248937409Y-109310492D01*
X256970677Y-109310492D01*
X256971332Y-109316425D01*
X256971332Y-109316429D01*
X256983692Y-109428383D01*
X256987954Y-109466987D01*
X256993991Y-109483484D01*
X257037136Y-109601382D01*
X257042062Y-109614844D01*
X257045391Y-109619798D01*
X257126548Y-109740573D01*
X257126551Y-109740577D01*
X257129877Y-109745526D01*
X257134288Y-109749540D01*
X257134290Y-109749542D01*
X257241546Y-109847137D01*
X257246329Y-109851489D01*
X257293966Y-109877354D01*
X257379449Y-109923768D01*
X257379451Y-109923769D01*
X257384695Y-109926616D01*
X257464453Y-109947540D01*
X257531219Y-109965056D01*
X257531223Y-109965056D01*
X257536988Y-109966569D01*
X257542949Y-109966663D01*
X257542952Y-109966663D01*
X257615701Y-109967806D01*
X257694414Y-109969042D01*
X257705212Y-109966569D01*
X257842068Y-109935225D01*
X257842070Y-109935224D01*
X257847887Y-109933892D01*
X257858217Y-109928697D01*
X257953429Y-109880810D01*
X257997912Y-109870254D01*
X258415892Y-109870254D01*
X258474083Y-109889161D01*
X258485896Y-109899250D01*
X259744717Y-111158070D01*
X259747587Y-111161063D01*
X259790174Y-111207376D01*
X259823281Y-111227903D01*
X259828424Y-111231092D01*
X259836098Y-111236366D01*
X259871947Y-111263577D01*
X259878222Y-111266061D01*
X259878223Y-111266062D01*
X259888277Y-111270043D01*
X259903998Y-111277950D01*
X259918920Y-111287202D01*
X259925402Y-111289085D01*
X259925404Y-111289086D01*
X259962128Y-111299755D01*
X259970951Y-111302775D01*
X260012794Y-111319342D01*
X260019502Y-111320047D01*
X260019510Y-111320049D01*
X260030260Y-111321179D01*
X260047525Y-111324565D01*
X260064390Y-111329465D01*
X260069562Y-111329845D01*
X260069563Y-111329845D01*
X260073335Y-111330122D01*
X260073338Y-111330122D01*
X260075134Y-111330254D01*
X260111420Y-111330254D01*
X260121769Y-111330796D01*
X260156742Y-111334472D01*
X260163450Y-111335177D01*
X260184361Y-111331640D01*
X260200872Y-111330254D01*
X261771445Y-111330254D01*
X261775590Y-111330341D01*
X261838441Y-111332975D01*
X261882264Y-111322696D01*
X261891416Y-111321000D01*
X261916328Y-111317588D01*
X261929317Y-111315809D01*
X261929318Y-111315809D01*
X261936003Y-111314893D01*
X261942195Y-111312214D01*
X261942200Y-111312212D01*
X261952116Y-111307921D01*
X261968828Y-111302394D01*
X261979350Y-111299926D01*
X261979353Y-111299925D01*
X261985923Y-111298384D01*
X261991832Y-111295136D01*
X261991836Y-111295134D01*
X262019960Y-111279672D01*
X262025359Y-111276704D01*
X262033734Y-111272601D01*
X262068834Y-111257412D01*
X262068835Y-111257411D01*
X262075029Y-111254731D01*
X262088672Y-111243683D01*
X262103279Y-111233867D01*
X262114128Y-111227903D01*
X262114132Y-111227900D01*
X262118671Y-111225405D01*
X262122595Y-111222018D01*
X262125304Y-111220135D01*
X262159702Y-111204928D01*
X262202068Y-111195225D01*
X262202070Y-111195224D01*
X262207887Y-111193892D01*
X262263893Y-111165724D01*
X262343218Y-111125828D01*
X262343220Y-111125827D01*
X262348544Y-111123149D01*
X262399551Y-111079585D01*
X262463729Y-111024772D01*
X262463730Y-111024771D01*
X262468267Y-111020896D01*
X262520521Y-110948176D01*
X262556659Y-110897886D01*
X262556660Y-110897884D01*
X262560143Y-110893037D01*
X262575930Y-110853767D01*
X262616645Y-110752485D01*
X262616646Y-110752483D01*
X262618869Y-110746952D01*
X262620949Y-110732341D01*
X262640597Y-110594283D01*
X262640597Y-110594279D01*
X262641053Y-110591077D01*
X262641197Y-110577354D01*
X262625929Y-110451182D01*
X262622999Y-110426970D01*
X262622998Y-110426967D01*
X262622282Y-110421048D01*
X262606080Y-110378169D01*
X262568739Y-110279350D01*
X262566629Y-110273766D01*
X262477450Y-110144011D01*
X262472997Y-110140044D01*
X262472994Y-110140040D01*
X262387954Y-110064273D01*
X262359895Y-110039273D01*
X262346690Y-110032281D01*
X262226024Y-109968391D01*
X262226021Y-109968390D01*
X262220750Y-109965599D01*
X262144398Y-109946421D01*
X262073837Y-109928697D01*
X262073834Y-109928697D01*
X262068047Y-109927243D01*
X261988483Y-109926827D01*
X261916569Y-109926450D01*
X261916567Y-109926450D01*
X261910603Y-109926419D01*
X261757507Y-109963174D01*
X261698962Y-109993391D01*
X261622904Y-110032647D01*
X261622902Y-110032649D01*
X261617598Y-110035386D01*
X261498953Y-110138887D01*
X261495526Y-110143764D01*
X261495519Y-110143771D01*
X261468384Y-110182380D01*
X261419455Y-110219117D01*
X261387388Y-110224454D01*
X260415946Y-110224454D01*
X260357755Y-110205547D01*
X260345942Y-110195458D01*
X259087121Y-108936638D01*
X259084251Y-108933645D01*
X259041664Y-108887332D01*
X259003411Y-108863614D01*
X258995740Y-108858342D01*
X258959891Y-108831131D01*
X258953615Y-108828646D01*
X258943561Y-108824665D01*
X258927840Y-108816758D01*
X258912918Y-108807506D01*
X258906436Y-108805623D01*
X258906434Y-108805622D01*
X258869710Y-108794953D01*
X258860884Y-108791932D01*
X258819044Y-108775366D01*
X258801577Y-108773530D01*
X258784318Y-108770144D01*
X258767448Y-108765243D01*
X258762276Y-108764863D01*
X258762275Y-108764863D01*
X258758503Y-108764586D01*
X258758500Y-108764586D01*
X258756704Y-108764454D01*
X258720410Y-108764454D01*
X258710062Y-108763912D01*
X258675096Y-108760237D01*
X258668388Y-108759532D01*
X258661736Y-108760657D01*
X258661737Y-108760657D01*
X258647482Y-108763068D01*
X258630972Y-108764454D01*
X257996499Y-108764454D01*
X257950174Y-108752947D01*
X257866024Y-108708391D01*
X257866021Y-108708390D01*
X257860750Y-108705599D01*
X257784399Y-108686421D01*
X257713837Y-108668697D01*
X257713834Y-108668697D01*
X257708047Y-108667243D01*
X257628483Y-108666827D01*
X257556569Y-108666450D01*
X257556567Y-108666450D01*
X257550603Y-108666419D01*
X257456467Y-108689019D01*
X257405513Y-108701252D01*
X257397507Y-108703174D01*
X257331834Y-108737070D01*
X257262904Y-108772647D01*
X257262902Y-108772649D01*
X257257598Y-108775386D01*
X257138953Y-108878887D01*
X257048420Y-109007702D01*
X257046253Y-109013260D01*
X257043639Y-109019965D01*
X256991228Y-109154393D01*
X256990450Y-109160304D01*
X256990449Y-109160307D01*
X256984975Y-109201890D01*
X256970677Y-109310492D01*
X248937409Y-109310492D01*
X249059125Y-109282616D01*
X249059128Y-109282615D01*
X249064948Y-109281282D01*
X249070631Y-109278424D01*
X249195699Y-109215521D01*
X249216417Y-109205101D01*
X249220954Y-109201226D01*
X249220957Y-109201224D01*
X249340807Y-109098862D01*
X249340810Y-109098859D01*
X249345342Y-109094988D01*
X249373416Y-109055919D01*
X249440796Y-108962150D01*
X249440797Y-108962148D01*
X249444280Y-108957301D01*
X249458080Y-108922974D01*
X249505296Y-108805521D01*
X249505297Y-108805519D01*
X249507520Y-108799988D01*
X249510671Y-108777850D01*
X249530953Y-108635339D01*
X249530953Y-108635333D01*
X249531409Y-108632132D01*
X249531564Y-108617354D01*
X249514193Y-108473808D01*
X249511912Y-108454956D01*
X249511911Y-108454953D01*
X249511195Y-108449034D01*
X249451264Y-108290431D01*
X249445546Y-108282110D01*
X249358611Y-108155621D01*
X249355231Y-108150703D01*
X249228640Y-108037914D01*
X249081420Y-107959965D01*
X251450313Y-107959965D01*
X251450968Y-107965898D01*
X251450968Y-107965902D01*
X251465957Y-108101669D01*
X251468918Y-108128489D01*
X251527185Y-108287710D01*
X251530510Y-108292659D01*
X251530511Y-108292660D01*
X251543608Y-108312150D01*
X251621749Y-108428437D01*
X251747152Y-108542545D01*
X251896154Y-108623446D01*
X251955599Y-108639041D01*
X252054383Y-108664957D01*
X252054387Y-108664958D01*
X252060152Y-108666470D01*
X252066113Y-108666564D01*
X252066116Y-108666564D01*
X252144884Y-108667801D01*
X252229679Y-108669133D01*
X252235494Y-108667801D01*
X252235496Y-108667801D01*
X252389125Y-108632616D01*
X252389128Y-108632615D01*
X252394948Y-108631282D01*
X252410529Y-108623446D01*
X252532797Y-108561951D01*
X252546417Y-108555101D01*
X252550954Y-108551226D01*
X252550957Y-108551224D01*
X252670807Y-108448862D01*
X252670810Y-108448859D01*
X252675342Y-108444988D01*
X252759951Y-108327242D01*
X252770649Y-108312354D01*
X299505280Y-108312354D01*
X299506127Y-108318788D01*
X299508300Y-108335292D01*
X299525746Y-108467811D01*
X299585750Y-108612673D01*
X299681203Y-108737070D01*
X299730192Y-108774661D01*
X299800453Y-108828575D01*
X299800457Y-108828577D01*
X299805599Y-108832523D01*
X299950462Y-108892527D01*
X299999562Y-108898991D01*
X300026466Y-108902533D01*
X300081691Y-108928874D01*
X300110886Y-108982645D01*
X300111697Y-109013607D01*
X300109462Y-109030585D01*
X300105280Y-109062354D01*
X300125746Y-109217811D01*
X300185750Y-109362673D01*
X300281203Y-109487070D01*
X300309603Y-109508862D01*
X300400453Y-109578575D01*
X300400457Y-109578577D01*
X300405599Y-109582523D01*
X300550462Y-109642527D01*
X300705919Y-109662993D01*
X300861376Y-109642527D01*
X301006239Y-109582523D01*
X301011381Y-109578577D01*
X301011385Y-109578575D01*
X301095651Y-109513914D01*
X301153327Y-109493490D01*
X301216187Y-109513914D01*
X301300453Y-109578575D01*
X301300457Y-109578577D01*
X301305599Y-109582523D01*
X301450462Y-109642527D01*
X301605919Y-109662993D01*
X301761376Y-109642527D01*
X301906239Y-109582523D01*
X301911381Y-109578577D01*
X301911385Y-109578575D01*
X302002235Y-109508862D01*
X302030635Y-109487070D01*
X302126088Y-109362673D01*
X302186092Y-109217811D01*
X302206558Y-109062354D01*
X302192935Y-108958876D01*
X302204085Y-108898716D01*
X302253203Y-108854491D01*
X302300244Y-108835007D01*
X302300249Y-108835004D01*
X302306239Y-108832523D01*
X302311381Y-108828577D01*
X302311385Y-108828575D01*
X302381646Y-108774661D01*
X302430635Y-108737070D01*
X302526088Y-108612673D01*
X302586092Y-108467811D01*
X302603538Y-108335292D01*
X302605711Y-108318788D01*
X302606558Y-108312354D01*
X302586092Y-108156897D01*
X302526088Y-108012035D01*
X302430635Y-107887638D01*
X302364979Y-107837258D01*
X302311385Y-107796133D01*
X302311381Y-107796131D01*
X302306239Y-107792185D01*
X302161376Y-107732181D01*
X302005919Y-107711715D01*
X301850462Y-107732181D01*
X301705600Y-107792185D01*
X301581203Y-107887638D01*
X301577249Y-107892791D01*
X301575923Y-107894117D01*
X301521406Y-107921894D01*
X301460974Y-107912323D01*
X301435913Y-107894114D01*
X301434585Y-107892786D01*
X301430635Y-107887638D01*
X301425482Y-107883684D01*
X301311385Y-107796133D01*
X301311381Y-107796131D01*
X301306239Y-107792185D01*
X301161376Y-107732181D01*
X301005919Y-107711715D01*
X300850462Y-107732181D01*
X300705600Y-107792185D01*
X300658438Y-107828374D01*
X300616187Y-107860794D01*
X300558512Y-107881218D01*
X300495653Y-107860794D01*
X300411389Y-107796136D01*
X300411384Y-107796133D01*
X300406239Y-107792185D01*
X300261376Y-107732181D01*
X300105919Y-107711715D01*
X299950462Y-107732181D01*
X299805600Y-107792185D01*
X299681203Y-107887638D01*
X299585750Y-108012035D01*
X299525746Y-108156897D01*
X299505280Y-108312354D01*
X252770649Y-108312354D01*
X252770796Y-108312150D01*
X252770797Y-108312148D01*
X252774280Y-108307301D01*
X252781452Y-108289462D01*
X252835296Y-108155521D01*
X252835297Y-108155519D01*
X252837520Y-108149988D01*
X252843119Y-108110646D01*
X252860953Y-107985339D01*
X252860953Y-107985333D01*
X252861409Y-107982132D01*
X252861564Y-107967354D01*
X252844746Y-107828374D01*
X252841912Y-107804956D01*
X252841911Y-107804953D01*
X252841195Y-107799034D01*
X252781264Y-107640431D01*
X252773198Y-107628694D01*
X252688611Y-107505621D01*
X252685231Y-107500703D01*
X252558640Y-107387914D01*
X252539495Y-107377777D01*
X252502463Y-107358170D01*
X252408800Y-107308578D01*
X252326580Y-107287926D01*
X252250150Y-107268727D01*
X252250147Y-107268727D01*
X252244360Y-107267273D01*
X252158760Y-107266825D01*
X252080780Y-107266416D01*
X252080778Y-107266416D01*
X252074814Y-107266385D01*
X252069018Y-107267777D01*
X252069014Y-107267777D01*
X251961622Y-107293561D01*
X251909951Y-107305966D01*
X251862055Y-107330687D01*
X251764594Y-107380990D01*
X251764592Y-107380992D01*
X251759288Y-107383729D01*
X251631523Y-107495185D01*
X251628092Y-107500067D01*
X251628091Y-107500068D01*
X251537463Y-107629019D01*
X251534032Y-107633901D01*
X251526255Y-107653848D01*
X251491739Y-107742377D01*
X251472443Y-107791867D01*
X251450313Y-107959965D01*
X249081420Y-107959965D01*
X249078800Y-107958578D01*
X248996580Y-107937925D01*
X248920150Y-107918727D01*
X248920147Y-107918727D01*
X248914360Y-107917273D01*
X248828760Y-107916825D01*
X248750780Y-107916416D01*
X248750778Y-107916416D01*
X248744814Y-107916385D01*
X248739018Y-107917777D01*
X248739014Y-107917777D01*
X248631622Y-107943561D01*
X248579951Y-107955966D01*
X248523042Y-107985339D01*
X248434594Y-108030990D01*
X248434592Y-108030992D01*
X248429288Y-108033729D01*
X248301523Y-108145185D01*
X248298092Y-108150067D01*
X248298091Y-108150068D01*
X248207463Y-108279019D01*
X248204032Y-108283901D01*
X248201864Y-108289462D01*
X248144660Y-108436182D01*
X248142443Y-108441867D01*
X248141664Y-108447782D01*
X248141664Y-108447783D01*
X248140720Y-108454956D01*
X248120313Y-108609965D01*
X238256044Y-108609965D01*
X238280730Y-108575610D01*
X238329233Y-108454956D01*
X238336780Y-108436182D01*
X238336781Y-108436180D01*
X238339004Y-108430649D01*
X238340024Y-108423484D01*
X238360561Y-108279179D01*
X238360561Y-108279173D01*
X238361017Y-108275972D01*
X238361160Y-108262354D01*
X238347672Y-108150900D01*
X238343107Y-108113172D01*
X238343106Y-108113169D01*
X238342390Y-108107250D01*
X238287165Y-107961100D01*
X238283637Y-107955966D01*
X238202052Y-107837260D01*
X238198672Y-107832342D01*
X238140346Y-107780376D01*
X238086474Y-107732377D01*
X238086472Y-107732376D01*
X238082020Y-107728409D01*
X238074736Y-107724552D01*
X238050156Y-107711538D01*
X237943945Y-107655302D01*
X237858745Y-107633901D01*
X237798206Y-107618694D01*
X237798203Y-107618694D01*
X237792416Y-107617240D01*
X237713508Y-107616827D01*
X237642148Y-107616453D01*
X237642146Y-107616453D01*
X237636182Y-107616422D01*
X237484263Y-107652895D01*
X237345429Y-107724552D01*
X237280352Y-107781323D01*
X237224074Y-107805328D01*
X237164433Y-107791669D01*
X237149419Y-107780640D01*
X237102020Y-107738409D01*
X237094736Y-107734552D01*
X237070156Y-107721538D01*
X236963945Y-107665302D01*
X236864931Y-107640431D01*
X236818206Y-107628694D01*
X236818203Y-107628694D01*
X236812416Y-107627240D01*
X236733508Y-107626827D01*
X236662148Y-107626453D01*
X236662146Y-107626453D01*
X236656182Y-107626422D01*
X236504263Y-107662895D01*
X236365429Y-107734552D01*
X236247696Y-107837258D01*
X236157859Y-107965082D01*
X236155692Y-107970640D01*
X236155691Y-107970642D01*
X236129464Y-108037914D01*
X236101107Y-108110646D01*
X236080714Y-108265545D01*
X228855919Y-108265545D01*
X228855919Y-106777354D01*
X231750496Y-106777354D01*
X231770103Y-106926284D01*
X231827588Y-107065065D01*
X231919033Y-107184240D01*
X232038207Y-107275685D01*
X232176989Y-107333170D01*
X232183417Y-107334016D01*
X232183420Y-107334017D01*
X232319485Y-107351930D01*
X232325919Y-107352777D01*
X232332353Y-107351930D01*
X232468418Y-107334017D01*
X232468421Y-107334016D01*
X232474849Y-107333170D01*
X232613631Y-107275685D01*
X232732805Y-107184240D01*
X232824250Y-107065065D01*
X232881735Y-106926284D01*
X232898051Y-106802354D01*
X234675496Y-106802354D01*
X234695103Y-106951284D01*
X234752588Y-107090065D01*
X234844033Y-107209240D01*
X234963207Y-107300685D01*
X235101989Y-107358170D01*
X235108417Y-107359016D01*
X235108420Y-107359017D01*
X235244485Y-107376930D01*
X235250919Y-107377777D01*
X235257353Y-107376930D01*
X235393418Y-107359017D01*
X235393421Y-107359016D01*
X235399849Y-107358170D01*
X235538631Y-107300685D01*
X235657805Y-107209240D01*
X235749250Y-107090065D01*
X235806735Y-106951284D01*
X235826342Y-106802354D01*
X235812505Y-106697254D01*
X236510337Y-106697254D01*
X236530975Y-106854016D01*
X236591483Y-107000095D01*
X236687737Y-107125536D01*
X236813178Y-107221790D01*
X236959257Y-107282298D01*
X237116019Y-107302936D01*
X237272781Y-107282298D01*
X237418860Y-107221790D01*
X237544301Y-107125536D01*
X237640555Y-107000095D01*
X237677029Y-106912040D01*
X237716765Y-106865516D01*
X237730602Y-106858465D01*
X237818660Y-106821990D01*
X237944101Y-106725736D01*
X238040355Y-106600295D01*
X238100863Y-106454216D01*
X238121501Y-106297454D01*
X238100863Y-106140692D01*
X238040355Y-105994613D01*
X237944101Y-105869172D01*
X237818660Y-105772918D01*
X237672581Y-105712410D01*
X237515819Y-105691772D01*
X237359057Y-105712410D01*
X237212978Y-105772918D01*
X237087537Y-105869172D01*
X236991283Y-105994613D01*
X236957722Y-106075638D01*
X236954810Y-106082667D01*
X236915073Y-106129192D01*
X236901236Y-106136243D01*
X236813178Y-106172718D01*
X236687737Y-106268972D01*
X236591483Y-106394413D01*
X236530975Y-106540492D01*
X236510337Y-106697254D01*
X235812505Y-106697254D01*
X235806735Y-106653424D01*
X235749250Y-106514643D01*
X235657805Y-106395468D01*
X235538631Y-106304023D01*
X235399849Y-106246538D01*
X235393421Y-106245692D01*
X235393418Y-106245691D01*
X235257353Y-106227778D01*
X235250919Y-106226931D01*
X235101989Y-106246538D01*
X234963208Y-106304023D01*
X234844033Y-106395468D01*
X234752588Y-106514643D01*
X234695103Y-106653424D01*
X234675496Y-106802354D01*
X232898051Y-106802354D01*
X232901342Y-106777354D01*
X232881735Y-106628424D01*
X232824250Y-106489643D01*
X232732805Y-106370468D01*
X232613631Y-106279023D01*
X232474849Y-106221538D01*
X232468421Y-106220692D01*
X232468418Y-106220691D01*
X232332353Y-106202778D01*
X232325919Y-106201931D01*
X232176989Y-106221538D01*
X232038208Y-106279023D01*
X231919033Y-106370468D01*
X231827588Y-106489643D01*
X231770103Y-106628424D01*
X231750496Y-106777354D01*
X228855919Y-106777354D01*
X228855919Y-106259587D01*
X228874826Y-106201396D01*
X228917032Y-106168124D01*
X229043631Y-106115685D01*
X229162805Y-106024240D01*
X229254250Y-105905065D01*
X229311735Y-105766284D01*
X229331342Y-105617354D01*
X229311735Y-105468424D01*
X229254250Y-105329643D01*
X229162805Y-105210468D01*
X229043631Y-105119023D01*
X228917032Y-105066585D01*
X228870508Y-105026848D01*
X228855919Y-104975121D01*
X228855919Y-104947354D01*
X252095712Y-104947354D01*
X252114460Y-105089758D01*
X252169426Y-105222457D01*
X252256864Y-105336409D01*
X252305928Y-105374057D01*
X252340583Y-105424480D01*
X252337648Y-105480515D01*
X252340068Y-105481163D01*
X252338388Y-105487431D01*
X252335906Y-105493424D01*
X252335060Y-105499852D01*
X252335059Y-105499855D01*
X252329604Y-105541291D01*
X252316299Y-105642354D01*
X252335906Y-105791284D01*
X252393391Y-105930065D01*
X252397342Y-105935214D01*
X252402796Y-105942322D01*
X252423220Y-105999998D01*
X252404198Y-106058540D01*
X252404782Y-106058877D01*
X252403195Y-106061625D01*
X252402795Y-106062857D01*
X252397588Y-106069643D01*
X252340103Y-106208424D01*
X252320496Y-106357354D01*
X252340103Y-106506284D01*
X252397588Y-106645065D01*
X252489033Y-106764240D01*
X252608207Y-106855685D01*
X252746989Y-106913170D01*
X252753417Y-106914016D01*
X252753420Y-106914017D01*
X252889485Y-106931930D01*
X252895919Y-106932777D01*
X252902353Y-106931930D01*
X253038418Y-106914017D01*
X253038421Y-106914016D01*
X253044849Y-106913170D01*
X253183631Y-106855685D01*
X253302805Y-106764240D01*
X253394250Y-106645065D01*
X253451735Y-106506284D01*
X253471342Y-106357354D01*
X253451735Y-106208424D01*
X253394250Y-106069643D01*
X253384845Y-106057386D01*
X253364421Y-105999710D01*
X253383443Y-105941168D01*
X253382859Y-105940831D01*
X253384446Y-105938083D01*
X253384846Y-105936851D01*
X253386102Y-105935214D01*
X253390053Y-105930065D01*
X253447538Y-105791284D01*
X253467145Y-105642354D01*
X253447538Y-105493424D01*
X253390053Y-105354643D01*
X253298608Y-105235468D01*
X253216425Y-105172407D01*
X253181769Y-105121983D01*
X253178539Y-105080943D01*
X253195279Y-104953788D01*
X253196126Y-104947354D01*
X253177378Y-104804950D01*
X253122412Y-104672251D01*
X253118459Y-104667099D01*
X253118319Y-104666857D01*
X253105596Y-104607009D01*
X253118319Y-104567851D01*
X253118459Y-104567609D01*
X253122412Y-104562457D01*
X253147078Y-104502908D01*
X291810150Y-104502908D01*
X291823407Y-104732823D01*
X291828311Y-104754585D01*
X291871754Y-104947354D01*
X291874037Y-104957485D01*
X291875566Y-104961249D01*
X291875567Y-104961254D01*
X291941235Y-105122974D01*
X291960680Y-105170861D01*
X291962804Y-105174327D01*
X291962806Y-105174331D01*
X292013701Y-105257383D01*
X292081010Y-105367221D01*
X292083669Y-105370291D01*
X292083670Y-105370292D01*
X292190330Y-105493424D01*
X292231794Y-105541291D01*
X292408984Y-105688397D01*
X292607821Y-105804588D01*
X292822965Y-105886744D01*
X292826940Y-105887553D01*
X292826941Y-105887553D01*
X293044655Y-105931847D01*
X293044659Y-105931847D01*
X293048638Y-105932657D01*
X293052698Y-105932806D01*
X293052699Y-105932806D01*
X293094490Y-105934338D01*
X293278780Y-105941096D01*
X293282798Y-105940581D01*
X293282804Y-105940581D01*
X293503177Y-105912351D01*
X293503183Y-105912350D01*
X293507209Y-105911834D01*
X293511102Y-105910666D01*
X293511107Y-105910665D01*
X293686307Y-105858102D01*
X293727792Y-105845656D01*
X293934605Y-105744339D01*
X294122093Y-105610606D01*
X294285221Y-105448046D01*
X294406236Y-105279635D01*
X294455546Y-105243414D01*
X294516730Y-105243093D01*
X294566418Y-105278798D01*
X294571025Y-105285653D01*
X294621010Y-105367221D01*
X294623669Y-105370291D01*
X294623670Y-105370292D01*
X294730330Y-105493424D01*
X294771794Y-105541291D01*
X294948984Y-105688397D01*
X295147821Y-105804588D01*
X295362965Y-105886744D01*
X295366940Y-105887553D01*
X295366941Y-105887553D01*
X295584655Y-105931847D01*
X295584659Y-105931847D01*
X295588638Y-105932657D01*
X295592698Y-105932806D01*
X295592699Y-105932806D01*
X295634490Y-105934338D01*
X295818780Y-105941096D01*
X295822798Y-105940581D01*
X295822804Y-105940581D01*
X296043177Y-105912351D01*
X296043183Y-105912350D01*
X296047209Y-105911834D01*
X296051102Y-105910666D01*
X296051107Y-105910665D01*
X296226307Y-105858102D01*
X296267792Y-105845656D01*
X296474605Y-105744339D01*
X296662093Y-105610606D01*
X296825221Y-105448046D01*
X296946236Y-105279635D01*
X296995546Y-105243414D01*
X297056730Y-105243093D01*
X297106418Y-105278798D01*
X297111025Y-105285653D01*
X297161010Y-105367221D01*
X297163669Y-105370291D01*
X297163670Y-105370292D01*
X297270330Y-105493424D01*
X297311794Y-105541291D01*
X297488984Y-105688397D01*
X297687821Y-105804588D01*
X297902965Y-105886744D01*
X297906940Y-105887553D01*
X297906941Y-105887553D01*
X298124655Y-105931847D01*
X298124659Y-105931847D01*
X298128638Y-105932657D01*
X298132698Y-105932806D01*
X298132699Y-105932806D01*
X298174490Y-105934338D01*
X298358780Y-105941096D01*
X298362798Y-105940581D01*
X298362804Y-105940581D01*
X298583177Y-105912351D01*
X298583183Y-105912350D01*
X298587209Y-105911834D01*
X298591102Y-105910666D01*
X298591107Y-105910665D01*
X298766307Y-105858102D01*
X298807792Y-105845656D01*
X299014605Y-105744339D01*
X299202093Y-105610606D01*
X299365221Y-105448046D01*
X299486236Y-105279635D01*
X299535546Y-105243414D01*
X299596730Y-105243093D01*
X299646418Y-105278798D01*
X299651025Y-105285653D01*
X299701010Y-105367221D01*
X299703669Y-105370291D01*
X299703670Y-105370292D01*
X299810330Y-105493424D01*
X299851794Y-105541291D01*
X300028984Y-105688397D01*
X300227821Y-105804588D01*
X300442965Y-105886744D01*
X300446940Y-105887553D01*
X300446941Y-105887553D01*
X300664655Y-105931847D01*
X300664659Y-105931847D01*
X300668638Y-105932657D01*
X300672698Y-105932806D01*
X300672699Y-105932806D01*
X300714490Y-105934338D01*
X300898780Y-105941096D01*
X300902798Y-105940581D01*
X300902804Y-105940581D01*
X301123177Y-105912351D01*
X301123183Y-105912350D01*
X301127209Y-105911834D01*
X301131102Y-105910666D01*
X301131107Y-105910665D01*
X301306307Y-105858102D01*
X301347792Y-105845656D01*
X301554605Y-105744339D01*
X301742093Y-105610606D01*
X301905221Y-105448046D01*
X302026236Y-105279635D01*
X302075546Y-105243414D01*
X302136730Y-105243093D01*
X302186418Y-105278798D01*
X302191025Y-105285653D01*
X302241010Y-105367221D01*
X302243669Y-105370291D01*
X302243670Y-105370292D01*
X302350330Y-105493424D01*
X302391794Y-105541291D01*
X302568984Y-105688397D01*
X302767821Y-105804588D01*
X302982965Y-105886744D01*
X302986940Y-105887553D01*
X302986941Y-105887553D01*
X303204655Y-105931847D01*
X303204659Y-105931847D01*
X303208638Y-105932657D01*
X303212698Y-105932806D01*
X303212699Y-105932806D01*
X303254490Y-105934338D01*
X303438780Y-105941096D01*
X303442798Y-105940581D01*
X303442804Y-105940581D01*
X303663177Y-105912351D01*
X303663183Y-105912350D01*
X303667209Y-105911834D01*
X303671102Y-105910666D01*
X303671107Y-105910665D01*
X303846307Y-105858102D01*
X303887792Y-105845656D01*
X304094605Y-105744339D01*
X304282093Y-105610606D01*
X304445221Y-105448046D01*
X304566236Y-105279635D01*
X304615546Y-105243414D01*
X304676730Y-105243093D01*
X304726418Y-105278798D01*
X304731025Y-105285653D01*
X304781010Y-105367221D01*
X304783669Y-105370291D01*
X304783670Y-105370292D01*
X304890330Y-105493424D01*
X304931794Y-105541291D01*
X305108984Y-105688397D01*
X305307821Y-105804588D01*
X305522965Y-105886744D01*
X305526940Y-105887553D01*
X305526941Y-105887553D01*
X305744655Y-105931847D01*
X305744659Y-105931847D01*
X305748638Y-105932657D01*
X305752698Y-105932806D01*
X305752699Y-105932806D01*
X305794490Y-105934338D01*
X305978780Y-105941096D01*
X305982798Y-105940581D01*
X305982804Y-105940581D01*
X306203177Y-105912351D01*
X306203183Y-105912350D01*
X306207209Y-105911834D01*
X306211102Y-105910666D01*
X306211107Y-105910665D01*
X306386307Y-105858102D01*
X306427792Y-105845656D01*
X306634605Y-105744339D01*
X306822093Y-105610606D01*
X306985221Y-105448046D01*
X307106236Y-105279635D01*
X307155546Y-105243414D01*
X307216730Y-105243093D01*
X307266418Y-105278798D01*
X307271025Y-105285653D01*
X307321010Y-105367221D01*
X307323669Y-105370291D01*
X307323670Y-105370292D01*
X307430330Y-105493424D01*
X307471794Y-105541291D01*
X307648984Y-105688397D01*
X307847821Y-105804588D01*
X308062965Y-105886744D01*
X308066940Y-105887553D01*
X308066941Y-105887553D01*
X308284655Y-105931847D01*
X308284659Y-105931847D01*
X308288638Y-105932657D01*
X308292698Y-105932806D01*
X308292699Y-105932806D01*
X308334490Y-105934338D01*
X308518780Y-105941096D01*
X308522798Y-105940581D01*
X308522804Y-105940581D01*
X308743177Y-105912351D01*
X308743183Y-105912350D01*
X308747209Y-105911834D01*
X308751102Y-105910666D01*
X308751107Y-105910665D01*
X308926307Y-105858102D01*
X308967792Y-105845656D01*
X309174605Y-105744339D01*
X309362093Y-105610606D01*
X309525221Y-105448046D01*
X309646236Y-105279635D01*
X309695546Y-105243414D01*
X309756730Y-105243093D01*
X309806418Y-105278798D01*
X309811025Y-105285653D01*
X309861010Y-105367221D01*
X309863669Y-105370291D01*
X309863670Y-105370292D01*
X309970330Y-105493424D01*
X310011794Y-105541291D01*
X310188984Y-105688397D01*
X310387821Y-105804588D01*
X310602965Y-105886744D01*
X310606940Y-105887553D01*
X310606941Y-105887553D01*
X310824655Y-105931847D01*
X310824659Y-105931847D01*
X310828638Y-105932657D01*
X310832698Y-105932806D01*
X310832699Y-105932806D01*
X310874490Y-105934338D01*
X311058780Y-105941096D01*
X311062798Y-105940581D01*
X311062804Y-105940581D01*
X311283177Y-105912351D01*
X311283183Y-105912350D01*
X311287209Y-105911834D01*
X311291102Y-105910666D01*
X311291107Y-105910665D01*
X311466307Y-105858102D01*
X311507792Y-105845656D01*
X311714605Y-105744339D01*
X311902093Y-105610606D01*
X312065221Y-105448046D01*
X312186236Y-105279635D01*
X312235546Y-105243414D01*
X312296730Y-105243093D01*
X312346418Y-105278798D01*
X312351025Y-105285653D01*
X312401010Y-105367221D01*
X312403669Y-105370291D01*
X312403670Y-105370292D01*
X312510330Y-105493424D01*
X312551794Y-105541291D01*
X312728984Y-105688397D01*
X312927821Y-105804588D01*
X313142965Y-105886744D01*
X313146940Y-105887553D01*
X313146941Y-105887553D01*
X313364655Y-105931847D01*
X313364659Y-105931847D01*
X313368638Y-105932657D01*
X313372698Y-105932806D01*
X313372699Y-105932806D01*
X313414490Y-105934338D01*
X313598780Y-105941096D01*
X313602798Y-105940581D01*
X313602804Y-105940581D01*
X313823177Y-105912351D01*
X313823183Y-105912350D01*
X313827209Y-105911834D01*
X313831102Y-105910666D01*
X313831107Y-105910665D01*
X314006307Y-105858102D01*
X314047792Y-105845656D01*
X314254605Y-105744339D01*
X314442093Y-105610606D01*
X314605221Y-105448046D01*
X314726236Y-105279635D01*
X314775546Y-105243414D01*
X314836730Y-105243093D01*
X314886418Y-105278798D01*
X314891025Y-105285653D01*
X314941010Y-105367221D01*
X314943669Y-105370291D01*
X314943670Y-105370292D01*
X315050330Y-105493424D01*
X315091794Y-105541291D01*
X315268984Y-105688397D01*
X315467821Y-105804588D01*
X315682965Y-105886744D01*
X315686940Y-105887553D01*
X315686941Y-105887553D01*
X315904655Y-105931847D01*
X315904659Y-105931847D01*
X315908638Y-105932657D01*
X315912698Y-105932806D01*
X315912699Y-105932806D01*
X315954490Y-105934338D01*
X316138780Y-105941096D01*
X316142798Y-105940581D01*
X316142804Y-105940581D01*
X316363177Y-105912351D01*
X316363183Y-105912350D01*
X316367209Y-105911834D01*
X316371102Y-105910666D01*
X316371107Y-105910665D01*
X316546307Y-105858102D01*
X316587792Y-105845656D01*
X316794605Y-105744339D01*
X316982093Y-105610606D01*
X317145221Y-105448046D01*
X317266236Y-105279635D01*
X317315546Y-105243414D01*
X317376730Y-105243093D01*
X317426418Y-105278798D01*
X317431025Y-105285653D01*
X317481010Y-105367221D01*
X317483669Y-105370291D01*
X317483670Y-105370292D01*
X317590330Y-105493424D01*
X317631794Y-105541291D01*
X317808984Y-105688397D01*
X318007821Y-105804588D01*
X318222965Y-105886744D01*
X318226940Y-105887553D01*
X318226941Y-105887553D01*
X318444655Y-105931847D01*
X318444659Y-105931847D01*
X318448638Y-105932657D01*
X318452698Y-105932806D01*
X318452699Y-105932806D01*
X318494490Y-105934338D01*
X318678780Y-105941096D01*
X318682798Y-105940581D01*
X318682804Y-105940581D01*
X318903177Y-105912351D01*
X318903183Y-105912350D01*
X318907209Y-105911834D01*
X318911102Y-105910666D01*
X318911107Y-105910665D01*
X319086307Y-105858102D01*
X319127792Y-105845656D01*
X319334605Y-105744339D01*
X319522093Y-105610606D01*
X319685221Y-105448046D01*
X319819608Y-105261026D01*
X319921646Y-105054568D01*
X319923328Y-105049034D01*
X319987411Y-104838112D01*
X319987411Y-104838111D01*
X319988594Y-104834218D01*
X319990606Y-104818939D01*
X320014988Y-104633729D01*
X320018653Y-104605892D01*
X320018767Y-104601252D01*
X320019583Y-104567851D01*
X320020331Y-104537243D01*
X320019253Y-104524133D01*
X320001794Y-104311768D01*
X320001793Y-104311765D01*
X320001461Y-104307721D01*
X319999695Y-104300687D01*
X319946348Y-104088309D01*
X319945357Y-104084363D01*
X319864455Y-103898299D01*
X319855149Y-103876897D01*
X319855148Y-103876895D01*
X319853527Y-103873167D01*
X319728436Y-103679806D01*
X319693404Y-103641306D01*
X319622054Y-103562895D01*
X319573443Y-103509472D01*
X319570257Y-103506956D01*
X319570254Y-103506953D01*
X319395900Y-103369256D01*
X319395894Y-103369252D01*
X319392712Y-103366739D01*
X319387897Y-103364081D01*
X319369241Y-103353782D01*
X319327434Y-103309107D01*
X319319871Y-103248391D01*
X319349440Y-103194825D01*
X319359596Y-103186513D01*
X319370738Y-103178566D01*
X319522093Y-103070606D01*
X319685221Y-102908046D01*
X319819608Y-102721026D01*
X319921646Y-102514568D01*
X319923317Y-102509070D01*
X319987411Y-102298112D01*
X319987411Y-102298111D01*
X319988594Y-102294218D01*
X319989308Y-102288799D01*
X320006266Y-102159981D01*
X320018653Y-102065892D01*
X320018813Y-102059369D01*
X320019740Y-102021415D01*
X320020331Y-101997243D01*
X320020036Y-101993649D01*
X320003097Y-101787611D01*
X338576323Y-101787611D01*
X338585279Y-101875266D01*
X338596662Y-101928495D01*
X338598184Y-101933326D01*
X338617804Y-101995592D01*
X338617806Y-101995595D01*
X338619680Y-102001544D01*
X338686739Y-102109241D01*
X338733232Y-102162897D01*
X338735608Y-102165016D01*
X338735610Y-102165018D01*
X338805522Y-102227367D01*
X338810808Y-102232081D01*
X338860143Y-102255469D01*
X338921925Y-102284758D01*
X338921932Y-102284761D01*
X338925447Y-102286427D01*
X338929184Y-102287524D01*
X338929186Y-102287525D01*
X338947573Y-102292924D01*
X338993568Y-102306429D01*
X339107810Y-102322854D01*
X352517870Y-102322854D01*
X352576061Y-102341761D01*
X352612025Y-102391261D01*
X352615862Y-102435943D01*
X352600419Y-102543354D01*
X352600419Y-108991354D01*
X352611971Y-109098803D01*
X352623357Y-109151145D01*
X352657486Y-109253687D01*
X352735273Y-109374727D01*
X352781766Y-109428383D01*
X352890505Y-109522606D01*
X352896942Y-109525546D01*
X352896944Y-109525547D01*
X352946630Y-109548237D01*
X353021383Y-109582376D01*
X353089504Y-109602378D01*
X353231919Y-109622854D01*
X359729919Y-109622854D01*
X359837368Y-109611302D01*
X359889710Y-109599916D01*
X359893890Y-109598525D01*
X359960713Y-109576284D01*
X359992252Y-109565787D01*
X360113292Y-109488000D01*
X360166948Y-109441507D01*
X360261171Y-109332768D01*
X360265166Y-109324022D01*
X360313670Y-109217811D01*
X360320941Y-109201890D01*
X360340943Y-109133769D01*
X360361419Y-108991354D01*
X360361419Y-102543354D01*
X360349867Y-102435905D01*
X360338481Y-102383563D01*
X360304352Y-102281021D01*
X360226565Y-102159981D01*
X360180072Y-102106325D01*
X360071333Y-102012102D01*
X360064896Y-102009162D01*
X360064894Y-102009161D01*
X360001127Y-101980040D01*
X359940455Y-101952332D01*
X359872334Y-101932330D01*
X359729919Y-101911854D01*
X355608345Y-101911854D01*
X355550154Y-101892947D01*
X355514190Y-101843447D01*
X355510354Y-101798759D01*
X355510915Y-101794862D01*
X355510915Y-101794857D01*
X355511419Y-101791354D01*
X355511419Y-96743354D01*
X355502153Y-96657161D01*
X355498866Y-96642050D01*
X355491256Y-96607065D01*
X355491254Y-96607056D01*
X355490767Y-96604819D01*
X355468049Y-96533164D01*
X355413034Y-96444810D01*
X355403045Y-96428767D01*
X355403044Y-96428765D01*
X355400990Y-96425467D01*
X355354497Y-96371811D01*
X355343583Y-96362077D01*
X355282207Y-96307341D01*
X355282206Y-96307341D01*
X355276921Y-96302627D01*
X355226375Y-96278665D01*
X355165804Y-96249950D01*
X355165797Y-96249947D01*
X355162282Y-96248281D01*
X355094161Y-96228279D01*
X354979919Y-96211854D01*
X351405259Y-96211854D01*
X351393742Y-96212359D01*
X351370865Y-96213362D01*
X351370858Y-96213362D01*
X351369774Y-96213410D01*
X351368685Y-96213506D01*
X351368680Y-96213506D01*
X351363060Y-96214000D01*
X351347804Y-96215340D01*
X351324019Y-96218139D01*
X351319610Y-96219521D01*
X351319606Y-96219522D01*
X351288494Y-96229275D01*
X351202959Y-96256088D01*
X351199475Y-96257818D01*
X351199472Y-96257819D01*
X351142538Y-96286087D01*
X351142532Y-96286091D01*
X351139369Y-96287661D01*
X351044347Y-96353180D01*
X351041747Y-96355585D01*
X350225590Y-97110530D01*
X350170033Y-97136164D01*
X350158365Y-97136854D01*
X339131919Y-97136854D01*
X339074463Y-97143031D01*
X339048348Y-97145838D01*
X339048346Y-97145838D01*
X339045726Y-97146120D01*
X339043156Y-97146679D01*
X339043150Y-97146680D01*
X338995630Y-97157017D01*
X338995621Y-97157019D01*
X338993384Y-97157506D01*
X338951810Y-97170687D01*
X338941307Y-97174017D01*
X338921729Y-97180224D01*
X338814032Y-97247283D01*
X338760376Y-97293776D01*
X338758257Y-97296152D01*
X338758255Y-97296154D01*
X338695906Y-97366066D01*
X338691192Y-97371352D01*
X338675863Y-97403688D01*
X338638515Y-97482469D01*
X338638512Y-97482476D01*
X338636846Y-97485991D01*
X338616844Y-97554112D01*
X338600419Y-97668354D01*
X338600419Y-98365505D01*
X338600417Y-98366202D01*
X338576323Y-101787611D01*
X320003097Y-101787611D01*
X320001794Y-101771768D01*
X320001793Y-101771765D01*
X320001461Y-101767721D01*
X319988578Y-101716429D01*
X319946348Y-101548309D01*
X319945357Y-101544363D01*
X319853527Y-101333167D01*
X319728436Y-101139806D01*
X319713550Y-101123446D01*
X319576180Y-100972480D01*
X319573443Y-100969472D01*
X319570257Y-100966956D01*
X319570254Y-100966953D01*
X319395900Y-100829256D01*
X319395894Y-100829252D01*
X319392712Y-100826739D01*
X319211954Y-100726955D01*
X319194654Y-100717405D01*
X319194653Y-100717404D01*
X319191096Y-100715441D01*
X319187265Y-100714084D01*
X319187262Y-100714083D01*
X318977845Y-100639924D01*
X318977840Y-100639923D01*
X318974009Y-100638566D01*
X318747281Y-100598180D01*
X318743235Y-100598131D01*
X318743229Y-100598130D01*
X318616125Y-100596577D01*
X318517002Y-100595366D01*
X318289356Y-100630201D01*
X318171464Y-100668734D01*
X318074312Y-100700488D01*
X318074308Y-100700490D01*
X318070455Y-100701749D01*
X318066855Y-100703623D01*
X317869785Y-100806211D01*
X317869782Y-100806213D01*
X317866180Y-100808088D01*
X317682015Y-100946362D01*
X317522908Y-101112859D01*
X317515686Y-101123446D01*
X317426261Y-101254537D01*
X317377849Y-101291954D01*
X317316691Y-101293769D01*
X317266146Y-101259289D01*
X317261355Y-101252522D01*
X317250156Y-101235210D01*
X317206547Y-101167801D01*
X317190645Y-101143220D01*
X317190643Y-101143217D01*
X317188436Y-101139806D01*
X317173550Y-101123446D01*
X317036180Y-100972480D01*
X317033443Y-100969472D01*
X317030257Y-100966956D01*
X317030254Y-100966953D01*
X316855900Y-100829256D01*
X316855894Y-100829252D01*
X316852712Y-100826739D01*
X316671954Y-100726955D01*
X316654654Y-100717405D01*
X316654653Y-100717404D01*
X316651096Y-100715441D01*
X316647265Y-100714084D01*
X316647262Y-100714083D01*
X316437845Y-100639924D01*
X316437840Y-100639923D01*
X316434009Y-100638566D01*
X316207281Y-100598180D01*
X316203235Y-100598131D01*
X316203229Y-100598130D01*
X316076125Y-100596577D01*
X315977002Y-100595366D01*
X315972991Y-100595980D01*
X315972988Y-100595980D01*
X315959886Y-100597985D01*
X315926299Y-100603125D01*
X315865920Y-100593238D01*
X315822882Y-100549747D01*
X315813626Y-100489266D01*
X315819861Y-100467379D01*
X315859250Y-100372284D01*
X315859251Y-100372281D01*
X315861735Y-100366284D01*
X315881342Y-100217354D01*
X315861735Y-100068424D01*
X315859054Y-100061952D01*
X315814853Y-99955239D01*
X315810052Y-99894243D01*
X315814853Y-99879469D01*
X315859250Y-99772284D01*
X315859251Y-99772282D01*
X315861735Y-99766284D01*
X315881342Y-99617354D01*
X315861735Y-99468424D01*
X315804250Y-99329643D01*
X315712805Y-99210468D01*
X315593631Y-99119023D01*
X315454849Y-99061538D01*
X315448421Y-99060692D01*
X315448418Y-99060691D01*
X315312353Y-99042778D01*
X315305919Y-99041931D01*
X315156989Y-99061538D01*
X315150991Y-99064022D01*
X315150989Y-99064023D01*
X315043804Y-99108420D01*
X314982808Y-99113221D01*
X314968034Y-99108420D01*
X314882541Y-99073008D01*
X314836015Y-99033272D01*
X314821731Y-98973777D01*
X314845146Y-98917249D01*
X314860155Y-98903006D01*
X314962805Y-98824240D01*
X315054250Y-98705065D01*
X315100911Y-98592415D01*
X315109251Y-98572281D01*
X315111735Y-98566284D01*
X315131342Y-98417354D01*
X315111735Y-98268424D01*
X315109250Y-98262424D01*
X315064853Y-98155239D01*
X315060052Y-98094243D01*
X315064853Y-98079469D01*
X315109250Y-97972284D01*
X315109251Y-97972282D01*
X315111735Y-97966284D01*
X315131342Y-97817354D01*
X315111735Y-97668424D01*
X315092366Y-97621663D01*
X315064853Y-97555239D01*
X315060052Y-97494243D01*
X315064853Y-97479469D01*
X315109250Y-97372284D01*
X315109251Y-97372282D01*
X315111735Y-97366284D01*
X315131342Y-97217354D01*
X315111735Y-97068424D01*
X315098053Y-97035392D01*
X315064853Y-96955239D01*
X315060052Y-96894243D01*
X315064853Y-96879469D01*
X315109250Y-96772284D01*
X315109251Y-96772281D01*
X315111735Y-96766284D01*
X315131342Y-96617354D01*
X315111735Y-96468424D01*
X315054250Y-96329643D01*
X314962805Y-96210468D01*
X314843631Y-96119023D01*
X314704849Y-96061538D01*
X314698421Y-96060692D01*
X314698418Y-96060691D01*
X314562353Y-96042778D01*
X314555919Y-96041931D01*
X314406989Y-96061538D01*
X314400991Y-96064022D01*
X314400989Y-96064023D01*
X314293804Y-96108420D01*
X314232808Y-96113221D01*
X314218034Y-96108420D01*
X314110848Y-96064023D01*
X314104849Y-96061538D01*
X314098421Y-96060692D01*
X314098418Y-96060691D01*
X313962353Y-96042778D01*
X313955919Y-96041931D01*
X313806989Y-96061538D01*
X313800991Y-96064022D01*
X313800989Y-96064023D01*
X313693804Y-96108420D01*
X313632808Y-96113221D01*
X313618034Y-96108420D01*
X313510848Y-96064023D01*
X313504849Y-96061538D01*
X313498421Y-96060692D01*
X313498418Y-96060691D01*
X313362353Y-96042778D01*
X313355919Y-96041931D01*
X313206989Y-96061538D01*
X313068208Y-96119023D01*
X312949033Y-96210468D01*
X312857588Y-96329643D01*
X312800103Y-96468424D01*
X312780496Y-96617354D01*
X312800103Y-96766284D01*
X312857588Y-96905065D01*
X312949033Y-97024240D01*
X313068207Y-97115685D01*
X313206989Y-97173170D01*
X313213417Y-97174016D01*
X313213420Y-97174017D01*
X313302321Y-97185721D01*
X313357546Y-97212062D01*
X313387552Y-97270952D01*
X313400103Y-97366284D01*
X313402587Y-97372282D01*
X313402588Y-97372284D01*
X313446985Y-97479469D01*
X313451786Y-97540465D01*
X313446985Y-97555239D01*
X313419472Y-97621663D01*
X313400103Y-97668424D01*
X313399256Y-97674860D01*
X313387552Y-97763756D01*
X313361211Y-97818981D01*
X313302321Y-97848987D01*
X313258369Y-97854774D01*
X313206989Y-97861538D01*
X313200991Y-97864022D01*
X313200989Y-97864023D01*
X313093804Y-97908420D01*
X313032808Y-97913221D01*
X313018034Y-97908420D01*
X312910848Y-97864023D01*
X312904849Y-97861538D01*
X312898421Y-97860692D01*
X312898418Y-97860691D01*
X312762353Y-97842778D01*
X312755919Y-97841931D01*
X312606989Y-97861538D01*
X312468208Y-97919023D01*
X312349033Y-98010468D01*
X312257588Y-98129643D01*
X312200103Y-98268424D01*
X312180496Y-98417354D01*
X312200103Y-98566284D01*
X312202587Y-98572281D01*
X312210927Y-98592415D01*
X312257588Y-98705065D01*
X312349033Y-98824240D01*
X312468207Y-98915685D01*
X312579298Y-98961700D01*
X312625823Y-99001437D01*
X312640107Y-99060931D01*
X312616692Y-99117459D01*
X312601679Y-99131706D01*
X312499033Y-99210468D01*
X312407588Y-99329643D01*
X312350103Y-99468424D01*
X312330496Y-99617354D01*
X312350103Y-99766284D01*
X312352587Y-99772282D01*
X312352588Y-99772284D01*
X312396985Y-99879469D01*
X312401786Y-99940465D01*
X312396985Y-99955239D01*
X312352784Y-100061952D01*
X312350103Y-100068424D01*
X312330496Y-100217354D01*
X312350103Y-100366284D01*
X312407588Y-100505065D01*
X312499033Y-100624240D01*
X312618207Y-100715685D01*
X312645420Y-100726957D01*
X312691944Y-100766691D01*
X312706229Y-100826186D01*
X312682815Y-100882714D01*
X312666975Y-100897589D01*
X312602015Y-100946362D01*
X312442908Y-101112859D01*
X312435686Y-101123446D01*
X312346261Y-101254537D01*
X312297849Y-101291954D01*
X312236691Y-101293769D01*
X312186146Y-101259289D01*
X312181355Y-101252522D01*
X312170156Y-101235210D01*
X312126547Y-101167801D01*
X312110645Y-101143220D01*
X312110643Y-101143217D01*
X312108436Y-101139806D01*
X312093550Y-101123446D01*
X311956180Y-100972480D01*
X311953443Y-100969472D01*
X311950257Y-100966956D01*
X311950254Y-100966953D01*
X311775900Y-100829256D01*
X311775894Y-100829252D01*
X311772712Y-100826739D01*
X311591954Y-100726955D01*
X311574654Y-100717405D01*
X311574653Y-100717404D01*
X311571096Y-100715441D01*
X311567265Y-100714084D01*
X311567262Y-100714083D01*
X311357845Y-100639924D01*
X311357840Y-100639923D01*
X311354009Y-100638566D01*
X311127281Y-100598180D01*
X311123235Y-100598131D01*
X311123229Y-100598130D01*
X310996125Y-100596577D01*
X310897002Y-100595366D01*
X310669356Y-100630201D01*
X310551464Y-100668734D01*
X310454312Y-100700488D01*
X310454308Y-100700490D01*
X310450455Y-100701749D01*
X310446855Y-100703623D01*
X310249785Y-100806211D01*
X310249782Y-100806213D01*
X310246180Y-100808088D01*
X310062015Y-100946362D01*
X309902908Y-101112859D01*
X309895686Y-101123446D01*
X309806261Y-101254537D01*
X309757849Y-101291954D01*
X309696691Y-101293769D01*
X309646146Y-101259289D01*
X309641355Y-101252522D01*
X309630156Y-101235210D01*
X309586547Y-101167801D01*
X309570645Y-101143220D01*
X309570643Y-101143217D01*
X309568436Y-101139806D01*
X309553550Y-101123446D01*
X309416180Y-100972480D01*
X309413443Y-100969472D01*
X309410257Y-100966956D01*
X309410254Y-100966953D01*
X309235900Y-100829256D01*
X309235894Y-100829252D01*
X309232712Y-100826739D01*
X309051954Y-100726955D01*
X309034654Y-100717405D01*
X309034653Y-100717404D01*
X309031096Y-100715441D01*
X309027265Y-100714084D01*
X309027262Y-100714083D01*
X308817845Y-100639924D01*
X308817840Y-100639923D01*
X308814009Y-100638566D01*
X308587281Y-100598180D01*
X308583235Y-100598131D01*
X308583229Y-100598130D01*
X308456125Y-100596577D01*
X308357002Y-100595366D01*
X308129356Y-100630201D01*
X308011464Y-100668734D01*
X307914312Y-100700488D01*
X307914308Y-100700490D01*
X307910455Y-100701749D01*
X307906855Y-100703623D01*
X307709785Y-100806211D01*
X307709782Y-100806213D01*
X307706180Y-100808088D01*
X307522015Y-100946362D01*
X307362908Y-101112859D01*
X307355686Y-101123446D01*
X307266261Y-101254537D01*
X307217849Y-101291954D01*
X307156691Y-101293769D01*
X307106146Y-101259289D01*
X307101355Y-101252522D01*
X307090156Y-101235210D01*
X307046547Y-101167801D01*
X307030645Y-101143220D01*
X307030643Y-101143217D01*
X307028436Y-101139806D01*
X307013550Y-101123446D01*
X306876180Y-100972480D01*
X306873443Y-100969472D01*
X306870257Y-100966956D01*
X306870254Y-100966953D01*
X306695900Y-100829256D01*
X306695894Y-100829252D01*
X306692712Y-100826739D01*
X306511954Y-100726955D01*
X306494654Y-100717405D01*
X306494653Y-100717404D01*
X306491096Y-100715441D01*
X306487265Y-100714084D01*
X306487262Y-100714083D01*
X306277845Y-100639924D01*
X306277840Y-100639923D01*
X306274009Y-100638566D01*
X306047281Y-100598180D01*
X306043235Y-100598131D01*
X306043229Y-100598130D01*
X305916125Y-100596577D01*
X305817002Y-100595366D01*
X305589356Y-100630201D01*
X305471464Y-100668734D01*
X305374312Y-100700488D01*
X305374308Y-100700490D01*
X305370455Y-100701749D01*
X305366855Y-100703623D01*
X305169785Y-100806211D01*
X305169782Y-100806213D01*
X305166180Y-100808088D01*
X304982015Y-100946362D01*
X304822908Y-101112859D01*
X304815686Y-101123446D01*
X304726261Y-101254537D01*
X304677849Y-101291954D01*
X304616691Y-101293769D01*
X304566146Y-101259289D01*
X304561355Y-101252522D01*
X304550156Y-101235210D01*
X304506547Y-101167801D01*
X304490645Y-101143220D01*
X304490643Y-101143217D01*
X304488436Y-101139806D01*
X304473550Y-101123446D01*
X304336180Y-100972480D01*
X304333443Y-100969472D01*
X304330257Y-100966956D01*
X304330254Y-100966953D01*
X304155900Y-100829256D01*
X304155894Y-100829252D01*
X304152712Y-100826739D01*
X303971954Y-100726955D01*
X303954654Y-100717405D01*
X303954653Y-100717404D01*
X303951096Y-100715441D01*
X303947265Y-100714084D01*
X303947262Y-100714083D01*
X303737845Y-100639924D01*
X303737840Y-100639923D01*
X303734009Y-100638566D01*
X303507281Y-100598180D01*
X303503235Y-100598131D01*
X303503229Y-100598130D01*
X303376125Y-100596577D01*
X303277002Y-100595366D01*
X303049356Y-100630201D01*
X302931464Y-100668734D01*
X302834312Y-100700488D01*
X302834308Y-100700490D01*
X302830455Y-100701749D01*
X302826855Y-100703623D01*
X302629785Y-100806211D01*
X302629782Y-100806213D01*
X302626180Y-100808088D01*
X302442015Y-100946362D01*
X302282908Y-101112859D01*
X302275686Y-101123446D01*
X302186261Y-101254537D01*
X302137849Y-101291954D01*
X302076691Y-101293769D01*
X302026146Y-101259289D01*
X302021355Y-101252522D01*
X302010156Y-101235210D01*
X301966547Y-101167801D01*
X301950645Y-101143220D01*
X301950643Y-101143217D01*
X301948436Y-101139806D01*
X301933550Y-101123446D01*
X301796180Y-100972480D01*
X301793443Y-100969472D01*
X301790257Y-100966956D01*
X301790254Y-100966953D01*
X301615900Y-100829256D01*
X301615894Y-100829252D01*
X301612712Y-100826739D01*
X301431954Y-100726955D01*
X301414654Y-100717405D01*
X301414653Y-100717404D01*
X301411096Y-100715441D01*
X301407265Y-100714084D01*
X301407262Y-100714083D01*
X301197845Y-100639924D01*
X301197840Y-100639923D01*
X301194009Y-100638566D01*
X300967281Y-100598180D01*
X300963235Y-100598131D01*
X300963229Y-100598130D01*
X300836125Y-100596577D01*
X300737002Y-100595366D01*
X300509356Y-100630201D01*
X300391464Y-100668734D01*
X300294312Y-100700488D01*
X300294308Y-100700490D01*
X300290455Y-100701749D01*
X300286855Y-100703623D01*
X300089785Y-100806211D01*
X300089782Y-100806213D01*
X300086180Y-100808088D01*
X299902015Y-100946362D01*
X299742908Y-101112859D01*
X299735686Y-101123446D01*
X299646261Y-101254537D01*
X299597849Y-101291954D01*
X299536691Y-101293769D01*
X299486146Y-101259289D01*
X299481355Y-101252522D01*
X299470156Y-101235210D01*
X299426547Y-101167801D01*
X299410645Y-101143220D01*
X299410643Y-101143217D01*
X299408436Y-101139806D01*
X299393550Y-101123446D01*
X299256180Y-100972480D01*
X299253443Y-100969472D01*
X299250257Y-100966956D01*
X299250254Y-100966953D01*
X299075900Y-100829256D01*
X299075894Y-100829252D01*
X299072712Y-100826739D01*
X298891954Y-100726955D01*
X298874654Y-100717405D01*
X298874653Y-100717404D01*
X298871096Y-100715441D01*
X298867265Y-100714084D01*
X298867262Y-100714083D01*
X298657845Y-100639924D01*
X298657840Y-100639923D01*
X298654009Y-100638566D01*
X298427281Y-100598180D01*
X298423235Y-100598131D01*
X298423229Y-100598130D01*
X298296125Y-100596577D01*
X298197002Y-100595366D01*
X297969356Y-100630201D01*
X297851464Y-100668734D01*
X297754312Y-100700488D01*
X297754308Y-100700490D01*
X297750455Y-100701749D01*
X297746855Y-100703623D01*
X297549785Y-100806211D01*
X297549782Y-100806213D01*
X297546180Y-100808088D01*
X297362015Y-100946362D01*
X297202908Y-101112859D01*
X297195686Y-101123446D01*
X297106261Y-101254537D01*
X297057849Y-101291954D01*
X296996691Y-101293769D01*
X296946146Y-101259289D01*
X296941355Y-101252522D01*
X296930156Y-101235210D01*
X296886547Y-101167801D01*
X296870645Y-101143220D01*
X296870643Y-101143217D01*
X296868436Y-101139806D01*
X296853550Y-101123446D01*
X296716180Y-100972480D01*
X296713443Y-100969472D01*
X296710257Y-100966956D01*
X296710254Y-100966953D01*
X296535900Y-100829256D01*
X296535894Y-100829252D01*
X296532712Y-100826739D01*
X296351954Y-100726955D01*
X296334654Y-100717405D01*
X296334653Y-100717404D01*
X296331096Y-100715441D01*
X296327265Y-100714084D01*
X296327262Y-100714083D01*
X296117845Y-100639924D01*
X296117840Y-100639923D01*
X296114009Y-100638566D01*
X295887281Y-100598180D01*
X295883235Y-100598131D01*
X295883229Y-100598130D01*
X295756125Y-100596577D01*
X295657002Y-100595366D01*
X295429356Y-100630201D01*
X295311464Y-100668734D01*
X295214312Y-100700488D01*
X295214308Y-100700490D01*
X295210455Y-100701749D01*
X295206855Y-100703623D01*
X295009785Y-100806211D01*
X295009782Y-100806213D01*
X295006180Y-100808088D01*
X294822015Y-100946362D01*
X294662908Y-101112859D01*
X294655686Y-101123446D01*
X294535420Y-101299748D01*
X294535417Y-101299754D01*
X294533130Y-101303106D01*
X294436167Y-101511995D01*
X294397359Y-101651931D01*
X294376669Y-101726540D01*
X294374623Y-101733916D01*
X294374190Y-101737964D01*
X294374190Y-101737966D01*
X294367693Y-101798759D01*
X294350150Y-101962908D01*
X294363407Y-102192823D01*
X294380117Y-102266970D01*
X294406974Y-102386143D01*
X294414037Y-102417485D01*
X294415566Y-102421249D01*
X294415567Y-102421254D01*
X294498890Y-102626453D01*
X294500680Y-102630861D01*
X294502804Y-102634327D01*
X294502806Y-102634331D01*
X294553683Y-102717354D01*
X294621010Y-102827221D01*
X294623669Y-102830291D01*
X294623670Y-102830292D01*
X294735399Y-102959275D01*
X294771794Y-103001291D01*
X294948984Y-103148397D01*
X294999392Y-103177853D01*
X295002594Y-103179724D01*
X295043296Y-103225408D01*
X295049372Y-103286291D01*
X295018502Y-103339118D01*
X295007466Y-103347418D01*
X295006180Y-103348088D01*
X295002931Y-103350527D01*
X295002930Y-103350528D01*
X294981565Y-103366569D01*
X294822015Y-103486362D01*
X294662908Y-103652859D01*
X294657322Y-103661048D01*
X294566261Y-103794537D01*
X294517849Y-103831954D01*
X294456691Y-103833769D01*
X294406146Y-103799289D01*
X294401355Y-103792522D01*
X294330645Y-103683220D01*
X294330643Y-103683217D01*
X294328436Y-103679806D01*
X294293404Y-103641306D01*
X294222054Y-103562895D01*
X294173443Y-103509472D01*
X294170257Y-103506956D01*
X294170254Y-103506953D01*
X293995900Y-103369256D01*
X293995894Y-103369252D01*
X293992712Y-103366739D01*
X293942677Y-103339118D01*
X293794654Y-103257405D01*
X293794653Y-103257404D01*
X293791096Y-103255441D01*
X293787265Y-103254084D01*
X293787262Y-103254083D01*
X293577845Y-103179924D01*
X293577840Y-103179923D01*
X293574009Y-103178566D01*
X293347281Y-103138180D01*
X293343235Y-103138131D01*
X293343229Y-103138130D01*
X293216125Y-103136577D01*
X293117002Y-103135366D01*
X292889356Y-103170201D01*
X292814019Y-103194825D01*
X292674312Y-103240488D01*
X292674308Y-103240490D01*
X292670455Y-103241749D01*
X292666855Y-103243623D01*
X292469785Y-103346211D01*
X292469782Y-103346213D01*
X292466180Y-103348088D01*
X292282015Y-103486362D01*
X292122908Y-103652859D01*
X292117322Y-103661048D01*
X291995420Y-103839748D01*
X291995417Y-103839754D01*
X291993130Y-103843106D01*
X291896167Y-104051995D01*
X291834623Y-104273916D01*
X291834190Y-104277964D01*
X291834190Y-104277966D01*
X291829608Y-104320837D01*
X291810150Y-104502908D01*
X253147078Y-104502908D01*
X253177378Y-104429758D01*
X253196126Y-104287354D01*
X253177378Y-104144950D01*
X253122412Y-104012251D01*
X253034974Y-103898299D01*
X252975439Y-103852616D01*
X252926169Y-103814809D01*
X252926165Y-103814807D01*
X252921023Y-103810861D01*
X252788323Y-103755895D01*
X252645919Y-103737147D01*
X252503515Y-103755895D01*
X252497518Y-103758379D01*
X252480580Y-103765395D01*
X252370816Y-103810861D01*
X252256864Y-103898299D01*
X252169426Y-104012251D01*
X252114460Y-104144950D01*
X252095712Y-104287354D01*
X252114460Y-104429758D01*
X252169426Y-104562457D01*
X252173379Y-104567609D01*
X252173519Y-104567851D01*
X252186242Y-104627699D01*
X252173519Y-104666857D01*
X252173379Y-104667099D01*
X252169426Y-104672251D01*
X252114460Y-104804950D01*
X252095712Y-104947354D01*
X228855919Y-104947354D01*
X228855919Y-104165545D01*
X236920714Y-104165545D01*
X236921369Y-104171478D01*
X236921369Y-104171482D01*
X236934872Y-104293788D01*
X236937858Y-104320837D01*
X236939908Y-104326439D01*
X236939909Y-104326443D01*
X236978249Y-104431211D01*
X236991550Y-104467557D01*
X237078690Y-104597235D01*
X237194247Y-104702384D01*
X237220500Y-104716638D01*
X237326303Y-104774085D01*
X237326305Y-104774086D01*
X237331549Y-104776933D01*
X237410635Y-104797681D01*
X237476902Y-104815066D01*
X237476906Y-104815067D01*
X237482671Y-104816579D01*
X237488632Y-104816673D01*
X237488635Y-104816673D01*
X237560780Y-104817806D01*
X237638888Y-104819033D01*
X237656209Y-104815066D01*
X237785357Y-104785487D01*
X237785360Y-104785486D01*
X237791180Y-104784153D01*
X237796511Y-104781472D01*
X237796516Y-104781470D01*
X237925420Y-104716638D01*
X237930757Y-104713954D01*
X238049560Y-104612487D01*
X238140730Y-104485610D01*
X238163837Y-104428130D01*
X238196780Y-104346182D01*
X238196781Y-104346180D01*
X238199004Y-104340649D01*
X238200065Y-104333195D01*
X238220561Y-104189179D01*
X238220561Y-104189173D01*
X238221017Y-104185972D01*
X238221160Y-104172354D01*
X238204546Y-104035065D01*
X238203107Y-104023172D01*
X238203106Y-104023169D01*
X238202390Y-104017250D01*
X238147165Y-103871100D01*
X238134462Y-103852616D01*
X238062052Y-103747260D01*
X238058672Y-103742342D01*
X237971852Y-103664988D01*
X237946474Y-103642377D01*
X237946472Y-103642376D01*
X237942020Y-103638409D01*
X237934736Y-103634552D01*
X237877671Y-103604338D01*
X237803945Y-103565302D01*
X237728181Y-103546271D01*
X237658206Y-103528694D01*
X237658203Y-103528694D01*
X237652416Y-103527240D01*
X237573508Y-103526827D01*
X237502148Y-103526453D01*
X237502146Y-103526453D01*
X237496182Y-103526422D01*
X237344263Y-103562895D01*
X237205429Y-103634552D01*
X237087696Y-103737258D01*
X237084267Y-103742137D01*
X237033661Y-103814142D01*
X236997859Y-103865082D01*
X236995692Y-103870640D01*
X236995691Y-103870642D01*
X236948188Y-103992485D01*
X236941107Y-104010646D01*
X236920714Y-104165545D01*
X228855919Y-104165545D01*
X228855919Y-103265545D01*
X238820714Y-103265545D01*
X238821369Y-103271478D01*
X238821369Y-103271482D01*
X238835096Y-103395817D01*
X238837858Y-103420837D01*
X238839908Y-103426439D01*
X238839909Y-103426443D01*
X238888588Y-103559464D01*
X238891550Y-103567557D01*
X238978690Y-103697235D01*
X239094247Y-103802384D01*
X239127769Y-103820585D01*
X239226303Y-103874085D01*
X239226305Y-103874086D01*
X239231549Y-103876933D01*
X239297920Y-103894345D01*
X239376902Y-103915066D01*
X239376906Y-103915067D01*
X239382671Y-103916579D01*
X239388632Y-103916673D01*
X239388635Y-103916673D01*
X239460780Y-103917806D01*
X239538888Y-103919033D01*
X239556209Y-103915066D01*
X239685357Y-103885487D01*
X239685360Y-103885486D01*
X239691180Y-103884153D01*
X239696511Y-103881472D01*
X239696516Y-103881470D01*
X239816942Y-103820902D01*
X239828747Y-103814965D01*
X242265313Y-103814965D01*
X242265968Y-103820898D01*
X242265968Y-103820902D01*
X242276802Y-103919033D01*
X242283918Y-103983489D01*
X242342185Y-104142710D01*
X242345510Y-104147659D01*
X242345511Y-104147660D01*
X242369083Y-104182739D01*
X242436749Y-104283437D01*
X242562152Y-104397545D01*
X242711154Y-104478446D01*
X242770599Y-104494041D01*
X242869383Y-104519957D01*
X242869387Y-104519958D01*
X242875152Y-104521470D01*
X242881113Y-104521564D01*
X242881116Y-104521564D01*
X242959915Y-104522801D01*
X243044679Y-104524133D01*
X243050494Y-104522801D01*
X243050496Y-104522801D01*
X243204125Y-104487616D01*
X243204128Y-104487615D01*
X243209948Y-104486282D01*
X243222300Y-104480070D01*
X243310410Y-104435755D01*
X243361417Y-104410101D01*
X243365954Y-104406226D01*
X243365957Y-104406224D01*
X243400084Y-104377076D01*
X243426980Y-104354105D01*
X243483507Y-104330690D01*
X243543002Y-104344973D01*
X243547260Y-104347786D01*
X243551329Y-104351489D01*
X243556571Y-104354335D01*
X243684449Y-104423768D01*
X243684451Y-104423769D01*
X243689695Y-104426616D01*
X243769453Y-104447540D01*
X243836219Y-104465056D01*
X243836223Y-104465056D01*
X243841988Y-104466569D01*
X243847949Y-104466663D01*
X243847952Y-104466663D01*
X243920701Y-104467806D01*
X243999414Y-104469042D01*
X244005898Y-104467557D01*
X244147068Y-104435225D01*
X244147070Y-104435224D01*
X244152887Y-104433892D01*
X244161107Y-104429758D01*
X244288218Y-104365828D01*
X244288220Y-104365827D01*
X244293544Y-104363149D01*
X244313410Y-104346182D01*
X244408729Y-104264772D01*
X244408730Y-104264771D01*
X244413267Y-104260896D01*
X244467105Y-104185972D01*
X244501659Y-104137886D01*
X244501660Y-104137884D01*
X244505143Y-104133037D01*
X244526210Y-104080633D01*
X244561645Y-103992485D01*
X244561646Y-103992483D01*
X244563869Y-103986952D01*
X244573885Y-103916579D01*
X244585597Y-103834283D01*
X244585597Y-103834279D01*
X244586053Y-103831077D01*
X244586197Y-103817354D01*
X244567282Y-103661048D01*
X244565173Y-103655468D01*
X244564587Y-103653080D01*
X244569070Y-103592059D01*
X244590724Y-103559467D01*
X244726599Y-103423592D01*
X244781113Y-103395817D01*
X244841545Y-103405388D01*
X244884810Y-103448653D01*
X244889570Y-103459576D01*
X244905134Y-103502107D01*
X244905136Y-103502111D01*
X244907185Y-103507710D01*
X244910510Y-103512659D01*
X244910511Y-103512660D01*
X244944908Y-103563848D01*
X245001749Y-103648437D01*
X245127152Y-103762545D01*
X245276154Y-103843446D01*
X245311108Y-103852616D01*
X245434383Y-103884957D01*
X245434387Y-103884958D01*
X245440152Y-103886470D01*
X245446113Y-103886564D01*
X245446116Y-103886564D01*
X245524884Y-103887801D01*
X245609679Y-103889133D01*
X245615494Y-103887801D01*
X245615496Y-103887801D01*
X245769125Y-103852616D01*
X245769128Y-103852615D01*
X245774948Y-103851282D01*
X245783872Y-103846794D01*
X245872171Y-103802384D01*
X245926417Y-103775101D01*
X245930954Y-103771226D01*
X245930957Y-103771224D01*
X245958905Y-103747354D01*
X249560496Y-103747354D01*
X249580103Y-103896284D01*
X249637588Y-104035065D01*
X249729033Y-104154240D01*
X249848207Y-104245685D01*
X249986989Y-104303170D01*
X249993417Y-104304016D01*
X249993420Y-104304017D01*
X250129485Y-104321930D01*
X250135919Y-104322777D01*
X250142353Y-104321930D01*
X250278418Y-104304017D01*
X250278421Y-104304016D01*
X250284849Y-104303170D01*
X250423631Y-104245685D01*
X250542805Y-104154240D01*
X250634250Y-104035065D01*
X250691735Y-103896284D01*
X250711342Y-103747354D01*
X250691735Y-103598424D01*
X250634250Y-103459643D01*
X250617352Y-103437621D01*
X250596928Y-103379945D01*
X250617352Y-103317087D01*
X250630299Y-103300214D01*
X250634250Y-103295065D01*
X250691735Y-103156284D01*
X250711342Y-103007354D01*
X250691735Y-102858424D01*
X250634250Y-102719643D01*
X250542805Y-102600468D01*
X250423631Y-102509023D01*
X250284849Y-102451538D01*
X250278421Y-102450692D01*
X250278418Y-102450691D01*
X250142353Y-102432778D01*
X250135919Y-102431931D01*
X249986989Y-102451538D01*
X249848208Y-102509023D01*
X249729033Y-102600468D01*
X249637588Y-102719643D01*
X249580103Y-102858424D01*
X249560496Y-103007354D01*
X249580103Y-103156284D01*
X249637588Y-103295065D01*
X249641539Y-103300214D01*
X249654486Y-103317087D01*
X249674910Y-103374763D01*
X249654486Y-103437621D01*
X249637588Y-103459643D01*
X249580103Y-103598424D01*
X249560496Y-103747354D01*
X245958905Y-103747354D01*
X246050807Y-103668862D01*
X246050810Y-103668859D01*
X246055342Y-103664988D01*
X246074441Y-103638409D01*
X246150796Y-103532150D01*
X246150797Y-103532148D01*
X246154280Y-103527301D01*
X246161448Y-103509472D01*
X246215296Y-103375521D01*
X246215297Y-103375519D01*
X246217520Y-103369988D01*
X246218361Y-103364081D01*
X246240953Y-103205339D01*
X246240953Y-103205333D01*
X246241409Y-103202132D01*
X246241564Y-103187354D01*
X246236531Y-103145762D01*
X246248311Y-103085721D01*
X246293132Y-103044071D01*
X246312707Y-103037369D01*
X246327887Y-103033892D01*
X246337443Y-103029086D01*
X246463218Y-102965828D01*
X246463220Y-102965827D01*
X246468544Y-102963149D01*
X246492829Y-102942408D01*
X246583729Y-102864772D01*
X246583730Y-102864771D01*
X246588267Y-102860896D01*
X246675401Y-102739636D01*
X246676659Y-102737886D01*
X246676660Y-102737884D01*
X246680143Y-102733037D01*
X246683099Y-102725685D01*
X246736645Y-102592485D01*
X246736646Y-102592483D01*
X246738869Y-102586952D01*
X246744698Y-102546000D01*
X246760597Y-102434283D01*
X246760597Y-102434279D01*
X246761053Y-102431077D01*
X246761197Y-102417354D01*
X246746296Y-102294218D01*
X246742999Y-102266970D01*
X246742998Y-102266967D01*
X246742282Y-102261048D01*
X246728617Y-102224883D01*
X246688739Y-102119350D01*
X246686629Y-102113766D01*
X246613140Y-102006840D01*
X246600831Y-101988930D01*
X246600830Y-101988929D01*
X246597450Y-101984011D01*
X246592997Y-101980044D01*
X246592994Y-101980040D01*
X246502680Y-101899574D01*
X246479895Y-101879273D01*
X246451743Y-101864367D01*
X246346024Y-101808391D01*
X246346021Y-101808390D01*
X246340750Y-101805599D01*
X246258395Y-101784913D01*
X246193837Y-101768697D01*
X246193834Y-101768697D01*
X246188047Y-101767243D01*
X246108483Y-101766827D01*
X246036569Y-101766450D01*
X246036567Y-101766450D01*
X246030603Y-101766419D01*
X245877507Y-101803174D01*
X245799479Y-101843447D01*
X245780143Y-101853427D01*
X245734737Y-101864454D01*
X244965393Y-101864454D01*
X244961248Y-101864367D01*
X244898397Y-101861733D01*
X244854574Y-101872012D01*
X244845422Y-101873708D01*
X244825168Y-101876482D01*
X244807521Y-101878899D01*
X244807520Y-101878899D01*
X244800835Y-101879815D01*
X244794643Y-101882494D01*
X244794638Y-101882496D01*
X244784722Y-101886787D01*
X244768010Y-101892314D01*
X244757488Y-101894782D01*
X244757485Y-101894783D01*
X244750915Y-101896324D01*
X244745006Y-101899572D01*
X244745002Y-101899574D01*
X244711481Y-101918003D01*
X244703104Y-101922107D01*
X244672252Y-101935458D01*
X244661809Y-101939977D01*
X244650637Y-101949024D01*
X244648166Y-101951025D01*
X244633559Y-101960841D01*
X244625552Y-101965243D01*
X244618167Y-101969303D01*
X244614247Y-101972686D01*
X244614242Y-101972690D01*
X244611388Y-101975154D01*
X244610012Y-101976342D01*
X244584342Y-102002012D01*
X244576642Y-102008944D01*
X244544083Y-102035310D01*
X244540173Y-102040812D01*
X244540172Y-102040813D01*
X244531804Y-102052588D01*
X244521111Y-102065243D01*
X244457981Y-102128373D01*
X244403464Y-102156150D01*
X244343032Y-102146579D01*
X244299767Y-102103314D01*
X244292529Y-102084458D01*
X244291735Y-102078424D01*
X244234250Y-101939643D01*
X244142805Y-101820468D01*
X244023631Y-101729023D01*
X243978893Y-101710492D01*
X256900677Y-101710492D01*
X256901332Y-101716425D01*
X256901332Y-101716429D01*
X256910755Y-101801781D01*
X256917954Y-101866987D01*
X256923902Y-101883241D01*
X256969377Y-102007506D01*
X256972062Y-102014844D01*
X256975391Y-102019798D01*
X257056548Y-102140573D01*
X257056551Y-102140577D01*
X257059877Y-102145526D01*
X257064288Y-102149540D01*
X257064290Y-102149542D01*
X257158334Y-102235115D01*
X257176329Y-102251489D01*
X257241533Y-102286892D01*
X257309449Y-102323768D01*
X257309451Y-102323769D01*
X257314695Y-102326616D01*
X257372425Y-102341761D01*
X257461219Y-102365056D01*
X257461223Y-102365056D01*
X257466988Y-102366569D01*
X257472949Y-102366663D01*
X257472952Y-102366663D01*
X257545701Y-102367805D01*
X257624414Y-102369042D01*
X257641818Y-102365056D01*
X257772068Y-102335225D01*
X257772070Y-102335224D01*
X257777887Y-102333892D01*
X257789344Y-102328130D01*
X257883429Y-102280810D01*
X257927912Y-102270254D01*
X258495892Y-102270254D01*
X258554083Y-102289161D01*
X258565896Y-102299250D01*
X259164717Y-102898070D01*
X259167587Y-102901063D01*
X259210174Y-102947376D01*
X259215912Y-102950933D01*
X259215911Y-102950933D01*
X259248424Y-102971092D01*
X259256098Y-102976366D01*
X259291947Y-103003577D01*
X259298222Y-103006061D01*
X259298223Y-103006062D01*
X259308277Y-103010043D01*
X259323998Y-103017950D01*
X259338920Y-103027202D01*
X259345402Y-103029085D01*
X259345404Y-103029086D01*
X259382128Y-103039755D01*
X259390951Y-103042775D01*
X259432794Y-103059342D01*
X259439502Y-103060047D01*
X259439510Y-103060049D01*
X259450260Y-103061179D01*
X259467525Y-103064565D01*
X259484390Y-103069465D01*
X259489562Y-103069845D01*
X259489563Y-103069845D01*
X259493335Y-103070122D01*
X259493338Y-103070122D01*
X259495134Y-103070254D01*
X259531420Y-103070254D01*
X259541769Y-103070796D01*
X259576742Y-103074472D01*
X259583450Y-103075177D01*
X259604361Y-103071640D01*
X259620872Y-103070254D01*
X261356546Y-103070254D01*
X261414737Y-103089161D01*
X261438717Y-103114037D01*
X261445293Y-103123823D01*
X261459877Y-103145526D01*
X261464288Y-103149540D01*
X261464290Y-103149542D01*
X261566618Y-103242653D01*
X261576329Y-103251489D01*
X261640426Y-103286291D01*
X261709449Y-103323768D01*
X261709451Y-103323769D01*
X261714695Y-103326616D01*
X261789387Y-103346211D01*
X261861219Y-103365056D01*
X261861223Y-103365056D01*
X261866988Y-103366569D01*
X261872949Y-103366663D01*
X261872952Y-103366663D01*
X261945701Y-103367806D01*
X262024414Y-103369042D01*
X262030230Y-103367710D01*
X262172068Y-103335225D01*
X262172070Y-103335224D01*
X262177887Y-103333892D01*
X262183218Y-103331211D01*
X262313218Y-103265828D01*
X262313220Y-103265827D01*
X262318544Y-103263149D01*
X262332196Y-103251489D01*
X262433729Y-103164772D01*
X262433730Y-103164771D01*
X262438267Y-103160896D01*
X262492286Y-103085721D01*
X262526659Y-103037886D01*
X262526660Y-103037884D01*
X262530143Y-103033037D01*
X262541862Y-103003887D01*
X262586645Y-102892485D01*
X262586646Y-102892483D01*
X262588869Y-102886952D01*
X262592578Y-102860896D01*
X262610597Y-102734283D01*
X262610597Y-102734279D01*
X262611053Y-102731077D01*
X262611197Y-102717354D01*
X262597676Y-102605621D01*
X262592999Y-102566970D01*
X262592998Y-102566967D01*
X262592282Y-102561048D01*
X262574117Y-102512974D01*
X262538739Y-102419350D01*
X262536629Y-102413766D01*
X262457924Y-102299250D01*
X262450831Y-102288930D01*
X262450830Y-102288929D01*
X262447450Y-102284011D01*
X262442997Y-102280044D01*
X262442994Y-102280040D01*
X262345103Y-102192823D01*
X262329895Y-102179273D01*
X262324624Y-102176482D01*
X262196024Y-102108391D01*
X262196021Y-102108390D01*
X262190750Y-102105599D01*
X262141856Y-102093318D01*
X262122282Y-102088401D01*
X262094234Y-102076525D01*
X262073406Y-102063611D01*
X262065740Y-102058342D01*
X262029891Y-102031131D01*
X262023615Y-102028646D01*
X262013561Y-102024665D01*
X261997840Y-102016758D01*
X261994753Y-102014844D01*
X261982918Y-102007506D01*
X261976436Y-102005623D01*
X261976434Y-102005622D01*
X261939710Y-101994953D01*
X261930884Y-101991932D01*
X261923302Y-101988930D01*
X261889044Y-101975366D01*
X261871577Y-101973530D01*
X261854318Y-101970144D01*
X261837448Y-101965243D01*
X261832276Y-101964863D01*
X261832275Y-101964863D01*
X261828503Y-101964586D01*
X261828500Y-101964586D01*
X261826704Y-101964454D01*
X261790410Y-101964454D01*
X261780062Y-101963912D01*
X261745096Y-101960237D01*
X261738388Y-101959532D01*
X261731736Y-101960657D01*
X261731737Y-101960657D01*
X261717482Y-101963068D01*
X261700972Y-101964454D01*
X259835946Y-101964454D01*
X259777755Y-101945547D01*
X259765942Y-101935458D01*
X259167121Y-101336638D01*
X259164251Y-101333645D01*
X259126232Y-101292300D01*
X259121664Y-101287332D01*
X259083411Y-101263614D01*
X259075740Y-101258342D01*
X259039891Y-101231131D01*
X259033615Y-101228646D01*
X259023561Y-101224665D01*
X259007840Y-101216758D01*
X258992918Y-101207506D01*
X258986436Y-101205623D01*
X258986434Y-101205622D01*
X258949710Y-101194953D01*
X258940884Y-101191932D01*
X258909005Y-101179310D01*
X258899044Y-101175366D01*
X258881577Y-101173530D01*
X258864318Y-101170144D01*
X258847448Y-101165243D01*
X258842276Y-101164863D01*
X258842275Y-101164863D01*
X258838503Y-101164586D01*
X258838500Y-101164586D01*
X258836704Y-101164454D01*
X258800410Y-101164454D01*
X258790062Y-101163912D01*
X258755096Y-101160237D01*
X258748388Y-101159532D01*
X258741736Y-101160657D01*
X258741737Y-101160657D01*
X258727482Y-101163068D01*
X258710972Y-101164454D01*
X257926499Y-101164454D01*
X257880174Y-101152947D01*
X257812952Y-101117354D01*
X271510496Y-101117354D01*
X271530103Y-101266284D01*
X271587588Y-101405065D01*
X271679033Y-101524240D01*
X271798207Y-101615685D01*
X271936989Y-101673170D01*
X271943417Y-101674016D01*
X271943420Y-101674017D01*
X272079485Y-101691930D01*
X272085919Y-101692777D01*
X272092353Y-101691930D01*
X272228418Y-101674017D01*
X272228421Y-101674016D01*
X272234849Y-101673170D01*
X272373631Y-101615685D01*
X272381358Y-101609756D01*
X272420652Y-101579605D01*
X272478328Y-101559181D01*
X272541186Y-101579605D01*
X272580480Y-101609756D01*
X272588207Y-101615685D01*
X272726989Y-101673170D01*
X272733417Y-101674016D01*
X272733420Y-101674017D01*
X272869485Y-101691930D01*
X272875919Y-101692777D01*
X272882353Y-101691930D01*
X273018418Y-101674017D01*
X273018421Y-101674016D01*
X273024849Y-101673170D01*
X273163631Y-101615685D01*
X273282805Y-101524240D01*
X273374250Y-101405065D01*
X273431735Y-101266284D01*
X273451342Y-101117354D01*
X273431735Y-100968424D01*
X273374250Y-100829643D01*
X273282805Y-100710468D01*
X273163631Y-100619023D01*
X273024849Y-100561538D01*
X273018421Y-100560692D01*
X273018418Y-100560691D01*
X272882353Y-100542778D01*
X272875919Y-100541931D01*
X272726989Y-100561538D01*
X272588208Y-100619023D01*
X272555552Y-100644081D01*
X272541186Y-100655104D01*
X272483510Y-100675528D01*
X272420654Y-100655105D01*
X272373631Y-100619023D01*
X272234849Y-100561538D01*
X272228421Y-100560692D01*
X272228418Y-100560691D01*
X272092353Y-100542778D01*
X272085919Y-100541931D01*
X271936989Y-100561538D01*
X271798208Y-100619023D01*
X271679033Y-100710468D01*
X271587588Y-100829643D01*
X271530103Y-100968424D01*
X271510496Y-101117354D01*
X257812952Y-101117354D01*
X257796024Y-101108391D01*
X257796021Y-101108390D01*
X257790750Y-101105599D01*
X257714399Y-101086421D01*
X257643837Y-101068697D01*
X257643834Y-101068697D01*
X257638047Y-101067243D01*
X257558483Y-101066827D01*
X257486569Y-101066450D01*
X257486567Y-101066450D01*
X257480603Y-101066419D01*
X257327507Y-101103174D01*
X257270464Y-101132616D01*
X257192904Y-101172647D01*
X257192902Y-101172649D01*
X257187598Y-101175386D01*
X257068953Y-101278887D01*
X256978420Y-101407702D01*
X256921228Y-101554393D01*
X256920450Y-101560304D01*
X256920449Y-101560307D01*
X256913679Y-101611734D01*
X256900677Y-101710492D01*
X243978893Y-101710492D01*
X243884849Y-101671538D01*
X243878421Y-101670692D01*
X243878418Y-101670691D01*
X243742353Y-101652778D01*
X243735919Y-101651931D01*
X243586989Y-101671538D01*
X243448208Y-101729023D01*
X243329033Y-101820468D01*
X243237588Y-101939643D01*
X243180103Y-102078424D01*
X243160496Y-102227354D01*
X243180103Y-102376284D01*
X243237588Y-102515065D01*
X243329033Y-102634240D01*
X243448207Y-102725685D01*
X243586989Y-102783170D01*
X243592787Y-102783933D01*
X243643873Y-102817109D01*
X243665800Y-102874230D01*
X243649965Y-102933331D01*
X243636939Y-102949416D01*
X243550214Y-103036140D01*
X243547223Y-103039009D01*
X243505865Y-103077040D01*
X243505863Y-103077043D01*
X243500897Y-103081609D01*
X243478799Y-103117250D01*
X243477181Y-103119859D01*
X243471907Y-103127533D01*
X243444696Y-103163382D01*
X243442211Y-103169659D01*
X243442004Y-103170026D01*
X243396965Y-103211439D01*
X243336185Y-103218470D01*
X243309432Y-103208918D01*
X243262639Y-103184142D01*
X243229074Y-103166370D01*
X243229071Y-103166369D01*
X243223800Y-103163578D01*
X243141580Y-103142926D01*
X243065150Y-103123727D01*
X243065147Y-103123727D01*
X243059360Y-103122273D01*
X242973760Y-103121825D01*
X242895780Y-103121416D01*
X242895778Y-103121416D01*
X242889814Y-103121385D01*
X242884018Y-103122777D01*
X242884014Y-103122777D01*
X242777303Y-103148397D01*
X242724951Y-103160966D01*
X242651457Y-103198899D01*
X242579594Y-103235990D01*
X242579592Y-103235992D01*
X242574288Y-103238729D01*
X242523838Y-103282739D01*
X242451079Y-103346211D01*
X242446523Y-103350185D01*
X242443092Y-103355067D01*
X242443091Y-103355068D01*
X242369642Y-103459576D01*
X242349032Y-103488901D01*
X242346864Y-103494462D01*
X242304025Y-103604338D01*
X242287443Y-103646867D01*
X242265313Y-103814965D01*
X239828747Y-103814965D01*
X239830757Y-103813954D01*
X239949560Y-103712487D01*
X240040730Y-103585610D01*
X240063610Y-103528694D01*
X240096780Y-103446182D01*
X240096781Y-103446180D01*
X240099004Y-103440649D01*
X240101026Y-103426443D01*
X240120561Y-103289179D01*
X240120561Y-103289173D01*
X240121017Y-103285972D01*
X240121160Y-103272354D01*
X240120721Y-103268721D01*
X240103107Y-103123172D01*
X240103106Y-103123169D01*
X240102390Y-103117250D01*
X240047165Y-102971100D01*
X240041701Y-102963149D01*
X239962052Y-102847260D01*
X239958672Y-102842342D01*
X239842020Y-102738409D01*
X239834736Y-102734552D01*
X239796852Y-102714494D01*
X239703945Y-102665302D01*
X239628181Y-102646271D01*
X239558206Y-102628694D01*
X239558203Y-102628694D01*
X239552416Y-102627240D01*
X239473508Y-102626827D01*
X239402148Y-102626453D01*
X239402146Y-102626453D01*
X239396182Y-102626422D01*
X239244263Y-102662895D01*
X239105429Y-102734552D01*
X238987696Y-102837258D01*
X238897859Y-102965082D01*
X238895692Y-102970640D01*
X238895691Y-102970642D01*
X238850825Y-103085721D01*
X238841107Y-103110646D01*
X238820714Y-103265545D01*
X228855919Y-103265545D01*
X228855919Y-100367354D01*
X214605419Y-100367354D01*
X214547228Y-100348447D01*
X214511264Y-100298947D01*
X214506419Y-100268354D01*
X214506419Y-99885492D01*
X248185677Y-99885492D01*
X248186332Y-99891425D01*
X248186332Y-99891429D01*
X248190551Y-99929643D01*
X248202954Y-100041987D01*
X248210260Y-100061952D01*
X248236590Y-100133901D01*
X248257062Y-100189844D01*
X248260391Y-100194798D01*
X248341548Y-100315573D01*
X248341551Y-100315577D01*
X248344877Y-100320526D01*
X248349288Y-100324540D01*
X248349290Y-100324542D01*
X248456914Y-100422472D01*
X248461329Y-100426489D01*
X248482804Y-100438149D01*
X248594449Y-100498768D01*
X248594451Y-100498769D01*
X248599695Y-100501616D01*
X248679453Y-100522540D01*
X248746219Y-100540056D01*
X248746223Y-100540056D01*
X248751988Y-100541569D01*
X248757949Y-100541663D01*
X248757952Y-100541663D01*
X248828950Y-100542778D01*
X248909414Y-100544042D01*
X248926818Y-100540056D01*
X249057068Y-100510225D01*
X249057070Y-100510224D01*
X249062887Y-100508892D01*
X249068218Y-100506211D01*
X249160168Y-100459965D01*
X250150313Y-100459965D01*
X250150968Y-100465898D01*
X250150968Y-100465902D01*
X250167599Y-100616540D01*
X250168918Y-100628489D01*
X250227185Y-100787710D01*
X250230510Y-100792659D01*
X250230511Y-100792660D01*
X250259391Y-100835638D01*
X250321749Y-100928437D01*
X250447152Y-101042545D01*
X250596154Y-101123446D01*
X250631108Y-101132616D01*
X250754383Y-101164957D01*
X250754387Y-101164958D01*
X250760152Y-101166470D01*
X250766113Y-101166564D01*
X250766116Y-101166564D01*
X250844884Y-101167801D01*
X250929679Y-101169133D01*
X250935494Y-101167801D01*
X250935496Y-101167801D01*
X251089125Y-101132616D01*
X251089128Y-101132615D01*
X251094948Y-101131282D01*
X251109849Y-101123788D01*
X251223852Y-101066450D01*
X251246417Y-101055101D01*
X251250954Y-101051226D01*
X251250957Y-101051224D01*
X251370807Y-100948862D01*
X251370810Y-100948859D01*
X251375342Y-100944988D01*
X251413445Y-100891962D01*
X251470796Y-100812150D01*
X251470797Y-100812148D01*
X251474280Y-100807301D01*
X251483638Y-100784024D01*
X251535296Y-100655521D01*
X251535297Y-100655519D01*
X251537520Y-100649988D01*
X251538361Y-100644081D01*
X251560953Y-100485339D01*
X251560953Y-100485333D01*
X251561409Y-100482132D01*
X251561564Y-100467354D01*
X251545656Y-100335896D01*
X251541912Y-100304956D01*
X251541911Y-100304953D01*
X251541195Y-100299034D01*
X251481264Y-100140431D01*
X251417459Y-100047594D01*
X251388611Y-100005621D01*
X251385231Y-100000703D01*
X251258640Y-99887914D01*
X251108800Y-99808578D01*
X251026580Y-99787925D01*
X250950150Y-99768727D01*
X250950147Y-99768727D01*
X250944360Y-99767273D01*
X250858760Y-99766825D01*
X250780780Y-99766416D01*
X250780778Y-99766416D01*
X250774814Y-99766385D01*
X250769018Y-99767777D01*
X250769014Y-99767777D01*
X250661622Y-99793561D01*
X250609951Y-99805966D01*
X250534619Y-99844848D01*
X250464594Y-99880990D01*
X250464592Y-99880992D01*
X250459288Y-99883729D01*
X250331523Y-99995185D01*
X250328092Y-100000067D01*
X250328091Y-100000068D01*
X250237463Y-100129019D01*
X250234032Y-100133901D01*
X250172443Y-100291867D01*
X250150313Y-100459965D01*
X249160168Y-100459965D01*
X249198218Y-100440828D01*
X249198220Y-100440827D01*
X249203544Y-100438149D01*
X249217196Y-100426489D01*
X249318729Y-100339772D01*
X249318730Y-100339771D01*
X249323267Y-100335896D01*
X249415143Y-100208037D01*
X249444299Y-100135511D01*
X249471645Y-100067485D01*
X249471646Y-100067483D01*
X249473869Y-100061952D01*
X249475913Y-100047594D01*
X249495597Y-99909283D01*
X249495597Y-99909279D01*
X249496053Y-99906077D01*
X249496197Y-99892354D01*
X249477282Y-99736048D01*
X249421629Y-99588766D01*
X249343343Y-99474860D01*
X249335831Y-99463930D01*
X249335830Y-99463929D01*
X249332450Y-99459011D01*
X249327997Y-99455044D01*
X249327994Y-99455040D01*
X249260476Y-99394885D01*
X249214895Y-99354273D01*
X249179700Y-99335638D01*
X249081024Y-99283391D01*
X249081021Y-99283390D01*
X249075750Y-99280599D01*
X248999398Y-99261421D01*
X248928837Y-99243697D01*
X248928834Y-99243697D01*
X248923047Y-99242243D01*
X248843483Y-99241827D01*
X248771569Y-99241450D01*
X248771567Y-99241450D01*
X248765603Y-99241419D01*
X248612507Y-99278174D01*
X248539954Y-99315621D01*
X248477904Y-99347647D01*
X248477902Y-99347649D01*
X248472598Y-99350386D01*
X248353953Y-99453887D01*
X248263420Y-99582702D01*
X248206228Y-99729393D01*
X248205450Y-99735304D01*
X248205449Y-99735307D01*
X248200581Y-99772284D01*
X248185677Y-99885492D01*
X214506419Y-99885492D01*
X214506419Y-97617354D01*
X221330642Y-97617354D01*
X221349712Y-97835331D01*
X221406344Y-98046684D01*
X221498817Y-98244992D01*
X221501298Y-98248535D01*
X221501299Y-98248537D01*
X221511023Y-98262424D01*
X221624321Y-98424231D01*
X221779042Y-98578952D01*
X221958280Y-98704456D01*
X222156589Y-98796929D01*
X222239284Y-98819087D01*
X222363765Y-98852442D01*
X222363767Y-98852442D01*
X222367942Y-98853561D01*
X222585919Y-98872631D01*
X222803896Y-98853561D01*
X222808071Y-98852442D01*
X222808073Y-98852442D01*
X222932554Y-98819087D01*
X223015249Y-98796929D01*
X223213558Y-98704456D01*
X223392796Y-98578952D01*
X223547517Y-98424231D01*
X223660815Y-98262424D01*
X223670539Y-98248537D01*
X223670540Y-98248535D01*
X223673021Y-98244992D01*
X223765494Y-98046684D01*
X223767051Y-98047410D01*
X223800559Y-98004522D01*
X223859374Y-97987657D01*
X223916869Y-98008584D01*
X223945005Y-98047308D01*
X223946344Y-98046684D01*
X224038817Y-98244992D01*
X224041298Y-98248535D01*
X224041299Y-98248537D01*
X224051023Y-98262424D01*
X224164321Y-98424231D01*
X224319042Y-98578952D01*
X224498280Y-98704456D01*
X224696589Y-98796929D01*
X224779284Y-98819087D01*
X224903765Y-98852442D01*
X224903767Y-98852442D01*
X224907942Y-98853561D01*
X225125919Y-98872631D01*
X225343896Y-98853561D01*
X225348071Y-98852442D01*
X225348073Y-98852442D01*
X225472554Y-98819087D01*
X225555249Y-98796929D01*
X225753558Y-98704456D01*
X225932796Y-98578952D01*
X226087517Y-98424231D01*
X226200815Y-98262424D01*
X226210539Y-98248537D01*
X226210540Y-98248535D01*
X226213021Y-98244992D01*
X226305494Y-98046684D01*
X226307051Y-98047410D01*
X226340559Y-98004522D01*
X226399374Y-97987657D01*
X226456869Y-98008584D01*
X226485005Y-98047308D01*
X226486344Y-98046684D01*
X226578817Y-98244992D01*
X226581298Y-98248535D01*
X226581299Y-98248537D01*
X226591023Y-98262424D01*
X226704321Y-98424231D01*
X226859042Y-98578952D01*
X227038280Y-98704456D01*
X227236589Y-98796929D01*
X227319284Y-98819087D01*
X227443765Y-98852442D01*
X227443767Y-98852442D01*
X227447942Y-98853561D01*
X227665919Y-98872631D01*
X227883896Y-98853561D01*
X227888071Y-98852442D01*
X227888073Y-98852442D01*
X228012554Y-98819087D01*
X228095249Y-98796929D01*
X228293558Y-98704456D01*
X228472796Y-98578952D01*
X228627517Y-98424231D01*
X228740815Y-98262424D01*
X228750539Y-98248537D01*
X228750540Y-98248535D01*
X228753021Y-98244992D01*
X228766696Y-98215666D01*
X228808424Y-98170918D01*
X228868485Y-98159243D01*
X228923938Y-98185101D01*
X228953601Y-98238615D01*
X228955420Y-98257504D01*
X228955420Y-98498872D01*
X228970273Y-98592658D01*
X229027869Y-98705696D01*
X229117577Y-98795404D01*
X229124514Y-98798939D01*
X229124516Y-98798940D01*
X229223675Y-98849464D01*
X229230615Y-98853000D01*
X229238309Y-98854219D01*
X229238310Y-98854219D01*
X229320554Y-98867245D01*
X229320556Y-98867245D01*
X229324400Y-98867854D01*
X230205805Y-98867854D01*
X231087437Y-98867853D01*
X231091280Y-98867244D01*
X231091285Y-98867244D01*
X231128136Y-98861407D01*
X231181223Y-98853000D01*
X231247781Y-98819087D01*
X231287322Y-98798940D01*
X231287324Y-98798939D01*
X231294261Y-98795404D01*
X231383969Y-98705696D01*
X231441565Y-98592658D01*
X231444793Y-98572281D01*
X231455810Y-98502719D01*
X231455810Y-98502717D01*
X231456419Y-98498873D01*
X231456418Y-97617354D01*
X232585642Y-97617354D01*
X232604712Y-97835331D01*
X232661344Y-98046684D01*
X232753817Y-98244992D01*
X232756298Y-98248535D01*
X232756299Y-98248537D01*
X232766023Y-98262424D01*
X232879321Y-98424231D01*
X233034042Y-98578952D01*
X233213280Y-98704456D01*
X233411589Y-98796929D01*
X233494284Y-98819087D01*
X233618765Y-98852442D01*
X233618767Y-98852442D01*
X233622942Y-98853561D01*
X233840919Y-98872631D01*
X234058896Y-98853561D01*
X234063071Y-98852442D01*
X234063073Y-98852442D01*
X234187554Y-98819087D01*
X234270249Y-98796929D01*
X234468558Y-98704456D01*
X234647796Y-98578952D01*
X234802517Y-98424231D01*
X234915815Y-98262424D01*
X234925539Y-98248537D01*
X234925540Y-98248535D01*
X234928021Y-98244992D01*
X234941696Y-98215666D01*
X234983424Y-98170918D01*
X235043485Y-98159243D01*
X235098938Y-98185101D01*
X235128601Y-98238615D01*
X235130420Y-98257504D01*
X235130420Y-98498872D01*
X235145273Y-98592658D01*
X235202869Y-98705696D01*
X235292577Y-98795404D01*
X235299514Y-98798939D01*
X235299516Y-98798940D01*
X235398675Y-98849464D01*
X235405615Y-98853000D01*
X235413309Y-98854219D01*
X235413310Y-98854219D01*
X235495554Y-98867245D01*
X235495556Y-98867245D01*
X235499400Y-98867854D01*
X236380805Y-98867854D01*
X237262437Y-98867853D01*
X237266280Y-98867244D01*
X237266285Y-98867244D01*
X237303136Y-98861407D01*
X237356223Y-98853000D01*
X237422781Y-98819087D01*
X237462322Y-98798940D01*
X237462324Y-98798939D01*
X237469261Y-98795404D01*
X237558969Y-98705696D01*
X237616565Y-98592658D01*
X237619793Y-98572281D01*
X237630810Y-98502719D01*
X237630810Y-98502717D01*
X237631419Y-98498873D01*
X237631418Y-96735836D01*
X237616565Y-96642050D01*
X237587767Y-96585531D01*
X237562505Y-96535951D01*
X237562504Y-96535949D01*
X237558969Y-96529012D01*
X237469261Y-96439304D01*
X237462324Y-96435769D01*
X237462322Y-96435768D01*
X237363163Y-96385244D01*
X237363162Y-96385244D01*
X237356223Y-96381708D01*
X237348529Y-96380489D01*
X237348528Y-96380489D01*
X237266284Y-96367463D01*
X237266282Y-96367463D01*
X237262438Y-96366854D01*
X236381033Y-96366854D01*
X235499401Y-96366855D01*
X235495558Y-96367464D01*
X235495553Y-96367464D01*
X235468107Y-96371811D01*
X235405615Y-96381708D01*
X235349096Y-96410506D01*
X235299516Y-96435768D01*
X235299514Y-96435769D01*
X235292577Y-96439304D01*
X235202869Y-96529012D01*
X235199334Y-96535949D01*
X235199333Y-96535951D01*
X235157856Y-96617354D01*
X235145273Y-96642050D01*
X235144054Y-96649744D01*
X235144054Y-96649745D01*
X235142618Y-96658810D01*
X235130419Y-96735835D01*
X235130419Y-96977201D01*
X235111512Y-97035392D01*
X235062012Y-97071356D01*
X235000826Y-97071356D01*
X234951326Y-97035392D01*
X234941695Y-97019040D01*
X234929851Y-96993641D01*
X234928021Y-96989716D01*
X234802517Y-96810477D01*
X234647796Y-96655756D01*
X234532915Y-96575315D01*
X234472103Y-96532734D01*
X234472101Y-96532733D01*
X234468558Y-96530252D01*
X234270249Y-96437779D01*
X234183699Y-96414588D01*
X234063073Y-96382266D01*
X234063071Y-96382266D01*
X234058896Y-96381147D01*
X233840919Y-96362077D01*
X233622942Y-96381147D01*
X233618767Y-96382266D01*
X233618765Y-96382266D01*
X233498139Y-96414588D01*
X233411589Y-96437779D01*
X233213281Y-96530252D01*
X233209738Y-96532733D01*
X233209736Y-96532734D01*
X233150000Y-96574562D01*
X233034042Y-96655756D01*
X232879321Y-96810477D01*
X232753817Y-96989716D01*
X232661344Y-97188024D01*
X232655209Y-97210920D01*
X232611972Y-97372284D01*
X232604712Y-97399377D01*
X232585642Y-97617354D01*
X231456418Y-97617354D01*
X231456418Y-96735836D01*
X231441565Y-96642050D01*
X231412767Y-96585531D01*
X231387505Y-96535951D01*
X231387504Y-96535949D01*
X231383969Y-96529012D01*
X231294261Y-96439304D01*
X231287324Y-96435769D01*
X231287322Y-96435768D01*
X231188163Y-96385244D01*
X231188162Y-96385244D01*
X231181223Y-96381708D01*
X231173529Y-96380489D01*
X231173528Y-96380489D01*
X231091284Y-96367463D01*
X231091282Y-96367463D01*
X231087438Y-96366854D01*
X230206033Y-96366854D01*
X229324401Y-96366855D01*
X229320558Y-96367464D01*
X229320553Y-96367464D01*
X229293107Y-96371811D01*
X229230615Y-96381708D01*
X229174096Y-96410506D01*
X229124516Y-96435768D01*
X229124514Y-96435769D01*
X229117577Y-96439304D01*
X229027869Y-96529012D01*
X229024334Y-96535949D01*
X229024333Y-96535951D01*
X228982856Y-96617354D01*
X228970273Y-96642050D01*
X228969054Y-96649744D01*
X228969054Y-96649745D01*
X228967618Y-96658810D01*
X228955419Y-96735835D01*
X228955419Y-96977201D01*
X228936512Y-97035392D01*
X228887012Y-97071356D01*
X228825826Y-97071356D01*
X228776326Y-97035392D01*
X228766695Y-97019040D01*
X228754851Y-96993641D01*
X228753021Y-96989716D01*
X228627517Y-96810477D01*
X228472796Y-96655756D01*
X228357915Y-96575315D01*
X228297103Y-96532734D01*
X228297101Y-96532733D01*
X228293558Y-96530252D01*
X228095249Y-96437779D01*
X228008699Y-96414588D01*
X227888073Y-96382266D01*
X227888071Y-96382266D01*
X227883896Y-96381147D01*
X227665919Y-96362077D01*
X227447942Y-96381147D01*
X227443767Y-96382266D01*
X227443765Y-96382266D01*
X227323139Y-96414588D01*
X227236589Y-96437779D01*
X227038281Y-96530252D01*
X227034738Y-96532733D01*
X227034736Y-96532734D01*
X226975000Y-96574562D01*
X226859042Y-96655756D01*
X226704321Y-96810477D01*
X226578817Y-96989716D01*
X226486344Y-97188024D01*
X226484787Y-97187298D01*
X226451279Y-97230186D01*
X226392464Y-97247051D01*
X226334969Y-97226124D01*
X226306833Y-97187400D01*
X226305494Y-97188024D01*
X226252724Y-97074860D01*
X226213021Y-96989716D01*
X226087517Y-96810477D01*
X225932796Y-96655756D01*
X225817915Y-96575315D01*
X225757103Y-96532734D01*
X225757101Y-96532733D01*
X225753558Y-96530252D01*
X225555249Y-96437779D01*
X225468699Y-96414588D01*
X225348073Y-96382266D01*
X225348071Y-96382266D01*
X225343896Y-96381147D01*
X225125919Y-96362077D01*
X224907942Y-96381147D01*
X224903767Y-96382266D01*
X224903765Y-96382266D01*
X224783139Y-96414588D01*
X224696589Y-96437779D01*
X224498281Y-96530252D01*
X224494738Y-96532733D01*
X224494736Y-96532734D01*
X224435000Y-96574562D01*
X224319042Y-96655756D01*
X224164321Y-96810477D01*
X224038817Y-96989716D01*
X223946344Y-97188024D01*
X223944787Y-97187298D01*
X223911279Y-97230186D01*
X223852464Y-97247051D01*
X223794969Y-97226124D01*
X223766833Y-97187400D01*
X223765494Y-97188024D01*
X223712724Y-97074860D01*
X223673021Y-96989716D01*
X223547517Y-96810477D01*
X223392796Y-96655756D01*
X223277915Y-96575315D01*
X223217103Y-96532734D01*
X223217101Y-96532733D01*
X223213558Y-96530252D01*
X223015249Y-96437779D01*
X222928699Y-96414588D01*
X222808073Y-96382266D01*
X222808071Y-96382266D01*
X222803896Y-96381147D01*
X222585919Y-96362077D01*
X222367942Y-96381147D01*
X222363767Y-96382266D01*
X222363765Y-96382266D01*
X222243139Y-96414588D01*
X222156589Y-96437779D01*
X221958281Y-96530252D01*
X221954738Y-96532733D01*
X221954736Y-96532734D01*
X221895000Y-96574562D01*
X221779042Y-96655756D01*
X221624321Y-96810477D01*
X221498817Y-96989716D01*
X221406344Y-97188024D01*
X221400209Y-97210920D01*
X221356972Y-97372284D01*
X221349712Y-97399377D01*
X221330642Y-97617354D01*
X214506419Y-97617354D01*
X214506419Y-95416854D01*
X214525326Y-95358663D01*
X214574826Y-95322699D01*
X214605419Y-95317854D01*
X373606419Y-95317854D01*
X373664610Y-95336761D01*
G37*
G04 #@! TD.AperFunction*
G04 #@! TA.AperFunction,Conductor*
G36*
X334873040Y-104737356D02*
G01*
X334919533Y-104791012D01*
X334930919Y-104843354D01*
X334930919Y-111042354D01*
X336079919Y-111042354D01*
X336148040Y-111062356D01*
X336194533Y-111116012D01*
X336205919Y-111168354D01*
X336205919Y-112041354D01*
X336185917Y-112109475D01*
X336132261Y-112155968D01*
X336079919Y-112167354D01*
X329826334Y-112167354D01*
X329782377Y-112158810D01*
X329782290Y-112159081D01*
X329780001Y-112158348D01*
X329779999Y-112158348D01*
X329527416Y-112077495D01*
X329305461Y-112041348D01*
X329267895Y-112035230D01*
X329267894Y-112035230D01*
X329263283Y-112034479D01*
X329129488Y-112032728D01*
X329000370Y-112031037D01*
X329000367Y-112031037D01*
X328995693Y-112030976D01*
X328730524Y-112067064D01*
X328726037Y-112068372D01*
X328726036Y-112068372D01*
X328694736Y-112077495D01*
X328473602Y-112141949D01*
X328469349Y-112143909D01*
X328469348Y-112143910D01*
X328443600Y-112155780D01*
X328390849Y-112167354D01*
X323831544Y-112167354D01*
X323763423Y-112147352D01*
X323716930Y-112093696D01*
X323705544Y-112041348D01*
X323705545Y-112035230D01*
X323705913Y-104843348D01*
X323725919Y-104775228D01*
X323779577Y-104728738D01*
X323831913Y-104717354D01*
X334804919Y-104717354D01*
X334873040Y-104737356D01*
G37*
G04 #@! TD.AperFunction*
G04 #@! TA.AperFunction,Conductor*
G36*
X216372540Y-102037356D02*
G01*
X216419033Y-102091012D01*
X216430419Y-102143354D01*
X216430419Y-103427000D01*
X216433537Y-103453200D01*
X216478980Y-103555507D01*
X216558206Y-103634595D01*
X216568843Y-103639298D01*
X216568845Y-103639299D01*
X216628381Y-103665619D01*
X216660592Y-103679860D01*
X216686273Y-103682854D01*
X216765472Y-103682854D01*
X216833593Y-103702856D01*
X216880086Y-103756512D01*
X216890190Y-103826786D01*
X216860696Y-103891366D01*
X216844424Y-103907051D01*
X216720095Y-104007014D01*
X216597126Y-104153562D01*
X216504964Y-104321204D01*
X216503103Y-104327071D01*
X216503102Y-104327073D01*
X216499090Y-104339721D01*
X216447119Y-104503555D01*
X216425795Y-104693668D01*
X216441803Y-104884302D01*
X216494533Y-105068197D01*
X216497352Y-105073682D01*
X216579161Y-105232865D01*
X216579164Y-105232870D01*
X216581979Y-105238347D01*
X216700808Y-105388272D01*
X216705502Y-105392267D01*
X216739253Y-105420991D01*
X216846494Y-105512261D01*
X216851872Y-105515267D01*
X216851874Y-105515268D01*
X217000619Y-105598398D01*
X217050325Y-105649091D01*
X217064733Y-105718610D01*
X217039270Y-105784883D01*
X216997524Y-105820048D01*
X216869187Y-105887141D01*
X216720095Y-106007014D01*
X216597126Y-106153562D01*
X216504964Y-106321204D01*
X216503103Y-106327071D01*
X216503102Y-106327073D01*
X216499090Y-106339721D01*
X216447119Y-106503555D01*
X216425795Y-106693668D01*
X216441803Y-106884302D01*
X216494533Y-107068197D01*
X216497352Y-107073682D01*
X216579161Y-107232865D01*
X216579164Y-107232870D01*
X216581979Y-107238347D01*
X216700808Y-107388272D01*
X216705502Y-107392267D01*
X216739253Y-107420991D01*
X216846494Y-107512261D01*
X216851872Y-107515267D01*
X216851874Y-107515268D01*
X217000619Y-107598398D01*
X217050325Y-107649091D01*
X217064733Y-107718610D01*
X217039270Y-107784883D01*
X216997524Y-107820048D01*
X216869187Y-107887141D01*
X216720095Y-108007014D01*
X216597126Y-108153562D01*
X216504964Y-108321204D01*
X216503103Y-108327071D01*
X216503102Y-108327073D01*
X216499090Y-108339721D01*
X216447119Y-108503555D01*
X216425795Y-108693668D01*
X216441803Y-108884302D01*
X216494533Y-109068197D01*
X216497352Y-109073682D01*
X216579161Y-109232865D01*
X216579164Y-109232870D01*
X216581979Y-109238347D01*
X216700808Y-109388272D01*
X216705502Y-109392267D01*
X216739253Y-109420991D01*
X216846494Y-109512261D01*
X217013489Y-109605591D01*
X217195431Y-109664708D01*
X217385391Y-109687359D01*
X217391526Y-109686887D01*
X217391528Y-109686887D01*
X217569990Y-109673155D01*
X217569994Y-109673154D01*
X217576132Y-109672682D01*
X217760391Y-109621236D01*
X217931147Y-109534981D01*
X217960228Y-109512261D01*
X218077048Y-109420991D01*
X218081898Y-109417202D01*
X218103422Y-109392267D01*
X218202877Y-109277046D01*
X218202878Y-109277045D01*
X218206901Y-109272384D01*
X218301395Y-109106045D01*
X218361780Y-108924520D01*
X218367637Y-108878161D01*
X218385315Y-108738226D01*
X218385316Y-108738217D01*
X218385757Y-108734723D01*
X218386139Y-108707354D01*
X218367471Y-108516962D01*
X218312178Y-108333821D01*
X218222365Y-108164909D01*
X218177167Y-108109491D01*
X218105349Y-108021432D01*
X218105346Y-108021429D01*
X218101454Y-108016657D01*
X217954051Y-107894715D01*
X217811026Y-107817381D01*
X217760620Y-107767389D01*
X217745243Y-107698078D01*
X217769779Y-107631456D01*
X217814147Y-107594082D01*
X217925653Y-107537756D01*
X217931147Y-107534981D01*
X217960228Y-107512261D01*
X218077048Y-107420991D01*
X218081898Y-107417202D01*
X218103422Y-107392267D01*
X218202877Y-107277046D01*
X218202878Y-107277045D01*
X218206901Y-107272384D01*
X218301395Y-107106045D01*
X218361780Y-106924520D01*
X218367637Y-106878161D01*
X218385315Y-106738226D01*
X218385316Y-106738217D01*
X218385757Y-106734723D01*
X218386139Y-106707354D01*
X218367471Y-106516962D01*
X218312178Y-106333821D01*
X218222365Y-106164909D01*
X218177167Y-106109491D01*
X218105349Y-106021432D01*
X218105346Y-106021429D01*
X218101454Y-106016657D01*
X217954051Y-105894715D01*
X217811026Y-105817381D01*
X217760620Y-105767389D01*
X217745243Y-105698078D01*
X217769779Y-105631456D01*
X217814147Y-105594082D01*
X217925653Y-105537756D01*
X217931147Y-105534981D01*
X217960228Y-105512261D01*
X218077048Y-105420991D01*
X218081898Y-105417202D01*
X218103422Y-105392267D01*
X218202877Y-105277046D01*
X218202878Y-105277045D01*
X218206901Y-105272384D01*
X218301395Y-105106045D01*
X218361780Y-104924520D01*
X218367637Y-104878161D01*
X218385315Y-104738226D01*
X218385316Y-104738217D01*
X218385757Y-104734723D01*
X218386139Y-104707354D01*
X218367471Y-104516962D01*
X218312178Y-104333821D01*
X218222365Y-104164909D01*
X218177167Y-104109491D01*
X218105349Y-104021432D01*
X218105346Y-104021429D01*
X218101454Y-104016657D01*
X217967619Y-103905939D01*
X217927880Y-103847105D01*
X217926258Y-103776127D01*
X217963268Y-103715539D01*
X218027158Y-103684579D01*
X218047934Y-103682854D01*
X218125565Y-103682854D01*
X218129269Y-103682413D01*
X218129272Y-103682413D01*
X218136665Y-103681533D01*
X218151765Y-103679736D01*
X218254072Y-103634293D01*
X218333160Y-103555067D01*
X218378425Y-103452681D01*
X218381419Y-103427000D01*
X218381419Y-102143354D01*
X218401421Y-102075233D01*
X218455077Y-102028740D01*
X218507419Y-102017354D01*
X220443509Y-102017354D01*
X220468091Y-102019775D01*
X220546144Y-102035301D01*
X220591561Y-102054113D01*
X220647214Y-102091299D01*
X220681974Y-102126059D01*
X220719160Y-102181712D01*
X220737973Y-102227131D01*
X220753498Y-102305183D01*
X220755919Y-102329764D01*
X220755919Y-112204944D01*
X220753498Y-112229525D01*
X220737973Y-112307577D01*
X220719160Y-112352996D01*
X220681975Y-112408648D01*
X220647214Y-112443409D01*
X220591561Y-112480595D01*
X220546144Y-112499407D01*
X220477794Y-112513003D01*
X220468090Y-112514933D01*
X220443509Y-112517354D01*
X218261845Y-112517354D01*
X218242386Y-112515842D01*
X218179967Y-112506085D01*
X218142903Y-112494208D01*
X218086431Y-112465863D01*
X218069718Y-112455782D01*
X218032904Y-112429486D01*
X216055919Y-111017354D01*
X214818329Y-111017354D01*
X214793748Y-111014933D01*
X214784043Y-111013003D01*
X214715694Y-110999407D01*
X214670277Y-110980595D01*
X214614624Y-110943409D01*
X214579863Y-110908648D01*
X214542678Y-110852996D01*
X214523865Y-110807577D01*
X214508340Y-110729525D01*
X214505919Y-110704944D01*
X214505919Y-102329764D01*
X214508340Y-102305183D01*
X214523865Y-102227131D01*
X214542678Y-102181712D01*
X214579864Y-102126059D01*
X214614624Y-102091299D01*
X214670277Y-102054113D01*
X214715694Y-102035301D01*
X214793747Y-102019775D01*
X214818329Y-102017354D01*
X216304419Y-102017354D01*
X216372540Y-102037356D01*
G37*
G04 #@! TD.AperFunction*
M02*
