M48
INCH,TZ
T1C0.0118
T2C0.0177
%
G90
G05
T1
X90215Y-40818
X90294Y-44341
X100357Y-42910
X100388Y-39723
X100770Y-40676
X100770Y-43869
X100790Y-41286
X100849Y-44465
X101780Y-39097
X101788Y-42247
X102183Y-39070
X102187Y-42247
X102565Y-39066
X102577Y-42243
X102694Y-43349
X102709Y-40174
X102723Y-41139
X102737Y-44302
X109032Y-41168
X112069Y-40967
X113467Y-39381
X116597Y-43440
X116597Y-43706
X116597Y-43952
X117237Y-44296
X118046Y-43420
T2
X101144Y-39302
X101144Y-42458
X103615Y-43215
X103619Y-43582
X103676Y-40052
X103676Y-40402
X104666Y-41964
X105396Y-40312
X106042Y-39308
X106431Y-39304
X106479Y-44377
X106825Y-39310
X106853Y-44377
X107241Y-44377
X107620Y-44377
X108776Y-39944
X109372Y-44121
X109977Y-42046
X110135Y-40239
X111316Y-42458
X111339Y-41302
X111341Y-43235
X112794Y-40727
X113670Y-43491
X113670Y-44082
X119156Y-44591
X120002Y-43578
T0
M30
