M48
INCH,TZ
T1C0.0098
T2C0.0118
T3C0.0138
T4C0.0177
T5C0.0315
T6C0.0394
T7C0.0472
T8C0.0492
T9C0.0748
T10C0.3937
%
G90
G05
T1
X93353Y-42007
X93510Y-41849
X99439Y-44306
X99441Y-44052
X99467Y-41058
X99467Y-41318
T2
X87735Y-41582
X87735Y-43082
X90061Y-41582
X90061Y-43078
X93410Y-42914
X93666Y-43544
X102920Y-41645
X107120Y-39810
X107431Y-39810
X123132Y-38747
X123191Y-39219
X123191Y-39456
X123368Y-38038
X123368Y-38747
X123428Y-39219
X123428Y-39456
X123605Y-38038
X123605Y-38275
X123605Y-38511
X123605Y-38747
X123664Y-39219
X123664Y-39456
X123841Y-38038
X123841Y-38275
X123841Y-38511
X123841Y-38747
X123900Y-39219
X123900Y-39456
X124136Y-39219
X124136Y-39456
X125947Y-44495
X125947Y-44731
X125947Y-44967
X125947Y-45204
X126172Y-43696
X126183Y-44495
X126183Y-44731
X126183Y-44967
X126183Y-45204
X126420Y-37723
X126420Y-37960
X126420Y-38196
X126420Y-38432
X126420Y-38668
X126420Y-38904
X126420Y-39141
X126420Y-39377
X126420Y-39613
X126420Y-41739
X126420Y-41975
X126420Y-42212
X126420Y-42448
X126420Y-42684
X126420Y-42920
X126420Y-44495
X126420Y-44731
X126420Y-44967
X126420Y-45204
X126656Y-37723
X126656Y-37960
X126656Y-38196
X126656Y-38432
X126656Y-38668
X126656Y-38904
X126656Y-39141
X126656Y-39377
X126656Y-39613
X126656Y-41739
X126656Y-41975
X126656Y-42212
X126656Y-42448
X126656Y-42684
X126656Y-42920
X126656Y-44495
X126656Y-44731
X126656Y-44967
X126656Y-45204
X126892Y-37723
X126892Y-37960
X126892Y-38196
X126892Y-38432
X126892Y-38668
X126892Y-38904
X126892Y-39141
X126892Y-39377
X126892Y-39613
X126892Y-39849
X126892Y-40558
X126892Y-40794
X126892Y-41503
X126892Y-41739
X126892Y-41975
X126892Y-42212
X126892Y-42448
X126892Y-42684
X126892Y-42920
X126892Y-44495
X126892Y-44731
X126892Y-44967
X126892Y-45204
X127128Y-37723
X127128Y-37960
X127128Y-38196
X127128Y-38432
X127128Y-38668
X127128Y-38904
X127128Y-39141
X127128Y-39377
X127128Y-39613
X127128Y-39849
X127128Y-40086
X127128Y-40322
X127128Y-40558
X127128Y-40794
X127128Y-41030
X127128Y-41267
X127128Y-41503
X127128Y-41739
X127128Y-41975
X127128Y-42212
X127128Y-42448
X127128Y-42684
X127128Y-42920
X127128Y-44495
X127128Y-44731
X127128Y-44967
X127128Y-45204
X127365Y-37723
X127365Y-37960
X127365Y-38196
X127365Y-38432
X127365Y-38668
X127365Y-38904
X127365Y-39141
X127365Y-39377
X127365Y-39613
X127365Y-39849
X127365Y-40086
X127365Y-44495
X127365Y-44731
X127365Y-44967
X127365Y-45204
X127601Y-37723
X127601Y-37960
X127601Y-38196
X127601Y-38432
X127601Y-38668
X127601Y-38904
X127601Y-39141
X127601Y-39377
X127601Y-39613
X127601Y-39849
X127601Y-40086
X127601Y-44495
X127601Y-44731
X127601Y-44967
X127601Y-45204
X127679Y-42054
X127679Y-42290
X127679Y-42527
X127679Y-42763
X127837Y-37723
X127837Y-37960
X127837Y-38196
X127837Y-38432
X127837Y-38668
X127837Y-38904
X127837Y-39141
X127837Y-39377
X127837Y-39613
X127837Y-39849
X127837Y-40086
X127837Y-44495
X127837Y-44731
X127837Y-44967
X127837Y-45204
X127916Y-42054
X127916Y-42290
X127916Y-42527
X127916Y-42763
X128073Y-37723
X128073Y-37960
X128073Y-38196
X128073Y-38432
X128073Y-38668
X128073Y-38904
X128073Y-39141
X128073Y-39377
X128073Y-39613
X128073Y-39849
X128073Y-40086
X128073Y-44495
X128073Y-44731
X128073Y-44967
X128073Y-45204
X128152Y-42054
X128152Y-42290
X128152Y-42527
X128152Y-42763
X128309Y-37723
X128309Y-37960
X128309Y-38196
X128309Y-38432
X128309Y-38668
X128309Y-38904
X128309Y-39141
X128309Y-39377
X128309Y-39613
X128309Y-39849
X128309Y-40086
X128309Y-44495
X128309Y-44731
X128309Y-44967
X128309Y-45204
X128388Y-42054
X128388Y-42290
X128388Y-42527
X128388Y-42763
X128388Y-42999
X128388Y-43235
X128388Y-43471
X128388Y-43708
X128388Y-43944
X128546Y-37723
X128546Y-37960
X128546Y-38196
X128546Y-38432
X128546Y-38668
X128546Y-38904
X128546Y-39141
X128546Y-39377
X128546Y-39613
X128546Y-39849
X128546Y-40086
X128546Y-44495
X128546Y-44731
X128546Y-44967
X128546Y-45204
X128624Y-42054
X128624Y-42290
X128624Y-42527
X128624Y-42763
X128624Y-42999
X128624Y-43235
X128624Y-43471
X128624Y-43708
X128624Y-43944
X128782Y-37723
X128782Y-37960
X128782Y-38196
X128782Y-38432
X128782Y-38668
X128782Y-38904
X128782Y-39141
X128782Y-39377
X128782Y-39613
X128782Y-39849
X128782Y-40086
X128782Y-44495
X128782Y-44731
X128782Y-44967
X128782Y-45204
X128861Y-42054
X128861Y-42290
X128861Y-42527
X128861Y-42763
X128861Y-42999
X128861Y-43235
X128861Y-43471
X128861Y-43708
X128861Y-43944
X129018Y-38904
X129018Y-39141
X129018Y-39377
X129018Y-39613
X129018Y-39849
X129018Y-40086
X129097Y-42054
X129097Y-42290
X129097Y-42527
X129097Y-42763
X129097Y-42999
X129097Y-43235
X129097Y-43471
X129097Y-43708
X129097Y-43944
X129254Y-38904
X129254Y-39141
X129254Y-39377
X129254Y-39613
X129254Y-39849
X129254Y-40086
X129333Y-42054
X129333Y-42290
X129333Y-42527
X129333Y-42763
X129333Y-42999
X129333Y-43235
X129333Y-43471
X129333Y-43708
X129333Y-43944
X129491Y-38904
X129491Y-39141
X129491Y-39377
X129491Y-39613
X129491Y-39849
X129491Y-40086
X129569Y-42054
X129569Y-42290
X129569Y-42527
X129569Y-42763
X129569Y-42999
X129569Y-43235
X129569Y-43471
X129569Y-43708
X129569Y-43944
X129727Y-38904
X129727Y-39141
X129727Y-39377
X129727Y-39613
X129727Y-39849
X129727Y-40086
X129805Y-42054
X129805Y-42290
X129805Y-42527
X129805Y-42763
X129805Y-42999
X129805Y-43235
X129805Y-43471
X129805Y-43708
X129805Y-43944
X130042Y-38904
X130042Y-39141
X130042Y-39377
X130042Y-39613
X130042Y-39849
X130042Y-40086
X130042Y-40322
X130042Y-40558
X130042Y-40794
X130042Y-41345
X130042Y-41582
X130042Y-41818
X130042Y-42054
X130042Y-42290
X130042Y-42527
X130042Y-42763
X130042Y-42999
X130042Y-43235
X130042Y-43471
X130042Y-43708
X130042Y-43944
X130278Y-38668
X130278Y-38904
X130278Y-39141
X130278Y-39377
X130278Y-39613
X130278Y-39849
X130278Y-40086
X130278Y-40322
X130278Y-40558
X130278Y-40794
X130278Y-41345
X130278Y-41582
X130278Y-41818
X130278Y-42054
X130278Y-42290
X130278Y-42527
X130278Y-42763
X130278Y-42999
X130278Y-43235
X130278Y-43471
X130278Y-43708
X130278Y-43944
X130278Y-44495
X130278Y-44731
X130278Y-44967
X130278Y-45204
X130357Y-37723
X130357Y-37960
X130357Y-38196
X130357Y-38432
X130514Y-38668
X130514Y-38904
X130514Y-39141
X130514Y-39377
X130514Y-39613
X130514Y-39849
X130514Y-40086
X130514Y-40322
X130514Y-40558
X130514Y-40794
X130514Y-41345
X130514Y-41582
X130514Y-41818
X130514Y-42054
X130514Y-42290
X130514Y-42527
X130514Y-42763
X130514Y-42999
X130514Y-43235
X130514Y-43471
X130514Y-43708
X130514Y-43944
X130514Y-44495
X130514Y-44731
X130514Y-44967
X130514Y-45204
X130593Y-37723
X130593Y-37960
X130593Y-38196
X130593Y-38432
X130750Y-44495
X130750Y-44731
X130750Y-44967
X130750Y-45204
X130829Y-37723
X130829Y-37960
X130829Y-38196
X130829Y-38432
X130829Y-38668
X130829Y-39219
X130829Y-39712
X130829Y-40204
X130829Y-40696
X130849Y-41680
X130849Y-42172
X130849Y-42664
X130849Y-43156
X130849Y-43649
X130987Y-44495
X130987Y-44731
X130987Y-44967
X130987Y-45204
X131065Y-37723
X131065Y-37960
X131065Y-38196
X131065Y-38432
X131223Y-44495
X131223Y-44731
X131223Y-44967
X131223Y-45204
X131302Y-37723
X131302Y-37960
X131302Y-38196
X131302Y-38432
X131439Y-38668
X131439Y-39219
X131439Y-39712
X131439Y-40204
X131439Y-40696
X131439Y-41680
X131439Y-42172
X131439Y-42684
X131439Y-43156
X131439Y-43649
X131459Y-44495
X131459Y-44731
X131459Y-44967
X131459Y-45204
X131538Y-37723
X131538Y-37960
X131538Y-38196
X131538Y-38432
X131695Y-44495
X131695Y-44731
X131695Y-44967
X131695Y-45204
X131774Y-37723
X131774Y-37960
X131774Y-38196
X131774Y-38432
X131931Y-38668
X131931Y-39219
X131931Y-39712
X131931Y-40204
X131931Y-40696
X131931Y-44495
X131931Y-44731
X131931Y-44967
X131931Y-45204
X132010Y-37723
X132010Y-37960
X132010Y-38196
X132010Y-38432
X132168Y-44495
X132168Y-44731
X132168Y-44967
X132168Y-45204
X132246Y-37723
X132246Y-37960
X132246Y-38196
X132246Y-38432
X132404Y-44495
X132404Y-44731
X132404Y-44967
X132404Y-45204
X132424Y-38668
X132424Y-39219
X132424Y-39712
X132424Y-40204
X132424Y-40696
X132424Y-41188
X132424Y-41680
X132424Y-42172
X132424Y-42664
X132424Y-43156
X132483Y-37723
X132483Y-37960
X132483Y-38196
X132483Y-38432
X132640Y-44495
X132640Y-44731
X132640Y-44967
X132640Y-45204
X132719Y-37723
X132719Y-37960
X132719Y-38196
X132719Y-38432
X132876Y-44495
X132876Y-44731
X132876Y-44967
X132876Y-45204
X132916Y-38668
X132916Y-39219
X132916Y-39712
X132916Y-40204
X132916Y-40696
X132916Y-41188
X132916Y-41680
X132916Y-42172
X132916Y-42664
X132916Y-43156
X132916Y-43649
X132955Y-37723
X132955Y-37960
X132955Y-38196
X132955Y-38432
X133113Y-44495
X133113Y-44731
X133113Y-44967
X133113Y-45204
X133191Y-37723
X133191Y-37960
X133191Y-38196
X133191Y-38432
X133349Y-44731
X133349Y-44967
X133349Y-45204
X133408Y-40696
X133408Y-41188
X133408Y-41680
X133408Y-42172
X133408Y-42664
X133408Y-43156
X133408Y-43649
X133428Y-37723
X133428Y-37960
X133585Y-44731
X133585Y-44967
X133585Y-45204
X133664Y-37723
X133664Y-37960
X133821Y-44731
X133821Y-44967
X133821Y-45204
X133900Y-37723
X133900Y-37960
X133900Y-38668
X133900Y-39219
X133900Y-39712
X133900Y-40696
X133900Y-41188
X133900Y-41680
X133900Y-42172
X133900Y-42664
X133900Y-43156
X133900Y-43649
X134057Y-44731
X134057Y-44967
X134057Y-45204
X134136Y-37723
X134136Y-37960
X134294Y-44731
X134294Y-44967
X134294Y-45204
X134372Y-37723
X134372Y-37960
X134392Y-38668
X134392Y-39219
X134392Y-39712
X134392Y-40696
X134392Y-41188
X134392Y-41680
X134392Y-42172
X134392Y-42664
X134392Y-43156
X134530Y-44731
X134530Y-44967
X134530Y-45204
X134609Y-37723
X134609Y-37960
X134766Y-44731
X134766Y-44967
X134766Y-45204
X134845Y-37723
X134845Y-37960
X134884Y-38668
X134884Y-39219
X134884Y-39712
X134884Y-40696
X134884Y-41188
X134884Y-41680
X134884Y-42172
X134884Y-42664
X134884Y-43156
X135002Y-44731
X135002Y-44967
X135002Y-45204
X135081Y-37723
X135081Y-37960
X135239Y-44731
X135239Y-44967
X135239Y-45204
X135317Y-37723
X135317Y-37960
X135376Y-38668
X135376Y-39219
X135376Y-39712
X135376Y-40696
X135376Y-41188
X135475Y-44731
X135475Y-44967
X135475Y-45204
X135554Y-37723
X135554Y-37960
X135711Y-44731
X135711Y-44967
X135711Y-45204
X135790Y-37723
X135790Y-37960
X135868Y-38668
X135868Y-39219
X135868Y-39712
X135947Y-44731
X135947Y-44967
X135947Y-45204
X136026Y-37723
X136026Y-37960
X136183Y-44259
X136183Y-44495
X136183Y-44731
X136183Y-44967
X136183Y-45204
X136262Y-37723
X136262Y-37960
X136420Y-43786
X136420Y-44023
X136420Y-44259
X136420Y-44495
X136420Y-44731
X136420Y-44967
X136420Y-45204
X136459Y-39219
X136459Y-39712
X136498Y-37723
X136498Y-37960
X136656Y-43314
X136656Y-43550
X136656Y-43786
X136656Y-44023
X136656Y-44259
X136656Y-44495
X136656Y-44731
X136656Y-44967
X136656Y-45204
X136735Y-37723
X136735Y-37960
X136735Y-38511
X136735Y-38747
X136735Y-38983
X136735Y-39219
X136735Y-39456
X136735Y-39692
X136735Y-39928
X136892Y-43314
X136892Y-43550
X136892Y-43786
X136892Y-44023
X136892Y-44259
X136892Y-44495
X136892Y-44731
X136892Y-44967
X136892Y-45204
X136951Y-38511
X136951Y-38747
X136951Y-38983
X136951Y-39219
X136951Y-39456
X136951Y-39692
X136951Y-39928
X136971Y-37723
X136971Y-37960
X137128Y-43314
X137128Y-43550
X137128Y-43786
X137128Y-44023
X137128Y-44259
X137128Y-44495
X137128Y-44731
X137128Y-44967
X137128Y-45204
X137207Y-39219
X137207Y-39456
X137207Y-39692
X137207Y-39928
X137365Y-43314
X137365Y-43550
X137365Y-43786
X137365Y-44023
X137365Y-44259
X137365Y-44495
X137365Y-44731
X137365Y-44967
X137365Y-45204
X137443Y-39219
X137443Y-39456
X137443Y-39692
X137443Y-39928
X137601Y-40952
X137601Y-41188
X137601Y-41424
X137601Y-41660
X137601Y-43314
X137601Y-43550
X137601Y-43786
X137601Y-44023
X137601Y-44259
X137601Y-44495
X137601Y-44731
X137601Y-44967
X137601Y-45204
X137679Y-39219
X137679Y-39456
X137679Y-39692
X137679Y-39928
X137837Y-40952
X137837Y-41188
X137837Y-41424
X137837Y-41660
X137837Y-43314
X137837Y-43550
X137837Y-43786
X137837Y-44023
X137837Y-44259
X137837Y-44495
X137837Y-44731
X137837Y-44967
X137837Y-45204
X137916Y-37645
X137994Y-38668
X137994Y-38904
X137994Y-39141
X137994Y-39377
X137994Y-39613
X138073Y-40952
X138073Y-41188
X138073Y-41424
X138073Y-41660
X138073Y-43550
X138073Y-43786
X138073Y-44023
X138073Y-44259
X138073Y-44495
X138073Y-44731
X138073Y-44967
X138073Y-45204
X138089Y-42070
X138097Y-43267
X138152Y-37645
X138231Y-39219
X138231Y-39456
X138231Y-39692
X138309Y-43314
X138309Y-43550
X138309Y-43786
X138309Y-44023
X138309Y-44259
X138309Y-44495
X138309Y-44731
X138309Y-44967
X138309Y-45204
X138388Y-37645
X138467Y-39219
X138467Y-39456
X138467Y-39692
X138467Y-39928
X138546Y-43314
X138546Y-43550
X138546Y-43786
X138546Y-44023
X138546Y-44259
X138546Y-44495
X138546Y-44731
X138546Y-44967
X138546Y-45204
X138624Y-37645
X138703Y-39219
X138703Y-39456
X138703Y-39692
X138703Y-39928
X138782Y-43314
X138782Y-43550
X138782Y-43786
X138782Y-44023
X138782Y-44259
X138782Y-44495
X138782Y-44731
X138782Y-44967
X138782Y-45204
X138861Y-37645
X138939Y-39219
X138939Y-39456
X138939Y-39692
X138939Y-39928
X139018Y-43314
X139018Y-43550
X139018Y-43786
X139018Y-44023
X139018Y-44259
X139018Y-44495
X139018Y-44731
X139018Y-44967
X139018Y-45204
X139097Y-37645
X139176Y-39219
X139176Y-39456
X139176Y-41818
X139176Y-42054
X139176Y-42290
X139176Y-42527
X139176Y-42763
X139254Y-43314
X139254Y-43550
X139254Y-43786
X139254Y-44023
X139254Y-44259
X139254Y-44495
X139254Y-44731
X139254Y-44967
X139254Y-45204
X139333Y-37645
X139412Y-38275
X139412Y-38511
X139412Y-38747
X139412Y-38983
X139412Y-39219
X139412Y-39456
X139412Y-41818
X139412Y-42054
X139412Y-42290
X139412Y-42527
X139412Y-42763
X139491Y-43314
X139491Y-43550
X139491Y-43786
X139491Y-44023
X139491Y-44259
X139491Y-44495
X139491Y-44731
X139491Y-44967
X139491Y-45204
X139569Y-37645
X139648Y-38275
X139648Y-38511
X139648Y-38747
X139648Y-38983
X139648Y-39219
X139648Y-39456
X139648Y-41109
X139648Y-41345
X139648Y-41582
X139648Y-41818
X139648Y-42054
X139648Y-42290
X139648Y-42527
X139648Y-42763
X139727Y-43314
X139727Y-43550
X139727Y-43786
X139727Y-44023
X139727Y-44259
X139727Y-44495
X139727Y-44731
X139727Y-44967
X139727Y-45204
X139805Y-37645
X139884Y-40401
X139884Y-40637
X139884Y-40873
X139884Y-41109
X139884Y-41345
X139884Y-41582
X139884Y-41818
X139884Y-42054
X139963Y-44023
X139963Y-44259
X139963Y-44495
X139963Y-44731
X139963Y-44967
X139963Y-45204
X140042Y-37645
X140120Y-39534
X140120Y-39771
X140120Y-40007
X140120Y-40401
X140120Y-40637
X140120Y-40873
X140120Y-41109
X140120Y-41345
X140120Y-41582
X140120Y-41818
X140120Y-42054
X140199Y-44023
X140199Y-44259
X140199Y-44495
X140199Y-44731
X140199Y-44967
X140199Y-45204
X140278Y-37645
X140357Y-39534
X140357Y-39771
X140357Y-40007
X140357Y-40401
X140357Y-40637
X140357Y-40873
X140357Y-41109
X140357Y-41345
X140357Y-41582
X140357Y-41818
X140357Y-42054
X140435Y-44023
X140435Y-44259
X140435Y-44495
X140435Y-44731
X140435Y-44967
X140435Y-45204
X140514Y-37645
X140593Y-39534
X140593Y-39771
X140593Y-40007
X140593Y-40401
X140593Y-40637
X140593Y-40873
X140593Y-41109
X140593Y-41345
X140593Y-41582
X140593Y-41818
X140593Y-42054
X140672Y-44023
X140672Y-44259
X140672Y-44495
X140672Y-44731
X140672Y-44967
X140672Y-45204
X140750Y-37645
X140829Y-39298
X140829Y-39534
X140829Y-39771
X140829Y-40007
X140829Y-40401
X140829Y-40637
X140829Y-40873
X140829Y-41109
X140829Y-41345
X140829Y-41582
X140829Y-41818
X140829Y-42054
X140829Y-42290
X140829Y-42527
X140829Y-42763
X140908Y-43314
X140908Y-43550
X140908Y-43786
X140908Y-44023
X140908Y-44259
X140908Y-44495
X140908Y-44731
X140908Y-44967
X140908Y-45204
X140987Y-37645
X140987Y-37881
X141065Y-39298
X141065Y-39534
X141065Y-39771
X141065Y-40007
X141065Y-40401
X141065Y-40637
X141065Y-40873
X141065Y-41109
X141065Y-41345
X141065Y-41582
X141065Y-41818
X141065Y-42054
X141065Y-42290
X141065Y-42527
X141065Y-42763
X141144Y-43314
X141144Y-43550
X141144Y-43786
X141144Y-44023
X141144Y-44259
X141144Y-44495
X141144Y-44731
X141144Y-44967
X141144Y-45204
X141223Y-37645
X141223Y-37881
X141302Y-39298
X141302Y-39534
X141302Y-39771
X141302Y-40007
X141302Y-40401
X141302Y-40637
X141302Y-40873
X141302Y-41109
X141302Y-41345
X141302Y-41582
X141302Y-41818
X141302Y-42054
X141302Y-42290
X141302Y-42527
X141302Y-42763
X141380Y-43314
X141380Y-43550
X141380Y-43786
X141380Y-44023
X141380Y-44259
X141380Y-44495
X141380Y-44731
X141380Y-44967
X141380Y-45204
X141459Y-37645
X141459Y-37881
X141538Y-39298
X141538Y-39534
X141538Y-39771
X141538Y-40007
X141538Y-40401
X141538Y-40637
X141538Y-40873
X141538Y-41109
X141538Y-41345
X141538Y-41582
X141538Y-41818
X141538Y-42054
X141538Y-42290
X141538Y-42527
X141538Y-42763
X141617Y-43314
X141617Y-43550
X141617Y-43786
X141617Y-44023
X141617Y-44259
X141617Y-44495
X141617Y-44731
X141617Y-44967
X141617Y-45204
X141774Y-39298
X141774Y-39534
X141774Y-39771
X141774Y-40007
X141853Y-37645
X141853Y-37881
X141853Y-38117
X141853Y-38353
X141853Y-38590
X141853Y-38826
X141853Y-39062
X141853Y-43314
X141853Y-43550
X141853Y-43786
X141853Y-44023
X141853Y-44259
X141853Y-44495
X141853Y-44731
X141853Y-44967
X141853Y-45204
X142010Y-39298
X142010Y-39534
X142010Y-39771
X142010Y-40007
X142010Y-40322
X142010Y-40558
X142010Y-40794
X142010Y-41030
X142089Y-37645
X142089Y-37881
X142089Y-38117
X142089Y-38353
X142089Y-38590
X142089Y-38826
X142089Y-39062
X142089Y-41424
X142089Y-41660
X142089Y-41897
X142089Y-42133
X142089Y-42369
X142089Y-42605
X142089Y-42841
X142089Y-43078
X142089Y-43314
X142089Y-43550
X142089Y-43786
X142089Y-44023
X142089Y-44259
X142089Y-44495
X142089Y-44731
X142089Y-44967
X142089Y-45204
X142246Y-39298
X142246Y-39534
X142246Y-39771
X142246Y-40007
X142325Y-37645
X142325Y-37881
X142325Y-38117
X142325Y-38353
X142325Y-38590
X142325Y-38826
X142325Y-39062
X142325Y-41897
X142325Y-42133
X142325Y-42369
X142325Y-42605
X142325Y-42841
X142325Y-43078
X142325Y-43314
X142325Y-43550
X142325Y-43786
X142325Y-44023
X142325Y-44259
X142325Y-44495
X142325Y-44731
X142325Y-44967
X142325Y-45204
X142561Y-37645
X142561Y-37881
X142561Y-38117
X142561Y-38353
X142561Y-38590
X142561Y-38826
X142561Y-39062
X142561Y-39298
X142561Y-42369
X142561Y-42605
X142561Y-42841
X142561Y-43078
X142561Y-43314
X142561Y-43550
X142561Y-43786
X142561Y-44023
X142561Y-44259
X142561Y-44495
X142561Y-44731
X142561Y-44967
X142561Y-45204
X142798Y-37645
X142798Y-37881
X142798Y-38117
X142798Y-38353
X142798Y-38590
X142798Y-38826
X142798Y-39062
X142798Y-42605
X142798Y-42841
X142798Y-43078
X142798Y-43314
X142798Y-43550
X142798Y-43786
X142798Y-44023
X142798Y-44259
X142798Y-44495
X142798Y-44731
X142798Y-44967
X142798Y-45204
X143034Y-37645
X143034Y-37881
X143034Y-38117
X143034Y-38353
X143034Y-38590
X143034Y-38826
X143034Y-42841
X143034Y-43078
X143034Y-43314
X143034Y-43550
X143034Y-43786
X143034Y-44023
X143034Y-44259
X143034Y-44495
X143034Y-44731
X143034Y-44967
X143034Y-45204
X143270Y-37645
X143270Y-37881
X143270Y-38117
X143270Y-38353
X143270Y-38590
X143270Y-42841
X143270Y-43078
X143270Y-43314
X143270Y-43550
X143270Y-43786
X143270Y-44023
X143270Y-44259
X143270Y-44495
X143270Y-44731
X143270Y-44967
X143270Y-45204
X143506Y-37645
X143506Y-37881
X143506Y-38117
X143506Y-38353
X143506Y-38590
X143506Y-43078
X143506Y-43314
X143506Y-43550
X143506Y-43786
X143506Y-44023
X143506Y-44259
X143506Y-44495
X143506Y-44731
X143506Y-44967
X143506Y-45204
X143742Y-37645
X143742Y-37881
X143742Y-38117
X143742Y-38353
X143742Y-38590
X143742Y-43078
X143742Y-43314
X143742Y-43550
X143742Y-43786
X143742Y-44023
X143742Y-44259
X143742Y-44495
X143742Y-44731
X143742Y-44967
X143742Y-45204
X143979Y-37645
X143979Y-37881
X143979Y-38117
X143979Y-38353
X143979Y-43314
X143979Y-43550
X143979Y-43786
X143979Y-44023
X143979Y-44259
X143979Y-44495
X143979Y-44731
X143979Y-44967
X143979Y-45204
X144215Y-37645
X144215Y-37881
X144215Y-38117
X144215Y-38353
X144215Y-43314
X144215Y-43550
X144215Y-43786
X144215Y-44023
X144215Y-44259
X144215Y-44495
X144215Y-44731
X144215Y-44967
X144215Y-45204
X144451Y-37645
X144451Y-37881
X144451Y-38117
X144451Y-38353
X144451Y-43314
X144451Y-43550
X144451Y-43786
X144451Y-44023
X144451Y-44259
X144451Y-44495
X144451Y-44731
X144451Y-44967
X144451Y-45204
X144687Y-37645
X144687Y-37881
X144687Y-38117
X144687Y-38353
X144687Y-43314
X144687Y-43550
X144687Y-43786
X144687Y-44023
X144687Y-44259
X144687Y-44495
X144687Y-44731
X144687Y-44967
X144687Y-45204
X144924Y-37645
X144924Y-37881
X144924Y-38117
X144924Y-38353
X144924Y-43314
X144924Y-43550
X144924Y-43786
X144924Y-44023
X144924Y-44259
X144924Y-44495
X144924Y-44731
X144924Y-44967
X144924Y-45204
X145160Y-37645
X145160Y-37881
X145160Y-38117
X145160Y-38353
X145160Y-43078
X145160Y-43314
X145160Y-43550
X145160Y-43786
X145160Y-44023
X145160Y-44259
X145160Y-44495
X145160Y-44731
X145160Y-44967
X145160Y-45204
X145396Y-37645
X145396Y-37881
X145396Y-38117
X145396Y-38353
X145396Y-38590
X145396Y-43078
X145396Y-43314
X145396Y-43550
X145396Y-43786
X145396Y-44023
X145396Y-44259
X145396Y-44495
X145396Y-44731
X145396Y-44967
X145396Y-45204
X145632Y-37645
X145632Y-37881
X145632Y-38117
X145632Y-38353
X145632Y-38590
X145632Y-43078
X145632Y-43314
X145632Y-43550
X145632Y-43786
X145632Y-44023
X145868Y-37645
X145868Y-37881
X145868Y-38353
X145868Y-38590
X145868Y-38826
X145868Y-42841
X145868Y-43078
X145868Y-43314
X145868Y-43550
X145868Y-43786
X145868Y-44023
X146105Y-38826
X146105Y-39062
X146105Y-42605
X146105Y-42841
X146105Y-43078
X146105Y-43314
X146105Y-43550
X146105Y-43786
X146105Y-44023
X146341Y-38826
X146341Y-39062
X146341Y-39298
X146341Y-42369
X146341Y-42605
X146341Y-42841
X146341Y-43078
X146341Y-43314
X146341Y-43550
X146341Y-43786
X146341Y-44023
X146577Y-38826
X146577Y-39062
X146577Y-39298
X146577Y-39534
X146577Y-39771
X146577Y-41897
X146577Y-42133
X146577Y-42369
X146577Y-42605
X146577Y-42841
X146577Y-43078
X146577Y-43314
X146577Y-43550
X146577Y-43786
X146577Y-44023
X146813Y-38826
X146813Y-39062
X146813Y-39298
X146813Y-39534
X146813Y-39771
X146813Y-40007
X146813Y-40243
X146813Y-40479
X146813Y-40715
X146813Y-40952
X146813Y-41188
X146813Y-41424
X146813Y-41660
X146813Y-41897
X146813Y-42133
X146813Y-42369
X146813Y-42605
X146813Y-42841
X146813Y-43078
X146813Y-43314
X146813Y-43550
X146813Y-43786
X146813Y-44023
T3
X98097Y-37625
X118152Y-42643
X118388Y-42938
X118506Y-42643
X118742Y-42938
X118900Y-42643
X134668Y-44190
X136872Y-41660
T4
X84652Y-41908
X84660Y-43479
X84664Y-40365
X86298Y-40381
X88231Y-45223
X88920Y-37664
X91518Y-45223
X92262Y-37664
X92935Y-44582
X93201Y-42627
X93587Y-42623
X94280Y-40658
X94697Y-41936
X94699Y-43135
X94709Y-42554
X94782Y-44877
X95215Y-44885
X95347Y-41936
X95349Y-43135
X95359Y-42554
X95573Y-44881
X95658Y-40875
X95916Y-44723
X95977Y-41936
X95979Y-43135
X95989Y-42554
X96587Y-41936
X96587Y-43137
X96597Y-42556
X98388Y-42507
X99628Y-40302
X99628Y-43294
X103270Y-45125
X105194Y-37684
X106855Y-41393
X106855Y-41983
X106855Y-42574
X107430Y-41393
X107430Y-41983
X107430Y-42574
X107981Y-41393
X107981Y-41983
X107981Y-42574
X109916Y-37684
X116128Y-37653
X119786Y-45125
X120428Y-37653
X121597Y-42369
X121597Y-43353
X121597Y-44338
X124471Y-45105
X125120Y-42015
X125199Y-38137
X125199Y-38727
X136459Y-41424
X136955Y-42924
X138097Y-39912
T5
X85593Y-40436
X85593Y-41223
X85593Y-42011
X85593Y-42798
X85593Y-43586
T6
X86632Y-38432
X87632Y-38432
X88632Y-38432
X89632Y-38432
X90632Y-38432
X92063Y-38432
X93063Y-38432
T7
X126880Y-43422
X127880Y-43422
X140317Y-42566
X140317Y-43566
T8
X115439Y-40156
X115439Y-41156
X116439Y-40156
X116439Y-41156
X117439Y-40156
X117439Y-41156
X118439Y-40156
X118439Y-41156
X119439Y-40156
X119439Y-41156
X120439Y-40156
X120439Y-41156
X121439Y-40156
X121439Y-41156
X122439Y-40156
X122439Y-41156
X123439Y-40156
X123439Y-41156
X124439Y-40156
X124439Y-41156
X125439Y-40156
X125439Y-41156
X126439Y-40156
X126439Y-41156
T9
X85081Y-38078
X85081Y-44816
X112246Y-38078
X112246Y-44816
X129569Y-38078
X129569Y-44816
X146498Y-38078
X146498Y-44816
T10
X144459Y-40822
T0
M30
