M48
INCH,TZ
T1C0.0098
T2C0.0118
T3C0.0138
T4C0.0177
T5C0.0197
T6C0.0236
T7C0.0256
T8C0.0591
T9C0.0748
T10C0.2185
%
G90
G05
T1
X93340Y-41992
X93495Y-41837
X99439Y-44306
X99441Y-44052
X99467Y-41058
X99467Y-41318
T2
X87735Y-41582
X87735Y-43082
X90061Y-41582
X90061Y-43078
X93410Y-42914
X102920Y-41645
X107120Y-39810
X107431Y-39810
X117447Y-43019
X126172Y-43696
X127896Y-42172
X128683Y-42172
X129372Y-42172
X129372Y-42664
X129372Y-43156
X129372Y-43649
X130160Y-41680
X130160Y-42172
X130160Y-42664
X130160Y-43156
X130160Y-43649
X130849Y-41680
X130849Y-42172
X130849Y-42664
X130849Y-43156
X130849Y-43649
X131439Y-39219
X131439Y-39712
X131439Y-40204
X131439Y-40696
X131439Y-41680
X131439Y-42172
X131439Y-42684
X131439Y-43156
X131439Y-43649
X131931Y-39219
X131931Y-39712
X131931Y-40204
X131931Y-40696
X132424Y-39219
X132424Y-39712
X132424Y-40204
X132424Y-40696
X132424Y-41188
X132424Y-41680
X132424Y-42172
X132424Y-42664
X132424Y-43156
X132916Y-39219
X132916Y-39712
X132916Y-40204
X132916Y-40696
X132916Y-41188
X132916Y-41680
X132916Y-42172
X132916Y-42664
X132916Y-43156
X132916Y-43649
X133408Y-40696
X133408Y-41188
X133408Y-41680
X133408Y-42172
X133408Y-42664
X133408Y-43156
X133408Y-43649
X133900Y-39219
X133900Y-39712
X133900Y-40696
X133900Y-41188
X133900Y-41680
X133900Y-42172
X133900Y-42664
X133900Y-43156
X133900Y-43649
X134392Y-39219
X134392Y-39712
X134392Y-40696
X134392Y-41188
X134392Y-41680
X134392Y-42172
X134392Y-42664
X134392Y-43156
X134884Y-39219
X134884Y-39712
X134884Y-40696
X134884Y-41188
X134884Y-41680
X134884Y-42172
X134884Y-42664
X134884Y-43156
X135376Y-39219
X135376Y-39712
X135376Y-40696
X135376Y-41188
X135868Y-39219
X135868Y-39712
X136459Y-39219
X136459Y-39712
X136951Y-39219
X136951Y-39712
X137542Y-39219
X137542Y-39712
X138089Y-42070
X138097Y-43267
X138428Y-39219
X138428Y-39712
X139018Y-39219
X139018Y-39712
T3
X98097Y-37625
X114546Y-44515
X114569Y-44889
X115018Y-44515
X115042Y-43528
X115042Y-44001
X115052Y-44889
X115514Y-44889
X115524Y-44532
X116912Y-44078
X118152Y-42643
X118388Y-42938
X118506Y-42643
X118742Y-42938
X118900Y-42643
X134668Y-44190
X136872Y-41660
T4
X84652Y-41908
X84660Y-43479
X84664Y-40365
X86298Y-40381
X88231Y-45223
X88920Y-37664
X91518Y-45223
X92262Y-37664
X92981Y-44560
X93201Y-42627
X93587Y-42623
X93666Y-43544
X94280Y-40658
X94697Y-41936
X94699Y-43135
X94699Y-43775
X94709Y-42554
X94865Y-44889
X95172Y-44897
X95347Y-41936
X95349Y-43135
X95349Y-43775
X95359Y-42554
X95561Y-44830
X95658Y-40875
X95916Y-44723
X95977Y-41936
X95979Y-43135
X95979Y-43775
X95989Y-42554
X96587Y-41936
X96587Y-43137
X96587Y-43777
X96597Y-42556
X98388Y-42507
X99333Y-39170
X99628Y-40302
X99628Y-43294
X102183Y-39070
X102187Y-42247
X102565Y-39066
X102577Y-42243
X103546Y-39672
X103546Y-42845
X103615Y-45125
X105194Y-37684
X106855Y-41393
X106855Y-41983
X106855Y-42574
X107430Y-41393
X107430Y-41983
X107430Y-42574
X107981Y-41393
X107981Y-41983
X107981Y-42574
X109916Y-37684
X116128Y-37653
X119786Y-45125
X120428Y-37653
X121597Y-42369
X121597Y-43353
X121597Y-44338
X122069Y-38156
X122069Y-38845
X122640Y-38845
X123447Y-38904
X123565Y-39712
X123920Y-38097
X123920Y-38708
X123920Y-39318
X124471Y-45105
X125120Y-42015
X125337Y-38137
X125337Y-38727
X126823Y-37723
X126941Y-42389
X128014Y-39928
X129274Y-39928
X132739Y-37664
X132739Y-45125
X136459Y-41424
X136951Y-37940
X136955Y-42924
X137050Y-45125
X138097Y-39912
X143742Y-37664
X143742Y-45125
X146872Y-42448
X146892Y-40007
T5
X115574Y-40240
X115574Y-41126
X116576Y-40240
X116576Y-41126
X117577Y-40240
X117577Y-41126
X118578Y-40240
X118578Y-41126
X119577Y-40240
X119577Y-41126
X120580Y-40240
X120580Y-41126
X121580Y-40240
X121580Y-41126
X122579Y-40240
X122579Y-41126
X123571Y-40240
X123571Y-41126
X124574Y-40240
X124574Y-41126
X125574Y-40240
X125574Y-41126
X126573Y-40240
X126573Y-41126
T6
X139931Y-40593
X140991Y-40593
X141971Y-38530
T7
X85577Y-41471
X85577Y-41971
X85577Y-42471
X85577Y-42971
X85577Y-43471
X86406Y-38784
X86906Y-38784
X87406Y-38784
X87906Y-38784
X88406Y-38784
X89646Y-38784
X90146Y-38784
X90646Y-38784
X91146Y-38784
X91646Y-38784
T8
X128152Y-43353
X140416Y-41995
T9
X85081Y-38078
X85081Y-44816
X112246Y-38078
X112246Y-44816
X129569Y-38078
X129569Y-44816
X146498Y-38078
X146498Y-44816
T10
X144459Y-40822
T0
M30
