M48
INCH,TZ
T1C0.0098
T2C0.0118
T3C0.0177
%
G90
G05
T1
X92266Y-43538
X93321Y-43542
X98467Y-43570
X98487Y-43845
X98506Y-40814
X98510Y-40566
X101376Y-41834
X101408Y-44865
X102404Y-41751
X102475Y-44782
T2
X92955Y-41267
X94290Y-40239
X95884Y-39889
X96036Y-40873
X96908Y-40444
X99554Y-44574
X99564Y-41591
X101400Y-40046
X101428Y-43038
X103128Y-44420
X103132Y-40440
X103144Y-43534
T3
X92805Y-42629
X94195Y-38964
X95475Y-37940
X97963Y-42385
X106494Y-40101
X106766Y-39593
X107841Y-40341
X108046Y-38554
T0
M30
