M48
INCH,TZ
T1C0.0118
T2C0.0177
%
G90
G05
T1
X91105Y-43078
X100790Y-41286
X100849Y-44465
X105412Y-44381
X105805Y-44381
X109077Y-43172
X109372Y-43172
X109652Y-43164
X109652Y-43448
X109761Y-39849
X109987Y-42822
X109989Y-42432
X110225Y-43593
X110446Y-43337
X110522Y-40477
X110522Y-40871
X110687Y-43593
X110758Y-40635
X112582Y-42644
T2
X105282Y-42215
X105802Y-40296
X106183Y-43708
X107872Y-43782
X108392Y-39938
X109371Y-41798
X111335Y-41676
X111339Y-42061
X125368Y-42782
X125412Y-44373
X138431Y-42649
T0
M30
