M48
INCH,TZ
T1C0.0118
T2C0.0177
%
G90
G05
T1
X91477Y-42048
X91508Y-43280
X91508Y-44403
X92618Y-42048
X95959Y-40247
X97969Y-39328
X99554Y-44859
X99565Y-41873
T2
X92075Y-44887
X92378Y-44576
X93532Y-41013
X96668Y-40625
X97532Y-43540
X97963Y-42763
X98762Y-39554
X99274Y-42507
X104305Y-44684
X104313Y-44219
X104317Y-45168
X111138Y-43668
X111138Y-44141
X111138Y-44574
T0
M30
