G04 #@! TF.GenerationSoftware,KiCad,Pcbnew,(6.0.11)*
G04 #@! TF.CreationDate,2023-07-05T10:17:47+03:00*
G04 #@! TF.ProjectId,Pi Zero_Relay,5069205a-6572-46f5-9f52-656c61792e6b,rev?*
G04 #@! TF.SameCoordinates,Original*
G04 #@! TF.FileFunction,Soldermask,Top*
G04 #@! TF.FilePolarity,Negative*
%FSLAX46Y46*%
G04 Gerber Fmt 4.6, Leading zero omitted, Abs format (unit mm)*
G04 Created by KiCad (PCBNEW (6.0.11)) date 2023-07-05 10:17:47*
%MOMM*%
%LPD*%
G01*
G04 APERTURE LIST*
G04 Aperture macros list*
%AMRoundRect*
0 Rectangle with rounded corners*
0 $1 Rounding radius*
0 $2 $3 $4 $5 $6 $7 $8 $9 X,Y pos of 4 corners*
0 Add a 4 corners polygon primitive as box body*
4,1,4,$2,$3,$4,$5,$6,$7,$8,$9,$2,$3,0*
0 Add four circle primitives for the rounded corners*
1,1,$1+$1,$2,$3*
1,1,$1+$1,$4,$5*
1,1,$1+$1,$6,$7*
1,1,$1+$1,$8,$9*
0 Add four rect primitives between the rounded corners*
20,1,$1+$1,$2,$3,$4,$5,0*
20,1,$1+$1,$4,$5,$6,$7,0*
20,1,$1+$1,$6,$7,$8,$9,0*
20,1,$1+$1,$8,$9,$2,$3,0*%
G04 Aperture macros list end*
%ADD10RoundRect,0.225000X-0.225000X-0.250000X0.225000X-0.250000X0.225000X0.250000X-0.225000X0.250000X0*%
%ADD11C,1.950000*%
%ADD12C,2.700000*%
%ADD13RoundRect,0.135000X-0.135000X-0.185000X0.135000X-0.185000X0.135000X0.185000X-0.135000X0.185000X0*%
%ADD14R,1.700000X1.700000*%
%ADD15O,1.700000X1.700000*%
%ADD16RoundRect,0.135000X0.185000X-0.135000X0.185000X0.135000X-0.185000X0.135000X-0.185000X-0.135000X0*%
%ADD17RoundRect,0.200000X0.200000X0.275000X-0.200000X0.275000X-0.200000X-0.275000X0.200000X-0.275000X0*%
%ADD18R,0.600000X0.700000*%
%ADD19RoundRect,0.135000X0.135000X0.185000X-0.135000X0.185000X-0.135000X-0.185000X0.135000X-0.185000X0*%
%ADD20RoundRect,0.250000X-0.325000X-1.100000X0.325000X-1.100000X0.325000X1.100000X-0.325000X1.100000X0*%
%ADD21R,0.650000X1.525000*%
%ADD22RoundRect,0.200000X-0.200000X-0.275000X0.200000X-0.275000X0.200000X0.275000X-0.200000X0.275000X0*%
%ADD23C,2.500000*%
%ADD24C,2.250000*%
%ADD25C,3.225000*%
%ADD26C,3.660000*%
%ADD27RoundRect,0.225000X0.250000X-0.225000X0.250000X0.225000X-0.250000X0.225000X-0.250000X-0.225000X0*%
%ADD28R,0.700000X0.600000*%
%ADD29R,1.525000X0.650000*%
%ADD30C,4.700000*%
%ADD31R,1.500000X1.500000*%
%ADD32RoundRect,0.250000X-0.625000X0.375000X-0.625000X-0.375000X0.625000X-0.375000X0.625000X0.375000X0*%
%ADD33R,2.020000X1.670000*%
%ADD34O,3.900000X1.950000*%
%ADD35R,3.100000X2.600000*%
%ADD36R,1.950000X1.950000*%
%ADD37R,2.200000X2.200000*%
%ADD38O,2.200000X2.200000*%
%ADD39R,5.100000X3.150000*%
%ADD40R,1.275000X1.275000*%
%ADD41C,1.275000*%
G04 APERTURE END LIST*
D10*
X213550000Y-134900000D03*
X215100000Y-134900000D03*
D11*
X273935000Y-117517500D03*
X266315000Y-109897500D03*
X273935000Y-109897500D03*
X273935000Y-127677500D03*
X266315000Y-127677500D03*
D12*
X204125000Y-285000000D03*
D13*
X267515000Y-250300000D03*
X268535000Y-250300000D03*
D14*
X243545000Y-102000000D03*
D15*
X246085000Y-102000000D03*
X248625000Y-102000000D03*
X251165000Y-102000000D03*
X253705000Y-102000000D03*
D16*
X284725000Y-237725000D03*
X284725000Y-236705000D03*
D11*
X286935000Y-117517500D03*
X279315000Y-109897500D03*
X286935000Y-109897500D03*
X286935000Y-127677500D03*
X279315000Y-127677500D03*
D17*
X215650000Y-124000000D03*
X214000000Y-124000000D03*
D12*
X319625000Y-285000000D03*
D11*
X301482500Y-198810000D03*
X309102500Y-191190000D03*
X309102500Y-198810000D03*
X291322500Y-198810000D03*
X291322500Y-191190000D03*
D10*
X223719577Y-155634332D03*
X225269577Y-155634332D03*
D18*
X229300000Y-250300000D03*
X228350000Y-250300000D03*
D11*
X238315000Y-267210609D03*
X245935000Y-274830609D03*
X238315000Y-274830609D03*
X238315000Y-257050609D03*
X245935000Y-257050609D03*
D19*
X257722500Y-134270000D03*
X256702500Y-134270000D03*
D16*
X284725000Y-182610000D03*
X284725000Y-181590000D03*
D14*
X224750000Y-172600000D03*
D15*
X227290000Y-172600000D03*
X224750000Y-175140000D03*
X227290000Y-175140000D03*
X224750000Y-177680000D03*
X227290000Y-177680000D03*
X224750000Y-180220000D03*
X227290000Y-180220000D03*
X224750000Y-182760000D03*
X227290000Y-182760000D03*
X224750000Y-185300000D03*
X227290000Y-185300000D03*
X224750000Y-187840000D03*
X227290000Y-187840000D03*
X224750000Y-190380000D03*
X227290000Y-190380000D03*
X224750000Y-192920000D03*
X227290000Y-192920000D03*
X224750000Y-195460000D03*
X227290000Y-195460000D03*
X224750000Y-198000000D03*
X227290000Y-198000000D03*
X224750000Y-200540000D03*
X227290000Y-200540000D03*
X224750000Y-203080000D03*
X227290000Y-203080000D03*
X224750000Y-205620000D03*
X227290000Y-205620000D03*
X224750000Y-208160000D03*
X227290000Y-208160000D03*
X224750000Y-210700000D03*
X227290000Y-210700000D03*
X224750000Y-213240000D03*
X227290000Y-213240000D03*
X224750000Y-215780000D03*
X227290000Y-215780000D03*
X224750000Y-218320000D03*
X227290000Y-218320000D03*
X224750000Y-220860000D03*
X227290000Y-220860000D03*
D14*
X253700000Y-282850000D03*
D15*
X251160000Y-282850000D03*
X248620000Y-282850000D03*
X246080000Y-282850000D03*
X243540000Y-282850000D03*
D20*
X211850000Y-140600000D03*
X214800000Y-140600000D03*
D12*
X204125000Y-100000000D03*
D16*
X284725000Y-155285000D03*
X284725000Y-154265000D03*
D18*
X270600000Y-250300000D03*
X269650000Y-250300000D03*
D14*
X317125000Y-196500000D03*
D15*
X317125000Y-199040000D03*
X317125000Y-201580000D03*
X317125000Y-204120000D03*
X317125000Y-206660000D03*
D21*
X251070000Y-226288000D03*
X249800000Y-226288000D03*
X248530000Y-226288000D03*
X247260000Y-226288000D03*
X245990000Y-226288000D03*
X244720000Y-226288000D03*
X243450000Y-226288000D03*
X242180000Y-226288000D03*
X242180000Y-231712000D03*
X243450000Y-231712000D03*
X244720000Y-231712000D03*
X245990000Y-231712000D03*
X247260000Y-231712000D03*
X248530000Y-231712000D03*
X249800000Y-231712000D03*
X251070000Y-231712000D03*
D20*
X211850000Y-137300000D03*
X214800000Y-137300000D03*
D11*
X301482500Y-226810000D03*
X309102500Y-219190000D03*
X309102500Y-226810000D03*
X291322500Y-226810000D03*
X291322500Y-219190000D03*
D16*
X284725000Y-142810000D03*
X284725000Y-141790000D03*
D11*
X245935000Y-117517500D03*
X238315000Y-109897500D03*
X245935000Y-109897500D03*
X245935000Y-127677500D03*
X238315000Y-127677500D03*
D22*
X214000000Y-125600000D03*
X215650000Y-125600000D03*
D23*
X203000000Y-113800000D03*
D24*
X212500000Y-113800000D03*
D25*
X209300000Y-108600000D03*
X209300000Y-113800000D03*
D26*
X202000000Y-117500000D03*
X202000000Y-107700000D03*
D16*
X284725000Y-210635000D03*
X284725000Y-209615000D03*
D14*
X317125000Y-140250000D03*
D15*
X317125000Y-142790000D03*
X317125000Y-145330000D03*
X317125000Y-147870000D03*
X317125000Y-150410000D03*
D18*
X282300000Y-250300000D03*
X281350000Y-250300000D03*
D21*
X256680000Y-163712000D03*
X257950000Y-163712000D03*
X259220000Y-163712000D03*
X260490000Y-163712000D03*
X261760000Y-163712000D03*
X263030000Y-163712000D03*
X264300000Y-163712000D03*
X265570000Y-163712000D03*
X265570000Y-158288000D03*
X264300000Y-158288000D03*
X263030000Y-158288000D03*
X261760000Y-158288000D03*
X260490000Y-158288000D03*
X259220000Y-158288000D03*
X257950000Y-158288000D03*
X256680000Y-158288000D03*
D13*
X240077500Y-250300000D03*
X241097500Y-250300000D03*
D14*
X202625000Y-148400000D03*
D15*
X202625000Y-150940000D03*
X202625000Y-153480000D03*
X202625000Y-156020000D03*
X202625000Y-158560000D03*
D27*
X218825000Y-131275000D03*
X218825000Y-129725000D03*
D13*
X226227500Y-250300000D03*
X227247500Y-250300000D03*
D18*
X241250000Y-134300000D03*
X242200000Y-134300000D03*
D19*
X284642500Y-134370000D03*
X283622500Y-134370000D03*
D28*
X284725000Y-152225000D03*
X284725000Y-153175000D03*
D29*
X257413000Y-205555000D03*
X257413000Y-206825000D03*
X257413000Y-208095000D03*
X257413000Y-209365000D03*
X257413000Y-210635000D03*
X257413000Y-211905000D03*
X257413000Y-213175000D03*
X257413000Y-214445000D03*
X262837000Y-214445000D03*
X262837000Y-213175000D03*
X262837000Y-211905000D03*
X262837000Y-210635000D03*
X262837000Y-209365000D03*
X262837000Y-208095000D03*
X262837000Y-206825000D03*
X262837000Y-205555000D03*
D30*
X203300000Y-167725000D03*
D11*
X251315000Y-267082500D03*
X258935000Y-274702500D03*
X251315000Y-274702500D03*
X251315000Y-256922500D03*
X258935000Y-256922500D03*
X258935000Y-117517500D03*
X251315000Y-109897500D03*
X258935000Y-109897500D03*
X258935000Y-127677500D03*
X251315000Y-127677500D03*
D31*
X209025000Y-132900000D03*
D11*
X279125000Y-267082500D03*
X286745000Y-274702500D03*
X279125000Y-274702500D03*
X279125000Y-256922500D03*
X286745000Y-256922500D03*
D16*
X284725000Y-197597500D03*
X284725000Y-196577500D03*
X284725000Y-225635000D03*
X284725000Y-224615000D03*
D14*
X271550000Y-102000000D03*
D15*
X274090000Y-102000000D03*
X276630000Y-102000000D03*
X279170000Y-102000000D03*
X281710000Y-102000000D03*
D28*
X284725000Y-234625000D03*
X284725000Y-235575000D03*
X284725000Y-166525000D03*
X284725000Y-167475000D03*
D32*
X217625000Y-115800000D03*
X217625000Y-118600000D03*
D11*
X301482500Y-142810000D03*
X309102500Y-135190000D03*
X309102500Y-142810000D03*
X291322500Y-142810000D03*
X291322500Y-135190000D03*
D33*
X223325000Y-133500000D03*
X227325000Y-133500000D03*
D11*
X301482500Y-170810000D03*
X309102500Y-163190000D03*
X309102500Y-170810000D03*
X291322500Y-170810000D03*
X291322500Y-163190000D03*
X301482500Y-239810000D03*
X309102500Y-232190000D03*
X309102500Y-239810000D03*
X291322500Y-239810000D03*
X291322500Y-232190000D03*
D19*
X272722500Y-134300000D03*
X271702500Y-134300000D03*
D18*
X281570000Y-134370000D03*
X282520000Y-134370000D03*
D14*
X205525000Y-236000000D03*
D15*
X205525000Y-238540000D03*
X205525000Y-241080000D03*
X205525000Y-243620000D03*
D18*
X255700000Y-250300000D03*
X254750000Y-250300000D03*
D34*
X213325000Y-262100000D03*
X213325000Y-284100000D03*
D21*
X216455000Y-127538000D03*
X215185000Y-127538000D03*
X213915000Y-127538000D03*
X212645000Y-127538000D03*
X212645000Y-132962000D03*
X213915000Y-132962000D03*
X215185000Y-132962000D03*
X216455000Y-132962000D03*
D35*
X214550000Y-130250000D03*
D14*
X281700000Y-282850000D03*
D15*
X279160000Y-282850000D03*
X276620000Y-282850000D03*
X274080000Y-282850000D03*
X271540000Y-282850000D03*
D11*
X301482500Y-211810000D03*
X309102500Y-204190000D03*
X309102500Y-211810000D03*
X291322500Y-211810000D03*
X291322500Y-204190000D03*
X224925000Y-274680000D03*
X224925000Y-267060000D03*
D36*
X224925000Y-256900000D03*
D11*
X232545000Y-256900000D03*
D28*
X284725000Y-179525000D03*
X284725000Y-180475000D03*
D18*
X254650000Y-134270000D03*
X255600000Y-134270000D03*
D28*
X284725000Y-194525000D03*
X284725000Y-195475000D03*
D37*
X232625000Y-284100000D03*
D38*
X227545000Y-284100000D03*
X222465000Y-284100000D03*
D39*
X222825000Y-137100000D03*
X222825000Y-147300000D03*
D11*
X301482500Y-155810000D03*
X309102500Y-148190000D03*
X309102500Y-155810000D03*
X291322500Y-155810000D03*
X291322500Y-148190000D03*
D28*
X284725000Y-139737500D03*
X284725000Y-140687500D03*
D12*
X319625000Y-100000000D03*
D13*
X279215000Y-250300000D03*
X280235000Y-250300000D03*
D14*
X317125000Y-168250000D03*
D15*
X317125000Y-170790000D03*
X317125000Y-173330000D03*
X317125000Y-175870000D03*
X317125000Y-178410000D03*
D30*
X203300000Y-225725760D03*
D19*
X244335000Y-134300000D03*
X243315000Y-134300000D03*
D28*
X284725000Y-222525000D03*
X284725000Y-223475000D03*
D14*
X246625000Y-236000000D03*
D15*
X246625000Y-238540000D03*
X246625000Y-241080000D03*
X246625000Y-243620000D03*
D11*
X301482500Y-183810000D03*
X309102500Y-176190000D03*
X309102500Y-183810000D03*
X291322500Y-183810000D03*
X291322500Y-176190000D03*
D16*
X284725000Y-169620000D03*
X284725000Y-168600000D03*
D18*
X243187500Y-250300000D03*
X242237500Y-250300000D03*
D13*
X252615000Y-250300000D03*
X253635000Y-250300000D03*
D18*
X269650000Y-134300000D03*
X270600000Y-134300000D03*
D11*
X266125000Y-267110969D03*
X273745000Y-274730969D03*
X266125000Y-274730969D03*
X266125000Y-256950969D03*
X273745000Y-256950969D03*
D28*
X284725000Y-207525000D03*
X284725000Y-208475000D03*
D40*
X229575000Y-153600000D03*
D41*
X234875000Y-153600000D03*
D14*
X317125000Y-224250000D03*
D15*
X317125000Y-226790000D03*
X317125000Y-229330000D03*
X317125000Y-231870000D03*
X317125000Y-234410000D03*
M02*
