G04 #@! TF.GenerationSoftware,KiCad,Pcbnew,(6.0.11)*
G04 #@! TF.CreationDate,2023-07-05T10:17:47+03:00*
G04 #@! TF.ProjectId,Pi Zero_Relay,5069205a-6572-46f5-9f52-656c61792e6b,rev?*
G04 #@! TF.SameCoordinates,Original*
G04 #@! TF.FileFunction,Copper,L2,Bot*
G04 #@! TF.FilePolarity,Positive*
%FSLAX46Y46*%
G04 Gerber Fmt 4.6, Leading zero omitted, Abs format (unit mm)*
G04 Created by KiCad (PCBNEW (6.0.11)) date 2023-07-05 10:17:47*
%MOMM*%
%LPD*%
G01*
G04 APERTURE LIST*
G04 #@! TA.AperFunction,ComponentPad*
%ADD10C,1.950000*%
G04 #@! TD*
G04 #@! TA.AperFunction,ComponentPad*
%ADD11R,1.700000X1.700000*%
G04 #@! TD*
G04 #@! TA.AperFunction,ComponentPad*
%ADD12O,1.700000X1.700000*%
G04 #@! TD*
G04 #@! TA.AperFunction,ComponentPad*
%ADD13C,2.250000*%
G04 #@! TD*
G04 #@! TA.AperFunction,ComponentPad*
%ADD14C,3.225000*%
G04 #@! TD*
G04 #@! TA.AperFunction,ComponentPad*
%ADD15C,3.660000*%
G04 #@! TD*
G04 #@! TA.AperFunction,ComponentPad*
%ADD16C,4.700000*%
G04 #@! TD*
G04 #@! TA.AperFunction,ComponentPad*
%ADD17O,3.900000X1.950000*%
G04 #@! TD*
G04 #@! TA.AperFunction,ComponentPad*
%ADD18R,1.950000X1.950000*%
G04 #@! TD*
G04 #@! TA.AperFunction,ComponentPad*
%ADD19R,2.200000X2.200000*%
G04 #@! TD*
G04 #@! TA.AperFunction,ComponentPad*
%ADD20O,2.200000X2.200000*%
G04 #@! TD*
G04 #@! TA.AperFunction,ComponentPad*
%ADD21R,1.275000X1.275000*%
G04 #@! TD*
G04 #@! TA.AperFunction,ComponentPad*
%ADD22C,1.275000*%
G04 #@! TD*
G04 #@! TA.AperFunction,ViaPad*
%ADD23C,0.500000*%
G04 #@! TD*
G04 #@! TA.AperFunction,ViaPad*
%ADD24C,0.600000*%
G04 #@! TD*
G04 #@! TA.AperFunction,ViaPad*
%ADD25C,1.000000*%
G04 #@! TD*
G04 #@! TA.AperFunction,Conductor*
%ADD26C,0.550000*%
G04 #@! TD*
G04 #@! TA.AperFunction,Conductor*
%ADD27C,0.350000*%
G04 #@! TD*
G04 #@! TA.AperFunction,Conductor*
%ADD28C,0.750000*%
G04 #@! TD*
G04 #@! TA.AperFunction,Conductor*
%ADD29C,1.000000*%
G04 #@! TD*
G04 #@! TA.AperFunction,Conductor*
%ADD30C,0.203200*%
G04 #@! TD*
G04 #@! TA.AperFunction,Conductor*
%ADD31C,3.000000*%
G04 #@! TD*
G04 #@! TA.AperFunction,Conductor*
%ADD32C,1.500000*%
G04 #@! TD*
G04 #@! TA.AperFunction,Conductor*
%ADD33C,3.500000*%
G04 #@! TD*
G04 #@! TA.AperFunction,Conductor*
%ADD34C,0.450000*%
G04 #@! TD*
G04 APERTURE END LIST*
D10*
X273935000Y-117517500D03*
X266315000Y-109897500D03*
X273935000Y-109897500D03*
X273935000Y-127677500D03*
X266315000Y-127677500D03*
D11*
X243545000Y-102000000D03*
D12*
X246085000Y-102000000D03*
X248625000Y-102000000D03*
X251165000Y-102000000D03*
X253705000Y-102000000D03*
D10*
X286935000Y-117517500D03*
X279315000Y-109897500D03*
X286935000Y-109897500D03*
X286935000Y-127677500D03*
X279315000Y-127677500D03*
X301482500Y-198810000D03*
X309102500Y-191190000D03*
X309102500Y-198810000D03*
X291322500Y-198810000D03*
X291322500Y-191190000D03*
X238315000Y-267210609D03*
X245935000Y-274830609D03*
X238315000Y-274830609D03*
X238315000Y-257050609D03*
X245935000Y-257050609D03*
D11*
X224750000Y-172600000D03*
D12*
X227290000Y-172600000D03*
X224750000Y-175140000D03*
X227290000Y-175140000D03*
X224750000Y-177680000D03*
X227290000Y-177680000D03*
X224750000Y-180220000D03*
X227290000Y-180220000D03*
X224750000Y-182760000D03*
X227290000Y-182760000D03*
X224750000Y-185300000D03*
X227290000Y-185300000D03*
X224750000Y-187840000D03*
X227290000Y-187840000D03*
X224750000Y-190380000D03*
X227290000Y-190380000D03*
X224750000Y-192920000D03*
X227290000Y-192920000D03*
X224750000Y-195460000D03*
X227290000Y-195460000D03*
X224750000Y-198000000D03*
X227290000Y-198000000D03*
X224750000Y-200540000D03*
X227290000Y-200540000D03*
X224750000Y-203080000D03*
X227290000Y-203080000D03*
X224750000Y-205620000D03*
X227290000Y-205620000D03*
X224750000Y-208160000D03*
X227290000Y-208160000D03*
X224750000Y-210700000D03*
X227290000Y-210700000D03*
X224750000Y-213240000D03*
X227290000Y-213240000D03*
X224750000Y-215780000D03*
X227290000Y-215780000D03*
X224750000Y-218320000D03*
X227290000Y-218320000D03*
X224750000Y-220860000D03*
X227290000Y-220860000D03*
D11*
X253700000Y-282850000D03*
D12*
X251160000Y-282850000D03*
X248620000Y-282850000D03*
X246080000Y-282850000D03*
X243540000Y-282850000D03*
D11*
X317125000Y-196500000D03*
D12*
X317125000Y-199040000D03*
X317125000Y-201580000D03*
X317125000Y-204120000D03*
X317125000Y-206660000D03*
D10*
X301482500Y-226810000D03*
X309102500Y-219190000D03*
X309102500Y-226810000D03*
X291322500Y-226810000D03*
X291322500Y-219190000D03*
X245935000Y-117517500D03*
X238315000Y-109897500D03*
X245935000Y-109897500D03*
X245935000Y-127677500D03*
X238315000Y-127677500D03*
D13*
X212500000Y-113800000D03*
D14*
X209300000Y-108600000D03*
X209300000Y-113800000D03*
D15*
X202000000Y-117500000D03*
X202000000Y-107700000D03*
D11*
X317125000Y-140250000D03*
D12*
X317125000Y-142790000D03*
X317125000Y-145330000D03*
X317125000Y-147870000D03*
X317125000Y-150410000D03*
D11*
X202625000Y-148400000D03*
D12*
X202625000Y-150940000D03*
X202625000Y-153480000D03*
X202625000Y-156020000D03*
X202625000Y-158560000D03*
D16*
X203300000Y-167725000D03*
D10*
X251315000Y-267082500D03*
X258935000Y-274702500D03*
X251315000Y-274702500D03*
X251315000Y-256922500D03*
X258935000Y-256922500D03*
X258935000Y-117517500D03*
X251315000Y-109897500D03*
X258935000Y-109897500D03*
X258935000Y-127677500D03*
X251315000Y-127677500D03*
X279125000Y-267082500D03*
X286745000Y-274702500D03*
X279125000Y-274702500D03*
X279125000Y-256922500D03*
X286745000Y-256922500D03*
D11*
X271550000Y-102000000D03*
D12*
X274090000Y-102000000D03*
X276630000Y-102000000D03*
X279170000Y-102000000D03*
X281710000Y-102000000D03*
D10*
X301482500Y-142810000D03*
X309102500Y-135190000D03*
X309102500Y-142810000D03*
X291322500Y-142810000D03*
X291322500Y-135190000D03*
X301482500Y-170810000D03*
X309102500Y-163190000D03*
X309102500Y-170810000D03*
X291322500Y-170810000D03*
X291322500Y-163190000D03*
X301482500Y-239810000D03*
X309102500Y-232190000D03*
X309102500Y-239810000D03*
X291322500Y-239810000D03*
X291322500Y-232190000D03*
D11*
X205525000Y-236000000D03*
D12*
X205525000Y-238540000D03*
X205525000Y-241080000D03*
X205525000Y-243620000D03*
D17*
X213325000Y-262100000D03*
X213325000Y-284100000D03*
D11*
X281700000Y-282850000D03*
D12*
X279160000Y-282850000D03*
X276620000Y-282850000D03*
X274080000Y-282850000D03*
X271540000Y-282850000D03*
D10*
X301482500Y-211810000D03*
X309102500Y-204190000D03*
X309102500Y-211810000D03*
X291322500Y-211810000D03*
X291322500Y-204190000D03*
X224925000Y-274680000D03*
X224925000Y-267060000D03*
D18*
X224925000Y-256900000D03*
D10*
X232545000Y-256900000D03*
D19*
X232625000Y-284100000D03*
D20*
X227545000Y-284100000D03*
X222465000Y-284100000D03*
D10*
X301482500Y-155810000D03*
X309102500Y-148190000D03*
X309102500Y-155810000D03*
X291322500Y-155810000D03*
X291322500Y-148190000D03*
D11*
X317125000Y-168250000D03*
D12*
X317125000Y-170790000D03*
X317125000Y-173330000D03*
X317125000Y-175870000D03*
X317125000Y-178410000D03*
D16*
X203300000Y-225725760D03*
D11*
X246625000Y-236000000D03*
D12*
X246625000Y-238540000D03*
X246625000Y-241080000D03*
X246625000Y-243620000D03*
D10*
X301482500Y-183810000D03*
X309102500Y-176190000D03*
X309102500Y-183810000D03*
X291322500Y-183810000D03*
X291322500Y-176190000D03*
X266125000Y-267110969D03*
X273745000Y-274730969D03*
X266125000Y-274730969D03*
X266125000Y-256950969D03*
X273745000Y-256950969D03*
D21*
X229575000Y-153600000D03*
D22*
X234875000Y-153600000D03*
D11*
X317125000Y-224250000D03*
D12*
X317125000Y-226790000D03*
X317125000Y-229330000D03*
X317125000Y-231870000D03*
X317125000Y-234410000D03*
D23*
X199825000Y-215000000D03*
X199825000Y-222600000D03*
X263625000Y-176000000D03*
X231625000Y-134800000D03*
X239425000Y-219800000D03*
X238625000Y-160200000D03*
X263625000Y-201000000D03*
X221025000Y-171400000D03*
X211625000Y-236943231D03*
X229215853Y-227000000D03*
X284735220Y-248509912D03*
X199825000Y-193400000D03*
X261225000Y-148200000D03*
X216625000Y-243800000D03*
X258625000Y-221643231D03*
X248625000Y-171400000D03*
X227025000Y-101600000D03*
X239625000Y-205200000D03*
X234215853Y-233856769D03*
X253625000Y-191400000D03*
X284625000Y-163400000D03*
X253625000Y-160200000D03*
X284725000Y-242877505D03*
X275625000Y-191400000D03*
X276225000Y-158000000D03*
X205425000Y-194143231D03*
X284125000Y-187300000D03*
X242125000Y-136000000D03*
X282717682Y-180204199D03*
X230825000Y-213200000D03*
X278625000Y-166000000D03*
X253625000Y-166000000D03*
X251425000Y-238200000D03*
X213625000Y-101600000D03*
X264425000Y-232800000D03*
X249825000Y-249600000D03*
X278625000Y-176000000D03*
X227025000Y-115400000D03*
X199825000Y-207600000D03*
X261225000Y-191400000D03*
X284665831Y-231367716D03*
X199825000Y-200600000D03*
X248625000Y-166000000D03*
X216025000Y-171400000D03*
X278625000Y-171000000D03*
X279987519Y-192122318D03*
X260125000Y-203500000D03*
X284125000Y-146200000D03*
X211625000Y-249200000D03*
D24*
X210825000Y-137800000D03*
D23*
X229425000Y-200400000D03*
X269425000Y-137400000D03*
X199825000Y-136200000D03*
X272025000Y-142200000D03*
X274625000Y-237000000D03*
X261225000Y-186000000D03*
X268425000Y-157900000D03*
X208625000Y-101600000D03*
X253625000Y-201000000D03*
X250025000Y-135100000D03*
X213625000Y-96200000D03*
X268625000Y-186000000D03*
X233625000Y-144800000D03*
X263425000Y-140800000D03*
X271499022Y-212335078D03*
X232425000Y-204800000D03*
X222025000Y-96200000D03*
X241225000Y-187800000D03*
X270225000Y-232800000D03*
X210425000Y-206400000D03*
X277376002Y-250105854D03*
X275105051Y-210916799D03*
X266825000Y-152000000D03*
X235025000Y-211200000D03*
X227025000Y-96200000D03*
X212425000Y-129400000D03*
D24*
X222625000Y-155600000D03*
D23*
X258625000Y-232700000D03*
X247225000Y-191400000D03*
X250025000Y-146800000D03*
X212425000Y-131000000D03*
X212425000Y-130200000D03*
X270625000Y-146400000D03*
X222025000Y-120800000D03*
X249025000Y-152400000D03*
X227025000Y-120800000D03*
X253025000Y-221623808D03*
X253025000Y-232800000D03*
X268625000Y-166000000D03*
X241425000Y-144800000D03*
X262925000Y-249600000D03*
X256225000Y-214400000D03*
X264425000Y-221643231D03*
X248625000Y-160200000D03*
X233625000Y-166000000D03*
D25*
X227325000Y-134900000D03*
D23*
X243625000Y-181000000D03*
X199825000Y-143800000D03*
X271871039Y-206442061D03*
X243825000Y-244400000D03*
X283052235Y-195347824D03*
X284125000Y-173500000D03*
X205425000Y-206400000D03*
X284125000Y-214400000D03*
X278604701Y-236961056D03*
X276425000Y-149600000D03*
D24*
X210825000Y-141200000D03*
X210825000Y-140000000D03*
D23*
X254425000Y-140800000D03*
X241425000Y-226200000D03*
X244425000Y-142000000D03*
X208625000Y-96200000D03*
X268625000Y-191400000D03*
D24*
X210825000Y-136600000D03*
D23*
X234125000Y-249600000D03*
X199825000Y-121800000D03*
X222025000Y-115400000D03*
X270189818Y-221579201D03*
X230825000Y-209600000D03*
X284125000Y-157900000D03*
X216625000Y-249200000D03*
X229215853Y-233856769D03*
X283099627Y-219293014D03*
X270225000Y-241600000D03*
X282953889Y-207256549D03*
X240425000Y-191000000D03*
X231025000Y-195200000D03*
X234225000Y-227000000D03*
X257425000Y-149000000D03*
X283266138Y-234039294D03*
X205425000Y-201000000D03*
X282025000Y-151800000D03*
X221025000Y-166000000D03*
X276125000Y-135000000D03*
X237825000Y-134800000D03*
X284650962Y-227025962D03*
X266392642Y-163691292D03*
D24*
X212425000Y-134800000D03*
D23*
X234215853Y-239256769D03*
X235425000Y-206800000D03*
X275625000Y-186000000D03*
X233625000Y-171400000D03*
X266425000Y-135000000D03*
X253625000Y-186000000D03*
X284125000Y-202000000D03*
X233625000Y-160200000D03*
X235425000Y-200400000D03*
X238625000Y-171400000D03*
D24*
X217425000Y-124000000D03*
D23*
X211625000Y-243800000D03*
X216634147Y-236943231D03*
X229215853Y-239256769D03*
X241225000Y-198600000D03*
X210434147Y-194143231D03*
X199825000Y-178400000D03*
X241425000Y-152300000D03*
X233825000Y-181000000D03*
X268625000Y-176000000D03*
X247225000Y-201000000D03*
X258939692Y-241488234D03*
X199825000Y-185800000D03*
X199825000Y-232800000D03*
X229225000Y-248800000D03*
X268629447Y-204740979D03*
X229225000Y-244000000D03*
X210425000Y-201000000D03*
X216025000Y-166000000D03*
X248025000Y-204200000D03*
X199825000Y-171400000D03*
X222025000Y-101600000D03*
X281825000Y-244400000D03*
X262225000Y-152200000D03*
X233225000Y-187800000D03*
X279093374Y-220303452D03*
X199825000Y-128800000D03*
X238625000Y-166000000D03*
X268625000Y-171000000D03*
X275177392Y-207553929D03*
X284125000Y-136100000D03*
X256225000Y-153000000D03*
X267825000Y-213600000D03*
D25*
X262868157Y-215461157D03*
D23*
X240025000Y-251500000D03*
X222025000Y-149400000D03*
X222825000Y-150200000D03*
X226725000Y-146600000D03*
X223625000Y-149400000D03*
X257725000Y-133000000D03*
X222825000Y-149400000D03*
X286125000Y-155300000D03*
X245125000Y-134300000D03*
X252625000Y-251500000D03*
X226725000Y-147400000D03*
X285925000Y-210600000D03*
X285925000Y-237700000D03*
X218625000Y-125600000D03*
X226725000Y-148200000D03*
X228325000Y-154600000D03*
X227525000Y-155400000D03*
X272725000Y-133100000D03*
X229125000Y-155400000D03*
X279225000Y-251600000D03*
X228325000Y-155400000D03*
X225925000Y-146600000D03*
X226725000Y-154600000D03*
X223625000Y-150200000D03*
X286025000Y-197600000D03*
X226225000Y-251500000D03*
X225925000Y-148200000D03*
D25*
X266725000Y-158200000D03*
D23*
X286125000Y-225600000D03*
X226725000Y-155400000D03*
X286125000Y-142800000D03*
X286025000Y-169600000D03*
D25*
X240950000Y-231675000D03*
D23*
X225925000Y-147400000D03*
X286025000Y-134400000D03*
X286025000Y-182600000D03*
X229125000Y-154600000D03*
X267493682Y-251493088D03*
X227525000Y-154600000D03*
X222025000Y-150200000D03*
X232330000Y-218600000D03*
X238245000Y-215780000D03*
X240425000Y-215000000D03*
X256200000Y-213200000D03*
X242175000Y-202750000D03*
X249900000Y-202750000D03*
X244234833Y-223725858D03*
X244300000Y-224600000D03*
X214425000Y-143200000D03*
X217525000Y-120100000D03*
X218325000Y-120100000D03*
X216025000Y-143200000D03*
X215225000Y-142400000D03*
X215225000Y-143200000D03*
X216025000Y-142400000D03*
X214425000Y-142400000D03*
X216725000Y-120100000D03*
X238225000Y-235000000D03*
D26*
X209925000Y-252600000D02*
X205525000Y-248200000D01*
D27*
X286125000Y-142800000D02*
X286925000Y-142800000D01*
D28*
X224925000Y-252700000D02*
X224825000Y-252600000D01*
D26*
X224825000Y-252600000D02*
X209925000Y-252600000D01*
D29*
X267492734Y-252600000D02*
X266125000Y-252600000D01*
D28*
X287125000Y-156000000D02*
X291132500Y-156000000D01*
D29*
X229125000Y-155500000D02*
X229125000Y-158200000D01*
D28*
X224925000Y-256900000D02*
X224925000Y-252700000D01*
X245976734Y-131851734D02*
X245976734Y-127719234D01*
D29*
X262329314Y-216000000D02*
X262868157Y-215461157D01*
X247025000Y-158200000D02*
X266725000Y-158200000D01*
D28*
X291132500Y-156000000D02*
X291322500Y-155810000D01*
D29*
X287125000Y-132869344D02*
X287125000Y-133900000D01*
D27*
X223725000Y-150200000D02*
X223625000Y-150300000D01*
D29*
X247225000Y-217200000D02*
X247587500Y-216837500D01*
X227290000Y-175140000D02*
X233715000Y-175140000D01*
X259125000Y-132000000D02*
X272425000Y-132000000D01*
X245025000Y-186450000D02*
X245025000Y-214275000D01*
X242825000Y-231675000D02*
X247225000Y-227275000D01*
D27*
X252625000Y-251500000D02*
X252625000Y-252400000D01*
D29*
X246125000Y-132000000D02*
X257725000Y-132000000D01*
X248425000Y-216000000D02*
X262329314Y-216000000D01*
D28*
X291132500Y-143000000D02*
X291322500Y-142810000D01*
D29*
X287125000Y-169500000D02*
X287125000Y-171000000D01*
X287125000Y-143000000D02*
X287125000Y-155600000D01*
D28*
X238125000Y-252600000D02*
X238125000Y-256860609D01*
X266125000Y-252600000D02*
X266125000Y-256950969D01*
X287125000Y-199000000D02*
X291132500Y-199000000D01*
D29*
X257725000Y-132000000D02*
X259125000Y-132000000D01*
X287125000Y-171000000D02*
X287125000Y-182605216D01*
X286255656Y-132000000D02*
X287125000Y-132869344D01*
D28*
X291132500Y-227000000D02*
X291322500Y-226810000D01*
D27*
X286925000Y-142800000D02*
X287125000Y-143000000D01*
X245725000Y-134300000D02*
X246125000Y-133900000D01*
D29*
X287125000Y-225600000D02*
X287125000Y-227000000D01*
D28*
X259125000Y-127867500D02*
X258935000Y-127677500D01*
D29*
X287125000Y-240000000D02*
X287125000Y-251600000D01*
X240125000Y-252600000D02*
X238125000Y-252600000D01*
X287125000Y-238000000D02*
X287125000Y-240000000D01*
X247587500Y-216837500D02*
X248425000Y-216000000D01*
X226225000Y-252600000D02*
X224825000Y-252600000D01*
D28*
X246125000Y-132000000D02*
X245976734Y-131851734D01*
X291132500Y-171000000D02*
X291322500Y-170810000D01*
X274125000Y-132000000D02*
X274125000Y-127867500D01*
D29*
X287125000Y-133900000D02*
X287125000Y-134402396D01*
D28*
X287125000Y-143000000D02*
X291132500Y-143000000D01*
D27*
X230225000Y-152950000D02*
X229575000Y-153600000D01*
D28*
X287125000Y-212000000D02*
X291132500Y-212000000D01*
D27*
X285925000Y-237700000D02*
X286825000Y-237700000D01*
X267493682Y-251493088D02*
X267492734Y-251494036D01*
D28*
X291132500Y-240000000D02*
X291322500Y-239810000D01*
D29*
X246125000Y-158100000D02*
X246225000Y-158200000D01*
D27*
X257725000Y-133000000D02*
X257725000Y-132000000D01*
D29*
X246125000Y-133900000D02*
X246125000Y-158100000D01*
D28*
X274125000Y-127867500D02*
X273935000Y-127677500D01*
D29*
X266125000Y-252600000D02*
X252825000Y-252600000D01*
D27*
X226225000Y-251500000D02*
X226225000Y-252600000D01*
D28*
X286255656Y-128356844D02*
X286935000Y-127677500D01*
D27*
X286025000Y-197600000D02*
X287025000Y-197600000D01*
D28*
X259125000Y-132000000D02*
X259125000Y-127867500D01*
D27*
X229225000Y-155400000D02*
X229125000Y-155500000D01*
D29*
X287125000Y-156000000D02*
X287125000Y-169500000D01*
D27*
X279225000Y-252500000D02*
X279125000Y-252600000D01*
D29*
X233715000Y-175140000D02*
X245025000Y-186450000D01*
X287125000Y-184000000D02*
X287125000Y-197500000D01*
D26*
X205525000Y-248200000D02*
X205525000Y-243620000D01*
D29*
X286125000Y-252600000D02*
X279125000Y-252600000D01*
X251125000Y-252600000D02*
X240125000Y-252600000D01*
D28*
X291132500Y-184000000D02*
X291322500Y-183810000D01*
X245976734Y-127719234D02*
X245935000Y-127677500D01*
D27*
X218625000Y-125600000D02*
X220825000Y-125600000D01*
D28*
X287125000Y-184000000D02*
X291132500Y-184000000D01*
D27*
X272725000Y-133100000D02*
X272725000Y-132300000D01*
D29*
X287125000Y-212000000D02*
X287125000Y-225600000D01*
D27*
X272725000Y-132300000D02*
X272425000Y-132000000D01*
X220825000Y-125600000D02*
X230225000Y-135000000D01*
X230225000Y-135000000D02*
X230225000Y-152950000D01*
X286825000Y-155300000D02*
X287125000Y-155600000D01*
D28*
X251125000Y-252600000D02*
X251125000Y-256732500D01*
D27*
X240025000Y-251500000D02*
X240025000Y-252500000D01*
D28*
X287125000Y-240000000D02*
X291132500Y-240000000D01*
X279125000Y-256922500D02*
X279125000Y-252600000D01*
D27*
X286030216Y-182605216D02*
X287125000Y-182605216D01*
D29*
X287125000Y-199000000D02*
X287125000Y-210595807D01*
D27*
X285929193Y-210595807D02*
X287125000Y-210595807D01*
X252625000Y-252400000D02*
X252825000Y-252600000D01*
D29*
X274125000Y-132000000D02*
X286255656Y-132000000D01*
X279125000Y-252600000D02*
X267492734Y-252600000D01*
D28*
X287125000Y-171000000D02*
X291132500Y-171000000D01*
X286255656Y-132000000D02*
X286255656Y-128356844D01*
D27*
X245125000Y-134300000D02*
X245725000Y-134300000D01*
D29*
X287125000Y-251600000D02*
X286125000Y-252600000D01*
D27*
X279225000Y-251600000D02*
X279225000Y-252500000D01*
D29*
X247225000Y-227275000D02*
X247225000Y-217200000D01*
X246225000Y-158200000D02*
X247025000Y-158200000D01*
X287125000Y-155600000D02*
X287125000Y-156000000D01*
X246125000Y-133900000D02*
X246125000Y-132000000D01*
X287125000Y-197500000D02*
X287125000Y-199000000D01*
D28*
X251125000Y-256732500D02*
X251315000Y-256922500D01*
D27*
X286825000Y-237700000D02*
X287125000Y-238000000D01*
X286125000Y-155300000D02*
X286825000Y-155300000D01*
D29*
X252825000Y-252600000D02*
X251125000Y-252600000D01*
X245025000Y-214275000D02*
X247587500Y-216837500D01*
X272425000Y-132000000D02*
X274125000Y-132000000D01*
X287125000Y-182605216D02*
X287125000Y-184000000D01*
D28*
X287125000Y-227000000D02*
X291132500Y-227000000D01*
D29*
X287125000Y-210595807D02*
X287125000Y-212000000D01*
X287125000Y-134402396D02*
X287125000Y-143000000D01*
X240950000Y-231675000D02*
X242825000Y-231675000D01*
D27*
X287025000Y-169600000D02*
X287125000Y-169500000D01*
X286027396Y-134402396D02*
X287125000Y-134402396D01*
X267492734Y-251494036D02*
X267492734Y-252600000D01*
X286025000Y-134400000D02*
X286027396Y-134402396D01*
D29*
X287125000Y-227000000D02*
X287125000Y-238000000D01*
X229125000Y-158200000D02*
X247025000Y-158200000D01*
D27*
X287025000Y-197600000D02*
X287125000Y-197500000D01*
X285925000Y-210600000D02*
X285929193Y-210595807D01*
D29*
X238125000Y-252600000D02*
X224825000Y-252600000D01*
D28*
X291132500Y-199000000D02*
X291322500Y-198810000D01*
D27*
X286025000Y-182600000D02*
X286030216Y-182605216D01*
X240025000Y-252500000D02*
X240125000Y-252600000D01*
D28*
X238125000Y-256860609D02*
X238315000Y-257050609D01*
D27*
X286025000Y-169600000D02*
X287025000Y-169600000D01*
D28*
X291132500Y-212000000D02*
X291322500Y-211810000D01*
D27*
X286125000Y-225600000D02*
X287125000Y-225600000D01*
D30*
X232330000Y-218600000D02*
X227570000Y-218600000D01*
X227570000Y-218600000D02*
X227290000Y-218320000D01*
X238245000Y-215780000D02*
X227290000Y-215780000D01*
X232150000Y-210700000D02*
X227290000Y-210700000D01*
X236375000Y-214925000D02*
X232150000Y-210700000D01*
X240425000Y-215000000D02*
X240350000Y-214925000D01*
X240350000Y-214925000D02*
X236375000Y-214925000D01*
D31*
X322125000Y-121800000D02*
X297325000Y-97000000D01*
X236025000Y-287800000D02*
X277225000Y-287800000D01*
D32*
X321795000Y-173330000D02*
X322125000Y-173000000D01*
X317125000Y-229330000D02*
X321795000Y-229330000D01*
D31*
X322125000Y-229000000D02*
X322125000Y-265500000D01*
X322125000Y-229000000D02*
X322125000Y-202000000D01*
D32*
X321705000Y-201580000D02*
X322125000Y-202000000D01*
D31*
X322125000Y-265500000D02*
X299825000Y-287800000D01*
D32*
X276630000Y-102000000D02*
X276630000Y-97505000D01*
D31*
X322125000Y-173000000D02*
X322125000Y-145000000D01*
D32*
X317125000Y-201580000D02*
X321705000Y-201580000D01*
X248625000Y-97000000D02*
X248625000Y-102000000D01*
D31*
X297325000Y-97000000D02*
X276125000Y-97000000D01*
D32*
X248625000Y-287595000D02*
X248625000Y-282855000D01*
D31*
X322125000Y-145000000D02*
X322125000Y-121800000D01*
D32*
X248625000Y-282855000D02*
X248620000Y-282850000D01*
D31*
X232625000Y-284400000D02*
X236025000Y-287800000D01*
X232625000Y-284100000D02*
X232625000Y-284400000D01*
D32*
X317125000Y-173330000D02*
X321795000Y-173330000D01*
D31*
X322125000Y-202000000D02*
X322125000Y-173000000D01*
X248625000Y-97000000D02*
X276125000Y-97000000D01*
D32*
X276620000Y-282850000D02*
X276620000Y-287105000D01*
X276620000Y-287105000D02*
X276125000Y-287600000D01*
X248620000Y-287600000D02*
X248625000Y-287595000D01*
D31*
X299825000Y-287800000D02*
X276325000Y-287800000D01*
D32*
X321795000Y-229330000D02*
X322125000Y-229000000D01*
X317125000Y-145330000D02*
X321795000Y-145330000D01*
X276630000Y-97505000D02*
X276125000Y-97000000D01*
X321795000Y-145330000D02*
X322125000Y-145000000D01*
D33*
X301482500Y-142810000D02*
X301482500Y-125357500D01*
X301482500Y-198810000D02*
X301482500Y-183810000D01*
X301482500Y-170810000D02*
X301482500Y-155810000D01*
X301482500Y-258942500D02*
X293342500Y-267082500D01*
X301482500Y-239810000D02*
X301482500Y-226810000D01*
X301482500Y-155810000D02*
X301482500Y-142810000D01*
X225115000Y-267250000D02*
X238275609Y-267250000D01*
X293342500Y-267082500D02*
X279125000Y-267082500D01*
X238275609Y-267250000D02*
X238315000Y-267210609D01*
X279096531Y-267110969D02*
X279125000Y-267082500D01*
X266125000Y-267110969D02*
X279096531Y-267110969D01*
X251315000Y-267082500D02*
X251222500Y-267175000D01*
X301482500Y-226810000D02*
X301482500Y-211810000D01*
X293642500Y-117517500D02*
X286935000Y-117517500D01*
X251343469Y-267110969D02*
X251315000Y-267082500D01*
X286935000Y-117517500D02*
X273935000Y-117517500D01*
X301482500Y-125357500D02*
X293642500Y-117517500D01*
X301482500Y-239810000D02*
X301482500Y-258942500D01*
X258935000Y-117517500D02*
X245935000Y-117517500D01*
X273935000Y-117517500D02*
X258935000Y-117517500D01*
X301482500Y-183810000D02*
X301482500Y-170810000D01*
X266125000Y-267110969D02*
X251343469Y-267110969D01*
X238350609Y-267175000D02*
X238315000Y-267210609D01*
X251222500Y-267175000D02*
X238350609Y-267175000D01*
X301482500Y-211810000D02*
X301482500Y-198810000D01*
D30*
X252250000Y-207925000D02*
X252250000Y-210950000D01*
X239675000Y-202750000D02*
X234925000Y-198000000D01*
X254500000Y-213200000D02*
X256200000Y-213200000D01*
X252250000Y-210950000D02*
X254325000Y-213025000D01*
X234925000Y-198000000D02*
X227290000Y-198000000D01*
X254325000Y-213025000D02*
X254500000Y-213200000D01*
X242175000Y-202750000D02*
X239675000Y-202750000D01*
X252250000Y-205100000D02*
X252250000Y-207925000D01*
X249900000Y-202750000D02*
X252250000Y-205100000D01*
X226010000Y-194200000D02*
X227290000Y-192920000D01*
X244160691Y-223800000D02*
X236737500Y-223800000D01*
X221075000Y-222500000D02*
X221075000Y-195950000D01*
X222825000Y-194200000D02*
X226010000Y-194200000D01*
X221075000Y-195950000D02*
X222825000Y-194200000D01*
X236737500Y-223800000D02*
X236137500Y-224400000D01*
X244234833Y-223725858D02*
X244160691Y-223800000D01*
X222975000Y-224400000D02*
X221075000Y-222500000D01*
X236137500Y-224400000D02*
X222975000Y-224400000D01*
X226020000Y-191650000D02*
X227290000Y-190380000D01*
X236625000Y-225200000D02*
X222425000Y-225200000D01*
X220025000Y-194550000D02*
X222925000Y-191650000D01*
X244300000Y-224600000D02*
X237225000Y-224600000D01*
X222425000Y-225200000D02*
X220025000Y-222800000D01*
X220025000Y-222800000D02*
X220025000Y-194550000D01*
X237225000Y-224600000D02*
X236625000Y-225200000D01*
X222925000Y-191650000D02*
X226020000Y-191650000D01*
X211025000Y-157600000D02*
X204425000Y-151000000D01*
X216965000Y-175140000D02*
X211025000Y-169200000D01*
X202685000Y-151000000D02*
X202625000Y-150940000D01*
X211025000Y-169200000D02*
X211025000Y-157600000D01*
X224750000Y-175140000D02*
X216965000Y-175140000D01*
X204425000Y-151000000D02*
X202685000Y-151000000D01*
X205705000Y-153480000D02*
X202625000Y-153480000D01*
X224750000Y-177680000D02*
X223905000Y-177680000D01*
X210225000Y-158000000D02*
X205705000Y-153480000D01*
X222225000Y-176000000D02*
X216625000Y-176000000D01*
X216625000Y-176000000D02*
X210225000Y-169600000D01*
X223905000Y-177680000D02*
X222225000Y-176000000D01*
X210225000Y-169600000D02*
X210225000Y-158000000D01*
X216225000Y-176800000D02*
X209425000Y-170000000D01*
X221330000Y-176800000D02*
X216225000Y-176800000D01*
X209425000Y-158400000D02*
X207045000Y-156020000D01*
X207045000Y-156020000D02*
X202625000Y-156020000D01*
X224750000Y-180220000D02*
X221330000Y-176800000D01*
X209425000Y-170000000D02*
X209425000Y-158400000D01*
X238225000Y-235000000D02*
X245625000Y-235000000D01*
X245625000Y-235000000D02*
X246625000Y-236000000D01*
X245580000Y-242575000D02*
X246625000Y-243620000D01*
X215625000Y-232875000D02*
X225325000Y-242575000D01*
X215625000Y-189900000D02*
X215625000Y-232875000D01*
X225325000Y-242575000D02*
X245580000Y-242575000D01*
X227290000Y-182760000D02*
X226025000Y-184025000D01*
X221500000Y-184025000D02*
X215625000Y-189900000D01*
X226025000Y-184025000D02*
X221500000Y-184025000D01*
X246620000Y-241075000D02*
X246625000Y-241080000D01*
D34*
X246625000Y-238540000D02*
X246625000Y-241080000D01*
D30*
X226015000Y-186575000D02*
X220625000Y-186575000D01*
X227290000Y-185300000D02*
X226015000Y-186575000D01*
X220625000Y-186575000D02*
X216875000Y-190325000D01*
X216875000Y-190325000D02*
X216875000Y-232400000D01*
X225550000Y-241075000D02*
X246620000Y-241075000D01*
X216875000Y-232400000D02*
X225550000Y-241075000D01*
D33*
X213325000Y-268100000D02*
X219905000Y-274680000D01*
X213325000Y-262100000D02*
X213325000Y-268100000D01*
X219905000Y-274680000D02*
X224925000Y-274680000D01*
G04 #@! TA.AperFunction,Conductor*
G36*
X229031862Y-94620431D02*
G01*
X229094199Y-94675657D01*
X229123731Y-94753527D01*
X229125000Y-94774500D01*
X229125000Y-130000000D01*
X233125000Y-134000000D01*
X244108100Y-134000000D01*
X244188962Y-134019931D01*
X244251299Y-134075157D01*
X244280831Y-134153027D01*
X244281147Y-134192184D01*
X244269815Y-134300000D01*
X244288503Y-134477803D01*
X244324680Y-134589144D01*
X244337712Y-134629251D01*
X244343750Y-134647835D01*
X244348311Y-134655735D01*
X244348312Y-134655737D01*
X244383006Y-134715829D01*
X244433141Y-134802665D01*
X244552770Y-134935526D01*
X244697407Y-135040612D01*
X244705737Y-135044321D01*
X244705741Y-135044323D01*
X244816582Y-135093672D01*
X244860733Y-135113329D01*
X244869650Y-135115224D01*
X244869655Y-135115226D01*
X244886679Y-135118845D01*
X244961630Y-135155153D01*
X245011122Y-135222134D01*
X245024500Y-135289042D01*
X245024500Y-156925500D01*
X245004569Y-157006362D01*
X244949343Y-157068699D01*
X244871473Y-157098231D01*
X244850500Y-157099500D01*
X231304500Y-157099500D01*
X231223638Y-157079569D01*
X231161301Y-157024343D01*
X231131769Y-156946473D01*
X231130500Y-156925500D01*
X231130500Y-154076221D01*
X231130279Y-154073125D01*
X231130256Y-154072482D01*
X231130145Y-154066301D01*
X231129979Y-152970958D01*
X231128923Y-146012273D01*
X231125997Y-145952914D01*
X231123572Y-145928335D01*
X231114847Y-145869575D01*
X231099311Y-145791528D01*
X231064844Y-145677958D01*
X231046027Y-145632545D01*
X231021055Y-145585838D01*
X231000500Y-145503798D01*
X231000500Y-135009035D01*
X231000510Y-135007214D01*
X231001309Y-134930867D01*
X231001411Y-134921135D01*
X230999356Y-134911630D01*
X230999355Y-134911620D01*
X230993194Y-134883127D01*
X230990348Y-134865750D01*
X230987098Y-134836771D01*
X230987097Y-134836767D01*
X230986013Y-134827102D01*
X230976504Y-134799795D01*
X230970756Y-134779345D01*
X230970583Y-134778545D01*
X230964645Y-134751081D01*
X230948207Y-134715829D01*
X230941584Y-134699518D01*
X230931996Y-134671986D01*
X230928796Y-134662797D01*
X230913473Y-134638276D01*
X230903340Y-134619611D01*
X230895229Y-134602218D01*
X230895226Y-134602214D01*
X230891117Y-134593401D01*
X230867277Y-134562666D01*
X230857214Y-134548239D01*
X230841757Y-134523504D01*
X230841755Y-134523501D01*
X230836600Y-134515252D01*
X230829749Y-134508353D01*
X230829745Y-134508348D01*
X230809047Y-134487505D01*
X230808632Y-134487062D01*
X230808106Y-134486383D01*
X230783081Y-134461358D01*
X230714006Y-134391799D01*
X230712956Y-134391132D01*
X230711979Y-134390256D01*
X221379818Y-125058096D01*
X221378537Y-125056801D01*
X221325042Y-125002174D01*
X221318240Y-124995228D01*
X221285552Y-124974162D01*
X221271252Y-124963887D01*
X221248464Y-124945695D01*
X221248462Y-124945694D01*
X221240860Y-124939625D01*
X221232103Y-124935391D01*
X221232097Y-124935388D01*
X221214828Y-124927040D01*
X221196302Y-124916644D01*
X221180171Y-124906248D01*
X221180168Y-124906247D01*
X221171996Y-124900980D01*
X221135438Y-124887674D01*
X221119232Y-124880829D01*
X221084220Y-124863903D01*
X221074746Y-124861716D01*
X221074741Y-124861714D01*
X221056047Y-124857398D01*
X221035679Y-124851365D01*
X221017648Y-124844802D01*
X221017647Y-124844802D01*
X221008507Y-124841475D01*
X220982183Y-124838150D01*
X220969919Y-124836600D01*
X220952595Y-124833514D01*
X220914698Y-124824765D01*
X220904967Y-124824731D01*
X220901816Y-124824720D01*
X220875572Y-124824629D01*
X220875002Y-124824609D01*
X220874137Y-124824500D01*
X220839189Y-124824500D01*
X220838581Y-124824499D01*
X220744281Y-124824169D01*
X220744273Y-124824169D01*
X220740716Y-124824157D01*
X220739504Y-124824428D01*
X220738177Y-124824500D01*
X219011218Y-124824500D01*
X218940447Y-124809457D01*
X218897599Y-124790380D01*
X218897594Y-124790378D01*
X218889267Y-124786671D01*
X218880352Y-124784776D01*
X218723308Y-124751395D01*
X218723305Y-124751395D01*
X218714391Y-124749500D01*
X218535609Y-124749500D01*
X218526695Y-124751395D01*
X218526692Y-124751395D01*
X218369648Y-124784776D01*
X218360733Y-124786671D01*
X218309555Y-124809457D01*
X218205738Y-124855679D01*
X218205736Y-124855680D01*
X218197408Y-124859388D01*
X218052770Y-124964474D01*
X217933141Y-125097335D01*
X217843750Y-125252165D01*
X217788503Y-125422197D01*
X217769815Y-125600000D01*
X217788503Y-125777803D01*
X217843750Y-125947835D01*
X217933141Y-126102665D01*
X218052770Y-126235526D01*
X218197407Y-126340612D01*
X218205737Y-126344321D01*
X218205741Y-126344323D01*
X218316582Y-126393672D01*
X218360733Y-126413329D01*
X218369647Y-126415224D01*
X218369648Y-126415224D01*
X218526692Y-126448605D01*
X218526695Y-126448605D01*
X218535609Y-126450500D01*
X218714391Y-126450500D01*
X218723305Y-126448605D01*
X218723308Y-126448605D01*
X218880352Y-126415224D01*
X218880353Y-126415224D01*
X218889267Y-126413329D01*
X218897594Y-126409622D01*
X218897599Y-126409620D01*
X218940447Y-126390543D01*
X219011218Y-126375500D01*
X220431704Y-126375500D01*
X220512566Y-126395431D01*
X220554741Y-126426463D01*
X229398537Y-135270260D01*
X229441621Y-135341531D01*
X229449500Y-135393297D01*
X229449500Y-144920500D01*
X229429569Y-145001362D01*
X229374343Y-145063699D01*
X229296473Y-145093231D01*
X229275500Y-145094500D01*
X220537410Y-145094500D01*
X220510673Y-145095813D01*
X220480214Y-145097309D01*
X220480200Y-145097310D01*
X220478063Y-145097415D01*
X220453481Y-145099836D01*
X220451365Y-145100150D01*
X220451348Y-145100152D01*
X220396820Y-145108241D01*
X220396806Y-145108243D01*
X220394699Y-145108556D01*
X220392617Y-145108970D01*
X220392612Y-145108971D01*
X220320827Y-145123250D01*
X220320821Y-145123252D01*
X220316646Y-145124082D01*
X220203064Y-145158536D01*
X220157647Y-145177348D01*
X220052961Y-145233304D01*
X219997308Y-145270490D01*
X219905552Y-145345792D01*
X219870792Y-145380552D01*
X219795490Y-145472308D01*
X219758304Y-145527961D01*
X219702349Y-145632645D01*
X219683536Y-145678064D01*
X219664314Y-145741431D01*
X219650358Y-145787442D01*
X219649080Y-145791654D01*
X219648248Y-145795839D01*
X219633999Y-145867476D01*
X219633555Y-145869706D01*
X219624837Y-145928480D01*
X219622416Y-145953061D01*
X219619500Y-146012410D01*
X219619500Y-151663326D01*
X219622416Y-151722675D01*
X219624837Y-151747256D01*
X219633555Y-151806030D01*
X219649080Y-151884082D01*
X219650320Y-151888169D01*
X219650321Y-151888174D01*
X219682297Y-151993588D01*
X219682301Y-151993598D01*
X219683537Y-151997674D01*
X219702351Y-152043095D01*
X219716649Y-152069845D01*
X219750007Y-152132252D01*
X219758306Y-152147779D01*
X219802521Y-152213951D01*
X219810830Y-152225154D01*
X219836658Y-152259979D01*
X219836673Y-152259998D01*
X219837927Y-152261689D01*
X219839270Y-152263326D01*
X219839283Y-152263342D01*
X219842866Y-152267707D01*
X219853597Y-152280782D01*
X219893492Y-152324798D01*
X220100202Y-152531508D01*
X220144218Y-152571403D01*
X220145866Y-152572755D01*
X220145870Y-152572759D01*
X220161658Y-152585717D01*
X220161674Y-152585730D01*
X220163311Y-152587073D01*
X220165002Y-152588327D01*
X220165021Y-152588342D01*
X220190007Y-152606872D01*
X220211049Y-152622479D01*
X220277221Y-152666694D01*
X220280980Y-152668703D01*
X220280988Y-152668708D01*
X220336563Y-152698413D01*
X220381907Y-152722650D01*
X220427326Y-152741463D01*
X220431403Y-152742700D01*
X220431415Y-152742704D01*
X220527096Y-152771727D01*
X220540911Y-152775918D01*
X220545085Y-152776748D01*
X220545092Y-152776750D01*
X220604441Y-152788555D01*
X220618965Y-152791444D01*
X220634236Y-152793709D01*
X220675658Y-152799854D01*
X220675675Y-152799856D01*
X220677744Y-152800163D01*
X220679832Y-152800369D01*
X220679851Y-152800371D01*
X220698879Y-152802245D01*
X220702325Y-152802584D01*
X220704472Y-152802689D01*
X220704479Y-152802690D01*
X220719532Y-152803429D01*
X220761674Y-152805500D01*
X222502120Y-152805500D01*
X222582982Y-152825431D01*
X222625157Y-152856463D01*
X224168537Y-154399843D01*
X224211621Y-154471114D01*
X224219500Y-154522880D01*
X224219500Y-156087590D01*
X224222416Y-156146939D01*
X224224837Y-156171520D01*
X224233555Y-156230294D01*
X224249080Y-156308346D01*
X224283536Y-156421936D01*
X224302349Y-156467355D01*
X224358302Y-156572037D01*
X224395487Y-156627689D01*
X224470791Y-156719447D01*
X224505552Y-156754208D01*
X224597308Y-156829510D01*
X224652961Y-156866696D01*
X224757647Y-156922652D01*
X224803064Y-156941464D01*
X224807149Y-156942703D01*
X224807157Y-156942706D01*
X224856021Y-156957528D01*
X224916647Y-156975918D01*
X224920821Y-156976748D01*
X224920824Y-156976749D01*
X224968062Y-156986145D01*
X224994701Y-156991444D01*
X225009972Y-156993709D01*
X225051394Y-156999854D01*
X225051411Y-156999856D01*
X225053480Y-157000163D01*
X225055568Y-157000369D01*
X225055587Y-157000371D01*
X225074615Y-157002245D01*
X225078061Y-157002584D01*
X225080208Y-157002689D01*
X225080215Y-157002690D01*
X225095268Y-157003429D01*
X225137410Y-157005500D01*
X225645500Y-157005500D01*
X225726362Y-157025431D01*
X225788699Y-157080657D01*
X225818231Y-157158527D01*
X225819500Y-157179500D01*
X225819500Y-170975902D01*
X225799569Y-171056764D01*
X225744343Y-171119101D01*
X225666473Y-171148633D01*
X225639361Y-171149385D01*
X225639361Y-171149500D01*
X224750781Y-171149500D01*
X223860640Y-171149501D01*
X223854999Y-171150244D01*
X223854993Y-171150244D01*
X223790200Y-171158774D01*
X223743238Y-171164956D01*
X223597159Y-171225464D01*
X223471718Y-171321718D01*
X223375464Y-171447159D01*
X223314956Y-171593238D01*
X223299500Y-171710639D01*
X223299501Y-173489360D01*
X223314956Y-173606762D01*
X223375464Y-173752841D01*
X223382406Y-173761888D01*
X223389044Y-173770539D01*
X223422457Y-173846824D01*
X223425000Y-173876463D01*
X223425000Y-174263900D01*
X223405069Y-174344762D01*
X223349843Y-174407099D01*
X223271973Y-174436631D01*
X223251000Y-174437900D01*
X217327894Y-174437900D01*
X217247032Y-174417969D01*
X217204857Y-174386937D01*
X211778063Y-168960143D01*
X211734979Y-168888872D01*
X211727100Y-168837106D01*
X211727100Y-157630340D01*
X211727503Y-157618505D01*
X211731288Y-157562985D01*
X211720624Y-157501884D01*
X211719294Y-157492877D01*
X211713102Y-157441706D01*
X211713101Y-157441704D01*
X211711842Y-157431296D01*
X211708136Y-157421487D01*
X211706213Y-157413660D01*
X211703875Y-157405915D01*
X211702071Y-157395581D01*
X211693092Y-157375125D01*
X211677144Y-157338796D01*
X211673702Y-157330361D01*
X211655484Y-157282148D01*
X211655482Y-157282145D01*
X211651774Y-157272331D01*
X211645832Y-157263686D01*
X211642094Y-157256535D01*
X211637981Y-157249580D01*
X211633766Y-157239978D01*
X211627384Y-157231661D01*
X211627379Y-157231652D01*
X211596001Y-157190759D01*
X211590649Y-157183394D01*
X211561461Y-157140926D01*
X211555521Y-157132283D01*
X211547690Y-157125306D01*
X211547685Y-157125300D01*
X211510485Y-157092156D01*
X211503199Y-157085279D01*
X204942902Y-150524982D01*
X204934819Y-150516329D01*
X204905142Y-150482310D01*
X204898247Y-150474406D01*
X204847495Y-150438736D01*
X204840217Y-150433331D01*
X204791379Y-150395038D01*
X204781815Y-150390719D01*
X204774915Y-150386541D01*
X204767801Y-150382727D01*
X204759215Y-150376692D01*
X204749442Y-150372882D01*
X204749439Y-150372880D01*
X204701429Y-150354162D01*
X204693032Y-150350632D01*
X204646064Y-150329425D01*
X204646058Y-150329423D01*
X204636499Y-150325107D01*
X204626182Y-150323195D01*
X204618466Y-150320777D01*
X204610660Y-150318773D01*
X204600888Y-150314963D01*
X204539400Y-150306868D01*
X204530410Y-150305444D01*
X204479728Y-150296051D01*
X204479724Y-150296051D01*
X204469409Y-150294139D01*
X204458934Y-150294743D01*
X204409192Y-150297611D01*
X204399176Y-150297900D01*
X204031937Y-150297900D01*
X203951075Y-150277969D01*
X203885843Y-150218412D01*
X203883756Y-150215185D01*
X203778155Y-150051951D01*
X203617629Y-149875536D01*
X203430445Y-149727707D01*
X203221631Y-149612436D01*
X203175325Y-149596038D01*
X203003519Y-149535198D01*
X203003514Y-149535197D01*
X202996794Y-149532817D01*
X202989767Y-149531565D01*
X202989766Y-149531565D01*
X202769001Y-149492240D01*
X202769000Y-149492240D01*
X202761972Y-149490988D01*
X202649581Y-149489615D01*
X202530609Y-149488161D01*
X202530606Y-149488161D01*
X202523471Y-149488074D01*
X202287698Y-149524153D01*
X202280921Y-149526368D01*
X202280917Y-149526369D01*
X202067764Y-149596038D01*
X202067761Y-149596039D01*
X202060982Y-149598255D01*
X201849414Y-149708390D01*
X201658675Y-149851602D01*
X201493887Y-150024042D01*
X201359475Y-150221082D01*
X201356470Y-150227556D01*
X201275724Y-150401510D01*
X201259051Y-150437428D01*
X201257146Y-150444298D01*
X201257145Y-150444300D01*
X201237170Y-150516329D01*
X201195309Y-150667272D01*
X201169963Y-150904440D01*
X201183694Y-151142562D01*
X201236131Y-151375245D01*
X201325867Y-151596239D01*
X201329593Y-151602320D01*
X201329597Y-151602327D01*
X201404660Y-151724817D01*
X201450493Y-151799609D01*
X201606660Y-151979894D01*
X201612149Y-151984451D01*
X201612150Y-151984452D01*
X201722249Y-152075858D01*
X201771733Y-152142844D01*
X201784418Y-152225154D01*
X201757399Y-152303931D01*
X201715577Y-152348877D01*
X201664395Y-152387306D01*
X201664386Y-152387314D01*
X201658675Y-152391602D01*
X201493887Y-152564042D01*
X201359475Y-152761082D01*
X201259051Y-152977428D01*
X201195309Y-153207272D01*
X201169963Y-153444440D01*
X201183694Y-153682562D01*
X201236131Y-153915245D01*
X201325867Y-154136239D01*
X201329593Y-154142320D01*
X201329597Y-154142327D01*
X201383093Y-154229623D01*
X201450493Y-154339609D01*
X201606660Y-154519894D01*
X201612149Y-154524451D01*
X201612150Y-154524452D01*
X201722249Y-154615858D01*
X201771733Y-154682844D01*
X201784418Y-154765154D01*
X201757399Y-154843931D01*
X201715577Y-154888877D01*
X201664395Y-154927306D01*
X201664386Y-154927314D01*
X201658675Y-154931602D01*
X201493887Y-155104042D01*
X201359475Y-155301082D01*
X201259051Y-155517428D01*
X201257146Y-155524298D01*
X201257145Y-155524300D01*
X201222886Y-155647835D01*
X201195309Y-155747272D01*
X201169963Y-155984440D01*
X201183694Y-156222562D01*
X201236131Y-156455245D01*
X201325867Y-156676239D01*
X201329593Y-156682320D01*
X201329597Y-156682327D01*
X201375311Y-156756924D01*
X201450493Y-156879609D01*
X201606660Y-157059894D01*
X201790176Y-157212252D01*
X201796340Y-157215854D01*
X201796343Y-157215856D01*
X201886796Y-157268712D01*
X201996112Y-157332591D01*
X202218937Y-157417680D01*
X202225930Y-157419103D01*
X202225931Y-157419103D01*
X202445671Y-157463810D01*
X202445673Y-157463810D01*
X202452666Y-157465233D01*
X202459796Y-157465494D01*
X202459801Y-157465495D01*
X202577552Y-157469812D01*
X202691025Y-157473973D01*
X202927609Y-157443665D01*
X203014223Y-157417680D01*
X203149232Y-157377176D01*
X203149233Y-157377175D01*
X203156068Y-157375125D01*
X203370264Y-157270191D01*
X203564445Y-157131683D01*
X203570851Y-157125300D01*
X203671069Y-157025431D01*
X203733397Y-156963320D01*
X203854660Y-156794564D01*
X203918032Y-156740528D01*
X203995963Y-156722100D01*
X206682107Y-156722100D01*
X206762969Y-156742031D01*
X206805144Y-156773063D01*
X208671937Y-158639857D01*
X208715021Y-158711129D01*
X208722900Y-158762894D01*
X208722900Y-169969670D01*
X208722497Y-169981503D01*
X208718713Y-170037015D01*
X208720517Y-170047351D01*
X208720517Y-170047352D01*
X208729374Y-170098099D01*
X208730704Y-170107106D01*
X208738158Y-170168704D01*
X208741866Y-170178518D01*
X208743792Y-170186359D01*
X208746126Y-170194088D01*
X208747929Y-170204420D01*
X208752146Y-170214026D01*
X208772861Y-170261217D01*
X208776303Y-170269650D01*
X208798226Y-170327669D01*
X208804171Y-170336319D01*
X208807908Y-170343468D01*
X208812016Y-170350415D01*
X208816234Y-170360023D01*
X208822619Y-170368344D01*
X208822620Y-170368346D01*
X208853996Y-170409236D01*
X208859340Y-170416590D01*
X208894479Y-170467717D01*
X208902311Y-170474695D01*
X208939524Y-170507851D01*
X208946810Y-170514729D01*
X215707098Y-177275018D01*
X215715181Y-177283670D01*
X215751753Y-177325594D01*
X215802505Y-177361264D01*
X215809783Y-177366669D01*
X215858621Y-177404962D01*
X215868185Y-177409281D01*
X215875085Y-177413459D01*
X215882199Y-177417273D01*
X215890785Y-177423308D01*
X215900558Y-177427118D01*
X215900561Y-177427120D01*
X215948571Y-177445838D01*
X215956968Y-177449368D01*
X216003936Y-177470575D01*
X216003942Y-177470577D01*
X216013501Y-177474893D01*
X216023818Y-177476805D01*
X216031534Y-177479223D01*
X216039340Y-177481227D01*
X216049112Y-177485037D01*
X216110600Y-177493132D01*
X216119590Y-177494556D01*
X216170272Y-177503949D01*
X216170276Y-177503949D01*
X216180591Y-177505861D01*
X216191066Y-177505257D01*
X216240808Y-177502389D01*
X216250824Y-177502100D01*
X220967107Y-177502100D01*
X221047969Y-177522031D01*
X221090144Y-177553063D01*
X223284172Y-179747091D01*
X223327256Y-179818362D01*
X223332285Y-179901492D01*
X223328808Y-179916624D01*
X223320309Y-179947272D01*
X223294963Y-180184440D01*
X223295374Y-180191568D01*
X223295374Y-180191570D01*
X223297281Y-180224633D01*
X223308694Y-180422562D01*
X223361131Y-180655245D01*
X223363817Y-180661860D01*
X223363818Y-180661863D01*
X223416965Y-180792747D01*
X223450867Y-180876239D01*
X223454593Y-180882320D01*
X223454597Y-180882327D01*
X223538277Y-181018879D01*
X223575493Y-181079609D01*
X223731660Y-181259894D01*
X223915176Y-181412252D01*
X223921340Y-181415854D01*
X223921343Y-181415856D01*
X224014327Y-181470191D01*
X224121112Y-181532591D01*
X224343937Y-181617680D01*
X224350930Y-181619103D01*
X224350931Y-181619103D01*
X224570671Y-181663810D01*
X224570673Y-181663810D01*
X224577666Y-181665233D01*
X224584796Y-181665494D01*
X224584801Y-181665495D01*
X224702552Y-181669812D01*
X224816025Y-181673973D01*
X225052609Y-181643665D01*
X225139223Y-181617680D01*
X225274232Y-181577176D01*
X225274233Y-181577175D01*
X225281068Y-181575125D01*
X225287476Y-181571986D01*
X225287483Y-181571983D01*
X225374450Y-181529378D01*
X225455834Y-181511701D01*
X225536111Y-181533871D01*
X225596890Y-181590807D01*
X225624247Y-181669468D01*
X225625000Y-181685634D01*
X225625000Y-183148900D01*
X225605069Y-183229762D01*
X225549843Y-183292099D01*
X225471973Y-183321631D01*
X225451000Y-183322900D01*
X221530330Y-183322900D01*
X221518497Y-183322497D01*
X221517726Y-183322444D01*
X221462985Y-183318713D01*
X221452650Y-183320517D01*
X221452646Y-183320517D01*
X221401898Y-183329374D01*
X221392886Y-183330705D01*
X221376434Y-183332696D01*
X221331296Y-183338158D01*
X221321481Y-183341867D01*
X221313646Y-183343791D01*
X221305914Y-183346125D01*
X221295581Y-183347929D01*
X221238788Y-183372859D01*
X221230361Y-183376298D01*
X221182148Y-183394516D01*
X221182145Y-183394518D01*
X221172331Y-183398226D01*
X221163686Y-183404168D01*
X221156535Y-183407906D01*
X221149580Y-183412019D01*
X221139978Y-183416234D01*
X221131661Y-183422616D01*
X221131652Y-183422621D01*
X221090759Y-183453999D01*
X221083398Y-183459348D01*
X221032283Y-183494479D01*
X221025306Y-183502310D01*
X221025300Y-183502315D01*
X220992156Y-183539515D01*
X220985279Y-183546801D01*
X215149982Y-189382098D01*
X215141330Y-189390181D01*
X215099406Y-189426753D01*
X215063736Y-189477505D01*
X215058331Y-189484783D01*
X215020038Y-189533621D01*
X215015719Y-189543185D01*
X215011541Y-189550085D01*
X215007727Y-189557199D01*
X215001692Y-189565785D01*
X214997882Y-189575558D01*
X214997880Y-189575561D01*
X214979162Y-189623571D01*
X214975632Y-189631968D01*
X214954425Y-189678936D01*
X214954423Y-189678942D01*
X214950107Y-189688501D01*
X214948195Y-189698818D01*
X214945777Y-189706534D01*
X214943773Y-189714340D01*
X214939963Y-189724112D01*
X214938594Y-189734512D01*
X214931869Y-189785592D01*
X214930444Y-189794590D01*
X214921051Y-189845272D01*
X214919139Y-189855591D01*
X214919743Y-189866066D01*
X214922611Y-189915808D01*
X214922900Y-189925824D01*
X214922900Y-232844670D01*
X214922497Y-232856503D01*
X214918713Y-232912015D01*
X214920517Y-232922351D01*
X214920517Y-232922352D01*
X214929374Y-232973099D01*
X214930704Y-232982106D01*
X214938158Y-233043704D01*
X214941866Y-233053518D01*
X214943792Y-233061359D01*
X214946126Y-233069088D01*
X214947929Y-233079420D01*
X214952146Y-233089026D01*
X214972861Y-233136217D01*
X214976303Y-233144650D01*
X214998226Y-233202669D01*
X215004171Y-233211319D01*
X215007908Y-233218468D01*
X215012016Y-233225415D01*
X215016234Y-233235023D01*
X215022619Y-233243344D01*
X215022620Y-233243346D01*
X215053996Y-233284236D01*
X215059340Y-233291590D01*
X215094479Y-233342717D01*
X215102311Y-233349695D01*
X215139524Y-233382851D01*
X215146810Y-233389729D01*
X224807091Y-243050010D01*
X224815174Y-243058663D01*
X224851753Y-243100594D01*
X224902494Y-243136255D01*
X224909798Y-243141680D01*
X224958621Y-243179963D01*
X224968188Y-243184282D01*
X224975078Y-243188455D01*
X224982200Y-243192274D01*
X224990785Y-243198308D01*
X225000557Y-243202118D01*
X225000559Y-243202119D01*
X225048580Y-243220841D01*
X225056978Y-243224372D01*
X225113501Y-243249893D01*
X225123816Y-243251805D01*
X225131523Y-243254220D01*
X225139339Y-243256227D01*
X225149112Y-243260037D01*
X225210600Y-243268132D01*
X225219590Y-243269556D01*
X225270272Y-243278949D01*
X225270276Y-243278949D01*
X225280591Y-243280861D01*
X225340831Y-243277388D01*
X225350847Y-243277100D01*
X245009222Y-243277100D01*
X245090084Y-243297031D01*
X245152421Y-243352257D01*
X245181953Y-243430127D01*
X245182237Y-243469590D01*
X245169963Y-243584440D01*
X245170374Y-243591568D01*
X245170374Y-243591570D01*
X245172281Y-243624633D01*
X245183694Y-243822562D01*
X245236131Y-244055245D01*
X245238817Y-244061860D01*
X245238818Y-244061863D01*
X245279563Y-244162205D01*
X245325867Y-244276239D01*
X245329593Y-244282320D01*
X245329597Y-244282327D01*
X245379167Y-244363217D01*
X245450493Y-244479609D01*
X245606660Y-244659894D01*
X245790176Y-244812252D01*
X245796340Y-244815854D01*
X245796343Y-244815856D01*
X245882228Y-244866043D01*
X245996112Y-244932591D01*
X246218937Y-245017680D01*
X246225930Y-245019103D01*
X246225931Y-245019103D01*
X246445671Y-245063810D01*
X246445673Y-245063810D01*
X246452666Y-245065233D01*
X246459796Y-245065494D01*
X246459801Y-245065495D01*
X246577552Y-245069812D01*
X246691025Y-245073973D01*
X246927609Y-245043665D01*
X247014223Y-245017680D01*
X247149232Y-244977176D01*
X247149233Y-244977175D01*
X247156068Y-244975125D01*
X247370264Y-244870191D01*
X247564445Y-244731683D01*
X247733397Y-244563320D01*
X247872582Y-244369623D01*
X247978263Y-244155795D01*
X248047600Y-243927577D01*
X248078733Y-243691099D01*
X248080471Y-243620000D01*
X248060927Y-243382284D01*
X248002821Y-243150952D01*
X247999976Y-243144409D01*
X247999974Y-243144403D01*
X247910560Y-242938766D01*
X247907712Y-242932216D01*
X247778155Y-242731951D01*
X247617629Y-242555536D01*
X247532181Y-242488053D01*
X247481075Y-242422295D01*
X247466383Y-242340320D01*
X247491469Y-242260906D01*
X247538980Y-242209847D01*
X247564445Y-242191683D01*
X247733397Y-242023320D01*
X247872582Y-241829623D01*
X247978263Y-241615795D01*
X248047600Y-241387577D01*
X248078733Y-241151099D01*
X248080471Y-241080000D01*
X248060927Y-240842284D01*
X248002821Y-240610952D01*
X247999976Y-240604409D01*
X247999974Y-240604403D01*
X247910560Y-240398766D01*
X247907712Y-240392216D01*
X247778155Y-240191951D01*
X247617629Y-240015536D01*
X247532181Y-239948053D01*
X247481075Y-239882295D01*
X247466383Y-239800320D01*
X247491469Y-239720906D01*
X247538981Y-239669847D01*
X247564445Y-239651683D01*
X247733397Y-239483320D01*
X247872582Y-239289623D01*
X247978263Y-239075795D01*
X248047600Y-238847577D01*
X248078733Y-238611099D01*
X248079474Y-238580799D01*
X248080358Y-238544633D01*
X248080358Y-238544628D01*
X248080471Y-238540000D01*
X248060927Y-238302284D01*
X248002821Y-238070952D01*
X247999976Y-238064409D01*
X247999974Y-238064403D01*
X247910560Y-237858766D01*
X247907712Y-237852216D01*
X247778155Y-237651951D01*
X247756734Y-237628409D01*
X247717053Y-237555189D01*
X247715945Y-237471914D01*
X247753664Y-237397663D01*
X247779504Y-237373260D01*
X247894231Y-237285227D01*
X247903282Y-237278282D01*
X247999536Y-237152841D01*
X248060044Y-237006762D01*
X248075500Y-236889361D01*
X248075499Y-235110640D01*
X248060044Y-234993238D01*
X247999536Y-234847159D01*
X247903282Y-234721718D01*
X247777841Y-234625464D01*
X247716100Y-234599890D01*
X247642303Y-234569322D01*
X247642301Y-234569322D01*
X247631762Y-234564956D01*
X247514361Y-234549500D01*
X247419828Y-234549500D01*
X246242870Y-234549501D01*
X246162008Y-234529570D01*
X246111749Y-234489883D01*
X246105145Y-234482312D01*
X246105140Y-234482307D01*
X246098247Y-234474406D01*
X246047495Y-234438736D01*
X246040217Y-234433331D01*
X245991379Y-234395038D01*
X245981815Y-234390719D01*
X245974915Y-234386541D01*
X245967801Y-234382727D01*
X245959215Y-234376692D01*
X245949442Y-234372882D01*
X245949439Y-234372880D01*
X245901429Y-234354162D01*
X245893032Y-234350632D01*
X245846064Y-234329425D01*
X245846058Y-234329423D01*
X245836499Y-234325107D01*
X245826182Y-234323195D01*
X245818466Y-234320777D01*
X245810660Y-234318773D01*
X245800888Y-234314963D01*
X245739400Y-234306868D01*
X245730410Y-234305444D01*
X245679728Y-234296051D01*
X245679724Y-234296051D01*
X245669409Y-234294139D01*
X245658934Y-234294743D01*
X245609192Y-234297611D01*
X245599176Y-234297900D01*
X238762137Y-234297900D01*
X238681275Y-234277969D01*
X238660230Y-234264897D01*
X238659964Y-234264744D01*
X238652593Y-234259388D01*
X238644265Y-234255680D01*
X238644263Y-234255679D01*
X238497595Y-234190379D01*
X238497596Y-234190379D01*
X238489267Y-234186671D01*
X238480352Y-234184776D01*
X238323308Y-234151395D01*
X238323305Y-234151395D01*
X238314391Y-234149500D01*
X238135609Y-234149500D01*
X238126695Y-234151395D01*
X238126692Y-234151395D01*
X237969648Y-234184776D01*
X237960733Y-234186671D01*
X237952404Y-234190379D01*
X237952405Y-234190379D01*
X237805738Y-234255679D01*
X237805736Y-234255680D01*
X237797408Y-234259388D01*
X237652770Y-234364474D01*
X237533141Y-234497335D01*
X237528581Y-234505232D01*
X237528581Y-234505233D01*
X237503024Y-234549500D01*
X237443750Y-234652165D01*
X237388503Y-234822197D01*
X237369815Y-235000000D01*
X237388503Y-235177803D01*
X237443750Y-235347835D01*
X237533141Y-235502665D01*
X237652770Y-235635526D01*
X237797407Y-235740612D01*
X237805737Y-235744321D01*
X237805741Y-235744323D01*
X237879713Y-235777257D01*
X237960733Y-235813329D01*
X237969647Y-235815224D01*
X237969648Y-235815224D01*
X238126692Y-235848605D01*
X238126695Y-235848605D01*
X238135609Y-235850500D01*
X238314391Y-235850500D01*
X238323305Y-235848605D01*
X238323308Y-235848605D01*
X238480352Y-235815224D01*
X238480353Y-235815224D01*
X238489267Y-235813329D01*
X238570287Y-235777257D01*
X238644263Y-235744321D01*
X238644265Y-235744320D01*
X238652593Y-235740612D01*
X238659968Y-235735253D01*
X238667869Y-235730692D01*
X238668513Y-235731808D01*
X238737000Y-235703925D01*
X238762137Y-235702100D01*
X245000500Y-235702100D01*
X245081362Y-235722031D01*
X245143699Y-235777257D01*
X245173231Y-235855127D01*
X245174500Y-235876100D01*
X245174501Y-236889360D01*
X245175244Y-236895001D01*
X245175244Y-236895007D01*
X245182371Y-236949144D01*
X245189956Y-237006762D01*
X245250464Y-237152841D01*
X245346718Y-237278282D01*
X245468934Y-237372062D01*
X245520952Y-237437097D01*
X245536789Y-237518860D01*
X245512814Y-237598616D01*
X245498515Y-237619199D01*
X245493887Y-237624042D01*
X245489865Y-237629938D01*
X245489861Y-237629943D01*
X245408135Y-237749749D01*
X245359475Y-237821082D01*
X245345023Y-237852216D01*
X245293173Y-237963919D01*
X245259051Y-238037428D01*
X245257146Y-238044298D01*
X245257145Y-238044300D01*
X245247835Y-238077873D01*
X245195309Y-238267272D01*
X245169963Y-238504440D01*
X245170374Y-238511568D01*
X245170374Y-238511570D01*
X245172281Y-238544633D01*
X245183694Y-238742562D01*
X245236131Y-238975245D01*
X245238817Y-238981860D01*
X245238818Y-238981863D01*
X245279563Y-239082205D01*
X245325867Y-239196239D01*
X245329593Y-239202320D01*
X245329597Y-239202327D01*
X245379167Y-239283217D01*
X245450493Y-239399609D01*
X245606660Y-239579894D01*
X245612149Y-239584451D01*
X245612150Y-239584452D01*
X245722250Y-239675859D01*
X245771734Y-239742845D01*
X245784419Y-239825155D01*
X245757400Y-239903933D01*
X245715578Y-239948877D01*
X245658675Y-239991602D01*
X245653742Y-239996764D01*
X245653741Y-239996765D01*
X245498818Y-240158882D01*
X245493887Y-240164042D01*
X245489865Y-240169938D01*
X245403220Y-240296954D01*
X245341187Y-240352522D01*
X245259479Y-240372900D01*
X225912894Y-240372900D01*
X225832032Y-240352969D01*
X225789857Y-240321937D01*
X217628063Y-232160143D01*
X217584979Y-232088872D01*
X217577100Y-232037106D01*
X217577100Y-190687893D01*
X217597031Y-190607031D01*
X217628063Y-190564856D01*
X220864857Y-187328063D01*
X220936128Y-187284979D01*
X220987894Y-187277100D01*
X223171959Y-187277100D01*
X223252821Y-187297031D01*
X223315158Y-187352257D01*
X223344690Y-187430127D01*
X223339631Y-187497600D01*
X223320309Y-187567272D01*
X223294963Y-187804440D01*
X223308694Y-188042562D01*
X223361131Y-188275245D01*
X223363817Y-188281860D01*
X223363818Y-188281863D01*
X223412216Y-188401053D01*
X223425000Y-188466516D01*
X223425000Y-189750795D01*
X223408826Y-189824055D01*
X223384051Y-189877428D01*
X223382146Y-189884298D01*
X223382145Y-189884300D01*
X223376568Y-189904412D01*
X223320309Y-190107272D01*
X223294963Y-190344440D01*
X223295374Y-190351568D01*
X223295374Y-190351570D01*
X223297281Y-190384633D01*
X223308694Y-190582562D01*
X223310264Y-190589527D01*
X223310264Y-190589530D01*
X223343193Y-190735647D01*
X223341527Y-190818912D01*
X223301357Y-190891866D01*
X223231884Y-190937795D01*
X223173450Y-190947900D01*
X222955325Y-190947900D01*
X222943493Y-190947497D01*
X222887985Y-190943713D01*
X222826889Y-190954376D01*
X222817894Y-190955704D01*
X222756296Y-190963158D01*
X222746482Y-190966866D01*
X222738641Y-190968792D01*
X222730912Y-190971126D01*
X222720580Y-190972929D01*
X222692885Y-190985086D01*
X222663783Y-190997861D01*
X222655350Y-191001303D01*
X222597331Y-191023226D01*
X222588681Y-191029171D01*
X222581532Y-191032908D01*
X222574585Y-191037016D01*
X222564977Y-191041234D01*
X222556656Y-191047619D01*
X222556654Y-191047620D01*
X222515764Y-191078996D01*
X222508410Y-191084340D01*
X222457283Y-191119479D01*
X222450304Y-191127311D01*
X222450305Y-191127311D01*
X222417149Y-191164524D01*
X222410271Y-191171810D01*
X219549982Y-194032098D01*
X219541330Y-194040181D01*
X219499406Y-194076753D01*
X219463736Y-194127505D01*
X219458331Y-194134783D01*
X219420038Y-194183621D01*
X219415719Y-194193185D01*
X219411541Y-194200085D01*
X219407727Y-194207199D01*
X219401692Y-194215785D01*
X219397882Y-194225558D01*
X219397880Y-194225561D01*
X219379162Y-194273571D01*
X219375632Y-194281968D01*
X219354425Y-194328936D01*
X219354423Y-194328942D01*
X219350107Y-194338501D01*
X219348195Y-194348818D01*
X219345777Y-194356534D01*
X219343773Y-194364340D01*
X219339963Y-194374112D01*
X219338594Y-194384512D01*
X219331869Y-194435592D01*
X219330444Y-194444590D01*
X219319139Y-194505591D01*
X219319743Y-194516066D01*
X219322611Y-194565808D01*
X219322900Y-194575824D01*
X219322900Y-222769670D01*
X219322497Y-222781503D01*
X219318713Y-222837015D01*
X219320517Y-222847351D01*
X219320517Y-222847352D01*
X219329374Y-222898099D01*
X219330704Y-222907106D01*
X219338158Y-222968704D01*
X219341866Y-222978518D01*
X219343792Y-222986359D01*
X219346126Y-222994088D01*
X219347929Y-223004420D01*
X219352146Y-223014026D01*
X219372861Y-223061217D01*
X219376303Y-223069650D01*
X219398226Y-223127669D01*
X219404171Y-223136319D01*
X219407908Y-223143468D01*
X219412016Y-223150415D01*
X219416234Y-223160023D01*
X219422619Y-223168344D01*
X219422620Y-223168346D01*
X219453996Y-223209236D01*
X219459340Y-223216590D01*
X219494479Y-223267717D01*
X219502311Y-223274695D01*
X219539524Y-223307851D01*
X219546810Y-223314729D01*
X221907091Y-225675010D01*
X221915174Y-225683663D01*
X221951753Y-225725594D01*
X222002494Y-225761255D01*
X222009798Y-225766680D01*
X222050362Y-225798487D01*
X222058621Y-225804963D01*
X222068188Y-225809282D01*
X222075078Y-225813455D01*
X222082200Y-225817274D01*
X222090785Y-225823308D01*
X222100557Y-225827118D01*
X222100559Y-225827119D01*
X222148580Y-225845841D01*
X222156978Y-225849372D01*
X222213501Y-225874893D01*
X222223816Y-225876805D01*
X222231523Y-225879220D01*
X222239339Y-225881227D01*
X222249112Y-225885037D01*
X222310600Y-225893132D01*
X222319590Y-225894556D01*
X222370272Y-225903949D01*
X222370276Y-225903949D01*
X222380591Y-225905861D01*
X222440831Y-225902388D01*
X222450847Y-225902100D01*
X236594670Y-225902100D01*
X236606503Y-225902503D01*
X236662015Y-225906287D01*
X236675412Y-225903949D01*
X236683697Y-225902503D01*
X236723111Y-225895624D01*
X236732106Y-225894296D01*
X236793704Y-225886842D01*
X236803518Y-225883134D01*
X236811359Y-225881208D01*
X236819088Y-225878874D01*
X236829420Y-225877071D01*
X236857115Y-225864914D01*
X236886217Y-225852139D01*
X236894651Y-225848697D01*
X236952669Y-225826774D01*
X236961319Y-225820829D01*
X236968468Y-225817092D01*
X236975415Y-225812984D01*
X236985023Y-225808766D01*
X236993344Y-225802381D01*
X236993346Y-225802380D01*
X237034236Y-225771004D01*
X237041590Y-225765660D01*
X237092717Y-225730521D01*
X237132859Y-225685467D01*
X237139738Y-225678181D01*
X237464857Y-225353063D01*
X237536128Y-225309978D01*
X237587893Y-225302100D01*
X243762863Y-225302100D01*
X243843725Y-225322031D01*
X243864770Y-225335103D01*
X243865036Y-225335256D01*
X243872407Y-225340612D01*
X243880735Y-225344320D01*
X243880737Y-225344321D01*
X243963410Y-225381129D01*
X244035733Y-225413329D01*
X244044647Y-225415224D01*
X244044648Y-225415224D01*
X244201692Y-225448605D01*
X244201695Y-225448605D01*
X244210609Y-225450500D01*
X244389391Y-225450500D01*
X244398305Y-225448605D01*
X244398308Y-225448605D01*
X244555352Y-225415224D01*
X244555353Y-225415224D01*
X244564267Y-225413329D01*
X244636590Y-225381129D01*
X244719259Y-225344323D01*
X244719263Y-225344321D01*
X244727593Y-225340612D01*
X244735176Y-225335103D01*
X244798490Y-225289102D01*
X244872230Y-225235526D01*
X244991859Y-225102665D01*
X245018918Y-225055797D01*
X245076688Y-224955737D01*
X245076689Y-224955735D01*
X245081250Y-224947835D01*
X245136497Y-224777803D01*
X245155185Y-224600000D01*
X245136497Y-224422197D01*
X245081250Y-224252165D01*
X245041178Y-224182758D01*
X245018008Y-224102768D01*
X245026383Y-224041994D01*
X245071330Y-223903661D01*
X245090018Y-223725858D01*
X245071330Y-223548055D01*
X245016083Y-223378023D01*
X245010772Y-223368823D01*
X244931252Y-223231091D01*
X244931252Y-223231090D01*
X244926692Y-223223193D01*
X244917377Y-223212847D01*
X244881701Y-223173226D01*
X244807063Y-223090332D01*
X244699893Y-223012468D01*
X244669809Y-222990610D01*
X244669808Y-222990610D01*
X244662426Y-222985246D01*
X244654096Y-222981537D01*
X244654092Y-222981535D01*
X244507428Y-222916237D01*
X244507429Y-222916237D01*
X244499100Y-222912529D01*
X244490185Y-222910634D01*
X244333141Y-222877253D01*
X244333138Y-222877253D01*
X244324224Y-222875358D01*
X244145442Y-222875358D01*
X244136528Y-222877253D01*
X244136525Y-222877253D01*
X243979481Y-222910634D01*
X243970566Y-222912529D01*
X243962237Y-222916237D01*
X243962238Y-222916237D01*
X243815571Y-222981537D01*
X243815569Y-222981538D01*
X243807241Y-222985246D01*
X243799865Y-222990605D01*
X243697925Y-223064669D01*
X243620791Y-223096074D01*
X243595650Y-223097900D01*
X236767825Y-223097900D01*
X236755993Y-223097497D01*
X236700485Y-223093713D01*
X236639389Y-223104376D01*
X236630394Y-223105704D01*
X236568796Y-223113158D01*
X236558982Y-223116866D01*
X236551141Y-223118792D01*
X236543412Y-223121126D01*
X236533080Y-223122929D01*
X236508589Y-223133680D01*
X236476283Y-223147861D01*
X236467850Y-223151303D01*
X236409831Y-223173226D01*
X236401181Y-223179171D01*
X236394032Y-223182908D01*
X236387085Y-223187016D01*
X236377477Y-223191234D01*
X236369156Y-223197619D01*
X236369154Y-223197620D01*
X236328264Y-223228996D01*
X236320910Y-223234340D01*
X236269783Y-223269479D01*
X236262804Y-223277311D01*
X236262805Y-223277311D01*
X236229641Y-223314533D01*
X236222762Y-223321819D01*
X235897643Y-223646937D01*
X235826372Y-223690022D01*
X235774607Y-223697900D01*
X223337893Y-223697900D01*
X223257031Y-223677969D01*
X223214856Y-223646937D01*
X221828063Y-222260143D01*
X221784979Y-222188871D01*
X221777100Y-222137106D01*
X221777100Y-196312893D01*
X221797031Y-196232031D01*
X221828063Y-196189856D01*
X223040888Y-194977031D01*
X223112159Y-194933947D01*
X223195289Y-194928918D01*
X223271234Y-194963098D01*
X223322596Y-195028656D01*
X223337608Y-195110574D01*
X223331597Y-195146567D01*
X223322216Y-195180394D01*
X223320309Y-195187272D01*
X223294963Y-195424440D01*
X223308694Y-195662562D01*
X223361131Y-195895245D01*
X223363817Y-195901860D01*
X223363818Y-195901863D01*
X223412216Y-196021053D01*
X223425000Y-196086516D01*
X223425000Y-197370795D01*
X223408826Y-197444055D01*
X223391069Y-197482310D01*
X223384051Y-197497428D01*
X223382146Y-197504298D01*
X223382145Y-197504300D01*
X223376410Y-197524982D01*
X223320309Y-197727272D01*
X223294963Y-197964440D01*
X223308694Y-198202562D01*
X223310264Y-198209527D01*
X223310264Y-198209530D01*
X223331508Y-198303796D01*
X223361131Y-198435245D01*
X223363817Y-198441860D01*
X223363818Y-198441863D01*
X223412216Y-198561053D01*
X223425000Y-198626516D01*
X223425000Y-199910795D01*
X223408826Y-199984055D01*
X223384051Y-200037428D01*
X223382146Y-200044298D01*
X223382145Y-200044300D01*
X223376568Y-200064412D01*
X223320309Y-200267272D01*
X223294963Y-200504440D01*
X223295374Y-200511568D01*
X223295374Y-200511570D01*
X223297281Y-200544633D01*
X223308694Y-200742562D01*
X223361131Y-200975245D01*
X223363817Y-200981860D01*
X223363818Y-200981863D01*
X223412216Y-201101053D01*
X223425000Y-201166516D01*
X223425000Y-201400000D01*
X223496352Y-201400000D01*
X223577214Y-201419931D01*
X223627869Y-201460073D01*
X223731660Y-201579894D01*
X223915176Y-201732252D01*
X223921340Y-201735854D01*
X223921343Y-201735856D01*
X224014327Y-201790191D01*
X224121112Y-201852591D01*
X224343937Y-201937680D01*
X224350930Y-201939103D01*
X224350931Y-201939103D01*
X224570671Y-201983810D01*
X224570673Y-201983810D01*
X224577666Y-201985233D01*
X224584796Y-201985494D01*
X224584801Y-201985495D01*
X224702552Y-201989812D01*
X224816025Y-201993973D01*
X225052609Y-201963665D01*
X225142586Y-201936671D01*
X225274232Y-201897176D01*
X225274233Y-201897175D01*
X225281068Y-201895125D01*
X225287476Y-201891986D01*
X225287483Y-201891983D01*
X225374450Y-201849378D01*
X225455834Y-201831701D01*
X225536111Y-201853871D01*
X225596890Y-201910807D01*
X225624247Y-201989468D01*
X225625000Y-202005634D01*
X225625000Y-204151299D01*
X225605069Y-204232161D01*
X225549843Y-204294498D01*
X225471973Y-204324030D01*
X225389299Y-204313992D01*
X225366909Y-204303630D01*
X225352884Y-204295888D01*
X225346631Y-204292436D01*
X225300325Y-204276038D01*
X225128519Y-204215198D01*
X225128514Y-204215197D01*
X225121794Y-204212817D01*
X225114767Y-204211565D01*
X225114766Y-204211565D01*
X224894001Y-204172240D01*
X224894000Y-204172240D01*
X224886972Y-204170988D01*
X224774581Y-204169615D01*
X224655609Y-204168161D01*
X224655606Y-204168161D01*
X224648471Y-204168074D01*
X224412698Y-204204153D01*
X224405921Y-204206368D01*
X224405917Y-204206369D01*
X224192764Y-204276038D01*
X224192761Y-204276039D01*
X224185982Y-204278255D01*
X223974414Y-204388390D01*
X223968710Y-204392673D01*
X223968708Y-204392674D01*
X223875526Y-204462638D01*
X223783675Y-204531602D01*
X223618887Y-204704042D01*
X223484475Y-204901082D01*
X223481467Y-204907561D01*
X223481467Y-204907562D01*
X223463288Y-204946724D01*
X223449648Y-204966240D01*
X223450870Y-204966979D01*
X223439939Y-204985061D01*
X223425000Y-205000000D01*
X223425000Y-205012829D01*
X223410910Y-205059565D01*
X223387056Y-205110953D01*
X223387054Y-205110959D01*
X223384051Y-205117428D01*
X223382146Y-205124298D01*
X223382145Y-205124300D01*
X223376568Y-205144412D01*
X223320309Y-205347272D01*
X223294963Y-205584440D01*
X223295374Y-205591568D01*
X223295374Y-205591570D01*
X223297281Y-205624633D01*
X223308694Y-205822562D01*
X223361131Y-206055245D01*
X223363817Y-206061860D01*
X223363818Y-206061863D01*
X223412216Y-206181053D01*
X223425000Y-206246516D01*
X223425000Y-207530795D01*
X223408826Y-207604055D01*
X223384051Y-207657428D01*
X223320309Y-207887272D01*
X223294963Y-208124440D01*
X223308694Y-208362562D01*
X223361131Y-208595245D01*
X223363817Y-208601860D01*
X223363818Y-208601863D01*
X223412216Y-208721053D01*
X223425000Y-208786516D01*
X223425000Y-210070795D01*
X223408826Y-210144055D01*
X223391069Y-210182310D01*
X223384051Y-210197428D01*
X223382146Y-210204298D01*
X223382145Y-210204300D01*
X223345599Y-210336081D01*
X223320309Y-210427272D01*
X223294963Y-210664440D01*
X223308694Y-210902562D01*
X223310264Y-210909527D01*
X223310264Y-210909530D01*
X223325367Y-210976545D01*
X223361131Y-211135245D01*
X223363817Y-211141860D01*
X223363818Y-211141863D01*
X223412216Y-211261053D01*
X223425000Y-211326516D01*
X223425000Y-212610795D01*
X223408826Y-212684055D01*
X223384051Y-212737428D01*
X223382146Y-212744298D01*
X223382145Y-212744300D01*
X223354423Y-212844263D01*
X223320309Y-212967272D01*
X223294963Y-213204440D01*
X223308694Y-213442562D01*
X223361131Y-213675245D01*
X223363817Y-213681860D01*
X223363818Y-213681863D01*
X223412216Y-213801053D01*
X223425000Y-213866516D01*
X223425000Y-215150795D01*
X223408826Y-215224055D01*
X223388488Y-215267870D01*
X223384051Y-215277428D01*
X223382146Y-215284298D01*
X223382145Y-215284300D01*
X223325608Y-215488166D01*
X223320309Y-215507272D01*
X223294963Y-215744440D01*
X223295374Y-215751568D01*
X223295374Y-215751570D01*
X223297181Y-215782912D01*
X223308694Y-215982562D01*
X223310264Y-215989527D01*
X223310264Y-215989530D01*
X223312563Y-215999732D01*
X223361131Y-216215245D01*
X223363817Y-216221860D01*
X223363818Y-216221863D01*
X223412216Y-216341053D01*
X223425000Y-216406516D01*
X223425000Y-217690795D01*
X223408826Y-217764055D01*
X223399208Y-217784776D01*
X223384051Y-217817428D01*
X223382146Y-217824298D01*
X223382145Y-217824300D01*
X223373444Y-217855677D01*
X223320309Y-218047272D01*
X223294963Y-218284440D01*
X223308694Y-218522562D01*
X223361131Y-218755245D01*
X223363817Y-218761860D01*
X223363818Y-218761863D01*
X223412216Y-218881053D01*
X223425000Y-218946516D01*
X223425000Y-219200000D01*
X223513675Y-219200000D01*
X223594537Y-219219931D01*
X223645193Y-219260075D01*
X223726984Y-219354497D01*
X223726991Y-219354503D01*
X223731660Y-219359894D01*
X223915176Y-219512252D01*
X223921340Y-219515854D01*
X223921343Y-219515856D01*
X223970406Y-219544526D01*
X224121112Y-219632591D01*
X224343937Y-219717680D01*
X224350930Y-219719103D01*
X224350931Y-219719103D01*
X224570671Y-219763810D01*
X224570673Y-219763810D01*
X224577666Y-219765233D01*
X224584796Y-219765494D01*
X224584801Y-219765495D01*
X224702552Y-219769812D01*
X224816025Y-219773973D01*
X225052609Y-219743665D01*
X225139223Y-219717680D01*
X225274232Y-219677176D01*
X225274233Y-219677175D01*
X225281068Y-219675125D01*
X225417474Y-219608300D01*
X225498859Y-219590624D01*
X225579135Y-219612794D01*
X225624073Y-219648958D01*
X225961344Y-220028387D01*
X226000169Y-220102065D01*
X226000308Y-220185346D01*
X225989121Y-220217246D01*
X225938798Y-220325659D01*
X225924051Y-220357428D01*
X225922146Y-220364298D01*
X225922145Y-220364300D01*
X225916568Y-220384412D01*
X225860309Y-220587272D01*
X225834963Y-220824440D01*
X225835374Y-220831568D01*
X225835374Y-220831570D01*
X225837281Y-220864633D01*
X225848694Y-221062562D01*
X225901131Y-221295245D01*
X225903817Y-221301860D01*
X225903818Y-221301863D01*
X225956965Y-221432747D01*
X225990867Y-221516239D01*
X225994598Y-221522327D01*
X226008023Y-221544235D01*
X226025000Y-221584873D01*
X226025000Y-221600000D01*
X226031756Y-221600000D01*
X226055489Y-221626789D01*
X226073607Y-221651258D01*
X226115493Y-221719609D01*
X226271660Y-221899894D01*
X226455176Y-222052252D01*
X226461340Y-222055854D01*
X226461343Y-222055856D01*
X226547228Y-222106043D01*
X226661112Y-222172591D01*
X226883937Y-222257680D01*
X226890930Y-222259103D01*
X226890931Y-222259103D01*
X227110671Y-222303810D01*
X227110673Y-222303810D01*
X227117666Y-222305233D01*
X227124796Y-222305494D01*
X227124801Y-222305495D01*
X227242552Y-222309812D01*
X227356025Y-222313973D01*
X227592609Y-222283665D01*
X227679223Y-222257680D01*
X227814232Y-222217176D01*
X227814233Y-222217175D01*
X227821068Y-222215125D01*
X228035264Y-222110191D01*
X228229445Y-221971683D01*
X228398397Y-221803320D01*
X228494306Y-221669848D01*
X228557677Y-221615813D01*
X228593967Y-221602441D01*
X228603870Y-221600000D01*
X228625000Y-221600000D01*
X228625000Y-221473398D01*
X228639860Y-221409778D01*
X228637471Y-221408832D01*
X228640095Y-221402205D01*
X228643263Y-221395795D01*
X228712600Y-221167577D01*
X228743733Y-220931099D01*
X228745471Y-220860000D01*
X228725927Y-220622284D01*
X228667821Y-220390952D01*
X228639431Y-220325659D01*
X228625000Y-220256277D01*
X228625000Y-219476100D01*
X228644931Y-219395238D01*
X228700157Y-219332901D01*
X228778027Y-219303369D01*
X228799000Y-219302100D01*
X231792863Y-219302100D01*
X231873725Y-219322031D01*
X231894770Y-219335103D01*
X231895036Y-219335256D01*
X231902407Y-219340612D01*
X231910735Y-219344320D01*
X231910737Y-219344321D01*
X231933593Y-219354497D01*
X232065733Y-219413329D01*
X232074647Y-219415224D01*
X232074648Y-219415224D01*
X232231692Y-219448605D01*
X232231695Y-219448605D01*
X232240609Y-219450500D01*
X232419391Y-219450500D01*
X232428305Y-219448605D01*
X232428308Y-219448605D01*
X232585352Y-219415224D01*
X232585353Y-219415224D01*
X232594267Y-219413329D01*
X232638418Y-219393672D01*
X232749259Y-219344323D01*
X232749263Y-219344321D01*
X232757593Y-219340612D01*
X232765176Y-219335103D01*
X232810600Y-219302100D01*
X232902230Y-219235526D01*
X233021859Y-219102665D01*
X233111250Y-218947835D01*
X233122720Y-218912536D01*
X233132949Y-218881053D01*
X233166497Y-218777803D01*
X233185185Y-218600000D01*
X233166497Y-218422197D01*
X233111250Y-218252165D01*
X233021859Y-218097335D01*
X232902230Y-217964474D01*
X232757593Y-217859388D01*
X232749263Y-217855679D01*
X232749259Y-217855677D01*
X232602595Y-217790379D01*
X232602596Y-217790379D01*
X232594267Y-217786671D01*
X232585352Y-217784776D01*
X232428308Y-217751395D01*
X232428305Y-217751395D01*
X232419391Y-217749500D01*
X232240609Y-217749500D01*
X232231695Y-217751395D01*
X232231692Y-217751395D01*
X232074648Y-217784776D01*
X232065733Y-217786671D01*
X232057404Y-217790379D01*
X232057405Y-217790379D01*
X231910738Y-217855679D01*
X231910736Y-217855680D01*
X231902408Y-217859388D01*
X231895033Y-217864747D01*
X231887132Y-217869308D01*
X231886488Y-217868192D01*
X231818001Y-217896075D01*
X231792864Y-217897900D01*
X228802314Y-217897900D01*
X228721452Y-217877969D01*
X228659115Y-217822743D01*
X228642741Y-217793272D01*
X228639427Y-217785649D01*
X228625000Y-217716277D01*
X228625000Y-216656100D01*
X228644931Y-216575238D01*
X228700157Y-216512901D01*
X228778027Y-216483369D01*
X228799000Y-216482100D01*
X237707863Y-216482100D01*
X237788725Y-216502031D01*
X237809770Y-216515103D01*
X237810036Y-216515256D01*
X237817407Y-216520612D01*
X237825735Y-216524320D01*
X237825737Y-216524321D01*
X237918044Y-216565418D01*
X237980733Y-216593329D01*
X237989647Y-216595224D01*
X237989648Y-216595224D01*
X238146692Y-216628605D01*
X238146695Y-216628605D01*
X238155609Y-216630500D01*
X238334391Y-216630500D01*
X238343305Y-216628605D01*
X238343308Y-216628605D01*
X238500352Y-216595224D01*
X238500353Y-216595224D01*
X238509267Y-216593329D01*
X238553418Y-216573672D01*
X238664259Y-216524323D01*
X238664263Y-216524321D01*
X238672593Y-216520612D01*
X238680176Y-216515103D01*
X238725600Y-216482100D01*
X238817230Y-216415526D01*
X238936859Y-216282665D01*
X238959955Y-216242662D01*
X239021688Y-216135737D01*
X239021689Y-216135735D01*
X239026250Y-216127835D01*
X239081497Y-215957803D01*
X239099879Y-215782912D01*
X239128153Y-215704576D01*
X239189593Y-215648353D01*
X239272926Y-215627100D01*
X239784637Y-215627100D01*
X239865499Y-215647031D01*
X239886904Y-215660326D01*
X239997407Y-215740612D01*
X240005737Y-215744321D01*
X240005741Y-215744323D01*
X240085874Y-215780000D01*
X240160733Y-215813329D01*
X240169647Y-215815224D01*
X240169648Y-215815224D01*
X240326692Y-215848605D01*
X240326695Y-215848605D01*
X240335609Y-215850500D01*
X240514391Y-215850500D01*
X240523305Y-215848605D01*
X240523308Y-215848605D01*
X240680352Y-215815224D01*
X240680353Y-215815224D01*
X240689267Y-215813329D01*
X240764126Y-215780000D01*
X240844259Y-215744323D01*
X240844263Y-215744321D01*
X240852593Y-215740612D01*
X240997230Y-215635526D01*
X241106323Y-215514366D01*
X241110758Y-215509441D01*
X241110759Y-215509440D01*
X241116859Y-215502665D01*
X241143773Y-215456048D01*
X241201688Y-215355737D01*
X241201689Y-215355735D01*
X241206250Y-215347835D01*
X241261497Y-215177803D01*
X241280185Y-215000000D01*
X241261497Y-214822197D01*
X241206250Y-214652165D01*
X241183118Y-214612098D01*
X241121419Y-214505233D01*
X241121419Y-214505232D01*
X241116859Y-214497335D01*
X241109912Y-214489619D01*
X241077650Y-214453789D01*
X240997230Y-214364474D01*
X240852593Y-214259388D01*
X240844263Y-214255679D01*
X240844259Y-214255677D01*
X240724404Y-214202315D01*
X240689267Y-214186671D01*
X240680352Y-214184776D01*
X240523308Y-214151395D01*
X240523305Y-214151395D01*
X240514391Y-214149500D01*
X240335609Y-214149500D01*
X240326695Y-214151395D01*
X240326692Y-214151395D01*
X240169648Y-214184776D01*
X240160733Y-214186671D01*
X240130558Y-214200106D01*
X240113148Y-214207857D01*
X240042376Y-214222900D01*
X236737893Y-214222900D01*
X236657031Y-214202969D01*
X236614856Y-214171937D01*
X232667902Y-210224982D01*
X232659819Y-210216329D01*
X232649325Y-210204300D01*
X232623247Y-210174406D01*
X232572495Y-210138736D01*
X232565217Y-210133331D01*
X232516379Y-210095038D01*
X232506815Y-210090719D01*
X232499915Y-210086541D01*
X232492801Y-210082727D01*
X232484215Y-210076692D01*
X232474442Y-210072882D01*
X232474439Y-210072880D01*
X232426429Y-210054162D01*
X232418032Y-210050632D01*
X232371064Y-210029425D01*
X232371058Y-210029423D01*
X232361499Y-210025107D01*
X232351182Y-210023195D01*
X232343466Y-210020777D01*
X232335660Y-210018773D01*
X232325888Y-210014963D01*
X232264400Y-210006868D01*
X232255410Y-210005444D01*
X232204728Y-209996051D01*
X232204724Y-209996051D01*
X232194409Y-209994139D01*
X232183934Y-209994743D01*
X232134192Y-209997611D01*
X232124176Y-209997900D01*
X228799000Y-209997900D01*
X228718138Y-209977969D01*
X228655801Y-209922743D01*
X228626269Y-209844873D01*
X228625000Y-209823900D01*
X228625000Y-209800000D01*
X228509205Y-209800000D01*
X228428343Y-209780069D01*
X228380510Y-209743105D01*
X228287439Y-209640822D01*
X228287438Y-209640821D01*
X228282629Y-209635536D01*
X228095445Y-209487707D01*
X227886631Y-209372436D01*
X227840325Y-209356038D01*
X227668519Y-209295198D01*
X227668514Y-209295197D01*
X227661794Y-209292817D01*
X227654767Y-209291565D01*
X227654766Y-209291565D01*
X227434001Y-209252240D01*
X227434000Y-209252240D01*
X227426972Y-209250988D01*
X227314581Y-209249615D01*
X227195609Y-209248161D01*
X227195606Y-209248161D01*
X227188471Y-209248074D01*
X226952698Y-209284153D01*
X226945921Y-209286368D01*
X226945917Y-209286369D01*
X226732764Y-209356038D01*
X226732761Y-209356039D01*
X226725982Y-209358255D01*
X226692109Y-209375888D01*
X226679344Y-209382533D01*
X226598415Y-209402192D01*
X226517621Y-209381990D01*
X226455470Y-209326555D01*
X226426199Y-209248586D01*
X226425000Y-209228193D01*
X226425000Y-207095123D01*
X226444931Y-207014261D01*
X226500157Y-206951924D01*
X226578027Y-206922392D01*
X226660701Y-206932430D01*
X226661107Y-206932605D01*
X226661112Y-206932591D01*
X226874984Y-207014261D01*
X226883937Y-207017680D01*
X226890930Y-207019103D01*
X226890931Y-207019103D01*
X227110671Y-207063810D01*
X227110673Y-207063810D01*
X227117666Y-207065233D01*
X227124796Y-207065494D01*
X227124801Y-207065495D01*
X227242552Y-207069812D01*
X227356025Y-207073973D01*
X227592609Y-207043665D01*
X227679223Y-207017680D01*
X227814232Y-206977176D01*
X227814233Y-206977175D01*
X227821068Y-206975125D01*
X228035264Y-206870191D01*
X228229445Y-206731683D01*
X228310664Y-206650747D01*
X228382007Y-206607788D01*
X228433483Y-206600000D01*
X228625000Y-206600000D01*
X228625000Y-206233398D01*
X228639860Y-206169778D01*
X228637471Y-206168832D01*
X228640095Y-206162205D01*
X228643263Y-206155795D01*
X228712600Y-205927577D01*
X228743733Y-205691099D01*
X228745471Y-205620000D01*
X228725927Y-205382284D01*
X228715271Y-205339857D01*
X228669559Y-205157870D01*
X228669558Y-205157866D01*
X228667821Y-205150952D01*
X228639431Y-205085659D01*
X228625000Y-205016277D01*
X228625000Y-203693398D01*
X228639860Y-203629778D01*
X228637471Y-203628832D01*
X228640095Y-203622205D01*
X228643263Y-203615795D01*
X228712600Y-203387577D01*
X228713763Y-203378747D01*
X228743128Y-203155693D01*
X228743733Y-203151099D01*
X228745471Y-203080000D01*
X228725927Y-202842284D01*
X228667821Y-202610952D01*
X228639431Y-202545659D01*
X228625000Y-202476277D01*
X228625000Y-201153398D01*
X228639860Y-201089778D01*
X228637471Y-201088832D01*
X228640095Y-201082205D01*
X228643263Y-201075795D01*
X228712600Y-200847577D01*
X228743733Y-200611099D01*
X228745471Y-200540000D01*
X228725927Y-200302284D01*
X228667821Y-200070952D01*
X228639431Y-200005659D01*
X228625000Y-199936277D01*
X228625000Y-198876100D01*
X228644931Y-198795238D01*
X228700157Y-198732901D01*
X228778027Y-198703369D01*
X228799000Y-198702100D01*
X234562107Y-198702100D01*
X234642969Y-198722031D01*
X234685144Y-198753063D01*
X239157091Y-203225010D01*
X239165174Y-203233663D01*
X239201753Y-203275594D01*
X239210336Y-203281626D01*
X239252496Y-203311257D01*
X239259810Y-203316689D01*
X239308621Y-203354962D01*
X239318185Y-203359280D01*
X239325083Y-203363458D01*
X239332199Y-203367274D01*
X239340785Y-203373308D01*
X239350558Y-203377118D01*
X239350561Y-203377120D01*
X239398571Y-203395838D01*
X239406968Y-203399368D01*
X239453936Y-203420575D01*
X239453942Y-203420577D01*
X239463501Y-203424893D01*
X239473818Y-203426805D01*
X239481534Y-203429223D01*
X239489340Y-203431227D01*
X239499112Y-203435037D01*
X239560600Y-203443132D01*
X239569590Y-203444556D01*
X239620272Y-203453949D01*
X239620276Y-203453949D01*
X239630591Y-203455861D01*
X239641066Y-203455257D01*
X239690808Y-203452389D01*
X239700824Y-203452100D01*
X241637863Y-203452100D01*
X241718725Y-203472031D01*
X241739770Y-203485103D01*
X241740036Y-203485256D01*
X241747407Y-203490612D01*
X241755735Y-203494320D01*
X241755737Y-203494321D01*
X241848044Y-203535418D01*
X241910733Y-203563329D01*
X241919647Y-203565224D01*
X241919648Y-203565224D01*
X242076692Y-203598605D01*
X242076695Y-203598605D01*
X242085609Y-203600500D01*
X242264391Y-203600500D01*
X242273305Y-203598605D01*
X242273308Y-203598605D01*
X242430352Y-203565224D01*
X242430353Y-203565224D01*
X242439267Y-203563329D01*
X242483418Y-203543672D01*
X242594259Y-203494323D01*
X242594263Y-203494321D01*
X242602593Y-203490612D01*
X242610176Y-203485103D01*
X242665983Y-203444556D01*
X242747230Y-203385526D01*
X242866859Y-203252665D01*
X242956250Y-203097835D01*
X242963546Y-203075382D01*
X242975320Y-203039144D01*
X243011497Y-202927803D01*
X243030185Y-202750000D01*
X243011497Y-202572197D01*
X242956250Y-202402165D01*
X242866859Y-202247335D01*
X242747230Y-202114474D01*
X242602593Y-202009388D01*
X242594263Y-202005679D01*
X242594259Y-202005677D01*
X242447595Y-201940379D01*
X242447596Y-201940379D01*
X242439267Y-201936671D01*
X242430352Y-201934776D01*
X242273308Y-201901395D01*
X242273305Y-201901395D01*
X242264391Y-201899500D01*
X242085609Y-201899500D01*
X242076695Y-201901395D01*
X242076692Y-201901395D01*
X241919648Y-201934776D01*
X241910733Y-201936671D01*
X241902404Y-201940379D01*
X241902405Y-201940379D01*
X241755738Y-202005679D01*
X241755736Y-202005680D01*
X241747408Y-202009388D01*
X241740033Y-202014747D01*
X241732132Y-202019308D01*
X241731488Y-202018192D01*
X241663001Y-202046075D01*
X241637864Y-202047900D01*
X240037893Y-202047900D01*
X239957031Y-202027969D01*
X239914856Y-201996937D01*
X235442902Y-197524982D01*
X235434819Y-197516329D01*
X235424325Y-197504300D01*
X235398247Y-197474406D01*
X235347495Y-197438736D01*
X235340217Y-197433331D01*
X235291379Y-197395038D01*
X235281815Y-197390719D01*
X235274915Y-197386541D01*
X235267801Y-197382727D01*
X235259215Y-197376692D01*
X235249442Y-197372882D01*
X235249439Y-197372880D01*
X235201429Y-197354162D01*
X235193032Y-197350632D01*
X235146064Y-197329425D01*
X235146058Y-197329423D01*
X235136499Y-197325107D01*
X235126182Y-197323195D01*
X235118466Y-197320777D01*
X235110660Y-197318773D01*
X235100888Y-197314963D01*
X235039400Y-197306868D01*
X235030410Y-197305444D01*
X234979728Y-197296051D01*
X234979724Y-197296051D01*
X234969409Y-197294139D01*
X234958934Y-197294743D01*
X234909192Y-197297611D01*
X234899176Y-197297900D01*
X228658122Y-197297900D01*
X228577260Y-197277969D01*
X228512028Y-197218413D01*
X228443155Y-197111951D01*
X228282629Y-196935536D01*
X228095445Y-196787707D01*
X227886631Y-196672436D01*
X227840325Y-196656038D01*
X227668519Y-196595198D01*
X227668514Y-196595197D01*
X227661794Y-196592817D01*
X227654767Y-196591565D01*
X227654766Y-196591565D01*
X227434001Y-196552240D01*
X227434000Y-196552240D01*
X227426972Y-196550988D01*
X227314581Y-196549615D01*
X227195609Y-196548161D01*
X227195606Y-196548161D01*
X227188471Y-196548074D01*
X226952698Y-196584153D01*
X226945921Y-196586368D01*
X226945917Y-196586369D01*
X226732764Y-196656038D01*
X226732761Y-196656039D01*
X226725982Y-196658255D01*
X226692109Y-196675888D01*
X226679344Y-196682533D01*
X226598415Y-196702192D01*
X226517621Y-196681990D01*
X226455470Y-196626555D01*
X226426199Y-196548586D01*
X226425000Y-196528193D01*
X226425000Y-194853882D01*
X226444931Y-194773020D01*
X226478066Y-194730832D01*
X226477717Y-194730521D01*
X226482724Y-194724901D01*
X226517851Y-194685476D01*
X226524729Y-194678190D01*
X226818909Y-194384010D01*
X226890180Y-194340926D01*
X226976636Y-194336540D01*
X227110671Y-194363810D01*
X227110673Y-194363810D01*
X227117666Y-194365233D01*
X227124796Y-194365494D01*
X227124801Y-194365495D01*
X227242552Y-194369812D01*
X227356025Y-194373973D01*
X227592609Y-194343665D01*
X227641704Y-194328936D01*
X227814232Y-194277176D01*
X227814233Y-194277175D01*
X227821068Y-194275125D01*
X228035264Y-194170191D01*
X228229445Y-194031683D01*
X228398397Y-193863320D01*
X228537582Y-193669623D01*
X228643263Y-193455795D01*
X228712600Y-193227577D01*
X228743733Y-192991099D01*
X228745471Y-192920000D01*
X228725927Y-192682284D01*
X228680163Y-192500086D01*
X228669559Y-192457870D01*
X228669558Y-192457866D01*
X228667821Y-192450952D01*
X228639431Y-192385659D01*
X228625000Y-192316277D01*
X228625000Y-190993398D01*
X228639860Y-190929778D01*
X228637471Y-190928832D01*
X228640095Y-190922205D01*
X228643263Y-190915795D01*
X228712600Y-190687577D01*
X228743733Y-190451099D01*
X228745471Y-190380000D01*
X228725927Y-190142284D01*
X228667821Y-189910952D01*
X228639431Y-189845659D01*
X228625000Y-189776277D01*
X228625000Y-189400000D01*
X228436410Y-189400000D01*
X228355548Y-189380069D01*
X228307715Y-189343105D01*
X228287438Y-189320821D01*
X228282629Y-189315536D01*
X228095445Y-189167707D01*
X227886631Y-189052436D01*
X227840325Y-189036038D01*
X227668519Y-188975198D01*
X227668514Y-188975197D01*
X227661794Y-188972817D01*
X227654767Y-188971565D01*
X227654766Y-188971565D01*
X227434001Y-188932240D01*
X227434000Y-188932240D01*
X227426972Y-188930988D01*
X227314581Y-188929615D01*
X227195609Y-188928161D01*
X227195606Y-188928161D01*
X227188471Y-188928074D01*
X226952698Y-188964153D01*
X226945921Y-188966368D01*
X226945917Y-188966369D01*
X226732764Y-189036038D01*
X226732761Y-189036039D01*
X226725982Y-189038255D01*
X226692109Y-189055888D01*
X226679344Y-189062533D01*
X226598415Y-189082192D01*
X226517621Y-189061990D01*
X226455470Y-189006555D01*
X226426199Y-188928586D01*
X226425000Y-188908193D01*
X226425000Y-187233290D01*
X226444931Y-187152428D01*
X226480664Y-187106932D01*
X226482717Y-187105521D01*
X226522851Y-187060476D01*
X226529729Y-187053190D01*
X226818909Y-186764010D01*
X226890180Y-186720926D01*
X226976636Y-186716540D01*
X227110671Y-186743810D01*
X227110673Y-186743810D01*
X227117666Y-186745233D01*
X227124796Y-186745494D01*
X227124801Y-186745495D01*
X227242552Y-186749812D01*
X227356025Y-186753973D01*
X227592609Y-186723665D01*
X227640623Y-186709260D01*
X227814232Y-186657176D01*
X227814233Y-186657175D01*
X227821068Y-186655125D01*
X228035264Y-186550191D01*
X228229445Y-186411683D01*
X228261967Y-186379275D01*
X228390942Y-186250749D01*
X228462289Y-186207788D01*
X228513764Y-186200000D01*
X228625000Y-186200000D01*
X228625000Y-185913398D01*
X228639860Y-185849778D01*
X228637471Y-185848832D01*
X228640095Y-185842205D01*
X228643263Y-185835795D01*
X228712600Y-185607577D01*
X228743733Y-185371099D01*
X228745471Y-185300000D01*
X228725927Y-185062284D01*
X228715406Y-185020395D01*
X228669559Y-184837870D01*
X228669558Y-184837866D01*
X228667821Y-184830952D01*
X228639431Y-184765659D01*
X228625000Y-184696277D01*
X228625000Y-183373398D01*
X228639860Y-183309778D01*
X228637471Y-183308832D01*
X228640095Y-183302205D01*
X228643263Y-183295795D01*
X228712600Y-183067577D01*
X228743733Y-182831099D01*
X228744474Y-182800799D01*
X228745358Y-182764633D01*
X228745358Y-182764628D01*
X228745471Y-182760000D01*
X228725927Y-182522284D01*
X228700788Y-182422197D01*
X228669559Y-182297870D01*
X228669558Y-182297866D01*
X228667821Y-182290952D01*
X228639431Y-182225659D01*
X228625000Y-182156277D01*
X228625000Y-180833398D01*
X228639860Y-180769778D01*
X228637471Y-180768832D01*
X228640095Y-180762205D01*
X228643263Y-180755795D01*
X228712600Y-180527577D01*
X228743733Y-180291099D01*
X228745471Y-180220000D01*
X228725927Y-179982284D01*
X228718916Y-179954369D01*
X228669559Y-179757870D01*
X228669558Y-179757866D01*
X228667821Y-179750952D01*
X228639431Y-179685659D01*
X228625000Y-179616277D01*
X228625000Y-179400000D01*
X228580440Y-179400000D01*
X228499578Y-179380069D01*
X228444143Y-179333478D01*
X228443155Y-179331951D01*
X228282629Y-179155536D01*
X228095445Y-179007707D01*
X227886631Y-178892436D01*
X227840325Y-178876038D01*
X227668519Y-178815198D01*
X227668514Y-178815197D01*
X227661794Y-178812817D01*
X227654767Y-178811565D01*
X227654766Y-178811565D01*
X227434001Y-178772240D01*
X227434000Y-178772240D01*
X227426972Y-178770988D01*
X227314581Y-178769615D01*
X227195609Y-178768161D01*
X227195606Y-178768161D01*
X227188471Y-178768074D01*
X226952698Y-178804153D01*
X226945921Y-178806368D01*
X226945917Y-178806369D01*
X226732764Y-178876038D01*
X226732761Y-178876039D01*
X226725982Y-178878255D01*
X226692109Y-178895888D01*
X226679344Y-178902533D01*
X226598415Y-178922192D01*
X226517621Y-178901990D01*
X226455470Y-178846555D01*
X226426199Y-178768586D01*
X226425000Y-178748193D01*
X226425000Y-176754500D01*
X226444931Y-176673638D01*
X226500157Y-176611301D01*
X226578027Y-176581769D01*
X226599000Y-176580500D01*
X227076880Y-176580500D01*
X227103549Y-176583185D01*
X227103575Y-176582964D01*
X227110676Y-176583811D01*
X227117666Y-176585233D01*
X227124794Y-176585494D01*
X227124799Y-176585495D01*
X227252383Y-176590173D01*
X227356025Y-176593973D01*
X227450188Y-176581910D01*
X227472299Y-176580500D01*
X230399000Y-176580500D01*
X230403640Y-176580001D01*
X230403643Y-176580001D01*
X230445670Y-176575483D01*
X230527705Y-176566663D01*
X230532253Y-176565674D01*
X230532257Y-176565673D01*
X230574983Y-176556379D01*
X230574990Y-176556377D01*
X230580047Y-176555277D01*
X230715911Y-176508255D01*
X230847859Y-176421221D01*
X230901515Y-176374728D01*
X230902229Y-176374079D01*
X230902265Y-176374047D01*
X230917860Y-176359870D01*
X230917861Y-176359869D01*
X230922842Y-176355341D01*
X230963152Y-176305318D01*
X231029406Y-176254864D01*
X231098634Y-176240500D01*
X233187084Y-176240500D01*
X233267946Y-176260431D01*
X233310121Y-176291463D01*
X243873537Y-186854879D01*
X243916621Y-186926150D01*
X243924500Y-186977916D01*
X243924500Y-214170654D01*
X243924033Y-214183399D01*
X243923852Y-214185866D01*
X243922463Y-214194034D01*
X243922644Y-214202315D01*
X243924459Y-214285511D01*
X243924500Y-214289307D01*
X243924500Y-214327469D01*
X243924893Y-214331583D01*
X243924893Y-214331592D01*
X243925027Y-214332992D01*
X243925773Y-214345725D01*
X243926818Y-214393601D01*
X243927044Y-214403981D01*
X243928786Y-214412072D01*
X243933442Y-214433698D01*
X243936552Y-214453789D01*
X243939439Y-214484046D01*
X243952237Y-214527671D01*
X243955842Y-214539960D01*
X243958980Y-214552318D01*
X243966928Y-214589232D01*
X243971242Y-214609271D01*
X243983142Y-214637238D01*
X243989995Y-214656378D01*
X243998553Y-214685549D01*
X244017133Y-214721624D01*
X244025226Y-214737338D01*
X244030645Y-214748881D01*
X244050217Y-214794879D01*
X244050223Y-214794891D01*
X244053462Y-214802502D01*
X244066722Y-214822197D01*
X244070436Y-214827714D01*
X244080786Y-214845216D01*
X244090910Y-214864872D01*
X244090914Y-214864878D01*
X244094705Y-214872239D01*
X244130701Y-214918064D01*
X244138192Y-214928356D01*
X244170739Y-214976699D01*
X244174452Y-214980794D01*
X244192844Y-214999186D01*
X244206640Y-215014739D01*
X244219308Y-215030867D01*
X244219312Y-215030872D01*
X244224424Y-215037379D01*
X244230678Y-215042806D01*
X244230679Y-215042807D01*
X244269780Y-215076737D01*
X244278777Y-215085119D01*
X246085588Y-216891930D01*
X246128672Y-216963201D01*
X246133325Y-217048316D01*
X246124770Y-217092122D01*
X246124500Y-217097643D01*
X246124500Y-217123651D01*
X246123258Y-217144403D01*
X246119824Y-217172991D01*
X246120409Y-217181248D01*
X246124066Y-217232904D01*
X246124500Y-217245193D01*
X246124500Y-226747084D01*
X246104569Y-226827946D01*
X246073537Y-226870121D01*
X242420121Y-230523537D01*
X242348850Y-230566621D01*
X242297084Y-230574500D01*
X240964353Y-230574500D01*
X240962076Y-230574485D01*
X240871265Y-230573296D01*
X240871260Y-230573296D01*
X240863286Y-230573192D01*
X240855427Y-230574542D01*
X240855420Y-230574543D01*
X240809853Y-230582373D01*
X240796913Y-230584099D01*
X240749206Y-230588651D01*
X240749198Y-230588652D01*
X240740954Y-230589439D01*
X240733009Y-230591770D01*
X240733008Y-230591770D01*
X240711309Y-230598136D01*
X240691797Y-230602659D01*
X240663949Y-230607444D01*
X240656463Y-230610206D01*
X240656458Y-230610207D01*
X240608809Y-230627785D01*
X240597571Y-230631502D01*
X240539451Y-230648553D01*
X240532095Y-230652342D01*
X240532089Y-230652344D01*
X240515918Y-230660673D01*
X240496478Y-230669228D01*
X240474193Y-230677449D01*
X240467345Y-230681523D01*
X240467341Y-230681525D01*
X240419757Y-230709835D01*
X240410462Y-230714987D01*
X240352761Y-230744705D01*
X240346246Y-230749823D01*
X240335435Y-230758315D01*
X240316923Y-230771015D01*
X240300371Y-230780862D01*
X240294378Y-230786118D01*
X240249286Y-230825662D01*
X240242046Y-230831672D01*
X240187621Y-230874424D01*
X240182194Y-230880678D01*
X240182193Y-230880679D01*
X240176092Y-230887710D01*
X240159398Y-230904491D01*
X240154307Y-230908956D01*
X240154305Y-230908959D01*
X240148305Y-230914220D01*
X240143365Y-230920487D01*
X240103381Y-230971207D01*
X240098153Y-230977527D01*
X240049990Y-231033029D01*
X240045846Y-231040192D01*
X240045844Y-231040195D01*
X240043399Y-231044421D01*
X240029440Y-231065000D01*
X240023089Y-231073057D01*
X240019377Y-231080113D01*
X239987098Y-231141465D01*
X239983737Y-231147552D01*
X239944834Y-231214799D01*
X239942115Y-231222629D01*
X239941979Y-231223020D01*
X239935650Y-231237610D01*
X239935681Y-231237623D01*
X239932627Y-231244996D01*
X239928914Y-231252053D01*
X239926550Y-231259667D01*
X239904565Y-231330470D01*
X239902763Y-231335951D01*
X239875947Y-231413174D01*
X239874758Y-231421375D01*
X239872799Y-231429412D01*
X239872626Y-231429370D01*
X239872550Y-231429706D01*
X239872961Y-231429793D01*
X239871302Y-231437596D01*
X239868937Y-231445213D01*
X239868000Y-231453129D01*
X239867999Y-231453134D01*
X239858696Y-231531739D01*
X239858101Y-231536256D01*
X239847002Y-231612799D01*
X239847002Y-231612804D01*
X239845814Y-231620996D01*
X239846197Y-231629262D01*
X239846064Y-231631978D01*
X239846119Y-231637474D01*
X239846101Y-231638154D01*
X239845164Y-231646069D01*
X239845686Y-231654030D01*
X239851215Y-231738391D01*
X239851402Y-231741726D01*
X239855523Y-231830767D01*
X239857462Y-231838812D01*
X239857871Y-231841686D01*
X239858041Y-231842540D01*
X239858392Y-231847894D01*
X239860355Y-231855623D01*
X239882785Y-231943942D01*
X239883296Y-231946006D01*
X239904724Y-232034918D01*
X239907365Y-232040726D01*
X239908178Y-232043928D01*
X239954808Y-232145074D01*
X239954974Y-232145437D01*
X239991640Y-232226081D01*
X239996427Y-232232829D01*
X239996429Y-232232833D01*
X240028796Y-232278461D01*
X240109588Y-232392780D01*
X240110559Y-232393726D01*
X240113137Y-232397360D01*
X240119112Y-232403080D01*
X240119113Y-232403081D01*
X240179202Y-232460603D01*
X240180267Y-232461632D01*
X240254466Y-232533913D01*
X240258789Y-232536802D01*
X240258851Y-232536851D01*
X240264831Y-232542575D01*
X240340953Y-232591726D01*
X240343138Y-232593162D01*
X240353647Y-232600184D01*
X240416006Y-232641852D01*
X240416012Y-232641855D01*
X240422637Y-232646282D01*
X240428868Y-232648959D01*
X240431860Y-232650734D01*
X240434288Y-232651993D01*
X240441246Y-232656485D01*
X240448928Y-232659581D01*
X240448930Y-232659582D01*
X240522363Y-232689176D01*
X240526009Y-232690694D01*
X240601138Y-232722973D01*
X240601148Y-232722976D01*
X240608470Y-232726122D01*
X240616250Y-232727883D01*
X240621665Y-232729642D01*
X240625639Y-232731087D01*
X240628345Y-232731889D01*
X240636019Y-232734981D01*
X240644141Y-232736567D01*
X240644144Y-232736568D01*
X240718178Y-232751026D01*
X240723227Y-232752090D01*
X240797963Y-232769001D01*
X240797971Y-232769002D01*
X240805740Y-232770760D01*
X240813703Y-232771073D01*
X240821618Y-232772115D01*
X240821589Y-232772337D01*
X240829749Y-232773288D01*
X240829751Y-232773274D01*
X240832748Y-232773638D01*
X240835776Y-232773991D01*
X240842122Y-232775230D01*
X240847643Y-232775500D01*
X240922970Y-232775500D01*
X240929801Y-232775634D01*
X241007842Y-232778700D01*
X241015729Y-232777556D01*
X241015737Y-232777556D01*
X241017492Y-232777301D01*
X241042459Y-232775500D01*
X242720654Y-232775500D01*
X242733399Y-232775967D01*
X242735866Y-232776148D01*
X242744034Y-232777537D01*
X242835511Y-232775541D01*
X242839307Y-232775500D01*
X242877469Y-232775500D01*
X242881583Y-232775107D01*
X242881592Y-232775107D01*
X242882992Y-232774973D01*
X242895725Y-232774227D01*
X242945706Y-232773137D01*
X242945711Y-232773136D01*
X242953981Y-232772956D01*
X242983699Y-232766558D01*
X243003789Y-232763448D01*
X243025798Y-232761348D01*
X243025799Y-232761348D01*
X243034046Y-232760561D01*
X243089960Y-232744158D01*
X243102318Y-232741020D01*
X243151176Y-232730501D01*
X243151178Y-232730501D01*
X243159271Y-232728758D01*
X243187242Y-232716857D01*
X243206378Y-232710005D01*
X243235549Y-232701447D01*
X243287338Y-232674774D01*
X243298881Y-232669355D01*
X243344879Y-232649783D01*
X243344891Y-232649777D01*
X243352502Y-232646538D01*
X243377717Y-232629562D01*
X243395216Y-232619214D01*
X243414872Y-232609090D01*
X243414878Y-232609086D01*
X243422239Y-232605295D01*
X243468064Y-232569299D01*
X243478356Y-232561808D01*
X243515462Y-232536826D01*
X243526699Y-232529261D01*
X243530794Y-232525548D01*
X243549186Y-232507156D01*
X243564739Y-232493360D01*
X243580867Y-232480692D01*
X243580872Y-232480688D01*
X243587379Y-232475576D01*
X243599457Y-232461658D01*
X243626737Y-232430220D01*
X243635119Y-232421223D01*
X247929392Y-228126950D01*
X247938735Y-228118269D01*
X247940607Y-228116653D01*
X247947360Y-228111863D01*
X248010610Y-228045791D01*
X248013265Y-228043077D01*
X248040272Y-228016070D01*
X248043817Y-228011777D01*
X248052283Y-228002258D01*
X248067683Y-227986171D01*
X248092575Y-227960169D01*
X248109063Y-227934634D01*
X248121072Y-227918226D01*
X248135154Y-227901173D01*
X248140426Y-227894789D01*
X248168372Y-227843639D01*
X248174882Y-227832698D01*
X248201989Y-227790717D01*
X248206485Y-227783754D01*
X248217845Y-227755567D01*
X248226535Y-227737183D01*
X248237138Y-227717776D01*
X248237140Y-227717772D01*
X248241110Y-227710505D01*
X248258881Y-227654987D01*
X248263196Y-227643037D01*
X248284981Y-227588981D01*
X248290807Y-227559150D01*
X248295864Y-227539456D01*
X248302604Y-227518400D01*
X248302606Y-227518393D01*
X248305130Y-227510506D01*
X248312080Y-227452654D01*
X248314063Y-227440058D01*
X248324029Y-227389028D01*
X248325230Y-227382878D01*
X248325500Y-227377357D01*
X248325500Y-227351349D01*
X248326742Y-227330597D01*
X248329188Y-227310232D01*
X248330176Y-227302009D01*
X248325934Y-227242095D01*
X248325500Y-227229807D01*
X248325500Y-217728903D01*
X248345431Y-217648041D01*
X248370908Y-217611685D01*
X248381080Y-217600526D01*
X248386635Y-217594707D01*
X248829879Y-217151463D01*
X248901150Y-217108379D01*
X248952916Y-217100500D01*
X262224968Y-217100500D01*
X262237713Y-217100967D01*
X262240180Y-217101148D01*
X262248348Y-217102537D01*
X262339825Y-217100541D01*
X262343621Y-217100500D01*
X262381783Y-217100500D01*
X262385897Y-217100107D01*
X262385906Y-217100107D01*
X262387306Y-217099973D01*
X262400039Y-217099227D01*
X262450020Y-217098137D01*
X262450025Y-217098136D01*
X262458295Y-217097956D01*
X262488013Y-217091558D01*
X262508103Y-217088448D01*
X262530112Y-217086348D01*
X262530113Y-217086348D01*
X262538360Y-217085561D01*
X262594274Y-217069158D01*
X262606632Y-217066020D01*
X262655490Y-217055501D01*
X262655492Y-217055501D01*
X262663585Y-217053758D01*
X262691556Y-217041857D01*
X262710692Y-217035005D01*
X262739863Y-217026447D01*
X262791652Y-216999774D01*
X262803195Y-216994355D01*
X262849193Y-216974783D01*
X262849205Y-216974777D01*
X262856816Y-216971538D01*
X262882031Y-216954562D01*
X262899530Y-216944214D01*
X262919186Y-216934090D01*
X262919192Y-216934086D01*
X262926553Y-216930295D01*
X262972378Y-216894299D01*
X262982670Y-216886808D01*
X262989494Y-216882214D01*
X263031013Y-216854261D01*
X263035108Y-216850548D01*
X263053500Y-216832156D01*
X263069053Y-216818360D01*
X263085181Y-216805692D01*
X263085186Y-216805688D01*
X263091693Y-216800576D01*
X263131052Y-216755219D01*
X263139433Y-216746223D01*
X263604407Y-216281249D01*
X263616181Y-216270508D01*
X263643524Y-216247767D01*
X263649662Y-216242662D01*
X263654767Y-216236524D01*
X263682218Y-216203518D01*
X263682752Y-216202904D01*
X263683429Y-216202227D01*
X263702672Y-216178925D01*
X263752378Y-216119160D01*
X263775820Y-216090975D01*
X263775826Y-216090968D01*
X263778994Y-216087158D01*
X263780134Y-216085122D01*
X263783582Y-216080947D01*
X263827518Y-216000532D01*
X263828373Y-215998987D01*
X263873921Y-215917652D01*
X263877821Y-215910688D01*
X263879425Y-215905962D01*
X263880294Y-215903934D01*
X263884267Y-215896663D01*
X263911678Y-215811033D01*
X263912629Y-215808151D01*
X263940269Y-215726725D01*
X263940270Y-215726719D01*
X263942835Y-215719164D01*
X263943908Y-215711763D01*
X263945183Y-215707203D01*
X263945760Y-215704555D01*
X263948287Y-215696663D01*
X263958613Y-215610706D01*
X263959170Y-215606508D01*
X263971121Y-215524078D01*
X263971122Y-215524072D01*
X263971857Y-215518999D01*
X263972478Y-215495282D01*
X263973333Y-215488166D01*
X263972845Y-215481275D01*
X263973372Y-215461157D01*
X263965037Y-215370448D01*
X263964741Y-215366816D01*
X263959087Y-215286956D01*
X263959087Y-215286954D01*
X263958502Y-215278696D01*
X263956364Y-215270690D01*
X263955903Y-215267936D01*
X263955421Y-215265801D01*
X263954865Y-215259748D01*
X263952699Y-215252069D01*
X263952698Y-215252062D01*
X263928470Y-215166156D01*
X263927827Y-215163815D01*
X263906465Y-215083812D01*
X263906465Y-215083811D01*
X263904328Y-215075809D01*
X263901124Y-215069196D01*
X263899964Y-215065083D01*
X263896433Y-215057922D01*
X263852721Y-214969283D01*
X263852188Y-214968193D01*
X263825763Y-214913652D01*
X263812766Y-214886826D01*
X263810680Y-214884032D01*
X263810508Y-214883684D01*
X263689492Y-214721624D01*
X263689210Y-214721363D01*
X263687121Y-214718566D01*
X263620186Y-214657553D01*
X263619292Y-214656732D01*
X263614352Y-214652165D01*
X263571007Y-214612098D01*
X263546823Y-214589742D01*
X263546821Y-214589740D01*
X263540969Y-214584331D01*
X263537356Y-214582051D01*
X263531925Y-214577101D01*
X263454262Y-214529603D01*
X263452208Y-214528327D01*
X263394624Y-214491994D01*
X263369914Y-214476403D01*
X263364266Y-214474150D01*
X263362368Y-214473088D01*
X263359844Y-214471857D01*
X263352778Y-214467535D01*
X263289070Y-214443652D01*
X263270083Y-214436534D01*
X263266685Y-214435219D01*
X263189460Y-214404409D01*
X263189457Y-214404408D01*
X263182055Y-214401455D01*
X263174234Y-214399899D01*
X263171209Y-214399003D01*
X263166559Y-214397445D01*
X263163902Y-214396728D01*
X263156147Y-214393821D01*
X263147986Y-214392433D01*
X263147981Y-214392432D01*
X263095416Y-214383495D01*
X263072653Y-214379624D01*
X263067889Y-214378745D01*
X262991515Y-214363553D01*
X262991505Y-214363552D01*
X262983683Y-214361996D01*
X262975706Y-214361891D01*
X262967778Y-214361058D01*
X262967812Y-214360737D01*
X262965549Y-214360531D01*
X262965543Y-214360614D01*
X262957287Y-214360008D01*
X262949123Y-214358620D01*
X262881644Y-214360092D01*
X262868391Y-214360381D01*
X262862320Y-214360407D01*
X262789422Y-214359453D01*
X262789418Y-214359453D01*
X262781443Y-214359349D01*
X262773584Y-214360699D01*
X262768952Y-214361064D01*
X262748985Y-214362987D01*
X262747451Y-214363020D01*
X262747446Y-214363021D01*
X262739176Y-214363201D01*
X262664270Y-214379328D01*
X262657132Y-214380709D01*
X262589967Y-214392250D01*
X262589964Y-214392251D01*
X262582106Y-214393601D01*
X262571417Y-214397544D01*
X262547828Y-214404397D01*
X262541985Y-214405655D01*
X262541983Y-214405656D01*
X262533886Y-214407399D01*
X262467250Y-214435753D01*
X262459370Y-214438880D01*
X262399837Y-214460843D01*
X262399828Y-214460847D01*
X262392350Y-214463606D01*
X262385501Y-214467681D01*
X262385494Y-214467684D01*
X262378709Y-214471721D01*
X262357876Y-214482291D01*
X262353752Y-214484046D01*
X262340655Y-214489619D01*
X262333790Y-214494241D01*
X262333786Y-214494243D01*
X262284135Y-214527671D01*
X262275924Y-214532872D01*
X262225388Y-214562937D01*
X262225382Y-214562941D01*
X262218528Y-214567019D01*
X262203208Y-214580454D01*
X262185657Y-214593970D01*
X262171653Y-214603398D01*
X262171649Y-214603401D01*
X262166458Y-214606896D01*
X262162363Y-214610609D01*
X262120332Y-214652640D01*
X262112022Y-214660423D01*
X262066462Y-214700377D01*
X262061529Y-214706634D01*
X262061520Y-214706644D01*
X262049975Y-214721290D01*
X262036366Y-214736606D01*
X261924435Y-214848537D01*
X261853164Y-214891621D01*
X261801398Y-214899500D01*
X248529346Y-214899500D01*
X248516601Y-214899033D01*
X248514134Y-214898852D01*
X248505966Y-214897463D01*
X248414582Y-214899457D01*
X248414490Y-214899459D01*
X248410694Y-214899500D01*
X248372531Y-214899500D01*
X248368417Y-214899893D01*
X248368408Y-214899893D01*
X248367008Y-214900027D01*
X248354275Y-214900773D01*
X248304295Y-214901863D01*
X248304290Y-214901864D01*
X248296020Y-214902044D01*
X248266297Y-214908443D01*
X248246212Y-214911552D01*
X248224200Y-214913652D01*
X248224197Y-214913653D01*
X248215954Y-214914439D01*
X248160053Y-214930839D01*
X248147690Y-214933979D01*
X248098828Y-214944498D01*
X248098824Y-214944499D01*
X248090729Y-214946242D01*
X248062758Y-214958143D01*
X248043622Y-214964995D01*
X248014451Y-214973553D01*
X248000433Y-214980773D01*
X247962662Y-215000226D01*
X247951119Y-215005645D01*
X247905121Y-215025217D01*
X247905109Y-215025223D01*
X247897498Y-215028462D01*
X247890633Y-215033084D01*
X247872286Y-215045436D01*
X247854784Y-215055786D01*
X247835128Y-215065910D01*
X247835122Y-215065914D01*
X247827761Y-215069705D01*
X247781936Y-215105701D01*
X247771644Y-215113192D01*
X247723301Y-215145739D01*
X247719206Y-215149452D01*
X247710537Y-215158121D01*
X247639266Y-215201205D01*
X247556136Y-215206234D01*
X247480191Y-215172054D01*
X247464463Y-215158121D01*
X246176463Y-213870121D01*
X246133379Y-213798850D01*
X246125500Y-213747084D01*
X246125500Y-202750000D01*
X249044815Y-202750000D01*
X249063503Y-202927803D01*
X249099680Y-203039144D01*
X249111455Y-203075382D01*
X249118750Y-203097835D01*
X249208141Y-203252665D01*
X249327770Y-203385526D01*
X249409017Y-203444556D01*
X249464825Y-203485103D01*
X249472407Y-203490612D01*
X249480737Y-203494321D01*
X249480741Y-203494323D01*
X249591582Y-203543672D01*
X249635733Y-203563329D01*
X249644647Y-203565224D01*
X249644648Y-203565224D01*
X249692852Y-203575470D01*
X249767803Y-203611778D01*
X249779712Y-203622631D01*
X251496937Y-205339857D01*
X251540021Y-205411129D01*
X251547900Y-205462894D01*
X251547900Y-210919670D01*
X251547497Y-210931503D01*
X251543713Y-210987015D01*
X251545517Y-210997351D01*
X251545517Y-210997352D01*
X251554374Y-211048099D01*
X251555704Y-211057106D01*
X251563158Y-211118704D01*
X251566866Y-211128518D01*
X251568792Y-211136359D01*
X251571126Y-211144088D01*
X251572929Y-211154420D01*
X251577146Y-211164026D01*
X251597861Y-211211217D01*
X251601303Y-211219650D01*
X251623226Y-211277669D01*
X251629171Y-211286319D01*
X251632908Y-211293468D01*
X251637016Y-211300415D01*
X251641234Y-211310023D01*
X251647619Y-211318344D01*
X251647620Y-211318346D01*
X251678996Y-211359236D01*
X251684340Y-211366590D01*
X251719479Y-211417717D01*
X251727311Y-211424695D01*
X251764524Y-211457851D01*
X251771810Y-211464729D01*
X253858665Y-213551585D01*
X253858684Y-213551603D01*
X253982091Y-213675010D01*
X253990174Y-213683663D01*
X254026753Y-213725594D01*
X254035336Y-213731626D01*
X254077496Y-213761257D01*
X254084810Y-213766689D01*
X254133621Y-213804962D01*
X254143185Y-213809280D01*
X254150083Y-213813458D01*
X254157199Y-213817274D01*
X254165785Y-213823308D01*
X254175558Y-213827118D01*
X254175561Y-213827120D01*
X254223571Y-213845838D01*
X254231968Y-213849368D01*
X254278936Y-213870575D01*
X254278942Y-213870577D01*
X254288501Y-213874893D01*
X254298818Y-213876805D01*
X254306534Y-213879223D01*
X254314340Y-213881227D01*
X254324112Y-213885037D01*
X254385600Y-213893132D01*
X254394590Y-213894556D01*
X254445272Y-213903949D01*
X254445276Y-213903949D01*
X254455591Y-213905861D01*
X254466066Y-213905257D01*
X254515808Y-213902389D01*
X254525824Y-213902100D01*
X255662863Y-213902100D01*
X255743725Y-213922031D01*
X255764770Y-213935103D01*
X255765036Y-213935256D01*
X255772407Y-213940612D01*
X255780735Y-213944320D01*
X255780737Y-213944321D01*
X255873044Y-213985418D01*
X255935733Y-214013329D01*
X255944647Y-214015224D01*
X255944648Y-214015224D01*
X256101692Y-214048605D01*
X256101695Y-214048605D01*
X256110609Y-214050500D01*
X256289391Y-214050500D01*
X256298305Y-214048605D01*
X256298308Y-214048605D01*
X256455352Y-214015224D01*
X256455353Y-214015224D01*
X256464267Y-214013329D01*
X256508418Y-213993672D01*
X256619259Y-213944323D01*
X256619263Y-213944321D01*
X256627593Y-213940612D01*
X256635176Y-213935103D01*
X256690983Y-213894556D01*
X256772230Y-213835526D01*
X256891859Y-213702665D01*
X256981250Y-213547835D01*
X257036497Y-213377803D01*
X257055185Y-213200000D01*
X257036497Y-213022197D01*
X256981250Y-212852165D01*
X256891859Y-212697335D01*
X256772230Y-212564474D01*
X256627593Y-212459388D01*
X256619263Y-212455679D01*
X256619259Y-212455677D01*
X256472595Y-212390379D01*
X256472596Y-212390379D01*
X256464267Y-212386671D01*
X256455352Y-212384776D01*
X256298308Y-212351395D01*
X256298305Y-212351395D01*
X256289391Y-212349500D01*
X256110609Y-212349500D01*
X256101695Y-212351395D01*
X256101692Y-212351395D01*
X255944648Y-212384776D01*
X255935733Y-212386671D01*
X255927404Y-212390379D01*
X255927405Y-212390379D01*
X255780738Y-212455679D01*
X255780736Y-212455680D01*
X255772408Y-212459388D01*
X255765033Y-212464747D01*
X255757132Y-212469308D01*
X255756488Y-212468192D01*
X255688001Y-212496075D01*
X255662864Y-212497900D01*
X254862893Y-212497900D01*
X254782031Y-212477969D01*
X254739856Y-212446937D01*
X253003063Y-210710143D01*
X252959979Y-210638871D01*
X252952100Y-210587106D01*
X252952100Y-205130330D01*
X252952503Y-205118497D01*
X252955573Y-205073455D01*
X252956287Y-205062985D01*
X252945624Y-205001889D01*
X252944295Y-204992888D01*
X252936842Y-204931296D01*
X252933134Y-204921482D01*
X252931208Y-204913641D01*
X252928874Y-204905912D01*
X252927071Y-204895580D01*
X252902139Y-204838783D01*
X252898697Y-204830349D01*
X252876774Y-204772331D01*
X252870829Y-204763681D01*
X252867092Y-204756532D01*
X252862984Y-204749585D01*
X252858766Y-204739977D01*
X252835717Y-204709938D01*
X252821004Y-204690764D01*
X252815660Y-204683410D01*
X252780521Y-204632283D01*
X252735476Y-204592149D01*
X252728190Y-204585271D01*
X250776325Y-202633405D01*
X250733878Y-202564137D01*
X250684069Y-202410840D01*
X250684068Y-202410837D01*
X250681250Y-202402165D01*
X250591859Y-202247335D01*
X250472230Y-202114474D01*
X250327593Y-202009388D01*
X250319263Y-202005679D01*
X250319259Y-202005677D01*
X250172595Y-201940379D01*
X250172596Y-201940379D01*
X250164267Y-201936671D01*
X250155352Y-201934776D01*
X249998308Y-201901395D01*
X249998305Y-201901395D01*
X249989391Y-201899500D01*
X249810609Y-201899500D01*
X249801695Y-201901395D01*
X249801692Y-201901395D01*
X249644648Y-201934776D01*
X249635733Y-201936671D01*
X249627404Y-201940379D01*
X249627405Y-201940379D01*
X249480738Y-202005679D01*
X249480736Y-202005680D01*
X249472408Y-202009388D01*
X249327770Y-202114474D01*
X249208141Y-202247335D01*
X249118750Y-202402165D01*
X249063503Y-202572197D01*
X249044815Y-202750000D01*
X246125500Y-202750000D01*
X246125500Y-186554346D01*
X246125967Y-186541601D01*
X246126148Y-186539134D01*
X246127537Y-186530966D01*
X246125541Y-186439489D01*
X246125500Y-186435693D01*
X246125500Y-186397531D01*
X246124973Y-186392008D01*
X246124227Y-186379275D01*
X246123137Y-186329297D01*
X246123137Y-186329293D01*
X246122956Y-186321019D01*
X246121212Y-186312917D01*
X246116558Y-186291298D01*
X246113447Y-186271202D01*
X246110561Y-186240954D01*
X246094163Y-186185059D01*
X246091023Y-186172698D01*
X246080500Y-186123818D01*
X246080499Y-186123815D01*
X246078758Y-186115728D01*
X246066856Y-186087755D01*
X246060002Y-186068612D01*
X246053778Y-186047396D01*
X246053777Y-186047394D01*
X246051447Y-186039451D01*
X246024765Y-185987643D01*
X246019355Y-185976120D01*
X245999779Y-185930115D01*
X245996538Y-185922498D01*
X245979562Y-185897283D01*
X245969214Y-185879784D01*
X245959090Y-185860128D01*
X245959086Y-185860122D01*
X245955295Y-185852761D01*
X245919299Y-185806936D01*
X245911808Y-185796644D01*
X245907214Y-185789820D01*
X245879261Y-185748301D01*
X245875548Y-185744206D01*
X245857156Y-185725814D01*
X245843360Y-185710261D01*
X245830692Y-185694133D01*
X245830688Y-185694128D01*
X245825576Y-185687621D01*
X245780219Y-185648262D01*
X245771223Y-185639881D01*
X234566950Y-174435608D01*
X234558269Y-174426265D01*
X234556653Y-174424393D01*
X234551863Y-174417640D01*
X234485791Y-174354390D01*
X234483077Y-174351735D01*
X234456070Y-174324728D01*
X234452886Y-174322099D01*
X234452880Y-174322093D01*
X234451772Y-174321178D01*
X234442251Y-174312709D01*
X234406154Y-174278154D01*
X234406152Y-174278153D01*
X234400169Y-174272425D01*
X234374629Y-174255934D01*
X234358227Y-174243930D01*
X234334790Y-174224575D01*
X234283660Y-174196640D01*
X234272707Y-174190123D01*
X234230716Y-174163010D01*
X234230713Y-174163009D01*
X234223754Y-174158515D01*
X234216076Y-174155421D01*
X234216067Y-174155416D01*
X234195570Y-174147156D01*
X234177181Y-174138464D01*
X234157772Y-174127859D01*
X234157765Y-174127856D01*
X234150506Y-174123890D01*
X234142625Y-174121367D01*
X234142622Y-174121366D01*
X234095014Y-174106127D01*
X234083019Y-174101797D01*
X234036662Y-174083114D01*
X234036657Y-174083112D01*
X234028981Y-174080019D01*
X233999150Y-174074194D01*
X233979457Y-174069137D01*
X233958394Y-174062395D01*
X233950506Y-174059870D01*
X233942290Y-174058883D01*
X233942285Y-174058882D01*
X233903547Y-174054229D01*
X233892654Y-174052920D01*
X233880071Y-174050939D01*
X233822878Y-174039770D01*
X233817357Y-174039500D01*
X233791349Y-174039500D01*
X233770597Y-174038258D01*
X233762293Y-174037261D01*
X233742009Y-174034824D01*
X233682096Y-174039066D01*
X233669807Y-174039500D01*
X231304500Y-174039500D01*
X231223638Y-174019569D01*
X231161301Y-173964343D01*
X231131769Y-173886473D01*
X231130500Y-173865500D01*
X231130500Y-159474500D01*
X231150431Y-159393638D01*
X231205657Y-159331301D01*
X231283527Y-159301769D01*
X231304500Y-159300500D01*
X246148651Y-159300500D01*
X246169404Y-159301742D01*
X246197990Y-159305176D01*
X246257904Y-159300934D01*
X246270192Y-159300500D01*
X266697970Y-159300500D01*
X266704801Y-159300634D01*
X266782842Y-159303700D01*
X266790731Y-159302556D01*
X266790735Y-159302556D01*
X266839378Y-159295503D01*
X266853520Y-159293452D01*
X266861951Y-159292440D01*
X266934046Y-159285561D01*
X266941992Y-159283230D01*
X266941997Y-159283229D01*
X266947729Y-159281547D01*
X266971746Y-159276311D01*
X266983007Y-159274678D01*
X267008645Y-159265975D01*
X267055077Y-159250214D01*
X267062024Y-159248017D01*
X267127600Y-159228779D01*
X267135549Y-159226447D01*
X267142908Y-159222657D01*
X267142913Y-159222655D01*
X267144271Y-159221955D01*
X267162727Y-159214121D01*
X267166978Y-159212228D01*
X267174531Y-159209664D01*
X267245109Y-159170139D01*
X267250442Y-159167273D01*
X267287905Y-159147978D01*
X267314875Y-159134088D01*
X267314877Y-159134087D01*
X267322239Y-159130295D01*
X267328752Y-159125179D01*
X267335720Y-159120706D01*
X267335764Y-159120774D01*
X267337651Y-159119516D01*
X267337469Y-159119252D01*
X267344042Y-159114735D01*
X267351001Y-159110837D01*
X267357132Y-159105738D01*
X267357139Y-159105733D01*
X267417018Y-159055932D01*
X267420796Y-159052877D01*
X267487379Y-159000576D01*
X267492809Y-158994319D01*
X267494801Y-158992422D01*
X267498132Y-158988847D01*
X267500376Y-158986603D01*
X267506505Y-158981505D01*
X267564763Y-158911458D01*
X267567122Y-158908681D01*
X267619581Y-158848227D01*
X267625010Y-158841971D01*
X267629160Y-158834797D01*
X267630781Y-158832525D01*
X267631947Y-158830678D01*
X267635837Y-158826001D01*
X267639736Y-158819039D01*
X267639740Y-158819033D01*
X267683341Y-158741177D01*
X267684542Y-158739066D01*
X267726021Y-158667367D01*
X267726023Y-158667362D01*
X267730166Y-158660201D01*
X267732577Y-158653257D01*
X267734664Y-158649531D01*
X267768975Y-158548454D01*
X267769370Y-158547305D01*
X267796337Y-158469647D01*
X267799053Y-158461826D01*
X267799554Y-158458373D01*
X267799678Y-158458007D01*
X267828700Y-158257842D01*
X267828716Y-158257249D01*
X267829186Y-158254004D01*
X267828940Y-158248685D01*
X267830215Y-158200000D01*
X267823464Y-158126539D01*
X267822922Y-158118681D01*
X267819860Y-158052503D01*
X267819860Y-158052500D01*
X267819477Y-158044233D01*
X267816656Y-158032527D01*
X267812544Y-158007691D01*
X267811708Y-157998591D01*
X267790404Y-157923053D01*
X267788714Y-157916589D01*
X267772217Y-157848137D01*
X267770276Y-157840082D01*
X267766847Y-157832539D01*
X267765938Y-157829900D01*
X267761951Y-157819006D01*
X267761832Y-157819052D01*
X267758972Y-157811602D01*
X267756807Y-157803926D01*
X267753277Y-157796767D01*
X267719950Y-157729185D01*
X267717610Y-157724247D01*
X267686790Y-157656462D01*
X267686788Y-157656459D01*
X267683360Y-157648919D01*
X267678566Y-157642161D01*
X267675235Y-157636369D01*
X267675047Y-157636484D01*
X267670880Y-157629684D01*
X267667351Y-157622527D01*
X267614421Y-157551645D01*
X267611966Y-157548272D01*
X267561863Y-157477640D01*
X267555883Y-157471916D01*
X267554111Y-157469863D01*
X267550808Y-157466458D01*
X267546335Y-157460467D01*
X267526040Y-157441706D01*
X267477287Y-157396640D01*
X267475075Y-157394559D01*
X267416156Y-157338156D01*
X267416154Y-157338155D01*
X267410169Y-157332425D01*
X267403204Y-157327928D01*
X267401494Y-157326577D01*
X267397812Y-157323174D01*
X267391064Y-157318916D01*
X267391061Y-157318914D01*
X267312276Y-157269204D01*
X267310742Y-157268225D01*
X267287690Y-157253341D01*
X267233754Y-157218515D01*
X267228727Y-157216489D01*
X267226757Y-157215246D01*
X267222160Y-157213412D01*
X267222149Y-157213407D01*
X267116292Y-157171175D01*
X267115726Y-157170948D01*
X267046662Y-157143114D01*
X267046657Y-157143112D01*
X267038981Y-157140019D01*
X266957949Y-157124195D01*
X266957420Y-157124091D01*
X266845395Y-157101807D01*
X266845384Y-157101805D01*
X266840526Y-157100839D01*
X266838196Y-157100809D01*
X266832878Y-157099770D01*
X266827357Y-157099500D01*
X266739353Y-157099500D01*
X266737076Y-157099485D01*
X266646265Y-157098296D01*
X266646260Y-157098296D01*
X266638286Y-157098192D01*
X266632612Y-157099167D01*
X266624132Y-157099500D01*
X247399500Y-157099500D01*
X247318638Y-157079569D01*
X247256301Y-157024343D01*
X247226769Y-156946473D01*
X247225500Y-156925500D01*
X247225500Y-134174000D01*
X247245431Y-134093138D01*
X247300657Y-134030801D01*
X247378527Y-134001269D01*
X247399500Y-134000000D01*
X284552926Y-134000000D01*
X284633788Y-134019931D01*
X284675963Y-134050963D01*
X285074037Y-134449037D01*
X285117121Y-134520308D01*
X285125000Y-134572074D01*
X285125000Y-210282312D01*
X285116484Y-210336080D01*
X285088503Y-210422197D01*
X285069815Y-210600000D01*
X285088503Y-210777803D01*
X285091320Y-210786474D01*
X285091321Y-210786477D01*
X285116484Y-210863919D01*
X285125000Y-210917688D01*
X285125000Y-237382312D01*
X285116484Y-237436080D01*
X285088503Y-237522197D01*
X285069815Y-237700000D01*
X285088503Y-237877803D01*
X285091320Y-237886474D01*
X285091321Y-237886477D01*
X285116484Y-237963919D01*
X285125000Y-238017688D01*
X285125000Y-250127926D01*
X285105069Y-250208788D01*
X285074037Y-250250963D01*
X284675963Y-250649037D01*
X284604692Y-250692121D01*
X284552926Y-250700000D01*
X267840396Y-250700000D01*
X267775010Y-250686102D01*
X267774950Y-250686285D01*
X267773206Y-250685718D01*
X267769624Y-250684957D01*
X267766277Y-250683467D01*
X267766278Y-250683467D01*
X267757949Y-250679759D01*
X267749034Y-250677864D01*
X267591990Y-250644483D01*
X267591987Y-250644483D01*
X267583073Y-250642588D01*
X267404291Y-250642588D01*
X267395377Y-250644483D01*
X267395374Y-250644483D01*
X267238330Y-250677864D01*
X267229415Y-250679759D01*
X267221086Y-250683467D01*
X267221087Y-250683467D01*
X267217740Y-250684957D01*
X267214158Y-250685718D01*
X267212414Y-250686285D01*
X267212354Y-250686102D01*
X267146968Y-250700000D01*
X252954763Y-250700000D01*
X252900991Y-250691483D01*
X252897600Y-250690381D01*
X252889267Y-250686671D01*
X252880350Y-250684776D01*
X252880348Y-250684775D01*
X252723308Y-250651395D01*
X252723305Y-250651395D01*
X252714391Y-250649500D01*
X252535609Y-250649500D01*
X252526695Y-250651395D01*
X252526692Y-250651395D01*
X252448171Y-250668085D01*
X252360733Y-250686671D01*
X252352404Y-250690379D01*
X252349004Y-250691484D01*
X252295235Y-250700000D01*
X240354763Y-250700000D01*
X240300991Y-250691483D01*
X240297600Y-250690381D01*
X240289267Y-250686671D01*
X240280350Y-250684776D01*
X240280348Y-250684775D01*
X240123308Y-250651395D01*
X240123305Y-250651395D01*
X240114391Y-250649500D01*
X239935609Y-250649500D01*
X239926695Y-250651395D01*
X239926692Y-250651395D01*
X239848171Y-250668085D01*
X239760733Y-250686671D01*
X239752404Y-250690379D01*
X239749004Y-250691484D01*
X239695235Y-250700000D01*
X226554763Y-250700000D01*
X226500991Y-250691483D01*
X226497600Y-250690381D01*
X226489267Y-250686671D01*
X226480350Y-250684776D01*
X226480348Y-250684775D01*
X226323308Y-250651395D01*
X226323305Y-250651395D01*
X226314391Y-250649500D01*
X226135609Y-250649500D01*
X226126695Y-250651395D01*
X226126692Y-250651395D01*
X226048171Y-250668085D01*
X225960733Y-250686671D01*
X225952404Y-250690379D01*
X225949004Y-250691484D01*
X225895235Y-250700000D01*
X212158155Y-250700000D01*
X212094170Y-250687808D01*
X211291060Y-250370220D01*
X211236042Y-250335352D01*
X211101041Y-250208788D01*
X210416085Y-249566642D01*
X210375430Y-249508873D01*
X210039339Y-248733098D01*
X210025000Y-248663928D01*
X210025000Y-238400000D01*
X208625000Y-237000000D01*
X199696984Y-237000000D01*
X199616122Y-236980069D01*
X199574055Y-236949144D01*
X199276571Y-236652180D01*
X199233424Y-236580947D01*
X199225500Y-236529036D01*
X199225500Y-225632926D01*
X200345958Y-225632926D01*
X200346089Y-225637934D01*
X200346089Y-225637938D01*
X200348385Y-225725594D01*
X200354865Y-225973070D01*
X200402809Y-226309936D01*
X200489152Y-226639060D01*
X200612753Y-226956078D01*
X200615098Y-226960508D01*
X200615099Y-226960509D01*
X200769621Y-227252352D01*
X200769627Y-227252362D01*
X200771971Y-227256789D01*
X200964697Y-227537207D01*
X201188376Y-227793615D01*
X201440044Y-228022615D01*
X201444102Y-228025531D01*
X201444107Y-228025535D01*
X201712300Y-228218251D01*
X201716364Y-228221171D01*
X201720739Y-228223606D01*
X202009295Y-228384215D01*
X202009299Y-228384217D01*
X202013674Y-228386652D01*
X202018301Y-228388569D01*
X202018304Y-228388570D01*
X202323411Y-228514949D01*
X202323416Y-228514951D01*
X202328035Y-228516864D01*
X202655278Y-228610082D01*
X202829614Y-228638630D01*
X202986117Y-228664259D01*
X202986124Y-228664260D01*
X202991066Y-228665069D01*
X203330949Y-228681098D01*
X203335935Y-228680758D01*
X203335942Y-228680758D01*
X203665412Y-228658297D01*
X203665420Y-228658296D01*
X203670422Y-228657955D01*
X204004986Y-228595947D01*
X204330205Y-228495897D01*
X204641769Y-228359130D01*
X204646097Y-228356601D01*
X204931229Y-228189984D01*
X204931236Y-228189979D01*
X204935549Y-228187459D01*
X205044198Y-228105883D01*
X205203639Y-227986171D01*
X205203644Y-227986167D01*
X205207650Y-227983159D01*
X205231877Y-227960169D01*
X205366203Y-227832698D01*
X205454467Y-227748939D01*
X205464297Y-227737183D01*
X205669515Y-227491745D01*
X205669518Y-227491741D01*
X205672727Y-227487903D01*
X205675475Y-227483720D01*
X205856790Y-227207694D01*
X205856793Y-227207689D01*
X205859538Y-227203510D01*
X206012424Y-226899531D01*
X206023187Y-226870121D01*
X206127634Y-226584705D01*
X206127636Y-226584700D01*
X206129358Y-226579993D01*
X206160447Y-226450500D01*
X206193028Y-226314787D01*
X206208790Y-226249134D01*
X206249668Y-225911337D01*
X206249850Y-225905573D01*
X206255378Y-225729635D01*
X206255500Y-225725760D01*
X206253073Y-225683663D01*
X206236202Y-225391068D01*
X206236201Y-225391061D01*
X206235913Y-225386063D01*
X206227981Y-225340612D01*
X206178272Y-225055797D01*
X206177412Y-225050869D01*
X206080773Y-224724620D01*
X206041788Y-224633221D01*
X205949244Y-224416254D01*
X205949241Y-224416248D01*
X205947276Y-224411641D01*
X205778691Y-224116079D01*
X205719189Y-224035077D01*
X205580216Y-223845887D01*
X205580209Y-223845879D01*
X205577252Y-223841853D01*
X205345629Y-223592598D01*
X205086893Y-223371616D01*
X204804472Y-223181837D01*
X204780605Y-223169518D01*
X204655909Y-223105158D01*
X204502110Y-223025776D01*
X204183815Y-222905503D01*
X204178959Y-222904283D01*
X204178955Y-222904282D01*
X204063803Y-222875358D01*
X203853805Y-222822610D01*
X203848840Y-222821956D01*
X203848833Y-222821955D01*
X203521424Y-222778851D01*
X203521421Y-222778851D01*
X203516455Y-222778197D01*
X203511456Y-222778118D01*
X203511450Y-222778118D01*
X203367762Y-222775861D01*
X203176237Y-222772852D01*
X202917333Y-222798694D01*
X202842636Y-222806150D01*
X202842634Y-222806150D01*
X202837658Y-222806647D01*
X202832774Y-222807712D01*
X202832767Y-222807713D01*
X202598290Y-222858838D01*
X202505207Y-222879133D01*
X202500469Y-222880755D01*
X202500466Y-222880756D01*
X202428186Y-222905503D01*
X202183292Y-222989349D01*
X202178774Y-222991504D01*
X201909940Y-223119732D01*
X201876177Y-223135836D01*
X201587934Y-223316650D01*
X201322384Y-223529395D01*
X201318857Y-223532960D01*
X201318855Y-223532961D01*
X201294942Y-223557126D01*
X201083047Y-223771253D01*
X201013672Y-223859731D01*
X200876182Y-224035077D01*
X200876178Y-224035083D01*
X200873094Y-224039016D01*
X200695308Y-224329136D01*
X200693201Y-224333676D01*
X200693199Y-224333679D01*
X200554156Y-224633221D01*
X200554152Y-224633230D01*
X200552046Y-224637768D01*
X200445206Y-224960820D01*
X200444190Y-224965727D01*
X200444189Y-224965730D01*
X200426558Y-225050869D01*
X200376206Y-225294012D01*
X200345958Y-225632926D01*
X199225500Y-225632926D01*
X199225500Y-167632166D01*
X200345958Y-167632166D01*
X200346089Y-167637174D01*
X200346089Y-167637178D01*
X200348389Y-167725000D01*
X200354865Y-167972310D01*
X200402809Y-168309176D01*
X200489152Y-168638300D01*
X200612753Y-168955318D01*
X200615098Y-168959748D01*
X200615099Y-168959749D01*
X200769621Y-169251592D01*
X200769627Y-169251602D01*
X200771971Y-169256029D01*
X200964697Y-169536447D01*
X201188376Y-169792855D01*
X201440044Y-170021855D01*
X201444102Y-170024771D01*
X201444107Y-170024775D01*
X201694110Y-170204420D01*
X201716364Y-170220411D01*
X201720739Y-170222846D01*
X202009295Y-170383455D01*
X202009299Y-170383457D01*
X202013674Y-170385892D01*
X202018301Y-170387809D01*
X202018304Y-170387810D01*
X202323411Y-170514189D01*
X202323416Y-170514191D01*
X202328035Y-170516104D01*
X202655278Y-170609322D01*
X202829614Y-170637870D01*
X202986117Y-170663499D01*
X202986124Y-170663500D01*
X202991066Y-170664309D01*
X203330949Y-170680338D01*
X203335935Y-170679998D01*
X203335942Y-170679998D01*
X203665412Y-170657537D01*
X203665420Y-170657536D01*
X203670422Y-170657195D01*
X204004986Y-170595187D01*
X204330205Y-170495137D01*
X204641769Y-170358370D01*
X204711104Y-170317854D01*
X204931229Y-170189224D01*
X204931236Y-170189219D01*
X204935549Y-170186699D01*
X205041549Y-170107112D01*
X205203639Y-169985411D01*
X205203644Y-169985407D01*
X205207650Y-169982399D01*
X205214825Y-169975591D01*
X205331059Y-169865289D01*
X205454467Y-169748179D01*
X205578364Y-169600000D01*
X205669515Y-169490985D01*
X205669518Y-169490981D01*
X205672727Y-169487143D01*
X205708674Y-169432419D01*
X205856790Y-169206934D01*
X205856793Y-169206929D01*
X205859538Y-169202750D01*
X206012424Y-168898771D01*
X206026836Y-168859388D01*
X206127634Y-168583945D01*
X206127636Y-168583940D01*
X206129358Y-168579233D01*
X206208790Y-168248374D01*
X206249668Y-167910577D01*
X206255500Y-167725000D01*
X206255277Y-167721126D01*
X206236202Y-167390308D01*
X206236201Y-167390301D01*
X206235913Y-167385303D01*
X206219848Y-167293252D01*
X206178272Y-167055037D01*
X206177412Y-167050109D01*
X206080773Y-166723860D01*
X205947276Y-166410881D01*
X205778691Y-166115319D01*
X205719189Y-166034317D01*
X205580216Y-165845127D01*
X205580209Y-165845119D01*
X205577252Y-165841093D01*
X205345629Y-165591838D01*
X205086893Y-165370856D01*
X204804472Y-165181077D01*
X204502110Y-165025016D01*
X204183815Y-164904743D01*
X204178959Y-164903523D01*
X204178955Y-164903522D01*
X204072478Y-164876777D01*
X203853805Y-164821850D01*
X203848840Y-164821196D01*
X203848833Y-164821195D01*
X203521424Y-164778091D01*
X203521421Y-164778091D01*
X203516455Y-164777437D01*
X203511456Y-164777358D01*
X203511450Y-164777358D01*
X203367762Y-164775101D01*
X203176237Y-164772092D01*
X202917333Y-164797934D01*
X202842636Y-164805390D01*
X202842634Y-164805390D01*
X202837658Y-164805887D01*
X202832774Y-164806952D01*
X202832767Y-164806953D01*
X202598290Y-164858078D01*
X202505207Y-164878373D01*
X202500469Y-164879995D01*
X202500466Y-164879996D01*
X202428186Y-164904743D01*
X202183292Y-164988589D01*
X201876177Y-165135076D01*
X201587934Y-165315890D01*
X201322384Y-165528635D01*
X201083047Y-165770493D01*
X201013672Y-165858971D01*
X200876182Y-166034317D01*
X200876178Y-166034323D01*
X200873094Y-166038256D01*
X200695308Y-166328376D01*
X200693201Y-166332916D01*
X200693199Y-166332919D01*
X200554156Y-166632461D01*
X200554152Y-166632470D01*
X200552046Y-166637008D01*
X200445206Y-166960060D01*
X200444190Y-166964967D01*
X200444189Y-166964970D01*
X200426558Y-167050109D01*
X200376206Y-167293252D01*
X200345958Y-167632166D01*
X199225500Y-167632166D01*
X199225500Y-143327926D01*
X213019500Y-143327926D01*
X213026394Y-143419036D01*
X213034273Y-143470802D01*
X213051284Y-143548148D01*
X213114701Y-143692936D01*
X213157785Y-143764207D01*
X213247810Y-143879116D01*
X213345884Y-143977190D01*
X213415187Y-144036743D01*
X213457362Y-144067775D01*
X213459766Y-144069312D01*
X213459773Y-144069317D01*
X213460732Y-144069930D01*
X213524081Y-144110437D01*
X213532036Y-144113546D01*
X213532038Y-144113547D01*
X213589185Y-144135881D01*
X213671304Y-144167974D01*
X213676834Y-144169337D01*
X213676837Y-144169338D01*
X213694600Y-144173716D01*
X213752166Y-144187905D01*
X213897074Y-144205500D01*
X216152926Y-144205500D01*
X216244036Y-144198606D01*
X216247275Y-144198113D01*
X216247284Y-144198112D01*
X216292972Y-144191158D01*
X216292980Y-144191157D01*
X216295802Y-144190727D01*
X216298604Y-144190111D01*
X216298608Y-144190110D01*
X216364800Y-144175552D01*
X216373148Y-144173716D01*
X216517936Y-144110299D01*
X216589207Y-144067215D01*
X216704116Y-143977190D01*
X216802190Y-143879116D01*
X216861743Y-143809813D01*
X216892775Y-143767638D01*
X216935437Y-143700919D01*
X216992974Y-143553696D01*
X216994342Y-143548148D01*
X217011647Y-143477936D01*
X217012905Y-143472834D01*
X217030500Y-143327926D01*
X217030500Y-122579500D01*
X217050431Y-122498638D01*
X217105657Y-122436301D01*
X217183527Y-122406769D01*
X217204500Y-122405500D01*
X218352926Y-122405500D01*
X218444036Y-122398606D01*
X218447275Y-122398113D01*
X218447284Y-122398112D01*
X218492972Y-122391158D01*
X218492980Y-122391157D01*
X218495802Y-122390727D01*
X218498604Y-122390111D01*
X218498608Y-122390110D01*
X218564800Y-122375552D01*
X218573148Y-122373716D01*
X218717936Y-122310299D01*
X218789207Y-122267215D01*
X218904116Y-122177190D01*
X219002190Y-122079116D01*
X219061743Y-122009813D01*
X219092775Y-121967638D01*
X219135437Y-121900919D01*
X219192974Y-121753696D01*
X219212905Y-121672834D01*
X219230500Y-121527926D01*
X219230500Y-119772074D01*
X219223606Y-119680964D01*
X219215727Y-119629198D01*
X219198716Y-119551852D01*
X219135299Y-119407064D01*
X219092215Y-119335793D01*
X219002190Y-119220884D01*
X218904116Y-119122810D01*
X218834813Y-119063257D01*
X218792638Y-119032225D01*
X218790234Y-119030688D01*
X218790227Y-119030683D01*
X218733118Y-118994166D01*
X218733116Y-118994165D01*
X218725919Y-118989563D01*
X218717964Y-118986454D01*
X218717962Y-118986453D01*
X218628433Y-118951464D01*
X218578696Y-118932026D01*
X218573166Y-118930663D01*
X218573163Y-118930662D01*
X218547951Y-118924448D01*
X218497834Y-118912095D01*
X218352926Y-118894500D01*
X213897074Y-118894500D01*
X213805964Y-118901394D01*
X213802725Y-118901887D01*
X213802716Y-118901888D01*
X213757028Y-118908842D01*
X213757020Y-118908843D01*
X213754198Y-118909273D01*
X213751396Y-118909889D01*
X213751392Y-118909890D01*
X213735647Y-118913353D01*
X213676852Y-118926284D01*
X213532064Y-118989701D01*
X213460793Y-119032785D01*
X213345884Y-119122810D01*
X213247810Y-119220884D01*
X213188257Y-119290187D01*
X213157225Y-119332362D01*
X213155688Y-119334766D01*
X213155683Y-119334773D01*
X213119166Y-119391882D01*
X213114563Y-119399081D01*
X213057026Y-119546304D01*
X213055663Y-119551834D01*
X213055662Y-119551837D01*
X213054276Y-119557460D01*
X213037095Y-119627166D01*
X213019500Y-119772074D01*
X213019500Y-143327926D01*
X199225500Y-143327926D01*
X199225500Y-113842095D01*
X201145028Y-113842095D01*
X201145627Y-113848373D01*
X201162586Y-114026122D01*
X201170534Y-114109431D01*
X201234364Y-114370285D01*
X201236725Y-114376115D01*
X201236728Y-114376123D01*
X201245468Y-114397700D01*
X201335182Y-114619192D01*
X201338362Y-114624624D01*
X201338365Y-114624629D01*
X201342143Y-114631081D01*
X201470875Y-114850938D01*
X201638601Y-115060669D01*
X201643199Y-115064964D01*
X201830237Y-115239686D01*
X201830241Y-115239689D01*
X201834846Y-115243991D01*
X202055499Y-115397064D01*
X202295938Y-115516680D01*
X202419323Y-115557128D01*
X202545128Y-115598369D01*
X202545131Y-115598370D01*
X202551126Y-115600335D01*
X202815717Y-115646276D01*
X202900567Y-115650500D01*
X203068223Y-115650500D01*
X203267846Y-115636016D01*
X203530080Y-115578120D01*
X203781211Y-115482975D01*
X204015976Y-115352574D01*
X204229458Y-115189650D01*
X204417185Y-114997614D01*
X204575225Y-114780491D01*
X204700265Y-114542828D01*
X204789688Y-114289603D01*
X204790906Y-114283423D01*
X204790908Y-114283416D01*
X204840402Y-114032300D01*
X204841620Y-114026122D01*
X204848368Y-113890559D01*
X204854659Y-113764199D01*
X204854659Y-113764195D01*
X204854972Y-113757905D01*
X204854667Y-113754705D01*
X210770255Y-113754705D01*
X210782560Y-114010875D01*
X210783817Y-114017197D01*
X210783818Y-114017201D01*
X210800916Y-114103156D01*
X210832594Y-114262413D01*
X210834773Y-114268481D01*
X210834774Y-114268486D01*
X210842356Y-114289603D01*
X210919258Y-114503792D01*
X211040648Y-114729710D01*
X211194097Y-114935204D01*
X211376235Y-115115759D01*
X211583061Y-115267410D01*
X211588773Y-115270415D01*
X211804315Y-115383818D01*
X211804318Y-115383819D01*
X211810029Y-115386824D01*
X211816123Y-115388952D01*
X212046058Y-115469249D01*
X212046064Y-115469251D01*
X212052156Y-115471378D01*
X212058504Y-115472583D01*
X212058507Y-115472584D01*
X212097116Y-115479914D01*
X212304120Y-115519215D01*
X212438133Y-115524480D01*
X212553939Y-115529031D01*
X212553944Y-115529031D01*
X212560388Y-115529284D01*
X212728883Y-115510831D01*
X212808912Y-115502066D01*
X212808915Y-115502065D01*
X212815329Y-115501363D01*
X212821572Y-115499719D01*
X212821574Y-115499719D01*
X212929221Y-115471378D01*
X213063343Y-115436067D01*
X213069269Y-115433521D01*
X213069272Y-115433520D01*
X213293054Y-115337376D01*
X213293060Y-115337373D01*
X213298981Y-115334829D01*
X213407929Y-115267410D01*
X213511575Y-115203272D01*
X213511579Y-115203269D01*
X213517067Y-115199873D01*
X213712810Y-115034164D01*
X213717066Y-115029311D01*
X213717070Y-115029307D01*
X213877651Y-114846198D01*
X213881909Y-114841343D01*
X214020651Y-114625646D01*
X214075542Y-114503792D01*
X214123333Y-114397700D01*
X214123334Y-114397697D01*
X214125986Y-114391810D01*
X214195601Y-114144974D01*
X214199345Y-114115548D01*
X214227417Y-113894881D01*
X214227967Y-113890559D01*
X214230338Y-113800000D01*
X214211332Y-113544240D01*
X214154730Y-113294098D01*
X214092504Y-113134083D01*
X214064115Y-113061079D01*
X214064114Y-113061076D01*
X214061778Y-113055070D01*
X214041962Y-113020398D01*
X213937725Y-112838023D01*
X213937724Y-112838021D01*
X213934515Y-112832407D01*
X213775739Y-112631001D01*
X213588937Y-112455275D01*
X213530674Y-112414856D01*
X213383522Y-112312773D01*
X213378213Y-112309090D01*
X213148196Y-112195659D01*
X213142058Y-112193694D01*
X213142055Y-112193693D01*
X212910081Y-112119437D01*
X212910080Y-112119437D01*
X212903939Y-112117471D01*
X212650809Y-112076246D01*
X212644352Y-112076161D01*
X212644347Y-112076161D01*
X212526365Y-112074617D01*
X212394365Y-112072889D01*
X212140243Y-112107474D01*
X211987644Y-112151953D01*
X211900215Y-112177436D01*
X211900213Y-112177437D01*
X211894023Y-112179241D01*
X211888166Y-112181941D01*
X211888161Y-112181943D01*
X211737824Y-112251249D01*
X211661115Y-112286612D01*
X211446637Y-112427231D01*
X211255299Y-112598006D01*
X211251179Y-112602960D01*
X211251175Y-112602964D01*
X211134168Y-112743651D01*
X211091305Y-112795188D01*
X210958258Y-113014443D01*
X210859080Y-113250956D01*
X210795950Y-113499530D01*
X210795304Y-113505948D01*
X210795303Y-113505952D01*
X210788463Y-113573878D01*
X210770255Y-113754705D01*
X204854667Y-113754705D01*
X204838015Y-113580169D01*
X204830065Y-113496844D01*
X204830064Y-113496840D01*
X204829466Y-113490569D01*
X204765636Y-113229715D01*
X204763275Y-113223885D01*
X204763272Y-113223877D01*
X204694897Y-113055070D01*
X204664818Y-112980808D01*
X204529125Y-112749062D01*
X204361399Y-112539331D01*
X204237602Y-112423686D01*
X204169763Y-112360314D01*
X204169759Y-112360311D01*
X204165154Y-112356009D01*
X203944501Y-112202936D01*
X203704062Y-112083320D01*
X203580677Y-112042872D01*
X203454872Y-112001631D01*
X203454869Y-112001630D01*
X203448874Y-111999665D01*
X203184283Y-111953724D01*
X203099433Y-111949500D01*
X202931777Y-111949500D01*
X202732154Y-111963984D01*
X202469920Y-112021880D01*
X202323681Y-112077285D01*
X202239232Y-112109280D01*
X202218789Y-112117025D01*
X201984024Y-112247426D01*
X201770542Y-112410350D01*
X201582815Y-112602386D01*
X201424775Y-112819509D01*
X201299735Y-113057172D01*
X201210312Y-113310397D01*
X201209094Y-113316577D01*
X201209092Y-113316584D01*
X201177865Y-113475021D01*
X201158380Y-113573878D01*
X201158067Y-113580169D01*
X201147124Y-113800000D01*
X201145028Y-113842095D01*
X199225500Y-113842095D01*
X199225500Y-99969285D01*
X202169759Y-99969285D01*
X202184938Y-100245087D01*
X202238825Y-100515999D01*
X202240865Y-100521808D01*
X202265802Y-100592817D01*
X202330347Y-100776616D01*
X202333177Y-100782065D01*
X202333181Y-100782073D01*
X202442874Y-100993238D01*
X202457678Y-101021737D01*
X202618275Y-101246471D01*
X202808936Y-101446335D01*
X203025856Y-101617341D01*
X203031178Y-101620432D01*
X203031182Y-101620435D01*
X203083921Y-101651068D01*
X203264707Y-101756077D01*
X203270414Y-101758389D01*
X203270417Y-101758390D01*
X203515017Y-101857463D01*
X203520723Y-101859774D01*
X203788796Y-101926364D01*
X204024370Y-101950500D01*
X204195362Y-101950500D01*
X204299847Y-101943102D01*
X204394390Y-101936408D01*
X204394394Y-101936407D01*
X204400530Y-101935973D01*
X204406541Y-101934679D01*
X204406547Y-101934678D01*
X204535546Y-101906905D01*
X204670562Y-101877837D01*
X204715502Y-101861258D01*
X204923937Y-101784363D01*
X204923944Y-101784360D01*
X204929709Y-101782233D01*
X204978185Y-101756077D01*
X205167381Y-101653992D01*
X205167382Y-101653992D01*
X205172800Y-101651068D01*
X205394984Y-101486960D01*
X205591829Y-101293183D01*
X205631297Y-101241468D01*
X205755673Y-101078496D01*
X205755676Y-101078492D01*
X205759406Y-101073604D01*
X205894373Y-100832604D01*
X205961824Y-100658255D01*
X205991814Y-100580735D01*
X205991815Y-100580733D01*
X205994036Y-100574991D01*
X206056407Y-100305905D01*
X206064542Y-100211983D01*
X206079710Y-100036852D01*
X206079710Y-100036845D01*
X206080241Y-100030715D01*
X206065062Y-99754913D01*
X206011175Y-99484001D01*
X205919653Y-99223384D01*
X205916823Y-99217935D01*
X205916819Y-99217927D01*
X205795159Y-98983724D01*
X205795158Y-98983722D01*
X205792322Y-98978263D01*
X205631725Y-98753529D01*
X205441064Y-98553665D01*
X205224144Y-98382659D01*
X205218822Y-98379568D01*
X205218818Y-98379565D01*
X204990621Y-98247018D01*
X204985293Y-98243923D01*
X204979586Y-98241611D01*
X204979583Y-98241610D01*
X204734983Y-98142537D01*
X204734981Y-98142536D01*
X204729277Y-98140226D01*
X204461204Y-98073636D01*
X204225630Y-98049500D01*
X204054638Y-98049500D01*
X203950153Y-98056898D01*
X203855610Y-98063592D01*
X203855606Y-98063593D01*
X203849470Y-98064027D01*
X203843459Y-98065321D01*
X203843453Y-98065322D01*
X203714454Y-98093095D01*
X203579438Y-98122163D01*
X203573666Y-98124293D01*
X203573664Y-98124293D01*
X203326063Y-98215637D01*
X203326056Y-98215640D01*
X203320291Y-98217767D01*
X203314881Y-98220686D01*
X203314879Y-98220687D01*
X203266079Y-98247018D01*
X203077200Y-98348932D01*
X202855016Y-98513040D01*
X202658171Y-98706817D01*
X202490594Y-98926396D01*
X202355627Y-99167396D01*
X202255964Y-99425009D01*
X202193593Y-99694095D01*
X202193062Y-99700229D01*
X202170290Y-99963148D01*
X202170290Y-99963155D01*
X202169759Y-99969285D01*
X199225500Y-99969285D01*
X199225500Y-94774500D01*
X199245431Y-94693638D01*
X199300657Y-94631301D01*
X199378527Y-94601769D01*
X199399500Y-94600500D01*
X228951000Y-94600500D01*
X229031862Y-94620431D01*
G37*
G04 #@! TD.AperFunction*
G04 #@! TA.AperFunction,Conductor*
G36*
X231867969Y-211422031D02*
G01*
X231910144Y-211453063D01*
X235237943Y-214780863D01*
X235281027Y-214852134D01*
X235286056Y-214935264D01*
X235251876Y-215011209D01*
X235186318Y-215062571D01*
X235114906Y-215077900D01*
X228658122Y-215077900D01*
X228577260Y-215057969D01*
X228512028Y-214998413D01*
X228500630Y-214980794D01*
X228443155Y-214891951D01*
X228387938Y-214831268D01*
X228287438Y-214720821D01*
X228282629Y-214715536D01*
X228123346Y-214589742D01*
X228101052Y-214572135D01*
X228101051Y-214572134D01*
X228095445Y-214567707D01*
X227886631Y-214452436D01*
X227844216Y-214437416D01*
X227668519Y-214375198D01*
X227668514Y-214375197D01*
X227661794Y-214372817D01*
X227654767Y-214371565D01*
X227654766Y-214371565D01*
X227434001Y-214332240D01*
X227434000Y-214332240D01*
X227426972Y-214330988D01*
X227314581Y-214329615D01*
X227195609Y-214328161D01*
X227195606Y-214328161D01*
X227188471Y-214328074D01*
X226952698Y-214364153D01*
X226945921Y-214366368D01*
X226945917Y-214366369D01*
X226732764Y-214436038D01*
X226732761Y-214436039D01*
X226725982Y-214438255D01*
X226514414Y-214548390D01*
X226508708Y-214552674D01*
X226508702Y-214552678D01*
X226503473Y-214556604D01*
X226426843Y-214589217D01*
X226343833Y-214582482D01*
X226273462Y-214537943D01*
X226231850Y-214465802D01*
X226225000Y-214417459D01*
X226225000Y-212060956D01*
X226244931Y-211980094D01*
X226300157Y-211917757D01*
X226378027Y-211888225D01*
X226460701Y-211898263D01*
X226486787Y-211910725D01*
X226654945Y-212008988D01*
X226654952Y-212008991D01*
X226661112Y-212012591D01*
X226883937Y-212097680D01*
X226890930Y-212099103D01*
X226890931Y-212099103D01*
X227110671Y-212143810D01*
X227110673Y-212143810D01*
X227117666Y-212145233D01*
X227124796Y-212145494D01*
X227124801Y-212145495D01*
X227242552Y-212149812D01*
X227356025Y-212153973D01*
X227592609Y-212123665D01*
X227679223Y-212097680D01*
X227814232Y-212057176D01*
X227814233Y-212057175D01*
X227821068Y-212055125D01*
X228035264Y-211950191D01*
X228229445Y-211811683D01*
X228390942Y-211650749D01*
X228462289Y-211607788D01*
X228513764Y-211600000D01*
X228625000Y-211600000D01*
X228625000Y-211576100D01*
X228644931Y-211495238D01*
X228700157Y-211432901D01*
X228778027Y-211403369D01*
X228799000Y-211402100D01*
X231787107Y-211402100D01*
X231867969Y-211422031D01*
G37*
G04 #@! TD.AperFunction*
G04 #@! TA.AperFunction,Conductor*
G36*
X230235593Y-145702421D02*
G01*
X230313636Y-145717943D01*
X230359052Y-145736753D01*
X230414699Y-145773931D01*
X230449461Y-145808688D01*
X230486645Y-145864326D01*
X230505462Y-145909739D01*
X230520998Y-145987786D01*
X230523423Y-146012365D01*
X230525000Y-156400000D01*
X225137410Y-156400000D01*
X225112829Y-156397579D01*
X225103124Y-156395649D01*
X225034775Y-156382053D01*
X224989358Y-156363241D01*
X224933705Y-156326055D01*
X224898944Y-156291294D01*
X224861759Y-156235642D01*
X224842946Y-156190223D01*
X224827421Y-156112171D01*
X224825000Y-156087590D01*
X224825000Y-154200000D01*
X222825000Y-152200000D01*
X220761674Y-152200000D01*
X220737093Y-152197579D01*
X220727388Y-152195649D01*
X220659039Y-152182053D01*
X220613620Y-152163240D01*
X220547448Y-152119025D01*
X220528355Y-152103355D01*
X220321645Y-151896645D01*
X220305975Y-151877552D01*
X220261760Y-151811380D01*
X220242946Y-151765959D01*
X220227421Y-151687907D01*
X220225000Y-151663326D01*
X220225000Y-146012410D01*
X220227421Y-145987829D01*
X220242946Y-145909777D01*
X220261759Y-145864358D01*
X220298945Y-145808705D01*
X220333705Y-145773945D01*
X220389358Y-145736759D01*
X220434775Y-145717947D01*
X220512828Y-145702421D01*
X220537410Y-145700000D01*
X230211014Y-145700000D01*
X230235593Y-145702421D01*
G37*
G04 #@! TD.AperFunction*
G04 #@! TA.AperFunction,Conductor*
G36*
X230525000Y-154076221D02*
G01*
X230525000Y-175849000D01*
X230504998Y-175917121D01*
X230451342Y-175963614D01*
X230399000Y-175975000D01*
X226551000Y-175975000D01*
X226482879Y-175954998D01*
X226436386Y-175901342D01*
X226425000Y-175849000D01*
X226425000Y-154075000D01*
X230524825Y-154075000D01*
X230525000Y-154076221D01*
G37*
G04 #@! TD.AperFunction*
G04 #@! TA.AperFunction,Conductor*
G36*
X218433788Y-119519931D02*
G01*
X218475963Y-119550963D01*
X218574037Y-119649037D01*
X218617121Y-119720308D01*
X218625000Y-119772074D01*
X218625000Y-121527926D01*
X218605069Y-121608788D01*
X218574037Y-121650963D01*
X218475963Y-121749037D01*
X218404692Y-121792121D01*
X218352926Y-121800000D01*
X216425000Y-121800000D01*
X216425000Y-143327926D01*
X216405069Y-143408788D01*
X216374037Y-143450963D01*
X216275963Y-143549037D01*
X216204692Y-143592121D01*
X216152926Y-143600000D01*
X213897074Y-143600000D01*
X213816212Y-143580069D01*
X213774037Y-143549037D01*
X213675963Y-143450963D01*
X213632879Y-143379692D01*
X213625000Y-143327926D01*
X213625000Y-119772074D01*
X213644931Y-119691212D01*
X213675963Y-119649037D01*
X213774037Y-119550963D01*
X213845308Y-119507879D01*
X213897074Y-119500000D01*
X218352926Y-119500000D01*
X218433788Y-119519931D01*
G37*
G04 #@! TD.AperFunction*
M02*
