M48
INCH,TZ
T1C0.0118
T2C0.0177
T3C0.0236
T4C0.0335
T5C0.0394
T6C0.0512
T7C0.0591
T8C0.0787
T9C0.0906
T10C0.1142
%
G90
G05
T1
X78671Y-47953
X78671Y-50709
X78671Y-53622
X78671Y-56614
X78671Y-67480
X78671Y-70236
X78671Y-73150
X78671Y-76142
X78671Y-78976
X78671Y-81732
X78671Y-84646
X78671Y-87638
X78671Y-91654
X80876Y-76434
X80876Y-79134
X80876Y-81260
X82136Y-37874
X82136Y-40000
X82844Y-79134
X82844Y-81260
X82848Y-76434
X83317Y-93285
X83317Y-95984
X83317Y-98110
X83632Y-50945
X83632Y-51260
X83632Y-51575
X84104Y-37874
X84104Y-40000
X84419Y-56063
X84419Y-56378
X84734Y-56063
X84734Y-56378
X85049Y-56063
X85049Y-56378
X85049Y-65354
X85049Y-67480
X85285Y-95984
X85285Y-98110
X85289Y-93285
X85325Y-47283
X85640Y-47283
X85955Y-47283
X86073Y-49449
X87018Y-65354
X87018Y-67480
X87411Y-37874
X87411Y-40000
X87411Y-45433
X87411Y-47559
X87411Y-58819
X87411Y-59134
X87726Y-58819
X87726Y-59134
X88041Y-58819
X88041Y-59134
X88947Y-57717
X88947Y-58031
X88947Y-58346
X89065Y-99016
X89262Y-57717
X89262Y-58031
X89262Y-58346
X89262Y-60866
X89262Y-61181
X89380Y-37874
X89380Y-40000
X89380Y-45433
X89380Y-47559
X89577Y-60866
X89577Y-61181
X89892Y-60866
X89892Y-61181
X90207Y-60866
X90207Y-61181
X90242Y-89370
X90242Y-92070
X90242Y-94196
X90246Y-96063
X90246Y-97953
X90325Y-78898
X90876Y-82520
X90876Y-83937
X90955Y-76850
X91191Y-53071
X91469Y-86063
X91506Y-80630
X91821Y-73937
X91978Y-57008
X91978Y-63071
X91978Y-65354
X91978Y-67480
X92057Y-71260
X92175Y-98268
X92211Y-92070
X92211Y-94196
X92215Y-89370
X92530Y-83150
X92687Y-78898
X92687Y-81417
X93632Y-53071
X93789Y-92520
X93797Y-84953
X93947Y-63071
X93947Y-65354
X93947Y-67480
X94262Y-86535
X94341Y-80787
X94498Y-99016
X94656Y-75197
X94656Y-84646
X94970Y-73937
X94970Y-78189
X95049Y-57008
X95049Y-59961
X95049Y-89055
X95325Y-53543
X95344Y-79823
X95915Y-71260
X95994Y-96220
X96155Y-88081
X96181Y-88425
X96230Y-55906
X96506Y-52874
X97333Y-75354
X97333Y-79134
X97648Y-80394
X97884Y-63071
X97884Y-65354
X97884Y-67480
X98041Y-60000
X98356Y-98268
X98386Y-79823
X98435Y-53189
X98435Y-57795
X98986Y-93780
X99459Y-99016
X99616Y-87253
X99616Y-91654
X99852Y-63071
X99852Y-65354
X99852Y-73228
X99852Y-75354
X99852Y-79134
X100167Y-55433
X100866Y-83937
X100876Y-60236
X100876Y-84409
X101348Y-58661
X101467Y-52362
X101821Y-87261
X101821Y-91614
X101945Y-95074
X102411Y-80118
X102844Y-58346
X102844Y-73228
X102844Y-75354
X103238Y-59921
X103514Y-98268
X103711Y-55433
X103789Y-69291
X103789Y-79134
X104104Y-87261
X104104Y-91654
X104879Y-64445
X104892Y-53150
X105049Y-59843
X105312Y-99013
X105443Y-84094
X105679Y-62165
X105758Y-65354
X105758Y-67323
X105758Y-69291
X105758Y-73228
X105758Y-75354
X105760Y-80607
X106073Y-54094
X106374Y-87236
X106388Y-91654
X106388Y-95118
X106545Y-57638
X106889Y-83596
X107036Y-81276
X107096Y-55984
X107372Y-52402
X108120Y-93307
X108309Y-83038
X108338Y-81714
X108514Y-73228
X108514Y-75354
X108711Y-53150
X108750Y-62205
X108829Y-58898
X109203Y-98467
X109687Y-93292
X109695Y-65354
X109695Y-67323
X109695Y-69291
X109879Y-86734
X109931Y-99055
X110231Y-75639
X110955Y-96220
X111033Y-59764
X111306Y-70947
X111399Y-81597
X111438Y-76909
X111457Y-86336
X111522Y-92141
X111860Y-53583
X111860Y-57559
X111860Y-62165
X111860Y-68307
X111860Y-73740
X111860Y-79528
X111860Y-84409
X112057Y-64331
X112067Y-89380
X112073Y-91090
X112096Y-95621
X112100Y-97839
X112569Y-82913
X112569Y-93583
X112608Y-52913
X112608Y-66772
X112608Y-71890
X112608Y-77795
X112648Y-56220
X112648Y-61142
X112648Y-88819
T2
X83002Y-53780
X83002Y-54252
X83002Y-55118
X83002Y-55591
X83632Y-53071
X85600Y-48819
X87648Y-61260
T3
X89498Y-53110
X94862Y-91211
X103491Y-84827
X105010Y-62283
T4
X90384Y-60472
X92470Y-60472
T5
X79774Y-58425
X79774Y-59425
X79774Y-60425
X79774Y-61425
X79774Y-62425
X80915Y-92913
X80915Y-93913
X80915Y-94913
X80915Y-95913
X88484Y-67953
X88484Y-68953
X88484Y-69953
X88484Y-70953
X88484Y-71953
X88484Y-72953
X88484Y-73953
X88484Y-74953
X88484Y-75953
X88484Y-76953
X88484Y-77953
X88484Y-78953
X88484Y-79953
X88484Y-80953
X88484Y-81953
X88484Y-82953
X88484Y-83953
X88484Y-84953
X88484Y-85953
X88484Y-86953
X89484Y-67953
X89484Y-68953
X89484Y-69953
X89484Y-70953
X89484Y-71953
X89484Y-72953
X89484Y-73953
X89484Y-74953
X89484Y-75953
X89484Y-76953
X89484Y-77953
X89484Y-78953
X89484Y-79953
X89484Y-80953
X89484Y-81953
X89484Y-82953
X89484Y-83953
X89484Y-84953
X89484Y-85953
X89484Y-86953
X95882Y-111358
X95884Y-40157
X96882Y-111358
X96884Y-40157
X97096Y-92913
X97096Y-93913
X97096Y-94913
X97096Y-95913
X97882Y-111358
X97884Y-40157
X98882Y-111358
X98884Y-40157
X99882Y-111358
X99884Y-40157
X106906Y-111358
X106909Y-40157
X107906Y-111358
X107909Y-40157
X108906Y-111358
X108909Y-40157
X109906Y-111358
X109909Y-40157
X110906Y-111358
X110909Y-40157
X124852Y-55217
X124852Y-56217
X124852Y-57217
X124852Y-58217
X124852Y-59217
X124852Y-66240
X124852Y-67240
X124852Y-68240
X124852Y-69240
X124852Y-70240
X124852Y-77362
X124852Y-78362
X124852Y-79362
X124852Y-80362
X124852Y-81362
X124852Y-88287
X124852Y-89287
X124852Y-90287
X124852Y-91287
X124852Y-92287
T6
X83986Y-103189
X83986Y-111850
X87585Y-111850
X88553Y-101142
X88553Y-105142
X88553Y-108142
X89585Y-111850
X91553Y-101142
X91585Y-111850
X93825Y-43267
X93825Y-50267
X93825Y-101201
X93825Y-105201
X93825Y-108201
X96825Y-43267
X96825Y-46267
X96825Y-50267
X96825Y-101201
X96825Y-108201
X98943Y-43267
X98943Y-50267
X98943Y-101151
X98943Y-105151
X98943Y-108151
X101943Y-43267
X101943Y-46267
X101943Y-50267
X101943Y-101151
X101943Y-108151
X104774Y-101162
X104774Y-105162
X104774Y-108162
X104848Y-43267
X104848Y-50267
X107774Y-101162
X107774Y-108162
X107848Y-43267
X107848Y-46267
X107848Y-50267
X109892Y-101151
X109892Y-105151
X109892Y-108151
X109967Y-43267
X109967Y-50267
X112892Y-101151
X112892Y-108151
X112967Y-43267
X112967Y-46267
X112967Y-50267
X114694Y-53224
X114694Y-56224
X114694Y-58343
X114694Y-61343
X114694Y-64248
X114694Y-67248
X114694Y-69366
X114694Y-72366
X114694Y-75272
X114694Y-78272
X114694Y-80390
X114694Y-83390
X114694Y-86295
X114694Y-89295
X114694Y-91413
X114694Y-94413
X118694Y-56224
X118694Y-61343
X118694Y-67248
X118694Y-72366
X118694Y-78272
X118694Y-83390
X118694Y-89295
X118694Y-94413
X121694Y-53224
X121694Y-56224
X121694Y-58343
X121694Y-61343
X121694Y-64248
X121694Y-67248
X121694Y-69366
X121694Y-72366
X121694Y-75272
X121694Y-78272
X121694Y-80390
X121694Y-83390
X121694Y-86295
X121694Y-89295
X121694Y-91413
X121694Y-94413
T7
X83661Y-44803
T8
X82402Y-42756
X82402Y-44803
T9
X79528Y-42402
X79528Y-46260
T10
X80039Y-66033
X80039Y-88868
T0
M30
