%TF.GenerationSoftware,KiCad,Pcbnew,8.0.2*%
%TF.CreationDate,2024-05-28T09:54:11+02:00*%
%TF.ProjectId,esp_mini_open_brd,6573705f-6d69-46e6-995f-6f70656e5f62,rev?*%
%TF.SameCoordinates,Original*%
%TF.FileFunction,Paste,Top*%
%TF.FilePolarity,Positive*%
%FSLAX46Y46*%
G04 Gerber Fmt 4.6, Leading zero omitted, Abs format (unit mm)*
G04 Created by KiCad (PCBNEW 8.0.2) date 2024-05-28 09:54:11*
%MOMM*%
%LPD*%
G01*
G04 APERTURE LIST*
G04 Aperture macros list*
%AMRoundRect*
0 Rectangle with rounded corners*
0 $1 Rounding radius*
0 $2 $3 $4 $5 $6 $7 $8 $9 X,Y pos of 4 corners*
0 Add a 4 corners polygon primitive as box body*
4,1,4,$2,$3,$4,$5,$6,$7,$8,$9,$2,$3,0*
0 Add four circle primitives for the rounded corners*
1,1,$1+$1,$2,$3*
1,1,$1+$1,$4,$5*
1,1,$1+$1,$6,$7*
1,1,$1+$1,$8,$9*
0 Add four rect primitives between the rounded corners*
20,1,$1+$1,$2,$3,$4,$5,0*
20,1,$1+$1,$4,$5,$6,$7,0*
20,1,$1+$1,$6,$7,$8,$9,0*
20,1,$1+$1,$8,$9,$2,$3,0*%
G04 Aperture macros list end*
%ADD10RoundRect,0.140000X0.170000X-0.140000X0.170000X0.140000X-0.170000X0.140000X-0.170000X-0.140000X0*%
%ADD11RoundRect,0.250000X0.325000X0.650000X-0.325000X0.650000X-0.325000X-0.650000X0.325000X-0.650000X0*%
%ADD12RoundRect,0.225000X-0.250000X0.225000X-0.250000X-0.225000X0.250000X-0.225000X0.250000X0.225000X0*%
%ADD13R,2.200000X2.800000*%
%ADD14R,0.620000X1.470000*%
%ADD15R,0.650000X0.640000*%
%ADD16R,0.600000X0.620000*%
%ADD17R,1.450000X1.200000*%
%ADD18R,1.475000X0.450000*%
%ADD19RoundRect,0.135000X0.185000X-0.135000X0.185000X0.135000X-0.185000X0.135000X-0.185000X-0.135000X0*%
%ADD20R,1.000000X1.420000*%
%ADD21RoundRect,0.140000X-0.170000X0.140000X-0.170000X-0.140000X0.170000X-0.140000X0.170000X0.140000X0*%
%ADD22R,0.700000X0.650000*%
%ADD23RoundRect,0.135000X0.135000X0.185000X-0.135000X0.185000X-0.135000X-0.185000X0.135000X-0.185000X0*%
%ADD24RoundRect,0.135000X-0.185000X0.135000X-0.185000X-0.135000X0.185000X-0.135000X0.185000X0.135000X0*%
%ADD25R,0.650000X0.700000*%
%ADD26R,0.650000X1.925000*%
%ADD27R,0.492000X0.300000*%
%ADD28RoundRect,0.140000X-0.140000X-0.170000X0.140000X-0.170000X0.140000X0.170000X-0.140000X0.170000X0*%
%ADD29R,1.900000X5.100000*%
%ADD30RoundRect,0.225000X0.225000X0.250000X-0.225000X0.250000X-0.225000X-0.250000X0.225000X-0.250000X0*%
%ADD31RoundRect,0.135000X-0.135000X-0.185000X0.135000X-0.185000X0.135000X0.185000X-0.135000X0.185000X0*%
%ADD32R,0.740000X2.790000*%
%ADD33RoundRect,0.250000X-0.325000X-0.650000X0.325000X-0.650000X0.325000X0.650000X-0.325000X0.650000X0*%
%ADD34R,0.700000X0.300000*%
%ADD35R,1.000000X1.800000*%
%ADD36R,0.850000X2.200000*%
G04 APERTURE END LIST*
D10*
X129355638Y-152043910D03*
X129355638Y-151083910D03*
D11*
X110780638Y-72153910D03*
X107830638Y-72153910D03*
D12*
X120029229Y-77061884D03*
X120029229Y-78611884D03*
D13*
X123105638Y-108638910D03*
X123105638Y-103838910D03*
D14*
X169605638Y-81513910D03*
X171605638Y-81513910D03*
D15*
X161767119Y-80245455D03*
X160867119Y-80245455D03*
D16*
X169545638Y-80113910D03*
X170465638Y-80113910D03*
X161777119Y-81312255D03*
X160857119Y-81312255D03*
X170966319Y-67164455D03*
X171886319Y-67164455D03*
D15*
X161716319Y-67088255D03*
X160816319Y-67088255D03*
D16*
X161726319Y-65996055D03*
X160806319Y-65996055D03*
D17*
X171248519Y-65728455D03*
X171248519Y-64028455D03*
D18*
X161782719Y-84782255D03*
X161782719Y-85432255D03*
X161782719Y-86082255D03*
X161782719Y-86732255D03*
X167658719Y-86732255D03*
X167658719Y-86082255D03*
X167658719Y-85432255D03*
X167658719Y-84782255D03*
D19*
X170225919Y-86583655D03*
X170225919Y-85563655D03*
D20*
X165944719Y-62513910D03*
X167814719Y-62513910D03*
D12*
X121537012Y-77058855D03*
X121537012Y-78608855D03*
D21*
X113405638Y-75153910D03*
X113405638Y-76113910D03*
D22*
X109093387Y-96639052D03*
X107993387Y-96639052D03*
D23*
X109006699Y-95295474D03*
X107986699Y-95295474D03*
D19*
X125805638Y-143423910D03*
X125805638Y-142403910D03*
D24*
X124855638Y-145203910D03*
X124855638Y-146223910D03*
D25*
X125805638Y-139913910D03*
X125805638Y-141113910D03*
X124841781Y-148713910D03*
X124841781Y-147513910D03*
D26*
X160631319Y-78353455D03*
X161901319Y-78353455D03*
X163171319Y-78353455D03*
X164441319Y-78353455D03*
X165711319Y-78353455D03*
X166981319Y-78353455D03*
X168251319Y-78353455D03*
X169521319Y-78353455D03*
X170791319Y-78353455D03*
X172061319Y-78353455D03*
X172061319Y-68929455D03*
X170791319Y-68929455D03*
X169521319Y-68929455D03*
X168251319Y-68929455D03*
X166981319Y-68929455D03*
X165711319Y-68929455D03*
X164441319Y-68929455D03*
X163171319Y-68929455D03*
X161901319Y-68929455D03*
X160631319Y-68929455D03*
D17*
X173255119Y-65728455D03*
X173255119Y-64028455D03*
D25*
X172350919Y-87848655D03*
X172350919Y-89048655D03*
X170225919Y-87848655D03*
X170225919Y-89048655D03*
D14*
X171255638Y-62213910D03*
X173255638Y-62213910D03*
D22*
X109128199Y-92251025D03*
X108028199Y-92251025D03*
D23*
X109011328Y-93592281D03*
X107991328Y-93592281D03*
D19*
X172250919Y-86583655D03*
X172250919Y-85563655D03*
D16*
X167740519Y-83471255D03*
X168660519Y-83471255D03*
D27*
X110868204Y-73853984D03*
X110868204Y-74353984D03*
X110868204Y-74853984D03*
X112536204Y-74853984D03*
X112536204Y-74353984D03*
X112536204Y-73853984D03*
D28*
X122100638Y-93950410D03*
X123060638Y-93950410D03*
D24*
X115130638Y-114128910D03*
X115130638Y-115148910D03*
X126480638Y-145228910D03*
X126480638Y-146248910D03*
X113880638Y-114103910D03*
X113880638Y-115123910D03*
X112605638Y-71843910D03*
X112605638Y-72863910D03*
D29*
X112930638Y-80853910D03*
X117130638Y-80853910D03*
D30*
X132280638Y-98513910D03*
X130730638Y-98513910D03*
D31*
X121995638Y-99025410D03*
X123015638Y-99025410D03*
X119808835Y-95763910D03*
X120828835Y-95763910D03*
D13*
X123205638Y-121263910D03*
X123205638Y-116463910D03*
D32*
X116420638Y-107203910D03*
X116420638Y-111273910D03*
X115150638Y-107203910D03*
X115150638Y-111273910D03*
X113880638Y-107203910D03*
X113880638Y-111273910D03*
X112610638Y-107203910D03*
X112610638Y-111273910D03*
X111340638Y-107203910D03*
X111340638Y-111273910D03*
D33*
X117530638Y-97425410D03*
X120480638Y-97425410D03*
D25*
X126605638Y-148713910D03*
X126605638Y-147513910D03*
D19*
X113605638Y-72863910D03*
X113605638Y-71843910D03*
D30*
X132280638Y-95413910D03*
X130730638Y-95413910D03*
D34*
X121965638Y-96013910D03*
X121965638Y-96513910D03*
X121965638Y-97013910D03*
X121965638Y-97513910D03*
X124065638Y-97513910D03*
X124065638Y-97013910D03*
X124065638Y-96513910D03*
X124065638Y-96013910D03*
D35*
X123015638Y-96763910D03*
D36*
X126490638Y-96995410D03*
X128540638Y-96995410D03*
D24*
X112630638Y-114128910D03*
X112630638Y-115148910D03*
D31*
X122070638Y-94925410D03*
X123090638Y-94925410D03*
D24*
X116430638Y-114128910D03*
X116430638Y-115148910D03*
D31*
X119806559Y-94763910D03*
X120826559Y-94763910D03*
M02*
