%TF.GenerationSoftware,KiCad,Pcbnew,8.0.2*%
%TF.CreationDate,2024-05-28T09:54:10+02:00*%
%TF.ProjectId,esp_mini_open_brd,6573705f-6d69-46e6-995f-6f70656e5f62,rev?*%
%TF.SameCoordinates,Original*%
%TF.FileFunction,Copper,L1,Top*%
%TF.FilePolarity,Positive*%
%FSLAX46Y46*%
G04 Gerber Fmt 4.6, Leading zero omitted, Abs format (unit mm)*
G04 Created by KiCad (PCBNEW 8.0.2) date 2024-05-28 09:54:10*
%MOMM*%
%LPD*%
G01*
G04 APERTURE LIST*
G04 Aperture macros list*
%AMRoundRect*
0 Rectangle with rounded corners*
0 $1 Rounding radius*
0 $2 $3 $4 $5 $6 $7 $8 $9 X,Y pos of 4 corners*
0 Add a 4 corners polygon primitive as box body*
4,1,4,$2,$3,$4,$5,$6,$7,$8,$9,$2,$3,0*
0 Add four circle primitives for the rounded corners*
1,1,$1+$1,$2,$3*
1,1,$1+$1,$4,$5*
1,1,$1+$1,$6,$7*
1,1,$1+$1,$8,$9*
0 Add four rect primitives between the rounded corners*
20,1,$1+$1,$2,$3,$4,$5,0*
20,1,$1+$1,$4,$5,$6,$7,0*
20,1,$1+$1,$6,$7,$8,$9,0*
20,1,$1+$1,$8,$9,$2,$3,0*%
%AMHorizOval*
0 Thick line with rounded ends*
0 $1 width*
0 $2 $3 position (X,Y) of the first rounded end (center of the circle)*
0 $4 $5 position (X,Y) of the second rounded end (center of the circle)*
0 Add line between two ends*
20,1,$1,$2,$3,$4,$5,0*
0 Add two circle primitives to create the rounded ends*
1,1,$1,$2,$3*
1,1,$1,$4,$5*%
%AMRotRect*
0 Rectangle, with rotation*
0 The origin of the aperture is its center*
0 $1 length*
0 $2 width*
0 $3 Rotation angle, in degrees counterclockwise*
0 Add horizontal line*
21,1,$1,$2,0,0,$3*%
%AMFreePoly0*
4,1,6,1.000000,0.000000,0.500000,-0.750000,-0.500000,-0.750000,-0.500000,0.750000,0.500000,0.750000,1.000000,0.000000,1.000000,0.000000,$1*%
%AMFreePoly1*
4,1,7,0.700000,0.000000,1.200000,-0.750000,-1.200000,-0.750000,-0.700000,0.000000,-1.200000,0.750000,1.200000,0.750000,0.700000,0.000000,0.700000,0.000000,$1*%
G04 Aperture macros list end*
%TA.AperFunction,SMDPad,CuDef*%
%ADD10RoundRect,0.140000X0.170000X-0.140000X0.170000X0.140000X-0.170000X0.140000X-0.170000X-0.140000X0*%
%TD*%
%TA.AperFunction,SMDPad,CuDef*%
%ADD11RoundRect,0.250000X0.325000X0.650000X-0.325000X0.650000X-0.325000X-0.650000X0.325000X-0.650000X0*%
%TD*%
%TA.AperFunction,SMDPad,CuDef*%
%ADD12RoundRect,0.225000X-0.250000X0.225000X-0.250000X-0.225000X0.250000X-0.225000X0.250000X0.225000X0*%
%TD*%
%TA.AperFunction,ComponentPad*%
%ADD13R,1.530000X1.530000*%
%TD*%
%TA.AperFunction,ComponentPad*%
%ADD14C,1.530000*%
%TD*%
%TA.AperFunction,SMDPad,CuDef*%
%ADD15R,2.200000X2.800000*%
%TD*%
%TA.AperFunction,ComponentPad*%
%ADD16O,1.308000X2.616000*%
%TD*%
%TA.AperFunction,SMDPad,CuDef*%
%ADD17R,0.620000X1.470000*%
%TD*%
%TA.AperFunction,SMDPad,CuDef*%
%ADD18R,0.650000X0.640000*%
%TD*%
%TA.AperFunction,SMDPad,CuDef*%
%ADD19R,0.600000X0.620000*%
%TD*%
%TA.AperFunction,SMDPad,CuDef*%
%ADD20R,1.450000X1.200000*%
%TD*%
%TA.AperFunction,SMDPad,CuDef*%
%ADD21R,1.475000X0.450000*%
%TD*%
%TA.AperFunction,ComponentPad*%
%ADD22C,1.950000*%
%TD*%
%TA.AperFunction,SMDPad,CuDef*%
%ADD23RoundRect,0.135000X0.185000X-0.135000X0.185000X0.135000X-0.185000X0.135000X-0.185000X-0.135000X0*%
%TD*%
%TA.AperFunction,SMDPad,CuDef*%
%ADD24R,1.000000X1.420000*%
%TD*%
%TA.AperFunction,SMDPad,CuDef*%
%ADD25RoundRect,0.140000X-0.170000X0.140000X-0.170000X-0.140000X0.170000X-0.140000X0.170000X0.140000X0*%
%TD*%
%TA.AperFunction,SMDPad,CuDef*%
%ADD26R,0.700000X0.650000*%
%TD*%
%TA.AperFunction,SMDPad,CuDef*%
%ADD27RoundRect,0.135000X0.135000X0.185000X-0.135000X0.185000X-0.135000X-0.185000X0.135000X-0.185000X0*%
%TD*%
%TA.AperFunction,SMDPad,CuDef*%
%ADD28RoundRect,0.135000X-0.185000X0.135000X-0.185000X-0.135000X0.185000X-0.135000X0.185000X0.135000X0*%
%TD*%
%TA.AperFunction,SMDPad,CuDef*%
%ADD29R,0.650000X0.700000*%
%TD*%
%TA.AperFunction,SMDPad,CuDef*%
%ADD30R,0.650000X1.925000*%
%TD*%
%TA.AperFunction,SMDPad,CuDef*%
%ADD31R,0.492000X0.300000*%
%TD*%
%TA.AperFunction,SMDPad,CuDef*%
%ADD32RoundRect,0.140000X-0.140000X-0.170000X0.140000X-0.170000X0.140000X0.170000X-0.140000X0.170000X0*%
%TD*%
%TA.AperFunction,ComponentPad*%
%ADD33R,1.700000X1.700000*%
%TD*%
%TA.AperFunction,ComponentPad*%
%ADD34O,1.700000X1.700000*%
%TD*%
%TA.AperFunction,SMDPad,CuDef*%
%ADD35FreePoly0,0.000000*%
%TD*%
%TA.AperFunction,SMDPad,CuDef*%
%ADD36FreePoly1,0.000000*%
%TD*%
%TA.AperFunction,SMDPad,CuDef*%
%ADD37FreePoly0,180.000000*%
%TD*%
%TA.AperFunction,SMDPad,CuDef*%
%ADD38R,1.900000X5.100000*%
%TD*%
%TA.AperFunction,SMDPad,CuDef*%
%ADD39RoundRect,0.225000X0.225000X0.250000X-0.225000X0.250000X-0.225000X-0.250000X0.225000X-0.250000X0*%
%TD*%
%TA.AperFunction,SMDPad,CuDef*%
%ADD40RoundRect,0.135000X-0.135000X-0.185000X0.135000X-0.185000X0.135000X0.185000X-0.135000X0.185000X0*%
%TD*%
%TA.AperFunction,SMDPad,CuDef*%
%ADD41R,0.740000X2.790000*%
%TD*%
%TA.AperFunction,SMDPad,CuDef*%
%ADD42RoundRect,0.250000X-0.325000X-0.650000X0.325000X-0.650000X0.325000X0.650000X-0.325000X0.650000X0*%
%TD*%
%TA.AperFunction,SMDPad,CuDef*%
%ADD43R,0.700000X0.300000*%
%TD*%
%TA.AperFunction,SMDPad,CuDef*%
%ADD44R,1.000000X1.800000*%
%TD*%
%TA.AperFunction,SMDPad,CuDef*%
%ADD45R,0.850000X2.200000*%
%TD*%
%TA.AperFunction,ComponentPad*%
%ADD46RotRect,1.700000X1.700000X135.000000*%
%TD*%
%TA.AperFunction,ComponentPad*%
%ADD47HorizOval,1.700000X0.000000X0.000000X0.000000X0.000000X0*%
%TD*%
%TA.AperFunction,ComponentPad*%
%ADD48HorizOval,1.700000X0.000000X0.000000X0.000000X0.000000X0*%
%TD*%
%TA.AperFunction,ComponentPad*%
%ADD49RotRect,1.700000X1.700000X225.000000*%
%TD*%
%TA.AperFunction,ViaPad*%
%ADD50C,0.600000*%
%TD*%
%TA.AperFunction,ViaPad*%
%ADD51C,0.500000*%
%TD*%
%TA.AperFunction,ViaPad*%
%ADD52C,0.400000*%
%TD*%
%TA.AperFunction,Conductor*%
%ADD53C,0.200000*%
%TD*%
%TA.AperFunction,Conductor*%
%ADD54C,0.500000*%
%TD*%
%TA.AperFunction,Conductor*%
%ADD55C,0.450000*%
%TD*%
%TA.AperFunction,Conductor*%
%ADD56C,0.250000*%
%TD*%
%TA.AperFunction,Conductor*%
%ADD57C,0.350000*%
%TD*%
%TA.AperFunction,Conductor*%
%ADD58C,0.300000*%
%TD*%
%TA.AperFunction,Conductor*%
%ADD59C,0.150000*%
%TD*%
G04 APERTURE END LIST*
D10*
X129355638Y-152043910D03*
X129355638Y-151083910D03*
D11*
X110780638Y-72153910D03*
X107830638Y-72153910D03*
D12*
X120029229Y-77061884D03*
X120029229Y-78611884D03*
D13*
X131678138Y-106313910D03*
D14*
X131678138Y-108853910D03*
X131678138Y-111393910D03*
X131678138Y-113933910D03*
X131678138Y-116473910D03*
X131678138Y-119013910D03*
X131678138Y-121553910D03*
X131678138Y-124093910D03*
X131678138Y-126633910D03*
X131678138Y-129173910D03*
X131678138Y-131713910D03*
X131678138Y-134253910D03*
X131678138Y-136793910D03*
X131678138Y-139333910D03*
X131678138Y-141873910D03*
X131678138Y-144413910D03*
X131678138Y-146953910D03*
X131678138Y-149493910D03*
X131678138Y-152033910D03*
X157078138Y-152033910D03*
X157078138Y-149493910D03*
X157078138Y-146953910D03*
X157078138Y-144413910D03*
X157078138Y-141873910D03*
X157078138Y-139333910D03*
X157078138Y-136793910D03*
X157078138Y-134253910D03*
X157078138Y-131713910D03*
X157078138Y-129173910D03*
X157078138Y-126633910D03*
X157078138Y-124093910D03*
X157078138Y-121553910D03*
X157078138Y-119013910D03*
X157078138Y-116473910D03*
X157078138Y-113933910D03*
X157078138Y-111393910D03*
X157078138Y-108853910D03*
X157078138Y-106313910D03*
D15*
X123105638Y-108638910D03*
X123105638Y-103838910D03*
D16*
X110950919Y-64126410D03*
X119550919Y-64126410D03*
X114350919Y-64126410D03*
X120450919Y-56826410D03*
X110550919Y-56826410D03*
D17*
X169605638Y-81513910D03*
X171605638Y-81513910D03*
D18*
X161767119Y-80245455D03*
X160867119Y-80245455D03*
D19*
X169545638Y-80113910D03*
X170465638Y-80113910D03*
X161777119Y-81312255D03*
X160857119Y-81312255D03*
X170966319Y-67164455D03*
X171886319Y-67164455D03*
D18*
X161716319Y-67088255D03*
X160816319Y-67088255D03*
D19*
X161726319Y-65996055D03*
X160806319Y-65996055D03*
D20*
X171248519Y-65728455D03*
X171248519Y-64028455D03*
D21*
X161782719Y-84782255D03*
X161782719Y-85432255D03*
X161782719Y-86082255D03*
X161782719Y-86732255D03*
X167658719Y-86732255D03*
X167658719Y-86082255D03*
X167658719Y-85432255D03*
X167658719Y-84782255D03*
D22*
X167997319Y-57513910D03*
X165457319Y-57513910D03*
D23*
X170225919Y-86583655D03*
X170225919Y-85563655D03*
D24*
X165944719Y-62513910D03*
X167814719Y-62513910D03*
D12*
X121537012Y-77058855D03*
X121537012Y-78608855D03*
D25*
X113405638Y-75153910D03*
X113405638Y-76113910D03*
D26*
X109093387Y-96639052D03*
X107993387Y-96639052D03*
D27*
X109006699Y-95295474D03*
X107986699Y-95295474D03*
D23*
X125805638Y-143423910D03*
X125805638Y-142403910D03*
D28*
X124855638Y-145203910D03*
X124855638Y-146223910D03*
D29*
X125805638Y-139913910D03*
X125805638Y-141113910D03*
X124841781Y-148713910D03*
X124841781Y-147513910D03*
D30*
X160631319Y-78353455D03*
X161901319Y-78353455D03*
X163171319Y-78353455D03*
X164441319Y-78353455D03*
X165711319Y-78353455D03*
X166981319Y-78353455D03*
X168251319Y-78353455D03*
X169521319Y-78353455D03*
X170791319Y-78353455D03*
X172061319Y-78353455D03*
X172061319Y-68929455D03*
X170791319Y-68929455D03*
X169521319Y-68929455D03*
X168251319Y-68929455D03*
X166981319Y-68929455D03*
X165711319Y-68929455D03*
X164441319Y-68929455D03*
X163171319Y-68929455D03*
X161901319Y-68929455D03*
X160631319Y-68929455D03*
D20*
X173255119Y-65728455D03*
X173255119Y-64028455D03*
D29*
X172350919Y-87848655D03*
X172350919Y-89048655D03*
X170225919Y-87848655D03*
X170225919Y-89048655D03*
D17*
X171255638Y-62213910D03*
X173255638Y-62213910D03*
D26*
X109128199Y-92251025D03*
X108028199Y-92251025D03*
D27*
X109011328Y-93592281D03*
X107991328Y-93592281D03*
D23*
X172250919Y-86583655D03*
X172250919Y-85563655D03*
D19*
X167740519Y-83471255D03*
X168660519Y-83471255D03*
D31*
X110868204Y-73853984D03*
X110868204Y-74353984D03*
X110868204Y-74853984D03*
X112536204Y-74853984D03*
X112536204Y-74353984D03*
X112536204Y-73853984D03*
D32*
X122100638Y-93950410D03*
X123060638Y-93950410D03*
D28*
X115130638Y-114128910D03*
X115130638Y-115148910D03*
X126480638Y-145228910D03*
X126480638Y-146248910D03*
D33*
X114005638Y-150513910D03*
D34*
X116545638Y-150513910D03*
X119085638Y-150513910D03*
D28*
X113880638Y-114103910D03*
X113880638Y-115123910D03*
D33*
X164205638Y-96113910D03*
D34*
X161665638Y-96113910D03*
X159125638Y-96113910D03*
D28*
X112605638Y-71843910D03*
X112605638Y-72863910D03*
D33*
X163705638Y-148713910D03*
D34*
X163705638Y-146173910D03*
X163705638Y-143633910D03*
X163705638Y-141093910D03*
X163705638Y-138553910D03*
X163705638Y-136013910D03*
X163705638Y-133473910D03*
X163705638Y-130933910D03*
X163705638Y-128393910D03*
X163705638Y-125853910D03*
X163705638Y-123313910D03*
X163705638Y-120773910D03*
X163705638Y-118233910D03*
X163705638Y-115693910D03*
X163705638Y-113153910D03*
X163705638Y-110613910D03*
X163705638Y-108073910D03*
X163705638Y-105533910D03*
D33*
X169605638Y-101313910D03*
D34*
X169605638Y-98773910D03*
X169605638Y-96233910D03*
D35*
X119855638Y-130413910D03*
D36*
X121855638Y-130413910D03*
D37*
X123855638Y-130413910D03*
D33*
X154605638Y-67893910D03*
D34*
X154605638Y-70433910D03*
X154605638Y-72973910D03*
X154605638Y-75513910D03*
X154605638Y-78053910D03*
X154605638Y-80593910D03*
D38*
X112930638Y-80853910D03*
X117130638Y-80853910D03*
D33*
X103705638Y-69193910D03*
D34*
X103705638Y-71733910D03*
X103705638Y-74273910D03*
X103705638Y-76813910D03*
D33*
X146255638Y-67538910D03*
D34*
X146255638Y-64998910D03*
X143715638Y-67538910D03*
X143715638Y-64998910D03*
X141175638Y-67538910D03*
X141175638Y-64998910D03*
X138635638Y-67538910D03*
X138635638Y-64998910D03*
X136095638Y-67538910D03*
X136095638Y-64998910D03*
X133555638Y-67538910D03*
X133555638Y-64998910D03*
X131015638Y-67538910D03*
X131015638Y-64998910D03*
D33*
X114005638Y-143113910D03*
D34*
X116545638Y-143113910D03*
X119085638Y-143113910D03*
D39*
X132280638Y-98513910D03*
X130730638Y-98513910D03*
D40*
X121995638Y-99025410D03*
X123015638Y-99025410D03*
X119808835Y-95763910D03*
X120828835Y-95763910D03*
D35*
X119855638Y-126613910D03*
D36*
X121855638Y-126613910D03*
D37*
X123855638Y-126613910D03*
D15*
X123205638Y-121263910D03*
X123205638Y-116463910D03*
D41*
X116420638Y-107203910D03*
X116420638Y-111273910D03*
X115150638Y-107203910D03*
X115150638Y-111273910D03*
X113880638Y-107203910D03*
X113880638Y-111273910D03*
X112610638Y-107203910D03*
X112610638Y-111273910D03*
X111340638Y-107203910D03*
X111340638Y-111273910D03*
D33*
X103605638Y-90573910D03*
D34*
X103605638Y-93113910D03*
X103605638Y-95653910D03*
X103605638Y-98193910D03*
D42*
X117530638Y-97425410D03*
X120480638Y-97425410D03*
D29*
X126605638Y-148713910D03*
X126605638Y-147513910D03*
D23*
X113605638Y-72863910D03*
X113605638Y-71843910D03*
D33*
X164205638Y-101313910D03*
D34*
X161665638Y-101313910D03*
X159125638Y-101313910D03*
D35*
X119855638Y-134463910D03*
D36*
X121855638Y-134463910D03*
D37*
X123855638Y-134463910D03*
D39*
X132280638Y-95413910D03*
X130730638Y-95413910D03*
D33*
X115155638Y-101063910D03*
D34*
X112615638Y-101063910D03*
D43*
X121965638Y-96013910D03*
X121965638Y-96513910D03*
X121965638Y-97013910D03*
X121965638Y-97513910D03*
X124065638Y-97513910D03*
X124065638Y-97013910D03*
X124065638Y-96513910D03*
X124065638Y-96013910D03*
D44*
X123015638Y-96763910D03*
D45*
X126490638Y-96995410D03*
X128540638Y-96995410D03*
D28*
X112630638Y-114128910D03*
X112630638Y-115148910D03*
D40*
X122070638Y-94925410D03*
X123090638Y-94925410D03*
D28*
X116430638Y-114128910D03*
X116430638Y-115148910D03*
D40*
X119806559Y-94763910D03*
X120826559Y-94763910D03*
D33*
X170605638Y-105473910D03*
D34*
X170605638Y-108013910D03*
X170605638Y-110553910D03*
X170605638Y-113093910D03*
X170605638Y-115633910D03*
X170605638Y-118173910D03*
X170605638Y-120713910D03*
X170605638Y-123253910D03*
X170605638Y-125793910D03*
X170605638Y-128333910D03*
X170605638Y-130873910D03*
X170605638Y-133413910D03*
X170605638Y-135953910D03*
X170605638Y-138493910D03*
X170605638Y-141033910D03*
X170605638Y-143573910D03*
X170605638Y-146113910D03*
X170605638Y-148653910D03*
D33*
X103605638Y-148533910D03*
D34*
X103605638Y-145993910D03*
X103605638Y-143453910D03*
X103605638Y-140913910D03*
X103605638Y-138373910D03*
X103605638Y-135833910D03*
X103605638Y-133293910D03*
X103605638Y-130753910D03*
X103605638Y-128213910D03*
X103605638Y-125673910D03*
X103605638Y-123133910D03*
X103605638Y-120593910D03*
X103605638Y-118053910D03*
X103605638Y-115513910D03*
X103605638Y-112973910D03*
X103605638Y-110433910D03*
X103605638Y-107893910D03*
X103605638Y-105353910D03*
D46*
X101157200Y-57162347D03*
D47*
X99361149Y-58958398D03*
D48*
X176726689Y-58884961D03*
D49*
X174930638Y-57088910D03*
D50*
X149965638Y-106873910D03*
X130205638Y-127033910D03*
X130735638Y-122823910D03*
X135475638Y-125093910D03*
X135475638Y-120303910D03*
X142465638Y-77443910D03*
X142395638Y-73053910D03*
X142465638Y-68693910D03*
X143595638Y-94113910D03*
X143615638Y-111293910D03*
X143615638Y-107173910D03*
X129745638Y-135693910D03*
X166865638Y-103913910D03*
X166455638Y-94373910D03*
X160385638Y-95023910D03*
X157105638Y-101753910D03*
X160495638Y-98423910D03*
X161635638Y-141073910D03*
X159525638Y-133623910D03*
X159005638Y-130683910D03*
X159915638Y-123643910D03*
X159335638Y-128493910D03*
X155505638Y-125313910D03*
X159325638Y-125673910D03*
X158905638Y-118963910D03*
X159895638Y-117113910D03*
X159445638Y-115083910D03*
X159365638Y-107603910D03*
X159485638Y-111573910D03*
X152765638Y-120873910D03*
X151625638Y-113643910D03*
X154665638Y-137983910D03*
X154665638Y-130083910D03*
X154675638Y-134253910D03*
X164105638Y-62709910D03*
X164105638Y-61693910D03*
X161705638Y-60339910D03*
X161705638Y-61355910D03*
X161705638Y-59323910D03*
X173275638Y-61063910D03*
X173415638Y-59153910D03*
X175345638Y-61183910D03*
X174245638Y-60093910D03*
X172415638Y-58093910D03*
X171565638Y-56187910D03*
X171565638Y-57203910D03*
X171565638Y-55171910D03*
X158715638Y-56227910D03*
X158715638Y-57243910D03*
X158715638Y-55211910D03*
X158665638Y-62157910D03*
X158665638Y-63173910D03*
X158665638Y-61141910D03*
X158635638Y-67347910D03*
X158635638Y-68363910D03*
X158635638Y-66331910D03*
X173875638Y-69253910D03*
X93605638Y-114843910D03*
X93605638Y-112303910D03*
X93605638Y-102913910D03*
X93605638Y-100373910D03*
X93605638Y-101643910D03*
X93605638Y-99103910D03*
X93605638Y-116113910D03*
X93605638Y-113573910D03*
X125805638Y-112213910D03*
X115123681Y-105495026D03*
X124535638Y-112213910D03*
X109128199Y-91588910D03*
X136705638Y-135513910D03*
X151605638Y-62513910D03*
X104805638Y-119113910D03*
X135105638Y-114513910D03*
X157405638Y-83413910D03*
X104805638Y-116713910D03*
X159905638Y-80213910D03*
X93605638Y-136313910D03*
X124450919Y-77558655D03*
X121605638Y-103913910D03*
X126305638Y-139213910D03*
X129455638Y-55313910D03*
X167355638Y-129513910D03*
X135405638Y-102513910D03*
X128185638Y-55313910D03*
X93605638Y-62893910D03*
X159605638Y-138613910D03*
D51*
X168725919Y-86098655D03*
D50*
X161820078Y-87414433D03*
X121508277Y-76152696D03*
X124605638Y-103913910D03*
X113851508Y-105508854D03*
X121605638Y-116413910D03*
X167357769Y-134713910D03*
X93605638Y-132503910D03*
X93605638Y-86443910D03*
X124450919Y-76288655D03*
X112805638Y-137113910D03*
X167330638Y-115913910D03*
X113030638Y-132388910D03*
X93605638Y-133773910D03*
X119805638Y-94113910D03*
X110205638Y-74888910D03*
X150605638Y-142913910D03*
X93605638Y-82633910D03*
X141205638Y-138613910D03*
X182005638Y-147043910D03*
X109105638Y-97413910D03*
X132280638Y-94513910D03*
X182005638Y-145773910D03*
X129305638Y-150413910D03*
X121995638Y-112213910D03*
X154205638Y-84713910D03*
X124375638Y-55313910D03*
X93605638Y-66703910D03*
X93605638Y-85173910D03*
X155805638Y-55303910D03*
X93605638Y-64163910D03*
X130725638Y-55313910D03*
X182005638Y-80053910D03*
X116594888Y-97423910D03*
X93605638Y-135043910D03*
X169505638Y-83413910D03*
X93605638Y-88983910D03*
X104805638Y-114263910D03*
X143065638Y-152513910D03*
X104605638Y-134513910D03*
X159805638Y-78313910D03*
X125720919Y-76288655D03*
X182005638Y-82593910D03*
X146875638Y-152513910D03*
X172405638Y-81513910D03*
X123780638Y-135863910D03*
X93605638Y-61623910D03*
X182005638Y-78783910D03*
X132865638Y-102513910D03*
X167357769Y-137413910D03*
X112598778Y-71206961D03*
X106853073Y-72161137D03*
X167357769Y-132213910D03*
X167355638Y-127113910D03*
X125720919Y-77558655D03*
X157405638Y-84683910D03*
X93605638Y-67973910D03*
X145605638Y-152513910D03*
X123855638Y-128588910D03*
X113905638Y-94313910D03*
X182005638Y-77513910D03*
X122680638Y-97988910D03*
X131595638Y-102513910D03*
X155805638Y-59113910D03*
X151805638Y-84713910D03*
X182005638Y-148313910D03*
X171405638Y-80113910D03*
X124305638Y-98413910D03*
X124805638Y-116413910D03*
X155805638Y-57843910D03*
X120047330Y-76185018D03*
D52*
X124080638Y-95650410D03*
D50*
X104582526Y-139614466D03*
X133205638Y-98513910D03*
X154535638Y-55303910D03*
X134135638Y-102513910D03*
X93605638Y-81363910D03*
X93600357Y-80259165D03*
X104563622Y-142204298D03*
X136705638Y-130613910D03*
X125645638Y-55313910D03*
X163005638Y-80113910D03*
X126915638Y-55313910D03*
X93605638Y-87713910D03*
X182005638Y-81323910D03*
X155805638Y-56573910D03*
X111905638Y-121563910D03*
X104805638Y-124513910D03*
X126605638Y-149413910D03*
X182005638Y-83863910D03*
X104805638Y-111713910D03*
X124805638Y-149413910D03*
X104695233Y-147066518D03*
X144335638Y-152513910D03*
X135105638Y-110713910D03*
X160472258Y-85446034D03*
X93605638Y-69243910D03*
X167357769Y-139713910D03*
X167330638Y-119538910D03*
X93605638Y-70513910D03*
X167405638Y-121913910D03*
X93605638Y-83903910D03*
X93605638Y-65433910D03*
X131995638Y-55313910D03*
X93605638Y-131233910D03*
X123265638Y-112213910D03*
X112105638Y-127213910D03*
X111005638Y-70799299D03*
X111005638Y-69913910D03*
X111005638Y-68913910D03*
D52*
X128705638Y-98413910D03*
X128555638Y-95145410D03*
D50*
X123605638Y-124313910D03*
D52*
X129155638Y-95145410D03*
X128555638Y-94545410D03*
X129155638Y-98745410D03*
X130724811Y-96369693D03*
X129155638Y-94545410D03*
X129355638Y-97545410D03*
D50*
X129605638Y-80913910D03*
D52*
X129355638Y-96945410D03*
X129955638Y-95745410D03*
X129955638Y-96345410D03*
X130355638Y-94545410D03*
X129755638Y-94545410D03*
X130724811Y-96989283D03*
X129955638Y-98145410D03*
X130714219Y-97561211D03*
D51*
X154815638Y-116713910D03*
D52*
X129355638Y-95745410D03*
X129355638Y-98145410D03*
X129955638Y-97545410D03*
D50*
X112155638Y-95313910D03*
D52*
X129755638Y-98745410D03*
X129355638Y-96345410D03*
X129955638Y-96945410D03*
D50*
X129605638Y-81913910D03*
D52*
X129755638Y-95145410D03*
D50*
X129605638Y-82913910D03*
D51*
X119855638Y-99850410D03*
X120855638Y-99850410D03*
D50*
X161805638Y-82113910D03*
X118805638Y-82713910D03*
D51*
X121755638Y-99850410D03*
D50*
X114555638Y-71838910D03*
X168908185Y-81524861D03*
X109805638Y-93605870D03*
X120005638Y-81713910D03*
X118805638Y-80713910D03*
X121605638Y-82713910D03*
D51*
X121155638Y-99100410D03*
D50*
X169663001Y-76903374D03*
X118805638Y-81713910D03*
D51*
X171275919Y-89073655D03*
D50*
X121605638Y-81713910D03*
X120005638Y-82713910D03*
X121605638Y-79713910D03*
X118805638Y-79713910D03*
X120005638Y-80713910D03*
X118805638Y-78713910D03*
D51*
X120255638Y-99100410D03*
D50*
X120005638Y-79713910D03*
X121605638Y-80713910D03*
X126490663Y-143428617D03*
D51*
X116430638Y-115738910D03*
X112630638Y-115678910D03*
X121405638Y-137013910D03*
X115075638Y-115723910D03*
D50*
X170892919Y-60128655D03*
X161748919Y-55213910D03*
X161748919Y-56229910D03*
X161748919Y-57245910D03*
X175405638Y-63189910D03*
X175405638Y-64713910D03*
X175405638Y-66237910D03*
X175405638Y-67761910D03*
X166320919Y-66732655D03*
X160505638Y-65213910D03*
X162485519Y-64218055D03*
X169597519Y-64218055D03*
D52*
X111707088Y-75313910D03*
X113405638Y-76713910D03*
X112405638Y-77913910D03*
X111605638Y-77913910D03*
X111605638Y-78513910D03*
X111707088Y-75913910D03*
X113205638Y-77913910D03*
D50*
X168251319Y-66961255D03*
X172950319Y-66961255D03*
X153805638Y-114913910D03*
X125605638Y-119213910D03*
X146205638Y-72013910D03*
X163005638Y-86082255D03*
X164441319Y-77022440D03*
X166193919Y-86722455D03*
X168251319Y-76992273D03*
D51*
X122655638Y-131438910D03*
X122030638Y-133438910D03*
X121355638Y-127638910D03*
X154051858Y-106363410D03*
X153505638Y-105813910D03*
D50*
X136005638Y-79613910D03*
X140105638Y-79013910D03*
D51*
X161505638Y-134213910D03*
X137105638Y-119813910D03*
D52*
X125705638Y-96525410D03*
X124880934Y-97094353D03*
X125705638Y-97825410D03*
X125705638Y-97150410D03*
D51*
X124905638Y-96205410D03*
X123545638Y-99045410D03*
D50*
X172305638Y-84913910D03*
X161774319Y-84113910D03*
X147405638Y-79213910D03*
X125605638Y-120213910D03*
X145405638Y-117413910D03*
X123905638Y-132513910D03*
D51*
X155505638Y-120713910D03*
D50*
X137805638Y-76113910D03*
X155105638Y-122713910D03*
X124905638Y-144513910D03*
X126505638Y-144513910D03*
X153905638Y-104113910D03*
X166359319Y-77026749D03*
X155018138Y-98463910D03*
D51*
X113880638Y-115713910D03*
D50*
X155018138Y-102313910D03*
D53*
X153235638Y-72973910D02*
X154605638Y-72973910D01*
X151965638Y-79603910D02*
X151965638Y-74243910D01*
X151965638Y-74243910D02*
X153235638Y-72973910D01*
X136105638Y-141873910D02*
X144395638Y-133583910D01*
X144395638Y-87173910D02*
X151965638Y-79603910D01*
X131678138Y-141873910D02*
X136105638Y-141873910D01*
X144395638Y-133583910D02*
X144395638Y-87173910D01*
X152135638Y-70433910D02*
X154605638Y-70433910D01*
X150505638Y-72063910D02*
X152135638Y-70433910D01*
X150505638Y-79253910D02*
X150505638Y-72063910D01*
X138435638Y-136793910D02*
X142805638Y-132423910D01*
X142805638Y-132423910D02*
X142805638Y-86953910D01*
X131678138Y-136793910D02*
X138435638Y-136793910D01*
X142805638Y-86953910D02*
X150505638Y-79253910D01*
X154385638Y-68113910D02*
X154605638Y-67893910D01*
X149185638Y-78683910D02*
X149185638Y-70783910D01*
X149185638Y-70783910D02*
X151855638Y-68113910D01*
X141395638Y-86473910D02*
X149185638Y-78683910D01*
X141395638Y-131433910D02*
X141395638Y-86473910D01*
X138575638Y-134253910D02*
X141395638Y-131433910D01*
X131678138Y-134253910D02*
X138575638Y-134253910D01*
X151855638Y-68113910D02*
X154385638Y-68113910D01*
X156935638Y-99483910D02*
X159125638Y-97293910D01*
X159125638Y-97293910D02*
X159125638Y-96113910D01*
X153285638Y-99483910D02*
X156935638Y-99483910D01*
X146405638Y-135103910D02*
X146405638Y-106363910D01*
X146405638Y-106363910D02*
X153285638Y-99483910D01*
X137095638Y-144413910D02*
X146405638Y-135103910D01*
X131678138Y-144413910D02*
X137095638Y-144413910D01*
X158725638Y-100913910D02*
X159125638Y-101313910D01*
X131688138Y-146963910D02*
X137555638Y-146963910D01*
X137555638Y-146963910D02*
X148415638Y-136103910D01*
X148415638Y-136103910D02*
X148415638Y-106943910D01*
X148415638Y-106943910D02*
X154445638Y-100913910D01*
X131678138Y-146953910D02*
X131688138Y-146963910D01*
X154445638Y-100913910D02*
X158725638Y-100913910D01*
X153815638Y-104113910D02*
X153905638Y-104113910D01*
X150245638Y-107683910D02*
X153815638Y-104113910D01*
X150245638Y-134173910D02*
X150245638Y-107683910D01*
X152865638Y-136793910D02*
X150245638Y-134173910D01*
X157078138Y-136793910D02*
X152865638Y-136793910D01*
D54*
X160867119Y-80245455D02*
X160835574Y-80213910D01*
X115150638Y-107203910D02*
X115150638Y-105521983D01*
D55*
X160486037Y-85432255D02*
X160472258Y-85446034D01*
D54*
X170805638Y-80113910D02*
X170465638Y-80113910D01*
X124841781Y-148713910D02*
X124841781Y-149377767D01*
X160857119Y-81312255D02*
X160857119Y-80255455D01*
X123855638Y-128588910D02*
X123855638Y-130413910D01*
X160631319Y-78353455D02*
X159845183Y-78353455D01*
X170791319Y-80099591D02*
X170805638Y-80113910D01*
X113865336Y-105495026D02*
X115123681Y-105495026D01*
X111340638Y-107203910D02*
X111340638Y-105578910D01*
X123780638Y-135863910D02*
X123780638Y-134538910D01*
X133205638Y-98513910D02*
X132280638Y-98513910D01*
X125805638Y-139713910D02*
X125805638Y-139913910D01*
X123105638Y-103838910D02*
X121680638Y-103838910D01*
D56*
X123011535Y-96762284D02*
X123011535Y-97359513D01*
X110868204Y-74853984D02*
X110240564Y-74853984D01*
D54*
X169448293Y-83471255D02*
X168660519Y-83471255D01*
X126305638Y-139213910D02*
X125805638Y-139713910D01*
X172061319Y-78353455D02*
X172061319Y-80058229D01*
X112610638Y-105513854D02*
X112605638Y-105508854D01*
X172061319Y-80058229D02*
X172005638Y-80113910D01*
X160835574Y-80213910D02*
X159905638Y-80213910D01*
D55*
X121537012Y-76181431D02*
X121508277Y-76152696D01*
D54*
X160857119Y-80255455D02*
X160867119Y-80245455D01*
X109093387Y-97401659D02*
X109105638Y-97413910D01*
X112610638Y-107203910D02*
X112610638Y-105513854D01*
X109093387Y-96639052D02*
X109093387Y-97401659D01*
X171605638Y-80313910D02*
X171405638Y-80113910D01*
X129355638Y-151083910D02*
X129355638Y-150463910D01*
X123780638Y-134538910D02*
X123855638Y-134463910D01*
X116596388Y-97425410D02*
X116594888Y-97423910D01*
X171605638Y-81513910D02*
X172405638Y-81513910D01*
X161820078Y-86794614D02*
X161782719Y-86757255D01*
X119806559Y-94763910D02*
X119806559Y-94114831D01*
D56*
X122414138Y-97513910D02*
X121965638Y-97513910D01*
D54*
X169505638Y-83413910D02*
X169448293Y-83471255D01*
D55*
X167658719Y-86082255D02*
X168709519Y-86082255D01*
D54*
X160631319Y-80009655D02*
X160867119Y-80245455D01*
X129355638Y-150463910D02*
X129305638Y-150413910D01*
X119806559Y-94114831D02*
X119805638Y-94113910D01*
X121680638Y-103838910D02*
X121605638Y-103913910D01*
X113880638Y-107203910D02*
X113880638Y-105537984D01*
X126605638Y-148713910D02*
X126605638Y-149413910D01*
X124841781Y-149377767D02*
X124805638Y-149413910D01*
X163171319Y-79948229D02*
X163005638Y-80113910D01*
D56*
X123011535Y-96762284D02*
X123011535Y-96261307D01*
D54*
X171405638Y-80113910D02*
X172005638Y-80113910D01*
D56*
X122855638Y-97515410D02*
X122415638Y-97515410D01*
D54*
X123105638Y-103838910D02*
X124530638Y-103838910D01*
X106860300Y-72153910D02*
X106853073Y-72161137D01*
X121655638Y-116463910D02*
X123205638Y-116463910D01*
X124530638Y-103838910D02*
X124605638Y-103913910D01*
D55*
X120029229Y-77061884D02*
X120029229Y-76203119D01*
D54*
X170465638Y-80113910D02*
X171405638Y-80113910D01*
X117530638Y-97425410D02*
X116596388Y-97425410D01*
X123855638Y-126613910D02*
X123855638Y-128588910D01*
X163171319Y-78353455D02*
X163171319Y-79948229D01*
X160631319Y-78353455D02*
X160631319Y-80009655D01*
X121605638Y-116413910D02*
X121655638Y-116463910D01*
X112605638Y-71843910D02*
X112605638Y-71213821D01*
X115150638Y-105521983D02*
X115123681Y-105495026D01*
X113880638Y-105537984D02*
X113851508Y-105508854D01*
D55*
X161782719Y-85432255D02*
X160486037Y-85432255D01*
D54*
X124805638Y-116413910D02*
X124755638Y-116463910D01*
D56*
X122415638Y-97515410D02*
X122414138Y-97513910D01*
D54*
X171605638Y-81513910D02*
X171605638Y-80313910D01*
X132280638Y-94513910D02*
X132280638Y-95413910D01*
D55*
X121537012Y-77058855D02*
X121537012Y-76181431D01*
D54*
X112605638Y-105508854D02*
X113851508Y-105508854D01*
X170791319Y-78353455D02*
X170791319Y-80099591D01*
D56*
X123247138Y-96013910D02*
X124065638Y-96013910D01*
X123047138Y-96213910D02*
X123247138Y-96013910D01*
D54*
X161820078Y-87414433D02*
X161820078Y-86794614D01*
X107830638Y-72153910D02*
X106860300Y-72153910D01*
D55*
X120029229Y-76203119D02*
X120047330Y-76185018D01*
D56*
X123005638Y-96255410D02*
X123005638Y-96213910D01*
D54*
X111340638Y-105578910D02*
X111410694Y-105508854D01*
D56*
X123011535Y-96261307D02*
X123005638Y-96255410D01*
D54*
X112605638Y-71213821D02*
X112598778Y-71206961D01*
D56*
X123011535Y-97359513D02*
X122855638Y-97515410D01*
D54*
X113851508Y-105508854D02*
X113865336Y-105495026D01*
X159845183Y-78353455D02*
X159805638Y-78313910D01*
D56*
X123005638Y-96213910D02*
X123047138Y-96213910D01*
D54*
X124755638Y-116463910D02*
X123205638Y-116463910D01*
D55*
X168709519Y-86082255D02*
X168725919Y-86098655D01*
D54*
X111410694Y-105508854D02*
X112605638Y-105508854D01*
D53*
X123637138Y-96013910D02*
X123635638Y-96015410D01*
D56*
X110240564Y-74853984D02*
X110205638Y-74888910D01*
D54*
X109128199Y-91588910D02*
X109128199Y-92251025D01*
D55*
X119805638Y-126563910D02*
X119855638Y-126613910D01*
D57*
X163705638Y-123313910D02*
X170455638Y-123313910D01*
D55*
X128540638Y-95160410D02*
X128540638Y-96995410D01*
D58*
X109085638Y-95313910D02*
X112155638Y-95313910D01*
D55*
X130730638Y-98513910D02*
X130730638Y-95413910D01*
X123110638Y-94945410D02*
X128325638Y-94945410D01*
D54*
X170465638Y-123303910D02*
X170605638Y-123163910D01*
D55*
X119855638Y-130413910D02*
X119855638Y-134463910D01*
X128325638Y-94945410D02*
X128540638Y-95160410D01*
D57*
X170455638Y-123313910D02*
X170605638Y-123163910D01*
D55*
X123605638Y-124313910D02*
X120205638Y-124313910D01*
X119855638Y-126613910D02*
X119855638Y-130413910D01*
X119805638Y-124713910D02*
X119805638Y-126563910D01*
D56*
X123105638Y-94875410D02*
X123060638Y-94830410D01*
X123060638Y-94830410D02*
X123060638Y-93950410D01*
D55*
X123090638Y-94925410D02*
X123110638Y-94945410D01*
X120205638Y-124313910D02*
X119805638Y-124713910D01*
D57*
X167740519Y-82779029D02*
X167740519Y-83471255D01*
D56*
X171275919Y-89073655D02*
X171250919Y-89048655D01*
D55*
X121205638Y-97075410D02*
X120855638Y-97425410D01*
D57*
X169594687Y-81524861D02*
X169605638Y-81513910D01*
D55*
X161777119Y-81312255D02*
X161777119Y-82085391D01*
D57*
X169521319Y-78353455D02*
X169521319Y-81429591D01*
X168908185Y-81524861D02*
X169594687Y-81524861D01*
X169521319Y-81429591D02*
X169605638Y-81513910D01*
D56*
X171275919Y-89073655D02*
X171775919Y-89073655D01*
D57*
X169663001Y-76903374D02*
X169521319Y-77045056D01*
D55*
X161901319Y-78353455D02*
X161901319Y-80111255D01*
X161777119Y-81312255D02*
X161777119Y-80255455D01*
D57*
X168908185Y-81611363D02*
X167740519Y-82779029D01*
D55*
X114550638Y-71843910D02*
X114555638Y-71838910D01*
D56*
X170250919Y-89073655D02*
X172325919Y-89073655D01*
D57*
X168908185Y-81524861D02*
X168908185Y-81611363D01*
X129355638Y-152043910D02*
X129365638Y-152033910D01*
D55*
X161901319Y-80111255D02*
X161767119Y-80245455D01*
D57*
X169521319Y-77045056D02*
X169521319Y-78353455D01*
D55*
X120855638Y-97425410D02*
X120480638Y-97425410D01*
X113605638Y-71843910D02*
X114550638Y-71843910D01*
D56*
X170225919Y-89048655D02*
X170250919Y-89073655D01*
D58*
X121267138Y-97013910D02*
X121965638Y-97013910D01*
D55*
X161777119Y-82085391D02*
X161805638Y-82113910D01*
D53*
X109792049Y-93592281D02*
X108981328Y-93592281D01*
D55*
X161777119Y-80255455D02*
X161767119Y-80245455D01*
D57*
X129365638Y-152033910D02*
X131678138Y-152033910D01*
D53*
X109805638Y-93605870D02*
X109792049Y-93592281D01*
D58*
X121205638Y-97075410D02*
X121267138Y-97013910D01*
D56*
X167658719Y-83225655D02*
X167658719Y-84782255D01*
X172325919Y-89073655D02*
X172350919Y-89048655D01*
D53*
X125805638Y-143423910D02*
X126485956Y-143423910D01*
X126485956Y-143423910D02*
X126490663Y-143428617D01*
X116430638Y-115738910D02*
X116430638Y-115148910D01*
X112630638Y-115678910D02*
X112630638Y-115148910D01*
X115130638Y-115668910D02*
X115130638Y-115148910D01*
X115075638Y-115723910D02*
X115130638Y-115668910D01*
D56*
X160816319Y-66006055D02*
X160806319Y-65996055D01*
X160631319Y-68929455D02*
X160631319Y-67273255D01*
X160816319Y-67088255D02*
X160816319Y-66006055D01*
X173255638Y-64027936D02*
X173255638Y-62213910D01*
X160631319Y-67273255D02*
X160816319Y-67088255D01*
X173255119Y-64028455D02*
X173255638Y-64027936D01*
X170791319Y-68929455D02*
X170791319Y-67339455D01*
X170966319Y-67164455D02*
X170966319Y-66010655D01*
X170791319Y-67339455D02*
X170966319Y-67164455D01*
X170966319Y-66010655D02*
X171248519Y-65728455D01*
X161901319Y-67273255D02*
X161716319Y-67088255D01*
X161716319Y-67088255D02*
X161716319Y-66006055D01*
X161901319Y-68929455D02*
X161901319Y-67273255D01*
X171058919Y-64218055D02*
X171248519Y-64028455D01*
X161726319Y-64977255D02*
X162485519Y-64218055D01*
X161726319Y-65996055D02*
X161726319Y-64977255D01*
X171248519Y-64028455D02*
X171248519Y-62221029D01*
X171248519Y-62221029D02*
X171255638Y-62213910D01*
X169597519Y-64218055D02*
X171058919Y-64218055D01*
X161716319Y-66006055D02*
X161726319Y-65996055D01*
X163171319Y-70161655D02*
X163908319Y-70898655D01*
X167844919Y-63232255D02*
X167840119Y-63227455D01*
X163171319Y-68929455D02*
X163171319Y-70161655D01*
X169521319Y-70191955D02*
X169521319Y-68929455D01*
X163908319Y-70898655D02*
X168814619Y-70898655D01*
X167844919Y-64802255D02*
X167844919Y-63232255D01*
X168814619Y-70898655D02*
X169521319Y-70191955D01*
X169521319Y-66478655D02*
X167844919Y-64802255D01*
X167840119Y-57671110D02*
X167997319Y-57513910D01*
X169521319Y-68929455D02*
X169521319Y-66478655D01*
X167840119Y-63227455D02*
X167840119Y-57671110D01*
X166881318Y-70291956D02*
X166981319Y-70191955D01*
X166981319Y-70191955D02*
X166981319Y-68929455D01*
X164441319Y-66377055D02*
X165970119Y-64848255D01*
X164441319Y-70191955D02*
X164541320Y-70291956D01*
X164441319Y-68929455D02*
X164441319Y-66377055D01*
X164541320Y-70291956D02*
X166881318Y-70291956D01*
X165970119Y-58026710D02*
X165457319Y-57513910D01*
X165970119Y-64848255D02*
X165970119Y-58026710D01*
X164441319Y-68929455D02*
X164441319Y-70191955D01*
D53*
X126605638Y-147513910D02*
X126480638Y-147388910D01*
X126480638Y-147388910D02*
X126480638Y-146248910D01*
D59*
X108016699Y-96615740D02*
X107993387Y-96639052D01*
X108016699Y-95295474D02*
X108016699Y-96615740D01*
D56*
X172250919Y-86530655D02*
X172350919Y-86630655D01*
X172350919Y-86630655D02*
X172350919Y-87848655D01*
D53*
X124855638Y-147500053D02*
X124855638Y-146221624D01*
X124841781Y-147513910D02*
X124855638Y-147500053D01*
D56*
X170225919Y-86530655D02*
X170225919Y-87848655D01*
D59*
X108028199Y-93585410D02*
X108021328Y-93592281D01*
X108028199Y-92251025D02*
X108028199Y-93585410D01*
D53*
X159545638Y-108853910D02*
X157078138Y-108853910D01*
X163705638Y-110613910D02*
X161305638Y-110613910D01*
X163705638Y-110613910D02*
X166005638Y-110613910D01*
X168605638Y-108013910D02*
X170605638Y-108013910D01*
X166005638Y-110613910D02*
X168605638Y-108013910D01*
X161305638Y-110613910D02*
X159545638Y-108853910D01*
D56*
X172950319Y-66961255D02*
X173255119Y-66656455D01*
X168251319Y-66961255D02*
X168251319Y-68929455D01*
X172061319Y-67339455D02*
X171886319Y-67164455D01*
X173255119Y-66656455D02*
X173255119Y-65728455D01*
X172061319Y-68929455D02*
X172061319Y-67339455D01*
X171886319Y-67164455D02*
X172747119Y-67164455D01*
X172747119Y-67164455D02*
X172950319Y-66961255D01*
X120988059Y-94925410D02*
X120826559Y-94763910D01*
X122055638Y-95923910D02*
X121965638Y-96013910D01*
X122070638Y-93980410D02*
X122100638Y-93950410D01*
X122055638Y-94940410D02*
X122055638Y-95923910D01*
X122070638Y-94925410D02*
X120988059Y-94925410D01*
X122070638Y-94925410D02*
X122055638Y-94940410D01*
X122070638Y-94925410D02*
X122070638Y-93980410D01*
X121402749Y-96513910D02*
X120815638Y-95926799D01*
X120815638Y-95926799D02*
X120815638Y-95925410D01*
X121965638Y-96513910D02*
X121402749Y-96513910D01*
D53*
X163705638Y-125853910D02*
X163765638Y-125793910D01*
X159385638Y-124093910D02*
X161145638Y-125853910D01*
X161145638Y-125853910D02*
X163705638Y-125853910D01*
X163765638Y-125793910D02*
X170395638Y-125793910D01*
X157078138Y-124093910D02*
X159385638Y-124093910D01*
X170395638Y-125793910D02*
X170455638Y-125853910D01*
D56*
X163005638Y-86082255D02*
X164441319Y-84646574D01*
X164441319Y-84646574D02*
X164441319Y-78353455D01*
X164441319Y-78353455D02*
X164441319Y-77022440D01*
X163005638Y-86082255D02*
X161782719Y-86082255D01*
X166193919Y-82800629D02*
X168251319Y-80743229D01*
X168251319Y-78353455D02*
X168251319Y-76992273D01*
X166193919Y-86722455D02*
X167648919Y-86722455D01*
X168251319Y-80743229D02*
X168251319Y-78353455D01*
X167648919Y-86722455D02*
X167658719Y-86732255D01*
X166193919Y-86722455D02*
X166193919Y-82800629D01*
D58*
X121855638Y-130413910D02*
X122655638Y-131213910D01*
X122655638Y-131213910D02*
X122655638Y-131438910D01*
X122030638Y-134288910D02*
X121855638Y-134463910D01*
X122030638Y-133438910D02*
X122030638Y-134288910D01*
X121855638Y-126613910D02*
X121355638Y-127113910D01*
X121355638Y-127113910D02*
X121355638Y-127638910D01*
D53*
X163705638Y-130933910D02*
X163765638Y-130873910D01*
X163685638Y-130913910D02*
X163705638Y-130933910D01*
X163765638Y-130873910D02*
X170605638Y-130873910D01*
X157078138Y-129173910D02*
X158565638Y-129173910D01*
X160305638Y-130913910D02*
X163685638Y-130913910D01*
X158565638Y-129173910D02*
X160305638Y-130913910D01*
X170545638Y-133473910D02*
X163705638Y-133473910D01*
X170605638Y-133413910D02*
X170545638Y-133473910D01*
X163705638Y-138553910D02*
X170545638Y-138553910D01*
X170545638Y-138553910D02*
X170605638Y-138493910D01*
X163535638Y-113213910D02*
X161205638Y-113213910D01*
X160485638Y-113933910D02*
X157078138Y-113933910D01*
X161205638Y-113213910D02*
X160485638Y-113933910D01*
X163605638Y-113143910D02*
X163535638Y-113213910D01*
X163075638Y-116213910D02*
X157338138Y-116213910D01*
X157338138Y-116213910D02*
X157078138Y-116473910D01*
X163605638Y-115683910D02*
X163075638Y-116213910D01*
X116430638Y-114128910D02*
X116220638Y-113918910D01*
X116220638Y-111473910D02*
X116420638Y-111273910D01*
X116220638Y-113918910D02*
X116220638Y-111473910D01*
X112605638Y-114103910D02*
X112605638Y-111278910D01*
X112630638Y-114128910D02*
X112605638Y-114103910D01*
X112605638Y-111278910D02*
X112610638Y-111273910D01*
X115130638Y-111293910D02*
X115150638Y-111273910D01*
X115130638Y-114128910D02*
X115130638Y-111293910D01*
X113880638Y-114103910D02*
X113880638Y-111273910D01*
D58*
X131668138Y-108863910D02*
X131678138Y-108853910D01*
X123105638Y-108638910D02*
X123330638Y-108863910D01*
X123330638Y-108863910D02*
X131668138Y-108863910D01*
X131678138Y-121553910D02*
X123495638Y-121553910D01*
X123495638Y-121553910D02*
X123205638Y-121263910D01*
D56*
X116430638Y-107213910D02*
X116420638Y-107203910D01*
D53*
X119405638Y-107213910D02*
X120305638Y-106313910D01*
X117605638Y-107213910D02*
X119405638Y-107213910D01*
D56*
X117605638Y-107213910D02*
X116430638Y-107213910D01*
D53*
X120305638Y-106313910D02*
X131678138Y-106313910D01*
X125805638Y-142403910D02*
X125805638Y-141113910D01*
D56*
X123525638Y-99025410D02*
X123015638Y-99025410D01*
X123545638Y-99045410D02*
X123525638Y-99025410D01*
X124905638Y-96205410D02*
X124597138Y-96513910D01*
X124597138Y-96513910D02*
X124065638Y-96513910D01*
X161774319Y-84773855D02*
X161782719Y-84782255D01*
X172305638Y-84913910D02*
X172250919Y-84968629D01*
X172250919Y-84968629D02*
X172250919Y-85616655D01*
X161774319Y-84113910D02*
X161774319Y-84773855D01*
X170225919Y-85563655D02*
X170094519Y-85432255D01*
X170094519Y-85432255D02*
X167658719Y-85432255D01*
D53*
X163705638Y-128393910D02*
X160885638Y-128393910D01*
X170545638Y-128393910D02*
X170605638Y-128333910D01*
X160885638Y-128393910D02*
X159125638Y-126633910D01*
X159125638Y-126633910D02*
X157078138Y-126633910D01*
X163705638Y-128393910D02*
X170545638Y-128393910D01*
X170545638Y-141093910D02*
X170605638Y-141033910D01*
X163705638Y-141093910D02*
X170545638Y-141093910D01*
X163765638Y-118173910D02*
X170485638Y-118173910D01*
X170485638Y-118173910D02*
X170545638Y-118233910D01*
X163705638Y-118233910D02*
X163765638Y-118173910D01*
X124905638Y-145153910D02*
X124855638Y-145203910D01*
X170455638Y-120773910D02*
X170605638Y-120623910D01*
X124905638Y-144513910D02*
X124905638Y-145153910D01*
X163705638Y-120773910D02*
X170455638Y-120773910D01*
X163765638Y-135953910D02*
X163705638Y-136013910D01*
X170605638Y-135953910D02*
X163765638Y-135953910D01*
X158265638Y-141873910D02*
X162565638Y-146173910D01*
X126480638Y-144538910D02*
X126480638Y-145228910D01*
X162565638Y-146173910D02*
X163705638Y-146173910D01*
X126505638Y-144513910D02*
X126480638Y-144538910D01*
X157078138Y-141873910D02*
X158265638Y-141873910D01*
X169605638Y-93913910D02*
X169605638Y-96233910D01*
X165005638Y-89313910D02*
X169605638Y-93913910D01*
D56*
X166359319Y-77026749D02*
X166359319Y-78353455D01*
X166359319Y-78353455D02*
X166981319Y-78353455D01*
D53*
X165711319Y-78353455D02*
X165605638Y-78459136D01*
X165605638Y-78459136D02*
X165605638Y-85613910D01*
D56*
X165711319Y-78353455D02*
X166359319Y-78353455D01*
D53*
X165605638Y-85613910D02*
X165005638Y-86213910D01*
X165005638Y-86213910D02*
X165005638Y-89313910D01*
X168205638Y-105533910D02*
X167505638Y-105533910D01*
X169605638Y-101313910D02*
X168205638Y-102713910D01*
X168205638Y-102713910D02*
X168205638Y-105533910D01*
X170545638Y-105533910D02*
X170605638Y-105473910D01*
X163705638Y-105533910D02*
X167505638Y-105533910D01*
X167505638Y-105533910D02*
X170545638Y-105533910D01*
X157118138Y-104413910D02*
X158105638Y-104413910D01*
D59*
X156405638Y-97076410D02*
X156405638Y-76313910D01*
X155605638Y-75513910D02*
X154605638Y-75513910D01*
D53*
X155018138Y-102313910D02*
X157118138Y-104413910D01*
X113880638Y-115713910D02*
X113880638Y-115123910D01*
X158105638Y-104413910D02*
X161765638Y-108073910D01*
D59*
X155018138Y-98463910D02*
X156405638Y-97076410D01*
X156405638Y-76313910D02*
X155605638Y-75513910D01*
D53*
X161765638Y-108073910D02*
X163705638Y-108073910D01*
%TA.AperFunction,Conductor*%
G36*
X124065429Y-95451960D02*
G01*
X124144083Y-95464418D01*
X124181575Y-95476600D01*
X124243584Y-95508195D01*
X124275476Y-95531367D01*
X124324680Y-95580571D01*
X124347852Y-95612463D01*
X124379447Y-95674472D01*
X124391629Y-95711963D01*
X124402516Y-95780698D01*
X124402516Y-95820122D01*
X124391629Y-95888856D01*
X124379447Y-95926347D01*
X124347852Y-95988356D01*
X124324680Y-96020248D01*
X124275476Y-96069452D01*
X124243584Y-96092624D01*
X124181575Y-96124219D01*
X124144084Y-96136401D01*
X124091506Y-96144729D01*
X124065428Y-96148859D01*
X124045721Y-96150410D01*
X123760413Y-96150410D01*
X123692292Y-96130408D01*
X123645799Y-96076752D01*
X123635695Y-96006478D01*
X123643961Y-95978804D01*
X123705638Y-95885410D01*
X123705638Y-95680319D01*
X123708059Y-95655739D01*
X123717304Y-95609258D01*
X123736116Y-95563839D01*
X123755419Y-95534950D01*
X123790178Y-95500191D01*
X123819067Y-95480888D01*
X123864485Y-95462076D01*
X123879087Y-95459172D01*
X123910969Y-95452831D01*
X123935548Y-95450410D01*
X124045721Y-95450410D01*
X124065429Y-95451960D01*
G37*
%TD.AperFunction*%
%TA.AperFunction,Conductor*%
G36*
X163179429Y-68775401D02*
G01*
X163179752Y-68775724D01*
X163458052Y-69065122D01*
X163461317Y-69073461D01*
X163460049Y-69078534D01*
X163435675Y-69126482D01*
X163435505Y-69126803D01*
X163409254Y-69174705D01*
X163409188Y-69174824D01*
X163384947Y-69217858D01*
X163363034Y-69258261D01*
X163343758Y-69298293D01*
X163343753Y-69298305D01*
X163327394Y-69340269D01*
X163314199Y-69386545D01*
X163314197Y-69386553D01*
X163304445Y-69439437D01*
X163304441Y-69439464D01*
X163298394Y-69501294D01*
X163298392Y-69501329D01*
X163296641Y-69563087D01*
X163292981Y-69571259D01*
X163284946Y-69574455D01*
X163057691Y-69574455D01*
X163049418Y-69571028D01*
X163045996Y-69563087D01*
X163044244Y-69501325D01*
X163044242Y-69501296D01*
X163038195Y-69439464D01*
X163038194Y-69439449D01*
X163028439Y-69386550D01*
X163015245Y-69340275D01*
X162998879Y-69298293D01*
X162979608Y-69258271D01*
X162957699Y-69217875D01*
X162933420Y-69174773D01*
X162907131Y-69126803D01*
X162906961Y-69126482D01*
X162882588Y-69078534D01*
X162881894Y-69069606D01*
X162884583Y-69065124D01*
X163162886Y-68775723D01*
X163171090Y-68772136D01*
X163179429Y-68775401D01*
G37*
%TD.AperFunction*%
%TA.AperFunction,Conductor*%
G36*
X162023219Y-68287882D02*
G01*
X162026641Y-68295823D01*
X162028392Y-68357579D01*
X162028394Y-68357614D01*
X162034441Y-68419444D01*
X162034443Y-68419460D01*
X162044198Y-68472359D01*
X162057392Y-68518634D01*
X162073758Y-68560616D01*
X162093029Y-68600638D01*
X162093034Y-68600647D01*
X162114947Y-68641050D01*
X162139188Y-68684084D01*
X162139254Y-68684203D01*
X162165505Y-68732105D01*
X162165675Y-68732426D01*
X162190049Y-68780375D01*
X162190743Y-68789303D01*
X162188052Y-68793787D01*
X161909752Y-69083185D01*
X161901548Y-69086773D01*
X161893209Y-69083508D01*
X161892886Y-69083185D01*
X161614585Y-68793787D01*
X161611320Y-68785448D01*
X161612587Y-68780377D01*
X161636980Y-68732388D01*
X161637107Y-68732147D01*
X161663420Y-68684136D01*
X161687699Y-68641034D01*
X161709608Y-68600638D01*
X161728879Y-68560616D01*
X161745245Y-68518634D01*
X161758439Y-68472359D01*
X161768194Y-68419460D01*
X161774243Y-68357603D01*
X161775996Y-68295822D01*
X161779656Y-68287651D01*
X161787691Y-68284455D01*
X162014946Y-68284455D01*
X162023219Y-68287882D01*
G37*
%TD.AperFunction*%
%TA.AperFunction,Conductor*%
G36*
X167832266Y-83525848D02*
G01*
X167756549Y-83764144D01*
X167751803Y-83769773D01*
X167752046Y-83770107D01*
X167749835Y-83771712D01*
X167748943Y-83773410D01*
X167748943Y-83773411D01*
X167750966Y-83775991D01*
X167755154Y-83779417D01*
X167759628Y-83782799D01*
X167760608Y-83783540D01*
X167760855Y-83783731D01*
X167766682Y-83788385D01*
X167767343Y-83788955D01*
X167772646Y-83793881D01*
X167773683Y-83794977D01*
X167774932Y-83796482D01*
X167777580Y-83805036D01*
X167773404Y-83812957D01*
X167765930Y-83815655D01*
X167544812Y-83815655D01*
X167536539Y-83812228D01*
X167533129Y-83804577D01*
X167531469Y-83773410D01*
X167531109Y-83766652D01*
X167531108Y-83766649D01*
X167531108Y-83766643D01*
X167524027Y-83725529D01*
X167524025Y-83725521D01*
X167513587Y-83690529D01*
X167500912Y-83659929D01*
X167487119Y-83631986D01*
X167473437Y-83605181D01*
X167473218Y-83604727D01*
X167460877Y-83577614D01*
X167460469Y-83576588D01*
X167450457Y-83547423D01*
X167450060Y-83545967D01*
X167443287Y-83512781D01*
X167443076Y-83511192D01*
X167441195Y-83481816D01*
X167444086Y-83473340D01*
X167450957Y-83469525D01*
X167872350Y-83399699D01*
X167832266Y-83525848D01*
G37*
%TD.AperFunction*%
%TA.AperFunction,Conductor*%
G36*
X168407587Y-78353454D02*
G01*
X168407587Y-78353455D01*
X168538052Y-78489122D01*
X168541317Y-78497461D01*
X168540049Y-78502534D01*
X168515675Y-78550482D01*
X168515505Y-78550803D01*
X168489254Y-78598705D01*
X168489188Y-78598824D01*
X168464947Y-78641858D01*
X168443034Y-78682261D01*
X168423758Y-78722293D01*
X168423753Y-78722305D01*
X168407394Y-78764269D01*
X168394199Y-78810545D01*
X168394197Y-78810553D01*
X168384445Y-78863437D01*
X168384441Y-78863464D01*
X168378394Y-78925294D01*
X168378392Y-78925329D01*
X168376641Y-78987087D01*
X168372981Y-78995259D01*
X168364946Y-78998455D01*
X168137691Y-78998455D01*
X168129418Y-78995028D01*
X168125996Y-78987087D01*
X168124244Y-78925325D01*
X168124242Y-78925296D01*
X168118195Y-78863464D01*
X168118194Y-78863449D01*
X168108439Y-78810550D01*
X168095245Y-78764275D01*
X168078879Y-78722293D01*
X168059608Y-78682271D01*
X168037699Y-78641875D01*
X168013420Y-78598773D01*
X167987131Y-78550803D01*
X167986961Y-78550482D01*
X167962588Y-78502534D01*
X167961894Y-78493606D01*
X167964583Y-78489124D01*
X168251319Y-78190955D01*
X168407587Y-78353454D01*
G37*
%TD.AperFunction*%
%TA.AperFunction,Conductor*%
G36*
X169643219Y-77711882D02*
G01*
X169646641Y-77719823D01*
X169648392Y-77781579D01*
X169648394Y-77781614D01*
X169654441Y-77843444D01*
X169654443Y-77843460D01*
X169664198Y-77896359D01*
X169677392Y-77942634D01*
X169693758Y-77984616D01*
X169713029Y-78024638D01*
X169713034Y-78024647D01*
X169734947Y-78065050D01*
X169759188Y-78108084D01*
X169759254Y-78108203D01*
X169785505Y-78156105D01*
X169785675Y-78156426D01*
X169810049Y-78204375D01*
X169810743Y-78213303D01*
X169808052Y-78217787D01*
X169677587Y-78353454D01*
X169677587Y-78353455D01*
X169521319Y-78515955D01*
X169234584Y-78217786D01*
X169231320Y-78209448D01*
X169232587Y-78204377D01*
X169256980Y-78156388D01*
X169257107Y-78156147D01*
X169283420Y-78108136D01*
X169307699Y-78065034D01*
X169329608Y-78024638D01*
X169348879Y-77984616D01*
X169365245Y-77942634D01*
X169378439Y-77896359D01*
X169388194Y-77843460D01*
X169394243Y-77781603D01*
X169395996Y-77719822D01*
X169399656Y-77711651D01*
X169407691Y-77708455D01*
X169634946Y-77708455D01*
X169643219Y-77711882D01*
G37*
%TD.AperFunction*%
%TA.AperFunction,Conductor*%
G36*
X166989429Y-68775401D02*
G01*
X166989752Y-68775724D01*
X167268052Y-69065122D01*
X167271317Y-69073461D01*
X167270049Y-69078534D01*
X167245675Y-69126482D01*
X167245505Y-69126803D01*
X167219254Y-69174705D01*
X167219188Y-69174824D01*
X167194947Y-69217858D01*
X167173034Y-69258261D01*
X167153758Y-69298293D01*
X167153753Y-69298305D01*
X167137394Y-69340269D01*
X167124199Y-69386545D01*
X167124197Y-69386553D01*
X167114445Y-69439437D01*
X167114441Y-69439464D01*
X167108394Y-69501294D01*
X167108392Y-69501329D01*
X167106641Y-69563087D01*
X167102981Y-69571259D01*
X167094946Y-69574455D01*
X166867691Y-69574455D01*
X166859418Y-69571028D01*
X166855996Y-69563087D01*
X166854244Y-69501325D01*
X166854242Y-69501296D01*
X166848195Y-69439464D01*
X166848194Y-69439449D01*
X166838439Y-69386550D01*
X166825245Y-69340275D01*
X166808879Y-69298293D01*
X166789608Y-69258271D01*
X166767699Y-69217875D01*
X166743420Y-69174773D01*
X166717131Y-69126803D01*
X166716961Y-69126482D01*
X166692588Y-69078534D01*
X166691894Y-69069606D01*
X166694583Y-69065124D01*
X166972886Y-68775723D01*
X166981090Y-68772136D01*
X166989429Y-68775401D01*
G37*
%TD.AperFunction*%
%TA.AperFunction,Conductor*%
G36*
X167862389Y-82884682D02*
G01*
X167865812Y-82892654D01*
X167867230Y-82947773D01*
X167867230Y-82947780D01*
X167872249Y-83004240D01*
X167880401Y-83052696D01*
X167880402Y-83052703D01*
X167891516Y-83095223D01*
X167905402Y-83133820D01*
X167905407Y-83133833D01*
X167921910Y-83170615D01*
X167921914Y-83170623D01*
X167921924Y-83170645D01*
X167940840Y-83207605D01*
X167962019Y-83246846D01*
X167962032Y-83246899D01*
X167962044Y-83246893D01*
X167985272Y-83290396D01*
X167985399Y-83290642D01*
X168006789Y-83333087D01*
X168007452Y-83342017D01*
X168004774Y-83346462D01*
X167832266Y-83525848D01*
X167832266Y-83525849D01*
X167832265Y-83525850D01*
X167740519Y-83621255D01*
X167574862Y-83448993D01*
X167574863Y-83448993D01*
X167476263Y-83346462D01*
X167472998Y-83338123D01*
X167474246Y-83333091D01*
X167495711Y-83290498D01*
X167518993Y-83246893D01*
X167519003Y-83246898D01*
X167519015Y-83246851D01*
X167540190Y-83207617D01*
X167559127Y-83170615D01*
X167575630Y-83133833D01*
X167589524Y-83095213D01*
X167600635Y-83052701D01*
X167608787Y-83004241D01*
X167613807Y-82947777D01*
X167615226Y-82892654D01*
X167618865Y-82884472D01*
X167626922Y-82881255D01*
X167854116Y-82881255D01*
X167862389Y-82884682D01*
G37*
%TD.AperFunction*%
%TA.AperFunction,Conductor*%
G36*
X169649875Y-68400082D02*
G01*
X169653245Y-68407216D01*
X169654443Y-68419460D01*
X169664198Y-68472359D01*
X169677392Y-68518634D01*
X169693758Y-68560616D01*
X169713029Y-68600638D01*
X169713034Y-68600647D01*
X169734947Y-68641050D01*
X169759188Y-68684084D01*
X169759254Y-68684203D01*
X169785505Y-68732105D01*
X169785675Y-68732426D01*
X169810049Y-68780375D01*
X169810743Y-68789303D01*
X169808052Y-68793787D01*
X169677587Y-68929454D01*
X169677587Y-68929455D01*
X169521319Y-69091955D01*
X169234584Y-68793786D01*
X169231320Y-68785448D01*
X169232587Y-68780377D01*
X169256980Y-68732388D01*
X169257107Y-68732147D01*
X169283420Y-68684136D01*
X169307699Y-68641034D01*
X169329608Y-68600638D01*
X169348879Y-68560616D01*
X169365245Y-68518634D01*
X169378439Y-68472359D01*
X169388194Y-68419460D01*
X169389391Y-68407216D01*
X169393606Y-68399316D01*
X169401035Y-68396655D01*
X169641602Y-68396655D01*
X169649875Y-68400082D01*
G37*
%TD.AperFunction*%
%TA.AperFunction,Conductor*%
G36*
X167791834Y-84596515D02*
G01*
X167823416Y-84610871D01*
X167852809Y-84622973D01*
X167881279Y-84632973D01*
X167910094Y-84641020D01*
X167940522Y-84647267D01*
X167973831Y-84651863D01*
X168011288Y-84654959D01*
X168054162Y-84656706D01*
X168092149Y-84657126D01*
X168100383Y-84660644D01*
X168103719Y-84668825D01*
X168103719Y-84895683D01*
X168100292Y-84903956D01*
X168092149Y-84907382D01*
X168054160Y-84907803D01*
X168011290Y-84909549D01*
X167973846Y-84912644D01*
X167973813Y-84912648D01*
X167940537Y-84917239D01*
X167940524Y-84917241D01*
X167910095Y-84923488D01*
X167890219Y-84929039D01*
X167881279Y-84931536D01*
X167881274Y-84931537D01*
X167881273Y-84931538D01*
X167852815Y-84941533D01*
X167852794Y-84941541D01*
X167823426Y-84953633D01*
X167818867Y-84955706D01*
X167814024Y-84956755D01*
X167732391Y-84956755D01*
X167724281Y-84953488D01*
X167678589Y-84909549D01*
X167660874Y-84892513D01*
X167603576Y-84837412D01*
X167603568Y-84837404D01*
X167552065Y-84787876D01*
X167548833Y-84780487D01*
X167548460Y-84780099D01*
X167756794Y-84579755D01*
X167791834Y-84596515D01*
G37*
%TD.AperFunction*%
%TA.AperFunction,Conductor*%
G36*
X172026557Y-54733652D02*
G01*
X172073110Y-54787256D01*
X172084549Y-54838505D01*
X172105638Y-57013909D01*
X172105639Y-57013912D01*
X175968733Y-60877005D01*
X176002759Y-60939317D01*
X176005638Y-60966100D01*
X176005638Y-68359988D01*
X175985636Y-68428109D01*
X175966630Y-68451138D01*
X174382170Y-69963316D01*
X174319081Y-69995878D01*
X174295142Y-69998166D01*
X173356602Y-69997898D01*
X173288487Y-69977876D01*
X173242009Y-69924208D01*
X173230638Y-69871898D01*
X173230638Y-68454212D01*
X173250640Y-68386091D01*
X173274139Y-68358976D01*
X174712326Y-67113301D01*
X174721609Y-65063869D01*
X174633459Y-64987040D01*
X174205638Y-64614161D01*
X174205636Y-64614160D01*
X172656619Y-64613928D01*
X172588501Y-64593916D01*
X172542017Y-64540253D01*
X172530638Y-64487928D01*
X172530638Y-63447873D01*
X172550640Y-63379752D01*
X172566300Y-63360037D01*
X172805638Y-63113910D01*
X172805638Y-61513910D01*
X172196310Y-61513910D01*
X172128189Y-61493908D01*
X172081696Y-61440252D01*
X172071032Y-61401377D01*
X172067628Y-61369713D01*
X172067626Y-61369705D01*
X172034968Y-61282148D01*
X172016527Y-61232706D01*
X172016526Y-61232704D01*
X172016525Y-61232702D01*
X171928899Y-61115648D01*
X171811845Y-61028022D01*
X171811840Y-61028020D01*
X171674842Y-60976921D01*
X171674834Y-60976919D01*
X171614287Y-60970410D01*
X171614276Y-60970410D01*
X170897000Y-60970410D01*
X170896988Y-60970410D01*
X170836441Y-60976919D01*
X170836433Y-60976921D01*
X170699435Y-61028020D01*
X170699430Y-61028022D01*
X170582376Y-61115648D01*
X170494750Y-61232702D01*
X170494748Y-61232707D01*
X170443649Y-61369705D01*
X170443647Y-61369713D01*
X170437138Y-61430260D01*
X170437138Y-62669655D01*
X170417136Y-62737776D01*
X170363480Y-62784269D01*
X170311138Y-62795655D01*
X168949219Y-62795655D01*
X168881098Y-62775653D01*
X168834605Y-62721997D01*
X168823219Y-62669655D01*
X168823219Y-61755277D01*
X168823218Y-61755260D01*
X168816709Y-61694713D01*
X168816707Y-61694705D01*
X168765608Y-61557707D01*
X168765606Y-61557702D01*
X168677980Y-61440648D01*
X168560921Y-61353019D01*
X168555579Y-61351027D01*
X168498746Y-61308477D01*
X168473939Y-61241955D01*
X168473619Y-61232974D01*
X168473619Y-59008842D01*
X168493621Y-58940721D01*
X168547277Y-58894228D01*
X168558694Y-58889674D01*
X168595276Y-58877116D01*
X168811497Y-58760103D01*
X169005510Y-58609097D01*
X169172021Y-58428217D01*
X169306490Y-58222398D01*
X169405247Y-57997252D01*
X169434670Y-57881062D01*
X169465599Y-57758933D01*
X169465600Y-57758927D01*
X169465600Y-57758926D01*
X169465601Y-57758923D01*
X169485903Y-57513910D01*
X169465601Y-57268897D01*
X169465600Y-57268892D01*
X169465599Y-57268886D01*
X169405247Y-57030569D01*
X169397941Y-57013912D01*
X169306490Y-56805422D01*
X169172021Y-56599603D01*
X169005510Y-56418723D01*
X168811497Y-56267717D01*
X168811496Y-56267716D01*
X168595275Y-56150703D01*
X168595273Y-56150702D01*
X168362749Y-56070877D01*
X168362742Y-56070875D01*
X168258957Y-56053557D01*
X168120245Y-56030410D01*
X167874393Y-56030410D01*
X167753035Y-56050661D01*
X167631895Y-56070875D01*
X167631888Y-56070877D01*
X167399364Y-56150702D01*
X167399362Y-56150703D01*
X167183141Y-56267716D01*
X167183140Y-56267717D01*
X166989121Y-56418728D01*
X166820020Y-56602423D01*
X166759168Y-56638994D01*
X166688203Y-56636861D01*
X166634618Y-56602423D01*
X166465516Y-56418728D01*
X166271497Y-56267717D01*
X166271496Y-56267716D01*
X166055275Y-56150703D01*
X166055273Y-56150702D01*
X165822749Y-56070877D01*
X165822742Y-56070875D01*
X165718957Y-56053557D01*
X165580245Y-56030410D01*
X165334393Y-56030410D01*
X165213035Y-56050661D01*
X165091895Y-56070875D01*
X165091888Y-56070877D01*
X164859364Y-56150702D01*
X164859362Y-56150703D01*
X164643141Y-56267716D01*
X164643140Y-56267717D01*
X164449125Y-56418725D01*
X164282616Y-56599603D01*
X164148148Y-56805422D01*
X164049390Y-57030569D01*
X163989038Y-57268886D01*
X163989037Y-57268892D01*
X163968735Y-57513910D01*
X163989037Y-57758927D01*
X163989038Y-57758933D01*
X164049390Y-57997250D01*
X164049391Y-57997252D01*
X164148148Y-58222398D01*
X164157146Y-58236170D01*
X164282616Y-58428216D01*
X164370843Y-58524057D01*
X164449128Y-58609097D01*
X164546582Y-58684948D01*
X164643140Y-58760102D01*
X164643141Y-58760103D01*
X164859362Y-58877116D01*
X164859364Y-58877117D01*
X164981016Y-58918880D01*
X165091893Y-58956944D01*
X165231359Y-58980216D01*
X165295257Y-59011158D01*
X165332285Y-59071734D01*
X165336619Y-59104498D01*
X165336619Y-61214027D01*
X165316617Y-61282148D01*
X165262961Y-61328641D01*
X165254653Y-61332082D01*
X165198514Y-61353021D01*
X165198511Y-61353022D01*
X165081457Y-61440648D01*
X164993831Y-61557702D01*
X164993829Y-61557707D01*
X164942730Y-61694705D01*
X164942728Y-61694713D01*
X164936219Y-61755260D01*
X164936219Y-63272559D01*
X164942728Y-63333106D01*
X164942730Y-63333114D01*
X164993829Y-63470112D01*
X164993831Y-63470117D01*
X165081457Y-63587171D01*
X165198511Y-63674797D01*
X165198513Y-63674797D01*
X165198515Y-63674799D01*
X165254653Y-63695737D01*
X165311487Y-63738283D01*
X165336298Y-63804803D01*
X165336619Y-63813792D01*
X165336619Y-64533660D01*
X165316617Y-64601781D01*
X165299714Y-64622755D01*
X164037486Y-65884984D01*
X163949250Y-65973219D01*
X163949245Y-65973226D01*
X163879920Y-66076978D01*
X163832165Y-66192267D01*
X163807819Y-66314658D01*
X163807819Y-67358945D01*
X163787817Y-67427066D01*
X163734161Y-67473559D01*
X163663887Y-67483663D01*
X163637787Y-67477001D01*
X163605519Y-67464965D01*
X163605515Y-67464964D01*
X163544968Y-67458455D01*
X163544957Y-67458455D01*
X162797681Y-67458455D01*
X162797669Y-67458455D01*
X162737122Y-67464964D01*
X162737115Y-67464966D01*
X162719850Y-67471406D01*
X162649034Y-67476470D01*
X162586722Y-67442444D01*
X162552698Y-67380132D01*
X162549819Y-67353350D01*
X162549819Y-66719622D01*
X162549818Y-66719605D01*
X162543309Y-66659058D01*
X162543307Y-66659050D01*
X162506765Y-66561079D01*
X162501699Y-66490264D01*
X162506761Y-66473021D01*
X162528308Y-66415256D01*
X162534819Y-66354693D01*
X162534819Y-65637417D01*
X162534818Y-65637405D01*
X162528309Y-65576858D01*
X162528307Y-65576850D01*
X162488291Y-65469566D01*
X162477208Y-65439851D01*
X162477207Y-65439849D01*
X162477206Y-65439847D01*
X162406677Y-65345632D01*
X162381866Y-65279112D01*
X162396957Y-65209738D01*
X162418446Y-65181030D01*
X162547080Y-65052396D01*
X162609390Y-65018373D01*
X162622059Y-65016286D01*
X162666566Y-65011272D01*
X162838534Y-64951098D01*
X162992800Y-64854166D01*
X163121630Y-64725336D01*
X163218562Y-64571070D01*
X163278736Y-64399102D01*
X163299135Y-64218055D01*
X163278736Y-64037008D01*
X163218562Y-63865040D01*
X163218560Y-63865037D01*
X163218560Y-63865036D01*
X163121631Y-63710775D01*
X163121630Y-63710773D01*
X162992800Y-63581943D01*
X162992798Y-63581942D01*
X162838537Y-63485013D01*
X162838534Y-63485012D01*
X162666569Y-63424839D01*
X162666568Y-63424838D01*
X162666566Y-63424838D01*
X162485519Y-63404439D01*
X162304472Y-63424838D01*
X162304469Y-63424838D01*
X162304468Y-63424839D01*
X162132503Y-63485012D01*
X162132500Y-63485013D01*
X161978239Y-63581942D01*
X161978237Y-63581943D01*
X161849407Y-63710773D01*
X161849406Y-63710775D01*
X161752477Y-63865036D01*
X161752476Y-63865039D01*
X161692303Y-64037002D01*
X161692300Y-64037016D01*
X161687287Y-64081508D01*
X161659783Y-64146960D01*
X161651176Y-64156493D01*
X161322486Y-64485184D01*
X161234246Y-64573424D01*
X161234245Y-64573426D01*
X161164920Y-64677178D01*
X161117165Y-64792467D01*
X161092819Y-64914858D01*
X161092819Y-65241100D01*
X161072817Y-65309221D01*
X161067687Y-65316609D01*
X160975431Y-65439847D01*
X160975429Y-65439852D01*
X160924330Y-65576850D01*
X160924328Y-65576858D01*
X160917819Y-65637405D01*
X160917819Y-66354704D01*
X160924328Y-66415250D01*
X160924329Y-66415254D01*
X160935873Y-66446203D01*
X160940937Y-66517018D01*
X160935873Y-66534267D01*
X160889329Y-66659054D01*
X160889328Y-66659058D01*
X160882819Y-66719605D01*
X160882819Y-67456904D01*
X160889328Y-67517451D01*
X160889330Y-67517459D01*
X160940429Y-67654457D01*
X160940431Y-67654462D01*
X160990056Y-67720752D01*
X161028058Y-67771516D01*
X161028061Y-67771518D01*
X161034427Y-67777884D01*
X161031993Y-67780317D01*
X161064570Y-67823829D01*
X161071794Y-67881334D01*
X161067820Y-67918302D01*
X161067819Y-67918322D01*
X161067819Y-69868356D01*
X161047817Y-69936477D01*
X160994161Y-69982970D01*
X160941783Y-69994356D01*
X159426146Y-69993924D01*
X159358031Y-69973903D01*
X159339124Y-69959011D01*
X158892829Y-69532456D01*
X157991692Y-68671177D01*
X157956268Y-68609652D01*
X157952751Y-68579934D01*
X157970478Y-54855050D01*
X157990567Y-54786960D01*
X158044283Y-54740537D01*
X158096332Y-54729218D01*
X171958418Y-54713727D01*
X172026557Y-54733652D01*
G37*
%TD.AperFunction*%
%TA.AperFunction,Conductor*%
G36*
X166940104Y-63580273D02*
G01*
X166955220Y-63589987D01*
X167068515Y-63674799D01*
X167129454Y-63697528D01*
X167186287Y-63740073D01*
X167211098Y-63806593D01*
X167211419Y-63815582D01*
X167211419Y-64739861D01*
X167211419Y-64864649D01*
X167235764Y-64987040D01*
X167283519Y-65102330D01*
X167352848Y-65206088D01*
X167352850Y-65206090D01*
X167554014Y-65407254D01*
X167588040Y-65469566D01*
X167590919Y-65496349D01*
X167590919Y-66456329D01*
X167571607Y-66523363D01*
X167547909Y-66561079D01*
X167518274Y-66608243D01*
X167458103Y-66780204D01*
X167458102Y-66780208D01*
X167437703Y-66961255D01*
X167458102Y-67142302D01*
X167458102Y-67142304D01*
X167458103Y-67142305D01*
X167511228Y-67294128D01*
X167514847Y-67365032D01*
X167479558Y-67426637D01*
X167416565Y-67459384D01*
X167378832Y-67461021D01*
X167354971Y-67458456D01*
X167354962Y-67458455D01*
X167354957Y-67458455D01*
X166607681Y-67458455D01*
X166607669Y-67458455D01*
X166547122Y-67464964D01*
X166547114Y-67464966D01*
X166410116Y-67516065D01*
X166410111Y-67516067D01*
X166293057Y-67603693D01*
X166205431Y-67720747D01*
X166205429Y-67720752D01*
X166154330Y-67857750D01*
X166154328Y-67857758D01*
X166147819Y-67918305D01*
X166147819Y-69532456D01*
X166127817Y-69600577D01*
X166074161Y-69647070D01*
X166021819Y-69658456D01*
X165400819Y-69658456D01*
X165332698Y-69638454D01*
X165286205Y-69584798D01*
X165274819Y-69532456D01*
X165274819Y-67918322D01*
X165274818Y-67918305D01*
X165268309Y-67857758D01*
X165268307Y-67857750D01*
X165217208Y-67720752D01*
X165217206Y-67720747D01*
X165129579Y-67603692D01*
X165125308Y-67600495D01*
X165082762Y-67543659D01*
X165074819Y-67499629D01*
X165074819Y-66691649D01*
X165094821Y-66623528D01*
X165111719Y-66602558D01*
X166462191Y-65252088D01*
X166531520Y-65148330D01*
X166579274Y-65033039D01*
X166603619Y-64910648D01*
X166603619Y-64785861D01*
X166603619Y-63794844D01*
X166623621Y-63726723D01*
X166677277Y-63680230D01*
X166685558Y-63676799D01*
X166690923Y-63674799D01*
X166804211Y-63589992D01*
X166870730Y-63565182D01*
X166940104Y-63580273D01*
G37*
%TD.AperFunction*%
%TA.AperFunction,Conductor*%
G36*
X169677587Y-78353454D02*
G01*
X169677587Y-78353455D01*
X169808052Y-78489122D01*
X169811317Y-78497461D01*
X169810049Y-78502534D01*
X169785675Y-78550482D01*
X169785505Y-78550803D01*
X169759254Y-78598705D01*
X169759188Y-78598824D01*
X169734947Y-78641858D01*
X169713034Y-78682261D01*
X169693758Y-78722293D01*
X169693753Y-78722305D01*
X169677394Y-78764269D01*
X169664199Y-78810545D01*
X169664197Y-78810553D01*
X169654445Y-78863437D01*
X169654441Y-78863464D01*
X169648394Y-78925294D01*
X169648392Y-78925329D01*
X169646641Y-78987087D01*
X169642981Y-78995259D01*
X169634946Y-78998455D01*
X169407691Y-78998455D01*
X169399418Y-78995028D01*
X169395996Y-78987087D01*
X169394244Y-78925325D01*
X169394242Y-78925296D01*
X169388195Y-78863464D01*
X169388194Y-78863449D01*
X169378439Y-78810550D01*
X169365245Y-78764275D01*
X169348879Y-78722293D01*
X169329608Y-78682271D01*
X169307699Y-78641875D01*
X169283420Y-78598773D01*
X169257131Y-78550803D01*
X169256961Y-78550482D01*
X169232588Y-78502534D01*
X169231894Y-78493606D01*
X169234583Y-78489124D01*
X169521319Y-78190955D01*
X169677587Y-78353454D01*
G37*
%TD.AperFunction*%
%TA.AperFunction,Conductor*%
G36*
X167818868Y-85258804D02*
G01*
X167823415Y-85260871D01*
X167852794Y-85272967D01*
X167852809Y-85272973D01*
X167881279Y-85282973D01*
X167910094Y-85291020D01*
X167940522Y-85297267D01*
X167973831Y-85301863D01*
X168011288Y-85304959D01*
X168054162Y-85306706D01*
X168092149Y-85307126D01*
X168100383Y-85310644D01*
X168103719Y-85318825D01*
X168103719Y-85545683D01*
X168100292Y-85553956D01*
X168092149Y-85557382D01*
X168054160Y-85557803D01*
X168011290Y-85559549D01*
X167973846Y-85562644D01*
X167973813Y-85562648D01*
X167940537Y-85567239D01*
X167940524Y-85567241D01*
X167910095Y-85573488D01*
X167890219Y-85579039D01*
X167881279Y-85581536D01*
X167881274Y-85581537D01*
X167881273Y-85581538D01*
X167852815Y-85591533D01*
X167852794Y-85591541D01*
X167823426Y-85603633D01*
X167818867Y-85605706D01*
X167814024Y-85606755D01*
X167732390Y-85606755D01*
X167724280Y-85603488D01*
X167711857Y-85591541D01*
X167554987Y-85440687D01*
X167551400Y-85432484D01*
X167554665Y-85424145D01*
X167554988Y-85423822D01*
X167676204Y-85307255D01*
X167724280Y-85261021D01*
X167732390Y-85257755D01*
X167814026Y-85257755D01*
X167818868Y-85258804D01*
G37*
%TD.AperFunction*%
%TA.AperFunction,Conductor*%
G36*
X164563219Y-68287882D02*
G01*
X164566641Y-68295823D01*
X164568392Y-68357579D01*
X164568394Y-68357614D01*
X164574441Y-68419444D01*
X164574443Y-68419460D01*
X164584198Y-68472359D01*
X164597392Y-68518634D01*
X164613758Y-68560616D01*
X164633029Y-68600638D01*
X164633034Y-68600647D01*
X164654947Y-68641050D01*
X164679188Y-68684084D01*
X164679254Y-68684203D01*
X164705505Y-68732105D01*
X164705675Y-68732426D01*
X164730049Y-68780375D01*
X164730743Y-68789303D01*
X164728052Y-68793787D01*
X164597587Y-68929454D01*
X164597587Y-68929455D01*
X164441319Y-69091955D01*
X164154584Y-68793786D01*
X164151320Y-68785448D01*
X164152587Y-68780377D01*
X164176980Y-68732388D01*
X164177107Y-68732147D01*
X164203420Y-68684136D01*
X164227699Y-68641034D01*
X164249608Y-68600638D01*
X164268879Y-68560616D01*
X164285245Y-68518634D01*
X164298439Y-68472359D01*
X164308194Y-68419460D01*
X164314243Y-68357603D01*
X164315996Y-68295822D01*
X164319656Y-68287651D01*
X164327691Y-68284455D01*
X164554946Y-68284455D01*
X164563219Y-68287882D01*
G37*
%TD.AperFunction*%
%TA.AperFunction,Conductor*%
G36*
X170919875Y-68400082D02*
G01*
X170923245Y-68407216D01*
X170924443Y-68419460D01*
X170934198Y-68472359D01*
X170947392Y-68518634D01*
X170963758Y-68560616D01*
X170983029Y-68600638D01*
X170983034Y-68600647D01*
X171004947Y-68641050D01*
X171029188Y-68684084D01*
X171029254Y-68684203D01*
X171055505Y-68732105D01*
X171055675Y-68732426D01*
X171080049Y-68780375D01*
X171080743Y-68789303D01*
X171078052Y-68793787D01*
X170799752Y-69083185D01*
X170791548Y-69086773D01*
X170783209Y-69083508D01*
X170782886Y-69083185D01*
X170504585Y-68793787D01*
X170501320Y-68785448D01*
X170502587Y-68780377D01*
X170526980Y-68732388D01*
X170527107Y-68732147D01*
X170553420Y-68684136D01*
X170577699Y-68641034D01*
X170599608Y-68600638D01*
X170618879Y-68560616D01*
X170635245Y-68518634D01*
X170648439Y-68472359D01*
X170658194Y-68419460D01*
X170659391Y-68407216D01*
X170663606Y-68399316D01*
X170671035Y-68396655D01*
X170911602Y-68396655D01*
X170919875Y-68400082D01*
G37*
%TD.AperFunction*%
%TA.AperFunction,Conductor*%
G36*
X167780421Y-84340682D02*
G01*
X167783847Y-84348826D01*
X167784267Y-84386811D01*
X167786013Y-84429682D01*
X167789108Y-84467126D01*
X167789112Y-84467159D01*
X167793703Y-84500435D01*
X167793705Y-84500448D01*
X167799952Y-84530877D01*
X167799953Y-84530879D01*
X167808000Y-84559694D01*
X167808002Y-84559699D01*
X167817997Y-84588157D01*
X167818000Y-84588164D01*
X167830102Y-84617557D01*
X167844458Y-84649139D01*
X167861219Y-84684180D01*
X167660874Y-84892513D01*
X167660873Y-84892513D01*
X167660236Y-84891900D01*
X167653420Y-84889232D01*
X167653096Y-84888908D01*
X167603568Y-84837404D01*
X167603558Y-84837394D01*
X167461839Y-84690024D01*
X167458574Y-84681685D01*
X167459717Y-84676866D01*
X167472979Y-84649139D01*
X167487335Y-84617557D01*
X167499437Y-84588164D01*
X167509437Y-84559694D01*
X167517484Y-84530879D01*
X167523731Y-84500451D01*
X167528327Y-84467142D01*
X167531423Y-84429685D01*
X167533170Y-84386811D01*
X167533591Y-84348825D01*
X167537109Y-84340591D01*
X167545290Y-84337255D01*
X167772148Y-84337255D01*
X167780421Y-84340682D01*
G37*
%TD.AperFunction*%
%TA.AperFunction,Conductor*%
G36*
X123165429Y-97401960D02*
G01*
X123244083Y-97414418D01*
X123281575Y-97426600D01*
X123343584Y-97458195D01*
X123375476Y-97481367D01*
X123424680Y-97530571D01*
X123447852Y-97562463D01*
X123479447Y-97624472D01*
X123491629Y-97661963D01*
X123502516Y-97730698D01*
X123502516Y-97770122D01*
X123491629Y-97838856D01*
X123479447Y-97876347D01*
X123447852Y-97938356D01*
X123424680Y-97970248D01*
X123375476Y-98019452D01*
X123343584Y-98042624D01*
X123281575Y-98074219D01*
X123244084Y-98086401D01*
X123191506Y-98094729D01*
X123165428Y-98098859D01*
X123145721Y-98100410D01*
X122325638Y-98100410D01*
X121985555Y-98100410D01*
X121965847Y-98098859D01*
X121935243Y-98094012D01*
X121887191Y-98086401D01*
X121849700Y-98074219D01*
X121787691Y-98042624D01*
X121755799Y-98019452D01*
X121706595Y-97970248D01*
X121683423Y-97938356D01*
X121651828Y-97876347D01*
X121639646Y-97838856D01*
X121628759Y-97770115D01*
X121628759Y-97730704D01*
X121639646Y-97661960D01*
X121651828Y-97624472D01*
X121683425Y-97562460D01*
X121706592Y-97530574D01*
X121755802Y-97481364D01*
X121787688Y-97458197D01*
X121849702Y-97426599D01*
X121887192Y-97414418D01*
X121965845Y-97401960D01*
X121985555Y-97400410D01*
X123145721Y-97400410D01*
X123165429Y-97401960D01*
G37*
%TD.AperFunction*%
%TA.AperFunction,Conductor*%
G36*
X164563219Y-77711882D02*
G01*
X164566641Y-77719823D01*
X164568392Y-77781579D01*
X164568394Y-77781614D01*
X164574441Y-77843444D01*
X164574443Y-77843460D01*
X164584198Y-77896359D01*
X164597392Y-77942634D01*
X164613758Y-77984616D01*
X164633029Y-78024638D01*
X164633034Y-78024647D01*
X164654947Y-78065050D01*
X164679188Y-78108084D01*
X164679254Y-78108203D01*
X164705505Y-78156105D01*
X164705675Y-78156426D01*
X164730049Y-78204375D01*
X164730743Y-78213303D01*
X164728052Y-78217787D01*
X164597587Y-78353454D01*
X164597587Y-78353455D01*
X164441319Y-78515955D01*
X164154584Y-78217786D01*
X164151320Y-78209448D01*
X164152587Y-78204377D01*
X164176980Y-78156388D01*
X164177107Y-78156147D01*
X164203420Y-78108136D01*
X164227699Y-78065034D01*
X164249608Y-78024638D01*
X164268879Y-77984616D01*
X164285245Y-77942634D01*
X164298439Y-77896359D01*
X164308194Y-77843460D01*
X164314243Y-77781603D01*
X164315996Y-77719822D01*
X164319656Y-77711651D01*
X164327691Y-77708455D01*
X164554946Y-77708455D01*
X164563219Y-77711882D01*
G37*
%TD.AperFunction*%
%TA.AperFunction,Conductor*%
G36*
X113706406Y-74704261D02*
G01*
X113768645Y-74716641D01*
X113786310Y-74723957D01*
X113834989Y-74756484D01*
X113848504Y-74769999D01*
X113862538Y-74791002D01*
X113881031Y-74818679D01*
X113888347Y-74836342D01*
X113891724Y-74853319D01*
X113900459Y-74897233D01*
X113900728Y-74898582D01*
X113901670Y-74908142D01*
X113901670Y-75218495D01*
X113900728Y-75228055D01*
X113888347Y-75290295D01*
X113881031Y-75307958D01*
X113848506Y-75356636D01*
X113834987Y-75370155D01*
X113786309Y-75402680D01*
X113768646Y-75409996D01*
X113720945Y-75419484D01*
X113706404Y-75422377D01*
X113696847Y-75423319D01*
X112976688Y-75423319D01*
X112969421Y-75422777D01*
X112959612Y-75421306D01*
X112921634Y-75415610D01*
X112907741Y-75411347D01*
X112864162Y-75390481D01*
X112857841Y-75386854D01*
X112384469Y-75066183D01*
X112375488Y-75058347D01*
X112323130Y-75000021D01*
X112312043Y-74979119D01*
X112293120Y-74903059D01*
X112291670Y-74891229D01*
X112291670Y-74859768D01*
X112293338Y-74847093D01*
X112308369Y-74790996D01*
X112321047Y-74769037D01*
X112357388Y-74732696D01*
X112379347Y-74720018D01*
X112431096Y-74706152D01*
X112443771Y-74704484D01*
X112801951Y-74704484D01*
X112801952Y-74704484D01*
X112803078Y-74704259D01*
X112812635Y-74703319D01*
X113696847Y-74703319D01*
X113706406Y-74704261D01*
G37*
%TD.AperFunction*%
%TA.AperFunction,Conductor*%
G36*
X113316335Y-72580202D02*
G01*
X113838670Y-72581517D01*
X113865946Y-72581586D01*
X113884657Y-72585350D01*
X113918278Y-72599351D01*
X113927521Y-72603200D01*
X113953966Y-72629712D01*
X113971707Y-72672618D01*
X113975425Y-72691341D01*
X113975425Y-73896848D01*
X113971683Y-73915628D01*
X113953839Y-73958630D01*
X113927304Y-73985132D01*
X113927247Y-73985155D01*
X113908335Y-73992946D01*
X113884199Y-74002890D01*
X113865414Y-74006584D01*
X113403648Y-74005422D01*
X112808721Y-74003925D01*
X112804051Y-74003690D01*
X112801955Y-74003484D01*
X112801952Y-74003484D01*
X112633162Y-74003484D01*
X112525719Y-74003213D01*
X112399996Y-74002897D01*
X112381282Y-73999132D01*
X112338420Y-73981283D01*
X112311975Y-73954770D01*
X112294235Y-73911864D01*
X112290517Y-73893142D01*
X112290517Y-72687635D01*
X112294257Y-72668860D01*
X112312103Y-72625851D01*
X112338633Y-72599353D01*
X112381742Y-72581592D01*
X112400526Y-72577898D01*
X113316335Y-72580202D01*
G37*
%TD.AperFunction*%
%TA.AperFunction,Conductor*%
G36*
X164597587Y-78353454D02*
G01*
X164597587Y-78353455D01*
X164728052Y-78489122D01*
X164731317Y-78497461D01*
X164730049Y-78502534D01*
X164705675Y-78550482D01*
X164705505Y-78550803D01*
X164679254Y-78598705D01*
X164679188Y-78598824D01*
X164654947Y-78641858D01*
X164633034Y-78682261D01*
X164613758Y-78722293D01*
X164613753Y-78722305D01*
X164597394Y-78764269D01*
X164584199Y-78810545D01*
X164584197Y-78810553D01*
X164574445Y-78863437D01*
X164574441Y-78863464D01*
X164568394Y-78925294D01*
X164568392Y-78925329D01*
X164566641Y-78987087D01*
X164562981Y-78995259D01*
X164554946Y-78998455D01*
X164327691Y-78998455D01*
X164319418Y-78995028D01*
X164315996Y-78987087D01*
X164314244Y-78925325D01*
X164314242Y-78925296D01*
X164308195Y-78863464D01*
X164308194Y-78863449D01*
X164298439Y-78810550D01*
X164285245Y-78764275D01*
X164268879Y-78722293D01*
X164249608Y-78682271D01*
X164227699Y-78641875D01*
X164203420Y-78598773D01*
X164177131Y-78550803D01*
X164176961Y-78550482D01*
X164152588Y-78502534D01*
X164151894Y-78493606D01*
X164154583Y-78489124D01*
X164441319Y-78190955D01*
X164597587Y-78353454D01*
G37*
%TD.AperFunction*%
%TA.AperFunction,Conductor*%
G36*
X168373219Y-77711882D02*
G01*
X168376641Y-77719823D01*
X168378392Y-77781579D01*
X168378394Y-77781614D01*
X168384441Y-77843444D01*
X168384443Y-77843460D01*
X168394198Y-77896359D01*
X168407392Y-77942634D01*
X168423758Y-77984616D01*
X168443029Y-78024638D01*
X168443034Y-78024647D01*
X168464947Y-78065050D01*
X168489188Y-78108084D01*
X168489254Y-78108203D01*
X168515505Y-78156105D01*
X168515675Y-78156426D01*
X168540049Y-78204375D01*
X168540743Y-78213303D01*
X168538052Y-78217787D01*
X168407587Y-78353454D01*
X168407587Y-78353455D01*
X168251319Y-78515955D01*
X167964584Y-78217786D01*
X167961320Y-78209448D01*
X167962587Y-78204377D01*
X167986980Y-78156388D01*
X167987107Y-78156147D01*
X168013420Y-78108136D01*
X168037699Y-78065034D01*
X168059608Y-78024638D01*
X168078879Y-77984616D01*
X168095245Y-77942634D01*
X168108439Y-77896359D01*
X168118194Y-77843460D01*
X168124243Y-77781603D01*
X168125996Y-77719822D01*
X168129656Y-77711651D01*
X168137691Y-77708455D01*
X168364946Y-77708455D01*
X168373219Y-77711882D01*
G37*
%TD.AperFunction*%
%TA.AperFunction,Conductor*%
G36*
X164597587Y-68929454D02*
G01*
X164597587Y-68929455D01*
X164728052Y-69065122D01*
X164731317Y-69073461D01*
X164730049Y-69078534D01*
X164705675Y-69126482D01*
X164705505Y-69126803D01*
X164679254Y-69174705D01*
X164679188Y-69174824D01*
X164654947Y-69217858D01*
X164633034Y-69258261D01*
X164613758Y-69298293D01*
X164613753Y-69298305D01*
X164597394Y-69340269D01*
X164584199Y-69386545D01*
X164584197Y-69386553D01*
X164574445Y-69439437D01*
X164574441Y-69439464D01*
X164568394Y-69501294D01*
X164568392Y-69501329D01*
X164566641Y-69563087D01*
X164562981Y-69571259D01*
X164554946Y-69574455D01*
X164327691Y-69574455D01*
X164319418Y-69571028D01*
X164315996Y-69563087D01*
X164314244Y-69501325D01*
X164314242Y-69501296D01*
X164308195Y-69439464D01*
X164308194Y-69439449D01*
X164298439Y-69386550D01*
X164285245Y-69340275D01*
X164268879Y-69298293D01*
X164249608Y-69258271D01*
X164227699Y-69217875D01*
X164203420Y-69174773D01*
X164177131Y-69126803D01*
X164176961Y-69126482D01*
X164152588Y-69078534D01*
X164151894Y-69069606D01*
X164154583Y-69065124D01*
X164441319Y-68766955D01*
X164597587Y-68929454D01*
G37*
%TD.AperFunction*%
%TA.AperFunction,Conductor*%
G36*
X130712071Y-80114757D02*
G01*
X130727377Y-80116772D01*
X130822127Y-80129246D01*
X130847085Y-80135933D01*
X130943598Y-80175910D01*
X130965974Y-80188828D01*
X131048854Y-80252425D01*
X131067122Y-80270693D01*
X131130717Y-80353570D01*
X131143639Y-80375952D01*
X131183613Y-80472458D01*
X131190302Y-80497422D01*
X131204791Y-80607476D01*
X131205638Y-80620398D01*
X131205638Y-94313910D01*
X128005638Y-94313910D01*
X128005638Y-84913910D01*
X128005638Y-80620398D01*
X128006485Y-80607477D01*
X128008149Y-80594833D01*
X128020974Y-80497418D01*
X128027660Y-80472464D01*
X128067639Y-80375945D01*
X128080554Y-80353576D01*
X128144156Y-80270689D01*
X128162417Y-80252428D01*
X128245304Y-80188826D01*
X128267673Y-80175911D01*
X128364192Y-80135932D01*
X128389146Y-80129246D01*
X128486561Y-80116421D01*
X128499205Y-80114757D01*
X128512126Y-80113910D01*
X130699150Y-80113910D01*
X130712071Y-80114757D01*
G37*
%TD.AperFunction*%
%TA.AperFunction,Conductor*%
G36*
X169677587Y-68929454D02*
G01*
X169677587Y-68929455D01*
X169808052Y-69065122D01*
X169811317Y-69073461D01*
X169810049Y-69078534D01*
X169785675Y-69126482D01*
X169785505Y-69126803D01*
X169759254Y-69174705D01*
X169759188Y-69174824D01*
X169734947Y-69217858D01*
X169713034Y-69258261D01*
X169693758Y-69298293D01*
X169693753Y-69298305D01*
X169677394Y-69340269D01*
X169664199Y-69386545D01*
X169664197Y-69386553D01*
X169654445Y-69439437D01*
X169654441Y-69439464D01*
X169648394Y-69501294D01*
X169648392Y-69501329D01*
X169646641Y-69563087D01*
X169642981Y-69571259D01*
X169634946Y-69574455D01*
X169407691Y-69574455D01*
X169399418Y-69571028D01*
X169395996Y-69563087D01*
X169394244Y-69501325D01*
X169394242Y-69501296D01*
X169388195Y-69439464D01*
X169388194Y-69439449D01*
X169378439Y-69386550D01*
X169365245Y-69340275D01*
X169348879Y-69298293D01*
X169329608Y-69258271D01*
X169307699Y-69217875D01*
X169283420Y-69174773D01*
X169257131Y-69126803D01*
X169256961Y-69126482D01*
X169232588Y-69078534D01*
X169231894Y-69069606D01*
X169234583Y-69065124D01*
X169521319Y-68766955D01*
X169677587Y-68929454D01*
G37*
%TD.AperFunction*%
%TA.AperFunction,Conductor*%
G36*
X126919990Y-95739762D02*
G01*
X126991286Y-95811058D01*
X127005638Y-95845706D01*
X127005638Y-98105114D01*
X126991286Y-98139762D01*
X126919990Y-98211058D01*
X126885342Y-98225410D01*
X125220385Y-98225410D01*
X125193341Y-98217271D01*
X125078858Y-98141500D01*
X125060798Y-98119787D01*
X125054569Y-98105114D01*
X124694715Y-97257459D01*
X124655638Y-97165410D01*
X124555638Y-97165410D01*
X124450268Y-97165410D01*
X124440711Y-97164469D01*
X124435386Y-97163410D01*
X123833934Y-97163410D01*
X123799286Y-97149058D01*
X123730490Y-97080262D01*
X123716138Y-97045614D01*
X123716138Y-96985206D01*
X123730490Y-96950558D01*
X123801286Y-96879762D01*
X123835934Y-96865410D01*
X124915638Y-96865410D01*
X125015638Y-96865410D01*
X125081205Y-96789907D01*
X125081207Y-96789907D01*
X125510638Y-96295410D01*
X125933093Y-95808945D01*
X125949753Y-95796496D01*
X126095952Y-95729827D01*
X126116283Y-95725410D01*
X126885342Y-95725410D01*
X126919990Y-95739762D01*
G37*
%TD.AperFunction*%
%TA.AperFunction,Conductor*%
G36*
X120019568Y-95445412D02*
G01*
X120066061Y-95499068D01*
X120076165Y-95569342D01*
X120055638Y-95614287D01*
X120055638Y-95825411D01*
X120068733Y-95838506D01*
X120102759Y-95900818D01*
X120105638Y-95927601D01*
X120105638Y-96513910D01*
X120748812Y-96513910D01*
X120816933Y-96533912D01*
X120837907Y-96550815D01*
X121018733Y-96731641D01*
X121052759Y-96793953D01*
X121055638Y-96820736D01*
X121055638Y-97913911D01*
X121405637Y-98425409D01*
X121405638Y-98425410D01*
X122129638Y-98425410D01*
X122197759Y-98445412D01*
X122244252Y-98499068D01*
X122255638Y-98551410D01*
X122255638Y-100099410D01*
X122235636Y-100167531D01*
X122181980Y-100214024D01*
X122129638Y-100225410D01*
X119531638Y-100225410D01*
X119463517Y-100205408D01*
X119417024Y-100151752D01*
X119405638Y-100099410D01*
X119405638Y-95551410D01*
X119425640Y-95483289D01*
X119479296Y-95436796D01*
X119531638Y-95425410D01*
X119951447Y-95425410D01*
X120019568Y-95445412D01*
G37*
%TD.AperFunction*%
%TA.AperFunction,Conductor*%
G36*
X111610374Y-62354852D02*
G01*
X111672613Y-62367232D01*
X111690278Y-62374548D01*
X111738957Y-62407075D01*
X111752472Y-62420590D01*
X111768736Y-62444931D01*
X111784999Y-62469270D01*
X111792315Y-62486933D01*
X111804696Y-62549173D01*
X111805638Y-62558733D01*
X111805638Y-73413441D01*
X111804438Y-73424218D01*
X111788718Y-73493940D01*
X111779469Y-73513409D01*
X111735352Y-73569641D01*
X111727756Y-73577379D01*
X111263523Y-73955704D01*
X111256610Y-73960416D01*
X111208350Y-73987591D01*
X111192645Y-73993181D01*
X111174653Y-73996287D01*
X111169917Y-73997105D01*
X111161582Y-73997819D01*
X111144610Y-73997819D01*
X111124516Y-73998805D01*
X111123915Y-73998850D01*
X111123911Y-73998804D01*
X111120302Y-73998984D01*
X110776024Y-73998984D01*
X110749219Y-74000740D01*
X110736551Y-74002407D01*
X110735776Y-74002536D01*
X110735771Y-74002510D01*
X110735751Y-74002513D01*
X110735745Y-74002472D01*
X110727146Y-74003319D01*
X110686331Y-74003319D01*
X110677405Y-74002499D01*
X110619114Y-73991700D01*
X110602448Y-73985306D01*
X110551890Y-73954342D01*
X110544710Y-73948983D01*
X110175688Y-73616940D01*
X110168836Y-73609336D01*
X110129067Y-73554627D01*
X110120775Y-73536009D01*
X110115969Y-73513409D01*
X110106710Y-73469865D01*
X110105638Y-73459673D01*
X110105638Y-70759770D01*
X110105638Y-70759768D01*
X110105638Y-70663910D01*
X109545638Y-70213910D01*
X109475238Y-70213910D01*
X109475237Y-70213910D01*
X102810461Y-70213910D01*
X102800903Y-70212968D01*
X102782840Y-70209375D01*
X102738661Y-70200587D01*
X102720998Y-70193271D01*
X102696659Y-70177008D01*
X102672318Y-70160744D01*
X102658803Y-70147229D01*
X102626276Y-70098549D01*
X102618960Y-70080889D01*
X102606578Y-70018636D01*
X102605638Y-70009086D01*
X102605638Y-68418733D01*
X102606577Y-68409184D01*
X102618961Y-68346928D01*
X102626276Y-68329270D01*
X102658805Y-68280587D01*
X102672315Y-68267077D01*
X102720999Y-68234547D01*
X102738656Y-68227233D01*
X102800912Y-68214849D01*
X102810461Y-68213910D01*
X109401654Y-68213910D01*
X109475638Y-68213910D01*
X110105638Y-67673910D01*
X110105638Y-62558733D01*
X110106577Y-62549184D01*
X110118961Y-62486928D01*
X110126276Y-62469270D01*
X110158805Y-62420587D01*
X110172315Y-62407077D01*
X110220999Y-62374547D01*
X110238656Y-62367233D01*
X110300912Y-62354849D01*
X110310461Y-62353910D01*
X111600815Y-62353910D01*
X111610374Y-62354852D01*
G37*
%TD.AperFunction*%
%TA.AperFunction,Conductor*%
G36*
X122908820Y-78154328D02*
G01*
X123028655Y-78170105D01*
X123041006Y-78173415D01*
X123149678Y-78218428D01*
X123160754Y-78224823D01*
X123254073Y-78296430D01*
X123263117Y-78305474D01*
X123334724Y-78398793D01*
X123341120Y-78409871D01*
X123386131Y-78518537D01*
X123389442Y-78530893D01*
X123405219Y-78650727D01*
X123405638Y-78657123D01*
X123405638Y-83450696D01*
X123405219Y-83457092D01*
X123389442Y-83576926D01*
X123386131Y-83589282D01*
X123341120Y-83697948D01*
X123334724Y-83709026D01*
X123263117Y-83802345D01*
X123254073Y-83811389D01*
X123160754Y-83882996D01*
X123149676Y-83889392D01*
X123041010Y-83934403D01*
X123028654Y-83937714D01*
X122908821Y-83953491D01*
X122902425Y-83953910D01*
X120305638Y-83953910D01*
X117305638Y-83953910D01*
X116438589Y-83953910D01*
X116432193Y-83953491D01*
X116312359Y-83937714D01*
X116300003Y-83934403D01*
X116191337Y-83889392D01*
X116180259Y-83882996D01*
X116086940Y-83811389D01*
X116077896Y-83802345D01*
X116006289Y-83709026D01*
X115999893Y-83697948D01*
X115954881Y-83589278D01*
X115951571Y-83576926D01*
X115935795Y-83457092D01*
X115935376Y-83450696D01*
X115935376Y-78657123D01*
X115935795Y-78650727D01*
X115951571Y-78530893D01*
X115954880Y-78518543D01*
X115999896Y-78409865D01*
X116006289Y-78398793D01*
X116077898Y-78305471D01*
X116086937Y-78296432D01*
X116180261Y-78224821D01*
X116191331Y-78218430D01*
X116300009Y-78173414D01*
X116312356Y-78170105D01*
X116432193Y-78154328D01*
X116438589Y-78153910D01*
X122902425Y-78153910D01*
X122908820Y-78154328D01*
G37*
%TD.AperFunction*%
%TA.AperFunction,Conductor*%
G36*
X111517431Y-74203955D02*
G01*
X111632550Y-74222701D01*
X111647482Y-74227696D01*
X111726068Y-74269035D01*
X111747152Y-74280126D01*
X111759731Y-74289603D01*
X111840394Y-74373843D01*
X111845379Y-74379970D01*
X111885002Y-74437602D01*
X111926455Y-74497898D01*
X111930162Y-74504269D01*
X111977684Y-74602219D01*
X111982045Y-74616257D01*
X111998378Y-74723902D01*
X111998932Y-74731253D01*
X111998932Y-75403319D01*
X112505638Y-75778319D01*
X113701780Y-75778319D01*
X113709445Y-75778922D01*
X113821580Y-75796682D01*
X113836161Y-75801420D01*
X113933838Y-75851189D01*
X113946240Y-75860200D01*
X114023756Y-75937716D01*
X114032767Y-75950118D01*
X114082536Y-76047795D01*
X114087274Y-76062375D01*
X114105035Y-76174510D01*
X114105638Y-76182176D01*
X114105638Y-83550052D01*
X114105035Y-83557718D01*
X114087274Y-83669853D01*
X114082536Y-83684433D01*
X114032767Y-83782110D01*
X114023756Y-83794512D01*
X113946240Y-83872028D01*
X113933838Y-83881039D01*
X113836161Y-83930808D01*
X113821581Y-83935546D01*
X113723047Y-83951152D01*
X113709444Y-83953307D01*
X113701780Y-83953910D01*
X111778910Y-83953910D01*
X111771262Y-83953310D01*
X111659377Y-83935631D01*
X111644828Y-83930915D01*
X111547320Y-83881367D01*
X111534940Y-83872401D01*
X111457452Y-83795198D01*
X111448440Y-83782851D01*
X111398534Y-83685524D01*
X111393765Y-83670992D01*
X111393581Y-83669853D01*
X111375675Y-83559171D01*
X111375047Y-83551547D01*
X111348935Y-76454055D01*
X111348933Y-76453319D01*
X111348932Y-76452583D01*
X111348932Y-74665819D01*
X111348932Y-74603319D01*
X111273932Y-74503319D01*
X111211433Y-74503319D01*
X110780381Y-74503319D01*
X110767699Y-74501649D01*
X110711614Y-74486621D01*
X110689648Y-74473939D01*
X110653311Y-74437602D01*
X110640631Y-74415641D01*
X110627329Y-74365996D01*
X110627329Y-74340641D01*
X110640631Y-74290996D01*
X110653309Y-74269037D01*
X110689650Y-74232696D01*
X110711609Y-74220018D01*
X110763358Y-74206152D01*
X110776033Y-74204484D01*
X111133951Y-74204484D01*
X111133952Y-74204484D01*
X111135078Y-74204259D01*
X111144635Y-74203319D01*
X111509557Y-74203319D01*
X111517431Y-74203955D01*
G37*
%TD.AperFunction*%
%TA.AperFunction,Conductor*%
G36*
X131205638Y-98507421D02*
G01*
X131204791Y-98520344D01*
X131186894Y-98656280D01*
X131180205Y-98681242D01*
X131130241Y-98801867D01*
X131117319Y-98824249D01*
X131037836Y-98927833D01*
X131019561Y-98946108D01*
X130915977Y-99025591D01*
X130893595Y-99038513D01*
X130772970Y-99088477D01*
X130748008Y-99095166D01*
X130662348Y-99106443D01*
X130612070Y-99113063D01*
X130599149Y-99113910D01*
X128104638Y-99113910D01*
X128046447Y-99095003D01*
X128010483Y-99045503D01*
X128005638Y-99014910D01*
X128005638Y-94313910D01*
X131205638Y-94313910D01*
X131205638Y-98507421D01*
G37*
%TD.AperFunction*%
M02*
